<?xml version="1.0" encoding="UTF-8" standalone="no"?>
<!DOCTYPE svg PUBLIC "-//W3C//DTD SVG 1.1//EN"
 "http://www.w3.org/Graphics/SVG/1.1/DTD/svg11.dtd">
<!-- Generated by graphviz version 2.43.0 (0)
 -->
<!-- Title: fe/arena.h Pages: 1 -->
<svg width="248pt" height="192pt"
 viewBox="0.00 0.00 248.00 192.00" xmlns="http://www.w3.org/2000/svg" xmlns:xlink="http://www.w3.org/1999/xlink">

<svg id="main" version="1.1" xmlns="http://www.w3.org/2000/svg" xmlns:xlink="http://www.w3.org/1999/xlink" xml:space="preserve" onload="init(evt)">
<style type="text/css"><![CDATA[
.node, .edge {opacity: 0.7;}
.node.selected, .edge.selected {opacity: 1;}
.edge:hover path { stroke: red; }
.edge:hover polygon { stroke: red; fill: red; }
]]></style>
<script type="application/ecmascript" xlink:href="svg.min.js"/>
<svg id="graph" class="graph">
<g id="graph0" class="graph" transform="scale(1 1) rotate(0) translate(4 188)">
<title>fe/arena.h</title>
<!-- Node1 -->
<g id="Node000001" class="node">
<title>Node1</title>
<g id="a_Node000001"><a xlink:title=" ">
<polygon fill="#999999" stroke="#666666" points="150,-184 84,-184 84,-165 150,-165 150,-184"/>
<text text-anchor="middle" x="117" y="-172" font-family="Helvetica,sans-Serif" font-size="10.00">fe/arena.h</text>
</a>
</g>
</g>
<!-- Node2 -->
<g id="Node000002" class="node">
<title>Node2</title>
<g id="a_Node000002"><a xlink:href="sym_8h.html" target="_top" xlink:title=" ">
<polygon fill="white" stroke="#666666" points="146.5,-129 87.5,-129 87.5,-110 146.5,-110 146.5,-129"/>
<text text-anchor="middle" x="117" y="-117" font-family="Helvetica,sans-Serif" font-size="10.00">fe/sym.h</text>
</a>
</g>
</g>
<!-- Node1&#45;&gt;Node2 -->
<g id="edge1_Node000001_Node000002" class="edge">
<title>Node1&#45;&gt;Node2</title>
<g id="a_edge1_Node000001_Node000002"><a xlink:title=" ">
<path fill="none" stroke="#63b8ff" d="M117,-154.66C117,-145.93 117,-135.99 117,-129.09"/>
<polygon fill="#63b8ff" stroke="#63b8ff" points="113.5,-154.75 117,-164.75 120.5,-154.75 113.5,-154.75"/>
</a>
</g>
</g>
<!-- Node3 -->
<g id="Node000003" class="node">
<title>Node3</title>
<g id="a_Node000003"><a xlink:href="loc_8h.html" target="_top" xlink:title=" ">
<polygon fill="white" stroke="#666666" points="143.5,-74 90.5,-74 90.5,-55 143.5,-55 143.5,-74"/>
<text text-anchor="middle" x="117" y="-62" font-family="Helvetica,sans-Serif" font-size="10.00">fe/loc.h</text>
</a>
</g>
</g>
<!-- Node2&#45;&gt;Node3 -->
<g id="edge2_Node000002_Node000003" class="edge">
<title>Node2&#45;&gt;Node3</title>
<g id="a_edge2_Node000002_Node000003"><a xlink:title=" ">
<path fill="none" stroke="#63b8ff" d="M117,-99.66C117,-90.93 117,-80.99 117,-74.09"/>
<polygon fill="#63b8ff" stroke="#63b8ff" points="113.5,-99.75 117,-109.75 120.5,-99.75 113.5,-99.75"/>
</a>
</g>
</g>
<!-- Node4 -->
<g id="Node000004" class="node">
<title>Node4</title>
<g id="a_Node000004"><a xlink:href="lexer_8h.html" target="_top" xlink:title=" ">
<polygon fill="white" stroke="#666666" points="62,-19 0,-19 0,0 62,0 62,-19"/>
<text text-anchor="middle" x="31" y="-7" font-family="Helvetica,sans-Serif" font-size="10.00">fe/lexer.h</text>
</a>
</g>
</g>
<!-- Node3&#45;&gt;Node4 -->
<g id="edge3_Node000003_Node000004" class="edge">
<title>Node3&#45;&gt;Node4</title>
<g id="a_edge3_Node000003_Node000004"><a xlink:title=" ">
<path fill="none" stroke="#63b8ff" d="M94.6,-49.7C78.93,-40.04 58.49,-27.44 45.07,-19.17"/>
<polygon fill="#63b8ff" stroke="#63b8ff" points="92.83,-52.72 103.18,-54.98 96.51,-46.76 92.83,-52.72"/>
</a>
</g>
</g>
<!-- Node5 -->
<g id="Node000005" class="node">
<title>Node5</title>
<g id="a_Node000005"><a xlink:href="loc_8cpp_8h.html" target="_top" xlink:title=" ">
<polygon fill="white" stroke="#666666" points="153.5,-19 80.5,-19 80.5,0 153.5,0 153.5,-19"/>
<text text-anchor="middle" x="117" y="-7" font-family="Helvetica,sans-Serif" font-size="10.00">fe/loc.cpp.h</text>
</a>
</g>
</g>
<!-- Node3&#45;&gt;Node5 -->
<g id="edge4_Node000003_Node000005" class="edge">
<title>Node3&#45;&gt;Node5</title>
<g id="a_edge4_Node000003_Node000005"><a xlink:title=" ">
<path fill="none" stroke="#63b8ff" d="M117,-44.66C117,-35.93 117,-25.99 117,-19.09"/>
<polygon fill="#63b8ff" stroke="#63b8ff" points="113.5,-44.75 117,-54.75 120.5,-44.75 113.5,-44.75"/>
</a>
</g>
</g>
<!-- Node6 -->
<g id="Node000006" class="node">
<title>Node6</title>
<g id="a_Node000006"><a xlink:href="parser_8h.html" target="_top" xlink:title=" ">
<polygon fill="white" stroke="#666666" points="240,-19 172,-19 172,0 240,0 240,-19"/>
<text text-anchor="middle" x="206" y="-7" font-family="Helvetica,sans-Serif" font-size="10.00">fe/parser.h</text>
</a>
</g>
</g>
<!-- Node3&#45;&gt;Node6 -->
<g id="edge5_Node000003_Node000006" class="edge">
<title>Node3&#45;&gt;Node6</title>
<g id="a_edge5_Node000003_Node000006"><a xlink:title=" ">
<path fill="none" stroke="#63b8ff" d="M140.18,-49.7C156.39,-40.04 177.55,-27.44 191.44,-19.17"/>
<polygon fill="#63b8ff" stroke="#63b8ff" points="138.1,-46.86 131.3,-54.98 141.68,-52.88 138.1,-46.86"/>
</a>
</g>
</g>
</g>
</svg>
</svg>

<style type='text/css'>
<![CDATA[
[data-mouse-over-selected='false'] { opacity: 0.7; }
[data-mouse-over-selected='true']  { opacity: 1.0; }
]]>
</style>
<script type="application/ecmascript"><![CDATA[
document.addEventListener('DOMContentLoaded', (event) => {
  highlightEdges();
  highlightAdjacentNodes();
});
]]></script>
</svg>
