<?xml version="1.0" encoding="UTF-8" standalone="no"?>
<!DOCTYPE svg PUBLIC "-//W3C//DTD SVG 1.1//EN"
 "http://www.w3.org/Graphics/SVG/1.1/DTD/svg11.dtd">
<!-- Generated by graphviz version 2.43.0 (0)
 -->
<!-- Title: fe/arena.h Pages: 1 -->
<svg width="348pt" height="302pt"
 viewBox="0.00 0.00 348.00 302.00" xmlns="http://www.w3.org/2000/svg" xmlns:xlink="http://www.w3.org/1999/xlink">
<g id="graph0" class="graph" transform="scale(1 1) rotate(0) translate(4 298)">
<title>fe/arena.h</title>
<!-- Node1 -->
<g id="Node000001" class="node">
<title>Node1</title>
<g id="a_Node000001"><a xlink:title=" ">
<polygon fill="#999999" stroke="#666666" points="66,-294 0,-294 0,-275 66,-275 66,-294"/>
<text text-anchor="middle" x="33" y="-282" font-family="Helvetica,sans-Serif" font-size="10.00">fe/arena.h</text>
</a>
</g>
</g>
<!-- Node2 -->
<g id="Node000002" class="node">
<title>Node2</title>
<g id="a_Node000002"><a xlink:href="sym_8h.html" target="_top" xlink:title=" ">
<polygon fill="white" stroke="#666666" points="62.5,-239 3.5,-239 3.5,-220 62.5,-220 62.5,-239"/>
<text text-anchor="middle" x="33" y="-227" font-family="Helvetica,sans-Serif" font-size="10.00">fe/sym.h</text>
</a>
</g>
</g>
<!-- Node1&#45;&gt;Node2 -->
<g id="edge1_Node000001_Node000002" class="edge">
<title>Node1&#45;&gt;Node2</title>
<g id="a_edge1_Node000001_Node000002"><a xlink:title=" ">
<path fill="none" stroke="#63b8ff" d="M33,-264.66C33,-255.93 33,-245.99 33,-239.09"/>
<polygon fill="#63b8ff" stroke="#63b8ff" points="29.5,-264.75 33,-274.75 36.5,-264.75 29.5,-264.75"/>
</a>
</g>
</g>
<!-- Node3 -->
<g id="Node000003" class="node">
<title>Node3</title>
<g id="a_Node000003"><a xlink:href="driver_8h.html" target="_top" xlink:title=" ">
<polygon fill="white" stroke="#666666" points="72,-19 6,-19 6,0 72,0 72,-19"/>
<text text-anchor="middle" x="39" y="-7" font-family="Helvetica,sans-Serif" font-size="10.00">fe/driver.h</text>
</a>
</g>
</g>
<!-- Node2&#45;&gt;Node3 -->
<g id="edge2_Node000002_Node000003" class="edge">
<title>Node2&#45;&gt;Node3</title>
<g id="a_edge2_Node000002_Node000003"><a xlink:title=" ">
<path fill="none" stroke="#63b8ff" d="M31.87,-209.74C30.17,-177.87 27.61,-111.17 32,-55 32.98,-42.52 35.47,-28.26 37.2,-19.32"/>
<polygon fill="#63b8ff" stroke="#63b8ff" points="28.38,-210.03 32.44,-219.82 35.37,-209.63 28.38,-210.03"/>
</a>
</g>
</g>
<!-- Node4 -->
<g id="Node000004" class="node">
<title>Node4</title>
<g id="a_Node000004"><a xlink:href="loc_8h.html" target="_top" xlink:title=" ">
<polygon fill="white" stroke="#666666" points="158.5,-184 105.5,-184 105.5,-165 158.5,-165 158.5,-184"/>
<text text-anchor="middle" x="132" y="-172" font-family="Helvetica,sans-Serif" font-size="10.00">fe/loc.h</text>
</a>
</g>
</g>
<!-- Node2&#45;&gt;Node4 -->
<g id="edge3_Node000002_Node000004" class="edge">
<title>Node2&#45;&gt;Node4</title>
<g id="a_edge3_Node000002_Node000004"><a xlink:title=" ">
<path fill="none" stroke="#63b8ff" d="M57.78,-215.23C75.94,-205.51 100.06,-192.6 115.8,-184.17"/>
<polygon fill="#63b8ff" stroke="#63b8ff" points="56.07,-212.18 48.91,-219.98 59.37,-218.35 56.07,-212.18"/>
</a>
</g>
</g>
<!-- Node4&#45;&gt;Node3 -->
<g id="edge4_Node000004_Node000003" class="edge">
<title>Node4&#45;&gt;Node3</title>
<g id="a_edge4_Node000004_Node000003"><a xlink:title=" ">
<path fill="none" stroke="#63b8ff" d="M95.61,-160.81C80.68,-153.75 64.66,-143.41 55,-129 31.54,-93.99 35.22,-39.99 37.76,-19.13"/>
<polygon fill="#63b8ff" stroke="#63b8ff" points="94.62,-164.19 105.19,-164.98 97.42,-157.78 94.62,-164.19"/>
</a>
</g>
</g>
<!-- Node5 -->
<g id="Node000005" class="node">
<title>Node5</title>
<g id="a_Node000005"><a xlink:href="format_8h.html" target="_top" xlink:title=" ">
<polygon fill="white" stroke="#666666" points="135.5,-129 64.5,-129 64.5,-110 135.5,-110 135.5,-129"/>
<text text-anchor="middle" x="100" y="-117" font-family="Helvetica,sans-Serif" font-size="10.00">fe/format.h</text>
</a>
</g>
</g>
<!-- Node4&#45;&gt;Node5 -->
<g id="edge5_Node000004_Node000005" class="edge">
<title>Node4&#45;&gt;Node5</title>
<g id="a_edge5_Node000004_Node000005"><a xlink:title=" ">
<path fill="none" stroke="#63b8ff" d="M121.5,-156.1C116.03,-147.04 109.58,-136.37 105.19,-129.09"/>
<polygon fill="#63b8ff" stroke="#63b8ff" points="118.55,-158 126.72,-164.75 124.54,-154.38 118.55,-158"/>
</a>
</g>
</g>
<!-- Node6 -->
<g id="Node000006" class="node">
<title>Node6</title>
<g id="a_Node000006"><a xlink:href="loc_8cpp_8h.html" target="_top" xlink:title=" ">
<polygon fill="white" stroke="#666666" points="239.5,-74 166.5,-74 166.5,-55 239.5,-55 239.5,-74"/>
<text text-anchor="middle" x="203" y="-62" font-family="Helvetica,sans-Serif" font-size="10.00">fe/loc.cpp.h</text>
</a>
</g>
</g>
<!-- Node4&#45;&gt;Node6 -->
<g id="edge11_Node000004_Node000006" class="edge">
<title>Node4&#45;&gt;Node6</title>
<g id="a_edge11_Node000004_Node000006"><a xlink:title=" ">
<path fill="none" stroke="#63b8ff" d="M143.46,-156.07C158.86,-132.64 185.65,-91.89 197.31,-74.16"/>
<polygon fill="#63b8ff" stroke="#63b8ff" points="140.38,-154.38 137.81,-164.66 146.23,-158.23 140.38,-154.38"/>
</a>
</g>
</g>
<!-- Node8 -->
<g id="Node000008" class="node">
<title>Node8</title>
<g id="a_Node000008"><a xlink:href="lexer_8h.html" target="_top" xlink:title=" ">
<polygon fill="white" stroke="#666666" points="254,-129 192,-129 192,-110 254,-110 254,-129"/>
<text text-anchor="middle" x="223" y="-117" font-family="Helvetica,sans-Serif" font-size="10.00">fe/lexer.h</text>
</a>
</g>
</g>
<!-- Node4&#45;&gt;Node8 -->
<g id="edge10_Node000004_Node000008" class="edge">
<title>Node4&#45;&gt;Node8</title>
<g id="a_edge10_Node000004_Node000008"><a xlink:title=" ">
<path fill="none" stroke="#63b8ff" d="M155.7,-159.7C172.28,-150.04 193.91,-137.44 208.11,-129.17"/>
<polygon fill="#63b8ff" stroke="#63b8ff" points="153.5,-156.93 146.62,-164.98 157.02,-162.98 153.5,-156.93"/>
</a>
</g>
</g>
<!-- Node9 -->
<g id="Node000009" class="node">
<title>Node9</title>
<g id="a_Node000009"><a xlink:href="parser_8h.html" target="_top" xlink:title=" ">
<polygon fill="white" stroke="#666666" points="340,-129 272,-129 272,-110 340,-110 340,-129"/>
<text text-anchor="middle" x="306" y="-117" font-family="Helvetica,sans-Serif" font-size="10.00">fe/parser.h</text>
</a>
</g>
</g>
<!-- Node4&#45;&gt;Node9 -->
<g id="edge12_Node000004_Node000009" class="edge">
<title>Node4&#45;&gt;Node9</title>
<g id="a_edge12_Node000004_Node000009"><a xlink:title=" ">
<path fill="none" stroke="#63b8ff" d="M168.43,-162.4C201.07,-152.46 248.25,-138.09 278.01,-129.03"/>
<polygon fill="#63b8ff" stroke="#63b8ff" points="167.35,-159.07 158.81,-165.33 169.39,-165.77 167.35,-159.07"/>
</a>
</g>
</g>
<!-- Node5&#45;&gt;Node3 -->
<g id="edge6_Node000005_Node000003" class="edge">
<title>Node5&#45;&gt;Node3</title>
<g id="a_edge6_Node000005_Node000003"><a xlink:title=" ">
<path fill="none" stroke="#63b8ff" d="M89.98,-100.76C76.72,-77.28 53.86,-36.81 43.89,-19.16"/>
<polygon fill="#63b8ff" stroke="#63b8ff" points="87.04,-102.68 95.01,-109.66 93.14,-99.23 87.04,-102.68"/>
</a>
</g>
</g>
<!-- Node5&#45;&gt;Node6 -->
<g id="edge7_Node000005_Node000006" class="edge">
<title>Node5&#45;&gt;Node6</title>
<g id="a_edge7_Node000005_Node000006"><a xlink:title=" ">
<path fill="none" stroke="#63b8ff" d="M125.52,-105.37C144.44,-95.63 169.7,-82.64 186.15,-74.17"/>
<polygon fill="#63b8ff" stroke="#63b8ff" points="123.84,-102.3 116.55,-109.98 127.04,-108.52 123.84,-102.3"/>
</a>
</g>
</g>
<!-- Node7 -->
<g id="Node000007" class="node">
<title>Node7</title>
<g id="a_Node000007"><a xlink:href="term_8h.html" target="_top" xlink:title=" ">
<polygon fill="white" stroke="#666666" points="148,-74 86,-74 86,-55 148,-55 148,-74"/>
<text text-anchor="middle" x="117" y="-62" font-family="Helvetica,sans-Serif" font-size="10.00">fe/term.h</text>
</a>
</g>
</g>
<!-- Node5&#45;&gt;Node7 -->
<g id="edge8_Node000005_Node000007" class="edge">
<title>Node5&#45;&gt;Node7</title>
<g id="a_edge8_Node000005_Node000007"><a xlink:title=" ">
<path fill="none" stroke="#63b8ff" d="M105.95,-99.95C108.77,-91.15 112.01,-81.06 114.25,-74.09"/>
<polygon fill="#63b8ff" stroke="#63b8ff" points="102.53,-99.16 102.81,-109.75 109.19,-101.29 102.53,-99.16"/>
</a>
</g>
</g>
<!-- Node7&#45;&gt;Node3 -->
<g id="edge9_Node000007_Node000003" class="edge">
<title>Node7&#45;&gt;Node3</title>
<g id="a_edge9_Node000007_Node000003"><a xlink:title=" ">
<path fill="none" stroke="#63b8ff" d="M95.88,-49.15C81.79,-39.57 63.71,-27.29 51.76,-19.17"/>
<polygon fill="#63b8ff" stroke="#63b8ff" points="94.23,-52.26 104.47,-54.98 98.16,-46.47 94.23,-52.26"/>
</a>
</g>
</g>
</g>
</svg>
