<?xml version="1.0" encoding="UTF-8" standalone="no"?>
<!DOCTYPE svg PUBLIC "-//W3C//DTD SVG 1.1//EN"
 "http://www.w3.org/Graphics/SVG/1.1/DTD/svg11.dtd">
<!-- Generated by graphviz version 2.43.0 (0)
 -->
<!-- Title: fe/assert.h Pages: 1 -->
<svg width="345pt" height="302pt"
 viewBox="0.00 0.00 345.00 302.00" xmlns="http://www.w3.org/2000/svg" xmlns:xlink="http://www.w3.org/1999/xlink">

<svg id="main" version="1.1" xmlns="http://www.w3.org/2000/svg" xmlns:xlink="http://www.w3.org/1999/xlink" xml:space="preserve">

<style type="text/css"><![CDATA[
.node, .edge {opacity: 0.7;}
.node.selected, .edge.selected {opacity: 1;}
.edge:hover path { stroke: red; }
.edge:hover polygon { stroke: red; fill: red; }
]]></style>
<script type="application/ecmascript" xlink:href="svg.min.js"/>
<svg id="graph" class="graph">
<g id="graph0" class="graph" transform="scale(1 1) rotate(0) translate(4 298)">
<title>fe/assert.h</title>
<!-- Node1 -->
<g id="Node000001" class="node">
<title>Node1</title>
<g id="a_Node000001"><a xlink:title=" ">
<polygon fill="#999999" stroke="#666666" points="230,-294 162,-294 162,-275 230,-275 230,-294"/>
<text text-anchor="middle" x="196" y="-282" font-family="Helvetica,sans-Serif" font-size="10.00">fe/assert.h</text>
</a>
</g>
</g>
<!-- Node2 -->
<g id="Node000002" class="node">
<title>Node2</title>
<g id="a_Node000002"><a xlink:href="arena_8h.html" target="_top" xlink:title=" ">
<polygon fill="white" stroke="#666666" points="143,-239 77,-239 77,-220 143,-220 143,-239"/>
<text text-anchor="middle" x="110" y="-227" font-family="Helvetica,sans-Serif" font-size="10.00">fe/arena.h</text>
</a>
</g>
</g>
<!-- Node1&#45;&gt;Node2 -->
<g id="edge1_Node000001_Node000002" class="edge">
<title>Node1&#45;&gt;Node2</title>
<g id="a_edge1_Node000001_Node000002"><a xlink:title=" ">
<path fill="none" stroke="#63b8ff" d="M173.6,-269.7C157.93,-260.04 137.49,-247.44 124.07,-239.17"/>
<polygon fill="#63b8ff" stroke="#63b8ff" points="171.83,-272.72 182.18,-274.98 175.51,-266.76 171.83,-272.72"/>
</a>
</g>
</g>
<!-- Node10 -->
<g id="Node000010" class="node">
<title>Node10</title>
<g id="a_Node000010"><a xlink:href="cast_8h.html" target="_top" xlink:title=" ">
<polygon fill="white" stroke="#666666" points="302.5,-239 243.5,-239 243.5,-220 302.5,-220 302.5,-239"/>
<text text-anchor="middle" x="273" y="-227" font-family="Helvetica,sans-Serif" font-size="10.00">fe/cast.h</text>
</a>
</g>
</g>
<!-- Node1&#45;&gt;Node10 -->
<g id="edge12_Node000001_Node000010" class="edge">
<title>Node1&#45;&gt;Node10</title>
<g id="a_edge12_Node000001_Node000010"><a xlink:title=" ">
<path fill="none" stroke="#63b8ff" d="M216.85,-269.15C230.76,-259.57 248.61,-247.29 260.4,-239.17"/>
<polygon fill="#63b8ff" stroke="#63b8ff" points="214.62,-266.43 208.37,-274.98 218.59,-272.2 214.62,-266.43"/>
</a>
</g>
</g>
<!-- Node11 -->
<g id="Node000011" class="node">
<title>Node11</title>
<g id="a_Node000011"><a xlink:href="ring_8h.html" target="_top" xlink:title=" ">
<polygon fill="white" stroke="#666666" points="281.5,-129 224.5,-129 224.5,-110 281.5,-110 281.5,-129"/>
<text text-anchor="middle" x="253" y="-117" font-family="Helvetica,sans-Serif" font-size="10.00">fe/ring.h</text>
</a>
</g>
</g>
<!-- Node1&#45;&gt;Node11 -->
<g id="edge13_Node000001_Node000011" class="edge">
<title>Node1&#45;&gt;Node11</title>
<g id="a_edge13_Node000001_Node000011"><a xlink:title=" ">
<path fill="none" stroke="#63b8ff" d="M202.37,-265.28C214.6,-230.32 240.93,-155.01 249.92,-129.31"/>
<polygon fill="#63b8ff" stroke="#63b8ff" points="199.06,-264.14 199.06,-274.74 205.67,-266.45 199.06,-264.14"/>
</a>
</g>
</g>
<!-- Node12 -->
<g id="Node000012" class="node">
<title>Node12</title>
<g id="a_Node000012"><a xlink:href="utf8_8h.html" target="_top" xlink:title=" ">
<polygon fill="white" stroke="#666666" points="206,-129 148,-129 148,-110 206,-110 206,-129"/>
<text text-anchor="middle" x="177" y="-117" font-family="Helvetica,sans-Serif" font-size="10.00">fe/utf8.h</text>
</a>
</g>
</g>
<!-- Node1&#45;&gt;Node12 -->
<g id="edge16_Node000001_Node000012" class="edge">
<title>Node1&#45;&gt;Node12</title>
<g id="a_edge16_Node000001_Node000012"><a xlink:title=" ">
<path fill="none" stroke="#63b8ff" d="M193.77,-264.37C189.65,-229.03 181,-154.79 178.03,-129.31"/>
<polygon fill="#63b8ff" stroke="#63b8ff" points="190.34,-265.21 194.98,-274.74 197.3,-264.4 190.34,-265.21"/>
</a>
</g>
</g>
<!-- Node3 -->
<g id="Node000003" class="node">
<title>Node3</title>
<g id="a_Node000003"><a xlink:href="sym_8h.html" target="_top" xlink:title=" ">
<polygon fill="white" stroke="#666666" points="132.5,-184 73.5,-184 73.5,-165 132.5,-165 132.5,-184"/>
<text text-anchor="middle" x="103" y="-172" font-family="Helvetica,sans-Serif" font-size="10.00">fe/sym.h</text>
</a>
</g>
</g>
<!-- Node2&#45;&gt;Node3 -->
<g id="edge2_Node000002_Node000003" class="edge">
<title>Node2&#45;&gt;Node3</title>
<g id="a_edge2_Node000002_Node000003"><a xlink:title=" ">
<path fill="none" stroke="#63b8ff" d="M107.51,-209.66C106.36,-200.93 105.05,-190.99 104.13,-184.09"/>
<polygon fill="#63b8ff" stroke="#63b8ff" points="104.06,-210.29 108.84,-219.75 111,-209.38 104.06,-210.29"/>
</a>
</g>
</g>
<!-- Node4 -->
<g id="Node000004" class="node">
<title>Node4</title>
<g id="a_Node000004"><a xlink:href="driver_8h.html" target="_top" xlink:title=" ">
<polygon fill="white" stroke="#666666" points="66,-19 0,-19 0,0 66,0 66,-19"/>
<text text-anchor="middle" x="33" y="-7" font-family="Helvetica,sans-Serif" font-size="10.00">fe/driver.h</text>
</a>
</g>
</g>
<!-- Node3&#45;&gt;Node4 -->
<g id="edge3_Node000003_Node000004" class="edge">
<title>Node3&#45;&gt;Node4</title>
<g id="a_edge3_Node000003_Node000004"><a xlink:title=" ">
<path fill="none" stroke="#63b8ff" d="M87.21,-157.26C80.18,-149.28 72.31,-139.21 67,-129 47.14,-90.84 37.51,-39.55 34.28,-19.27"/>
<polygon fill="#63b8ff" stroke="#63b8ff" points="84.74,-159.74 94.09,-164.73 89.89,-155 84.74,-159.74"/>
</a>
</g>
</g>
<!-- Node5 -->
<g id="Node000005" class="node">
<title>Node5</title>
<g id="a_Node000005"><a xlink:href="loc_8h.html" target="_top" xlink:title=" ">
<polygon fill="white" stroke="#666666" points="129.5,-129 76.5,-129 76.5,-110 129.5,-110 129.5,-129"/>
<text text-anchor="middle" x="103" y="-117" font-family="Helvetica,sans-Serif" font-size="10.00">fe/loc.h</text>
</a>
</g>
</g>
<!-- Node3&#45;&gt;Node5 -->
<g id="edge4_Node000003_Node000005" class="edge">
<title>Node3&#45;&gt;Node5</title>
<g id="a_edge4_Node000003_Node000005"><a xlink:title=" ">
<path fill="none" stroke="#63b8ff" d="M103,-154.66C103,-145.93 103,-135.99 103,-129.09"/>
<polygon fill="#63b8ff" stroke="#63b8ff" points="99.5,-154.75 103,-164.75 106.5,-154.75 99.5,-154.75"/>
</a>
</g>
</g>
<!-- Node5&#45;&gt;Node4 -->
<g id="edge5_Node000005_Node000004" class="edge">
<title>Node5&#45;&gt;Node4</title>
<g id="a_edge5_Node000005_Node000004"><a xlink:title=" ">
<path fill="none" stroke="#63b8ff" d="M91.7,-101.07C76.52,-77.64 50.11,-36.89 38.61,-19.16"/>
<polygon fill="#63b8ff" stroke="#63b8ff" points="88.9,-103.17 97.27,-109.66 94.77,-99.37 88.9,-103.17"/>
</a>
</g>
</g>
<!-- Node6 -->
<g id="Node000006" class="node">
<title>Node6</title>
<g id="a_Node000006"><a xlink:href="format_8h.html" target="_top" xlink:title=" ">
<polygon fill="white" stroke="#666666" points="170.5,-74 99.5,-74 99.5,-55 170.5,-55 170.5,-74"/>
<text text-anchor="middle" x="135" y="-62" font-family="Helvetica,sans-Serif" font-size="10.00">fe/format.h</text>
</a>
</g>
</g>
<!-- Node5&#45;&gt;Node6 -->
<g id="edge6_Node000005_Node000006" class="edge">
<title>Node5&#45;&gt;Node6</title>
<g id="a_edge6_Node000005_Node000006"><a xlink:title=" ">
<path fill="none" stroke="#63b8ff" d="M113.5,-101.1C118.97,-92.04 125.42,-81.37 129.81,-74.09"/>
<polygon fill="#63b8ff" stroke="#63b8ff" points="110.46,-99.38 108.28,-109.75 116.45,-103 110.46,-99.38"/>
</a>
</g>
</g>
<!-- Node7 -->
<g id="Node000007" class="node">
<title>Node7</title>
<g id="a_Node000007"><a xlink:href="loc_8cpp_8h.html" target="_top" xlink:title=" ">
<polygon fill="white" stroke="#666666" points="164.5,-19 91.5,-19 91.5,0 164.5,0 164.5,-19"/>
<text text-anchor="middle" x="128" y="-7" font-family="Helvetica,sans-Serif" font-size="10.00">fe/loc.cpp.h</text>
</a>
</g>
</g>
<!-- Node5&#45;&gt;Node7 -->
<g id="edge10_Node000005_Node000007" class="edge">
<title>Node5&#45;&gt;Node7</title>
<g id="a_edge10_Node000005_Node000007"><a xlink:title=" ">
<path fill="none" stroke="#63b8ff" d="M94.1,-100.43C88.98,-87.5 84.53,-69.83 90,-55 95.41,-40.32 108.07,-27.2 117.29,-19.07"/>
<polygon fill="#63b8ff" stroke="#63b8ff" points="90.93,-101.92 98.18,-109.64 97.33,-99.08 90.93,-101.92"/>
</a>
</g>
</g>
<!-- Node8 -->
<g id="Node000008" class="node">
<title>Node8</title>
<g id="a_Node000008"><a xlink:href="lexer_8h.html" target="_top" xlink:title=" ">
<polygon fill="white" stroke="#666666" points="251,-74 189,-74 189,-55 251,-55 251,-74"/>
<text text-anchor="middle" x="220" y="-62" font-family="Helvetica,sans-Serif" font-size="10.00">fe/lexer.h</text>
</a>
</g>
</g>
<!-- Node5&#45;&gt;Node8 -->
<g id="edge9_Node000005_Node000008" class="edge">
<title>Node5&#45;&gt;Node8</title>
<g id="a_edge9_Node000005_Node000008"><a xlink:title=" ">
<path fill="none" stroke="#63b8ff" d="M131.11,-105.77C152.69,-95.99 181.91,-82.75 200.86,-74.17"/>
<polygon fill="#63b8ff" stroke="#63b8ff" points="129.46,-102.67 121.8,-109.98 132.35,-109.05 129.46,-102.67"/>
</a>
</g>
</g>
<!-- Node9 -->
<g id="Node000009" class="node">
<title>Node9</title>
<g id="a_Node000009"><a xlink:href="parser_8h.html" target="_top" xlink:title=" ">
<polygon fill="white" stroke="#666666" points="337,-74 269,-74 269,-55 337,-55 337,-74"/>
<text text-anchor="middle" x="303" y="-62" font-family="Helvetica,sans-Serif" font-size="10.00">fe/parser.h</text>
</a>
</g>
</g>
<!-- Node5&#45;&gt;Node9 -->
<g id="edge11_Node000005_Node000009" class="edge">
<title>Node5&#45;&gt;Node9</title>
<g id="a_edge11_Node000005_Node000009"><a xlink:title=" ">
<path fill="none" stroke="#63b8ff" d="M139.56,-108.81C177.06,-98.87 234.83,-83.56 270.7,-74.06"/>
<polygon fill="#63b8ff" stroke="#63b8ff" points="138.33,-105.52 129.56,-111.46 140.12,-112.28 138.33,-105.52"/>
</a>
</g>
</g>
<!-- Node6&#45;&gt;Node4 -->
<g id="edge7_Node000006_Node000004" class="edge">
<title>Node6&#45;&gt;Node4</title>
<g id="a_edge7_Node000006_Node000004"><a xlink:title=" ">
<path fill="none" stroke="#63b8ff" d="M109.73,-50.37C90.99,-40.63 65.98,-27.64 49.69,-19.17"/>
<polygon fill="#63b8ff" stroke="#63b8ff" points="108.12,-53.48 118.61,-54.98 111.35,-47.27 108.12,-53.48"/>
</a>
</g>
</g>
<!-- Node6&#45;&gt;Node7 -->
<g id="edge8_Node000006_Node000007" class="edge">
<title>Node6&#45;&gt;Node7</title>
<g id="a_edge8_Node000006_Node000007"><a xlink:title=" ">
<path fill="none" stroke="#63b8ff" d="M132.51,-44.66C131.36,-35.93 130.05,-25.99 129.13,-19.09"/>
<polygon fill="#63b8ff" stroke="#63b8ff" points="129.06,-45.29 133.84,-54.75 136,-44.38 129.06,-45.29"/>
</a>
</g>
</g>
<!-- Node11&#45;&gt;Node8 -->
<g id="edge14_Node000011_Node000008" class="edge">
<title>Node11&#45;&gt;Node8</title>
<g id="a_edge14_Node000011_Node000008"><a xlink:title=" ">
<path fill="none" stroke="#63b8ff" d="M242.17,-101.1C236.53,-92.04 229.88,-81.37 225.35,-74.09"/>
<polygon fill="#63b8ff" stroke="#63b8ff" points="239.29,-103.11 247.55,-109.75 245.24,-99.41 239.29,-103.11"/>
</a>
</g>
</g>
<!-- Node11&#45;&gt;Node9 -->
<g id="edge15_Node000011_Node000009" class="edge">
<title>Node11&#45;&gt;Node9</title>
<g id="a_edge15_Node000011_Node000009"><a xlink:title=" ">
<path fill="none" stroke="#63b8ff" d="M268.34,-102.24C277.1,-92.95 287.74,-81.68 294.9,-74.09"/>
<polygon fill="#63b8ff" stroke="#63b8ff" points="265.57,-100.07 261.26,-109.75 270.66,-104.88 265.57,-100.07"/>
</a>
</g>
</g>
<!-- Node12&#45;&gt;Node6 -->
<g id="edge17_Node000012_Node000006" class="edge">
<title>Node12&#45;&gt;Node6</title>
<g id="a_edge17_Node000012_Node000006"><a xlink:title=" ">
<path fill="none" stroke="#63b8ff" d="M163.67,-101.67C156.39,-92.5 147.7,-81.52 141.81,-74.09"/>
<polygon fill="#63b8ff" stroke="#63b8ff" points="161.11,-104.08 170.06,-109.75 166.6,-99.74 161.11,-104.08"/>
</a>
</g>
</g>
<!-- Node12&#45;&gt;Node8 -->
<g id="edge18_Node000012_Node000008" class="edge">
<title>Node12&#45;&gt;Node8</title>
<g id="a_edge18_Node000012_Node000008"><a xlink:title=" ">
<path fill="none" stroke="#63b8ff" d="M190.42,-101.96C197.91,-92.72 206.94,-81.6 213.03,-74.09"/>
<polygon fill="#63b8ff" stroke="#63b8ff" points="187.68,-99.78 184.1,-109.75 193.12,-104.19 187.68,-99.78"/>
</a>
</g>
</g>
</g>
</svg>
</svg>

<style type='text/css'>
<![CDATA[
[data-mouse-over-selected='false'] { opacity: 0.7; }
[data-mouse-over-selected='true']  { opacity: 1.0; }
]]>
</style>
<script type="application/ecmascript"><![CDATA[
document.addEventListener('DOMContentLoaded', (event) => {
  highlightEdges();
  highlightAdjacentNodes();
});
]]></script>
</svg>
