<?xml version="1.0" encoding="UTF-8" standalone="no"?>
<!DOCTYPE svg PUBLIC "-//W3C//DTD SVG 1.1//EN"
 "http://www.w3.org/Graphics/SVG/1.1/DTD/svg11.dtd">
<!-- Generated by graphviz version 2.43.0 (0)
 -->
<!-- Title: fe/assert.h Pages: 1 -->
<svg width="345pt" height="302pt"
 viewBox="0.00 0.00 345.00 302.00" xmlns="http://www.w3.org/2000/svg" xmlns:xlink="http://www.w3.org/1999/xlink">
<g id="graph0" class="graph" transform="scale(1 1) rotate(0) translate(4 298)">
<title>fe/assert.h</title>
<!-- Node1 -->
<g id="Node000001" class="node">
<title>Node1</title>
<g id="a_Node000001"><a xlink:title=" ">
<polygon fill="#999999" stroke="#666666" points="258,-294 190,-294 190,-275 258,-275 258,-294"/>
<text text-anchor="middle" x="224" y="-282" font-family="Helvetica,sans-Serif" font-size="10.00">fe/assert.h</text>
</a>
</g>
</g>
<!-- Node2 -->
<g id="Node000002" class="node">
<title>Node2</title>
<g id="a_Node000002"><a xlink:href="arena_8h.html" target="_top" xlink:title=" ">
<polygon fill="white" stroke="#666666" points="193,-239 127,-239 127,-220 193,-220 193,-239"/>
<text text-anchor="middle" x="160" y="-227" font-family="Helvetica,sans-Serif" font-size="10.00">fe/arena.h</text>
</a>
</g>
</g>
<!-- Node1&#45;&gt;Node2 -->
<g id="edge1_Node000001_Node000002" class="edge">
<title>Node1&#45;&gt;Node2</title>
<g id="a_edge1_Node000001_Node000002"><a xlink:title=" ">
<path fill="none" stroke="#63b8ff" d="M206.01,-268.6C194.54,-259.11 180.09,-247.13 170.47,-239.17"/>
<polygon fill="#63b8ff" stroke="#63b8ff" points="203.78,-271.3 213.72,-274.98 208.25,-265.91 203.78,-271.3"/>
</a>
</g>
</g>
<!-- Node10 -->
<g id="Node000010" class="node">
<title>Node10</title>
<g id="a_Node000010"><a xlink:href="cast_8h.html" target="_top" xlink:title=" ">
<polygon fill="white" stroke="#666666" points="311.5,-239 252.5,-239 252.5,-220 311.5,-220 311.5,-239"/>
<text text-anchor="middle" x="282" y="-227" font-family="Helvetica,sans-Serif" font-size="10.00">fe/cast.h</text>
</a>
</g>
</g>
<!-- Node1&#45;&gt;Node10 -->
<g id="edge12_Node000001_Node000010" class="edge">
<title>Node1&#45;&gt;Node10</title>
<g id="a_edge12_Node000001_Node000010"><a xlink:title=" ">
<path fill="none" stroke="#63b8ff" d="M240.91,-268.04C251.2,-258.64 263.97,-246.98 272.51,-239.17"/>
<polygon fill="#63b8ff" stroke="#63b8ff" points="238.34,-265.66 233.32,-274.98 243.06,-270.82 238.34,-265.66"/>
</a>
</g>
</g>
<!-- Node11 -->
<g id="Node000011" class="node">
<title>Node11</title>
<g id="a_Node000011"><a xlink:href="ring_8h.html" target="_top" xlink:title=" ">
<polygon fill="white" stroke="#666666" points="255.5,-129 198.5,-129 198.5,-110 255.5,-110 255.5,-129"/>
<text text-anchor="middle" x="227" y="-117" font-family="Helvetica,sans-Serif" font-size="10.00">fe/ring.h</text>
</a>
</g>
</g>
<!-- Node1&#45;&gt;Node11 -->
<g id="edge13_Node000001_Node000011" class="edge">
<title>Node1&#45;&gt;Node11</title>
<g id="a_edge13_Node000001_Node000011"><a xlink:title=" ">
<path fill="none" stroke="#63b8ff" d="M224.35,-264.37C225,-229.03 226.37,-154.79 226.84,-129.31"/>
<polygon fill="#63b8ff" stroke="#63b8ff" points="220.85,-264.67 224.16,-274.74 227.84,-264.8 220.85,-264.67"/>
</a>
</g>
</g>
<!-- Node3 -->
<g id="Node000003" class="node">
<title>Node3</title>
<g id="a_Node000003"><a xlink:href="sym_8h.html" target="_top" xlink:title=" ">
<polygon fill="white" stroke="#666666" points="183.5,-184 124.5,-184 124.5,-165 183.5,-165 183.5,-184"/>
<text text-anchor="middle" x="154" y="-172" font-family="Helvetica,sans-Serif" font-size="10.00">fe/sym.h</text>
</a>
</g>
</g>
<!-- Node2&#45;&gt;Node3 -->
<g id="edge2_Node000002_Node000003" class="edge">
<title>Node2&#45;&gt;Node3</title>
<g id="a_edge2_Node000002_Node000003"><a xlink:title=" ">
<path fill="none" stroke="#63b8ff" d="M157.87,-209.66C156.88,-200.93 155.75,-190.99 154.97,-184.09"/>
<polygon fill="#63b8ff" stroke="#63b8ff" points="154.41,-210.21 159.01,-219.75 161.36,-209.42 154.41,-210.21"/>
</a>
</g>
</g>
<!-- Node4 -->
<g id="Node000004" class="node">
<title>Node4</title>
<g id="a_Node000004"><a xlink:href="driver_8h.html" target="_top" xlink:title=" ">
<polygon fill="white" stroke="#666666" points="66,-19 0,-19 0,0 66,0 66,-19"/>
<text text-anchor="middle" x="33" y="-7" font-family="Helvetica,sans-Serif" font-size="10.00">fe/driver.h</text>
</a>
</g>
</g>
<!-- Node3&#45;&gt;Node4 -->
<g id="edge3_Node000003_Node000004" class="edge">
<title>Node3&#45;&gt;Node4</title>
<g id="a_edge3_Node000003_Node000004"><a xlink:title=" ">
<path fill="none" stroke="#63b8ff" d="M128.57,-159.87C100.91,-143.52 57.98,-113.31 38,-74 28.98,-56.25 30.17,-32.07 31.68,-19.27"/>
<polygon fill="#63b8ff" stroke="#63b8ff" points="126.9,-162.95 137.31,-164.88 130.38,-156.87 126.9,-162.95"/>
</a>
</g>
</g>
<!-- Node5 -->
<g id="Node000005" class="node">
<title>Node5</title>
<g id="a_Node000005"><a xlink:href="loc_8h.html" target="_top" xlink:title=" ">
<polygon fill="white" stroke="#666666" points="180.5,-129 127.5,-129 127.5,-110 180.5,-110 180.5,-129"/>
<text text-anchor="middle" x="154" y="-117" font-family="Helvetica,sans-Serif" font-size="10.00">fe/loc.h</text>
</a>
</g>
</g>
<!-- Node3&#45;&gt;Node5 -->
<g id="edge4_Node000003_Node000005" class="edge">
<title>Node3&#45;&gt;Node5</title>
<g id="a_edge4_Node000003_Node000005"><a xlink:title=" ">
<path fill="none" stroke="#63b8ff" d="M154,-154.66C154,-145.93 154,-135.99 154,-129.09"/>
<polygon fill="#63b8ff" stroke="#63b8ff" points="150.5,-154.75 154,-164.75 157.5,-154.75 150.5,-154.75"/>
</a>
</g>
</g>
<!-- Node5&#45;&gt;Node4 -->
<g id="edge5_Node000005_Node000004" class="edge">
<title>Node5&#45;&gt;Node4</title>
<g id="a_edge5_Node000005_Node000004"><a xlink:title=" ">
<path fill="none" stroke="#63b8ff" d="M117.33,-110.74C95.54,-104.34 68.92,-93.1 52,-74 38.11,-58.33 34.37,-32.84 33.36,-19.42"/>
<polygon fill="#63b8ff" stroke="#63b8ff" points="116.7,-114.19 127.27,-113.43 118.53,-107.44 116.7,-114.19"/>
</a>
</g>
</g>
<!-- Node6 -->
<g id="Node000006" class="node">
<title>Node6</title>
<g id="a_Node000006"><a xlink:href="format_8h.html" target="_top" xlink:title=" ">
<polygon fill="white" stroke="#666666" points="132.5,-74 61.5,-74 61.5,-55 132.5,-55 132.5,-74"/>
<text text-anchor="middle" x="97" y="-62" font-family="Helvetica,sans-Serif" font-size="10.00">fe/format.h</text>
</a>
</g>
</g>
<!-- Node5&#45;&gt;Node6 -->
<g id="edge6_Node000005_Node000006" class="edge">
<title>Node5&#45;&gt;Node6</title>
<g id="a_edge6_Node000005_Node000006"><a xlink:title=" ">
<path fill="none" stroke="#63b8ff" d="M137.38,-103.04C127.27,-93.64 114.72,-81.98 106.32,-74.17"/>
<polygon fill="#63b8ff" stroke="#63b8ff" points="135.14,-105.74 144.84,-109.98 139.9,-100.61 135.14,-105.74"/>
</a>
</g>
</g>
<!-- Node7 -->
<g id="Node000007" class="node">
<title>Node7</title>
<g id="a_Node000007"><a xlink:href="loc_8cpp_8h.html" target="_top" xlink:title=" ">
<polygon fill="white" stroke="#666666" points="177.5,-19 104.5,-19 104.5,0 177.5,0 177.5,-19"/>
<text text-anchor="middle" x="141" y="-7" font-family="Helvetica,sans-Serif" font-size="10.00">fe/loc.cpp.h</text>
</a>
</g>
</g>
<!-- Node5&#45;&gt;Node7 -->
<g id="edge10_Node000005_Node000007" class="edge">
<title>Node5&#45;&gt;Node7</title>
<g id="a_edge10_Node000005_Node000007"><a xlink:title=" ">
<path fill="none" stroke="#63b8ff" d="M151.71,-99.48C148.87,-75.84 144.13,-36.5 142.04,-19.16"/>
<polygon fill="#63b8ff" stroke="#63b8ff" points="148.27,-100.15 152.94,-109.66 155.22,-99.32 148.27,-100.15"/>
</a>
</g>
</g>
<!-- Node8 -->
<g id="Node000008" class="node">
<title>Node8</title>
<g id="a_Node000008"><a xlink:href="lexer_8h.html" target="_top" xlink:title=" ">
<polygon fill="white" stroke="#666666" points="251,-74 189,-74 189,-55 251,-55 251,-74"/>
<text text-anchor="middle" x="220" y="-62" font-family="Helvetica,sans-Serif" font-size="10.00">fe/lexer.h</text>
</a>
</g>
</g>
<!-- Node5&#45;&gt;Node8 -->
<g id="edge9_Node000005_Node000008" class="edge">
<title>Node5&#45;&gt;Node8</title>
<g id="a_edge9_Node000005_Node000008"><a xlink:title=" ">
<path fill="none" stroke="#63b8ff" d="M172.55,-103.6C184.38,-94.11 199.29,-82.13 209.2,-74.17"/>
<polygon fill="#63b8ff" stroke="#63b8ff" points="170.21,-100.99 164.6,-109.98 174.59,-106.45 170.21,-100.99"/>
</a>
</g>
</g>
<!-- Node9 -->
<g id="Node000009" class="node">
<title>Node9</title>
<g id="a_Node000009"><a xlink:href="parser_8h.html" target="_top" xlink:title=" ">
<polygon fill="white" stroke="#666666" points="337,-74 269,-74 269,-55 337,-55 337,-74"/>
<text text-anchor="middle" x="303" y="-62" font-family="Helvetica,sans-Serif" font-size="10.00">fe/parser.h</text>
</a>
</g>
</g>
<!-- Node5&#45;&gt;Node9 -->
<g id="edge11_Node000005_Node000009" class="edge">
<title>Node5&#45;&gt;Node9</title>
<g id="a_edge11_Node000005_Node000009"><a xlink:title=" ">
<path fill="none" stroke="#63b8ff" d="M187.59,-106.55C215.26,-96.71 253.84,-82.98 278.62,-74.17"/>
<polygon fill="#63b8ff" stroke="#63b8ff" points="186.19,-103.34 177.94,-109.98 188.53,-109.93 186.19,-103.34"/>
</a>
</g>
</g>
<!-- Node6&#45;&gt;Node4 -->
<g id="edge7_Node000006_Node000004" class="edge">
<title>Node6&#45;&gt;Node4</title>
<g id="a_edge7_Node000006_Node000004"><a xlink:title=" ">
<path fill="none" stroke="#63b8ff" d="M79.01,-48.6C67.54,-39.11 53.09,-27.13 43.47,-19.17"/>
<polygon fill="#63b8ff" stroke="#63b8ff" points="76.78,-51.3 86.72,-54.98 81.25,-45.91 76.78,-51.3"/>
</a>
</g>
</g>
<!-- Node6&#45;&gt;Node7 -->
<g id="edge8_Node000006_Node000007" class="edge">
<title>Node6&#45;&gt;Node7</title>
<g id="a_edge8_Node000006_Node000007"><a xlink:title=" ">
<path fill="none" stroke="#63b8ff" d="M110.73,-46.96C118.4,-37.72 127.63,-26.6 133.87,-19.09"/>
<polygon fill="#63b8ff" stroke="#63b8ff" points="107.96,-44.82 104.27,-54.75 113.35,-49.29 107.96,-44.82"/>
</a>
</g>
</g>
<!-- Node11&#45;&gt;Node8 -->
<g id="edge14_Node000011_Node000008" class="edge">
<title>Node11&#45;&gt;Node8</title>
<g id="a_edge14_Node000011_Node000008"><a xlink:title=" ">
<path fill="none" stroke="#63b8ff" d="M224.51,-99.66C223.36,-90.93 222.05,-80.99 221.13,-74.09"/>
<polygon fill="#63b8ff" stroke="#63b8ff" points="221.06,-100.29 225.84,-109.75 228,-99.38 221.06,-100.29"/>
</a>
</g>
</g>
<!-- Node11&#45;&gt;Node9 -->
<g id="edge15_Node000011_Node000009" class="edge">
<title>Node11&#45;&gt;Node9</title>
<g id="a_edge15_Node000011_Node000009"><a xlink:title=" ">
<path fill="none" stroke="#63b8ff" d="M247.58,-104.15C261.31,-94.57 278.93,-82.29 290.57,-74.17"/>
<polygon fill="#63b8ff" stroke="#63b8ff" points="245.41,-101.39 239.21,-109.98 249.42,-107.14 245.41,-101.39"/>
</a>
</g>
</g>
</g>
</svg>
