<?xml version="1.0" encoding="UTF-8" standalone="no"?>
<!DOCTYPE svg PUBLIC "-//W3C//DTD SVG 1.1//EN"
 "http://www.w3.org/Graphics/SVG/1.1/DTD/svg11.dtd">
<!-- Generated by graphviz version 2.43.0 (0)
 -->
<!-- Title: fe/assert.h Pages: 1 -->
<!--zoomable 522 -->

<svg id="main" version="1.1" xmlns="http://www.w3.org/2000/svg" xmlns:xlink="http://www.w3.org/1999/xlink" xml:space="preserve">

<style type="text/css"><![CDATA[
.node, .edge {opacity: 0.7;}
.node.selected, .edge.selected {opacity: 1;}
.edge:hover path { stroke: red; }
.edge:hover polygon { stroke: red; fill: red; }
]]></style>

<defs>
  <circle id="rim" cx="0" cy="0" r="7"/>
  <circle id="rim2" cx="0" cy="0" r="3.5"/>
  <g id="zoomPlus">
    <use xlink:href="#rim" fill="#404040"><set attributeName="fill" to="#808080" begin="zoomplus.mouseover" end="zoomplus.mouseout"/></use>
    <path d="M-4,0h8M0,-4v8" fill="none" stroke="white" stroke-width="1.5" pointer-events="none"/>
  </g>
  <g id="zoomMin">
    <use xlink:href="#rim" fill="#404040"><set attributeName="fill" to="#808080" begin="zoomminus.mouseover" end="zoomminus.mouseout"/></use>
    <path d="M-4,0h8" fill="none" stroke="white" stroke-width="1.5" pointer-events="none"/>
  </g>
  <g id="arrowUp" transform="translate(30 24)">
    <use xlink:href="#rim"/>
    <path pointer-events="none" fill="none" stroke="white" stroke-width="1.5" d="M0,-3.0v7 M-2.5,-0.5L0,-3.0L2.5,-0.5"/>
  </g>
  <g id="arrowRight" transform="rotate(90) translate(36 -43)">
    <use xlink:href="#rim"/>
    <path pointer-events="none" fill="none" stroke="white" stroke-width="1.5" d="M0,-3.0v7 M-2.5,-0.5L0,-3.0L2.5,-0.5"/>
  </g>
  <g id="arrowDown" transform="rotate(180) translate(-30 -48)">
    <use xlink:href="#rim"/>
    <path pointer-events="none" fill="none" stroke="white" stroke-width="1.5" d="M0,-3.0v7 M-2.5,-0.5L0,-3.0L2.5,-0.5"/>
  </g>
  <g id="arrowLeft" transform="rotate(270) translate(-36 17)">
    <use xlink:href="#rim"/>
    <path pointer-events="none" fill="none" stroke="white" stroke-width="1.5" d="M0,-3.0v7 M-2.5,-0.5L0,-3.0L2.5,-0.5"/>
  </g>
  <g id="resetDef">
    <use xlink:href="#rim2" fill="#404040"><set attributeName="fill" to="#808080" begin="reset.mouseover" end="reset.mouseout"/></use>
  </g>
</defs>
<script type="application/ecmascript" xlink:href="svg.min.js"/>
<svg id="graph" class="graph" data-view-width="741" data-view-height="522" data-section-id="dynsection-1">
<g id="viewport">
<title>fe/assert.h</title>
<!-- Node1 -->
<g id="Node000001" class="node">
<title>Node1</title>
<g id="a_Node000001"><a xlink:title=" ">
<polygon fill="#999999" stroke="#666666" points="428,-514 360,-514 360,-495 428,-495 428,-514"/>
<text text-anchor="middle" x="394" y="-502" font-family="Helvetica,sans-Serif" font-size="10.00">fe/assert.h</text>
</a>
</g>
</g>
<!-- Node2 -->
<g id="Node000002" class="node">
<title>Node2</title>
<g id="a_Node000002"><a xlink:href="arena_8h.html" target="_top" xlink:title=" ">
<polygon fill="white" stroke="#666666" points="387,-459 321,-459 321,-440 387,-440 387,-459"/>
<text text-anchor="middle" x="354" y="-447" font-family="Helvetica,sans-Serif" font-size="10.00">fe/arena.h</text>
</a>
</g>
</g>
<!-- Node1&#45;&gt;Node2 -->
<g id="edge1_Node000001_Node000002" class="edge">
<title>Node1&#45;&gt;Node2</title>
<g id="a_edge1_Node000001_Node000002"><a xlink:title=" ">
<path fill="none" stroke="#63b8ff" d="M381.3,-486.67C374.37,-477.5 366.09,-466.52 360.48,-459.09"/>
<polygon fill="#63b8ff" stroke="#63b8ff" points="378.58,-488.87 387.39,-494.75 384.16,-484.66 378.58,-488.87"/>
</a>
</g>
</g>
<!-- Node11 -->
<g id="Node000011" class="node">
<title>Node11</title>
<g id="a_Node000011"><a xlink:href="log_8h.html" target="_top" xlink:title=" ">
<polygon fill="white" stroke="#666666" points="211.5,-184 158.5,-184 158.5,-165 211.5,-165 211.5,-184"/>
<text text-anchor="middle" x="185" y="-172" font-family="Helvetica,sans-Serif" font-size="10.00">fe/log.h</text>
</a>
</g>
</g>
<!-- Node1&#45;&gt;Node11 -->
<g id="edge34_Node000001_Node000011" class="edge">
<title>Node1&#45;&gt;Node11</title>
<g id="a_edge34_Node000001_Node000011"><a xlink:title=" ">
<path fill="none" stroke="#63b8ff" d="M349.64,-500.74C246.64,-493.1 0,-467.33 0,-395.5 0,-395.5 0,-395.5 0,-283.5 0,-246.77 110.11,-202.43 160.43,-184.09"/>
<polygon fill="#63b8ff" stroke="#63b8ff" points="349.5,-504.23 359.72,-501.46 350,-497.25 349.5,-504.23"/>
</a>
</g>
</g>
<!-- Node12 -->
<g id="Node000012" class="node">
<title>Node12</title>
<g id="a_Node000012"><a xlink:href="term_8h.html" target="_top" xlink:title=" ">
<polygon fill="white" stroke="#666666" points="242,-239 180,-239 180,-220 242,-220 242,-239"/>
<text text-anchor="middle" x="211" y="-227" font-family="Helvetica,sans-Serif" font-size="10.00">fe/term.h</text>
</a>
</g>
</g>
<!-- Node1&#45;&gt;Node12 -->
<g id="edge38_Node000001_Node000012" class="edge">
<title>Node1&#45;&gt;Node12</title>
<g id="a_edge38_Node000001_Node000012"><a xlink:title=" ">
<path fill="none" stroke="#63b8ff" d="M349.83,-497.91C262.47,-485.6 76,-452.65 76,-395.5 76,-395.5 76,-395.5 76,-338.5 76,-284.32 143.11,-252.85 182.7,-239"/>
<polygon fill="#63b8ff" stroke="#63b8ff" points="349.58,-501.4 359.97,-499.3 350.54,-494.47 349.58,-501.4"/>
</a>
</g>
</g>
<!-- Node16 -->
<g id="Node000016" class="node">
<title>Node16</title>
<g id="a_Node000016"><a xlink:href="xtrie_8h.html" target="_top" xlink:title=" ">
<polygon fill="white" stroke="#666666" points="354.5,-404 293.5,-404 293.5,-385 354.5,-385 354.5,-404"/>
<text text-anchor="middle" x="324" y="-392" font-family="Helvetica,sans-Serif" font-size="10.00">fe/xtrie.h</text>
</a>
</g>
</g>
<!-- Node1&#45;&gt;Node16 -->
<g id="edge43_Node000001_Node000016" class="edge">
<title>Node1&#45;&gt;Node16</title>
<g id="a_edge43_Node000001_Node000016"><a xlink:title=" ">
<path fill="none" stroke="#63b8ff" d="M352.29,-491.09C336.84,-484.24 320.92,-473.98 312,-459 301.67,-441.65 311.8,-417.3 318.72,-404.38"/>
<polygon fill="#63b8ff" stroke="#63b8ff" points="351.2,-494.42 361.79,-494.92 353.83,-487.93 351.2,-494.42"/>
</a>
</g>
</g>
<!-- Node17 -->
<g id="Node000017" class="node">
<title>Node17</title>
<g id="a_Node000017"><a xlink:href="cast_8h.html" target="_top" xlink:title=" ">
<polygon fill="white" stroke="#666666" points="464.5,-459 405.5,-459 405.5,-440 464.5,-440 464.5,-459"/>
<text text-anchor="middle" x="435" y="-447" font-family="Helvetica,sans-Serif" font-size="10.00">fe/cast.h</text>
</a>
</g>
</g>
<!-- Node1&#45;&gt;Node17 -->
<g id="edge31_Node000001_Node000017" class="edge">
<title>Node1&#45;&gt;Node17</title>
<g id="a_edge31_Node000001_Node000017"><a xlink:title=" ">
<path fill="none" stroke="#63b8ff" d="M407.02,-486.67C414.12,-477.5 422.6,-466.52 428.36,-459.09"/>
<polygon fill="#63b8ff" stroke="#63b8ff" points="404.12,-484.7 400.77,-494.75 409.66,-488.98 404.12,-484.7"/>
</a>
</g>
</g>
<!-- Node18 -->
<g id="Node000018" class="node">
<title>Node18</title>
<g id="a_Node000018"><a xlink:href="container_8h.html" target="_top" xlink:title=" ">
<polygon fill="white" stroke="#666666" points="565.5,-459 482.5,-459 482.5,-440 565.5,-440 565.5,-459"/>
<text text-anchor="middle" x="524" y="-447" font-family="Helvetica,sans-Serif" font-size="10.00">fe/container.h</text>
</a>
</g>
</g>
<!-- Node1&#45;&gt;Node18 -->
<g id="edge32_Node000001_Node000018" class="edge">
<title>Node1&#45;&gt;Node18</title>
<g id="a_edge32_Node000001_Node000018"><a xlink:title=" ">
<path fill="none" stroke="#63b8ff" d="M424.27,-491.16C448.34,-481.35 481.4,-467.87 502.73,-459.17"/>
<polygon fill="#63b8ff" stroke="#63b8ff" points="422.83,-487.97 414.89,-494.98 425.47,-494.45 422.83,-487.97"/>
</a>
</g>
</g>
<!-- Node20 -->
<g id="Node000020" class="node">
<title>Node20</title>
<g id="a_Node000020"><a xlink:href="ring_8h.html" target="_top" xlink:title=" ">
<polygon fill="white" stroke="#666666" points="732.5,-294 675.5,-294 675.5,-275 732.5,-275 732.5,-294"/>
<text text-anchor="middle" x="704" y="-282" font-family="Helvetica,sans-Serif" font-size="10.00">fe/ring.h</text>
</a>
</g>
</g>
<!-- Node1&#45;&gt;Node20 -->
<g id="edge35_Node000001_Node000020" class="edge">
<title>Node1&#45;&gt;Node20</title>
<g id="a_edge35_Node000001_Node000020"><a xlink:title=" ">
<path fill="none" stroke="#63b8ff" d="M438.12,-503.3C481.68,-501.05 548.34,-491.88 595,-459 657.52,-414.94 691.91,-322.51 701.32,-294.04"/>
<polygon fill="#63b8ff" stroke="#63b8ff" points="437.96,-499.81 428.12,-503.72 438.25,-506.8 437.96,-499.81"/>
</a>
</g>
</g>
<!-- Node21 -->
<g id="Node000021" class="node">
<title>Node21</title>
<g id="a_Node000021"><a xlink:href="utf8_8h.html" target="_top" xlink:title=" ">
<polygon fill="white" stroke="#666666" points="623,-349 565,-349 565,-330 623,-330 623,-349"/>
<text text-anchor="middle" x="594" y="-337" font-family="Helvetica,sans-Serif" font-size="10.00">fe/utf8.h</text>
</a>
</g>
</g>
<!-- Node1&#45;&gt;Node21 -->
<g id="edge39_Node000001_Node000021" class="edge">
<title>Node1&#45;&gt;Node21</title>
<g id="a_edge39_Node000001_Node000021"><a xlink:title=" ">
<path fill="none" stroke="#63b8ff" d="M438.38,-498.23C485.85,-491.65 556.77,-478.79 575,-459 603.8,-427.74 598.76,-371.05 595.53,-349.31"/>
<polygon fill="#63b8ff" stroke="#63b8ff" points="437.79,-494.78 428.34,-499.57 438.72,-501.71 437.79,-494.78"/>
</a>
</g>
</g>
<!-- Node3 -->
<g id="Node000003" class="node">
<title>Node3</title>
<g id="a_Node000003"><a xlink:href="sym_8h.html" target="_top" xlink:title=" ">
<polygon fill="white" stroke="#666666" points="449.5,-404 390.5,-404 390.5,-385 449.5,-385 449.5,-404"/>
<text text-anchor="middle" x="420" y="-392" font-family="Helvetica,sans-Serif" font-size="10.00">fe/sym.h</text>
</a>
</g>
</g>
<!-- Node2&#45;&gt;Node3 -->
<g id="edge2_Node000002_Node000003" class="edge">
<title>Node2&#45;&gt;Node3</title>
<g id="a_edge2_Node000002_Node000003"><a xlink:title=" ">
<path fill="none" stroke="#63b8ff" d="M372.55,-433.6C384.38,-424.11 399.29,-412.13 409.2,-404.17"/>
<polygon fill="#63b8ff" stroke="#63b8ff" points="370.21,-430.99 364.6,-439.98 374.59,-436.45 370.21,-430.99"/>
</a>
</g>
</g>
<!-- Node2&#45;&gt;Node16 -->
<g id="edge30_Node000002_Node000016" class="edge">
<title>Node2&#45;&gt;Node16</title>
<g id="a_edge30_Node000002_Node000016"><a xlink:title=" ">
<path fill="none" stroke="#63b8ff" d="M343.99,-430.82C338.9,-421.82 332.94,-411.29 328.86,-404.09"/>
<polygon fill="#63b8ff" stroke="#63b8ff" points="341.07,-432.77 349.05,-439.75 347.17,-429.32 341.07,-432.77"/>
</a>
</g>
</g>
<!-- Node4 -->
<g id="Node000004" class="node">
<title>Node4</title>
<g id="a_Node000004"><a xlink:href="dbg_8h.html" target="_top" xlink:title=" ">
<polygon fill="white" stroke="#666666" points="477,-239 421,-239 421,-220 477,-220 477,-239"/>
<text text-anchor="middle" x="449" y="-227" font-family="Helvetica,sans-Serif" font-size="10.00">fe/dbg.h</text>
</a>
</g>
</g>
<!-- Node3&#45;&gt;Node4 -->
<g id="edge3_Node000003_Node000004" class="edge">
<title>Node3&#45;&gt;Node4</title>
<g id="a_edge3_Node000003_Node000004"><a xlink:title=" ">
<path fill="none" stroke="#63b8ff" d="M423.32,-374.83C429.58,-339.67 442.88,-264.9 447.43,-239.31"/>
<polygon fill="#63b8ff" stroke="#63b8ff" points="419.86,-374.28 421.56,-384.74 426.76,-375.5 419.86,-374.28"/>
</a>
</g>
</g>
<!-- Node5 -->
<g id="Node000005" class="node">
<title>Node5</title>
<g id="a_Node000005"><a xlink:href="driver_8h.html" target="_top" xlink:title=" ">
<polygon fill="white" stroke="#666666" points="482,-74 416,-74 416,-55 482,-55 482,-74"/>
<text text-anchor="middle" x="449" y="-62" font-family="Helvetica,sans-Serif" font-size="10.00">fe/driver.h</text>
</a>
</g>
</g>
<!-- Node3&#45;&gt;Node5 -->
<g id="edge6_Node000003_Node000005" class="edge">
<title>Node3&#45;&gt;Node5</title>
<g id="a_edge6_Node000003_Node000005"><a xlink:title=" ">
<path fill="none" stroke="#63b8ff" d="M451.29,-380.77C485.95,-364.36 537,-332.25 537,-285.5 537,-285.5 537,-285.5 537,-173.5 537,-127.55 488.53,-90.31 463.53,-74.17"/>
<polygon fill="#63b8ff" stroke="#63b8ff" points="449.67,-377.67 442.01,-384.99 452.56,-384.04 449.67,-377.67"/>
</a>
</g>
</g>
<!-- Node7 -->
<g id="Node000007" class="node">
<title>Node7</title>
<g id="a_Node000007"><a xlink:href="loc_8h.html" target="_top" xlink:title=" ">
<polygon fill="white" stroke="#666666" points="353.5,-349 300.5,-349 300.5,-330 353.5,-330 353.5,-349"/>
<text text-anchor="middle" x="327" y="-337" font-family="Helvetica,sans-Serif" font-size="10.00">fe/loc.h</text>
</a>
</g>
</g>
<!-- Node3&#45;&gt;Node7 -->
<g id="edge7_Node000003_Node000007" class="edge">
<title>Node3&#45;&gt;Node7</title>
<g id="a_edge7_Node000003_Node000007"><a xlink:title=" ">
<path fill="none" stroke="#63b8ff" d="M396.25,-379.97C379.25,-370.28 356.87,-357.52 342.21,-349.17"/>
<polygon fill="#63b8ff" stroke="#63b8ff" points="394.64,-383.07 405.06,-384.98 398.1,-376.99 394.64,-383.07"/>
</a>
</g>
</g>
<!-- Node4&#45;&gt;Node5 -->
<g id="edge4_Node000004_Node000005" class="edge">
<title>Node4&#45;&gt;Node5</title>
<g id="a_edge4_Node000004_Node000005"><a xlink:title=" ">
<path fill="none" stroke="#63b8ff" d="M449,-209.37C449,-174.03 449,-99.79 449,-74.31"/>
<polygon fill="#63b8ff" stroke="#63b8ff" points="445.5,-209.74 449,-219.74 452.5,-209.74 445.5,-209.74"/>
</a>
</g>
</g>
<!-- Node6 -->
<g id="Node000006" class="node">
<title>Node6</title>
<g id="a_Node000006"><a xlink:href="parser_8h.html" target="_top" xlink:title=" ">
<polygon fill="white" stroke="#666666" points="483,-19 415,-19 415,0 483,0 483,-19"/>
<text text-anchor="middle" x="449" y="-7" font-family="Helvetica,sans-Serif" font-size="10.00">fe/parser.h</text>
</a>
</g>
</g>
<!-- Node5&#45;&gt;Node6 -->
<g id="edge5_Node000005_Node000006" class="edge">
<title>Node5&#45;&gt;Node6</title>
<g id="a_edge5_Node000005_Node000006"><a xlink:title=" ">
<path fill="none" stroke="#63b8ff" d="M449,-44.66C449,-35.93 449,-25.99 449,-19.09"/>
<polygon fill="#63b8ff" stroke="#63b8ff" points="445.5,-44.75 449,-54.75 452.5,-44.75 445.5,-44.75"/>
</a>
</g>
</g>
<!-- Node7&#45;&gt;Node4 -->
<g id="edge8_Node000007_Node000004" class="edge">
<title>Node7&#45;&gt;Node4</title>
<g id="a_edge8_Node000007_Node000004"><a xlink:title=" ">
<path fill="none" stroke="#63b8ff" d="M355.94,-325.54C371.28,-317.78 389.83,-306.92 404,-294 422.17,-277.43 437.25,-252.33 444.45,-239.2"/>
<polygon fill="#63b8ff" stroke="#63b8ff" points="354.32,-322.43 346.87,-329.95 357.39,-328.72 354.32,-322.43"/>
</a>
</g>
</g>
<!-- Node7&#45;&gt;Node6 -->
<g id="edge25_Node000007_Node000006" class="edge">
<title>Node7&#45;&gt;Node6</title>
<g id="a_edge25_Node000007_Node000006"><a xlink:title=" ">
<path fill="none" stroke="#63b8ff" d="M289.99,-332.68C212.03,-319.37 38,-283.7 38,-230.5 38,-230.5 38,-230.5 38,-118.5 38,-40.85 315.89,-17.88 414.67,-12.16"/>
<polygon fill="#63b8ff" stroke="#63b8ff" points="289.89,-336.21 300.33,-334.41 291.04,-329.31 289.89,-336.21"/>
</a>
</g>
</g>
<!-- Node8 -->
<g id="Node000008" class="node">
<title>Node8</title>
<g id="a_Node000008"><a xlink:href="diag_8h.html" target="_top" xlink:title=" ">
<polygon fill="white" stroke="#666666" points="288.5,-184 229.5,-184 229.5,-165 288.5,-165 288.5,-184"/>
<text text-anchor="middle" x="259" y="-172" font-family="Helvetica,sans-Serif" font-size="10.00">fe/diag.h</text>
</a>
</g>
</g>
<!-- Node7&#45;&gt;Node8 -->
<g id="edge9_Node000007_Node000008" class="edge">
<title>Node7&#45;&gt;Node8</title>
<g id="a_edge9_Node000007_Node000008"><a xlink:title=" ">
<path fill="none" stroke="#63b8ff" d="M306.33,-323.39C297.18,-315.62 287.12,-305.39 281,-294 261,-256.76 258.87,-204.51 258.85,-184.12"/>
<polygon fill="#63b8ff" stroke="#63b8ff" points="304.35,-326.29 314.35,-329.8 308.72,-320.82 304.35,-326.29"/>
</a>
</g>
</g>
<!-- Node9 -->
<g id="Node000009" class="node">
<title>Node9</title>
<g id="a_Node000009"><a xlink:href="error_8h.html" target="_top" xlink:title=" ">
<polygon fill="white" stroke="#666666" points="385.5,-129 324.5,-129 324.5,-110 385.5,-110 385.5,-129"/>
<text text-anchor="middle" x="355" y="-117" font-family="Helvetica,sans-Serif" font-size="10.00">fe/error.h</text>
</a>
</g>
</g>
<!-- Node7&#45;&gt;Node9 -->
<g id="edge13_Node000007_Node000009" class="edge">
<title>Node7&#45;&gt;Node9</title>
<g id="a_edge13_Node000007_Node000009"><a xlink:title=" ">
<path fill="none" stroke="#63b8ff" d="M320.36,-320.14C317.83,-312.21 315.25,-302.76 314,-294 312.8,-285.64 312.91,-283.37 314,-275 321.43,-218.04 343.65,-152.18 351.89,-129.05"/>
<polygon fill="#63b8ff" stroke="#63b8ff" points="317.12,-321.46 323.66,-329.8 323.74,-319.2 317.12,-321.46"/>
</a>
</g>
</g>
<!-- Node10 -->
<g id="Node000010" class="node">
<title>Node10</title>
<g id="a_Node000010"><a xlink:href="format_8h.html" target="_top" xlink:title=" ">
<polygon fill="white" stroke="#666666" points="394.5,-294 323.5,-294 323.5,-275 394.5,-275 394.5,-294"/>
<text text-anchor="middle" x="359" y="-282" font-family="Helvetica,sans-Serif" font-size="10.00">fe/format.h</text>
</a>
</g>
</g>
<!-- Node7&#45;&gt;Node10 -->
<g id="edge14_Node000007_Node000010" class="edge">
<title>Node7&#45;&gt;Node10</title>
<g id="a_edge14_Node000007_Node000010"><a xlink:title=" ">
<path fill="none" stroke="#63b8ff" d="M337.5,-321.1C342.97,-312.04 349.42,-301.37 353.81,-294.09"/>
<polygon fill="#63b8ff" stroke="#63b8ff" points="334.46,-319.38 332.28,-329.75 340.45,-323 334.46,-319.38"/>
</a>
</g>
</g>
<!-- Node7&#45;&gt;Node11 -->
<g id="edge24_Node000007_Node000011" class="edge">
<title>Node7&#45;&gt;Node11</title>
<g id="a_edge24_Node000007_Node000011"><a xlink:title=" ">
<path fill="none" stroke="#63b8ff" d="M290.75,-327.05C253.13,-312.99 196.31,-285.15 171,-239 161.23,-221.18 172.12,-197.03 179.45,-184.26"/>
<polygon fill="#63b8ff" stroke="#63b8ff" points="289.75,-330.4 300.34,-330.49 292.11,-323.82 289.75,-330.4"/>
</a>
</g>
</g>
<!-- Node13 -->
<g id="Node000013" class="node">
<title>Node13</title>
<g id="a_Node000013"><a xlink:href="snippet_8h.html" target="_top" xlink:title=" ">
<polygon fill="white" stroke="#666666" points="140,-184 66,-184 66,-165 140,-165 140,-184"/>
<text text-anchor="middle" x="103" y="-172" font-family="Helvetica,sans-Serif" font-size="10.00">fe/snippet.h</text>
</a>
</g>
</g>
<!-- Node7&#45;&gt;Node13 -->
<g id="edge26_Node000007_Node000013" class="edge">
<title>Node7&#45;&gt;Node13</title>
<g id="a_edge26_Node000007_Node000013"><a xlink:title=" ">
<path fill="none" stroke="#63b8ff" d="M290.41,-331.47C263.35,-324.99 226.57,-313.36 199,-294 154.58,-262.81 119.74,-205.58 107.62,-184.02"/>
<polygon fill="#63b8ff" stroke="#63b8ff" points="289.74,-334.91 300.26,-333.71 291.29,-328.08 289.74,-334.91"/>
</a>
</g>
</g>
<!-- Node14 -->
<g id="Node000014" class="node">
<title>Node14</title>
<g id="a_Node000014"><a xlink:href="lexer_8h.html" target="_top" xlink:title=" ">
<polygon fill="white" stroke="#666666" points="673,-239 611,-239 611,-220 673,-220 673,-239"/>
<text text-anchor="middle" x="642" y="-227" font-family="Helvetica,sans-Serif" font-size="10.00">fe/lexer.h</text>
</a>
</g>
</g>
<!-- Node7&#45;&gt;Node14 -->
<g id="edge23_Node000007_Node000014" class="edge">
<title>Node7&#45;&gt;Node14</title>
<g id="a_edge23_Node000007_Node000014"><a xlink:title=" ">
<path fill="none" stroke="#63b8ff" d="M361.62,-326.63C425.63,-304.68 561.07,-258.25 617.02,-239.07"/>
<polygon fill="#63b8ff" stroke="#63b8ff" points="360.31,-323.38 351.98,-329.94 362.58,-330 360.31,-323.38"/>
</a>
</g>
</g>
<!-- Node15 -->
<g id="Node000015" class="node">
<title>Node15</title>
<g id="a_Node000015"><a xlink:href="src_8h.html" target="_top" xlink:title=" ">
<polygon fill="white" stroke="#666666" points="618.5,-294 565.5,-294 565.5,-275 618.5,-275 618.5,-294"/>
<text text-anchor="middle" x="592" y="-282" font-family="Helvetica,sans-Serif" font-size="10.00">fe/src.h</text>
</a>
</g>
</g>
<!-- Node7&#45;&gt;Node15 -->
<g id="edge27_Node000007_Node000015" class="edge">
<title>Node7&#45;&gt;Node15</title>
<g id="a_edge27_Node000007_Node000015"><a xlink:title=" ">
<path fill="none" stroke="#63b8ff" d="M363.74,-331.15C417.89,-320.32 517.85,-300.33 565.45,-290.81"/>
<polygon fill="#63b8ff" stroke="#63b8ff" points="362.99,-327.73 353.87,-333.13 364.36,-334.6 362.99,-327.73"/>
</a>
</g>
</g>
<!-- Node8&#45;&gt;Node5 -->
<g id="edge10_Node000008_Node000005" class="edge">
<title>Node8&#45;&gt;Node5</title>
<g id="a_edge10_Node000008_Node000005"><a xlink:title=" ">
<path fill="none" stroke="#63b8ff" d="M270.2,-156.38C280.34,-142.12 296.5,-122.24 315,-110 345.98,-89.51 387.22,-77.69 415.73,-71.45"/>
<polygon fill="#63b8ff" stroke="#63b8ff" points="267.2,-154.57 264.44,-164.8 272.98,-158.52 267.2,-154.57"/>
</a>
</g>
</g>
<!-- Node8&#45;&gt;Node9 -->
<g id="edge11_Node000008_Node000009" class="edge">
<title>Node8&#45;&gt;Node9</title>
<g id="a_edge11_Node000008_Node000009"><a xlink:title=" ">
<path fill="none" stroke="#63b8ff" d="M283.52,-159.97C301.06,-150.28 324.17,-137.52 339.3,-129.17"/>
<polygon fill="#63b8ff" stroke="#63b8ff" points="281.49,-157.09 274.42,-164.98 284.87,-163.22 281.49,-157.09"/>
</a>
</g>
</g>
<!-- Node9&#45;&gt;Node5 -->
<g id="edge12_Node000009_Node000005" class="edge">
<title>Node9&#45;&gt;Node5</title>
<g id="a_edge12_Node000009_Node000005"><a xlink:title=" ">
<path fill="none" stroke="#63b8ff" d="M379,-104.97C396.19,-95.28 418.81,-82.52 433.62,-74.17"/>
<polygon fill="#63b8ff" stroke="#63b8ff" points="377.09,-102.02 370.1,-109.98 380.53,-108.12 377.09,-102.02"/>
</a>
</g>
</g>
<!-- Node10&#45;&gt;Node4 -->
<g id="edge15_Node000010_Node000004" class="edge">
<title>Node10&#45;&gt;Node4</title>
<g id="a_edge15_Node000010_Node000004"><a xlink:title=" ">
<path fill="none" stroke="#63b8ff" d="M382.44,-269.7C398.84,-260.04 420.23,-247.44 434.28,-239.17"/>
<polygon fill="#63b8ff" stroke="#63b8ff" points="380.3,-266.89 373.46,-274.98 383.85,-272.93 380.3,-266.89"/>
</a>
</g>
</g>
<!-- Node10&#45;&gt;Node9 -->
<g id="edge16_Node000010_Node000009" class="edge">
<title>Node10&#45;&gt;Node9</title>
<g id="a_edge16_Node000010_Node000009"><a xlink:title=" ">
<path fill="none" stroke="#63b8ff" d="M363.28,-264.88C368.03,-241.47 374.39,-200.07 369,-165 367.03,-152.19 362.06,-138.01 358.6,-129.18"/>
<polygon fill="#63b8ff" stroke="#63b8ff" points="359.82,-264.31 361.13,-274.83 366.66,-265.79 359.82,-264.31"/>
</a>
</g>
</g>
<!-- Node10&#45;&gt;Node11 -->
<g id="edge17_Node000010_Node000011" class="edge">
<title>Node10&#45;&gt;Node11</title>
<g id="a_edge17_Node000010_Node000011"><a xlink:title=" ">
<path fill="none" stroke="#63b8ff" d="M336.12,-269.3C299.54,-246.59 228.98,-202.8 199.01,-184.2"/>
<polygon fill="#63b8ff" stroke="#63b8ff" points="334.71,-272.54 345.05,-274.84 338.4,-266.6 334.71,-272.54"/>
</a>
</g>
</g>
<!-- Node10&#45;&gt;Node12 -->
<g id="edge18_Node000010_Node000012" class="edge">
<title>Node10&#45;&gt;Node12</title>
<g id="a_edge18_Node000010_Node000012"><a xlink:title=" ">
<path fill="none" stroke="#63b8ff" d="M325.63,-271.55C298.15,-261.71 259.83,-247.98 235.21,-239.17"/>
<polygon fill="#63b8ff" stroke="#63b8ff" points="324.63,-274.91 335.22,-274.98 326.99,-268.32 324.63,-274.91"/>
</a>
</g>
</g>
<!-- Node12&#45;&gt;Node8 -->
<g id="edge19_Node000012_Node000008" class="edge">
<title>Node12&#45;&gt;Node8</title>
<g id="a_edge19_Node000012_Node000008"><a xlink:title=" ">
<path fill="none" stroke="#63b8ff" d="M225.73,-212.24C234.14,-202.95 244.35,-191.68 251.22,-184.09"/>
<polygon fill="#63b8ff" stroke="#63b8ff" points="223.04,-209.99 218.93,-219.75 228.23,-214.69 223.04,-209.99"/>
</a>
</g>
</g>
<!-- Node12&#45;&gt;Node9 -->
<g id="edge20_Node000012_Node000009" class="edge">
<title>Node12&#45;&gt;Node9</title>
<g id="a_edge20_Node000012_Node000009"><a xlink:title=" ">
<path fill="none" stroke="#63b8ff" d="M241.91,-215.74C259.02,-207.91 280.16,-196.91 297,-184 318.57,-167.47 338.78,-142.35 348.67,-129.21"/>
<polygon fill="#63b8ff" stroke="#63b8ff" points="240.09,-212.72 232.37,-219.98 242.93,-219.12 240.09,-212.72"/>
</a>
</g>
</g>
<!-- Node12&#45;&gt;Node11 -->
<g id="edge21_Node000012_Node000011" class="edge">
<title>Node12&#45;&gt;Node11</title>
<g id="a_edge21_Node000012_Node000011"><a xlink:title=" ">
<path fill="none" stroke="#63b8ff" d="M202.18,-210.53C197.8,-201.6 192.71,-191.22 189.21,-184.09"/>
<polygon fill="#63b8ff" stroke="#63b8ff" points="199.16,-212.31 206.71,-219.75 205.44,-209.23 199.16,-212.31"/>
</a>
</g>
</g>
<!-- Node12&#45;&gt;Node13 -->
<g id="edge22_Node000012_Node000013" class="edge">
<title>Node12&#45;&gt;Node13</title>
<g id="a_edge22_Node000012_Node000013"><a xlink:title=" ">
<path fill="none" stroke="#63b8ff" d="M184.51,-215.5C164.64,-205.75 138,-192.68 120.67,-184.17"/>
<polygon fill="#63b8ff" stroke="#63b8ff" points="183.13,-218.72 193.65,-219.98 186.21,-212.44 183.13,-218.72"/>
</a>
</g>
</g>
<!-- Node15&#45;&gt;Node5 -->
<g id="edge28_Node000015_Node000005" class="edge">
<title>Node15&#45;&gt;Node5</title>
<g id="a_edge28_Node000015_Node000005"><a xlink:title=" ">
<path fill="none" stroke="#63b8ff" d="M592.74,-264.6C593.08,-229.91 588.96,-155.46 551,-110 533.66,-89.24 504.78,-77.88 482.17,-71.84"/>
<polygon fill="#63b8ff" stroke="#63b8ff" points="589.24,-264.66 592.49,-274.74 596.23,-264.83 589.24,-264.66"/>
</a>
</g>
</g>
<!-- Node15&#45;&gt;Node14 -->
<g id="edge29_Node000015_Node000014" class="edge">
<title>Node15&#45;&gt;Node14</title>
<g id="a_edge29_Node000015_Node000014"><a xlink:title=" ">
<path fill="none" stroke="#63b8ff" d="M607.34,-267.24C616.1,-257.95 626.74,-246.68 633.9,-239.09"/>
<polygon fill="#63b8ff" stroke="#63b8ff" points="604.57,-265.07 600.26,-274.75 609.66,-269.88 604.57,-265.07"/>
</a>
</g>
</g>
<!-- Node19 -->
<g id="Node000019" class="node">
<title>Node19</title>
<g id="a_Node000019"><a xlink:href="worklist_8h.html" target="_top" xlink:title=" ">
<polygon fill="white" stroke="#666666" points="562.5,-404 485.5,-404 485.5,-385 562.5,-385 562.5,-404"/>
<text text-anchor="middle" x="524" y="-392" font-family="Helvetica,sans-Serif" font-size="10.00">fe/worklist.h</text>
</a>
</g>
</g>
<!-- Node18&#45;&gt;Node19 -->
<g id="edge33_Node000018_Node000019" class="edge">
<title>Node18&#45;&gt;Node19</title>
<g id="a_edge33_Node000018_Node000019"><a xlink:title=" ">
<path fill="none" stroke="#63b8ff" d="M524,-429.66C524,-420.93 524,-410.99 524,-404.09"/>
<polygon fill="#63b8ff" stroke="#63b8ff" points="520.5,-429.75 524,-439.75 527.5,-429.75 520.5,-429.75"/>
</a>
</g>
</g>
<!-- Node20&#45;&gt;Node6 -->
<g id="edge37_Node000020_Node000006" class="edge">
<title>Node20&#45;&gt;Node6</title>
<g id="a_edge37_Node000020_Node000006"><a xlink:title=" ">
<path fill="none" stroke="#63b8ff" d="M703.44,-264.77C702.85,-243.23 702,-206.82 702,-175.5 702,-175.5 702,-175.5 702,-118.5 702,-24.42 552.18,-11.18 483.12,-10.07"/>
<polygon fill="#63b8ff" stroke="#63b8ff" points="699.95,-264.93 703.73,-274.82 706.94,-264.73 699.95,-264.93"/>
</a>
</g>
</g>
<!-- Node20&#45;&gt;Node14 -->
<g id="edge36_Node000020_Node000014" class="edge">
<title>Node20&#45;&gt;Node14</title>
<g id="a_edge36_Node000020_Node000014"><a xlink:title=" ">
<path fill="none" stroke="#63b8ff" d="M686.25,-268.32C675.19,-258.87 661.37,-247.06 652.14,-239.17"/>
<polygon fill="#63b8ff" stroke="#63b8ff" points="684.16,-271.15 694.04,-274.98 688.71,-265.83 684.16,-271.15"/>
</a>
</g>
</g>
<!-- Node21&#45;&gt;Node10 -->
<g id="edge40_Node000021_Node000010" class="edge">
<title>Node21&#45;&gt;Node10</title>
<g id="a_edge40_Node000021_Node000010"><a xlink:title=" ">
<path fill="none" stroke="#63b8ff" d="M554.82,-329.66C510.22,-319.6 437.97,-303.31 394.82,-293.58"/>
<polygon fill="#63b8ff" stroke="#63b8ff" points="554.19,-333.11 564.71,-331.89 555.73,-326.28 554.19,-333.11"/>
</a>
</g>
</g>
<!-- Node21&#45;&gt;Node14 -->
<g id="edge41_Node000021_Node000014" class="edge">
<title>Node21&#45;&gt;Node14</title>
<g id="a_edge41_Node000021_Node000014"><a xlink:title=" ">
<path fill="none" stroke="#63b8ff" d="M609.37,-322.01C616.01,-314.07 623.31,-304.1 628,-294 636.56,-275.57 640,-251.66 641.29,-239.09"/>
<polygon fill="#63b8ff" stroke="#63b8ff" points="606.56,-319.91 602.59,-329.73 611.82,-324.53 606.56,-319.91"/>
</a>
</g>
</g>
<!-- Node21&#45;&gt;Node15 -->
<g id="edge42_Node000021_Node000015" class="edge">
<title>Node21&#45;&gt;Node15</title>
<g id="a_edge42_Node000021_Node000015"><a xlink:title=" ">
<path fill="none" stroke="#63b8ff" d="M593.29,-319.66C592.96,-310.93 592.58,-300.99 592.32,-294.09"/>
<polygon fill="#63b8ff" stroke="#63b8ff" points="589.8,-319.89 593.67,-329.75 596.79,-319.62 589.8,-319.89"/>
</a>
</g>
</g>
</g>
</svg>

<g id="navigator" transform="translate(0 0)" fill="#404254">
  <rect fill="#f2f5e9" fill-opacity="0.5" stroke="#606060" stroke-width=".5" x="0" y="0" width="60" height="60"/>
  <use id="zoomplus" xlink:href="#zoomPlus" x="17" y="9" data-zoom="in"/>
  <use id="zoomminus" xlink:href="#zoomMin" x="42" y="9" data-zoom="out"/>
  <use id="reset" xlink:href="#resetDef" x="30" y="36" data-reset="true"/>
  <use id="arrowup" xlink:href="#arrowUp" x="0" y="0" data-pan-x="0" data-pan-y="-1"/>
  <use id="arrowright" xlink:href="#arrowRight" x="0" y="0" data-pan-x="1" data-pan-y="0"/>
  <use id="arrowdown" xlink:href="#arrowDown" x="0" y="0" data-pan-x="0" data-pan-y="1"/>
  <use id="arrowleft" xlink:href="#arrowLeft" x="0" y="0" data-pan-x="-1" data-pan-y="0"/>
</g>
<svg viewBox="0 0 15 15" width="100%" height="30px" preserveAspectRatio="xMaxYMin meet">
 <g id="arrow_out" transform="scale(0.3 0.3)">
  <a xlink:href="assert_8h__dep__incl_org.svg" target="_base">
   <rect id="button" ry="5" rx="5" y="6" x="6" height="38" width="38"
        fill="#f2f5e9" fill-opacity="0.5" stroke="#606060" stroke-width="1.0"/>
   <path id="arrow"
     d="M 11.500037,31.436501 C 11.940474,20.09759 22.043105,11.32322 32.158766,21.979434 L 37.068811,17.246167 C 37.068811,17.246167 37.088388,32 37.088388,32 L 22.160133,31.978069 C 22.160133,31.978069 26.997745,27.140456 26.997745,27.140456 C 18.528582,18.264221 13.291696,25.230495 11.500037,31.436501 z"
     style="fill:#404040;"/>
  </a>
 </g>
</svg>

<style type='text/css'>
<![CDATA[
[data-mouse-over-selected='false'] { opacity: 0.7; }
[data-mouse-over-selected='true']  { opacity: 1.0; }
]]>
</style>
</svg>
