<?xml version="1.0" encoding="UTF-8" standalone="no"?>
<!DOCTYPE svg PUBLIC "-//W3C//DTD SVG 1.1//EN"
 "http://www.w3.org/Graphics/SVG/1.1/DTD/svg11.dtd">
<!-- Generated by graphviz version 2.43.0 (0)
 -->
<!-- Title: fe/assert.h Pages: 1 -->
<svg width="392pt" height="357pt"
 viewBox="0.00 0.00 392.38 357.00" xmlns="http://www.w3.org/2000/svg" xmlns:xlink="http://www.w3.org/1999/xlink">

<svg id="main" version="1.1" xmlns="http://www.w3.org/2000/svg" xmlns:xlink="http://www.w3.org/1999/xlink" xml:space="preserve">

<style type="text/css"><![CDATA[
.node, .edge {opacity: 0.7;}
.node.selected, .edge.selected {opacity: 1;}
.edge:hover path { stroke: red; }
.edge:hover polygon { stroke: red; fill: red; }
]]></style>
<script type="application/ecmascript" xlink:href="svg.min.js"/>
<svg id="graph" class="graph">
<g id="graph0" class="graph" transform="scale(1 1) rotate(0) translate(4 353)">
<title>fe/assert.h</title>
<!-- Node1 -->
<g id="Node000001" class="node">
<title>Node1</title>
<g id="a_Node000001"><a xlink:title=" ">
<polygon fill="#999999" stroke="#666666" points="374.12,-349 306.12,-349 306.12,-330 374.12,-330 374.12,-349"/>
<text text-anchor="middle" x="340.12" y="-337" font-family="Helvetica,sans-Serif" font-size="10.00">fe/assert.h</text>
</a>
</g>
</g>
<!-- Node2 -->
<g id="Node000002" class="node">
<title>Node2</title>
<g id="a_Node000002"><a xlink:href="arena_8h.html" target="_top" xlink:title=" ">
<polygon fill="white" stroke="#666666" points="208.12,-294 142.12,-294 142.12,-275 208.12,-275 208.12,-294"/>
<text text-anchor="middle" x="175.12" y="-282" font-family="Helvetica,sans-Serif" font-size="10.00">fe/arena.h</text>
</a>
</g>
</g>
<!-- Node1&#45;&gt;Node2 -->
<g id="edge1_Node000001_Node000002" class="edge">
<title>Node1&#45;&gt;Node2</title>
<g id="a_edge1_Node000001_Node000002"><a xlink:title=" ">
<path fill="none" stroke="#63b8ff" d="M303.69,-326.8C272.89,-316.91 229.49,-302.97 201.83,-294.08"/>
<polygon fill="#63b8ff" stroke="#63b8ff" points="303.01,-330.26 313.61,-329.98 305.15,-323.59 303.01,-330.26"/>
</a>
</g>
</g>
<!-- Node8 -->
<g id="Node000008" class="node">
<title>Node8</title>
<g id="a_Node000008"><a xlink:href="term_8h.html" target="_top" xlink:title=" ">
<polygon fill="white" stroke="#666666" points="209.12,-74 147.12,-74 147.12,-55 209.12,-55 209.12,-74"/>
<text text-anchor="middle" x="178.12" y="-62" font-family="Helvetica,sans-Serif" font-size="10.00">fe/term.h</text>
</a>
</g>
</g>
<!-- Node1&#45;&gt;Node8 -->
<g id="edge17_Node000001_Node000008" class="edge">
<title>Node1&#45;&gt;Node8</title>
<g id="a_edge17_Node000001_Node000008"><a xlink:title=" ">
<path fill="none" stroke="#63b8ff" d="M334.9,-320.23C329.27,-298.9 321.12,-262.44 321.12,-230.5 321.12,-230.5 321.12,-230.5 321.12,-173.5 321.12,-144.04 322.38,-131.38 302.12,-110 277.65,-84.18 237.16,-73.31 209.13,-68.75"/>
<polygon fill="#63b8ff" stroke="#63b8ff" points="331.53,-321.19 337.55,-329.91 338.28,-319.34 331.53,-321.19"/>
</a>
</g>
</g>
<!-- Node11 -->
<g id="Node000011" class="node">
<title>Node11</title>
<g id="a_Node000011"><a xlink:href="ring_8h.html" target="_top" xlink:title=" ">
<polygon fill="white" stroke="#666666" points="215.62,-184 158.62,-184 158.62,-165 215.62,-165 215.62,-184"/>
<text text-anchor="middle" x="187.12" y="-172" font-family="Helvetica,sans-Serif" font-size="10.00">fe/ring.h</text>
</a>
</g>
</g>
<!-- Node1&#45;&gt;Node11 -->
<g id="edge14_Node000001_Node000011" class="edge">
<title>Node1&#45;&gt;Node11</title>
<g id="a_edge14_Node000001_Node000011"><a xlink:title=" ">
<path fill="none" stroke="#63b8ff" d="M324.68,-322.05C292.65,-287.93 219.93,-210.45 195.38,-184.31"/>
<polygon fill="#63b8ff" stroke="#63b8ff" points="322.49,-324.84 331.89,-329.74 327.6,-320.05 322.49,-324.84"/>
</a>
</g>
</g>
<!-- Node12 -->
<g id="Node000012" class="node">
<title>Node12</title>
<g id="a_Node000012"><a xlink:href="utf8_8h.html" target="_top" xlink:title=" ">
<polygon fill="white" stroke="#666666" points="292.12,-184 234.12,-184 234.12,-165 292.12,-165 292.12,-184"/>
<text text-anchor="middle" x="263.12" y="-172" font-family="Helvetica,sans-Serif" font-size="10.00">fe/utf8.h</text>
</a>
</g>
</g>
<!-- Node1&#45;&gt;Node12 -->
<g id="edge18_Node000001_Node000012" class="edge">
<title>Node1&#45;&gt;Node12</title>
<g id="a_edge18_Node000001_Node000012"><a xlink:title=" ">
<path fill="none" stroke="#63b8ff" d="M356.04,-322.34C362.69,-314.47 369.66,-304.46 373.12,-294 383.43,-262.77 391.5,-247.27 373.12,-220 355.15,-193.35 318.23,-182.66 292.13,-178.37"/>
<polygon fill="#63b8ff" stroke="#63b8ff" points="353.26,-320.2 349.13,-329.96 358.44,-324.9 353.26,-320.2"/>
</a>
</g>
</g>
<!-- Node3 -->
<g id="Node000003" class="node">
<title>Node3</title>
<g id="a_Node000003"><a xlink:href="sym_8h.html" target="_top" xlink:title=" ">
<polygon fill="white" stroke="#666666" points="118.62,-239 59.62,-239 59.62,-220 118.62,-220 118.62,-239"/>
<text text-anchor="middle" x="89.12" y="-227" font-family="Helvetica,sans-Serif" font-size="10.00">fe/sym.h</text>
</a>
</g>
</g>
<!-- Node2&#45;&gt;Node3 -->
<g id="edge2_Node000002_Node000003" class="edge">
<title>Node2&#45;&gt;Node3</title>
<g id="a_edge2_Node000002_Node000003"><a xlink:title=" ">
<path fill="none" stroke="#63b8ff" d="M152.72,-269.7C137.05,-260.04 116.61,-247.44 103.18,-239.17"/>
<polygon fill="#63b8ff" stroke="#63b8ff" points="150.95,-272.72 161.3,-274.98 154.62,-266.76 150.95,-272.72"/>
</a>
</g>
</g>
<!-- Node4 -->
<g id="Node000004" class="node">
<title>Node4</title>
<g id="a_Node000004"><a xlink:href="driver_8h.html" target="_top" xlink:title=" ">
<polygon fill="white" stroke="#666666" points="87.12,-19 21.12,-19 21.12,0 87.12,0 87.12,-19"/>
<text text-anchor="middle" x="54.12" y="-7" font-family="Helvetica,sans-Serif" font-size="10.00">fe/driver.h</text>
</a>
</g>
</g>
<!-- Node3&#45;&gt;Node4 -->
<g id="edge3_Node000003_Node000004" class="edge">
<title>Node3&#45;&gt;Node4</title>
<g id="a_edge3_Node000003_Node000004"><a xlink:title=" ">
<path fill="none" stroke="#63b8ff" d="M74.63,-212.04C52.41,-185.34 11.5,-129.91 2.12,-74 0.72,-65.67 -1.42,-62.67 2.12,-55 9.47,-39.03 25.7,-26.65 38.09,-19.05"/>
<polygon fill="#63b8ff" stroke="#63b8ff" points="72.23,-214.62 81.38,-219.96 77.55,-210.08 72.23,-214.62"/>
</a>
</g>
</g>
<!-- Node5 -->
<g id="Node000005" class="node">
<title>Node5</title>
<g id="a_Node000005"><a xlink:href="loc_8h.html" target="_top" xlink:title=" ">
<polygon fill="white" stroke="#666666" points="115.62,-184 62.62,-184 62.62,-165 115.62,-165 115.62,-184"/>
<text text-anchor="middle" x="89.12" y="-172" font-family="Helvetica,sans-Serif" font-size="10.00">fe/loc.h</text>
</a>
</g>
</g>
<!-- Node3&#45;&gt;Node5 -->
<g id="edge4_Node000003_Node000005" class="edge">
<title>Node3&#45;&gt;Node5</title>
<g id="a_edge4_Node000003_Node000005"><a xlink:title=" ">
<path fill="none" stroke="#63b8ff" d="M89.12,-209.66C89.12,-200.93 89.12,-190.99 89.12,-184.09"/>
<polygon fill="#63b8ff" stroke="#63b8ff" points="85.62,-209.75 89.12,-219.75 92.62,-209.75 85.62,-209.75"/>
</a>
</g>
</g>
<!-- Node5&#45;&gt;Node4 -->
<g id="edge5_Node000005_Node000004" class="edge">
<title>Node5&#45;&gt;Node4</title>
<g id="a_edge5_Node000005_Node000004"><a xlink:title=" ">
<path fill="none" stroke="#63b8ff" d="M69.34,-158.49C59.53,-150.43 47.91,-139.92 39.12,-129 21.51,-107.15 15.24,-101.14 8.12,-74 5.97,-65.83 4.82,-62.77 8.12,-55 14.62,-39.65 29.3,-27.01 40.33,-19.18"/>
<polygon fill="#63b8ff" stroke="#63b8ff" points="67.39,-161.41 77.4,-164.9 71.75,-155.93 67.39,-161.41"/>
</a>
</g>
</g>
<!-- Node6 -->
<g id="Node000006" class="node">
<title>Node6</title>
<g id="a_Node000006"><a xlink:href="format_8h.html" target="_top" xlink:title=" ">
<polygon fill="white" stroke="#666666" points="212.62,-129 141.62,-129 141.62,-110 212.62,-110 212.62,-129"/>
<text text-anchor="middle" x="177.12" y="-117" font-family="Helvetica,sans-Serif" font-size="10.00">fe/format.h</text>
</a>
</g>
</g>
<!-- Node5&#45;&gt;Node6 -->
<g id="edge6_Node000005_Node000006" class="edge">
<title>Node5&#45;&gt;Node6</title>
<g id="a_edge6_Node000005_Node000006"><a xlink:title=" ">
<path fill="none" stroke="#63b8ff" d="M112.04,-159.7C128.07,-150.04 148.98,-137.44 162.72,-129.17"/>
<polygon fill="#63b8ff" stroke="#63b8ff" points="110.01,-156.83 103.25,-164.98 113.63,-162.82 110.01,-156.83"/>
</a>
</g>
</g>
<!-- Node7 -->
<g id="Node000007" class="node">
<title>Node7</title>
<g id="a_Node000007"><a xlink:href="loc_8cpp_8h.html" target="_top" xlink:title=" ">
<polygon fill="white" stroke="#666666" points="90.62,-74 17.62,-74 17.62,-55 90.62,-55 90.62,-74"/>
<text text-anchor="middle" x="54.12" y="-62" font-family="Helvetica,sans-Serif" font-size="10.00">fe/loc.cpp.h</text>
</a>
</g>
</g>
<!-- Node5&#45;&gt;Node7 -->
<g id="edge12_Node000005_Node000007" class="edge">
<title>Node5&#45;&gt;Node7</title>
<g id="a_edge12_Node000005_Node000007"><a xlink:title=" ">
<path fill="none" stroke="#63b8ff" d="M68.88,-158.57C60.11,-150.84 50.8,-140.59 46.12,-129 38.62,-110.46 45.62,-86.6 50.44,-74.06"/>
<polygon fill="#63b8ff" stroke="#63b8ff" points="66.67,-161.29 76.62,-164.93 71.11,-155.88 66.67,-161.29"/>
</a>
</g>
</g>
<!-- Node9 -->
<g id="Node000009" class="node">
<title>Node9</title>
<g id="a_Node000009"><a xlink:href="lexer_8h.html" target="_top" xlink:title=" ">
<polygon fill="white" stroke="#666666" points="293.12,-129 231.12,-129 231.12,-110 293.12,-110 293.12,-129"/>
<text text-anchor="middle" x="262.12" y="-117" font-family="Helvetica,sans-Serif" font-size="10.00">fe/lexer.h</text>
</a>
</g>
</g>
<!-- Node5&#45;&gt;Node9 -->
<g id="edge11_Node000005_Node000009" class="edge">
<title>Node5&#45;&gt;Node9</title>
<g id="a_edge11_Node000005_Node000009"><a xlink:title=" ">
<path fill="none" stroke="#63b8ff" d="M125.34,-162.4C157.79,-152.46 204.7,-138.09 234.29,-129.03"/>
<polygon fill="#63b8ff" stroke="#63b8ff" points="124.3,-159.06 115.77,-165.33 126.35,-165.75 124.3,-159.06"/>
</a>
</g>
</g>
<!-- Node10 -->
<g id="Node000010" class="node">
<title>Node10</title>
<g id="a_Node000010"><a xlink:href="parser_8h.html" target="_top" xlink:title=" ">
<polygon fill="white" stroke="#666666" points="123.12,-129 55.12,-129 55.12,-110 123.12,-110 123.12,-129"/>
<text text-anchor="middle" x="89.12" y="-117" font-family="Helvetica,sans-Serif" font-size="10.00">fe/parser.h</text>
</a>
</g>
</g>
<!-- Node5&#45;&gt;Node10 -->
<g id="edge13_Node000005_Node000010" class="edge">
<title>Node5&#45;&gt;Node10</title>
<g id="a_edge13_Node000005_Node000010"><a xlink:title=" ">
<path fill="none" stroke="#63b8ff" d="M89.12,-154.66C89.12,-145.93 89.12,-135.99 89.12,-129.09"/>
<polygon fill="#63b8ff" stroke="#63b8ff" points="85.62,-154.75 89.12,-164.75 92.62,-154.75 85.62,-154.75"/>
</a>
</g>
</g>
<!-- Node6&#45;&gt;Node4 -->
<g id="edge7_Node000006_Node000004" class="edge">
<title>Node6&#45;&gt;Node4</title>
<g id="a_edge7_Node000006_Node000004"><a xlink:title=" ">
<path fill="none" stroke="#63b8ff" d="M159.36,-102.91C133.08,-79.83 84.71,-37.37 63.98,-19.16"/>
<polygon fill="#63b8ff" stroke="#63b8ff" points="157.23,-105.69 167.05,-109.66 161.84,-100.43 157.23,-105.69"/>
</a>
</g>
</g>
<!-- Node6&#45;&gt;Node7 -->
<g id="edge8_Node000006_Node000007" class="edge">
<title>Node6&#45;&gt;Node7</title>
<g id="a_edge8_Node000006_Node000007"><a xlink:title=" ">
<path fill="none" stroke="#63b8ff" d="M147.87,-105.9C125.15,-96.11 94.24,-82.79 74.24,-74.17"/>
<polygon fill="#63b8ff" stroke="#63b8ff" points="146.78,-109.24 157.35,-109.98 149.55,-102.81 146.78,-109.24"/>
</a>
</g>
</g>
<!-- Node6&#45;&gt;Node8 -->
<g id="edge9_Node000006_Node000008" class="edge">
<title>Node6&#45;&gt;Node8</title>
<g id="a_edge9_Node000006_Node000008"><a xlink:title=" ">
<path fill="none" stroke="#63b8ff" d="M177.47,-99.66C177.64,-90.93 177.82,-80.99 177.95,-74.09"/>
<polygon fill="#63b8ff" stroke="#63b8ff" points="173.97,-99.68 177.28,-109.75 180.97,-99.82 173.97,-99.68"/>
</a>
</g>
</g>
<!-- Node8&#45;&gt;Node4 -->
<g id="edge10_Node000008_Node000004" class="edge">
<title>Node8&#45;&gt;Node4</title>
<g id="a_edge10_Node000008_Node000004"><a xlink:title=" ">
<path fill="none" stroke="#63b8ff" d="M148.94,-51.03C126.01,-41.23 94.66,-27.83 74.4,-19.17"/>
<polygon fill="#63b8ff" stroke="#63b8ff" points="147.62,-54.27 158.19,-54.98 150.37,-47.84 147.62,-54.27"/>
</a>
</g>
</g>
<!-- Node11&#45;&gt;Node9 -->
<g id="edge15_Node000011_Node000009" class="edge">
<title>Node11&#45;&gt;Node9</title>
<g id="a_edge15_Node000011_Node000009"><a xlink:title=" ">
<path fill="none" stroke="#63b8ff" d="M207.42,-159.15C220.98,-149.57 238.36,-137.29 249.85,-129.17"/>
<polygon fill="#63b8ff" stroke="#63b8ff" points="205.31,-156.36 199.17,-164.98 209.35,-162.07 205.31,-156.36"/>
</a>
</g>
</g>
<!-- Node11&#45;&gt;Node10 -->
<g id="edge16_Node000011_Node000010" class="edge">
<title>Node11&#45;&gt;Node10</title>
<g id="a_edge16_Node000011_Node000010"><a xlink:title=" ">
<path fill="none" stroke="#63b8ff" d="M162.09,-159.97C144.17,-150.28 120.59,-137.52 105.15,-129.17"/>
<polygon fill="#63b8ff" stroke="#63b8ff" points="160.91,-163.31 171.37,-164.98 164.24,-157.15 160.91,-163.31"/>
</a>
</g>
</g>
<!-- Node12&#45;&gt;Node6 -->
<g id="edge19_Node000012_Node000006" class="edge">
<title>Node12&#45;&gt;Node6</title>
<g id="a_edge19_Node000012_Node000006"><a xlink:title=" ">
<path fill="none" stroke="#63b8ff" d="M240.72,-159.7C225.05,-150.04 204.61,-137.44 191.18,-129.17"/>
<polygon fill="#63b8ff" stroke="#63b8ff" points="238.95,-162.72 249.3,-164.98 242.62,-156.76 238.95,-162.72"/>
</a>
</g>
</g>
<!-- Node12&#45;&gt;Node9 -->
<g id="edge20_Node000012_Node000009" class="edge">
<title>Node12&#45;&gt;Node9</title>
<g id="a_edge20_Node000012_Node000009"><a xlink:title=" ">
<path fill="none" stroke="#63b8ff" d="M262.76,-154.66C262.6,-145.93 262.41,-135.99 262.28,-129.09"/>
<polygon fill="#63b8ff" stroke="#63b8ff" points="259.26,-154.82 262.95,-164.75 266.26,-154.68 259.26,-154.82"/>
</a>
</g>
</g>
</g>
</svg>
</svg>

<style type='text/css'>
<![CDATA[
[data-mouse-over-selected='false'] { opacity: 0.7; }
[data-mouse-over-selected='true']  { opacity: 1.0; }
]]>
</style>
<script type="application/ecmascript"><![CDATA[
document.addEventListener('DOMContentLoaded', (event) => {
  highlightEdges();
  highlightAdjacentNodes();
});
]]></script>
</svg>
