<?xml version="1.0" encoding="UTF-8" standalone="no"?>
<!DOCTYPE svg PUBLIC "-//W3C//DTD SVG 1.1//EN"
 "http://www.w3.org/Graphics/SVG/1.1/DTD/svg11.dtd">
<!-- Generated by graphviz version 2.43.0 (0)
 -->
<!-- Title: fe::Ring&lt; T, N &gt; Pages: 1 -->
<svg width="490pt" height="99pt"
 viewBox="0.00 0.00 490.00 99.00" xmlns="http://www.w3.org/2000/svg" xmlns:xlink="http://www.w3.org/1999/xlink">

<svg id="main" version="1.1" xmlns="http://www.w3.org/2000/svg" xmlns:xlink="http://www.w3.org/1999/xlink" xml:space="preserve">

<style type="text/css"><![CDATA[
.node, .edge {opacity: 0.7;}
.node.selected, .edge.selected {opacity: 1;}
.edge:hover path { stroke: red; }
.edge:hover polygon { stroke: red; fill: red; }
]]></style>
<script type="application/ecmascript" xlink:href="svg.min.js"/>
<svg id="graph" class="graph">
<g id="graph0" class="graph" transform="scale(1 1) rotate(0) translate(4 95)">
<title>fe::Ring&lt; T, N &gt;</title>
<!-- Node1 -->
<g id="Node000001" class="node">
<title>Node1</title>
<g id="a_Node000001"><a xlink:title="A ring buffer with N elements.">
<polygon fill="#999999" stroke="#666666" points="309.5,-91 213.5,-91 213.5,-72 309.5,-72 309.5,-91"/>
<text text-anchor="middle" x="261.5" y="-79" font-family="Helvetica,sans-Serif" font-size="10.00">fe::Ring&lt; T, N &gt;</text>
</a>
</g>
</g>
<!-- Node2 -->
<g id="Node000002" class="node">
<title>Node2</title>
<g id="a_Node000002"><a xlink:href="classfe_1_1Ring.html" target="_top" xlink:title=" ">
<polygon fill="white" stroke="#666666" points="131,-19 0,-19 0,0 131,0 131,-19"/>
<text text-anchor="middle" x="65.5" y="-7" font-family="Helvetica,sans-Serif" font-size="10.00">fe::Ring&lt; char32_t, K &gt;</text>
</a>
</g>
</g>
<!-- Node1&#45;&gt;Node2 -->
<g id="edge1_Node000001_Node000002" class="edge">
<title>Node1&#45;&gt;Node2</title>
<g id="a_edge1_Node000001_Node000002"><a xlink:title=" ">
<path fill="none" stroke="orange" stroke-dasharray="5,2" d="M203.45,-72.23C182.24,-68.14 158.35,-62.26 137.5,-54 114.69,-44.97 90.81,-29.06 77.09,-19.18"/>
<polygon fill="orange" stroke="orange" points="202.84,-75.67 213.3,-74.04 204.1,-68.79 202.84,-75.67"/>
</a>
</g>
<text text-anchor="start" x="140.5" y="-42.5" font-family="Helvetica,sans-Serif" font-size="10.00" fill="grey">&lt; char32_t, K &gt;</text>
</g>
<!-- Node3 -->
<g id="Node000003" class="node">
<title>Node3</title>
<g id="a_Node000003"><a xlink:href="classfe_1_1Ring.html" target="_top" xlink:title=" ">
<polygon fill="white" stroke="#666666" points="255.5,-19 149.5,-19 149.5,0 255.5,0 255.5,-19"/>
<text text-anchor="middle" x="202.5" y="-7" font-family="Helvetica,sans-Serif" font-size="10.00">fe::Ring&lt; Tok, K &gt;</text>
</a>
</g>
</g>
<!-- Node1&#45;&gt;Node3 -->
<g id="edge2_Node000001_Node000003" class="edge">
<title>Node1&#45;&gt;Node3</title>
<g id="a_edge2_Node000001_Node000003"><a xlink:title=" ">
<path fill="none" stroke="orange" stroke-dasharray="5,2" d="M247.61,-64.01C235.76,-49.96 219.2,-30.32 209.79,-19.15"/>
<polygon fill="orange" stroke="orange" points="245.14,-66.53 254.27,-71.92 250.5,-62.01 245.14,-66.53"/>
</a>
</g>
<text text-anchor="start" x="242.5" y="-42.5" font-family="Helvetica,sans-Serif" font-size="10.00" fill="grey">&lt; Tok, K &gt;</text>
</g>
<!-- Node4 -->
<g id="Node000004" class="node">
<title>Node4</title>
<g id="a_Node000004"><a xlink:href="classfe_1_1Ring_3_01T_00_011_01_4.html" target="_top" xlink:title="Specialization if N == 1 &#45; doesn&#39;t need a ring.">
<polygon fill="white" stroke="#666666" points="369,-19 274,-19 274,0 369,0 369,-19"/>
<text text-anchor="middle" x="321.5" y="-7" font-family="Helvetica,sans-Serif" font-size="10.00">fe::Ring&lt; T, 1 &gt;</text>
</a>
</g>
</g>
<!-- Node1&#45;&gt;Node4 -->
<g id="edge3_Node000001_Node000004" class="edge">
<title>Node1&#45;&gt;Node4</title>
<g id="a_edge3_Node000001_Node000004"><a xlink:title=" ">
<path fill="none" stroke="orange" stroke-dasharray="5,2" d="M285.94,-66.14C290.81,-62.58 295.61,-58.48 299.5,-54 308.6,-43.52 315.07,-28.62 318.54,-19.26"/>
<polygon fill="orange" stroke="orange" points="283.65,-63.47 277.3,-71.95 287.55,-69.28 283.65,-63.47"/>
</a>
</g>
<text text-anchor="start" x="315" y="-42.5" font-family="Helvetica,sans-Serif" font-size="10.00" fill="grey">&lt; T, 1 &gt;</text>
</g>
<!-- Node5 -->
<g id="Node000005" class="node">
<title>Node5</title>
<g id="a_Node000005"><a xlink:href="classfe_1_1Ring_3_01T_00_012_01_4.html" target="_top" xlink:title="Specialization if N == 2; doesn&#39;t need a ring, we just copy.">
<polygon fill="white" stroke="#666666" points="482,-19 387,-19 387,0 482,0 482,-19"/>
<text text-anchor="middle" x="434.5" y="-7" font-family="Helvetica,sans-Serif" font-size="10.00">fe::Ring&lt; T, 2 &gt;</text>
</a>
</g>
</g>
<!-- Node1&#45;&gt;Node5 -->
<g id="edge4_Node000001_Node000005" class="edge">
<title>Node1&#45;&gt;Node5</title>
<g id="a_edge4_Node000001_Node000005"><a xlink:title=" ">
<path fill="none" stroke="orange" stroke-dasharray="5,2" d="M315.18,-69.46C330.75,-65.45 347.57,-60.31 362.5,-54 384.96,-44.5 408.76,-28.88 422.59,-19.17"/>
<polygon fill="orange" stroke="orange" points="314.03,-66.14 305.16,-71.93 315.71,-72.93 314.03,-66.14"/>
</a>
</g>
<text text-anchor="start" x="398" y="-42.5" font-family="Helvetica,sans-Serif" font-size="10.00" fill="grey">&lt; T, 2 &gt;</text>
</g>
</g>
</svg>
</svg>

<style type='text/css'>
<![CDATA[
[data-mouse-over-selected='false'] { opacity: 0.7; }
[data-mouse-over-selected='true']  { opacity: 1.0; }
]]>
</style>
<script type="application/ecmascript"><![CDATA[
document.addEventListener('DOMContentLoaded', (event) => {
  highlightEdges();
  highlightAdjacentNodes();
});
]]></script>
</svg>
