<?xml version="1.0" encoding="UTF-8" standalone="no"?>
<!DOCTYPE svg PUBLIC "-//W3C//DTD SVG 1.1//EN"
 "http://www.w3.org/Graphics/SVG/1.1/DTD/svg11.dtd">
<!-- Generated by graphviz version 2.43.0 (0)
 -->
<!-- Title: fe::Arena&lt; A, P &gt; Pages: 1 -->
<svg width="293pt" height="115pt"
 viewBox="0.00 0.00 293.00 115.00" xmlns="http://www.w3.org/2000/svg" xmlns:xlink="http://www.w3.org/1999/xlink">
<g id="graph0" class="graph" transform="scale(1 1) rotate(0) translate(4 111)">
<title>fe::Arena&lt; A, P &gt;</title>
<!-- Node1 -->
<g id="Node000001" class="node">
<title>Node1</title>
<g id="a_Node000001"><a xlink:title="An arena pre&#45;allocates so&#45;called pages of size p.">
<polygon fill="#999999" stroke="#666666" points="171,-107 69,-107 69,-88 171,-88 171,-107"/>
<text text-anchor="middle" x="120" y="-95" font-family="Helvetica,sans-Serif" font-size="10.00">fe::Arena&lt; A, P &gt;</text>
</a>
</g>
</g>
<!-- Node2 -->
<g id="Node000002" class="node">
<title>Node2</title>
<g id="a_Node000002"><a xlink:href="classfe_1_1Arena.html" target="_top" xlink:title=" ">
<polygon fill="white" stroke="#666666" points="102,-24.5 0,-24.5 0,-5.5 102,-5.5 102,-24.5"/>
<text text-anchor="middle" x="51" y="-12.5" font-family="Helvetica,sans-Serif" font-size="10.00">fe::Arena&lt; A, P &gt;</text>
</a>
</g>
</g>
<!-- Node1&#45;&gt;Node2 -->
<g id="edge1_Node000001_Node000002" class="edge">
<title>Node1&#45;&gt;Node2</title>
<g id="a_edge1_Node000001_Node000002"><a xlink:title=" ">
<path fill="none" stroke="orange" stroke-dasharray="5,2" d="M105.88,-80.03C91.54,-63.3 69.89,-38.03 58.54,-24.8"/>
<polygon fill="orange" stroke="orange" points="103.45,-82.57 112.62,-87.89 108.77,-78.01 103.45,-82.57"/>
</a>
</g>
<text text-anchor="middle" x="118.5" y="-56.5" font-family="Helvetica,sans-Serif" font-size="10.00" fill="grey"> &lt; A, P &gt;</text>
</g>
<!-- Node3 -->
<g id="Node000003" class="node">
<title>Node3</title>
<g id="a_Node000003"><a xlink:href="classfe_1_1Arena.html" target="_top" xlink:title=" ">
<polygon fill="white" stroke="#666666" points="257.5,-30 120.5,-30 120.5,0 257.5,0 257.5,-30"/>
<text text-anchor="start" x="128.5" y="-18" font-family="Helvetica,sans-Serif" font-size="10.00">fe::Arena&lt; sizeof(size</text>
<text text-anchor="middle" x="189" y="-7" font-family="Helvetica,sans-Serif" font-size="10.00">_t), Default_Page_Size &gt;</text>
</a>
</g>
</g>
<!-- Node1&#45;&gt;Node3 -->
<g id="edge2_Node000001_Node000003" class="edge">
<title>Node1&#45;&gt;Node3</title>
<g id="a_edge2_Node000001_Node000003"><a xlink:title=" ">
<path fill="none" stroke="orange" stroke-dasharray="5,2" d="M135.53,-80.42C138.71,-77.02 142,-73.42 145,-70 156.48,-56.91 168.97,-41.46 177.7,-30.45"/>
<polygon fill="orange" stroke="orange" points="132.85,-78.15 128.5,-87.81 137.92,-82.98 132.85,-78.15"/>
</a>
</g>
<text text-anchor="start" x="163" y="-62" font-family="Helvetica,sans-Serif" font-size="10.00" fill="grey"> &lt; sizeof(size_t), Default</text>
<text text-anchor="middle" x="224" y="-51" font-family="Helvetica,sans-Serif" font-size="10.00" fill="grey">_Page_Size &gt;</text>
</g>
</g>
</svg>
