<?xml version="1.0" encoding="UTF-8" standalone="no"?>
<!DOCTYPE svg PUBLIC "-//W3C//DTD SVG 1.1//EN"
 "http://www.w3.org/Graphics/SVG/1.1/DTD/svg11.dtd">
<!-- Generated by graphviz version 2.43.0 (0)
 -->
<!-- Title: fe/driver.h Pages: 1 -->
<svg width="578pt" height="247pt"
 viewBox="0.00 0.00 577.50 247.00" xmlns="http://www.w3.org/2000/svg" xmlns:xlink="http://www.w3.org/1999/xlink">
<g id="graph0" class="graph" transform="scale(1 1) rotate(0) translate(4 243)">
<title>fe/driver.h</title>
<!-- Node1 -->
<g id="Node000001" class="node">
<title>Node1</title>
<g id="a_Node000001"><a xlink:title=" ">
<polygon fill="#999999" stroke="#666666" points="225,-239 159,-239 159,-220 225,-220 225,-239"/>
<text text-anchor="middle" x="192" y="-227" font-family="Helvetica,sans-Serif" font-size="10.00">fe/driver.h</text>
</a>
</g>
</g>
<!-- Node2 -->
<g id="Node000002" class="node">
<title>Node2</title>
<g id="a_Node000002"><a xlink:title=" ">
<polygon fill="#e0e0e0" stroke="#999999" points="56,-184 0,-184 0,-165 56,-165 56,-184"/>
<text text-anchor="middle" x="28" y="-172" font-family="Helvetica,sans-Serif" font-size="10.00">sstream</text>
</a>
</g>
</g>
<!-- Node1&#45;&gt;Node2 -->
<g id="edge1_Node000001_Node000002" class="edge">
<title>Node1&#45;&gt;Node2</title>
<g id="a_edge1_Node000001_Node000002"><a xlink:title=" ">
<path fill="none" stroke="#63b8ff" d="M165.65,-219.98C138.24,-211.13 95.11,-197.19 64.44,-187.28"/>
<polygon fill="#63b8ff" stroke="#63b8ff" points="65.15,-183.83 54.56,-184.08 63,-190.49 65.15,-183.83"/>
</a>
</g>
</g>
<!-- Node3 -->
<g id="Node000003" class="node">
<title>Node3</title>
<g id="a_Node000003"><a xlink:title=" ">
<polygon fill="#e0e0e0" stroke="#999999" points="147.5,-184 74.5,-184 74.5,-165 147.5,-165 147.5,-184"/>
<text text-anchor="middle" x="111" y="-172" font-family="Helvetica,sans-Serif" font-size="10.00">string_view</text>
</a>
</g>
</g>
<!-- Node1&#45;&gt;Node3 -->
<g id="edge2_Node000001_Node000003" class="edge">
<title>Node1&#45;&gt;Node3</title>
<g id="a_edge2_Node000001_Node000003"><a xlink:title=" ">
<path fill="none" stroke="#63b8ff" d="M178.99,-219.98C166.54,-211.84 147.54,-199.41 132.79,-189.76"/>
<polygon fill="#63b8ff" stroke="#63b8ff" points="134.54,-186.72 124.25,-184.17 130.7,-192.57 134.54,-186.72"/>
</a>
</g>
</g>
<!-- Node4 -->
<g id="Node000004" class="node">
<title>Node4</title>
<g id="a_Node000004"><a xlink:href="loc_8h.html" target="_top" xlink:title=" ">
<polygon fill="white" stroke="#666666" points="218.5,-184 165.5,-184 165.5,-165 218.5,-165 218.5,-184"/>
<text text-anchor="middle" x="192" y="-172" font-family="Helvetica,sans-Serif" font-size="10.00">fe/loc.h</text>
</a>
</g>
</g>
<!-- Node1&#45;&gt;Node4 -->
<g id="edge3_Node000001_Node000004" class="edge">
<title>Node1&#45;&gt;Node4</title>
<g id="a_edge3_Node000001_Node000004"><a xlink:title=" ">
<path fill="none" stroke="#63b8ff" d="M192,-219.75C192,-212.8 192,-202.85 192,-194.13"/>
<polygon fill="#63b8ff" stroke="#63b8ff" points="195.5,-194.09 192,-184.09 188.5,-194.09 195.5,-194.09"/>
</a>
</g>
</g>
<!-- Node7 -->
<g id="Node000007" class="node">
<title>Node7</title>
<g id="a_Node000007"><a xlink:href="sym_8h.html" target="_top" xlink:title=" ">
<polygon fill="white" stroke="#666666" points="277.5,-129 218.5,-129 218.5,-110 277.5,-110 277.5,-129"/>
<text text-anchor="middle" x="248" y="-117" font-family="Helvetica,sans-Serif" font-size="10.00">fe/sym.h</text>
</a>
</g>
</g>
<!-- Node1&#45;&gt;Node7 -->
<g id="edge16_Node000001_Node000007" class="edge">
<title>Node1&#45;&gt;Node7</title>
<g id="a_edge16_Node000001_Node000007"><a xlink:title=" ">
<path fill="none" stroke="#63b8ff" d="M200.23,-219.94C208.04,-211.43 219.65,-197.68 227,-184 234.65,-169.76 240.19,-152.23 243.65,-139.2"/>
<polygon fill="#63b8ff" stroke="#63b8ff" points="247.15,-139.65 246.16,-129.1 240.35,-137.96 247.15,-139.65"/>
</a>
</g>
</g>
<!-- Node15 -->
<g id="Node000015" class="node">
<title>Node15</title>
<g id="a_Node000015"><a xlink:title=" ">
<polygon fill="#e0e0e0" stroke="#999999" points="346.5,-184 275.5,-184 275.5,-165 346.5,-165 346.5,-184"/>
<text text-anchor="middle" x="311" y="-172" font-family="Helvetica,sans-Serif" font-size="10.00">fe/format.h</text>
</a>
</g>
</g>
<!-- Node1&#45;&gt;Node15 -->
<g id="edge15_Node000001_Node000015" class="edge">
<title>Node1&#45;&gt;Node15</title>
<g id="a_edge15_Node000001_Node000015"><a xlink:title=" ">
<path fill="none" stroke="#63b8ff" d="M211.12,-219.98C230.35,-211.42 260.23,-198.11 282.31,-188.28"/>
<polygon fill="#63b8ff" stroke="#63b8ff" points="283.82,-191.44 291.53,-184.17 280.97,-185.04 283.82,-191.44"/>
</a>
</g>
</g>
<!-- Node5 -->
<g id="Node000005" class="node">
<title>Node5</title>
<g id="a_Node000005"><a xlink:title=" ">
<polygon fill="#e0e0e0" stroke="#999999" points="162,-129 94,-129 94,-110 162,-110 162,-129"/>
<text text-anchor="middle" x="128" y="-117" font-family="Helvetica,sans-Serif" font-size="10.00">filesystem</text>
</a>
</g>
</g>
<!-- Node4&#45;&gt;Node5 -->
<g id="edge4_Node000004_Node000005" class="edge">
<title>Node4&#45;&gt;Node5</title>
<g id="a_edge4_Node000004_Node000005"><a xlink:title=" ">
<path fill="none" stroke="#63b8ff" d="M181.72,-164.98C172.16,-157.07 157.72,-145.11 146.22,-135.58"/>
<polygon fill="#63b8ff" stroke="#63b8ff" points="148.4,-132.85 138.47,-129.17 143.94,-138.24 148.4,-132.85"/>
</a>
</g>
</g>
<!-- Node6 -->
<g id="Node000006" class="node">
<title>Node6</title>
<g id="a_Node000006"><a xlink:title=" ">
<polygon fill="#e0e0e0" stroke="#999999" points="130,-74 62,-74 62,-55 130,-55 130,-74"/>
<text text-anchor="middle" x="96" y="-62" font-family="Helvetica,sans-Serif" font-size="10.00">fe/config.h</text>
</a>
</g>
</g>
<!-- Node4&#45;&gt;Node6 -->
<g id="edge5_Node000004_Node000006" class="edge">
<title>Node4&#45;&gt;Node6</title>
<g id="a_edge5_Node000004_Node000006"><a xlink:title=" ">
<path fill="none" stroke="#63b8ff" d="M191.07,-164.78C189.27,-151.62 184.24,-126.47 171,-110 159.95,-96.26 143.42,-85.81 128.7,-78.5"/>
<polygon fill="#63b8ff" stroke="#63b8ff" points="129.9,-75.2 119.36,-74.15 126.94,-81.54 129.9,-75.2"/>
</a>
</g>
</g>
<!-- Node4&#45;&gt;Node7 -->
<g id="edge6_Node000004_Node000007" class="edge">
<title>Node4&#45;&gt;Node7</title>
<g id="a_edge6_Node000004_Node000007"><a xlink:title=" ">
<path fill="none" stroke="#63b8ff" d="M201,-164.98C209.19,-157.23 221.51,-145.58 231.47,-136.14"/>
<polygon fill="#63b8ff" stroke="#63b8ff" points="233.98,-138.59 238.84,-129.17 229.17,-133.5 233.98,-138.59"/>
</a>
</g>
</g>
<!-- Node7&#45;&gt;Node6 -->
<g id="edge9_Node000007_Node000006" class="edge">
<title>Node7&#45;&gt;Node6</title>
<g id="a_edge9_Node000007_Node000006"><a xlink:title=" ">
<path fill="none" stroke="#63b8ff" d="M223.58,-109.98C198.28,-101.16 158.55,-87.31 130.14,-77.41"/>
<polygon fill="#63b8ff" stroke="#63b8ff" points="131.21,-74.07 120.61,-74.08 128.9,-80.68 131.21,-74.07"/>
</a>
</g>
</g>
<!-- Node8 -->
<g id="Node000008" class="node">
<title>Node8</title>
<g id="a_Node000008"><a xlink:title=" ">
<polygon fill="#e0e0e0" stroke="#999999" points="208,-74 148,-74 148,-55 208,-55 208,-74"/>
<text text-anchor="middle" x="178" y="-62" font-family="Helvetica,sans-Serif" font-size="10.00">iostream</text>
</a>
</g>
</g>
<!-- Node7&#45;&gt;Node8 -->
<g id="edge7_Node000007_Node000008" class="edge">
<title>Node7&#45;&gt;Node8</title>
<g id="a_edge7_Node000007_Node000008"><a xlink:title=" ">
<path fill="none" stroke="#63b8ff" d="M236.75,-109.98C226.2,-102 210.2,-89.88 197.56,-80.31"/>
<polygon fill="#63b8ff" stroke="#63b8ff" points="199.54,-77.42 189.45,-74.17 195.31,-83 199.54,-77.42"/>
</a>
</g>
</g>
<!-- Node9 -->
<g id="Node000009" class="node">
<title>Node9</title>
<g id="a_Node000009"><a xlink:title=" ">
<polygon fill="#e0e0e0" stroke="#999999" points="270,-74 226,-74 226,-55 270,-55 270,-74"/>
<text text-anchor="middle" x="248" y="-62" font-family="Helvetica,sans-Serif" font-size="10.00">string</text>
</a>
</g>
</g>
<!-- Node7&#45;&gt;Node9 -->
<g id="edge8_Node000007_Node000009" class="edge">
<title>Node7&#45;&gt;Node9</title>
<g id="a_edge8_Node000007_Node000009"><a xlink:title=" ">
<path fill="none" stroke="#63b8ff" d="M248,-109.75C248,-102.8 248,-92.85 248,-84.13"/>
<polygon fill="#63b8ff" stroke="#63b8ff" points="251.5,-84.09 248,-74.09 244.5,-84.09 251.5,-84.09"/>
</a>
</g>
</g>
<!-- Node10 -->
<g id="Node000010" class="node">
<title>Node10</title>
<g id="a_Node000010"><a xlink:href="arena_8h.html" target="_top" xlink:title=" ">
<polygon fill="white" stroke="#666666" points="354,-74 288,-74 288,-55 354,-55 354,-74"/>
<text text-anchor="middle" x="321" y="-62" font-family="Helvetica,sans-Serif" font-size="10.00">fe/arena.h</text>
</a>
</g>
</g>
<!-- Node7&#45;&gt;Node10 -->
<g id="edge10_Node000007_Node000010" class="edge">
<title>Node7&#45;&gt;Node10</title>
<g id="a_edge10_Node000007_Node000010"><a xlink:title=" ">
<path fill="none" stroke="#63b8ff" d="M259.73,-109.98C270.73,-102 287.42,-89.88 300.6,-80.31"/>
<polygon fill="#63b8ff" stroke="#63b8ff" points="303.02,-82.88 309.06,-74.17 298.91,-77.21 303.02,-82.88"/>
</a>
</g>
</g>
<!-- Node13 -->
<g id="Node000013" class="node">
<title>Node13</title>
<g id="a_Node000013"><a xlink:title=" ">
<polygon fill="#e0e0e0" stroke="#999999" points="458,-74 372,-74 372,-55 458,-55 458,-74"/>
<text text-anchor="middle" x="415" y="-62" font-family="Helvetica,sans-Serif" font-size="10.00">unordered_set</text>
</a>
</g>
</g>
<!-- Node7&#45;&gt;Node13 -->
<g id="edge13_Node000007_Node000013" class="edge">
<title>Node7&#45;&gt;Node13</title>
<g id="a_edge13_Node000007_Node000013"><a xlink:title=" ">
<path fill="none" stroke="#63b8ff" d="M274.83,-109.98C302.87,-101.09 347.05,-87.07 378.3,-77.15"/>
<polygon fill="#63b8ff" stroke="#63b8ff" points="379.49,-80.44 387.96,-74.08 377.37,-73.77 379.49,-80.44"/>
</a>
</g>
</g>
<!-- Node14 -->
<g id="Node000014" class="node">
<title>Node14</title>
<g id="a_Node000014"><a xlink:title=" ">
<polygon fill="#e0e0e0" stroke="#999999" points="569.5,-74 476.5,-74 476.5,-55 569.5,-55 569.5,-74"/>
<text text-anchor="middle" x="523" y="-62" font-family="Helvetica,sans-Serif" font-size="10.00">unordered_map</text>
</a>
</g>
</g>
<!-- Node7&#45;&gt;Node14 -->
<g id="edge14_Node000007_Node000014" class="edge">
<title>Node7&#45;&gt;Node14</title>
<g id="a_edge14_Node000007_Node000014"><a xlink:title=" ">
<path fill="none" stroke="#63b8ff" d="M277.69,-112.78C323.29,-103.99 411.26,-87.03 468.53,-76"/>
<polygon fill="#63b8ff" stroke="#63b8ff" points="469.34,-79.41 478.49,-74.08 468.01,-72.53 469.34,-79.41"/>
</a>
</g>
</g>
<!-- Node11 -->
<g id="Node000011" class="node">
<title>Node11</title>
<g id="a_Node000011"><a xlink:title=" ">
<polygon fill="#e0e0e0" stroke="#999999" points="313,-19 261,-19 261,0 313,0 313,-19"/>
<text text-anchor="middle" x="287" y="-7" font-family="Helvetica,sans-Serif" font-size="10.00">cassert</text>
</a>
</g>
</g>
<!-- Node10&#45;&gt;Node11 -->
<g id="edge11_Node000010_Node000011" class="edge">
<title>Node10&#45;&gt;Node11</title>
<g id="a_edge11_Node000010_Node000011"><a xlink:title=" ">
<path fill="none" stroke="#63b8ff" d="M315.39,-54.75C310.68,-47.42 303.83,-36.73 298.03,-27.7"/>
<polygon fill="#63b8ff" stroke="#63b8ff" points="300.86,-25.62 292.51,-19.09 294.96,-29.4 300.86,-25.62"/>
</a>
</g>
</g>
<!-- Node12 -->
<g id="Node000012" class="node">
<title>Node12</title>
<g id="a_Node000012"><a xlink:title=" ">
<polygon fill="#e0e0e0" stroke="#999999" points="378.5,-19 331.5,-19 331.5,0 378.5,0 378.5,-19"/>
<text text-anchor="middle" x="355" y="-7" font-family="Helvetica,sans-Serif" font-size="10.00">vector</text>
</a>
</g>
</g>
<!-- Node10&#45;&gt;Node12 -->
<g id="edge12_Node000010_Node000012" class="edge">
<title>Node10&#45;&gt;Node12</title>
<g id="a_edge12_Node000010_Node000012"><a xlink:title=" ">
<path fill="none" stroke="#63b8ff" d="M326.61,-54.75C331.32,-47.42 338.17,-36.73 343.97,-27.7"/>
<polygon fill="#63b8ff" stroke="#63b8ff" points="347.04,-29.4 349.49,-19.09 341.14,-25.62 347.04,-29.4"/>
</a>
</g>
</g>
</g>
</svg>
