<?xml version="1.0" encoding="UTF-8" standalone="no"?>
<!DOCTYPE svg PUBLIC "-//W3C//DTD SVG 1.1//EN"
 "http://www.w3.org/Graphics/SVG/1.1/DTD/svg11.dtd">
<!-- Generated by graphviz version 2.43.0 (0)
 -->
<!-- Title: fe/driver.h Pages: 1 -->
<!--zoomable 412 -->

<svg id="main" version="1.1" xmlns="http://www.w3.org/2000/svg" xmlns:xlink="http://www.w3.org/1999/xlink" xml:space="preserve" onload="init(evt)">

<style type="text/css"><![CDATA[
.node, .edge {opacity: 0.7;}
.node.selected, .edge.selected {opacity: 1;}
.edge:hover path { stroke: red; }
.edge:hover polygon { stroke: red; fill: red; }
]]></style>

<defs>
  <circle id="rim" cx="0" cy="0" r="7"/>
  <circle id="rim2" cx="0" cy="0" r="3.5"/>
  <g id="zoomPlus">
    <use xlink:href="#rim" fill="#404040"><set attributeName="fill" to="#808080" begin="zoomplus.mouseover" end="zoomplus.mouseout"/></use>
    <path d="M-4,0h8M0,-4v8" fill="none" stroke="white" stroke-width="1.5" pointer-events="none"/>
  </g>
  <g id="zoomMin">
    <use xlink:href="#rim" fill="#404040"><set attributeName="fill" to="#808080" begin="zoomminus.mouseover" end="zoomminus.mouseout"/></use>
    <path d="M-4,0h8" fill="none" stroke="white" stroke-width="1.5" pointer-events="none"/>
  </g>
  <g id="arrowUp" transform="translate(30 24)">
    <use xlink:href="#rim"/>
    <path pointer-events="none" fill="none" stroke="white" stroke-width="1.5" d="M0,-3.0v7 M-2.5,-0.5L0,-3.0L2.5,-0.5"/>
  </g>
  <g id="arrowRight" transform="rotate(90) translate(36 -43)">
    <use xlink:href="#rim"/>
    <path pointer-events="none" fill="none" stroke="white" stroke-width="1.5" d="M0,-3.0v7 M-2.5,-0.5L0,-3.0L2.5,-0.5"/>
  </g>
  <g id="arrowDown" transform="rotate(180) translate(-30 -48)">
    <use xlink:href="#rim"/>
    <path pointer-events="none" fill="none" stroke="white" stroke-width="1.5" d="M0,-3.0v7 M-2.5,-0.5L0,-3.0L2.5,-0.5"/>
  </g>
  <g id="arrowLeft" transform="rotate(270) translate(-36 17)">
    <use xlink:href="#rim"/>
    <path pointer-events="none" fill="none" stroke="white" stroke-width="1.5" d="M0,-3.0v7 M-2.5,-0.5L0,-3.0L2.5,-0.5"/>
  </g>
  <g id="resetDef">
    <use xlink:href="#rim2" fill="#404040"><set attributeName="fill" to="#808080" begin="reset.mouseover" end="reset.mouseout"/></use>
  </g>
</defs>
<script type="application/ecmascript">
var viewWidth = 1120;
var viewHeight = 412;
var sectionId = 'dynsection-0';
</script>
<script type="application/ecmascript" xlink:href="svg.min.js"/>
<svg id="graph" class="graph">
<g id="viewport">
<title>fe/driver.h</title>
<!-- Node1 -->
<g id="Node000001" class="node">
<title>Node1</title>
<g id="a_Node000001"><a xlink:title=" ">
<polygon fill="#999999" stroke="#666666" points="372.76,-404 306.76,-404 306.76,-385 372.76,-385 372.76,-404"/>
<text text-anchor="middle" x="339.76" y="-392" font-family="Helvetica,sans-Serif" font-size="10.00">fe/driver.h</text>
</a>
</g>
</g>
<!-- Node2 -->
<g id="Node000002" class="node">
<title>Node2</title>
<g id="a_Node000002"><a xlink:title=" ">
<polygon fill="#e0e0e0" stroke="#999999" points="144.76,-239 88.76,-239 88.76,-220 144.76,-220 144.76,-239"/>
<text text-anchor="middle" x="116.76" y="-227" font-family="Helvetica,sans-Serif" font-size="10.00">sstream</text>
</a>
</g>
</g>
<!-- Node1&#45;&gt;Node2 -->
<g id="edge1_Node000001_Node000002" class="edge">
<title>Node1&#45;&gt;Node2</title>
<g id="a_edge1_Node000001_Node000002"><a xlink:title=" ">
<path fill="none" stroke="#63b8ff" d="M323.07,-384.85C307.16,-376.37 282.72,-362.75 262.76,-349 213.74,-315.26 160.51,-269.49 133.91,-245.93"/>
<polygon fill="#63b8ff" stroke="#63b8ff" points="136.05,-243.14 126.25,-239.1 131.39,-248.37 136.05,-243.14"/>
</a>
</g>
</g>
<!-- Node3 -->
<g id="Node000003" class="node">
<title>Node3</title>
<g id="a_Node000003"><a xlink:title=" ">
<polygon fill="#e0e0e0" stroke="#999999" points="891.26,-239 818.26,-239 818.26,-220 891.26,-220 891.26,-239"/>
<text text-anchor="middle" x="854.76" y="-227" font-family="Helvetica,sans-Serif" font-size="10.00">string_view</text>
</a>
</g>
</g>
<!-- Node1&#45;&gt;Node3 -->
<g id="edge2_Node000001_Node000003" class="edge">
<title>Node1&#45;&gt;Node3</title>
<g id="a_edge2_Node000001_Node000003"><a xlink:title=" ">
<path fill="none" stroke="#63b8ff" d="M366.72,-384.97C452.57,-357.79 719.66,-273.26 817.96,-242.15"/>
<polygon fill="#63b8ff" stroke="#63b8ff" points="819.27,-245.4 827.75,-239.05 817.16,-238.73 819.27,-245.4"/>
</a>
</g>
</g>
<!-- Node4 -->
<g id="Node000004" class="node">
<title>Node4</title>
<g id="a_Node000004"><a xlink:href="format_8h.html" target="_top" xlink:title=" ">
<polygon fill="white" stroke="#666666" points="560.26,-294 489.26,-294 489.26,-275 560.26,-275 560.26,-294"/>
<text text-anchor="middle" x="524.76" y="-282" font-family="Helvetica,sans-Serif" font-size="10.00">fe/format.h</text>
</a>
</g>
</g>
<!-- Node1&#45;&gt;Node4 -->
<g id="edge3_Node000001_Node000004" class="edge">
<title>Node1&#45;&gt;Node4</title>
<g id="a_edge3_Node000001_Node000004"><a xlink:title=" ">
<path fill="none" stroke="#63b8ff" d="M354.58,-384.84C386.59,-366.16 462.41,-321.9 501.12,-299.3"/>
<polygon fill="#63b8ff" stroke="#63b8ff" points="503.24,-302.11 510.12,-294.05 499.71,-296.07 503.24,-302.11"/>
</a>
</g>
</g>
<!-- Node13 -->
<g id="Node000013" class="node">
<title>Node13</title>
<g id="a_Node000013"><a xlink:href="loc_8h.html" target="_top" xlink:title=" ">
<polygon fill="white" stroke="#666666" points="216.26,-239 163.26,-239 163.26,-220 216.26,-220 216.26,-239"/>
<text text-anchor="middle" x="189.76" y="-227" font-family="Helvetica,sans-Serif" font-size="10.00">fe/loc.h</text>
</a>
</g>
</g>
<!-- Node1&#45;&gt;Node13 -->
<g id="edge40_Node000001_Node000013" class="edge">
<title>Node1&#45;&gt;Node13</title>
<g id="a_edge40_Node000001_Node000013"><a xlink:title=" ">
<path fill="none" stroke="#63b8ff" d="M328.68,-385C307.95,-368.75 262.53,-331.56 230.76,-294 218.6,-279.63 207.19,-261.43 199.51,-248.2"/>
<polygon fill="#63b8ff" stroke="#63b8ff" points="202.39,-246.18 194.42,-239.2 196.3,-249.62 202.39,-246.18"/>
</a>
</g>
</g>
<!-- Node15 -->
<g id="Node000015" class="node">
<title>Node15</title>
<g id="a_Node000015"><a xlink:href="sym_8h.html" target="_top" xlink:title=" ">
<polygon fill="white" stroke="#666666" points="130.26,-184 71.26,-184 71.26,-165 130.26,-165 130.26,-184"/>
<text text-anchor="middle" x="100.76" y="-172" font-family="Helvetica,sans-Serif" font-size="10.00">fe/sym.h</text>
</a>
</g>
</g>
<!-- Node1&#45;&gt;Node15 -->
<g id="edge41_Node000001_Node000015" class="edge">
<title>Node1&#45;&gt;Node15</title>
<g id="a_edge41_Node000001_Node000015"><a xlink:title=" ">
<path fill="none" stroke="#63b8ff" d="M306.45,-385.77C247.29,-369.99 125.8,-327.8 79.76,-239 72.01,-224.07 79.76,-205.71 87.94,-192.57"/>
<polygon fill="#63b8ff" stroke="#63b8ff" points="91,-194.29 93.76,-184.06 85.23,-190.34 91,-194.29"/>
</a>
</g>
</g>
<!-- Node34 -->
<g id="Node000034" class="node">
<title>Node34</title>
<g id="a_Node000034"><a xlink:href="term_8h.html" target="_top" xlink:title=" ">
<polygon fill="white" stroke="#666666" points="931.76,-349 869.76,-349 869.76,-330 931.76,-330 931.76,-349"/>
<text text-anchor="middle" x="900.76" y="-337" font-family="Helvetica,sans-Serif" font-size="10.00">fe/term.h</text>
</a>
</g>
</g>
<!-- Node1&#45;&gt;Node34 -->
<g id="edge42_Node000001_Node000034" class="edge">
<title>Node1&#45;&gt;Node34</title>
<g id="a_edge42_Node000001_Node000034"><a xlink:title=" ">
<path fill="none" stroke="#63b8ff" d="M373.17,-390.34C470.42,-381.16 753.13,-354.45 859.57,-344.39"/>
<polygon fill="#63b8ff" stroke="#63b8ff" points="859.98,-347.87 869.61,-343.44 859.32,-340.9 859.98,-347.87"/>
</a>
</g>
</g>
<!-- Node4&#45;&gt;Node2 -->
<g id="edge11_Node000004_Node000002" class="edge">
<title>Node4&#45;&gt;Node2</title>
<g id="a_edge11_Node000004_Node000002"><a xlink:title=" ">
<path fill="none" stroke="#63b8ff" d="M489.02,-280.49C424.33,-274.76 283.38,-261.03 154.98,-239.04"/>
<polygon fill="#63b8ff" stroke="#63b8ff" points="155.43,-235.57 144.97,-237.31 154.23,-242.47 155.43,-235.57"/>
</a>
</g>
</g>
<!-- Node4&#45;&gt;Node3 -->
<g id="edge12_Node000004_Node000003" class="edge">
<title>Node4&#45;&gt;Node3</title>
<g id="a_edge12_Node000004_Node000003"><a xlink:title=" ">
<path fill="none" stroke="#63b8ff" d="M560.44,-277.89C613.51,-269.53 716.38,-253.25 803.76,-239 805.05,-238.79 806.37,-238.57 807.69,-238.36"/>
<polygon fill="#63b8ff" stroke="#63b8ff" points="808.69,-241.74 817.99,-236.66 807.55,-234.83 808.69,-241.74"/>
</a>
</g>
</g>
<!-- Node5 -->
<g id="Node000005" class="node">
<title>Node5</title>
<g id="a_Node000005"><a xlink:title=" ">
<polygon fill="#e0e0e0" stroke="#999999" points="370.76,-239 310.76,-239 310.76,-220 370.76,-220 370.76,-239"/>
<text text-anchor="middle" x="340.76" y="-227" font-family="Helvetica,sans-Serif" font-size="10.00">concepts</text>
</a>
</g>
</g>
<!-- Node4&#45;&gt;Node5 -->
<g id="edge4_Node000004_Node000005" class="edge">
<title>Node4&#45;&gt;Node5</title>
<g id="a_edge4_Node000004_Node000005"><a xlink:title=" ">
<path fill="none" stroke="#63b8ff" d="M495.19,-274.98C464.03,-266.01 414.78,-251.82 380.3,-241.89"/>
<polygon fill="#63b8ff" stroke="#63b8ff" points="381.13,-238.49 370.55,-239.08 379.19,-245.21 381.13,-238.49"/>
</a>
</g>
</g>
<!-- Node6 -->
<g id="Node000006" class="node">
<title>Node6</title>
<g id="a_Node000006"><a xlink:title=" ">
<polygon fill="#e0e0e0" stroke="#999999" points="438.76,-239 388.76,-239 388.76,-220 438.76,-220 438.76,-239"/>
<text text-anchor="middle" x="413.76" y="-227" font-family="Helvetica,sans-Serif" font-size="10.00">format</text>
</a>
</g>
</g>
<!-- Node4&#45;&gt;Node6 -->
<g id="edge5_Node000004_Node000006" class="edge">
<title>Node4&#45;&gt;Node6</title>
<g id="a_edge5_Node000004_Node000006"><a xlink:title=" ">
<path fill="none" stroke="#63b8ff" d="M506.92,-274.98C489.15,-266.5 461.61,-253.35 441.08,-243.54"/>
<polygon fill="#63b8ff" stroke="#63b8ff" points="442.45,-240.32 431.91,-239.17 439.43,-246.64 442.45,-240.32"/>
</a>
</g>
</g>
<!-- Node7 -->
<g id="Node000007" class="node">
<title>Node7</title>
<g id="a_Node000007"><a xlink:title=" ">
<polygon fill="#e0e0e0" stroke="#999999" points="522.26,-239 457.26,-239 457.26,-220 522.26,-220 522.26,-239"/>
<text text-anchor="middle" x="489.76" y="-227" font-family="Helvetica,sans-Serif" font-size="10.00">functional</text>
</a>
</g>
</g>
<!-- Node4&#45;&gt;Node7 -->
<g id="edge6_Node000004_Node000007" class="edge">
<title>Node4&#45;&gt;Node7</title>
<g id="a_edge6_Node000004_Node000007"><a xlink:title=" ">
<path fill="none" stroke="#63b8ff" d="M518.98,-274.75C514.13,-267.42 507.08,-256.73 501.11,-247.7"/>
<polygon fill="#63b8ff" stroke="#63b8ff" points="503.86,-245.5 495.43,-239.09 498.02,-249.36 503.86,-245.5"/>
</a>
</g>
</g>
<!-- Node8 -->
<g id="Node000008" class="node">
<title>Node8</title>
<g id="a_Node000008"><a xlink:title=" ">
<polygon fill="#e0e0e0" stroke="#999999" points="482.76,-129 422.76,-129 422.76,-110 482.76,-110 482.76,-129"/>
<text text-anchor="middle" x="452.76" y="-117" font-family="Helvetica,sans-Serif" font-size="10.00">iostream</text>
</a>
</g>
</g>
<!-- Node4&#45;&gt;Node8 -->
<g id="edge7_Node000004_Node000008" class="edge">
<title>Node4&#45;&gt;Node8</title>
<g id="a_edge7_Node000004_Node000008"><a xlink:title=" ">
<path fill="none" stroke="#63b8ff" d="M489.08,-281.71C432.21,-278.02 325.04,-267.39 301.76,-239 262.98,-191.72 357.36,-151.34 413.94,-132.26"/>
<polygon fill="#63b8ff" stroke="#63b8ff" points="415.28,-135.5 423.68,-129.05 413.09,-128.85 415.28,-135.5"/>
</a>
</g>
</g>
<!-- Node9 -->
<g id="Node000009" class="node">
<title>Node9</title>
<g id="a_Node000009"><a xlink:title=" ">
<polygon fill="#e0e0e0" stroke="#999999" points="929.26,-184 872.26,-184 872.26,-165 929.26,-165 929.26,-184"/>
<text text-anchor="middle" x="900.76" y="-172" font-family="Helvetica,sans-Serif" font-size="10.00">ostream</text>
</a>
</g>
</g>
<!-- Node4&#45;&gt;Node9 -->
<g id="edge8_Node000004_Node000009" class="edge">
<title>Node4&#45;&gt;Node9</title>
<g id="a_edge8_Node000004_Node000009"><a xlink:title=" ">
<path fill="none" stroke="#63b8ff" d="M560.55,-280.15C609.11,-274.9 698.17,-262.79 770.76,-239 771.09,-238.89 836.38,-206.98 874.29,-188.44"/>
<polygon fill="#63b8ff" stroke="#63b8ff" points="875.84,-191.58 883.28,-184.04 872.76,-185.29 875.84,-191.58"/>
</a>
</g>
</g>
<!-- Node10 -->
<g id="Node000010" class="node">
<title>Node10</title>
<g id="a_Node000010"><a xlink:title=" ">
<polygon fill="#e0e0e0" stroke="#999999" points="579.26,-239 540.26,-239 540.26,-220 579.26,-220 579.26,-239"/>
<text text-anchor="middle" x="559.76" y="-227" font-family="Helvetica,sans-Serif" font-size="10.00">print</text>
</a>
</g>
</g>
<!-- Node4&#45;&gt;Node10 -->
<g id="edge9_Node000004_Node000010" class="edge">
<title>Node4&#45;&gt;Node10</title>
<g id="a_edge9_Node000004_Node000010"><a xlink:title=" ">
<path fill="none" stroke="#63b8ff" d="M530.54,-274.75C535.38,-267.42 542.43,-256.73 548.4,-247.7"/>
<polygon fill="#63b8ff" stroke="#63b8ff" points="551.49,-249.36 554.08,-239.09 545.65,-245.5 551.49,-249.36"/>
</a>
</g>
</g>
<!-- Node11 -->
<g id="Node000011" class="node">
<title>Node11</title>
<g id="a_Node000011"><a xlink:title=" ">
<polygon fill="#e0e0e0" stroke="#999999" points="647.76,-239 597.76,-239 597.76,-220 647.76,-220 647.76,-239"/>
<text text-anchor="middle" x="622.76" y="-227" font-family="Helvetica,sans-Serif" font-size="10.00">ranges</text>
</a>
</g>
</g>
<!-- Node4&#45;&gt;Node11 -->
<g id="edge10_Node000004_Node000011" class="edge">
<title>Node4&#45;&gt;Node11</title>
<g id="a_edge10_Node000004_Node000011"><a xlink:title=" ">
<path fill="none" stroke="#63b8ff" d="M540.5,-274.98C555.98,-266.61 579.85,-253.7 597.89,-243.95"/>
<polygon fill="#63b8ff" stroke="#63b8ff" points="599.59,-247.01 606.72,-239.17 596.26,-240.85 599.59,-247.01"/>
</a>
</g>
</g>
<!-- Node12 -->
<g id="Node000012" class="node">
<title>Node12</title>
<g id="a_Node000012"><a xlink:title=" ">
<polygon fill="#e0e0e0" stroke="#999999" points="662.26,-74 617.26,-74 617.26,-55 662.26,-55 662.26,-74"/>
<text text-anchor="middle" x="639.76" y="-62" font-family="Helvetica,sans-Serif" font-size="10.00">utility</text>
</a>
</g>
</g>
<!-- Node4&#45;&gt;Node12 -->
<g id="edge13_Node000004_Node000012" class="edge">
<title>Node4&#45;&gt;Node12</title>
<g id="a_edge13_Node000004_Node000012"><a xlink:title=" ">
<path fill="none" stroke="#63b8ff" d="M560.27,-282.37C591.39,-279.27 634.96,-269.35 656.76,-239 690.84,-191.55 663.86,-117.01 648.52,-83.21"/>
<polygon fill="#63b8ff" stroke="#63b8ff" points="651.65,-81.65 644.22,-74.11 645.33,-84.65 651.65,-81.65"/>
</a>
</g>
</g>
<!-- Node4&#45;&gt;Node13 -->
<g id="edge14_Node000004_Node000013" class="edge">
<title>Node4&#45;&gt;Node13</title>
<g id="a_edge14_Node000004_Node000013"><a xlink:title=" ">
<path fill="none" stroke="#63b8ff" d="M489.22,-277.88C425.26,-267.76 291.37,-246.58 226.52,-236.32"/>
<polygon fill="#63b8ff" stroke="#63b8ff" points="226.78,-232.81 216.36,-234.71 225.69,-239.73 226.78,-232.81"/>
</a>
</g>
</g>
<!-- Node31 -->
<g id="Node000031" class="node">
<title>Node31</title>
<g id="a_Node000031"><a xlink:href="utf8_8h.html" target="_top" xlink:title=" ">
<polygon fill="white" stroke="#666666" points="761.76,-239 703.76,-239 703.76,-220 761.76,-220 761.76,-239"/>
<text text-anchor="middle" x="732.76" y="-227" font-family="Helvetica,sans-Serif" font-size="10.00">fe/utf8.h</text>
</a>
</g>
</g>
<!-- Node4&#45;&gt;Node31 -->
<g id="edge35_Node000004_Node000031" class="edge">
<title>Node4&#45;&gt;Node31</title>
<g id="a_edge35_Node000004_Node000031"><a xlink:title=" ">
<path fill="none" stroke="#63b8ff" d="M558.17,-274.98C595.15,-265.56 654.66,-250.4 693.74,-240.44"/>
<polygon fill="#63b8ff" stroke="#63b8ff" points="694.63,-243.83 703.45,-237.97 692.9,-237.04 694.63,-243.83"/>
</a>
</g>
</g>
<!-- Node14 -->
<g id="Node000014" class="node">
<title>Node14</title>
<g id="a_Node000014"><a xlink:title=" ">
<polygon fill="#e0e0e0" stroke="#999999" points="216.76,-184 148.76,-184 148.76,-165 216.76,-165 216.76,-184"/>
<text text-anchor="middle" x="182.76" y="-172" font-family="Helvetica,sans-Serif" font-size="10.00">filesystem</text>
</a>
</g>
</g>
<!-- Node13&#45;&gt;Node14 -->
<g id="edge15_Node000013_Node000014" class="edge">
<title>Node13&#45;&gt;Node14</title>
<g id="a_edge15_Node000013_Node000014"><a xlink:title=" ">
<path fill="none" stroke="#63b8ff" d="M188.6,-219.75C187.68,-212.8 186.37,-202.85 185.22,-194.13"/>
<polygon fill="#63b8ff" stroke="#63b8ff" points="188.67,-193.54 183.89,-184.09 181.73,-194.46 188.67,-193.54"/>
</a>
</g>
</g>
<!-- Node13&#45;&gt;Node15 -->
<g id="edge16_Node000013_Node000015" class="edge">
<title>Node13&#45;&gt;Node15</title>
<g id="a_edge16_Node000013_Node000015"><a xlink:title=" ">
<path fill="none" stroke="#63b8ff" d="M175.46,-219.98C161.65,-211.77 140.52,-199.18 124.24,-189.49"/>
<polygon fill="#63b8ff" stroke="#63b8ff" points="125.7,-186.28 115.32,-184.17 122.12,-192.29 125.7,-186.28"/>
</a>
</g>
</g>
<!-- Node15&#45;&gt;Node8 -->
<g id="edge20_Node000015_Node000008" class="edge">
<title>Node15&#45;&gt;Node8</title>
<g id="a_edge20_Node000015_Node000008"><a xlink:title=" ">
<path fill="none" stroke="#63b8ff" d="M130.52,-166.74C133.63,-166.12 136.75,-165.52 139.76,-165 257.56,-144.46 291.01,-149.79 412.5,-129.08"/>
<polygon fill="#63b8ff" stroke="#63b8ff" points="413.31,-132.49 422.57,-127.34 412.12,-125.6 413.31,-132.49"/>
</a>
</g>
</g>
<!-- Node16 -->
<g id="Node000016" class="node">
<title>Node16</title>
<g id="a_Node000016"><a xlink:title=" ">
<polygon fill="#e0e0e0" stroke="#999999" points="509.76,-19 457.76,-19 457.76,0 509.76,0 509.76,-19"/>
<text text-anchor="middle" x="483.76" y="-7" font-family="Helvetica,sans-Serif" font-size="10.00">cassert</text>
</a>
</g>
</g>
<!-- Node15&#45;&gt;Node16 -->
<g id="edge17_Node000015_Node000016" class="edge">
<title>Node15&#45;&gt;Node16</title>
<g id="a_edge17_Node000015_Node000016"><a xlink:title=" ">
<path fill="none" stroke="#63b8ff" d="M70.97,-167.23C36.44,-158.43 -13.65,-140.04 3.76,-110 28.41,-67.46 53.05,-70.37 99.76,-55 222.3,-14.69 377.31,-9.82 446.94,-9.9"/>
<polygon fill="#63b8ff" stroke="#63b8ff" points="447.35,-13.41 457.37,-9.95 447.38,-6.41 447.35,-13.41"/>
</a>
</g>
</g>
<!-- Node17 -->
<g id="Node000017" class="node">
<title>Node17</title>
<g id="a_Node000017"><a xlink:title=" ">
<polygon fill="#e0e0e0" stroke="#999999" points="779.76,-129 729.76,-129 729.76,-110 779.76,-110 779.76,-129"/>
<text text-anchor="middle" x="754.76" y="-117" font-family="Helvetica,sans-Serif" font-size="10.00">cstring</text>
</a>
</g>
</g>
<!-- Node15&#45;&gt;Node17 -->
<g id="edge18_Node000015_Node000017" class="edge">
<title>Node15&#45;&gt;Node17</title>
<g id="a_edge18_Node000015_Node000017"><a xlink:title=" ">
<path fill="none" stroke="#63b8ff" d="M130.49,-166.56C133.61,-165.97 136.74,-165.44 139.76,-165 358.84,-133.36 625.25,-123.8 719.59,-121.29"/>
<polygon fill="#63b8ff" stroke="#63b8ff" points="719.81,-124.79 729.72,-121.03 719.63,-117.79 719.81,-124.79"/>
</a>
</g>
</g>
<!-- Node18 -->
<g id="Node000018" class="node">
<title>Node18</title>
<g id="a_Node000018"><a xlink:title=" ">
<polygon fill="#e0e0e0" stroke="#999999" points="42.26,-129 13.26,-129 13.26,-110 42.26,-110 42.26,-129"/>
<text text-anchor="middle" x="27.76" y="-117" font-family="Helvetica,sans-Serif" font-size="10.00">bit</text>
</a>
</g>
</g>
<!-- Node15&#45;&gt;Node18 -->
<g id="edge19_Node000015_Node000018" class="edge">
<title>Node15&#45;&gt;Node18</title>
<g id="a_edge19_Node000015_Node000018"><a xlink:title=" ">
<path fill="none" stroke="#63b8ff" d="M89.03,-164.98C78.02,-157 61.34,-144.88 48.15,-135.31"/>
<polygon fill="#63b8ff" stroke="#63b8ff" points="49.85,-132.21 39.7,-129.17 45.73,-137.88 49.85,-132.21"/>
</a>
</g>
</g>
<!-- Node19 -->
<g id="Node000019" class="node">
<title>Node19</title>
<g id="a_Node000019"><a xlink:title=" ">
<polygon fill="#e0e0e0" stroke="#999999" points="104.76,-129 60.76,-129 60.76,-110 104.76,-110 104.76,-129"/>
<text text-anchor="middle" x="82.76" y="-117" font-family="Helvetica,sans-Serif" font-size="10.00">string</text>
</a>
</g>
</g>
<!-- Node15&#45;&gt;Node19 -->
<g id="edge21_Node000015_Node000019" class="edge">
<title>Node15&#45;&gt;Node19</title>
<g id="a_edge21_Node000015_Node000019"><a xlink:title=" ">
<path fill="none" stroke="#63b8ff" d="M97.78,-164.75C95.4,-157.72 91.97,-147.62 88.99,-138.84"/>
<polygon fill="#63b8ff" stroke="#63b8ff" points="92.2,-137.43 85.67,-129.09 85.57,-139.68 92.2,-137.43"/>
</a>
</g>
</g>
<!-- Node20 -->
<g id="Node000020" class="node">
<title>Node20</title>
<g id="a_Node000020"><a xlink:title=" ">
<polygon fill="#e0e0e0" stroke="#999999" points="216.26,-129 123.26,-129 123.26,-110 216.26,-110 216.26,-129"/>
<text text-anchor="middle" x="169.76" y="-117" font-family="Helvetica,sans-Serif" font-size="10.00">unordered_map</text>
</a>
</g>
</g>
<!-- Node15&#45;&gt;Node20 -->
<g id="edge22_Node000015_Node000020" class="edge">
<title>Node15&#45;&gt;Node20</title>
<g id="a_edge22_Node000015_Node000020"><a xlink:title=" ">
<path fill="none" stroke="#63b8ff" d="M111.84,-164.98C122.24,-157 138.02,-144.88 150.48,-135.31"/>
<polygon fill="#63b8ff" stroke="#63b8ff" points="152.67,-138.04 158.47,-129.17 148.41,-132.49 152.67,-138.04"/>
</a>
</g>
</g>
<!-- Node21 -->
<g id="Node000021" class="node">
<title>Node21</title>
<g id="a_Node000021"><a xlink:title=" ">
<polygon fill="#e0e0e0" stroke="#999999" points="320.76,-129 234.76,-129 234.76,-110 320.76,-110 320.76,-129"/>
<text text-anchor="middle" x="277.76" y="-117" font-family="Helvetica,sans-Serif" font-size="10.00">unordered_set</text>
</a>
</g>
</g>
<!-- Node15&#45;&gt;Node21 -->
<g id="edge23_Node000015_Node000021" class="edge">
<title>Node15&#45;&gt;Node21</title>
<g id="a_edge23_Node000015_Node000021"><a xlink:title=" ">
<path fill="none" stroke="#63b8ff" d="M129.19,-164.98C159.04,-156.05 206.14,-141.94 239.29,-132.02"/>
<polygon fill="#63b8ff" stroke="#63b8ff" points="240.52,-135.3 249.09,-129.08 238.51,-128.6 240.52,-135.3"/>
</a>
</g>
</g>
<!-- Node22 -->
<g id="Node000022" class="node">
<title>Node22</title>
<g id="a_Node000022"><a xlink:href="arena_8h.html" target="_top" xlink:title=" ">
<polygon fill="white" stroke="#666666" points="404.76,-129 338.76,-129 338.76,-110 404.76,-110 404.76,-129"/>
<text text-anchor="middle" x="371.76" y="-117" font-family="Helvetica,sans-Serif" font-size="10.00">fe/arena.h</text>
</a>
</g>
</g>
<!-- Node15&#45;&gt;Node22 -->
<g id="edge24_Node000015_Node000022" class="edge">
<title>Node15&#45;&gt;Node22</title>
<g id="a_edge24_Node000015_Node000022"><a xlink:title=" ">
<path fill="none" stroke="#63b8ff" d="M130.55,-166.92C133.66,-166.26 136.77,-165.61 139.76,-165 220.93,-148.47 243.78,-145.71 328.91,-129.14"/>
<polygon fill="#63b8ff" stroke="#63b8ff" points="329.61,-132.57 338.75,-127.22 328.26,-125.7 329.61,-132.57"/>
</a>
</g>
</g>
<!-- Node22&#45;&gt;Node12 -->
<g id="edge31_Node000022_Node000012" class="edge">
<title>Node22&#45;&gt;Node12</title>
<g id="a_edge31_Node000022_Node000012"><a xlink:title=" ">
<path fill="none" stroke="#63b8ff" d="M404.77,-111.8C407.81,-111.19 410.84,-110.58 413.76,-110 482.55,-96.27 563.19,-80.46 607.14,-71.87"/>
<polygon fill="#63b8ff" stroke="#63b8ff" points="607.83,-75.3 616.97,-69.94 606.49,-68.43 607.83,-75.3"/>
</a>
</g>
</g>
<!-- Node23 -->
<g id="Node000023" class="node">
<title>Node23</title>
<g id="a_Node000023"><a xlink:title=" ">
<polygon fill="#e0e0e0" stroke="#999999" points="514.76,-74 450.76,-74 450.76,-55 514.76,-55 514.76,-74"/>
<text text-anchor="middle" x="482.76" y="-62" font-family="Helvetica,sans-Serif" font-size="10.00">algorithm</text>
</a>
</g>
</g>
<!-- Node22&#45;&gt;Node23 -->
<g id="edge25_Node000022_Node000023" class="edge">
<title>Node22&#45;&gt;Node23</title>
<g id="a_edge25_Node000022_Node000023"><a xlink:title=" ">
<path fill="none" stroke="#63b8ff" d="M389.59,-109.98C407.37,-101.5 434.9,-88.35 455.44,-78.54"/>
<polygon fill="#63b8ff" stroke="#63b8ff" points="457.08,-81.64 464.6,-74.17 454.07,-75.32 457.08,-81.64"/>
</a>
</g>
</g>
<!-- Node24 -->
<g id="Node000024" class="node">
<title>Node24</title>
<g id="a_Node000024"><a xlink:title=" ">
<polygon fill="#e0e0e0" stroke="#999999" points="564.76,-74 532.76,-74 532.76,-55 564.76,-55 564.76,-74"/>
<text text-anchor="middle" x="548.76" y="-62" font-family="Helvetica,sans-Serif" font-size="10.00">list</text>
</a>
</g>
</g>
<!-- Node22&#45;&gt;Node24 -->
<g id="edge26_Node000022_Node000024" class="edge">
<title>Node22&#45;&gt;Node24</title>
<g id="a_edge26_Node000022_Node000024"><a xlink:title=" ">
<path fill="none" stroke="#63b8ff" d="M402.44,-109.93C431.24,-101.8 475.73,-89.01 522.87,-74.18"/>
<polygon fill="#63b8ff" stroke="#63b8ff" points="524.17,-77.44 532.65,-71.09 522.06,-70.77 524.17,-77.44"/>
</a>
</g>
</g>
<!-- Node25 -->
<g id="Node000025" class="node">
<title>Node25</title>
<g id="a_Node000025"><a xlink:title=" ">
<polygon fill="#e0e0e0" stroke="#999999" points="166.76,-74 108.76,-74 108.76,-55 166.76,-55 166.76,-74"/>
<text text-anchor="middle" x="137.76" y="-62" font-family="Helvetica,sans-Serif" font-size="10.00">memory</text>
</a>
</g>
</g>
<!-- Node22&#45;&gt;Node25 -->
<g id="edge27_Node000022_Node000025" class="edge">
<title>Node22&#45;&gt;Node25</title>
<g id="a_edge27_Node000022_Node000025"><a xlink:title=" ">
<path fill="none" stroke="#63b8ff" d="M338.73,-111.02C296.09,-101.36 222.02,-84.59 176.69,-74.32"/>
<polygon fill="#63b8ff" stroke="#63b8ff" points="177.46,-70.9 166.93,-72.11 175.91,-77.73 177.46,-70.9"/>
</a>
</g>
</g>
<!-- Node26 -->
<g id="Node000026" class="node">
<title>Node26</title>
<g id="a_Node000026"><a xlink:title=" ">
<polygon fill="#e0e0e0" stroke="#999999" points="290.26,-74 185.26,-74 185.26,-55 290.26,-55 290.26,-74"/>
<text text-anchor="middle" x="237.76" y="-62" font-family="Helvetica,sans-Serif" font-size="10.00">memory_resource</text>
</a>
</g>
</g>
<!-- Node22&#45;&gt;Node26 -->
<g id="edge28_Node000022_Node000026" class="edge">
<title>Node22&#45;&gt;Node26</title>
<g id="a_edge28_Node000022_Node000026"><a xlink:title=" ">
<path fill="none" stroke="#63b8ff" d="M350.23,-109.98C328.28,-101.3 294.01,-87.75 269.07,-77.88"/>
<polygon fill="#63b8ff" stroke="#63b8ff" points="270.26,-74.59 259.68,-74.17 267.69,-81.1 270.26,-74.59"/>
</a>
</g>
</g>
<!-- Node27 -->
<g id="Node000027" class="node">
<title>Node27</title>
<g id="a_Node000027"><a xlink:title=" ">
<polygon fill="#e0e0e0" stroke="#999999" points="345.26,-74 308.26,-74 308.26,-55 345.26,-55 345.26,-74"/>
<text text-anchor="middle" x="326.76" y="-62" font-family="Helvetica,sans-Serif" font-size="10.00">new</text>
</a>
</g>
</g>
<!-- Node22&#45;&gt;Node27 -->
<g id="edge29_Node000022_Node000027" class="edge">
<title>Node22&#45;&gt;Node27</title>
<g id="a_edge29_Node000022_Node000027"><a xlink:title=" ">
<path fill="none" stroke="#63b8ff" d="M364.32,-109.75C357.9,-102.18 348.45,-91.05 340.63,-81.84"/>
<polygon fill="#63b8ff" stroke="#63b8ff" points="343.19,-79.45 334.05,-74.09 337.85,-83.98 343.19,-79.45"/>
</a>
</g>
</g>
<!-- Node28 -->
<g id="Node000028" class="node">
<title>Node28</title>
<g id="a_Node000028"><a xlink:title=" ">
<polygon fill="#e0e0e0" stroke="#999999" points="432.26,-74 363.26,-74 363.26,-55 432.26,-55 432.26,-74"/>
<text text-anchor="middle" x="397.76" y="-62" font-family="Helvetica,sans-Serif" font-size="10.00">type_traits</text>
</a>
</g>
</g>
<!-- Node22&#45;&gt;Node28 -->
<g id="edge30_Node000022_Node000028" class="edge">
<title>Node22&#45;&gt;Node28</title>
<g id="a_edge30_Node000022_Node000028"><a xlink:title=" ">
<path fill="none" stroke="#63b8ff" d="M376.05,-109.75C379.57,-102.57 384.67,-92.18 389.04,-83.27"/>
<polygon fill="#63b8ff" stroke="#63b8ff" points="392.28,-84.61 393.54,-74.09 386,-81.53 392.28,-84.61"/>
</a>
</g>
</g>
<!-- Node29 -->
<g id="Node000029" class="node">
<title>Node29</title>
<g id="a_Node000029"><a xlink:href="assert_8h.html" target="_top" xlink:title=" ">
<polygon fill="white" stroke="#666666" points="877.76,-74 809.76,-74 809.76,-55 877.76,-55 877.76,-74"/>
<text text-anchor="middle" x="843.76" y="-62" font-family="Helvetica,sans-Serif" font-size="10.00">fe/assert.h</text>
</a>
</g>
</g>
<!-- Node22&#45;&gt;Node29 -->
<g id="edge32_Node000022_Node000029" class="edge">
<title>Node22&#45;&gt;Node29</title>
<g id="a_edge32_Node000022_Node000029"><a xlink:title=" ">
<path fill="none" stroke="#63b8ff" d="M405.17,-111.43C408.07,-110.91 410.96,-110.43 413.76,-110 553.7,-88.65 720.87,-74.6 799.16,-68.69"/>
<polygon fill="#63b8ff" stroke="#63b8ff" points="799.9,-72.14 809.61,-67.91 799.38,-65.16 799.9,-72.14"/>
</a>
</g>
</g>
<!-- Node29&#45;&gt;Node16 -->
<g id="edge33_Node000029_Node000016" class="edge">
<title>Node29&#45;&gt;Node16</title>
<g id="a_edge33_Node000029_Node000016"><a xlink:title=" ">
<path fill="none" stroke="#63b8ff" d="M809.56,-58.47C741.45,-48.44 589.41,-26.05 519.8,-15.81"/>
<polygon fill="#63b8ff" stroke="#63b8ff" points="520.16,-12.32 509.76,-14.33 519.14,-19.25 520.16,-12.32"/>
</a>
</g>
</g>
<!-- Node30 -->
<g id="Node000030" class="node">
<title>Node30</title>
<g id="a_Node000030"><a xlink:title=" ">
<polygon fill="#e0e0e0" stroke="#999999" points="963.26,-19 914.26,-19 914.26,0 963.26,0 963.26,-19"/>
<text text-anchor="middle" x="938.76" y="-7" font-family="Helvetica,sans-Serif" font-size="10.00">cstdlib</text>
</a>
</g>
</g>
<!-- Node29&#45;&gt;Node30 -->
<g id="edge34_Node000029_Node000030" class="edge">
<title>Node29&#45;&gt;Node30</title>
<g id="a_edge34_Node000029_Node000030"><a xlink:title=" ">
<path fill="none" stroke="#63b8ff" d="M859.02,-54.98C873.89,-46.69 896.74,-33.94 914.17,-24.22"/>
<polygon fill="#63b8ff" stroke="#63b8ff" points="916.19,-27.1 923.21,-19.17 912.78,-20.99 916.19,-27.1"/>
</a>
</g>
</g>
<!-- Node31&#45;&gt;Node9 -->
<g id="edge38_Node000031_Node000009" class="edge">
<title>Node31&#45;&gt;Node9</title>
<g id="a_edge38_Node000031_Node000009"><a xlink:title=" ">
<path fill="none" stroke="#63b8ff" d="M759.75,-219.98C787.95,-211.09 832.4,-197.07 863.84,-187.15"/>
<polygon fill="#63b8ff" stroke="#63b8ff" points="865.07,-190.43 873.55,-184.08 862.96,-183.75 865.07,-190.43"/>
</a>
</g>
</g>
<!-- Node31&#45;&gt;Node29 -->
<g id="edge39_Node000031_Node000029" class="edge">
<title>Node31&#45;&gt;Node29</title>
<g id="a_edge39_Node000031_Node000029"><a xlink:title=" ">
<path fill="none" stroke="#63b8ff" d="M756.5,-219.91C780.76,-210.65 816.07,-195.67 824.76,-184 846.65,-154.57 847.42,-109.58 845.76,-84.35"/>
<polygon fill="#63b8ff" stroke="#63b8ff" points="849.24,-83.93 844.9,-74.27 842.26,-84.53 849.24,-83.93"/>
</a>
</g>
</g>
<!-- Node32 -->
<g id="Node000032" class="node">
<title>Node32</title>
<g id="a_Node000032"><a xlink:title=" ">
<polygon fill="#e0e0e0" stroke="#999999" points="743.26,-184 694.26,-184 694.26,-165 743.26,-165 743.26,-184"/>
<text text-anchor="middle" x="718.76" y="-172" font-family="Helvetica,sans-Serif" font-size="10.00">cctype</text>
</a>
</g>
</g>
<!-- Node31&#45;&gt;Node32 -->
<g id="edge36_Node000031_Node000032" class="edge">
<title>Node31&#45;&gt;Node32</title>
<g id="a_edge36_Node000031_Node000032"><a xlink:title=" ">
<path fill="none" stroke="#63b8ff" d="M730.44,-219.75C728.59,-212.72 725.92,-202.62 723.6,-193.84"/>
<polygon fill="#63b8ff" stroke="#63b8ff" points="726.96,-192.86 721.02,-184.09 720.19,-194.65 726.96,-192.86"/>
</a>
</g>
</g>
<!-- Node33 -->
<g id="Node000033" class="node">
<title>Node33</title>
<g id="a_Node000033"><a xlink:title=" ">
<polygon fill="#e0e0e0" stroke="#999999" points="815.76,-184 761.76,-184 761.76,-165 815.76,-165 815.76,-184"/>
<text text-anchor="middle" x="788.76" y="-172" font-family="Helvetica,sans-Serif" font-size="10.00">istream</text>
</a>
</g>
</g>
<!-- Node31&#45;&gt;Node33 -->
<g id="edge37_Node000031_Node000033" class="edge">
<title>Node31&#45;&gt;Node33</title>
<g id="a_edge37_Node000031_Node000033"><a xlink:title=" ">
<path fill="none" stroke="#63b8ff" d="M741.75,-219.98C749.95,-212.23 762.26,-200.58 772.23,-191.14"/>
<polygon fill="#63b8ff" stroke="#63b8ff" points="774.74,-193.59 779.59,-184.17 769.93,-188.5 774.74,-193.59"/>
</a>
</g>
</g>
<!-- Node34&#45;&gt;Node3 -->
<g id="edge48_Node000034_Node000003" class="edge">
<title>Node34&#45;&gt;Node3</title>
<g id="a_edge48_Node000034_Node000003"><a xlink:title=" ">
<path fill="none" stroke="#63b8ff" d="M896.99,-329.66C889.47,-312.01 872.47,-272.09 862.48,-248.64"/>
<polygon fill="#63b8ff" stroke="#63b8ff" points="865.58,-246.99 858.44,-239.16 859.14,-249.73 865.58,-246.99"/>
</a>
</g>
</g>
<!-- Node34&#45;&gt;Node4 -->
<g id="edge51_Node000034_Node000004" class="edge">
<title>Node34&#45;&gt;Node4</title>
<g id="a_edge51_Node000034_Node000004"><a xlink:title=" ">
<path fill="none" stroke="#63b8ff" d="M869.67,-334.12C803.41,-324.78 648.02,-302.88 570.47,-291.94"/>
<polygon fill="#63b8ff" stroke="#63b8ff" points="570.9,-288.47 560.5,-290.54 569.92,-295.4 570.9,-288.47"/>
</a>
</g>
</g>
<!-- Node34&#45;&gt;Node8 -->
<g id="edge46_Node000034_Node000008" class="edge">
<title>Node34&#45;&gt;Node8</title>
<g id="a_edge46_Node000034_Node000008"><a xlink:title=" ">
<path fill="none" stroke="#63b8ff" d="M869.42,-338.76C754.65,-338.95 360.28,-332.7 289.76,-239 274.81,-219.14 293.28,-180.72 309.76,-165 317.43,-157.68 373.42,-141.61 413.01,-130.92"/>
<polygon fill="#63b8ff" stroke="#63b8ff" points="413.93,-134.3 422.69,-128.33 412.12,-127.54 413.93,-134.3"/>
</a>
</g>
</g>
<!-- Node34&#45;&gt;Node9 -->
<g id="edge47_Node000034_Node000009" class="edge">
<title>Node34&#45;&gt;Node9</title>
<g id="a_edge47_Node000034_Node000009"><a xlink:title=" ">
<path fill="none" stroke="#63b8ff" d="M900.76,-329.74C900.76,-304.31 900.76,-230.08 900.76,-194.69"/>
<polygon fill="#63b8ff" stroke="#63b8ff" points="904.26,-194.31 900.76,-184.31 897.26,-194.31 904.26,-194.31"/>
</a>
</g>
</g>
<!-- Node34&#45;&gt;Node17 -->
<g id="edge44_Node000034_Node000017" class="edge">
<title>Node34&#45;&gt;Node17</title>
<g id="a_edge44_Node000034_Node000017"><a xlink:title=" ">
<path fill="none" stroke="#63b8ff" d="M907.05,-329.83C926.09,-302.45 979.37,-216.61 938.76,-165 920.58,-141.9 837.97,-129.36 789.84,-123.89"/>
<polygon fill="#63b8ff" stroke="#63b8ff" points="790.17,-120.41 779.85,-122.8 789.41,-127.37 790.17,-120.41"/>
</a>
</g>
</g>
<!-- Node34&#45;&gt;Node29 -->
<g id="edge50_Node000034_Node000029" class="edge">
<title>Node34&#45;&gt;Node29</title>
<g id="a_edge50_Node000034_Node000029"><a xlink:title=" ">
<path fill="none" stroke="#63b8ff" d="M916.87,-329.88C943.98,-314.07 995.76,-277.7 995.76,-230.5 995.76,-230.5 995.76,-230.5 995.76,-173.5 995.76,-120.08 932.6,-90.65 887.7,-76.49"/>
<polygon fill="#63b8ff" stroke="#63b8ff" points="888.45,-73.06 877.87,-73.53 886.44,-79.76 888.45,-73.06"/>
</a>
</g>
</g>
<!-- Node34&#45;&gt;Node30 -->
<g id="edge43_Node000034_Node000030" class="edge">
<title>Node34&#45;&gt;Node30</title>
<g id="a_edge43_Node000034_Node000030"><a xlink:title=" ">
<path fill="none" stroke="#63b8ff" d="M928.31,-329.98C967.27,-316.03 1033.76,-284.34 1033.76,-230.5 1033.76,-230.5 1033.76,-230.5 1033.76,-118.5 1033.76,-75.91 991.59,-42.14 963.45,-24.33"/>
<polygon fill="#63b8ff" stroke="#63b8ff" points="965.23,-21.32 954.87,-19.12 961.6,-27.31 965.23,-21.32"/>
</a>
</g>
</g>
<!-- Node35 -->
<g id="Node000035" class="node">
<title>Node35</title>
<g id="a_Node000035"><a xlink:title=" ">
<polygon fill="#e0e0e0" stroke="#999999" points="1111.76,-294 1061.76,-294 1061.76,-275 1111.76,-275 1111.76,-294"/>
<text text-anchor="middle" x="1086.76" y="-282" font-family="Helvetica,sans-Serif" font-size="10.00">atomic</text>
</a>
</g>
</g>
<!-- Node34&#45;&gt;Node35 -->
<g id="edge45_Node000034_Node000035" class="edge">
<title>Node34&#45;&gt;Node35</title>
<g id="a_edge45_Node000034_Node000035"><a xlink:title=" ">
<path fill="none" stroke="#63b8ff" d="M930.64,-329.98C963.73,-320.56 1016.99,-305.38 1051.94,-295.42"/>
<polygon fill="#63b8ff" stroke="#63b8ff" points="1053.06,-298.74 1061.72,-292.63 1051.14,-292.01 1053.06,-298.74"/>
</a>
</g>
</g>
<!-- Node36 -->
<g id="Node000036" class="node">
<title>Node36</title>
<g id="a_Node000036"><a xlink:title=" ">
<polygon fill="#e0e0e0" stroke="#999999" points="853.76,-294 797.76,-294 797.76,-275 853.76,-275 853.76,-294"/>
<text text-anchor="middle" x="825.76" y="-282" font-family="Helvetica,sans-Serif" font-size="10.00">unistd.h</text>
</a>
</g>
</g>
<!-- Node34&#45;&gt;Node36 -->
<g id="edge49_Node000034_Node000036" class="edge">
<title>Node34&#45;&gt;Node36</title>
<g id="a_edge49_Node000034_Node000036"><a xlink:title=" ">
<path fill="none" stroke="#63b8ff" d="M888.71,-329.98C877.29,-321.92 859.92,-309.65 846.32,-300.03"/>
<polygon fill="#63b8ff" stroke="#63b8ff" points="848.21,-297.08 838.03,-294.17 844.17,-302.8 848.21,-297.08"/>
</a>
</g>
</g>
</g>
</svg>

<g id="navigator" transform="translate(0 0)" fill="#404254">
  <rect fill="#f2f5e9" fill-opacity="0.5" stroke="#606060" stroke-width=".5" x="0" y="0" width="60" height="60"/>
  <use id="zoomplus" xlink:href="#zoomPlus" x="17" y="9" onmousedown="handleZoom(evt,'in')"/>
  <use id="zoomminus" xlink:href="#zoomMin" x="42" y="9" onmousedown="handleZoom(evt,'out')"/>
  <use id="reset" xlink:href="#resetDef" x="30" y="36" onmousedown="handleReset()"/>
   <use id="arrowup" xlink:href="#arrowUp" x="0" y="0" onmousedown="handlePan(0,-1)"/>
  <use id="arrowright" xlink:href="#arrowRight" x="0" y="0" onmousedown="handlePan(1,0)"/>
  <use id="arrowdown" xlink:href="#arrowDown" x="0" y="0" onmousedown="handlePan(0,1)"/>
  <use id="arrowleft" xlink:href="#arrowLeft" x="0" y="0" onmousedown="handlePan(-1,0)"/>
</g>
<svg viewBox="0 0 15 15" width="100%" height="30px" preserveAspectRatio="xMaxYMin meet">
 <g id="arrow_out" transform="scale(0.3 0.3)">
  <a xlink:href="driver_8h__incl_org.svg" target="_base">
   <rect id="button" ry="5" rx="5" y="6" x="6" height="38" width="38"
        fill="#f2f5e9" fill-opacity="0.5" stroke="#606060" stroke-width="1.0"/>
   <path id="arrow"
     d="M 11.500037,31.436501 C 11.940474,20.09759 22.043105,11.32322 32.158766,21.979434 L 37.068811,17.246167 C 37.068811,17.246167 37.088388,32 37.088388,32 L 22.160133,31.978069 C 22.160133,31.978069 26.997745,27.140456 26.997745,27.140456 C 18.528582,18.264221 13.291696,25.230495 11.500037,31.436501 z"
     style="fill:#404040;"/>
  </a>
 </g>
</svg>

<style type='text/css'>
<![CDATA[
[data-mouse-over-selected='false'] { opacity: 0.7; }
[data-mouse-over-selected='true']  { opacity: 1.0; }
]]>
</style>
<script type="application/ecmascript"><![CDATA[
document.addEventListener('DOMContentLoaded', (event) => {
  highlightEdges();
  highlightAdjacentNodes();
});
]]></script>
</svg>
