<?xml version="1.0" encoding="UTF-8" standalone="no"?>
<!DOCTYPE svg PUBLIC "-//W3C//DTD SVG 1.1//EN"
 "http://www.w3.org/Graphics/SVG/1.1/DTD/svg11.dtd">
<!-- Generated by graphviz version 2.43.0 (0)
 -->
<!-- Title: fe/driver.h Pages: 1 -->
<svg width="785pt" height="357pt"
 viewBox="0.00 0.00 785.00 357.00" xmlns="http://www.w3.org/2000/svg" xmlns:xlink="http://www.w3.org/1999/xlink">
<g id="graph0" class="graph" transform="scale(1 1) rotate(0) translate(4 353)">
<title>fe/driver.h</title>
<!-- Node1 -->
<g id="Node000001" class="node">
<title>Node1</title>
<g id="a_Node000001"><a xlink:title=" ">
<polygon fill="#999999" stroke="#666666" points="234,-349 168,-349 168,-330 234,-330 234,-349"/>
<text text-anchor="middle" x="201" y="-337" font-family="Helvetica,sans-Serif" font-size="10.00">fe/driver.h</text>
</a>
</g>
</g>
<!-- Node2 -->
<g id="Node000002" class="node">
<title>Node2</title>
<g id="a_Node000002"><a xlink:title=" ">
<polygon fill="#e0e0e0" stroke="#999999" points="56,-294 0,-294 0,-275 56,-275 56,-294"/>
<text text-anchor="middle" x="28" y="-282" font-family="Helvetica,sans-Serif" font-size="10.00">sstream</text>
</a>
</g>
</g>
<!-- Node1&#45;&gt;Node2 -->
<g id="edge1_Node000001_Node000002" class="edge">
<title>Node1&#45;&gt;Node2</title>
<g id="a_edge1_Node000001_Node000002"><a xlink:title=" ">
<path fill="none" stroke="#63b8ff" d="M173.2,-329.98C144.03,-321.05 98,-306.94 65.6,-297.02"/>
<polygon fill="#63b8ff" stroke="#63b8ff" points="66.6,-293.66 56.01,-294.08 64.55,-300.36 66.6,-293.66"/>
</a>
</g>
</g>
<!-- Node3 -->
<g id="Node000003" class="node">
<title>Node3</title>
<g id="a_Node000003"><a xlink:title=" ">
<polygon fill="#e0e0e0" stroke="#999999" points="147.5,-294 74.5,-294 74.5,-275 147.5,-275 147.5,-294"/>
<text text-anchor="middle" x="111" y="-282" font-family="Helvetica,sans-Serif" font-size="10.00">string_view</text>
</a>
</g>
</g>
<!-- Node1&#45;&gt;Node3 -->
<g id="edge2_Node000001_Node000003" class="edge">
<title>Node1&#45;&gt;Node3</title>
<g id="a_edge2_Node000001_Node000003"><a xlink:title=" ">
<path fill="none" stroke="#63b8ff" d="M186.54,-329.98C172.58,-321.77 151.21,-309.18 134.75,-299.49"/>
<polygon fill="#63b8ff" stroke="#63b8ff" points="136.12,-296.23 125.72,-294.17 132.56,-302.26 136.12,-296.23"/>
</a>
</g>
</g>
<!-- Node4 -->
<g id="Node000004" class="node">
<title>Node4</title>
<g id="a_Node000004"><a xlink:href="format_8h.html" target="_top" xlink:title=" ">
<polygon fill="white" stroke="#666666" points="236.5,-294 165.5,-294 165.5,-275 236.5,-275 236.5,-294"/>
<text text-anchor="middle" x="201" y="-282" font-family="Helvetica,sans-Serif" font-size="10.00">fe/format.h</text>
</a>
</g>
</g>
<!-- Node1&#45;&gt;Node4 -->
<g id="edge3_Node000001_Node000004" class="edge">
<title>Node1&#45;&gt;Node4</title>
<g id="a_edge3_Node000001_Node000004"><a xlink:title=" ">
<path fill="none" stroke="#63b8ff" d="M201,-329.75C201,-322.8 201,-312.85 201,-304.13"/>
<polygon fill="#63b8ff" stroke="#63b8ff" points="204.5,-304.09 201,-294.09 197.5,-304.09 204.5,-304.09"/>
</a>
</g>
</g>
<!-- Node6 -->
<g id="Node000006" class="node">
<title>Node6</title>
<g id="a_Node000006"><a xlink:href="loc_8h.html" target="_top" xlink:title=" ">
<polygon fill="white" stroke="#666666" points="291.5,-239 238.5,-239 238.5,-220 291.5,-220 291.5,-239"/>
<text text-anchor="middle" x="265" y="-227" font-family="Helvetica,sans-Serif" font-size="10.00">fe/loc.h</text>
</a>
</g>
</g>
<!-- Node1&#45;&gt;Node6 -->
<g id="edge30_Node000001_Node000006" class="edge">
<title>Node1&#45;&gt;Node6</title>
<g id="a_edge30_Node000001_Node000006"><a xlink:title=" ">
<path fill="none" stroke="#63b8ff" d="M212.28,-329.76C222.19,-321.52 236.36,-308.33 245,-294 253.39,-280.08 258.6,-262.29 261.59,-249.09"/>
<polygon fill="#63b8ff" stroke="#63b8ff" points="265.02,-249.75 263.6,-239.26 258.17,-248.35 265.02,-249.75"/>
</a>
</g>
</g>
<!-- Node8 -->
<g id="Node000008" class="node">
<title>Node8</title>
<g id="a_Node000008"><a xlink:href="sym_8h.html" target="_top" xlink:title=" ">
<polygon fill="white" stroke="#666666" points="376.5,-184 317.5,-184 317.5,-165 376.5,-165 376.5,-184"/>
<text text-anchor="middle" x="347" y="-172" font-family="Helvetica,sans-Serif" font-size="10.00">fe/sym.h</text>
</a>
</g>
</g>
<!-- Node1&#45;&gt;Node8 -->
<g id="edge31_Node000001_Node000008" class="edge">
<title>Node1&#45;&gt;Node8</title>
<g id="a_edge31_Node000001_Node000008"><a xlink:title=" ">
<path fill="none" stroke="#63b8ff" d="M216.1,-329.89C229.6,-321.75 249.45,-308.61 264,-294 295.47,-262.41 323.21,-217.64 337.26,-193.17"/>
<polygon fill="#63b8ff" stroke="#63b8ff" points="340.4,-194.73 342.26,-184.3 334.3,-191.29 340.4,-194.73"/>
</a>
</g>
</g>
<!-- Node5 -->
<g id="Node000005" class="node">
<title>Node5</title>
<g id="a_Node000005"><a xlink:title=" ">
<polygon fill="#e0e0e0" stroke="#999999" points="100,-239 50,-239 50,-220 100,-220 100,-239"/>
<text text-anchor="middle" x="75" y="-227" font-family="Helvetica,sans-Serif" font-size="10.00">format</text>
</a>
</g>
</g>
<!-- Node4&#45;&gt;Node5 -->
<g id="edge4_Node000004_Node000005" class="edge">
<title>Node4&#45;&gt;Node5</title>
<g id="a_edge4_Node000004_Node000005"><a xlink:title=" ">
<path fill="none" stroke="#63b8ff" d="M180.76,-274.98C160.3,-266.38 128.47,-252.99 105.07,-243.15"/>
<polygon fill="#63b8ff" stroke="#63b8ff" points="106.19,-239.82 95.61,-239.17 103.47,-246.27 106.19,-239.82"/>
</a>
</g>
</g>
<!-- Node4&#45;&gt;Node6 -->
<g id="edge5_Node000004_Node000006" class="edge">
<title>Node4&#45;&gt;Node6</title>
<g id="a_edge5_Node000004_Node000006"><a xlink:title=" ">
<path fill="none" stroke="#63b8ff" d="M211.28,-274.98C220.84,-267.07 235.28,-255.11 246.78,-245.58"/>
<polygon fill="#63b8ff" stroke="#63b8ff" points="249.06,-248.24 254.53,-239.17 244.6,-242.85 249.06,-248.24"/>
</a>
</g>
</g>
<!-- Node25 -->
<g id="Node000025" class="node">
<title>Node25</title>
<g id="a_Node000025"><a xlink:href="utf8_8h.html" target="_top" xlink:title=" ">
<polygon fill="white" stroke="#666666" points="176,-239 118,-239 118,-220 176,-220 176,-239"/>
<text text-anchor="middle" x="147" y="-227" font-family="Helvetica,sans-Serif" font-size="10.00">fe/utf8.h</text>
</a>
</g>
</g>
<!-- Node4&#45;&gt;Node25 -->
<g id="edge25_Node000004_Node000025" class="edge">
<title>Node4&#45;&gt;Node25</title>
<g id="a_edge25_Node000004_Node000025"><a xlink:title=" ">
<path fill="none" stroke="#63b8ff" d="M192.08,-274.75C184.22,-267.03 172.57,-255.6 163.08,-246.28"/>
<polygon fill="#63b8ff" stroke="#63b8ff" points="165.34,-243.6 155.75,-239.09 160.44,-248.59 165.34,-243.6"/>
</a>
</g>
</g>
<!-- Node7 -->
<g id="Node000007" class="node">
<title>Node7</title>
<g id="a_Node000007"><a xlink:title=" ">
<polygon fill="#e0e0e0" stroke="#999999" points="299,-184 231,-184 231,-165 299,-165 299,-184"/>
<text text-anchor="middle" x="265" y="-172" font-family="Helvetica,sans-Serif" font-size="10.00">filesystem</text>
</a>
</g>
</g>
<!-- Node6&#45;&gt;Node7 -->
<g id="edge6_Node000006_Node000007" class="edge">
<title>Node6&#45;&gt;Node7</title>
<g id="a_edge6_Node000006_Node000007"><a xlink:title=" ">
<path fill="none" stroke="#63b8ff" d="M265,-219.75C265,-212.8 265,-202.85 265,-194.13"/>
<polygon fill="#63b8ff" stroke="#63b8ff" points="268.5,-194.09 265,-184.09 261.5,-194.09 268.5,-194.09"/>
</a>
</g>
</g>
<!-- Node6&#45;&gt;Node8 -->
<g id="edge7_Node000006_Node000008" class="edge">
<title>Node6&#45;&gt;Node8</title>
<g id="a_edge7_Node000006_Node000008"><a xlink:title=" ">
<path fill="none" stroke="#63b8ff" d="M278.17,-219.98C290.77,-211.84 310,-199.41 324.94,-189.76"/>
<polygon fill="#63b8ff" stroke="#63b8ff" points="327.09,-192.54 333.59,-184.17 323.29,-186.66 327.09,-192.54"/>
</a>
</g>
</g>
<!-- Node9 -->
<g id="Node000009" class="node">
<title>Node9</title>
<g id="a_Node000009"><a xlink:title=" ">
<polygon fill="#e0e0e0" stroke="#999999" points="518,-19 466,-19 466,0 518,0 518,-19"/>
<text text-anchor="middle" x="492" y="-7" font-family="Helvetica,sans-Serif" font-size="10.00">cassert</text>
</a>
</g>
</g>
<!-- Node8&#45;&gt;Node9 -->
<g id="edge8_Node000008_Node000009" class="edge">
<title>Node8&#45;&gt;Node9</title>
<g id="a_edge8_Node000008_Node000009"><a xlink:title=" ">
<path fill="none" stroke="#63b8ff" d="M376.8,-171.37C465.58,-164.33 725.12,-138.49 773,-74 778.03,-67.22 778.48,-61.42 773,-55 741.94,-18.64 597.09,-11.82 528.37,-10.66"/>
<polygon fill="#63b8ff" stroke="#63b8ff" points="528.07,-7.16 518.02,-10.52 527.97,-14.16 528.07,-7.16"/>
</a>
</g>
</g>
<!-- Node10 -->
<g id="Node000010" class="node">
<title>Node10</title>
<g id="a_Node000010"><a xlink:title=" ">
<polygon fill="#e0e0e0" stroke="#999999" points="94,-129 44,-129 44,-110 94,-110 94,-129"/>
<text text-anchor="middle" x="69" y="-117" font-family="Helvetica,sans-Serif" font-size="10.00">cstring</text>
</a>
</g>
</g>
<!-- Node8&#45;&gt;Node10 -->
<g id="edge9_Node000008_Node000010" class="edge">
<title>Node8&#45;&gt;Node10</title>
<g id="a_edge9_Node000008_Node000010"><a xlink:title=" ">
<path fill="none" stroke="#63b8ff" d="M317.22,-166.88C314.11,-166.23 310.99,-165.59 308,-165 220.34,-147.76 195.19,-148.18 104.13,-129.11"/>
<polygon fill="#63b8ff" stroke="#63b8ff" points="104.71,-125.66 94.2,-127.01 103.26,-132.51 104.71,-125.66"/>
</a>
</g>
</g>
<!-- Node11 -->
<g id="Node000011" class="node">
<title>Node11</title>
<g id="a_Node000011"><a xlink:title=" ">
<polygon fill="#e0e0e0" stroke="#999999" points="141.5,-129 112.5,-129 112.5,-110 141.5,-110 141.5,-129"/>
<text text-anchor="middle" x="127" y="-117" font-family="Helvetica,sans-Serif" font-size="10.00">bit</text>
</a>
</g>
</g>
<!-- Node8&#45;&gt;Node11 -->
<g id="edge10_Node000008_Node000011" class="edge">
<title>Node8&#45;&gt;Node11</title>
<g id="a_edge10_Node000008_Node000011"><a xlink:title=" ">
<path fill="none" stroke="#63b8ff" d="M317.41,-166.98C271.8,-156.91 186.64,-137.99 151.5,-128.73"/>
<polygon fill="#63b8ff" stroke="#63b8ff" points="152.21,-125.29 141.63,-125.99 150.33,-132.04 152.21,-125.29"/>
</a>
</g>
</g>
<!-- Node12 -->
<g id="Node000012" class="node">
<title>Node12</title>
<g id="a_Node000012"><a xlink:title=" ">
<polygon fill="#e0e0e0" stroke="#999999" points="220,-129 160,-129 160,-110 220,-110 220,-129"/>
<text text-anchor="middle" x="190" y="-117" font-family="Helvetica,sans-Serif" font-size="10.00">iostream</text>
</a>
</g>
</g>
<!-- Node8&#45;&gt;Node12 -->
<g id="edge11_Node000008_Node000012" class="edge">
<title>Node8&#45;&gt;Node12</title>
<g id="a_edge11_Node000008_Node000012"><a xlink:title=" ">
<path fill="none" stroke="#63b8ff" d="M321.78,-164.98C295.64,-156.16 254.6,-142.31 225.27,-132.41"/>
<polygon fill="#63b8ff" stroke="#63b8ff" points="226.02,-128.96 215.42,-129.08 223.78,-135.6 226.02,-128.96"/>
</a>
</g>
</g>
<!-- Node13 -->
<g id="Node000013" class="node">
<title>Node13</title>
<g id="a_Node000013"><a xlink:title=" ">
<polygon fill="#e0e0e0" stroke="#999999" points="282,-129 238,-129 238,-110 282,-110 282,-129"/>
<text text-anchor="middle" x="260" y="-117" font-family="Helvetica,sans-Serif" font-size="10.00">string</text>
</a>
</g>
</g>
<!-- Node8&#45;&gt;Node13 -->
<g id="edge12_Node000008_Node000013" class="edge">
<title>Node8&#45;&gt;Node13</title>
<g id="a_edge12_Node000008_Node000013"><a xlink:title=" ">
<path fill="none" stroke="#63b8ff" d="M333.02,-164.98C319.53,-156.77 298.87,-144.18 282.96,-134.49"/>
<polygon fill="#63b8ff" stroke="#63b8ff" points="284.59,-131.38 274.23,-129.17 280.95,-137.36 284.59,-131.38"/>
</a>
</g>
</g>
<!-- Node14 -->
<g id="Node000014" class="node">
<title>Node14</title>
<g id="a_Node000014"><a xlink:title=" ">
<polygon fill="#e0e0e0" stroke="#999999" points="393.5,-129 300.5,-129 300.5,-110 393.5,-110 393.5,-129"/>
<text text-anchor="middle" x="347" y="-117" font-family="Helvetica,sans-Serif" font-size="10.00">unordered_map</text>
</a>
</g>
</g>
<!-- Node8&#45;&gt;Node14 -->
<g id="edge13_Node000008_Node000014" class="edge">
<title>Node8&#45;&gt;Node14</title>
<g id="a_edge13_Node000008_Node000014"><a xlink:title=" ">
<path fill="none" stroke="#63b8ff" d="M347,-164.75C347,-157.8 347,-147.85 347,-139.13"/>
<polygon fill="#63b8ff" stroke="#63b8ff" points="350.5,-139.09 347,-129.09 343.5,-139.09 350.5,-139.09"/>
</a>
</g>
</g>
<!-- Node15 -->
<g id="Node000015" class="node">
<title>Node15</title>
<g id="a_Node000015"><a xlink:title=" ">
<polygon fill="#e0e0e0" stroke="#999999" points="498,-129 412,-129 412,-110 498,-110 498,-129"/>
<text text-anchor="middle" x="455" y="-117" font-family="Helvetica,sans-Serif" font-size="10.00">unordered_set</text>
</a>
</g>
</g>
<!-- Node8&#45;&gt;Node15 -->
<g id="edge14_Node000008_Node000015" class="edge">
<title>Node8&#45;&gt;Node15</title>
<g id="a_edge14_Node000008_Node000015"><a xlink:title=" ">
<path fill="none" stroke="#63b8ff" d="M364.35,-164.98C381.57,-156.54 408.2,-143.47 428.15,-133.68"/>
<polygon fill="#63b8ff" stroke="#63b8ff" points="429.9,-136.72 437.33,-129.17 426.81,-130.43 429.9,-136.72"/>
</a>
</g>
</g>
<!-- Node16 -->
<g id="Node000016" class="node">
<title>Node16</title>
<g id="a_Node000016"><a xlink:href="arena_8h.html" target="_top" xlink:title=" ">
<polygon fill="white" stroke="#666666" points="582,-129 516,-129 516,-110 582,-110 582,-129"/>
<text text-anchor="middle" x="549" y="-117" font-family="Helvetica,sans-Serif" font-size="10.00">fe/arena.h</text>
</a>
</g>
</g>
<!-- Node8&#45;&gt;Node16 -->
<g id="edge15_Node000008_Node000016" class="edge">
<title>Node8&#45;&gt;Node16</title>
<g id="a_edge15_Node000008_Node000016"><a xlink:title=" ">
<path fill="none" stroke="#63b8ff" d="M376.81,-165.68C411.06,-156.69 467.54,-141.87 506.42,-131.67"/>
<polygon fill="#63b8ff" stroke="#63b8ff" points="507.61,-134.98 516.39,-129.06 505.83,-128.21 507.61,-134.98"/>
</a>
</g>
</g>
<!-- Node17 -->
<g id="Node000017" class="node">
<title>Node17</title>
<g id="a_Node000017"><a xlink:title=" ">
<polygon fill="#e0e0e0" stroke="#999999" points="764,-74 700,-74 700,-55 764,-55 764,-74"/>
<text text-anchor="middle" x="732" y="-62" font-family="Helvetica,sans-Serif" font-size="10.00">algorithm</text>
</a>
</g>
</g>
<!-- Node16&#45;&gt;Node17 -->
<g id="edge16_Node000016_Node000017" class="edge">
<title>Node16&#45;&gt;Node17</title>
<g id="a_edge16_Node000016_Node000017"><a xlink:title=" ">
<path fill="none" stroke="#63b8ff" d="M578.4,-109.98C609.39,-101.01 658.38,-86.82 692.67,-76.89"/>
<polygon fill="#63b8ff" stroke="#63b8ff" points="693.74,-80.23 702.37,-74.08 691.79,-73.5 693.74,-80.23"/>
</a>
</g>
</g>
<!-- Node18 -->
<g id="Node000018" class="node">
<title>Node18</title>
<g id="a_Node000018"><a xlink:title=" ">
<polygon fill="#e0e0e0" stroke="#999999" points="277,-74 245,-74 245,-55 277,-55 277,-74"/>
<text text-anchor="middle" x="261" y="-62" font-family="Helvetica,sans-Serif" font-size="10.00">list</text>
</a>
</g>
</g>
<!-- Node16&#45;&gt;Node18 -->
<g id="edge17_Node000016_Node000018" class="edge">
<title>Node16&#45;&gt;Node18</title>
<g id="a_edge17_Node000016_Node000018"><a xlink:title=" ">
<path fill="none" stroke="#63b8ff" d="M515.55,-111.61C512.66,-111.05 509.78,-110.51 507,-110 412.26,-92.7 384.34,-97.74 286.98,-73.87"/>
<polygon fill="#63b8ff" stroke="#63b8ff" points="287.57,-70.41 277.02,-71.39 285.88,-77.2 287.57,-70.41"/>
</a>
</g>
</g>
<!-- Node19 -->
<g id="Node000019" class="node">
<title>Node19</title>
<g id="a_Node000019"><a xlink:title=" ">
<polygon fill="#e0e0e0" stroke="#999999" points="353,-74 295,-74 295,-55 353,-55 353,-74"/>
<text text-anchor="middle" x="324" y="-62" font-family="Helvetica,sans-Serif" font-size="10.00">memory</text>
</a>
</g>
</g>
<!-- Node16&#45;&gt;Node19 -->
<g id="edge18_Node000016_Node000019" class="edge">
<title>Node16&#45;&gt;Node19</title>
<g id="a_edge18_Node000016_Node000019"><a xlink:title=" ">
<path fill="none" stroke="#63b8ff" d="M515.8,-110.68C475.06,-101.08 406.09,-84.84 362.9,-74.66"/>
<polygon fill="#63b8ff" stroke="#63b8ff" points="363.58,-71.23 353.04,-72.34 361.97,-78.04 363.58,-71.23"/>
</a>
</g>
</g>
<!-- Node20 -->
<g id="Node000020" class="node">
<title>Node20</title>
<g id="a_Node000020"><a xlink:title=" ">
<polygon fill="#e0e0e0" stroke="#999999" points="476.5,-74 371.5,-74 371.5,-55 476.5,-55 476.5,-74"/>
<text text-anchor="middle" x="424" y="-62" font-family="Helvetica,sans-Serif" font-size="10.00">memory_resource</text>
</a>
</g>
</g>
<!-- Node16&#45;&gt;Node20 -->
<g id="edge19_Node000016_Node000020" class="edge">
<title>Node16&#45;&gt;Node20</title>
<g id="a_edge19_Node000016_Node000020"><a xlink:title=" ">
<path fill="none" stroke="#63b8ff" d="M528.92,-109.98C508.63,-101.38 477.04,-87.99 453.83,-78.15"/>
<polygon fill="#63b8ff" stroke="#63b8ff" points="455.02,-74.85 444.45,-74.17 452.29,-81.3 455.02,-74.85"/>
</a>
</g>
</g>
<!-- Node21 -->
<g id="Node000021" class="node">
<title>Node21</title>
<g id="a_Node000021"><a xlink:title=" ">
<polygon fill="#e0e0e0" stroke="#999999" points="531.5,-74 494.5,-74 494.5,-55 531.5,-55 531.5,-74"/>
<text text-anchor="middle" x="513" y="-62" font-family="Helvetica,sans-Serif" font-size="10.00">new</text>
</a>
</g>
</g>
<!-- Node16&#45;&gt;Node21 -->
<g id="edge20_Node000016_Node000021" class="edge">
<title>Node16&#45;&gt;Node21</title>
<g id="a_edge20_Node000016_Node000021"><a xlink:title=" ">
<path fill="none" stroke="#63b8ff" d="M543.06,-109.75C538.02,-102.34 530.66,-91.5 524.49,-82.41"/>
<polygon fill="#63b8ff" stroke="#63b8ff" points="527.35,-80.39 518.83,-74.09 521.56,-84.33 527.35,-80.39"/>
</a>
</g>
</g>
<!-- Node22 -->
<g id="Node000022" class="node">
<title>Node22</title>
<g id="a_Node000022"><a xlink:title=" ">
<polygon fill="#e0e0e0" stroke="#999999" points="618.5,-74 549.5,-74 549.5,-55 618.5,-55 618.5,-74"/>
<text text-anchor="middle" x="584" y="-62" font-family="Helvetica,sans-Serif" font-size="10.00">type_traits</text>
</a>
</g>
</g>
<!-- Node16&#45;&gt;Node22 -->
<g id="edge21_Node000016_Node000022" class="edge">
<title>Node16&#45;&gt;Node22</title>
<g id="a_edge21_Node000016_Node000022"><a xlink:title=" ">
<path fill="none" stroke="#63b8ff" d="M554.78,-109.75C559.62,-102.42 566.68,-91.73 572.64,-82.7"/>
<polygon fill="#63b8ff" stroke="#63b8ff" points="575.74,-84.36 578.33,-74.09 569.9,-80.5 575.74,-84.36"/>
</a>
</g>
</g>
<!-- Node23 -->
<g id="Node000023" class="node">
<title>Node23</title>
<g id="a_Node000023"><a xlink:title=" ">
<polygon fill="#e0e0e0" stroke="#999999" points="681.5,-74 636.5,-74 636.5,-55 681.5,-55 681.5,-74"/>
<text text-anchor="middle" x="659" y="-62" font-family="Helvetica,sans-Serif" font-size="10.00">utility</text>
</a>
</g>
</g>
<!-- Node16&#45;&gt;Node23 -->
<g id="edge22_Node000016_Node000023" class="edge">
<title>Node16&#45;&gt;Node23</title>
<g id="a_edge22_Node000016_Node000023"><a xlink:title=" ">
<path fill="none" stroke="#63b8ff" d="M566.67,-109.98C584.29,-101.5 611.58,-88.35 631.93,-78.54"/>
<polygon fill="#63b8ff" stroke="#63b8ff" points="633.52,-81.66 641.01,-74.17 630.48,-75.36 633.52,-81.66"/>
</a>
</g>
</g>
<!-- Node24 -->
<g id="Node000024" class="node">
<title>Node24</title>
<g id="a_Node000024"><a xlink:href="assert_8h.html" target="_top" xlink:title=" ">
<polygon fill="white" stroke="#666666" points="227,-74 159,-74 159,-55 227,-55 227,-74"/>
<text text-anchor="middle" x="193" y="-62" font-family="Helvetica,sans-Serif" font-size="10.00">fe/assert.h</text>
</a>
</g>
</g>
<!-- Node16&#45;&gt;Node24 -->
<g id="edge23_Node000016_Node000024" class="edge">
<title>Node16&#45;&gt;Node24</title>
<g id="a_edge23_Node000016_Node000024"><a xlink:title=" ">
<path fill="none" stroke="#63b8ff" d="M515.57,-111.52C512.67,-110.98 509.79,-110.47 507,-110 390.32,-90.47 357.59,-93.6 237.21,-74.1"/>
<polygon fill="#63b8ff" stroke="#63b8ff" points="237.67,-70.63 227.23,-72.47 236.53,-77.54 237.67,-70.63"/>
</a>
</g>
</g>
<!-- Node24&#45;&gt;Node9 -->
<g id="edge24_Node000024_Node000009" class="edge">
<title>Node24&#45;&gt;Node9</title>
<g id="a_edge24_Node000024_Node000009"><a xlink:title=" ">
<path fill="none" stroke="#63b8ff" d="M227.25,-56.65C230.21,-56.09 233.16,-55.53 236,-55 314.26,-40.47 406.26,-24.83 455.87,-16.51"/>
<polygon fill="#63b8ff" stroke="#63b8ff" points="456.51,-19.95 465.8,-14.85 455.36,-13.05 456.51,-19.95"/>
</a>
</g>
</g>
<!-- Node25&#45;&gt;Node24 -->
<g id="edge29_Node000025_Node000024" class="edge">
<title>Node25&#45;&gt;Node24</title>
<g id="a_edge29_Node000025_Node000024"><a xlink:title=" ">
<path fill="none" stroke="#63b8ff" d="M117.92,-221.27C78.65,-211.23 12.77,-193.24 6,-184 1.01,-177.19 3.97,-173.2 6,-165 12.64,-138.18 13.51,-127.38 35,-110 67.43,-83.77 114.42,-72.99 148.73,-68.56"/>
<polygon fill="#63b8ff" stroke="#63b8ff" points="149.4,-72.01 158.93,-67.38 148.6,-65.05 149.4,-72.01"/>
</a>
</g>
</g>
<!-- Node26 -->
<g id="Node000026" class="node">
<title>Node26</title>
<g id="a_Node000026"><a xlink:title=" ">
<polygon fill="#e0e0e0" stroke="#999999" points="64.5,-184 15.5,-184 15.5,-165 64.5,-165 64.5,-184"/>
<text text-anchor="middle" x="40" y="-172" font-family="Helvetica,sans-Serif" font-size="10.00">cctype</text>
</a>
</g>
</g>
<!-- Node25&#45;&gt;Node26 -->
<g id="edge26_Node000025_Node000026" class="edge">
<title>Node25&#45;&gt;Node26</title>
<g id="a_edge26_Node000025_Node000026"><a xlink:title=" ">
<path fill="none" stroke="#63b8ff" d="M129.81,-219.98C112.75,-211.54 86.37,-198.47 66.6,-188.68"/>
<polygon fill="#63b8ff" stroke="#63b8ff" points="68.02,-185.47 57.5,-184.17 64.91,-191.75 68.02,-185.47"/>
</a>
</g>
</g>
<!-- Node27 -->
<g id="Node000027" class="node">
<title>Node27</title>
<g id="a_Node000027"><a xlink:title=" ">
<polygon fill="#e0e0e0" stroke="#999999" points="137,-184 83,-184 83,-165 137,-165 137,-184"/>
<text text-anchor="middle" x="110" y="-172" font-family="Helvetica,sans-Serif" font-size="10.00">istream</text>
</a>
</g>
</g>
<!-- Node25&#45;&gt;Node27 -->
<g id="edge27_Node000025_Node000027" class="edge">
<title>Node25&#45;&gt;Node27</title>
<g id="a_edge27_Node000025_Node000027"><a xlink:title=" ">
<path fill="none" stroke="#63b8ff" d="M140.89,-219.75C135.72,-212.34 128.15,-201.5 121.81,-192.41"/>
<polygon fill="#63b8ff" stroke="#63b8ff" points="124.59,-190.29 116,-184.09 118.85,-194.29 124.59,-190.29"/>
</a>
</g>
</g>
<!-- Node28 -->
<g id="Node000028" class="node">
<title>Node28</title>
<g id="a_Node000028"><a xlink:title=" ">
<polygon fill="#e0e0e0" stroke="#999999" points="212.5,-184 155.5,-184 155.5,-165 212.5,-165 212.5,-184"/>
<text text-anchor="middle" x="184" y="-172" font-family="Helvetica,sans-Serif" font-size="10.00">ostream</text>
</a>
</g>
</g>
<!-- Node25&#45;&gt;Node28 -->
<g id="edge28_Node000025_Node000028" class="edge">
<title>Node25&#45;&gt;Node28</title>
<g id="a_edge28_Node000025_Node000028"><a xlink:title=" ">
<path fill="none" stroke="#63b8ff" d="M153.11,-219.75C158.28,-212.34 165.85,-201.5 172.19,-192.41"/>
<polygon fill="#63b8ff" stroke="#63b8ff" points="175.15,-194.29 178,-184.09 169.41,-190.29 175.15,-194.29"/>
</a>
</g>
</g>
</g>
</svg>
