<?xml version="1.0" encoding="UTF-8" standalone="no"?>
<!DOCTYPE svg PUBLIC "-//W3C//DTD SVG 1.1//EN"
 "http://www.w3.org/Graphics/SVG/1.1/DTD/svg11.dtd">
<!-- Generated by graphviz version 2.43.0 (0)
 -->
<!-- Title: fe/driver.h Pages: 1 -->
<svg width="1228pt" height="357pt"
 viewBox="0.00 0.00 1228.00 357.00" xmlns="http://www.w3.org/2000/svg" xmlns:xlink="http://www.w3.org/1999/xlink">
<g id="graph0" class="graph" transform="scale(1 1) rotate(0) translate(4 353)">
<title>fe/driver.h</title>
<!-- Node1 -->
<g id="Node000001" class="node">
<title>Node1</title>
<g id="a_Node000001"><a xlink:title=" ">
<polygon fill="#999999" stroke="#666666" points="484,-349 418,-349 418,-330 484,-330 484,-349"/>
<text text-anchor="middle" x="451" y="-337" font-family="Helvetica,sans-Serif" font-size="10.00">fe/driver.h</text>
</a>
</g>
</g>
<!-- Node2 -->
<g id="Node000002" class="node">
<title>Node2</title>
<g id="a_Node000002"><a xlink:title=" ">
<polygon fill="#e0e0e0" stroke="#999999" points="56,-239 0,-239 0,-220 56,-220 56,-239"/>
<text text-anchor="middle" x="28" y="-227" font-family="Helvetica,sans-Serif" font-size="10.00">sstream</text>
</a>
</g>
</g>
<!-- Node1&#45;&gt;Node2 -->
<g id="edge1_Node000001_Node000002" class="edge">
<title>Node1&#45;&gt;Node2</title>
<g id="a_edge1_Node000001_Node000002"><a xlink:title=" ">
<path fill="none" stroke="#63b8ff" d="M417.94,-331.39C379.24,-322.96 313.28,-308.25 257,-294 189.33,-276.87 111.07,-254.64 65.79,-241.54"/>
<polygon fill="#63b8ff" stroke="#63b8ff" points="66.67,-238.15 56.09,-238.73 64.72,-244.88 66.67,-238.15"/>
</a>
</g>
</g>
<!-- Node3 -->
<g id="Node000003" class="node">
<title>Node3</title>
<g id="a_Node000003"><a xlink:title=" ">
<polygon fill="#e0e0e0" stroke="#999999" points="147.5,-239 74.5,-239 74.5,-220 147.5,-220 147.5,-239"/>
<text text-anchor="middle" x="111" y="-227" font-family="Helvetica,sans-Serif" font-size="10.00">string_view</text>
</a>
</g>
</g>
<!-- Node1&#45;&gt;Node3 -->
<g id="edge2_Node000001_Node000003" class="edge">
<title>Node1&#45;&gt;Node3</title>
<g id="a_edge2_Node000001_Node000003"><a xlink:title=" ">
<path fill="none" stroke="#63b8ff" d="M424.04,-329.94C363.41,-310.68 216.26,-263.94 147.52,-242.1"/>
<polygon fill="#63b8ff" stroke="#63b8ff" points="148.56,-238.76 137.97,-239.07 146.44,-245.43 148.56,-238.76"/>
</a>
</g>
</g>
<!-- Node4 -->
<g id="Node000004" class="node">
<title>Node4</title>
<g id="a_Node000004"><a xlink:href="format_8h.html" target="_top" xlink:title=" ">
<polygon fill="white" stroke="#666666" points="486.5,-294 415.5,-294 415.5,-275 486.5,-275 486.5,-294"/>
<text text-anchor="middle" x="451" y="-282" font-family="Helvetica,sans-Serif" font-size="10.00">fe/format.h</text>
</a>
</g>
</g>
<!-- Node1&#45;&gt;Node4 -->
<g id="edge3_Node000001_Node000004" class="edge">
<title>Node1&#45;&gt;Node4</title>
<g id="a_edge3_Node000001_Node000004"><a xlink:title=" ">
<path fill="none" stroke="#63b8ff" d="M451,-329.75C451,-322.8 451,-312.85 451,-304.13"/>
<polygon fill="#63b8ff" stroke="#63b8ff" points="454.5,-304.09 451,-294.09 447.5,-304.09 454.5,-304.09"/>
</a>
</g>
</g>
<!-- Node13 -->
<g id="Node000013" class="node">
<title>Node13</title>
<g id="a_Node000013"><a xlink:href="loc_8h.html" target="_top" xlink:title=" ">
<polygon fill="white" stroke="#666666" points="765.5,-239 712.5,-239 712.5,-220 765.5,-220 765.5,-239"/>
<text text-anchor="middle" x="739" y="-227" font-family="Helvetica,sans-Serif" font-size="10.00">fe/loc.h</text>
</a>
</g>
</g>
<!-- Node1&#45;&gt;Node13 -->
<g id="edge39_Node000001_Node000013" class="edge">
<title>Node1&#45;&gt;Node13</title>
<g id="a_edge39_Node000001_Node000013"><a xlink:title=" ">
<path fill="none" stroke="#63b8ff" d="M474.08,-329.84C525.18,-310.68 647.99,-264.63 706.69,-242.62"/>
<polygon fill="#63b8ff" stroke="#63b8ff" points="708.07,-245.84 716.21,-239.05 705.62,-239.28 708.07,-245.84"/>
</a>
</g>
</g>
<!-- Node15 -->
<g id="Node000015" class="node">
<title>Node15</title>
<g id="a_Node000015"><a xlink:href="sym_8h.html" target="_top" xlink:title=" ">
<polygon fill="white" stroke="#666666" points="877.5,-184 818.5,-184 818.5,-165 877.5,-165 877.5,-184"/>
<text text-anchor="middle" x="848" y="-172" font-family="Helvetica,sans-Serif" font-size="10.00">fe/sym.h</text>
</a>
</g>
</g>
<!-- Node1&#45;&gt;Node15 -->
<g id="edge40_Node000001_Node000015" class="edge">
<title>Node1&#45;&gt;Node15</title>
<g id="a_edge40_Node000001_Node000015"><a xlink:title=" ">
<path fill="none" stroke="#63b8ff" d="M484.04,-333.2C544.68,-322.44 676.49,-294.25 774,-239 796.66,-226.16 818.8,-205.83 832.87,-191.64"/>
<polygon fill="#63b8ff" stroke="#63b8ff" points="835.73,-193.72 840.16,-184.1 830.7,-188.85 835.73,-193.72"/>
</a>
</g>
</g>
<!-- Node4&#45;&gt;Node2 -->
<g id="edge11_Node000004_Node000002" class="edge">
<title>Node4&#45;&gt;Node2</title>
<g id="a_edge11_Node000004_Node000002"><a xlink:title=" ">
<path fill="none" stroke="#63b8ff" d="M415.42,-280.73C348.81,-275.25 200.61,-261.72 66.27,-239.04"/>
<polygon fill="#63b8ff" stroke="#63b8ff" points="66.66,-235.56 56.22,-237.32 65.48,-242.46 66.66,-235.56"/>
</a>
</g>
</g>
<!-- Node4&#45;&gt;Node3 -->
<g id="edge12_Node000004_Node000003" class="edge">
<title>Node4&#45;&gt;Node3</title>
<g id="a_edge12_Node000004_Node000003"><a xlink:title=" ">
<path fill="none" stroke="#63b8ff" d="M415.19,-278.46C361.55,-270.83 256.93,-255.63 157.55,-239.04"/>
<polygon fill="#63b8ff" stroke="#63b8ff" points="158.08,-235.58 147.64,-237.38 156.92,-242.49 158.08,-235.58"/>
</a>
</g>
</g>
<!-- Node5 -->
<g id="Node000005" class="node">
<title>Node5</title>
<g id="a_Node000005"><a xlink:title=" ">
<polygon fill="#e0e0e0" stroke="#999999" points="226,-239 166,-239 166,-220 226,-220 226,-239"/>
<text text-anchor="middle" x="196" y="-227" font-family="Helvetica,sans-Serif" font-size="10.00">concepts</text>
</a>
</g>
</g>
<!-- Node4&#45;&gt;Node5 -->
<g id="edge4_Node000004_Node000005" class="edge">
<title>Node4&#45;&gt;Node5</title>
<g id="a_edge4_Node000004_Node000005"><a xlink:title=" ">
<path fill="none" stroke="#63b8ff" d="M415.43,-276.3C374.6,-268.01 305.37,-253.86 236.4,-239.28"/>
<polygon fill="#63b8ff" stroke="#63b8ff" points="236.73,-235.77 226.23,-237.12 235.28,-242.62 236.73,-235.77"/>
</a>
</g>
</g>
<!-- Node6 -->
<g id="Node000006" class="node">
<title>Node6</title>
<g id="a_Node000006"><a xlink:title=" ">
<polygon fill="#e0e0e0" stroke="#999999" points="294,-239 244,-239 244,-220 294,-220 294,-239"/>
<text text-anchor="middle" x="269" y="-227" font-family="Helvetica,sans-Serif" font-size="10.00">format</text>
</a>
</g>
</g>
<!-- Node4&#45;&gt;Node6 -->
<g id="edge5_Node000004_Node000006" class="edge">
<title>Node4&#45;&gt;Node6</title>
<g id="a_edge5_Node000004_Node000006"><a xlink:title=" ">
<path fill="none" stroke="#63b8ff" d="M421.76,-274.98C389.7,-265.65 338.29,-250.68 304.09,-240.72"/>
<polygon fill="#63b8ff" stroke="#63b8ff" points="304.65,-237.24 294.07,-237.8 302.69,-243.96 304.65,-237.24"/>
</a>
</g>
</g>
<!-- Node7 -->
<g id="Node000007" class="node">
<title>Node7</title>
<g id="a_Node000007"><a xlink:title=" ">
<polygon fill="#e0e0e0" stroke="#999999" points="453.5,-239 388.5,-239 388.5,-220 453.5,-220 453.5,-239"/>
<text text-anchor="middle" x="421" y="-227" font-family="Helvetica,sans-Serif" font-size="10.00">functional</text>
</a>
</g>
</g>
<!-- Node4&#45;&gt;Node7 -->
<g id="edge6_Node000004_Node000007" class="edge">
<title>Node4&#45;&gt;Node7</title>
<g id="a_edge6_Node000004_Node000007"><a xlink:title=" ">
<path fill="none" stroke="#63b8ff" d="M446.05,-274.75C441.94,-267.49 435.97,-256.95 430.9,-247.98"/>
<polygon fill="#63b8ff" stroke="#63b8ff" points="433.83,-246.07 425.86,-239.09 427.74,-249.52 433.83,-246.07"/>
</a>
</g>
</g>
<!-- Node8 -->
<g id="Node000008" class="node">
<title>Node8</title>
<g id="a_Node000008"><a xlink:title=" ">
<polygon fill="#e0e0e0" stroke="#999999" points="689,-129 629,-129 629,-110 689,-110 689,-129"/>
<text text-anchor="middle" x="659" y="-117" font-family="Helvetica,sans-Serif" font-size="10.00">iostream</text>
</a>
</g>
</g>
<!-- Node4&#45;&gt;Node8 -->
<g id="edge7_Node000004_Node000008" class="edge">
<title>Node4&#45;&gt;Node8</title>
<g id="a_edge7_Node000004_Node000008"><a xlink:title=" ">
<path fill="none" stroke="#63b8ff" d="M461.89,-274.97C495.44,-248.68 597.51,-168.69 640.06,-135.34"/>
<polygon fill="#63b8ff" stroke="#63b8ff" points="642.25,-138.07 647.97,-129.15 637.94,-132.56 642.25,-138.07"/>
</a>
</g>
</g>
<!-- Node9 -->
<g id="Node000009" class="node">
<title>Node9</title>
<g id="a_Node000009"><a xlink:title=" ">
<polygon fill="#e0e0e0" stroke="#999999" points="491.5,-184 434.5,-184 434.5,-165 491.5,-165 491.5,-184"/>
<text text-anchor="middle" x="463" y="-172" font-family="Helvetica,sans-Serif" font-size="10.00">ostream</text>
</a>
</g>
</g>
<!-- Node4&#45;&gt;Node9 -->
<g id="edge8_Node000004_Node000009" class="edge">
<title>Node4&#45;&gt;Node9</title>
<g id="a_edge8_Node000004_Node000009"><a xlink:title=" ">
<path fill="none" stroke="#63b8ff" d="M453.79,-274.75C456.47,-265.85 460.36,-251.63 462,-239 463.93,-224.1 464.09,-207.07 463.82,-194.4"/>
<polygon fill="#63b8ff" stroke="#63b8ff" points="467.31,-194.05 463.48,-184.17 460.31,-194.28 467.31,-194.05"/>
</a>
</g>
</g>
<!-- Node10 -->
<g id="Node000010" class="node">
<title>Node10</title>
<g id="a_Node000010"><a xlink:title=" ">
<polygon fill="#e0e0e0" stroke="#999999" points="587.5,-239 548.5,-239 548.5,-220 587.5,-220 587.5,-239"/>
<text text-anchor="middle" x="568" y="-227" font-family="Helvetica,sans-Serif" font-size="10.00">print</text>
</a>
</g>
</g>
<!-- Node4&#45;&gt;Node10 -->
<g id="edge9_Node000004_Node000010" class="edge">
<title>Node4&#45;&gt;Node10</title>
<g id="a_edge9_Node000004_Node000010"><a xlink:title=" ">
<path fill="none" stroke="#63b8ff" d="M469.8,-274.98C488.62,-266.46 517.82,-253.23 539.5,-243.41"/>
<polygon fill="#63b8ff" stroke="#63b8ff" points="541.2,-246.48 548.86,-239.17 538.31,-240.11 541.2,-246.48"/>
</a>
</g>
</g>
<!-- Node11 -->
<g id="Node000011" class="node">
<title>Node11</title>
<g id="a_Node000011"><a xlink:title=" ">
<polygon fill="#e0e0e0" stroke="#999999" points="656,-239 606,-239 606,-220 656,-220 656,-239"/>
<text text-anchor="middle" x="631" y="-227" font-family="Helvetica,sans-Serif" font-size="10.00">ranges</text>
</a>
</g>
</g>
<!-- Node4&#45;&gt;Node11 -->
<g id="edge10_Node000004_Node000011" class="edge">
<title>Node4&#45;&gt;Node11</title>
<g id="a_edge10_Node000004_Node000011"><a xlink:title=" ">
<path fill="none" stroke="#63b8ff" d="M479.92,-274.98C511.53,-265.68 562.18,-250.76 596.01,-240.8"/>
<polygon fill="#63b8ff" stroke="#63b8ff" points="597.32,-244.07 605.93,-237.88 595.34,-237.35 597.32,-244.07"/>
</a>
</g>
</g>
<!-- Node12 -->
<g id="Node000012" class="node">
<title>Node12</title>
<g id="a_Node000012"><a xlink:title=" ">
<polygon fill="#e0e0e0" stroke="#999999" points="455.5,-74 410.5,-74 410.5,-55 455.5,-55 455.5,-74"/>
<text text-anchor="middle" x="433" y="-62" font-family="Helvetica,sans-Serif" font-size="10.00">utility</text>
</a>
</g>
</g>
<!-- Node4&#45;&gt;Node12 -->
<g id="edge13_Node000004_Node000012" class="edge">
<title>Node4&#45;&gt;Node12</title>
<g id="a_edge13_Node000004_Node000012"><a xlink:title=" ">
<path fill="none" stroke="#63b8ff" d="M486.59,-281.38C541.51,-277.28 642.91,-266.16 665,-239 697.52,-199.02 529.32,-111.88 460.91,-78.69"/>
<polygon fill="#63b8ff" stroke="#63b8ff" points="462.1,-75.38 451.57,-74.2 459.06,-81.69 462.1,-75.38"/>
</a>
</g>
</g>
<!-- Node4&#45;&gt;Node13 -->
<g id="edge14_Node000004_Node000013" class="edge">
<title>Node4&#45;&gt;Node13</title>
<g id="a_edge14_Node000004_Node000013"><a xlink:title=" ">
<path fill="none" stroke="#63b8ff" d="M486.64,-277.38C534.7,-269.06 622.93,-253.54 698,-239 699.28,-238.75 700.59,-238.5 701.91,-238.23"/>
<polygon fill="#63b8ff" stroke="#63b8ff" points="703,-241.59 712.11,-236.18 701.62,-234.72 703,-241.59"/>
</a>
</g>
</g>
<!-- Node30 -->
<g id="Node000030" class="node">
<title>Node30</title>
<g id="a_Node000030"><a xlink:href="utf8_8h.html" target="_top" xlink:title=" ">
<polygon fill="white" stroke="#666666" points="370,-239 312,-239 312,-220 370,-220 370,-239"/>
<text text-anchor="middle" x="341" y="-227" font-family="Helvetica,sans-Serif" font-size="10.00">fe/utf8.h</text>
</a>
</g>
</g>
<!-- Node4&#45;&gt;Node30 -->
<g id="edge34_Node000004_Node000030" class="edge">
<title>Node4&#45;&gt;Node30</title>
<g id="a_edge34_Node000004_Node000030"><a xlink:title=" ">
<path fill="none" stroke="#63b8ff" d="M433.33,-274.98C415.71,-266.5 388.42,-253.35 368.07,-243.54"/>
<polygon fill="#63b8ff" stroke="#63b8ff" points="369.52,-240.36 358.99,-239.17 366.48,-246.66 369.52,-240.36"/>
</a>
</g>
</g>
<!-- Node14 -->
<g id="Node000014" class="node">
<title>Node14</title>
<g id="a_Node000014"><a xlink:title=" ">
<polygon fill="#e0e0e0" stroke="#999999" points="773,-184 705,-184 705,-165 773,-165 773,-184"/>
<text text-anchor="middle" x="739" y="-172" font-family="Helvetica,sans-Serif" font-size="10.00">filesystem</text>
</a>
</g>
</g>
<!-- Node13&#45;&gt;Node14 -->
<g id="edge15_Node000013_Node000014" class="edge">
<title>Node13&#45;&gt;Node14</title>
<g id="a_edge15_Node000013_Node000014"><a xlink:title=" ">
<path fill="none" stroke="#63b8ff" d="M739,-219.75C739,-212.8 739,-202.85 739,-194.13"/>
<polygon fill="#63b8ff" stroke="#63b8ff" points="742.5,-194.09 739,-184.09 735.5,-194.09 742.5,-194.09"/>
</a>
</g>
</g>
<!-- Node13&#45;&gt;Node15 -->
<g id="edge16_Node000013_Node000015" class="edge">
<title>Node13&#45;&gt;Node15</title>
<g id="a_edge16_Node000013_Node000015"><a xlink:title=" ">
<path fill="none" stroke="#63b8ff" d="M756.51,-219.98C773.97,-211.5 801.01,-198.35 821.17,-188.54"/>
<polygon fill="#63b8ff" stroke="#63b8ff" points="822.71,-191.69 830.17,-184.17 819.64,-185.4 822.71,-191.69"/>
</a>
</g>
</g>
<!-- Node15&#45;&gt;Node8 -->
<g id="edge20_Node000015_Node000008" class="edge">
<title>Node15&#45;&gt;Node8</title>
<g id="a_edge20_Node000015_Node000008"><a xlink:title=" ">
<path fill="none" stroke="#63b8ff" d="M818.47,-165.22C786.3,-156.2 734.66,-141.72 698.9,-131.69"/>
<polygon fill="#63b8ff" stroke="#63b8ff" points="699.83,-128.32 689.26,-128.99 697.94,-135.06 699.83,-128.32"/>
</a>
</g>
</g>
<!-- Node16 -->
<g id="Node000016" class="node">
<title>Node16</title>
<g id="a_Node000016"><a xlink:title=" ">
<polygon fill="#e0e0e0" stroke="#999999" points="684,-19 632,-19 632,0 684,0 684,-19"/>
<text text-anchor="middle" x="658" y="-7" font-family="Helvetica,sans-Serif" font-size="10.00">cassert</text>
</a>
</g>
</g>
<!-- Node15&#45;&gt;Node16 -->
<g id="edge17_Node000015_Node000016" class="edge">
<title>Node15&#45;&gt;Node16</title>
<g id="a_edge17_Node000015_Node000016"><a xlink:title=" ">
<path fill="none" stroke="#63b8ff" d="M842.4,-164.84C834.72,-151.75 823.15,-126.7 835,-110 865.04,-67.68 971.69,-94.47 938,-55 907.14,-18.84 763.43,-11.91 694.75,-10.69"/>
<polygon fill="#63b8ff" stroke="#63b8ff" points="694.45,-7.19 684.4,-10.54 694.34,-14.19 694.45,-7.19"/>
</a>
</g>
</g>
<!-- Node17 -->
<g id="Node000017" class="node">
<title>Node17</title>
<g id="a_Node000017"><a xlink:title=" ">
<polygon fill="#e0e0e0" stroke="#999999" points="894,-129 844,-129 844,-110 894,-110 894,-129"/>
<text text-anchor="middle" x="869" y="-117" font-family="Helvetica,sans-Serif" font-size="10.00">cstring</text>
</a>
</g>
</g>
<!-- Node15&#45;&gt;Node17 -->
<g id="edge18_Node000015_Node000017" class="edge">
<title>Node15&#45;&gt;Node17</title>
<g id="a_edge18_Node000015_Node000017"><a xlink:title=" ">
<path fill="none" stroke="#63b8ff" d="M851.47,-164.75C854.28,-157.65 858.34,-147.4 861.85,-138.56"/>
<polygon fill="#63b8ff" stroke="#63b8ff" points="865.17,-139.68 865.6,-129.09 858.66,-137.1 865.17,-139.68"/>
</a>
</g>
</g>
<!-- Node18 -->
<g id="Node000018" class="node">
<title>Node18</title>
<g id="a_Node000018"><a xlink:title=" ">
<polygon fill="#e0e0e0" stroke="#999999" points="941.5,-129 912.5,-129 912.5,-110 941.5,-110 941.5,-129"/>
<text text-anchor="middle" x="927" y="-117" font-family="Helvetica,sans-Serif" font-size="10.00">bit</text>
</a>
</g>
</g>
<!-- Node15&#45;&gt;Node18 -->
<g id="edge19_Node000015_Node000018" class="edge">
<title>Node15&#45;&gt;Node18</title>
<g id="a_edge19_Node000015_Node000018"><a xlink:title=" ">
<path fill="none" stroke="#63b8ff" d="M860.69,-164.98C872.83,-156.84 891.36,-144.41 905.75,-134.76"/>
<polygon fill="#63b8ff" stroke="#63b8ff" points="907.72,-137.65 914.08,-129.17 903.82,-131.84 907.72,-137.65"/>
</a>
</g>
</g>
<!-- Node19 -->
<g id="Node000019" class="node">
<title>Node19</title>
<g id="a_Node000019"><a xlink:title=" ">
<polygon fill="#e0e0e0" stroke="#999999" points="1004,-129 960,-129 960,-110 1004,-110 1004,-129"/>
<text text-anchor="middle" x="982" y="-117" font-family="Helvetica,sans-Serif" font-size="10.00">string</text>
</a>
</g>
</g>
<!-- Node15&#45;&gt;Node19 -->
<g id="edge21_Node000015_Node000019" class="edge">
<title>Node15&#45;&gt;Node19</title>
<g id="a_edge21_Node000015_Node000019"><a xlink:title=" ">
<path fill="none" stroke="#63b8ff" d="M869.53,-164.98C891.47,-156.3 925.74,-142.75 950.69,-132.88"/>
<polygon fill="#63b8ff" stroke="#63b8ff" points="952.07,-136.1 960.08,-129.17 949.49,-129.59 952.07,-136.1"/>
</a>
</g>
</g>
<!-- Node20 -->
<g id="Node000020" class="node">
<title>Node20</title>
<g id="a_Node000020"><a xlink:title=" ">
<polygon fill="#e0e0e0" stroke="#999999" points="1115.5,-129 1022.5,-129 1022.5,-110 1115.5,-110 1115.5,-129"/>
<text text-anchor="middle" x="1069" y="-117" font-family="Helvetica,sans-Serif" font-size="10.00">unordered_map</text>
</a>
</g>
</g>
<!-- Node15&#45;&gt;Node20 -->
<g id="edge22_Node000015_Node000020" class="edge">
<title>Node15&#45;&gt;Node20</title>
<g id="a_edge22_Node000015_Node000020"><a xlink:title=" ">
<path fill="none" stroke="#63b8ff" d="M877.81,-166.35C915.3,-157.36 980.04,-141.83 1023.68,-131.37"/>
<polygon fill="#63b8ff" stroke="#63b8ff" points="1024.56,-134.76 1033.47,-129.02 1022.93,-127.95 1024.56,-134.76"/>
</a>
</g>
</g>
<!-- Node21 -->
<g id="Node000021" class="node">
<title>Node21</title>
<g id="a_Node000021"><a xlink:title=" ">
<polygon fill="#e0e0e0" stroke="#999999" points="1220,-129 1134,-129 1134,-110 1220,-110 1220,-129"/>
<text text-anchor="middle" x="1177" y="-117" font-family="Helvetica,sans-Serif" font-size="10.00">unordered_set</text>
</a>
</g>
</g>
<!-- Node15&#45;&gt;Node21 -->
<g id="edge23_Node000015_Node000021" class="edge">
<title>Node15&#45;&gt;Node21</title>
<g id="a_edge23_Node000015_Node000021"><a xlink:title=" ">
<path fill="none" stroke="#63b8ff" d="M877.78,-168.7C933.48,-159.73 1054.13,-140.29 1124.02,-129.03"/>
<polygon fill="#63b8ff" stroke="#63b8ff" points="1124.63,-132.48 1133.95,-127.44 1123.52,-125.57 1124.63,-132.48"/>
</a>
</g>
</g>
<!-- Node22 -->
<g id="Node000022" class="node">
<title>Node22</title>
<g id="a_Node000022"><a xlink:href="arena_8h.html" target="_top" xlink:title=" ">
<polygon fill="white" stroke="#666666" points="773,-129 707,-129 707,-110 773,-110 773,-129"/>
<text text-anchor="middle" x="740" y="-117" font-family="Helvetica,sans-Serif" font-size="10.00">fe/arena.h</text>
</a>
</g>
</g>
<!-- Node15&#45;&gt;Node22 -->
<g id="edge24_Node000015_Node000022" class="edge">
<title>Node15&#45;&gt;Node22</title>
<g id="a_edge24_Node000015_Node000022"><a xlink:title=" ">
<path fill="none" stroke="#63b8ff" d="M830.65,-164.98C813.43,-156.54 786.8,-143.47 766.85,-133.68"/>
<polygon fill="#63b8ff" stroke="#63b8ff" points="768.19,-130.43 757.67,-129.17 765.1,-136.72 768.19,-130.43"/>
</a>
</g>
</g>
<!-- Node22&#45;&gt;Node12 -->
<g id="edge31_Node000022_Node000012" class="edge">
<title>Node22&#45;&gt;Node12</title>
<g id="a_edge31_Node000022_Node000012"><a xlink:title=" ">
<path fill="none" stroke="#63b8ff" d="M706.56,-111.58C703.67,-111.03 700.78,-110.5 698,-110 597.54,-92.12 568.64,-95.7 465.5,-74.12"/>
<polygon fill="#63b8ff" stroke="#63b8ff" points="466.12,-70.67 455.61,-72.02 464.67,-77.52 466.12,-70.67"/>
</a>
</g>
</g>
<!-- Node23 -->
<g id="Node000023" class="node">
<title>Node23</title>
<g id="a_Node000023"><a xlink:title=" ">
<polygon fill="#e0e0e0" stroke="#999999" points="625,-74 561,-74 561,-55 625,-55 625,-74"/>
<text text-anchor="middle" x="593" y="-62" font-family="Helvetica,sans-Serif" font-size="10.00">algorithm</text>
</a>
</g>
</g>
<!-- Node22&#45;&gt;Node23 -->
<g id="edge25_Node000022_Node000023" class="edge">
<title>Node22&#45;&gt;Node23</title>
<g id="a_edge25_Node000022_Node000023"><a xlink:title=" ">
<path fill="none" stroke="#63b8ff" d="M716.38,-109.98C692.1,-101.23 654.05,-87.51 626.63,-77.62"/>
<polygon fill="#63b8ff" stroke="#63b8ff" points="627.64,-74.27 617.05,-74.17 625.27,-80.85 627.64,-74.27"/>
</a>
</g>
</g>
<!-- Node24 -->
<g id="Node000024" class="node">
<title>Node24</title>
<g id="a_Node000024"><a xlink:title=" ">
<polygon fill="#e0e0e0" stroke="#999999" points="675,-74 643,-74 643,-55 675,-55 675,-74"/>
<text text-anchor="middle" x="659" y="-62" font-family="Helvetica,sans-Serif" font-size="10.00">list</text>
</a>
</g>
</g>
<!-- Node22&#45;&gt;Node24 -->
<g id="edge26_Node000022_Node000024" class="edge">
<title>Node22&#45;&gt;Node24</title>
<g id="a_edge26_Node000022_Node000024"><a xlink:title=" ">
<path fill="none" stroke="#63b8ff" d="M726.99,-109.98C714.54,-101.84 695.54,-89.41 680.79,-79.76"/>
<polygon fill="#63b8ff" stroke="#63b8ff" points="682.54,-76.72 672.25,-74.17 678.7,-82.57 682.54,-76.72"/>
</a>
</g>
</g>
<!-- Node25 -->
<g id="Node000025" class="node">
<title>Node25</title>
<g id="a_Node000025"><a xlink:title=" ">
<polygon fill="#e0e0e0" stroke="#999999" points="751,-74 693,-74 693,-55 751,-55 751,-74"/>
<text text-anchor="middle" x="722" y="-62" font-family="Helvetica,sans-Serif" font-size="10.00">memory</text>
</a>
</g>
</g>
<!-- Node22&#45;&gt;Node25 -->
<g id="edge27_Node000022_Node000025" class="edge">
<title>Node22&#45;&gt;Node25</title>
<g id="a_edge27_Node000022_Node000025"><a xlink:title=" ">
<path fill="none" stroke="#63b8ff" d="M737.03,-109.75C734.64,-102.72 731.21,-92.62 728.23,-83.84"/>
<polygon fill="#63b8ff" stroke="#63b8ff" points="731.45,-82.43 724.92,-74.09 724.82,-84.68 731.45,-82.43"/>
</a>
</g>
</g>
<!-- Node26 -->
<g id="Node000026" class="node">
<title>Node26</title>
<g id="a_Node000026"><a xlink:title=" ">
<polygon fill="#e0e0e0" stroke="#999999" points="874.5,-74 769.5,-74 769.5,-55 874.5,-55 874.5,-74"/>
<text text-anchor="middle" x="822" y="-62" font-family="Helvetica,sans-Serif" font-size="10.00">memory_resource</text>
</a>
</g>
</g>
<!-- Node22&#45;&gt;Node26 -->
<g id="edge28_Node000022_Node000026" class="edge">
<title>Node22&#45;&gt;Node26</title>
<g id="a_edge28_Node000022_Node000026"><a xlink:title=" ">
<path fill="none" stroke="#63b8ff" d="M753.17,-109.98C765.77,-101.84 785,-89.41 799.94,-79.76"/>
<polygon fill="#63b8ff" stroke="#63b8ff" points="802.09,-82.54 808.59,-74.17 798.29,-76.66 802.09,-82.54"/>
</a>
</g>
</g>
<!-- Node27 -->
<g id="Node000027" class="node">
<title>Node27</title>
<g id="a_Node000027"><a xlink:title=" ">
<polygon fill="#e0e0e0" stroke="#999999" points="929.5,-74 892.5,-74 892.5,-55 929.5,-55 929.5,-74"/>
<text text-anchor="middle" x="911" y="-62" font-family="Helvetica,sans-Serif" font-size="10.00">new</text>
</a>
</g>
</g>
<!-- Node22&#45;&gt;Node27 -->
<g id="edge29_Node000022_Node000027" class="edge">
<title>Node22&#45;&gt;Node27</title>
<g id="a_edge29_Node000022_Node000027"><a xlink:title=" ">
<path fill="none" stroke="#63b8ff" d="M767.47,-109.98C798.99,-100.22 850.44,-84.27 882.42,-74.36"/>
<polygon fill="#63b8ff" stroke="#63b8ff" points="883.55,-77.67 892.06,-71.37 881.48,-70.99 883.55,-77.67"/>
</a>
</g>
</g>
<!-- Node28 -->
<g id="Node000028" class="node">
<title>Node28</title>
<g id="a_Node000028"><a xlink:title=" ">
<polygon fill="#e0e0e0" stroke="#999999" points="542.5,-74 473.5,-74 473.5,-55 542.5,-55 542.5,-74"/>
<text text-anchor="middle" x="508" y="-62" font-family="Helvetica,sans-Serif" font-size="10.00">type_traits</text>
</a>
</g>
</g>
<!-- Node22&#45;&gt;Node28 -->
<g id="edge30_Node000022_Node000028" class="edge">
<title>Node22&#45;&gt;Node28</title>
<g id="a_edge30_Node000022_Node000028"><a xlink:title=" ">
<path fill="none" stroke="#63b8ff" d="M706.76,-110.91C666.22,-101.65 597.55,-85.96 552.49,-75.66"/>
<polygon fill="#63b8ff" stroke="#63b8ff" points="553.22,-72.24 542.69,-73.43 551.66,-79.06 553.22,-72.24"/>
</a>
</g>
</g>
<!-- Node29 -->
<g id="Node000029" class="node">
<title>Node29</title>
<g id="a_Node000029"><a xlink:href="assert_8h.html" target="_top" xlink:title=" ">
<polygon fill="white" stroke="#666666" points="392,-74 324,-74 324,-55 392,-55 392,-74"/>
<text text-anchor="middle" x="358" y="-62" font-family="Helvetica,sans-Serif" font-size="10.00">fe/assert.h</text>
</a>
</g>
</g>
<!-- Node22&#45;&gt;Node29 -->
<g id="edge32_Node000022_Node000029" class="edge">
<title>Node22&#45;&gt;Node29</title>
<g id="a_edge32_Node000022_Node000029"><a xlink:title=" ">
<path fill="none" stroke="#63b8ff" d="M706.57,-111.49C703.68,-110.96 700.79,-110.45 698,-110 569.94,-89.31 534.05,-94.62 402.3,-74.1"/>
<polygon fill="#63b8ff" stroke="#63b8ff" points="402.65,-70.61 392.23,-72.5 401.56,-77.52 402.65,-70.61"/>
</a>
</g>
</g>
<!-- Node29&#45;&gt;Node16 -->
<g id="edge33_Node000029_Node000016" class="edge">
<title>Node29&#45;&gt;Node16</title>
<g id="a_edge33_Node000029_Node000016"><a xlink:title=" ">
<path fill="none" stroke="#63b8ff" d="M392.25,-56.65C395.21,-56.09 398.16,-55.53 401,-55 479.56,-40.44 571.92,-24.81 621.73,-16.5"/>
<polygon fill="#63b8ff" stroke="#63b8ff" points="622.41,-19.94 631.7,-14.84 621.26,-13.03 622.41,-19.94"/>
</a>
</g>
</g>
<!-- Node30&#45;&gt;Node9 -->
<g id="edge37_Node000030_Node000009" class="edge">
<title>Node30&#45;&gt;Node9</title>
<g id="a_edge37_Node000030_Node000009"><a xlink:title=" ">
<path fill="none" stroke="#63b8ff" d="M360.6,-219.98C380.32,-211.42 410.95,-198.11 433.58,-188.28"/>
<polygon fill="#63b8ff" stroke="#63b8ff" points="435.26,-191.37 443.04,-184.17 432.48,-184.94 435.26,-191.37"/>
</a>
</g>
</g>
<!-- Node30&#45;&gt;Node29 -->
<g id="edge38_Node000030_Node000029" class="edge">
<title>Node30&#45;&gt;Node29</title>
<g id="a_edge38_Node000030_Node000029"><a xlink:title=" ">
<path fill="none" stroke="#63b8ff" d="M341.91,-219.74C344.57,-194.31 352.31,-120.08 356,-84.69"/>
<polygon fill="#63b8ff" stroke="#63b8ff" points="359.53,-84.62 357.08,-74.31 352.56,-83.89 359.53,-84.62"/>
</a>
</g>
</g>
<!-- Node31 -->
<g id="Node000031" class="node">
<title>Node31</title>
<g id="a_Node000031"><a xlink:title=" ">
<polygon fill="#e0e0e0" stroke="#999999" points="416.5,-184 367.5,-184 367.5,-165 416.5,-165 416.5,-184"/>
<text text-anchor="middle" x="392" y="-172" font-family="Helvetica,sans-Serif" font-size="10.00">cctype</text>
</a>
</g>
</g>
<!-- Node30&#45;&gt;Node31 -->
<g id="edge35_Node000030_Node000031" class="edge">
<title>Node30&#45;&gt;Node31</title>
<g id="a_edge35_Node000030_Node000031"><a xlink:title=" ">
<path fill="none" stroke="#63b8ff" d="M349.42,-219.75C356.77,-212.11 367.63,-200.82 376.54,-191.56"/>
<polygon fill="#63b8ff" stroke="#63b8ff" points="379.32,-193.72 383.74,-184.09 374.28,-188.87 379.32,-193.72"/>
</a>
</g>
</g>
<!-- Node32 -->
<g id="Node000032" class="node">
<title>Node32</title>
<g id="a_Node000032"><a xlink:title=" ">
<polygon fill="#e0e0e0" stroke="#999999" points="311,-184 257,-184 257,-165 311,-165 311,-184"/>
<text text-anchor="middle" x="284" y="-172" font-family="Helvetica,sans-Serif" font-size="10.00">istream</text>
</a>
</g>
</g>
<!-- Node30&#45;&gt;Node32 -->
<g id="edge36_Node000030_Node000032" class="edge">
<title>Node30&#45;&gt;Node32</title>
<g id="a_edge36_Node000030_Node000032"><a xlink:title=" ">
<path fill="none" stroke="#63b8ff" d="M331.84,-219.98C323.5,-212.23 310.97,-200.58 300.82,-191.14"/>
<polygon fill="#63b8ff" stroke="#63b8ff" points="303.03,-188.42 293.32,-184.17 298.26,-193.54 303.03,-188.42"/>
</a>
</g>
</g>
</g>
</svg>
