<?xml version="1.0" encoding="UTF-8" standalone="no"?>
<!DOCTYPE svg PUBLIC "-//W3C//DTD SVG 1.1//EN"
 "http://www.w3.org/Graphics/SVG/1.1/DTD/svg11.dtd">
<!-- Generated by graphviz version 2.43.0 (0)
 -->
<!-- Title: fe/format.h Pages: 1 -->
<svg width="1010pt" height="302pt"
 viewBox="0.00 0.00 1010.00 302.00" xmlns="http://www.w3.org/2000/svg" xmlns:xlink="http://www.w3.org/1999/xlink">
<g id="graph0" class="graph" transform="scale(1 1) rotate(0) translate(4 298)">
<title>fe/format.h</title>
<!-- Node1 -->
<g id="Node000001" class="node">
<title>Node1</title>
<g id="a_Node000001"><a xlink:title=" ">
<polygon fill="#999999" stroke="#666666" points="446.5,-294 375.5,-294 375.5,-275 446.5,-275 446.5,-294"/>
<text text-anchor="middle" x="411" y="-282" font-family="Helvetica,sans-Serif" font-size="10.00">fe/format.h</text>
</a>
</g>
</g>
<!-- Node2 -->
<g id="Node000002" class="node">
<title>Node2</title>
<g id="a_Node000002"><a xlink:title=" ">
<polygon fill="#e0e0e0" stroke="#999999" points="60,-239 0,-239 0,-220 60,-220 60,-239"/>
<text text-anchor="middle" x="30" y="-227" font-family="Helvetica,sans-Serif" font-size="10.00">concepts</text>
</a>
</g>
</g>
<!-- Node1&#45;&gt;Node2 -->
<g id="edge1_Node000001_Node000002" class="edge">
<title>Node1&#45;&gt;Node2</title>
<g id="a_edge1_Node000001_Node000002"><a xlink:title=" ">
<path fill="none" stroke="#63b8ff" d="M375.4,-279.88C314.77,-273.49 187.41,-259.13 70.06,-239.05"/>
<polygon fill="#63b8ff" stroke="#63b8ff" points="70.63,-235.6 60.18,-237.34 69.44,-242.5 70.63,-235.6"/>
</a>
</g>
</g>
<!-- Node3 -->
<g id="Node000003" class="node">
<title>Node3</title>
<g id="a_Node000003"><a xlink:title=" ">
<polygon fill="#e0e0e0" stroke="#999999" points="128,-239 78,-239 78,-220 128,-220 128,-239"/>
<text text-anchor="middle" x="103" y="-227" font-family="Helvetica,sans-Serif" font-size="10.00">format</text>
</a>
</g>
</g>
<!-- Node1&#45;&gt;Node3 -->
<g id="edge2_Node000001_Node000003" class="edge">
<title>Node1&#45;&gt;Node3</title>
<g id="a_edge2_Node000001_Node000003"><a xlink:title=" ">
<path fill="none" stroke="#63b8ff" d="M375.36,-278.69C324.75,-271.64 229,-257.53 138.11,-239.08"/>
<polygon fill="#63b8ff" stroke="#63b8ff" points="138.7,-235.63 128.2,-237.05 137.29,-242.49 138.7,-235.63"/>
</a>
</g>
</g>
<!-- Node4 -->
<g id="Node000004" class="node">
<title>Node4</title>
<g id="a_Node000004"><a xlink:title=" ">
<polygon fill="#e0e0e0" stroke="#999999" points="211.5,-239 146.5,-239 146.5,-220 211.5,-220 211.5,-239"/>
<text text-anchor="middle" x="179" y="-227" font-family="Helvetica,sans-Serif" font-size="10.00">functional</text>
</a>
</g>
</g>
<!-- Node1&#45;&gt;Node4 -->
<g id="edge3_Node000001_Node000004" class="edge">
<title>Node1&#45;&gt;Node4</title>
<g id="a_edge3_Node000001_Node000004"><a xlink:title=" ">
<path fill="none" stroke="#63b8ff" d="M375.26,-275.33C333.87,-265.88 265.74,-250.32 221.63,-240.24"/>
<polygon fill="#63b8ff" stroke="#63b8ff" points="222.31,-236.8 211.78,-237.99 220.75,-243.63 222.31,-236.8"/>
</a>
</g>
</g>
<!-- Node5 -->
<g id="Node000005" class="node">
<title>Node5</title>
<g id="a_Node000005"><a xlink:title=" ">
<polygon fill="#e0e0e0" stroke="#999999" points="308,-129 248,-129 248,-110 308,-110 308,-129"/>
<text text-anchor="middle" x="278" y="-117" font-family="Helvetica,sans-Serif" font-size="10.00">iostream</text>
</a>
</g>
</g>
<!-- Node1&#45;&gt;Node5 -->
<g id="edge4_Node000001_Node000005" class="edge">
<title>Node1&#45;&gt;Node5</title>
<g id="a_edge4_Node000001_Node000005"><a xlink:title=" ">
<path fill="none" stroke="#63b8ff" d="M395.63,-274.93C382.19,-266.9 362.73,-253.91 349,-239 320.15,-207.66 297.15,-162.76 285.78,-138.21"/>
<polygon fill="#63b8ff" stroke="#63b8ff" points="288.94,-136.7 281.63,-129.03 282.56,-139.58 288.94,-136.7"/>
</a>
</g>
</g>
<!-- Node6 -->
<g id="Node000006" class="node">
<title>Node6</title>
<g id="a_Node000006"><a xlink:title=" ">
<polygon fill="#e0e0e0" stroke="#999999" points="547.5,-184 490.5,-184 490.5,-165 547.5,-165 547.5,-184"/>
<text text-anchor="middle" x="519" y="-172" font-family="Helvetica,sans-Serif" font-size="10.00">ostream</text>
</a>
</g>
</g>
<!-- Node1&#45;&gt;Node6 -->
<g id="edge5_Node000001_Node000006" class="edge">
<title>Node1&#45;&gt;Node6</title>
<g id="a_edge5_Node000001_Node000006"><a xlink:title=" ">
<path fill="none" stroke="#63b8ff" d="M416.34,-274.63C424.36,-261.72 440.48,-237.4 458,-220 469.49,-208.59 484.09,-197.83 496.13,-189.75"/>
<polygon fill="#63b8ff" stroke="#63b8ff" points="498.28,-192.53 504.74,-184.13 494.45,-186.67 498.28,-192.53"/>
</a>
</g>
</g>
<!-- Node7 -->
<g id="Node000007" class="node">
<title>Node7</title>
<g id="a_Node000007"><a xlink:title=" ">
<polygon fill="#e0e0e0" stroke="#999999" points="582.5,-239 543.5,-239 543.5,-220 582.5,-220 582.5,-239"/>
<text text-anchor="middle" x="563" y="-227" font-family="Helvetica,sans-Serif" font-size="10.00">print</text>
</a>
</g>
</g>
<!-- Node1&#45;&gt;Node7 -->
<g id="edge6_Node000001_Node000007" class="edge">
<title>Node1&#45;&gt;Node7</title>
<g id="a_edge6_Node000001_Node000007"><a xlink:title=" ">
<path fill="none" stroke="#63b8ff" d="M435.42,-274.98C462.3,-265.61 505.46,-250.56 534.03,-240.6"/>
<polygon fill="#63b8ff" stroke="#63b8ff" points="535.18,-243.91 543.47,-237.31 532.88,-237.3 535.18,-243.91"/>
</a>
</g>
</g>
<!-- Node8 -->
<g id="Node000008" class="node">
<title>Node8</title>
<g id="a_Node000008"><a xlink:title=" ">
<polygon fill="#e0e0e0" stroke="#999999" points="651,-239 601,-239 601,-220 651,-220 651,-239"/>
<text text-anchor="middle" x="626" y="-227" font-family="Helvetica,sans-Serif" font-size="10.00">ranges</text>
</a>
</g>
</g>
<!-- Node1&#45;&gt;Node8 -->
<g id="edge7_Node000001_Node000008" class="edge">
<title>Node1&#45;&gt;Node8</title>
<g id="a_edge7_Node000001_Node000008"><a xlink:title=" ">
<path fill="none" stroke="#63b8ff" d="M446.05,-274.93C480.52,-266.48 534.92,-253.14 591,-239.24"/>
<polygon fill="#63b8ff" stroke="#63b8ff" points="591.89,-242.63 600.75,-236.82 590.2,-235.83 591.89,-242.63"/>
</a>
</g>
</g>
<!-- Node9 -->
<g id="Node000009" class="node">
<title>Node9</title>
<g id="a_Node000009"><a xlink:title=" ">
<polygon fill="#e0e0e0" stroke="#999999" points="725,-239 669,-239 669,-220 725,-220 725,-239"/>
<text text-anchor="middle" x="697" y="-227" font-family="Helvetica,sans-Serif" font-size="10.00">sstream</text>
</a>
</g>
</g>
<!-- Node1&#45;&gt;Node9 -->
<g id="edge8_Node000001_Node000009" class="edge">
<title>Node1&#45;&gt;Node9</title>
<g id="a_edge8_Node000001_Node000009"><a xlink:title=" ">
<path fill="none" stroke="#63b8ff" d="M446.57,-277.71C493.09,-270.01 577.36,-255.64 658.83,-239.16"/>
<polygon fill="#63b8ff" stroke="#63b8ff" points="659.65,-242.56 668.75,-237.14 658.25,-235.71 659.65,-242.56"/>
</a>
</g>
</g>
<!-- Node10 -->
<g id="Node000010" class="node">
<title>Node10</title>
<g id="a_Node000010"><a xlink:title=" ">
<polygon fill="#e0e0e0" stroke="#999999" points="816.5,-239 743.5,-239 743.5,-220 816.5,-220 816.5,-239"/>
<text text-anchor="middle" x="780" y="-227" font-family="Helvetica,sans-Serif" font-size="10.00">string_view</text>
</a>
</g>
</g>
<!-- Node1&#45;&gt;Node10 -->
<g id="edge9_Node000001_Node000010" class="edge">
<title>Node1&#45;&gt;Node10</title>
<g id="a_edge9_Node000001_Node000010"><a xlink:title=" ">
<path fill="none" stroke="#63b8ff" d="M446.93,-279.1C504.9,-271.87 622.88,-256.68 733.38,-239.03"/>
<polygon fill="#63b8ff" stroke="#63b8ff" points="734.05,-242.47 743.37,-237.43 732.94,-235.56 734.05,-242.47"/>
</a>
</g>
</g>
<!-- Node11 -->
<g id="Node000011" class="node">
<title>Node11</title>
<g id="a_Node000011"><a xlink:title=" ">
<polygon fill="#e0e0e0" stroke="#999999" points="277.5,-74 232.5,-74 232.5,-55 277.5,-55 277.5,-74"/>
<text text-anchor="middle" x="255" y="-62" font-family="Helvetica,sans-Serif" font-size="10.00">utility</text>
</a>
</g>
</g>
<!-- Node1&#45;&gt;Node11 -->
<g id="edge10_Node000001_Node000011" class="edge">
<title>Node1&#45;&gt;Node11</title>
<g id="a_edge10_Node000001_Node000011"><a xlink:title=" ">
<path fill="none" stroke="#63b8ff" d="M390.1,-274.9C372.66,-267.1 347.72,-254.49 329,-239 280.33,-198.74 260.24,-188.49 239,-129 233.63,-113.96 238.97,-96.31 244.88,-83.44"/>
<polygon fill="#63b8ff" stroke="#63b8ff" points="248.13,-84.78 249.55,-74.28 241.89,-81.6 248.13,-84.78"/>
</a>
</g>
</g>
<!-- Node12 -->
<g id="Node000012" class="node">
<title>Node12</title>
<g id="a_Node000012"><a xlink:href="loc_8h.html" target="_top" xlink:title=" ">
<polygon fill="white" stroke="#666666" points="410.5,-239 357.5,-239 357.5,-220 410.5,-220 410.5,-239"/>
<text text-anchor="middle" x="384" y="-227" font-family="Helvetica,sans-Serif" font-size="10.00">fe/loc.h</text>
</a>
</g>
</g>
<!-- Node1&#45;&gt;Node12 -->
<g id="edge11_Node000001_Node000012" class="edge">
<title>Node1&#45;&gt;Node12</title>
<g id="a_edge11_Node000001_Node000012"><a xlink:title=" ">
<path fill="none" stroke="#63b8ff" d="M406.54,-274.75C402.88,-267.57 397.59,-257.18 393.05,-248.27"/>
<polygon fill="#63b8ff" stroke="#63b8ff" points="396.03,-246.41 388.38,-239.09 389.8,-249.59 396.03,-246.41"/>
</a>
</g>
</g>
<!-- Node29 -->
<g id="Node000029" class="node">
<title>Node29</title>
<g id="a_Node000029"><a xlink:href="utf8_8h.html" target="_top" xlink:title=" ">
<polygon fill="white" stroke="#666666" points="525,-239 467,-239 467,-220 525,-220 525,-239"/>
<text text-anchor="middle" x="496" y="-227" font-family="Helvetica,sans-Serif" font-size="10.00">fe/utf8.h</text>
</a>
</g>
</g>
<!-- Node1&#45;&gt;Node29 -->
<g id="edge31_Node000001_Node000029" class="edge">
<title>Node1&#45;&gt;Node29</title>
<g id="a_edge31_Node000001_Node000029"><a xlink:title=" ">
<path fill="none" stroke="#63b8ff" d="M424.66,-274.98C437.84,-266.77 458.03,-254.18 473.57,-244.49"/>
<polygon fill="#63b8ff" stroke="#63b8ff" points="475.46,-247.43 482.09,-239.17 471.76,-241.49 475.46,-247.43"/>
</a>
</g>
</g>
<!-- Node13 -->
<g id="Node000013" class="node">
<title>Node13</title>
<g id="a_Node000013"><a xlink:title=" ">
<polygon fill="#e0e0e0" stroke="#999999" points="395,-184 327,-184 327,-165 395,-165 395,-184"/>
<text text-anchor="middle" x="361" y="-172" font-family="Helvetica,sans-Serif" font-size="10.00">filesystem</text>
</a>
</g>
</g>
<!-- Node12&#45;&gt;Node13 -->
<g id="edge12_Node000012_Node000013" class="edge">
<title>Node12&#45;&gt;Node13</title>
<g id="a_edge12_Node000012_Node000013"><a xlink:title=" ">
<path fill="none" stroke="#63b8ff" d="M380.2,-219.75C377.09,-212.57 372.58,-202.18 368.71,-193.27"/>
<polygon fill="#63b8ff" stroke="#63b8ff" points="371.92,-191.87 364.73,-184.09 365.5,-194.66 371.92,-191.87"/>
</a>
</g>
</g>
<!-- Node14 -->
<g id="Node000014" class="node">
<title>Node14</title>
<g id="a_Node000014"><a xlink:href="sym_8h.html" target="_top" xlink:title=" ">
<polygon fill="white" stroke="#666666" points="472.5,-184 413.5,-184 413.5,-165 472.5,-165 472.5,-184"/>
<text text-anchor="middle" x="443" y="-172" font-family="Helvetica,sans-Serif" font-size="10.00">fe/sym.h</text>
</a>
</g>
</g>
<!-- Node12&#45;&gt;Node14 -->
<g id="edge13_Node000012_Node000014" class="edge">
<title>Node12&#45;&gt;Node14</title>
<g id="a_edge13_Node000012_Node000014"><a xlink:title=" ">
<path fill="none" stroke="#63b8ff" d="M393.48,-219.98C402.2,-212.15 415.34,-200.34 425.9,-190.86"/>
<polygon fill="#63b8ff" stroke="#63b8ff" points="428.25,-193.46 433.35,-184.17 423.57,-188.25 428.25,-193.46"/>
</a>
</g>
</g>
<!-- Node14&#45;&gt;Node5 -->
<g id="edge17_Node000014_Node000005" class="edge">
<title>Node14&#45;&gt;Node5</title>
<g id="a_edge17_Node000014_Node000005"><a xlink:title=" ">
<path fill="none" stroke="#63b8ff" d="M416.49,-164.98C388.79,-156.09 345.14,-142.07 314.26,-132.15"/>
<polygon fill="#63b8ff" stroke="#63b8ff" points="315.31,-128.81 304.72,-129.08 313.17,-135.47 315.31,-128.81"/>
</a>
</g>
</g>
<!-- Node15 -->
<g id="Node000015" class="node">
<title>Node15</title>
<g id="a_Node000015"><a xlink:title=" ">
<polygon fill="#e0e0e0" stroke="#999999" points="871,-19 819,-19 819,0 871,0 871,-19"/>
<text text-anchor="middle" x="845" y="-7" font-family="Helvetica,sans-Serif" font-size="10.00">cassert</text>
</a>
</g>
</g>
<!-- Node14&#45;&gt;Node15 -->
<g id="edge14_Node000014_Node000015" class="edge">
<title>Node14&#45;&gt;Node15</title>
<g id="a_edge14_Node000014_Node000015"><a xlink:title=" ">
<path fill="none" stroke="#63b8ff" d="M472.75,-166.69C475.87,-166.08 478.99,-165.5 482,-165 551.07,-153.53 738.97,-170.98 795,-129 811.71,-116.48 830.69,-59 839.71,-28.94"/>
<polygon fill="#63b8ff" stroke="#63b8ff" points="843.1,-29.82 842.55,-19.24 836.38,-27.85 843.1,-29.82"/>
</a>
</g>
</g>
<!-- Node16 -->
<g id="Node000016" class="node">
<title>Node16</title>
<g id="a_Node000016"><a xlink:title=" ">
<polygon fill="#e0e0e0" stroke="#999999" points="376,-129 326,-129 326,-110 376,-110 376,-129"/>
<text text-anchor="middle" x="351" y="-117" font-family="Helvetica,sans-Serif" font-size="10.00">cstring</text>
</a>
</g>
</g>
<!-- Node14&#45;&gt;Node16 -->
<g id="edge15_Node000014_Node000016" class="edge">
<title>Node14&#45;&gt;Node16</title>
<g id="a_edge15_Node000014_Node000016"><a xlink:title=" ">
<path fill="none" stroke="#63b8ff" d="M428.22,-164.98C413.82,-156.69 391.69,-143.94 374.81,-134.22"/>
<polygon fill="#63b8ff" stroke="#63b8ff" points="376.46,-131.13 366.05,-129.17 372.97,-137.19 376.46,-131.13"/>
</a>
</g>
</g>
<!-- Node17 -->
<g id="Node000017" class="node">
<title>Node17</title>
<g id="a_Node000017"><a xlink:title=" ">
<polygon fill="#e0e0e0" stroke="#999999" points="423.5,-129 394.5,-129 394.5,-110 423.5,-110 423.5,-129"/>
<text text-anchor="middle" x="409" y="-117" font-family="Helvetica,sans-Serif" font-size="10.00">bit</text>
</a>
</g>
</g>
<!-- Node14&#45;&gt;Node17 -->
<g id="edge16_Node000014_Node000017" class="edge">
<title>Node14&#45;&gt;Node17</title>
<g id="a_edge16_Node000014_Node000017"><a xlink:title=" ">
<path fill="none" stroke="#63b8ff" d="M437.39,-164.75C432.68,-157.42 425.83,-146.73 420.03,-137.7"/>
<polygon fill="#63b8ff" stroke="#63b8ff" points="422.86,-135.62 414.51,-129.09 416.96,-139.4 422.86,-135.62"/>
</a>
</g>
</g>
<!-- Node18 -->
<g id="Node000018" class="node">
<title>Node18</title>
<g id="a_Node000018"><a xlink:title=" ">
<polygon fill="#e0e0e0" stroke="#999999" points="486,-129 442,-129 442,-110 486,-110 486,-129"/>
<text text-anchor="middle" x="464" y="-117" font-family="Helvetica,sans-Serif" font-size="10.00">string</text>
</a>
</g>
</g>
<!-- Node14&#45;&gt;Node18 -->
<g id="edge18_Node000014_Node000018" class="edge">
<title>Node14&#45;&gt;Node18</title>
<g id="a_edge18_Node000014_Node000018"><a xlink:title=" ">
<path fill="none" stroke="#63b8ff" d="M446.47,-164.75C449.28,-157.65 453.34,-147.4 456.85,-138.56"/>
<polygon fill="#63b8ff" stroke="#63b8ff" points="460.17,-139.68 460.6,-129.09 453.66,-137.1 460.17,-139.68"/>
</a>
</g>
</g>
<!-- Node19 -->
<g id="Node000019" class="node">
<title>Node19</title>
<g id="a_Node000019"><a xlink:title=" ">
<polygon fill="#e0e0e0" stroke="#999999" points="597.5,-129 504.5,-129 504.5,-110 597.5,-110 597.5,-129"/>
<text text-anchor="middle" x="551" y="-117" font-family="Helvetica,sans-Serif" font-size="10.00">unordered_map</text>
</a>
</g>
</g>
<!-- Node14&#45;&gt;Node19 -->
<g id="edge19_Node000014_Node000019" class="edge">
<title>Node14&#45;&gt;Node19</title>
<g id="a_edge19_Node000014_Node000019"><a xlink:title=" ">
<path fill="none" stroke="#63b8ff" d="M460.35,-164.98C477.57,-156.54 504.2,-143.47 524.15,-133.68"/>
<polygon fill="#63b8ff" stroke="#63b8ff" points="525.9,-136.72 533.33,-129.17 522.81,-130.43 525.9,-136.72"/>
</a>
</g>
</g>
<!-- Node20 -->
<g id="Node000020" class="node">
<title>Node20</title>
<g id="a_Node000020"><a xlink:title=" ">
<polygon fill="#e0e0e0" stroke="#999999" points="702,-129 616,-129 616,-110 702,-110 702,-129"/>
<text text-anchor="middle" x="659" y="-117" font-family="Helvetica,sans-Serif" font-size="10.00">unordered_set</text>
</a>
</g>
</g>
<!-- Node14&#45;&gt;Node20 -->
<g id="edge20_Node000014_Node000020" class="edge">
<title>Node14&#45;&gt;Node20</title>
<g id="a_edge20_Node000014_Node000020"><a xlink:title=" ">
<path fill="none" stroke="#63b8ff" d="M472.58,-166.24C509.16,-157.27 571.79,-141.9 614.26,-131.48"/>
<polygon fill="#63b8ff" stroke="#63b8ff" points="615.18,-134.86 624.06,-129.07 613.52,-128.06 615.18,-134.86"/>
</a>
</g>
</g>
<!-- Node21 -->
<g id="Node000021" class="node">
<title>Node21</title>
<g id="a_Node000021"><a xlink:href="arena_8h.html" target="_top" xlink:title=" ">
<polygon fill="white" stroke="#666666" points="786,-129 720,-129 720,-110 786,-110 786,-129"/>
<text text-anchor="middle" x="753" y="-117" font-family="Helvetica,sans-Serif" font-size="10.00">fe/arena.h</text>
</a>
</g>
</g>
<!-- Node14&#45;&gt;Node21 -->
<g id="edge21_Node000014_Node000021" class="edge">
<title>Node14&#45;&gt;Node21</title>
<g id="a_edge21_Node000014_Node000021"><a xlink:title=" ">
<path fill="none" stroke="#63b8ff" d="M472.77,-166.82C475.88,-166.18 479,-165.56 482,-165 580.1,-146.62 607.88,-147.17 709.49,-129.2"/>
<polygon fill="#63b8ff" stroke="#63b8ff" points="710.33,-132.61 719.55,-127.41 709.1,-125.72 710.33,-132.61"/>
</a>
</g>
</g>
<!-- Node21&#45;&gt;Node11 -->
<g id="edge28_Node000021_Node000011" class="edge">
<title>Node21&#45;&gt;Node11</title>
<g id="a_edge28_Node000021_Node000011"><a xlink:title=" ">
<path fill="none" stroke="#63b8ff" d="M719.59,-111.4C716.69,-110.89 713.8,-110.41 711,-110 538.78,-84.7 494.02,-93.12 321,-74 310.15,-72.8 298.31,-71.33 287.7,-69.95"/>
<polygon fill="#63b8ff" stroke="#63b8ff" points="287.95,-66.45 277.58,-68.61 287.04,-73.39 287.95,-66.45"/>
</a>
</g>
</g>
<!-- Node22 -->
<g id="Node000022" class="node">
<title>Node22</title>
<g id="a_Node000022"><a xlink:title=" ">
<polygon fill="#e0e0e0" stroke="#999999" points="736,-74 672,-74 672,-55 736,-55 736,-74"/>
<text text-anchor="middle" x="704" y="-62" font-family="Helvetica,sans-Serif" font-size="10.00">algorithm</text>
</a>
</g>
</g>
<!-- Node21&#45;&gt;Node22 -->
<g id="edge22_Node000021_Node000022" class="edge">
<title>Node21&#45;&gt;Node22</title>
<g id="a_edge22_Node000021_Node000022"><a xlink:title=" ">
<path fill="none" stroke="#63b8ff" d="M744.91,-109.75C737.84,-102.11 727.41,-90.82 718.85,-81.56"/>
<polygon fill="#63b8ff" stroke="#63b8ff" points="721.3,-79.06 711.94,-74.09 716.16,-83.81 721.3,-79.06"/>
</a>
</g>
</g>
<!-- Node23 -->
<g id="Node000023" class="node">
<title>Node23</title>
<g id="a_Node000023"><a xlink:title=" ">
<polygon fill="#e0e0e0" stroke="#999999" points="786,-74 754,-74 754,-55 786,-55 786,-74"/>
<text text-anchor="middle" x="770" y="-62" font-family="Helvetica,sans-Serif" font-size="10.00">list</text>
</a>
</g>
</g>
<!-- Node21&#45;&gt;Node23 -->
<g id="edge23_Node000021_Node000023" class="edge">
<title>Node21&#45;&gt;Node23</title>
<g id="a_edge23_Node000021_Node000023"><a xlink:title=" ">
<path fill="none" stroke="#63b8ff" d="M755.81,-109.75C758.06,-102.72 761.3,-92.62 764.12,-83.84"/>
<polygon fill="#63b8ff" stroke="#63b8ff" points="767.52,-84.68 767.25,-74.09 760.86,-82.54 767.52,-84.68"/>
</a>
</g>
</g>
<!-- Node24 -->
<g id="Node000024" class="node">
<title>Node24</title>
<g id="a_Node000024"><a xlink:title=" ">
<polygon fill="#e0e0e0" stroke="#999999" points="388,-74 330,-74 330,-55 388,-55 388,-74"/>
<text text-anchor="middle" x="359" y="-62" font-family="Helvetica,sans-Serif" font-size="10.00">memory</text>
</a>
</g>
</g>
<!-- Node21&#45;&gt;Node24 -->
<g id="edge24_Node000021_Node000024" class="edge">
<title>Node21&#45;&gt;Node24</title>
<g id="a_edge24_Node000021_Node000024"><a xlink:title=" ">
<path fill="none" stroke="#63b8ff" d="M719.58,-111.47C716.68,-110.94 713.79,-110.44 711,-110 575.94,-88.61 537.91,-96.54 398.54,-73.9"/>
<polygon fill="#63b8ff" stroke="#63b8ff" points="398.76,-70.39 388.33,-72.22 397.62,-77.3 398.76,-70.39"/>
</a>
</g>
</g>
<!-- Node25 -->
<g id="Node000025" class="node">
<title>Node25</title>
<g id="a_Node000025"><a xlink:title=" ">
<polygon fill="#e0e0e0" stroke="#999999" points="511.5,-74 406.5,-74 406.5,-55 511.5,-55 511.5,-74"/>
<text text-anchor="middle" x="459" y="-62" font-family="Helvetica,sans-Serif" font-size="10.00">memory_resource</text>
</a>
</g>
</g>
<!-- Node21&#45;&gt;Node25 -->
<g id="edge25_Node000021_Node000025" class="edge">
<title>Node21&#45;&gt;Node25</title>
<g id="a_edge25_Node000021_Node000025"><a xlink:title=" ">
<path fill="none" stroke="#63b8ff" d="M719.54,-111.65C716.66,-111.08 713.78,-110.53 711,-110 645.73,-97.63 570.73,-84.53 519.64,-75.77"/>
<polygon fill="#63b8ff" stroke="#63b8ff" points="520.2,-72.32 509.75,-74.08 519.01,-79.22 520.2,-72.32"/>
</a>
</g>
</g>
<!-- Node26 -->
<g id="Node000026" class="node">
<title>Node26</title>
<g id="a_Node000026"><a xlink:title=" ">
<polygon fill="#e0e0e0" stroke="#999999" points="566.5,-74 529.5,-74 529.5,-55 566.5,-55 566.5,-74"/>
<text text-anchor="middle" x="548" y="-62" font-family="Helvetica,sans-Serif" font-size="10.00">new</text>
</a>
</g>
</g>
<!-- Node21&#45;&gt;Node26 -->
<g id="edge26_Node000021_Node000026" class="edge">
<title>Node21&#45;&gt;Node26</title>
<g id="a_edge26_Node000021_Node000026"><a xlink:title=" ">
<path fill="none" stroke="#63b8ff" d="M719.93,-110.69C686.22,-102.62 632.24,-89.39 576.35,-73.99"/>
<polygon fill="#63b8ff" stroke="#63b8ff" points="577.21,-70.6 566.64,-71.3 575.34,-77.34 577.21,-70.6"/>
</a>
</g>
</g>
<!-- Node27 -->
<g id="Node000027" class="node">
<title>Node27</title>
<g id="a_Node000027"><a xlink:title=" ">
<polygon fill="#e0e0e0" stroke="#999999" points="653.5,-74 584.5,-74 584.5,-55 653.5,-55 653.5,-74"/>
<text text-anchor="middle" x="619" y="-62" font-family="Helvetica,sans-Serif" font-size="10.00">type_traits</text>
</a>
</g>
</g>
<!-- Node21&#45;&gt;Node27 -->
<g id="edge27_Node000021_Node000027" class="edge">
<title>Node21&#45;&gt;Node27</title>
<g id="a_edge27_Node000021_Node000027"><a xlink:title=" ">
<path fill="none" stroke="#63b8ff" d="M731.47,-109.98C709.53,-101.3 675.26,-87.75 650.31,-77.88"/>
<polygon fill="#63b8ff" stroke="#63b8ff" points="651.51,-74.59 640.92,-74.17 648.93,-81.1 651.51,-74.59"/>
</a>
</g>
</g>
<!-- Node28 -->
<g id="Node000028" class="node">
<title>Node28</title>
<g id="a_Node000028"><a xlink:href="assert_8h.html" target="_top" xlink:title=" ">
<polygon fill="white" stroke="#666666" points="910,-74 842,-74 842,-55 910,-55 910,-74"/>
<text text-anchor="middle" x="876" y="-62" font-family="Helvetica,sans-Serif" font-size="10.00">fe/assert.h</text>
</a>
</g>
</g>
<!-- Node21&#45;&gt;Node28 -->
<g id="edge29_Node000021_Node000028" class="edge">
<title>Node21&#45;&gt;Node28</title>
<g id="a_edge29_Node000021_Node000028"><a xlink:title=" ">
<path fill="none" stroke="#63b8ff" d="M772.76,-109.98C792.73,-101.38 823.8,-87.99 846.65,-78.15"/>
<polygon fill="#63b8ff" stroke="#63b8ff" points="848.08,-81.34 855.88,-74.17 845.31,-74.91 848.08,-81.34"/>
</a>
</g>
</g>
<!-- Node28&#45;&gt;Node15 -->
<g id="edge30_Node000028_Node000015" class="edge">
<title>Node28&#45;&gt;Node15</title>
<g id="a_edge30_Node000028_Node000015"><a xlink:title=" ">
<path fill="none" stroke="#63b8ff" d="M870.88,-54.75C866.64,-47.49 860.47,-36.95 855.22,-27.98"/>
<polygon fill="#63b8ff" stroke="#63b8ff" points="858.09,-25.95 850.02,-19.09 852.05,-29.49 858.09,-25.95"/>
</a>
</g>
</g>
<!-- Node29&#45;&gt;Node6 -->
<g id="edge34_Node000029_Node000006" class="edge">
<title>Node29&#45;&gt;Node6</title>
<g id="a_edge34_Node000029_Node000006"><a xlink:title=" ">
<path fill="none" stroke="#63b8ff" d="M499.8,-219.75C502.91,-212.57 507.42,-202.18 511.29,-193.27"/>
<polygon fill="#63b8ff" stroke="#63b8ff" points="514.5,-194.66 515.27,-184.09 508.08,-191.87 514.5,-194.66"/>
</a>
</g>
</g>
<!-- Node29&#45;&gt;Node28 -->
<g id="edge35_Node000029_Node000028" class="edge">
<title>Node29&#45;&gt;Node28</title>
<g id="a_edge35_Node000029_Node000028"><a xlink:title=" ">
<path fill="none" stroke="#63b8ff" d="M525.02,-220.91C601.14,-200.86 802.43,-146.77 828,-129 844.97,-117.21 858.49,-97.53 866.8,-83.2"/>
<polygon fill="#63b8ff" stroke="#63b8ff" points="869.94,-84.75 871.7,-74.3 863.81,-81.37 869.94,-84.75"/>
</a>
</g>
</g>
<!-- Node30 -->
<g id="Node000030" class="node">
<title>Node30</title>
<g id="a_Node000030"><a xlink:title=" ">
<polygon fill="#e0e0e0" stroke="#999999" points="929.5,-184 880.5,-184 880.5,-165 929.5,-165 929.5,-184"/>
<text text-anchor="middle" x="905" y="-172" font-family="Helvetica,sans-Serif" font-size="10.00">cctype</text>
</a>
</g>
</g>
<!-- Node29&#45;&gt;Node30 -->
<g id="edge32_Node000029_Node000030" class="edge">
<title>Node29&#45;&gt;Node30</title>
<g id="a_edge32_Node000029_Node000030"><a xlink:title=" ">
<path fill="none" stroke="#63b8ff" d="M525.32,-221.76C528.58,-221.12 531.85,-220.51 535,-220 681.05,-196.21 719.95,-207.79 866,-184 867.45,-183.76 868.93,-183.51 870.43,-183.24"/>
<polygon fill="#63b8ff" stroke="#63b8ff" points="871.18,-186.66 880.32,-181.29 869.83,-179.79 871.18,-186.66"/>
</a>
</g>
</g>
<!-- Node31 -->
<g id="Node000031" class="node">
<title>Node31</title>
<g id="a_Node000031"><a xlink:title=" ">
<polygon fill="#e0e0e0" stroke="#999999" points="1002,-184 948,-184 948,-165 1002,-165 1002,-184"/>
<text text-anchor="middle" x="975" y="-172" font-family="Helvetica,sans-Serif" font-size="10.00">istream</text>
</a>
</g>
</g>
<!-- Node29&#45;&gt;Node31 -->
<g id="edge33_Node000029_Node000031" class="edge">
<title>Node29&#45;&gt;Node31</title>
<g id="a_edge33_Node000029_Node000031"><a xlink:title=" ">
<path fill="none" stroke="#63b8ff" d="M525.31,-221.7C528.57,-221.06 531.85,-220.48 535,-220 709.98,-193.24 759.27,-212.08 937.96,-183.93"/>
<polygon fill="#63b8ff" stroke="#63b8ff" points="938.64,-187.36 947.96,-182.32 937.53,-180.45 938.64,-187.36"/>
</a>
</g>
</g>
</g>
</svg>
