<?xml version="1.0" encoding="UTF-8" standalone="no"?>
<!DOCTYPE svg PUBLIC "-//W3C//DTD SVG 1.1//EN"
 "http://www.w3.org/Graphics/SVG/1.1/DTD/svg11.dtd">
<!-- Generated by graphviz version 2.43.0 (0)
 -->
<!-- Title: fe/format.h Pages: 1 -->
<svg width="998pt" height="302pt"
 viewBox="0.00 0.00 997.50 302.00" xmlns="http://www.w3.org/2000/svg" xmlns:xlink="http://www.w3.org/1999/xlink">
<g id="graph0" class="graph" transform="scale(1 1) rotate(0) translate(4 298)">
<title>fe/format.h</title>
<!-- Node1 -->
<g id="Node000001" class="node">
<title>Node1</title>
<g id="a_Node000001"><a xlink:title=" ">
<polygon fill="#999999" stroke="#666666" points="628.5,-294 557.5,-294 557.5,-275 628.5,-275 628.5,-294"/>
<text text-anchor="middle" x="593" y="-282" font-family="Helvetica,sans-Serif" font-size="10.00">fe/format.h</text>
</a>
</g>
</g>
<!-- Node2 -->
<g id="Node000002" class="node">
<title>Node2</title>
<g id="a_Node000002"><a xlink:title=" ">
<polygon fill="#e0e0e0" stroke="#999999" points="201,-239 141,-239 141,-220 201,-220 201,-239"/>
<text text-anchor="middle" x="171" y="-227" font-family="Helvetica,sans-Serif" font-size="10.00">concepts</text>
</a>
</g>
</g>
<!-- Node1&#45;&gt;Node2 -->
<g id="edge1_Node000001_Node000002" class="edge">
<title>Node1&#45;&gt;Node2</title>
<g id="a_edge1_Node000001_Node000002"><a xlink:title=" ">
<path fill="none" stroke="#63b8ff" d="M557.46,-280.55C491.27,-274.81 344.5,-260.88 211.16,-239.04"/>
<polygon fill="#63b8ff" stroke="#63b8ff" points="211.61,-235.57 201.18,-237.39 210.47,-242.47 211.61,-235.57"/>
</a>
</g>
</g>
<!-- Node3 -->
<g id="Node000003" class="node">
<title>Node3</title>
<g id="a_Node000003"><a xlink:title=" ">
<polygon fill="#e0e0e0" stroke="#999999" points="269,-239 219,-239 219,-220 269,-220 269,-239"/>
<text text-anchor="middle" x="244" y="-227" font-family="Helvetica,sans-Serif" font-size="10.00">format</text>
</a>
</g>
</g>
<!-- Node1&#45;&gt;Node3 -->
<g id="edge2_Node000001_Node000003" class="edge">
<title>Node1&#45;&gt;Node3</title>
<g id="a_edge2_Node000001_Node000003"><a xlink:title=" ">
<path fill="none" stroke="#63b8ff" d="M557.37,-279.7C500.55,-273.37 385.78,-259.49 279.15,-239.04"/>
<polygon fill="#63b8ff" stroke="#63b8ff" points="279.67,-235.58 269.19,-237.11 278.33,-242.45 279.67,-235.58"/>
</a>
</g>
</g>
<!-- Node4 -->
<g id="Node000004" class="node">
<title>Node4</title>
<g id="a_Node000004"><a xlink:title=" ">
<polygon fill="#e0e0e0" stroke="#999999" points="352.5,-239 287.5,-239 287.5,-220 352.5,-220 352.5,-239"/>
<text text-anchor="middle" x="320" y="-227" font-family="Helvetica,sans-Serif" font-size="10.00">functional</text>
</a>
</g>
</g>
<!-- Node1&#45;&gt;Node4 -->
<g id="edge3_Node000001_Node000004" class="edge">
<title>Node1&#45;&gt;Node4</title>
<g id="a_edge3_Node000001_Node000004"><a xlink:title=" ">
<path fill="none" stroke="#63b8ff" d="M557.31,-276.57C507.21,-266.84 416.16,-249.17 362.59,-238.77"/>
<polygon fill="#63b8ff" stroke="#63b8ff" points="363.2,-235.32 352.71,-236.85 361.86,-242.19 363.2,-235.32"/>
</a>
</g>
</g>
<!-- Node5 -->
<g id="Node000005" class="node">
<title>Node5</title>
<g id="a_Node000005"><a xlink:title=" ">
<polygon fill="#e0e0e0" stroke="#999999" points="60,-129 0,-129 0,-110 60,-110 60,-129"/>
<text text-anchor="middle" x="30" y="-117" font-family="Helvetica,sans-Serif" font-size="10.00">iostream</text>
</a>
</g>
</g>
<!-- Node1&#45;&gt;Node5 -->
<g id="edge4_Node000001_Node000005" class="edge">
<title>Node1&#45;&gt;Node5</title>
<g id="a_edge4_Node000001_Node000005"><a xlink:title=" ">
<path fill="none" stroke="#63b8ff" d="M563.52,-274.97C469.38,-247.71 175.91,-162.74 69.25,-131.86"/>
<polygon fill="#63b8ff" stroke="#63b8ff" points="70.1,-128.47 59.52,-129.05 68.16,-135.19 70.1,-128.47"/>
</a>
</g>
</g>
<!-- Node6 -->
<g id="Node000006" class="node">
<title>Node6</title>
<g id="a_Node000006"><a xlink:title=" ">
<polygon fill="#e0e0e0" stroke="#999999" points="659.5,-184 602.5,-184 602.5,-165 659.5,-165 659.5,-184"/>
<text text-anchor="middle" x="631" y="-172" font-family="Helvetica,sans-Serif" font-size="10.00">ostream</text>
</a>
</g>
</g>
<!-- Node1&#45;&gt;Node6 -->
<g id="edge5_Node000001_Node000006" class="edge">
<title>Node1&#45;&gt;Node6</title>
<g id="a_edge5_Node000001_Node000006"><a xlink:title=" ">
<path fill="none" stroke="#63b8ff" d="M596.11,-274.66C602.32,-257.01 616.37,-217.09 624.62,-193.64"/>
<polygon fill="#63b8ff" stroke="#63b8ff" points="627.94,-194.75 627.95,-184.16 621.33,-192.43 627.94,-194.75"/>
</a>
</g>
</g>
<!-- Node7 -->
<g id="Node000007" class="node">
<title>Node7</title>
<g id="a_Node000007"><a xlink:title=" ">
<polygon fill="#e0e0e0" stroke="#999999" points="755.5,-239 716.5,-239 716.5,-220 755.5,-220 755.5,-239"/>
<text text-anchor="middle" x="736" y="-227" font-family="Helvetica,sans-Serif" font-size="10.00">print</text>
</a>
</g>
</g>
<!-- Node1&#45;&gt;Node7 -->
<g id="edge6_Node000001_Node000007" class="edge">
<title>Node1&#45;&gt;Node7</title>
<g id="a_edge6_Node000001_Node000007"><a xlink:title=" ">
<path fill="none" stroke="#63b8ff" d="M615.98,-274.98C640.62,-265.85 679.82,-251.32 706.67,-241.37"/>
<polygon fill="#63b8ff" stroke="#63b8ff" points="708.14,-244.56 716.3,-237.8 705.71,-237.99 708.14,-244.56"/>
</a>
</g>
</g>
<!-- Node8 -->
<g id="Node000008" class="node">
<title>Node8</title>
<g id="a_Node000008"><a xlink:title=" ">
<polygon fill="#e0e0e0" stroke="#999999" points="824,-239 774,-239 774,-220 824,-220 824,-239"/>
<text text-anchor="middle" x="799" y="-227" font-family="Helvetica,sans-Serif" font-size="10.00">ranges</text>
</a>
</g>
</g>
<!-- Node1&#45;&gt;Node8 -->
<g id="edge7_Node000001_Node000008" class="edge">
<title>Node1&#45;&gt;Node8</title>
<g id="a_edge7_Node000001_Node000008"><a xlink:title=" ">
<path fill="none" stroke="#63b8ff" d="M626.1,-274.98C663.89,-265.26 725.46,-249.42 764.02,-239.5"/>
<polygon fill="#63b8ff" stroke="#63b8ff" points="764.96,-242.87 773.78,-236.99 763.22,-236.09 764.96,-242.87"/>
</a>
</g>
</g>
<!-- Node9 -->
<g id="Node000009" class="node">
<title>Node9</title>
<g id="a_Node000009"><a xlink:title=" ">
<polygon fill="#e0e0e0" stroke="#999999" points="898,-239 842,-239 842,-220 898,-220 898,-239"/>
<text text-anchor="middle" x="870" y="-227" font-family="Helvetica,sans-Serif" font-size="10.00">sstream</text>
</a>
</g>
</g>
<!-- Node1&#45;&gt;Node9 -->
<g id="edge8_Node000001_Node000009" class="edge">
<title>Node1&#45;&gt;Node9</title>
<g id="a_edge8_Node000001_Node000009"><a xlink:title=" ">
<path fill="none" stroke="#63b8ff" d="M628.87,-277.34C673.95,-269.49 753.9,-255.21 831.77,-239.19"/>
<polygon fill="#63b8ff" stroke="#63b8ff" points="832.66,-242.58 841.75,-237.12 831.24,-235.72 832.66,-242.58"/>
</a>
</g>
</g>
<!-- Node10 -->
<g id="Node000010" class="node">
<title>Node10</title>
<g id="a_Node000010"><a xlink:title=" ">
<polygon fill="#e0e0e0" stroke="#999999" points="989.5,-239 916.5,-239 916.5,-220 989.5,-220 989.5,-239"/>
<text text-anchor="middle" x="953" y="-227" font-family="Helvetica,sans-Serif" font-size="10.00">string_view</text>
</a>
</g>
</g>
<!-- Node1&#45;&gt;Node10 -->
<g id="edge9_Node000001_Node000010" class="edge">
<title>Node1&#45;&gt;Node10</title>
<g id="a_edge9_Node000001_Node000010"><a xlink:title=" ">
<path fill="none" stroke="#63b8ff" d="M628.86,-278.92C685.49,-271.57 799.31,-256.36 906.36,-239.04"/>
<polygon fill="#63b8ff" stroke="#63b8ff" points="907.06,-242.47 916.37,-237.41 905.93,-235.56 907.06,-242.47"/>
</a>
</g>
</g>
<!-- Node11 -->
<g id="Node000011" class="node">
<title>Node11</title>
<g id="a_Node000011"><a xlink:title=" ">
<polygon fill="#e0e0e0" stroke="#999999" points="635.5,-74 590.5,-74 590.5,-55 635.5,-55 635.5,-74"/>
<text text-anchor="middle" x="613" y="-62" font-family="Helvetica,sans-Serif" font-size="10.00">utility</text>
</a>
</g>
</g>
<!-- Node1&#45;&gt;Node11 -->
<g id="edge10_Node000001_Node000011" class="edge">
<title>Node1&#45;&gt;Node11</title>
<g id="a_edge10_Node000001_Node000011"><a xlink:title=" ">
<path fill="none" stroke="#63b8ff" d="M590.87,-274.71C586.4,-254.39 577.75,-203.03 594,-165 603.01,-143.9 622.07,-150.14 631,-129 637.32,-114.03 631.11,-96.15 624.32,-83.19"/>
<polygon fill="#63b8ff" stroke="#63b8ff" points="627.25,-81.26 619.2,-74.36 621.19,-84.77 627.25,-81.26"/>
</a>
</g>
</g>
<!-- Node12 -->
<g id="Node000012" class="node">
<title>Node12</title>
<g id="a_Node000012"><a xlink:href="loc_8h.html" target="_top" xlink:title=" ">
<polygon fill="white" stroke="#666666" points="527.5,-239 474.5,-239 474.5,-220 527.5,-220 527.5,-239"/>
<text text-anchor="middle" x="501" y="-227" font-family="Helvetica,sans-Serif" font-size="10.00">fe/loc.h</text>
</a>
</g>
</g>
<!-- Node1&#45;&gt;Node12 -->
<g id="edge11_Node000001_Node000012" class="edge">
<title>Node1&#45;&gt;Node12</title>
<g id="a_edge11_Node000001_Node000012"><a xlink:title=" ">
<path fill="none" stroke="#63b8ff" d="M578.22,-274.98C563.82,-266.69 541.69,-253.94 524.81,-244.22"/>
<polygon fill="#63b8ff" stroke="#63b8ff" points="526.46,-241.13 516.05,-239.17 522.97,-247.19 526.46,-241.13"/>
</a>
</g>
</g>
<!-- Node30 -->
<g id="Node000030" class="node">
<title>Node30</title>
<g id="a_Node000030"><a xlink:href="utf8_8h.html" target="_top" xlink:title=" ">
<polygon fill="white" stroke="#666666" points="698,-239 640,-239 640,-220 698,-220 698,-239"/>
<text text-anchor="middle" x="669" y="-227" font-family="Helvetica,sans-Serif" font-size="10.00">fe/utf8.h</text>
</a>
</g>
</g>
<!-- Node1&#45;&gt;Node30 -->
<g id="edge32_Node000001_Node000030" class="edge">
<title>Node1&#45;&gt;Node30</title>
<g id="a_edge32_Node000001_Node000030"><a xlink:title=" ">
<path fill="none" stroke="#63b8ff" d="M605.21,-274.98C616.78,-266.92 634.38,-254.65 648.16,-245.03"/>
<polygon fill="#63b8ff" stroke="#63b8ff" points="650.37,-247.76 656.57,-239.17 646.36,-242.02 650.37,-247.76"/>
</a>
</g>
</g>
<!-- Node13 -->
<g id="Node000013" class="node">
<title>Node13</title>
<g id="a_Node000013"><a xlink:title=" ">
<polygon fill="#e0e0e0" stroke="#999999" points="535,-184 467,-184 467,-165 535,-165 535,-184"/>
<text text-anchor="middle" x="501" y="-172" font-family="Helvetica,sans-Serif" font-size="10.00">filesystem</text>
</a>
</g>
</g>
<!-- Node12&#45;&gt;Node13 -->
<g id="edge12_Node000012_Node000013" class="edge">
<title>Node12&#45;&gt;Node13</title>
<g id="a_edge12_Node000012_Node000013"><a xlink:title=" ">
<path fill="none" stroke="#63b8ff" d="M501,-219.75C501,-212.8 501,-202.85 501,-194.13"/>
<polygon fill="#63b8ff" stroke="#63b8ff" points="504.5,-194.09 501,-184.09 497.5,-194.09 504.5,-194.09"/>
</a>
</g>
</g>
<!-- Node14 -->
<g id="Node000014" class="node">
<title>Node14</title>
<g id="a_Node000014"><a xlink:href="sym_8h.html" target="_top" xlink:title=" ">
<polygon fill="white" stroke="#666666" points="436.5,-184 377.5,-184 377.5,-165 436.5,-165 436.5,-184"/>
<text text-anchor="middle" x="407" y="-172" font-family="Helvetica,sans-Serif" font-size="10.00">fe/sym.h</text>
</a>
</g>
</g>
<!-- Node12&#45;&gt;Node14 -->
<g id="edge13_Node000012_Node000014" class="edge">
<title>Node12&#45;&gt;Node14</title>
<g id="a_edge13_Node000012_Node000014"><a xlink:title=" ">
<path fill="none" stroke="#63b8ff" d="M485.9,-219.98C471.18,-211.69 448.58,-198.94 431.33,-189.22"/>
<polygon fill="#63b8ff" stroke="#63b8ff" points="432.81,-186.03 422.38,-184.17 429.37,-192.13 432.81,-186.03"/>
</a>
</g>
</g>
<!-- Node14&#45;&gt;Node5 -->
<g id="edge17_Node000014_Node000005" class="edge">
<title>Node14&#45;&gt;Node5</title>
<g id="a_edge17_Node000014_Node000005"><a xlink:title=" ">
<path fill="none" stroke="#63b8ff" d="M377.23,-167.47C372.48,-166.59 367.61,-165.73 363,-165 235.16,-144.71 201.84,-149.29 74,-129 72.75,-128.8 71.47,-128.59 70.19,-128.38"/>
<polygon fill="#63b8ff" stroke="#63b8ff" points="70.71,-124.91 60.25,-126.62 69.49,-131.81 70.71,-124.91"/>
</a>
</g>
</g>
<!-- Node15 -->
<g id="Node000015" class="node">
<title>Node15</title>
<g id="a_Node000015"><a xlink:title=" ">
<polygon fill="#e0e0e0" stroke="#999999" points="380,-19 328,-19 328,0 380,0 380,-19"/>
<text text-anchor="middle" x="354" y="-7" font-family="Helvetica,sans-Serif" font-size="10.00">cassert</text>
</a>
</g>
</g>
<!-- Node14&#45;&gt;Node15 -->
<g id="edge14_Node000014_Node000015" class="edge">
<title>Node14&#45;&gt;Node15</title>
<g id="a_edge14_Node000014_Node000015"><a xlink:title=" ">
<path fill="none" stroke="#63b8ff" d="M377.19,-167.65C372.45,-166.75 367.59,-165.84 363,-165 269.84,-148.02 235.08,-176.22 153,-129 125.38,-113.11 117.88,-103.95 107,-74 104.12,-66.06 101.58,-61.48 107,-55 133.42,-23.4 255.53,-14.2 317.59,-11.55"/>
<polygon fill="#63b8ff" stroke="#63b8ff" points="317.87,-15.05 327.72,-11.16 317.6,-8.05 317.87,-15.05"/>
</a>
</g>
</g>
<!-- Node16 -->
<g id="Node000016" class="node">
<title>Node16</title>
<g id="a_Node000016"><a xlink:title=" ">
<polygon fill="#e0e0e0" stroke="#999999" points="296,-129 246,-129 246,-110 296,-110 296,-129"/>
<text text-anchor="middle" x="271" y="-117" font-family="Helvetica,sans-Serif" font-size="10.00">cstring</text>
</a>
</g>
</g>
<!-- Node14&#45;&gt;Node16 -->
<g id="edge15_Node000014_Node000016" class="edge">
<title>Node14&#45;&gt;Node16</title>
<g id="a_edge15_Node000014_Node000016"><a xlink:title=" ">
<path fill="none" stroke="#63b8ff" d="M385.15,-164.98C362.88,-156.3 328.1,-142.75 302.78,-132.88"/>
<polygon fill="#63b8ff" stroke="#63b8ff" points="303.84,-129.54 293.25,-129.17 301.29,-136.06 303.84,-129.54"/>
</a>
</g>
</g>
<!-- Node17 -->
<g id="Node000017" class="node">
<title>Node17</title>
<g id="a_Node000017"><a xlink:title=" ">
<polygon fill="#e0e0e0" stroke="#999999" points="343.5,-129 314.5,-129 314.5,-110 343.5,-110 343.5,-129"/>
<text text-anchor="middle" x="329" y="-117" font-family="Helvetica,sans-Serif" font-size="10.00">bit</text>
</a>
</g>
</g>
<!-- Node14&#45;&gt;Node17 -->
<g id="edge16_Node000014_Node000017" class="edge">
<title>Node14&#45;&gt;Node17</title>
<g id="a_edge16_Node000014_Node000017"><a xlink:title=" ">
<path fill="none" stroke="#63b8ff" d="M394.47,-164.98C382.6,-156.92 364.54,-144.65 350.39,-135.03"/>
<polygon fill="#63b8ff" stroke="#63b8ff" points="352,-131.9 341.76,-129.17 348.06,-137.69 352,-131.9"/>
</a>
</g>
</g>
<!-- Node18 -->
<g id="Node000018" class="node">
<title>Node18</title>
<g id="a_Node000018"><a xlink:title=" ">
<polygon fill="#e0e0e0" stroke="#999999" points="406,-129 362,-129 362,-110 406,-110 406,-129"/>
<text text-anchor="middle" x="384" y="-117" font-family="Helvetica,sans-Serif" font-size="10.00">string</text>
</a>
</g>
</g>
<!-- Node14&#45;&gt;Node18 -->
<g id="edge18_Node000014_Node000018" class="edge">
<title>Node14&#45;&gt;Node18</title>
<g id="a_edge18_Node000014_Node000018"><a xlink:title=" ">
<path fill="none" stroke="#63b8ff" d="M403.2,-164.75C400.09,-157.57 395.58,-147.18 391.71,-138.27"/>
<polygon fill="#63b8ff" stroke="#63b8ff" points="394.92,-136.87 387.73,-129.09 388.5,-139.66 394.92,-136.87"/>
</a>
</g>
</g>
<!-- Node19 -->
<g id="Node000019" class="node">
<title>Node19</title>
<g id="a_Node000019"><a xlink:title=" ">
<polygon fill="#e0e0e0" stroke="#999999" points="517.5,-129 424.5,-129 424.5,-110 517.5,-110 517.5,-129"/>
<text text-anchor="middle" x="471" y="-117" font-family="Helvetica,sans-Serif" font-size="10.00">unordered_map</text>
</a>
</g>
</g>
<!-- Node14&#45;&gt;Node19 -->
<g id="edge19_Node000014_Node000019" class="edge">
<title>Node14&#45;&gt;Node19</title>
<g id="a_edge19_Node000014_Node000019"><a xlink:title=" ">
<path fill="none" stroke="#63b8ff" d="M417.28,-164.98C426.84,-157.07 441.28,-145.11 452.78,-135.58"/>
<polygon fill="#63b8ff" stroke="#63b8ff" points="455.06,-138.24 460.53,-129.17 450.6,-132.85 455.06,-138.24"/>
</a>
</g>
</g>
<!-- Node20 -->
<g id="Node000020" class="node">
<title>Node20</title>
<g id="a_Node000020"><a xlink:title=" ">
<polygon fill="#e0e0e0" stroke="#999999" points="622,-129 536,-129 536,-110 622,-110 622,-129"/>
<text text-anchor="middle" x="579" y="-117" font-family="Helvetica,sans-Serif" font-size="10.00">unordered_set</text>
</a>
</g>
</g>
<!-- Node14&#45;&gt;Node20 -->
<g id="edge20_Node000014_Node000020" class="edge">
<title>Node14&#45;&gt;Node20</title>
<g id="a_edge20_Node000014_Node000020"><a xlink:title=" ">
<path fill="none" stroke="#63b8ff" d="M434.63,-164.98C463.51,-156.09 509.01,-142.07 541.2,-132.15"/>
<polygon fill="#63b8ff" stroke="#63b8ff" points="542.62,-135.37 551.15,-129.08 540.56,-128.68 542.62,-135.37"/>
</a>
</g>
</g>
<!-- Node21 -->
<g id="Node000021" class="node">
<title>Node21</title>
<g id="a_Node000021"><a xlink:href="arena_8h.html" target="_top" xlink:title=" ">
<polygon fill="white" stroke="#666666" points="228,-129 162,-129 162,-110 228,-110 228,-129"/>
<text text-anchor="middle" x="195" y="-117" font-family="Helvetica,sans-Serif" font-size="10.00">fe/arena.h</text>
</a>
</g>
</g>
<!-- Node14&#45;&gt;Node21 -->
<g id="edge21_Node000014_Node000021" class="edge">
<title>Node14&#45;&gt;Node21</title>
<g id="a_edge21_Node000014_Node000021"><a xlink:title=" ">
<path fill="none" stroke="#63b8ff" d="M377.08,-166.02C340.8,-156.95 279.41,-141.6 238.06,-131.26"/>
<polygon fill="#63b8ff" stroke="#63b8ff" points="238.81,-127.85 228.26,-128.82 237.12,-134.64 238.81,-127.85"/>
</a>
</g>
</g>
<!-- Node21&#45;&gt;Node11 -->
<g id="edge28_Node000021_Node000011" class="edge">
<title>Node21&#45;&gt;Node11</title>
<g id="a_edge28_Node000021_Node000011"><a xlink:title=" ">
<path fill="none" stroke="#63b8ff" d="M228.42,-111.44C231.32,-110.92 234.21,-110.43 237,-110 385.69,-87.23 428.01,-101.19 580.19,-73.84"/>
<polygon fill="#63b8ff" stroke="#63b8ff" points="581.17,-77.22 590.37,-71.98 579.91,-70.33 581.17,-77.22"/>
</a>
</g>
</g>
<!-- Node22 -->
<g id="Node000022" class="node">
<title>Node22</title>
<g id="a_Node000022"><a xlink:title=" ">
<polygon fill="#e0e0e0" stroke="#999999" points="572,-74 508,-74 508,-55 572,-55 572,-74"/>
<text text-anchor="middle" x="540" y="-62" font-family="Helvetica,sans-Serif" font-size="10.00">algorithm</text>
</a>
</g>
</g>
<!-- Node21&#45;&gt;Node22 -->
<g id="edge22_Node000021_Node000022" class="edge">
<title>Node21&#45;&gt;Node22</title>
<g id="a_edge22_Node000021_Node000022"><a xlink:title=" ">
<path fill="none" stroke="#63b8ff" d="M228.44,-111.54C231.33,-110.99 234.21,-110.47 237,-110 349.71,-90.87 381.45,-93.76 497.79,-74.1"/>
<polygon fill="#63b8ff" stroke="#63b8ff" points="498.54,-77.52 507.81,-72.39 497.36,-70.62 498.54,-77.52"/>
</a>
</g>
</g>
<!-- Node23 -->
<g id="Node000023" class="node">
<title>Node23</title>
<g id="a_Node000023"><a xlink:title=" ">
<polygon fill="#e0e0e0" stroke="#999999" points="148,-74 116,-74 116,-55 148,-55 148,-74"/>
<text text-anchor="middle" x="132" y="-62" font-family="Helvetica,sans-Serif" font-size="10.00">list</text>
</a>
</g>
</g>
<!-- Node21&#45;&gt;Node23 -->
<g id="edge23_Node000021_Node000023" class="edge">
<title>Node21&#45;&gt;Node23</title>
<g id="a_edge23_Node000021_Node000023"><a xlink:title=" ">
<path fill="none" stroke="#63b8ff" d="M184.88,-109.98C175.56,-102.15 161.53,-90.34 150.26,-80.86"/>
<polygon fill="#63b8ff" stroke="#63b8ff" points="152.21,-77.93 142.31,-74.17 147.71,-83.29 152.21,-77.93"/>
</a>
</g>
</g>
<!-- Node24 -->
<g id="Node000024" class="node">
<title>Node24</title>
<g id="a_Node000024"><a xlink:title=" ">
<polygon fill="#e0e0e0" stroke="#999999" points="224,-74 166,-74 166,-55 224,-55 224,-74"/>
<text text-anchor="middle" x="195" y="-62" font-family="Helvetica,sans-Serif" font-size="10.00">memory</text>
</a>
</g>
</g>
<!-- Node21&#45;&gt;Node24 -->
<g id="edge24_Node000021_Node000024" class="edge">
<title>Node21&#45;&gt;Node24</title>
<g id="a_edge24_Node000021_Node000024"><a xlink:title=" ">
<path fill="none" stroke="#63b8ff" d="M195,-109.75C195,-102.8 195,-92.85 195,-84.13"/>
<polygon fill="#63b8ff" stroke="#63b8ff" points="198.5,-84.09 195,-74.09 191.5,-84.09 198.5,-84.09"/>
</a>
</g>
</g>
<!-- Node25 -->
<g id="Node000025" class="node">
<title>Node25</title>
<g id="a_Node000025"><a xlink:title=" ">
<polygon fill="#e0e0e0" stroke="#999999" points="347.5,-74 242.5,-74 242.5,-55 347.5,-55 347.5,-74"/>
<text text-anchor="middle" x="295" y="-62" font-family="Helvetica,sans-Serif" font-size="10.00">memory_resource</text>
</a>
</g>
</g>
<!-- Node21&#45;&gt;Node25 -->
<g id="edge25_Node000021_Node000025" class="edge">
<title>Node21&#45;&gt;Node25</title>
<g id="a_edge25_Node000021_Node000025"><a xlink:title=" ">
<path fill="none" stroke="#63b8ff" d="M211.07,-109.98C226.86,-101.61 251.22,-88.7 269.63,-78.95"/>
<polygon fill="#63b8ff" stroke="#63b8ff" points="271.44,-81.95 278.64,-74.17 268.17,-75.76 271.44,-81.95"/>
</a>
</g>
</g>
<!-- Node26 -->
<g id="Node000026" class="node">
<title>Node26</title>
<g id="a_Node000026"><a xlink:title=" ">
<polygon fill="#e0e0e0" stroke="#999999" points="402.5,-74 365.5,-74 365.5,-55 402.5,-55 402.5,-74"/>
<text text-anchor="middle" x="384" y="-62" font-family="Helvetica,sans-Serif" font-size="10.00">new</text>
</a>
</g>
</g>
<!-- Node21&#45;&gt;Node26 -->
<g id="edge26_Node000021_Node000026" class="edge">
<title>Node21&#45;&gt;Node26</title>
<g id="a_edge26_Node000021_Node000026"><a xlink:title=" ">
<path fill="none" stroke="#63b8ff" d="M226.84,-109.95C257.39,-101.69 305.08,-88.66 355.55,-74.07"/>
<polygon fill="#63b8ff" stroke="#63b8ff" points="356.71,-77.38 365.34,-71.23 354.76,-70.66 356.71,-77.38"/>
</a>
</g>
</g>
<!-- Node27 -->
<g id="Node000027" class="node">
<title>Node27</title>
<g id="a_Node000027"><a xlink:title=" ">
<polygon fill="#e0e0e0" stroke="#999999" points="489.5,-74 420.5,-74 420.5,-55 489.5,-55 489.5,-74"/>
<text text-anchor="middle" x="455" y="-62" font-family="Helvetica,sans-Serif" font-size="10.00">type_traits</text>
</a>
</g>
</g>
<!-- Node21&#45;&gt;Node27 -->
<g id="edge27_Node000021_Node000027" class="edge">
<title>Node21&#45;&gt;Node27</title>
<g id="a_edge27_Node000021_Node000027"><a xlink:title=" ">
<path fill="none" stroke="#63b8ff" d="M228.19,-111.73C274.53,-102.29 358.71,-85.13 410.45,-74.58"/>
<polygon fill="#63b8ff" stroke="#63b8ff" points="411.25,-77.99 420.35,-72.56 409.85,-71.13 411.25,-77.99"/>
</a>
</g>
</g>
<!-- Node28 -->
<g id="Node000028" class="node">
<title>Node28</title>
<g id="a_Node000028"><a xlink:href="assert_8h.html" target="_top" xlink:title=" ">
<polygon fill="white" stroke="#666666" points="722,-74 654,-74 654,-55 722,-55 722,-74"/>
<text text-anchor="middle" x="688" y="-62" font-family="Helvetica,sans-Serif" font-size="10.00">fe/assert.h</text>
</a>
</g>
</g>
<!-- Node21&#45;&gt;Node28 -->
<g id="edge29_Node000021_Node000028" class="edge">
<title>Node21&#45;&gt;Node28</title>
<g id="a_edge29_Node000021_Node000028"><a xlink:title=" ">
<path fill="none" stroke="#63b8ff" d="M228.41,-111.39C231.31,-110.88 234.2,-110.41 237,-110 413.9,-84.38 463.02,-99.13 643.68,-74.03"/>
<polygon fill="#63b8ff" stroke="#63b8ff" points="644.38,-77.47 653.79,-72.61 643.4,-70.54 644.38,-77.47"/>
</a>
</g>
</g>
<!-- Node28&#45;&gt;Node15 -->
<g id="edge30_Node000028_Node000015" class="edge">
<title>Node28&#45;&gt;Node15</title>
<g id="a_edge30_Node000028_Node000015"><a xlink:title=" ">
<path fill="none" stroke="#63b8ff" d="M653.76,-56.59C650.8,-56.04 647.85,-55.5 645,-55 553.49,-38.97 445.21,-23.26 390.12,-15.51"/>
<polygon fill="#63b8ff" stroke="#63b8ff" points="390.54,-12.03 380.15,-14.11 389.56,-18.97 390.54,-12.03"/>
</a>
</g>
</g>
<!-- Node29 -->
<g id="Node000029" class="node">
<title>Node29</title>
<g id="a_Node000029"><a xlink:title=" ">
<polygon fill="#e0e0e0" stroke="#999999" points="712.5,-19 663.5,-19 663.5,0 712.5,0 712.5,-19"/>
<text text-anchor="middle" x="688" y="-7" font-family="Helvetica,sans-Serif" font-size="10.00">cstdlib</text>
</a>
</g>
</g>
<!-- Node28&#45;&gt;Node29 -->
<g id="edge31_Node000028_Node000029" class="edge">
<title>Node28&#45;&gt;Node29</title>
<g id="a_edge31_Node000028_Node000029"><a xlink:title=" ">
<path fill="none" stroke="#63b8ff" d="M688,-54.75C688,-47.8 688,-37.85 688,-29.13"/>
<polygon fill="#63b8ff" stroke="#63b8ff" points="691.5,-29.09 688,-19.09 684.5,-29.09 691.5,-29.09"/>
</a>
</g>
</g>
<!-- Node30&#45;&gt;Node6 -->
<g id="edge35_Node000030_Node000006" class="edge">
<title>Node30&#45;&gt;Node6</title>
<g id="a_edge35_Node000030_Node000006"><a xlink:title=" ">
<path fill="none" stroke="#63b8ff" d="M662.73,-219.75C657.41,-212.34 649.64,-201.5 643.12,-192.41"/>
<polygon fill="#63b8ff" stroke="#63b8ff" points="645.83,-190.18 637.16,-184.09 640.14,-194.26 645.83,-190.18"/>
</a>
</g>
</g>
<!-- Node30&#45;&gt;Node28 -->
<g id="edge36_Node000030_Node000028" class="edge">
<title>Node30&#45;&gt;Node28</title>
<g id="a_edge36_Node000030_Node000028"><a xlink:title=" ">
<path fill="none" stroke="#63b8ff" d="M670.02,-219.74C672.99,-194.31 681.64,-120.08 685.76,-84.69"/>
<polygon fill="#63b8ff" stroke="#63b8ff" points="689.29,-84.64 686.97,-74.31 682.34,-83.83 689.29,-84.64"/>
</a>
</g>
</g>
<!-- Node31 -->
<g id="Node000031" class="node">
<title>Node31</title>
<g id="a_Node000031"><a xlink:title=" ">
<polygon fill="#e0e0e0" stroke="#999999" points="765.5,-184 716.5,-184 716.5,-165 765.5,-165 765.5,-184"/>
<text text-anchor="middle" x="741" y="-172" font-family="Helvetica,sans-Serif" font-size="10.00">cctype</text>
</a>
</g>
</g>
<!-- Node30&#45;&gt;Node31 -->
<g id="edge33_Node000030_Node000031" class="edge">
<title>Node30&#45;&gt;Node31</title>
<g id="a_edge33_Node000030_Node000031"><a xlink:title=" ">
<path fill="none" stroke="#63b8ff" d="M680.57,-219.98C691.42,-212 707.88,-199.88 720.88,-190.31"/>
<polygon fill="#63b8ff" stroke="#63b8ff" points="723.24,-192.92 729.22,-184.17 719.09,-187.28 723.24,-192.92"/>
</a>
</g>
</g>
<!-- Node32 -->
<g id="Node000032" class="node">
<title>Node32</title>
<g id="a_Node000032"><a xlink:title=" ">
<polygon fill="#e0e0e0" stroke="#999999" points="838,-184 784,-184 784,-165 838,-165 838,-184"/>
<text text-anchor="middle" x="811" y="-172" font-family="Helvetica,sans-Serif" font-size="10.00">istream</text>
</a>
</g>
</g>
<!-- Node30&#45;&gt;Node32 -->
<g id="edge34_Node000030_Node000032" class="edge">
<title>Node30&#45;&gt;Node32</title>
<g id="a_edge34_Node000030_Node000032"><a xlink:title=" ">
<path fill="none" stroke="#63b8ff" d="M691.81,-219.98C715.17,-211.27 751.7,-197.63 778.17,-187.75"/>
<polygon fill="#63b8ff" stroke="#63b8ff" points="779.63,-190.95 787.77,-184.17 777.18,-184.39 779.63,-190.95"/>
</a>
</g>
</g>
</g>
</svg>
