<?xml version="1.0" encoding="UTF-8" standalone="no"?>
<!DOCTYPE svg PUBLIC "-//W3C//DTD SVG 1.1//EN"
 "http://www.w3.org/Graphics/SVG/1.1/DTD/svg11.dtd">
<!-- Generated by graphviz version 2.43.0 (0)
 -->
<!-- Title: fe/format.h Pages: 1 -->
<svg width="636pt" height="302pt"
 viewBox="0.00 0.00 635.85 302.00" xmlns="http://www.w3.org/2000/svg" xmlns:xlink="http://www.w3.org/1999/xlink">
<g id="graph0" class="graph" transform="scale(1 1) rotate(0) translate(4 298)">
<title>fe/format.h</title>
<!-- Node1 -->
<g id="Node000001" class="node">
<title>Node1</title>
<g id="a_Node000001"><a xlink:title=" ">
<polygon fill="#999999" stroke="#666666" points="229.35,-294 158.35,-294 158.35,-275 229.35,-275 229.35,-294"/>
<text text-anchor="middle" x="193.85" y="-282" font-family="Helvetica,sans-Serif" font-size="10.00">fe/format.h</text>
</a>
</g>
</g>
<!-- Node2 -->
<g id="Node000002" class="node">
<title>Node2</title>
<g id="a_Node000002"><a xlink:title=" ">
<polygon fill="#e0e0e0" stroke="#999999" points="148.85,-239 98.85,-239 98.85,-220 148.85,-220 148.85,-239"/>
<text text-anchor="middle" x="123.85" y="-227" font-family="Helvetica,sans-Serif" font-size="10.00">format</text>
</a>
</g>
</g>
<!-- Node1&#45;&gt;Node2 -->
<g id="edge1_Node000001_Node000002" class="edge">
<title>Node1&#45;&gt;Node2</title>
<g id="a_edge1_Node000001_Node000002"><a xlink:title=" ">
<path fill="none" stroke="#63b8ff" d="M182.6,-274.98C172.05,-267 156.04,-254.88 143.4,-245.31"/>
<polygon fill="#63b8ff" stroke="#63b8ff" points="145.38,-242.42 135.3,-239.17 141.16,-248 145.38,-242.42"/>
</a>
</g>
</g>
<!-- Node3 -->
<g id="Node000003" class="node">
<title>Node3</title>
<g id="a_Node000003"><a xlink:href="loc_8h.html" target="_top" xlink:title=" ">
<polygon fill="white" stroke="#666666" points="220.35,-239 167.35,-239 167.35,-220 220.35,-220 220.35,-239"/>
<text text-anchor="middle" x="193.85" y="-227" font-family="Helvetica,sans-Serif" font-size="10.00">fe/loc.h</text>
</a>
</g>
</g>
<!-- Node1&#45;&gt;Node3 -->
<g id="edge2_Node000001_Node000003" class="edge">
<title>Node1&#45;&gt;Node3</title>
<g id="a_edge2_Node000001_Node000003"><a xlink:title=" ">
<path fill="none" stroke="#63b8ff" d="M193.85,-274.75C193.85,-267.8 193.85,-257.85 193.85,-249.13"/>
<polygon fill="#63b8ff" stroke="#63b8ff" points="197.35,-249.09 193.85,-239.09 190.35,-249.09 197.35,-249.09"/>
</a>
</g>
</g>
<!-- Node18 -->
<g id="Node000018" class="node">
<title>Node18</title>
<g id="a_Node000018"><a xlink:href="utf8_8h.html" target="_top" xlink:title=" ">
<polygon fill="white" stroke="#666666" points="330.85,-239 272.85,-239 272.85,-220 330.85,-220 330.85,-239"/>
<text text-anchor="middle" x="301.85" y="-227" font-family="Helvetica,sans-Serif" font-size="10.00">fe/utf8.h</text>
</a>
</g>
</g>
<!-- Node1&#45;&gt;Node18 -->
<g id="edge18_Node000001_Node000018" class="edge">
<title>Node1&#45;&gt;Node18</title>
<g id="a_edge18_Node000001_Node000018"><a xlink:title=" ">
<path fill="none" stroke="#63b8ff" d="M211.2,-274.98C228.41,-266.54 255.04,-253.47 274.99,-243.68"/>
<polygon fill="#63b8ff" stroke="#63b8ff" points="276.74,-246.72 284.18,-239.17 273.66,-240.43 276.74,-246.72"/>
</a>
</g>
</g>
<!-- Node4 -->
<g id="Node000004" class="node">
<title>Node4</title>
<g id="a_Node000004"><a xlink:title=" ">
<polygon fill="#e0e0e0" stroke="#999999" points="145.85,-184 77.85,-184 77.85,-165 145.85,-165 145.85,-184"/>
<text text-anchor="middle" x="111.85" y="-172" font-family="Helvetica,sans-Serif" font-size="10.00">filesystem</text>
</a>
</g>
</g>
<!-- Node3&#45;&gt;Node4 -->
<g id="edge3_Node000003_Node000004" class="edge">
<title>Node3&#45;&gt;Node4</title>
<g id="a_edge3_Node000003_Node000004"><a xlink:title=" ">
<path fill="none" stroke="#63b8ff" d="M180.67,-219.98C168.07,-211.84 148.84,-199.41 133.91,-189.76"/>
<polygon fill="#63b8ff" stroke="#63b8ff" points="135.56,-186.66 125.26,-184.17 131.76,-192.54 135.56,-186.66"/>
</a>
</g>
</g>
<!-- Node5 -->
<g id="Node000005" class="node">
<title>Node5</title>
<g id="a_Node000005"><a xlink:href="sym_8h.html" target="_top" xlink:title=" ">
<polygon fill="white" stroke="#666666" points="223.35,-184 164.35,-184 164.35,-165 223.35,-165 223.35,-184"/>
<text text-anchor="middle" x="193.85" y="-172" font-family="Helvetica,sans-Serif" font-size="10.00">fe/sym.h</text>
</a>
</g>
</g>
<!-- Node3&#45;&gt;Node5 -->
<g id="edge4_Node000003_Node000005" class="edge">
<title>Node3&#45;&gt;Node5</title>
<g id="a_edge4_Node000003_Node000005"><a xlink:title=" ">
<path fill="none" stroke="#63b8ff" d="M193.85,-219.75C193.85,-212.8 193.85,-202.85 193.85,-194.13"/>
<polygon fill="#63b8ff" stroke="#63b8ff" points="197.35,-194.09 193.85,-184.09 190.35,-194.09 197.35,-194.09"/>
</a>
</g>
</g>
<!-- Node6 -->
<g id="Node000006" class="node">
<title>Node6</title>
<g id="a_Node000006"><a xlink:title=" ">
<polygon fill="#e0e0e0" stroke="#999999" points="314.85,-19 262.85,-19 262.85,0 314.85,0 314.85,-19"/>
<text text-anchor="middle" x="288.85" y="-7" font-family="Helvetica,sans-Serif" font-size="10.00">cassert</text>
</a>
</g>
</g>
<!-- Node5&#45;&gt;Node6 -->
<g id="edge5_Node000005_Node000006" class="edge">
<title>Node5&#45;&gt;Node6</title>
<g id="a_edge5_Node000005_Node000006"><a xlink:title=" ">
<path fill="none" stroke="#63b8ff" d="M164.22,-167.05C111.43,-155.5 6.36,-132.18 3.85,-129 -1.4,-122.38 -1.04,-116.89 3.85,-110 61.21,-29.21 189.29,-13.48 252.35,-10.78"/>
<polygon fill="#63b8ff" stroke="#63b8ff" points="252.73,-14.27 262.61,-10.43 252.5,-7.27 252.73,-14.27"/>
</a>
</g>
</g>
<!-- Node7 -->
<g id="Node000007" class="node">
<title>Node7</title>
<g id="a_Node000007"><a xlink:title=" ">
<polygon fill="#e0e0e0" stroke="#999999" points="62.85,-129 12.85,-129 12.85,-110 62.85,-110 62.85,-129"/>
<text text-anchor="middle" x="37.85" y="-117" font-family="Helvetica,sans-Serif" font-size="10.00">cstring</text>
</a>
</g>
</g>
<!-- Node5&#45;&gt;Node7 -->
<g id="edge6_Node000005_Node000007" class="edge">
<title>Node5&#45;&gt;Node7</title>
<g id="a_edge6_Node000005_Node000007"><a xlink:title=" ">
<path fill="none" stroke="#63b8ff" d="M168.78,-164.98C142.74,-156.14 101.79,-142.23 72.63,-132.32"/>
<polygon fill="#63b8ff" stroke="#63b8ff" points="73.44,-128.9 62.85,-128.99 71.19,-135.53 73.44,-128.9"/>
</a>
</g>
</g>
<!-- Node8 -->
<g id="Node000008" class="node">
<title>Node8</title>
<g id="a_Node000008"><a xlink:title=" ">
<polygon fill="#e0e0e0" stroke="#999999" points="110.35,-129 81.35,-129 81.35,-110 110.35,-110 110.35,-129"/>
<text text-anchor="middle" x="95.85" y="-117" font-family="Helvetica,sans-Serif" font-size="10.00">bit</text>
</a>
</g>
</g>
<!-- Node5&#45;&gt;Node8 -->
<g id="edge7_Node000005_Node000008" class="edge">
<title>Node5&#45;&gt;Node8</title>
<g id="a_edge7_Node000005_Node000008"><a xlink:title=" ">
<path fill="none" stroke="#63b8ff" d="M178.1,-164.98C162.25,-156.41 137.61,-143.09 119.43,-133.25"/>
<polygon fill="#63b8ff" stroke="#63b8ff" points="121.05,-130.15 110.59,-128.47 117.72,-136.31 121.05,-130.15"/>
</a>
</g>
</g>
<!-- Node9 -->
<g id="Node000009" class="node">
<title>Node9</title>
<g id="a_Node000009"><a xlink:title=" ">
<polygon fill="#e0e0e0" stroke="#999999" points="188.85,-129 128.85,-129 128.85,-110 188.85,-110 188.85,-129"/>
<text text-anchor="middle" x="158.85" y="-117" font-family="Helvetica,sans-Serif" font-size="10.00">iostream</text>
</a>
</g>
</g>
<!-- Node5&#45;&gt;Node9 -->
<g id="edge8_Node000005_Node000009" class="edge">
<title>Node5&#45;&gt;Node9</title>
<g id="a_edge8_Node000005_Node000009"><a xlink:title=" ">
<path fill="none" stroke="#63b8ff" d="M188.07,-164.75C183.22,-157.42 176.17,-146.73 170.2,-137.7"/>
<polygon fill="#63b8ff" stroke="#63b8ff" points="172.95,-135.5 164.52,-129.09 167.11,-139.36 172.95,-135.5"/>
</a>
</g>
</g>
<!-- Node10 -->
<g id="Node000010" class="node">
<title>Node10</title>
<g id="a_Node000010"><a xlink:title=" ">
<polygon fill="#e0e0e0" stroke="#999999" points="250.85,-129 206.85,-129 206.85,-110 250.85,-110 250.85,-129"/>
<text text-anchor="middle" x="228.85" y="-117" font-family="Helvetica,sans-Serif" font-size="10.00">string</text>
</a>
</g>
</g>
<!-- Node5&#45;&gt;Node10 -->
<g id="edge9_Node000005_Node000010" class="edge">
<title>Node5&#45;&gt;Node10</title>
<g id="a_edge9_Node000005_Node000010"><a xlink:title=" ">
<path fill="none" stroke="#63b8ff" d="M199.62,-164.75C204.47,-157.42 211.52,-146.73 217.49,-137.7"/>
<polygon fill="#63b8ff" stroke="#63b8ff" points="220.58,-139.36 223.17,-129.09 214.74,-135.5 220.58,-139.36"/>
</a>
</g>
</g>
<!-- Node11 -->
<g id="Node000011" class="node">
<title>Node11</title>
<g id="a_Node000011"><a xlink:title=" ">
<polygon fill="#e0e0e0" stroke="#999999" points="362.35,-129 269.35,-129 269.35,-110 362.35,-110 362.35,-129"/>
<text text-anchor="middle" x="315.85" y="-117" font-family="Helvetica,sans-Serif" font-size="10.00">unordered_map</text>
</a>
</g>
</g>
<!-- Node5&#45;&gt;Node11 -->
<g id="edge10_Node000005_Node000011" class="edge">
<title>Node5&#45;&gt;Node11</title>
<g id="a_edge10_Node000005_Node000011"><a xlink:title=" ">
<path fill="none" stroke="#63b8ff" d="M213.45,-164.98C233.16,-156.42 263.8,-143.11 286.43,-133.28"/>
<polygon fill="#63b8ff" stroke="#63b8ff" points="288.11,-136.37 295.89,-129.17 285.32,-129.94 288.11,-136.37"/>
</a>
</g>
</g>
<!-- Node12 -->
<g id="Node000012" class="node">
<title>Node12</title>
<g id="a_Node000012"><a xlink:title=" ">
<polygon fill="#e0e0e0" stroke="#999999" points="466.85,-129 380.85,-129 380.85,-110 466.85,-110 466.85,-129"/>
<text text-anchor="middle" x="423.85" y="-117" font-family="Helvetica,sans-Serif" font-size="10.00">unordered_set</text>
</a>
</g>
</g>
<!-- Node5&#45;&gt;Node12 -->
<g id="edge11_Node000005_Node000012" class="edge">
<title>Node5&#45;&gt;Node12</title>
<g id="a_edge11_Node000005_Node000012"><a xlink:title=" ">
<path fill="none" stroke="#63b8ff" d="M223.44,-166.68C262.24,-157.74 330.76,-141.95 376.74,-131.36"/>
<polygon fill="#63b8ff" stroke="#63b8ff" points="377.8,-134.7 386.76,-129.05 376.23,-127.88 377.8,-134.7"/>
</a>
</g>
</g>
<!-- Node13 -->
<g id="Node000013" class="node">
<title>Node13</title>
<g id="a_Node000013"><a xlink:href="arena_8h.html" target="_top" xlink:title=" ">
<polygon fill="white" stroke="#666666" points="550.85,-129 484.85,-129 484.85,-110 550.85,-110 550.85,-129"/>
<text text-anchor="middle" x="517.85" y="-117" font-family="Helvetica,sans-Serif" font-size="10.00">fe/arena.h</text>
</a>
</g>
</g>
<!-- Node5&#45;&gt;Node13 -->
<g id="edge12_Node000005_Node000013" class="edge">
<title>Node5&#45;&gt;Node13</title>
<g id="a_edge12_Node000005_Node000013"><a xlink:title=" ">
<path fill="none" stroke="#63b8ff" d="M223.67,-166.61C226.43,-166.04 229.19,-165.49 231.85,-165 336.47,-145.61 366.14,-147.73 474.39,-129.17"/>
<polygon fill="#63b8ff" stroke="#63b8ff" points="475.15,-132.59 484.41,-127.43 473.95,-125.7 475.15,-132.59"/>
</a>
</g>
</g>
<!-- Node14 -->
<g id="Node000014" class="node">
<title>Node14</title>
<g id="a_Node000014"><a xlink:title=" ">
<polygon fill="#e0e0e0" stroke="#999999" points="399.85,-74 335.85,-74 335.85,-55 399.85,-55 399.85,-74"/>
<text text-anchor="middle" x="367.85" y="-62" font-family="Helvetica,sans-Serif" font-size="10.00">algorithm</text>
</a>
</g>
</g>
<!-- Node13&#45;&gt;Node14 -->
<g id="edge13_Node000013_Node000014" class="edge">
<title>Node13&#45;&gt;Node14</title>
<g id="a_edge13_Node000013_Node000014"><a xlink:title=" ">
<path fill="none" stroke="#63b8ff" d="M493.75,-109.98C468.96,-101.23 430.14,-87.51 402.16,-77.62"/>
<polygon fill="#63b8ff" stroke="#63b8ff" points="402.98,-74.2 392.38,-74.17 400.65,-80.8 402.98,-74.2"/>
</a>
</g>
</g>
<!-- Node15 -->
<g id="Node000015" class="node">
<title>Node15</title>
<g id="a_Node000015"><a xlink:title=" ">
<polygon fill="#e0e0e0" stroke="#999999" points="475.85,-74 417.85,-74 417.85,-55 475.85,-55 475.85,-74"/>
<text text-anchor="middle" x="446.85" y="-62" font-family="Helvetica,sans-Serif" font-size="10.00">memory</text>
</a>
</g>
</g>
<!-- Node13&#45;&gt;Node15 -->
<g id="edge14_Node000013_Node000015" class="edge">
<title>Node13&#45;&gt;Node15</title>
<g id="a_edge14_Node000013_Node000015"><a xlink:title=" ">
<path fill="none" stroke="#63b8ff" d="M506.44,-109.98C495.74,-102 479.5,-89.88 466.68,-80.31"/>
<polygon fill="#63b8ff" stroke="#63b8ff" points="468.57,-77.35 458.46,-74.17 464.38,-82.96 468.57,-77.35"/>
</a>
</g>
</g>
<!-- Node16 -->
<g id="Node000016" class="node">
<title>Node16</title>
<g id="a_Node000016"><a xlink:title=" ">
<polygon fill="#e0e0e0" stroke="#999999" points="541.35,-74 494.35,-74 494.35,-55 541.35,-55 541.35,-74"/>
<text text-anchor="middle" x="517.85" y="-62" font-family="Helvetica,sans-Serif" font-size="10.00">vector</text>
</a>
</g>
</g>
<!-- Node13&#45;&gt;Node16 -->
<g id="edge15_Node000013_Node000016" class="edge">
<title>Node13&#45;&gt;Node16</title>
<g id="a_edge15_Node000013_Node000016"><a xlink:title=" ">
<path fill="none" stroke="#63b8ff" d="M517.85,-109.75C517.85,-102.8 517.85,-92.85 517.85,-84.13"/>
<polygon fill="#63b8ff" stroke="#63b8ff" points="521.35,-84.09 517.85,-74.09 514.35,-84.09 521.35,-84.09"/>
</a>
</g>
</g>
<!-- Node17 -->
<g id="Node000017" class="node">
<title>Node17</title>
<g id="a_Node000017"><a xlink:href="assert_8h.html" target="_top" xlink:title=" ">
<polygon fill="white" stroke="#666666" points="627.85,-74 559.85,-74 559.85,-55 627.85,-55 627.85,-74"/>
<text text-anchor="middle" x="593.85" y="-62" font-family="Helvetica,sans-Serif" font-size="10.00">fe/assert.h</text>
</a>
</g>
</g>
<!-- Node13&#45;&gt;Node17 -->
<g id="edge16_Node000013_Node000017" class="edge">
<title>Node13&#45;&gt;Node17</title>
<g id="a_edge16_Node000013_Node000017"><a xlink:title=" ">
<path fill="none" stroke="#63b8ff" d="M530.06,-109.98C541.62,-101.92 559.22,-89.65 573.01,-80.03"/>
<polygon fill="#63b8ff" stroke="#63b8ff" points="575.21,-82.76 581.41,-74.17 571.21,-77.02 575.21,-82.76"/>
</a>
</g>
</g>
<!-- Node17&#45;&gt;Node6 -->
<g id="edge17_Node000017_Node000006" class="edge">
<title>Node17&#45;&gt;Node6</title>
<g id="a_edge17_Node000017_Node000006"><a xlink:title=" ">
<path fill="none" stroke="#63b8ff" d="M559.59,-56.64C556.64,-56.08 553.69,-55.52 550.85,-55 470.35,-40.21 375.62,-24.55 325.02,-16.33"/>
<polygon fill="#63b8ff" stroke="#63b8ff" points="325.35,-12.84 314.92,-14.69 324.23,-19.75 325.35,-12.84"/>
</a>
</g>
</g>
<!-- Node19 -->
<g id="Node000019" class="node">
<title>Node19</title>
<g id="a_Node000019"><a xlink:title=" ">
<polygon fill="#e0e0e0" stroke="#999999" points="290.35,-184 241.35,-184 241.35,-165 290.35,-165 290.35,-184"/>
<text text-anchor="middle" x="265.85" y="-172" font-family="Helvetica,sans-Serif" font-size="10.00">cctype</text>
</a>
</g>
</g>
<!-- Node18&#45;&gt;Node19 -->
<g id="edge19_Node000018_Node000019" class="edge">
<title>Node18&#45;&gt;Node19</title>
<g id="a_edge19_Node000018_Node000019"><a xlink:title=" ">
<path fill="none" stroke="#63b8ff" d="M295.9,-219.75C290.87,-212.34 283.51,-201.5 277.33,-192.41"/>
<polygon fill="#63b8ff" stroke="#63b8ff" points="280.19,-190.39 271.68,-184.09 274.4,-194.33 280.19,-190.39"/>
</a>
</g>
</g>
<!-- Node20 -->
<g id="Node000020" class="node">
<title>Node20</title>
<g id="a_Node000020"><a xlink:title=" ">
<polygon fill="#e0e0e0" stroke="#999999" points="362.85,-184 308.85,-184 308.85,-165 362.85,-165 362.85,-184"/>
<text text-anchor="middle" x="335.85" y="-172" font-family="Helvetica,sans-Serif" font-size="10.00">istream</text>
</a>
</g>
</g>
<!-- Node18&#45;&gt;Node20 -->
<g id="edge20_Node000018_Node000020" class="edge">
<title>Node18&#45;&gt;Node20</title>
<g id="a_edge20_Node000018_Node000020"><a xlink:title=" ">
<path fill="none" stroke="#63b8ff" d="M307.46,-219.75C312.16,-212.42 319.02,-201.73 324.81,-192.7"/>
<polygon fill="#63b8ff" stroke="#63b8ff" points="327.88,-194.4 330.34,-184.09 321.99,-190.62 327.88,-194.4"/>
</a>
</g>
</g>
<!-- Node21 -->
<g id="Node000021" class="node">
<title>Node21</title>
<g id="a_Node000021"><a xlink:title=" ">
<polygon fill="#e0e0e0" stroke="#999999" points="438.35,-184 381.35,-184 381.35,-165 438.35,-165 438.35,-184"/>
<text text-anchor="middle" x="409.85" y="-172" font-family="Helvetica,sans-Serif" font-size="10.00">ostream</text>
</a>
</g>
</g>
<!-- Node18&#45;&gt;Node21 -->
<g id="edge21_Node000018_Node000021" class="edge">
<title>Node18&#45;&gt;Node21</title>
<g id="a_edge21_Node000018_Node000021"><a xlink:title=" ">
<path fill="none" stroke="#63b8ff" d="M319.2,-219.98C336.41,-211.54 363.04,-198.47 382.99,-188.68"/>
<polygon fill="#63b8ff" stroke="#63b8ff" points="384.74,-191.72 392.18,-184.17 381.66,-185.43 384.74,-191.72"/>
</a>
</g>
</g>
</g>
</svg>
