<?xml version="1.0" encoding="UTF-8" standalone="no"?>
<!DOCTYPE svg PUBLIC "-//W3C//DTD SVG 1.1//EN"
 "http://www.w3.org/Graphics/SVG/1.1/DTD/svg11.dtd">
<!-- Generated by graphviz version 2.43.0 (0)
 -->
<!-- Title: fe/format.h Pages: 1 -->
<!--zoomable 302 -->

<svg id="main" version="1.1" xmlns="http://www.w3.org/2000/svg" xmlns:xlink="http://www.w3.org/1999/xlink" xml:space="preserve" onload="init(evt)">

<style type="text/css"><![CDATA[
.node, .edge {opacity: 0.7;}
.node.selected, .edge.selected {opacity: 1;}
.edge:hover path { stroke: red; }
.edge:hover polygon { stroke: red; fill: red; }
]]></style>

<defs>
  <circle id="rim" cx="0" cy="0" r="7"/>
  <circle id="rim2" cx="0" cy="0" r="3.5"/>
  <g id="zoomPlus">
    <use xlink:href="#rim" fill="#404040"><set attributeName="fill" to="#808080" begin="zoomplus.mouseover" end="zoomplus.mouseout"/></use>
    <path d="M-4,0h8M0,-4v8" fill="none" stroke="white" stroke-width="1.5" pointer-events="none"/>
  </g>
  <g id="zoomMin">
    <use xlink:href="#rim" fill="#404040"><set attributeName="fill" to="#808080" begin="zoomminus.mouseover" end="zoomminus.mouseout"/></use>
    <path d="M-4,0h8" fill="none" stroke="white" stroke-width="1.5" pointer-events="none"/>
  </g>
  <g id="arrowUp" transform="translate(30 24)">
    <use xlink:href="#rim"/>
    <path pointer-events="none" fill="none" stroke="white" stroke-width="1.5" d="M0,-3.0v7 M-2.5,-0.5L0,-3.0L2.5,-0.5"/>
  </g>
  <g id="arrowRight" transform="rotate(90) translate(36 -43)">
    <use xlink:href="#rim"/>
    <path pointer-events="none" fill="none" stroke="white" stroke-width="1.5" d="M0,-3.0v7 M-2.5,-0.5L0,-3.0L2.5,-0.5"/>
  </g>
  <g id="arrowDown" transform="rotate(180) translate(-30 -48)">
    <use xlink:href="#rim"/>
    <path pointer-events="none" fill="none" stroke="white" stroke-width="1.5" d="M0,-3.0v7 M-2.5,-0.5L0,-3.0L2.5,-0.5"/>
  </g>
  <g id="arrowLeft" transform="rotate(270) translate(-36 17)">
    <use xlink:href="#rim"/>
    <path pointer-events="none" fill="none" stroke="white" stroke-width="1.5" d="M0,-3.0v7 M-2.5,-0.5L0,-3.0L2.5,-0.5"/>
  </g>
  <g id="resetDef">
    <use xlink:href="#rim2" fill="#404040"><set attributeName="fill" to="#808080" begin="reset.mouseover" end="reset.mouseout"/></use>
  </g>
</defs>
<script type="application/ecmascript">
var viewWidth = 861;
var viewHeight = 302;
var sectionId = 'dynsection-0';
</script>
<script type="application/ecmascript" xlink:href="svg.min.js"/>
<svg id="graph" class="graph">
<g id="viewport">
<title>fe/format.h</title>
<!-- Node1 -->
<g id="Node000001" class="node">
<title>Node1</title>
<g id="a_Node000001"><a xlink:title=" ">
<polygon fill="#999999" stroke="#666666" points="269.42,-294 198.42,-294 198.42,-275 269.42,-275 269.42,-294"/>
<text text-anchor="middle" x="233.92" y="-282" font-family="Helvetica,sans-Serif" font-size="10.00">fe/format.h</text>
</a>
</g>
</g>
<!-- Node2 -->
<g id="Node000002" class="node">
<title>Node2</title>
<g id="a_Node000002"><a xlink:title=" ">
<polygon fill="#e0e0e0" stroke="#999999" points="188.92,-239 138.92,-239 138.92,-220 188.92,-220 188.92,-239"/>
<text text-anchor="middle" x="163.92" y="-227" font-family="Helvetica,sans-Serif" font-size="10.00">format</text>
</a>
</g>
</g>
<!-- Node1&#45;&gt;Node2 -->
<g id="edge1_Node000001_Node000002" class="edge">
<title>Node1&#45;&gt;Node2</title>
<g id="a_edge1_Node000001_Node000002"><a xlink:title=" ">
<path fill="none" stroke="#63b8ff" d="M222.67,-274.98C212.12,-267 196.12,-254.88 183.48,-245.31"/>
<polygon fill="#63b8ff" stroke="#63b8ff" points="185.46,-242.42 175.37,-239.17 181.23,-248 185.46,-242.42"/>
</a>
</g>
</g>
<!-- Node3 -->
<g id="Node000003" class="node">
<title>Node3</title>
<g id="a_Node000003"><a xlink:href="loc_8h.html" target="_top" xlink:title=" ">
<polygon fill="white" stroke="#666666" points="260.42,-239 207.42,-239 207.42,-220 260.42,-220 260.42,-239"/>
<text text-anchor="middle" x="233.92" y="-227" font-family="Helvetica,sans-Serif" font-size="10.00">fe/loc.h</text>
</a>
</g>
</g>
<!-- Node1&#45;&gt;Node3 -->
<g id="edge2_Node000001_Node000003" class="edge">
<title>Node1&#45;&gt;Node3</title>
<g id="a_edge2_Node000001_Node000003"><a xlink:title=" ">
<path fill="none" stroke="#63b8ff" d="M233.92,-274.75C233.92,-267.8 233.92,-257.85 233.92,-249.13"/>
<polygon fill="#63b8ff" stroke="#63b8ff" points="237.42,-249.09 233.92,-239.09 230.42,-249.09 237.42,-249.09"/>
</a>
</g>
</g>
<!-- Node22 -->
<g id="Node000022" class="node">
<title>Node22</title>
<g id="a_Node000022"><a xlink:href="utf8_8h.html" target="_top" xlink:title=" ">
<polygon fill="white" stroke="#666666" points="709.92,-239 651.92,-239 651.92,-220 709.92,-220 709.92,-239"/>
<text text-anchor="middle" x="680.92" y="-227" font-family="Helvetica,sans-Serif" font-size="10.00">fe/utf8.h</text>
</a>
</g>
</g>
<!-- Node1&#45;&gt;Node22 -->
<g id="edge22_Node000001_Node000022" class="edge">
<title>Node1&#45;&gt;Node22</title>
<g id="a_edge22_Node000001_Node000022"><a xlink:title=" ">
<path fill="none" stroke="#63b8ff" d="M269.75,-279.25C352.38,-269.45 555.8,-245.34 641.67,-235.15"/>
<polygon fill="#63b8ff" stroke="#63b8ff" points="642.26,-238.61 651.78,-233.96 641.44,-231.66 642.26,-238.61"/>
</a>
</g>
</g>
<!-- Node4 -->
<g id="Node000004" class="node">
<title>Node4</title>
<g id="a_Node000004"><a xlink:title=" ">
<polygon fill="#e0e0e0" stroke="#999999" points="185.92,-184 117.92,-184 117.92,-165 185.92,-165 185.92,-184"/>
<text text-anchor="middle" x="151.92" y="-172" font-family="Helvetica,sans-Serif" font-size="10.00">filesystem</text>
</a>
</g>
</g>
<!-- Node3&#45;&gt;Node4 -->
<g id="edge3_Node000003_Node000004" class="edge">
<title>Node3&#45;&gt;Node4</title>
<g id="a_edge3_Node000003_Node000004"><a xlink:title=" ">
<path fill="none" stroke="#63b8ff" d="M220.75,-219.98C208.15,-211.84 188.92,-199.41 173.98,-189.76"/>
<polygon fill="#63b8ff" stroke="#63b8ff" points="175.63,-186.66 165.34,-184.17 171.83,-192.54 175.63,-186.66"/>
</a>
</g>
</g>
<!-- Node5 -->
<g id="Node000005" class="node">
<title>Node5</title>
<g id="a_Node000005"><a xlink:href="sym_8h.html" target="_top" xlink:title=" ">
<polygon fill="white" stroke="#666666" points="263.42,-184 204.42,-184 204.42,-165 263.42,-165 263.42,-184"/>
<text text-anchor="middle" x="233.92" y="-172" font-family="Helvetica,sans-Serif" font-size="10.00">fe/sym.h</text>
</a>
</g>
</g>
<!-- Node3&#45;&gt;Node5 -->
<g id="edge4_Node000003_Node000005" class="edge">
<title>Node3&#45;&gt;Node5</title>
<g id="a_edge4_Node000003_Node000005"><a xlink:title=" ">
<path fill="none" stroke="#63b8ff" d="M233.92,-219.75C233.92,-212.8 233.92,-202.85 233.92,-194.13"/>
<polygon fill="#63b8ff" stroke="#63b8ff" points="237.42,-194.09 233.92,-184.09 230.42,-194.09 237.42,-194.09"/>
</a>
</g>
</g>
<!-- Node6 -->
<g id="Node000006" class="node">
<title>Node6</title>
<g id="a_Node000006"><a xlink:title=" ">
<polygon fill="#e0e0e0" stroke="#999999" points="356.92,-19 304.92,-19 304.92,0 356.92,0 356.92,-19"/>
<text text-anchor="middle" x="330.92" y="-7" font-family="Helvetica,sans-Serif" font-size="10.00">cassert</text>
</a>
</g>
</g>
<!-- Node5&#45;&gt;Node6 -->
<g id="edge5_Node000005_Node000006" class="edge">
<title>Node5&#45;&gt;Node6</title>
<g id="a_edge5_Node000005_Node000006"><a xlink:title=" ">
<path fill="none" stroke="#63b8ff" d="M204.13,-166.93C201.02,-166.27 197.91,-165.61 194.92,-165 110.48,-147.63 -37.52,-182.63 8.92,-110 40.27,-60.98 217.27,-28.07 294.68,-15.83"/>
<polygon fill="#63b8ff" stroke="#63b8ff" points="295.57,-19.23 304.92,-14.24 294.5,-12.31 295.57,-19.23"/>
</a>
</g>
</g>
<!-- Node7 -->
<g id="Node000007" class="node">
<title>Node7</title>
<g id="a_Node000007"><a xlink:title=" ">
<polygon fill="#e0e0e0" stroke="#999999" points="67.92,-129 17.92,-129 17.92,-110 67.92,-110 67.92,-129"/>
<text text-anchor="middle" x="42.92" y="-117" font-family="Helvetica,sans-Serif" font-size="10.00">cstring</text>
</a>
</g>
</g>
<!-- Node5&#45;&gt;Node7 -->
<g id="edge6_Node000005_Node000007" class="edge">
<title>Node5&#45;&gt;Node7</title>
<g id="a_edge6_Node000005_Node000007"><a xlink:title=" ">
<path fill="none" stroke="#63b8ff" d="M204.08,-165.22C169.99,-155.76 114.26,-140.3 78.09,-130.26"/>
<polygon fill="#63b8ff" stroke="#63b8ff" points="78.56,-126.76 67.99,-127.46 76.69,-133.5 78.56,-126.76"/>
</a>
</g>
</g>
<!-- Node8 -->
<g id="Node000008" class="node">
<title>Node8</title>
<g id="a_Node000008"><a xlink:title=" ">
<polygon fill="#e0e0e0" stroke="#999999" points="115.42,-129 86.42,-129 86.42,-110 115.42,-110 115.42,-129"/>
<text text-anchor="middle" x="100.92" y="-117" font-family="Helvetica,sans-Serif" font-size="10.00">bit</text>
</a>
</g>
</g>
<!-- Node5&#45;&gt;Node8 -->
<g id="edge7_Node000005_Node000008" class="edge">
<title>Node5&#45;&gt;Node8</title>
<g id="a_edge7_Node000005_Node000008"><a xlink:title=" ">
<path fill="none" stroke="#63b8ff" d="M212.55,-164.98C188.67,-155.47 150.09,-140.1 125.12,-130.14"/>
<polygon fill="#63b8ff" stroke="#63b8ff" points="126.23,-126.82 115.65,-126.37 123.64,-133.32 126.23,-126.82"/>
</a>
</g>
</g>
<!-- Node9 -->
<g id="Node000009" class="node">
<title>Node9</title>
<g id="a_Node000009"><a xlink:title=" ">
<polygon fill="#e0e0e0" stroke="#999999" points="193.92,-129 133.92,-129 133.92,-110 193.92,-110 193.92,-129"/>
<text text-anchor="middle" x="163.92" y="-117" font-family="Helvetica,sans-Serif" font-size="10.00">iostream</text>
</a>
</g>
</g>
<!-- Node5&#45;&gt;Node9 -->
<g id="edge8_Node000005_Node000009" class="edge">
<title>Node5&#45;&gt;Node9</title>
<g id="a_edge8_Node000005_Node000009"><a xlink:title=" ">
<path fill="none" stroke="#63b8ff" d="M222.67,-164.98C212.12,-157 196.12,-144.88 183.48,-135.31"/>
<polygon fill="#63b8ff" stroke="#63b8ff" points="185.46,-132.42 175.37,-129.17 181.23,-138 185.46,-132.42"/>
</a>
</g>
</g>
<!-- Node10 -->
<g id="Node000010" class="node">
<title>Node10</title>
<g id="a_Node000010"><a xlink:title=" ">
<polygon fill="#e0e0e0" stroke="#999999" points="255.92,-129 211.92,-129 211.92,-110 255.92,-110 255.92,-129"/>
<text text-anchor="middle" x="233.92" y="-117" font-family="Helvetica,sans-Serif" font-size="10.00">string</text>
</a>
</g>
</g>
<!-- Node5&#45;&gt;Node10 -->
<g id="edge9_Node000005_Node000010" class="edge">
<title>Node5&#45;&gt;Node10</title>
<g id="a_edge9_Node000005_Node000010"><a xlink:title=" ">
<path fill="none" stroke="#63b8ff" d="M233.92,-164.75C233.92,-157.8 233.92,-147.85 233.92,-139.13"/>
<polygon fill="#63b8ff" stroke="#63b8ff" points="237.42,-139.09 233.92,-129.09 230.42,-139.09 237.42,-139.09"/>
</a>
</g>
</g>
<!-- Node11 -->
<g id="Node000011" class="node">
<title>Node11</title>
<g id="a_Node000011"><a xlink:title=" ">
<polygon fill="#e0e0e0" stroke="#999999" points="367.42,-129 274.42,-129 274.42,-110 367.42,-110 367.42,-129"/>
<text text-anchor="middle" x="320.92" y="-117" font-family="Helvetica,sans-Serif" font-size="10.00">unordered_map</text>
</a>
</g>
</g>
<!-- Node5&#45;&gt;Node11 -->
<g id="edge10_Node000005_Node000011" class="edge">
<title>Node5&#45;&gt;Node11</title>
<g id="a_edge10_Node000005_Node000011"><a xlink:title=" ">
<path fill="none" stroke="#63b8ff" d="M247.9,-164.98C261.39,-156.77 282.06,-144.18 297.96,-134.49"/>
<polygon fill="#63b8ff" stroke="#63b8ff" points="299.97,-137.36 306.69,-129.17 296.33,-131.38 299.97,-137.36"/>
</a>
</g>
</g>
<!-- Node12 -->
<g id="Node000012" class="node">
<title>Node12</title>
<g id="a_Node000012"><a xlink:title=" ">
<polygon fill="#e0e0e0" stroke="#999999" points="471.92,-129 385.92,-129 385.92,-110 471.92,-110 471.92,-129"/>
<text text-anchor="middle" x="428.92" y="-117" font-family="Helvetica,sans-Serif" font-size="10.00">unordered_set</text>
</a>
</g>
</g>
<!-- Node5&#45;&gt;Node12 -->
<g id="edge11_Node000005_Node000012" class="edge">
<title>Node5&#45;&gt;Node12</title>
<g id="a_edge11_Node000005_Node000012"><a xlink:title=" ">
<path fill="none" stroke="#63b8ff" d="M263.54,-165.45C296.55,-156.48 350.18,-141.9 387.38,-131.79"/>
<polygon fill="#63b8ff" stroke="#63b8ff" points="388.67,-135.07 397.41,-129.07 386.84,-128.31 388.67,-135.07"/>
</a>
</g>
</g>
<!-- Node13 -->
<g id="Node000013" class="node">
<title>Node13</title>
<g id="a_Node000013"><a xlink:href="arena_8h.html" target="_top" xlink:title=" ">
<polygon fill="white" stroke="#666666" points="555.92,-129 489.92,-129 489.92,-110 555.92,-110 555.92,-129"/>
<text text-anchor="middle" x="522.92" y="-117" font-family="Helvetica,sans-Serif" font-size="10.00">fe/arena.h</text>
</a>
</g>
</g>
<!-- Node5&#45;&gt;Node13 -->
<g id="edge12_Node000005_Node000013" class="edge">
<title>Node5&#45;&gt;Node13</title>
<g id="a_edge12_Node000005_Node000013"><a xlink:title=" ">
<path fill="none" stroke="#63b8ff" d="M263.62,-168.36C308.27,-160.59 395.62,-145.21 479.92,-129.16"/>
<polygon fill="#63b8ff" stroke="#63b8ff" points="480.75,-132.56 489.92,-127.25 479.44,-125.69 480.75,-132.56"/>
</a>
</g>
</g>
<!-- Node14 -->
<g id="Node000014" class="node">
<title>Node14</title>
<g id="a_Node000014"><a xlink:title=" ">
<polygon fill="#e0e0e0" stroke="#999999" points="200.92,-74 136.92,-74 136.92,-55 200.92,-55 200.92,-74"/>
<text text-anchor="middle" x="168.92" y="-62" font-family="Helvetica,sans-Serif" font-size="10.00">algorithm</text>
</a>
</g>
</g>
<!-- Node13&#45;&gt;Node14 -->
<g id="edge13_Node000013_Node000014" class="edge">
<title>Node13&#45;&gt;Node14</title>
<g id="a_edge13_Node000013_Node000014"><a xlink:title=" ">
<path fill="none" stroke="#63b8ff" d="M489.49,-111.52C486.6,-110.98 483.71,-110.47 480.92,-110 364.25,-90.47 331.42,-94.13 211.08,-74.08"/>
<polygon fill="#63b8ff" stroke="#63b8ff" points="211.55,-70.61 201.11,-72.4 210.39,-77.52 211.55,-70.61"/>
</a>
</g>
</g>
<!-- Node15 -->
<g id="Node000015" class="node">
<title>Node15</title>
<g id="a_Node000015"><a xlink:title=" ">
<polygon fill="#e0e0e0" stroke="#999999" points="250.92,-74 218.92,-74 218.92,-55 250.92,-55 250.92,-74"/>
<text text-anchor="middle" x="234.92" y="-62" font-family="Helvetica,sans-Serif" font-size="10.00">list</text>
</a>
</g>
</g>
<!-- Node13&#45;&gt;Node15 -->
<g id="edge14_Node000013_Node000015" class="edge">
<title>Node13&#45;&gt;Node15</title>
<g id="a_edge14_Node000013_Node000015"><a xlink:title=" ">
<path fill="none" stroke="#63b8ff" d="M489.47,-111.61C486.58,-111.05 483.7,-110.51 480.92,-110 386.18,-92.7 358.26,-97.74 260.9,-73.87"/>
<polygon fill="#63b8ff" stroke="#63b8ff" points="261.49,-70.41 250.94,-71.39 259.8,-77.2 261.49,-70.41"/>
</a>
</g>
</g>
<!-- Node16 -->
<g id="Node000016" class="node">
<title>Node16</title>
<g id="a_Node000016"><a xlink:title=" ">
<polygon fill="#e0e0e0" stroke="#999999" points="326.92,-74 268.92,-74 268.92,-55 326.92,-55 326.92,-74"/>
<text text-anchor="middle" x="297.92" y="-62" font-family="Helvetica,sans-Serif" font-size="10.00">memory</text>
</a>
</g>
</g>
<!-- Node13&#45;&gt;Node16 -->
<g id="edge15_Node000013_Node000016" class="edge">
<title>Node13&#45;&gt;Node16</title>
<g id="a_edge15_Node000013_Node000016"><a xlink:title=" ">
<path fill="none" stroke="#63b8ff" d="M489.72,-110.68C448.98,-101.08 380.01,-84.84 336.82,-74.66"/>
<polygon fill="#63b8ff" stroke="#63b8ff" points="337.5,-71.23 326.96,-72.34 335.89,-78.04 337.5,-71.23"/>
</a>
</g>
</g>
<!-- Node17 -->
<g id="Node000017" class="node">
<title>Node17</title>
<g id="a_Node000017"><a xlink:title=" ">
<polygon fill="#e0e0e0" stroke="#999999" points="450.42,-74 345.42,-74 345.42,-55 450.42,-55 450.42,-74"/>
<text text-anchor="middle" x="397.92" y="-62" font-family="Helvetica,sans-Serif" font-size="10.00">memory_resource</text>
</a>
</g>
</g>
<!-- Node13&#45;&gt;Node17 -->
<g id="edge16_Node000013_Node000017" class="edge">
<title>Node13&#45;&gt;Node17</title>
<g id="a_edge16_Node000013_Node000017"><a xlink:title=" ">
<path fill="none" stroke="#63b8ff" d="M502.84,-109.98C482.55,-101.38 450.97,-87.99 427.75,-78.15"/>
<polygon fill="#63b8ff" stroke="#63b8ff" points="428.94,-74.85 418.37,-74.17 426.21,-81.3 428.94,-74.85"/>
</a>
</g>
</g>
<!-- Node18 -->
<g id="Node000018" class="node">
<title>Node18</title>
<g id="a_Node000018"><a xlink:title=" ">
<polygon fill="#e0e0e0" stroke="#999999" points="505.42,-74 468.42,-74 468.42,-55 505.42,-55 505.42,-74"/>
<text text-anchor="middle" x="486.92" y="-62" font-family="Helvetica,sans-Serif" font-size="10.00">new</text>
</a>
</g>
</g>
<!-- Node13&#45;&gt;Node18 -->
<g id="edge17_Node000013_Node000018" class="edge">
<title>Node13&#45;&gt;Node18</title>
<g id="a_edge17_Node000013_Node000018"><a xlink:title=" ">
<path fill="none" stroke="#63b8ff" d="M516.98,-109.75C511.94,-102.34 504.58,-91.5 498.41,-82.41"/>
<polygon fill="#63b8ff" stroke="#63b8ff" points="501.27,-80.39 492.76,-74.09 495.48,-84.33 501.27,-80.39"/>
</a>
</g>
</g>
<!-- Node19 -->
<g id="Node000019" class="node">
<title>Node19</title>
<g id="a_Node000019"><a xlink:title=" ">
<polygon fill="#e0e0e0" stroke="#999999" points="592.42,-74 523.42,-74 523.42,-55 592.42,-55 592.42,-74"/>
<text text-anchor="middle" x="557.92" y="-62" font-family="Helvetica,sans-Serif" font-size="10.00">type_traits</text>
</a>
</g>
</g>
<!-- Node13&#45;&gt;Node19 -->
<g id="edge18_Node000013_Node000019" class="edge">
<title>Node13&#45;&gt;Node19</title>
<g id="a_edge18_Node000013_Node000019"><a xlink:title=" ">
<path fill="none" stroke="#63b8ff" d="M528.7,-109.75C533.54,-102.42 540.6,-91.73 546.57,-82.7"/>
<polygon fill="#63b8ff" stroke="#63b8ff" points="549.66,-84.36 552.25,-74.09 543.82,-80.5 549.66,-84.36"/>
</a>
</g>
</g>
<!-- Node20 -->
<g id="Node000020" class="node">
<title>Node20</title>
<g id="a_Node000020"><a xlink:title=" ">
<polygon fill="#e0e0e0" stroke="#999999" points="655.42,-74 610.42,-74 610.42,-55 655.42,-55 655.42,-74"/>
<text text-anchor="middle" x="632.92" y="-62" font-family="Helvetica,sans-Serif" font-size="10.00">utility</text>
</a>
</g>
</g>
<!-- Node13&#45;&gt;Node20 -->
<g id="edge19_Node000013_Node000020" class="edge">
<title>Node13&#45;&gt;Node20</title>
<g id="a_edge19_Node000013_Node000020"><a xlink:title=" ">
<path fill="none" stroke="#63b8ff" d="M540.59,-109.98C558.21,-101.5 585.5,-88.35 605.85,-78.54"/>
<polygon fill="#63b8ff" stroke="#63b8ff" points="607.44,-81.66 614.93,-74.17 604.4,-75.36 607.44,-81.66"/>
</a>
</g>
</g>
<!-- Node21 -->
<g id="Node000021" class="node">
<title>Node21</title>
<g id="a_Node000021"><a xlink:href="assert_8h.html" target="_top" xlink:title=" ">
<polygon fill="white" stroke="#666666" points="741.92,-74 673.92,-74 673.92,-55 741.92,-55 741.92,-74"/>
<text text-anchor="middle" x="707.92" y="-62" font-family="Helvetica,sans-Serif" font-size="10.00">fe/assert.h</text>
</a>
</g>
</g>
<!-- Node13&#45;&gt;Node21 -->
<g id="edge20_Node000013_Node000021" class="edge">
<title>Node13&#45;&gt;Node21</title>
<g id="a_edge20_Node000013_Node000021"><a xlink:title=" ">
<path fill="none" stroke="#63b8ff" d="M552.64,-109.98C583.97,-101.01 633.49,-86.82 668.16,-76.89"/>
<polygon fill="#63b8ff" stroke="#63b8ff" points="669.32,-80.2 677.96,-74.08 667.39,-73.47 669.32,-80.2"/>
</a>
</g>
</g>
<!-- Node21&#45;&gt;Node6 -->
<g id="edge21_Node000021_Node000006" class="edge">
<title>Node21&#45;&gt;Node6</title>
<g id="a_edge21_Node000021_Node000006"><a xlink:title=" ">
<path fill="none" stroke="#63b8ff" d="M673.85,-56.72C670.5,-56.11 667.15,-55.53 663.92,-55 556.45,-37.45 428.62,-21.83 367.29,-14.66"/>
<polygon fill="#63b8ff" stroke="#63b8ff" points="367.67,-11.18 357.33,-13.5 366.86,-18.13 367.67,-11.18"/>
</a>
</g>
</g>
<!-- Node22&#45;&gt;Node21 -->
<g id="edge26_Node000022_Node000021" class="edge">
<title>Node22&#45;&gt;Node21</title>
<g id="a_edge26_Node000022_Node000021"><a xlink:title=" ">
<path fill="none" stroke="#63b8ff" d="M671.31,-219.69C663.05,-211.41 651.72,-198.18 646.92,-184 644.21,-176 644.63,-173.13 646.92,-165 656.04,-132.68 678.92,-100.5 693.92,-81.83"/>
<polygon fill="#63b8ff" stroke="#63b8ff" points="696.7,-83.96 700.37,-74.03 691.3,-79.5 696.7,-83.96"/>
</a>
</g>
</g>
<!-- Node23 -->
<g id="Node000023" class="node">
<title>Node23</title>
<g id="a_Node000023"><a xlink:title=" ">
<polygon fill="#e0e0e0" stroke="#999999" points="705.42,-184 656.42,-184 656.42,-165 705.42,-165 705.42,-184"/>
<text text-anchor="middle" x="680.92" y="-172" font-family="Helvetica,sans-Serif" font-size="10.00">cctype</text>
</a>
</g>
</g>
<!-- Node22&#45;&gt;Node23 -->
<g id="edge23_Node000022_Node000023" class="edge">
<title>Node22&#45;&gt;Node23</title>
<g id="a_edge23_Node000022_Node000023"><a xlink:title=" ">
<path fill="none" stroke="#63b8ff" d="M680.92,-219.75C680.92,-212.8 680.92,-202.85 680.92,-194.13"/>
<polygon fill="#63b8ff" stroke="#63b8ff" points="684.42,-194.09 680.92,-184.09 677.42,-194.09 684.42,-194.09"/>
</a>
</g>
</g>
<!-- Node24 -->
<g id="Node000024" class="node">
<title>Node24</title>
<g id="a_Node000024"><a xlink:title=" ">
<polygon fill="#e0e0e0" stroke="#999999" points="777.92,-184 723.92,-184 723.92,-165 777.92,-165 777.92,-184"/>
<text text-anchor="middle" x="750.92" y="-172" font-family="Helvetica,sans-Serif" font-size="10.00">istream</text>
</a>
</g>
</g>
<!-- Node22&#45;&gt;Node24 -->
<g id="edge24_Node000022_Node000024" class="edge">
<title>Node22&#45;&gt;Node24</title>
<g id="a_edge24_Node000022_Node000024"><a xlink:title=" ">
<path fill="none" stroke="#63b8ff" d="M692.17,-219.98C702.72,-212 718.72,-199.88 731.36,-190.31"/>
<polygon fill="#63b8ff" stroke="#63b8ff" points="733.61,-193 739.47,-184.17 729.38,-187.42 733.61,-193"/>
</a>
</g>
</g>
<!-- Node25 -->
<g id="Node000025" class="node">
<title>Node25</title>
<g id="a_Node000025"><a xlink:title=" ">
<polygon fill="#e0e0e0" stroke="#999999" points="853.42,-184 796.42,-184 796.42,-165 853.42,-165 853.42,-184"/>
<text text-anchor="middle" x="824.92" y="-172" font-family="Helvetica,sans-Serif" font-size="10.00">ostream</text>
</a>
</g>
</g>
<!-- Node22&#45;&gt;Node25 -->
<g id="edge25_Node000022_Node000025" class="edge">
<title>Node22&#45;&gt;Node25</title>
<g id="a_edge25_Node000022_Node000025"><a xlink:title=" ">
<path fill="none" stroke="#63b8ff" d="M704.06,-219.98C727.74,-211.27 764.79,-197.63 791.63,-187.75"/>
<polygon fill="#63b8ff" stroke="#63b8ff" points="793.19,-190.91 801.36,-184.17 790.77,-184.34 793.19,-190.91"/>
</a>
</g>
</g>
</g>
</svg>

<g id="navigator" transform="translate(0 0)" fill="#404254">
  <rect fill="#f2f5e9" fill-opacity="0.5" stroke="#606060" stroke-width=".5" x="0" y="0" width="60" height="60"/>
  <use id="zoomplus" xlink:href="#zoomPlus" x="17" y="9" onmousedown="handleZoom(evt,'in')"/>
  <use id="zoomminus" xlink:href="#zoomMin" x="42" y="9" onmousedown="handleZoom(evt,'out')"/>
  <use id="reset" xlink:href="#resetDef" x="30" y="36" onmousedown="handleReset()"/>
   <use id="arrowup" xlink:href="#arrowUp" x="0" y="0" onmousedown="handlePan(0,-1)"/>
  <use id="arrowright" xlink:href="#arrowRight" x="0" y="0" onmousedown="handlePan(1,0)"/>
  <use id="arrowdown" xlink:href="#arrowDown" x="0" y="0" onmousedown="handlePan(0,1)"/>
  <use id="arrowleft" xlink:href="#arrowLeft" x="0" y="0" onmousedown="handlePan(-1,0)"/>
</g>
<svg viewBox="0 0 15 15" width="100%" height="30px" preserveAspectRatio="xMaxYMin meet">
 <g id="arrow_out" transform="scale(0.3 0.3)">
  <a xlink:href="format_8h__incl_org.svg" target="_base">
   <rect id="button" ry="5" rx="5" y="6" x="6" height="38" width="38"
        fill="#f2f5e9" fill-opacity="0.5" stroke="#606060" stroke-width="1.0"/>
   <path id="arrow"
     d="M 11.500037,31.436501 C 11.940474,20.09759 22.043105,11.32322 32.158766,21.979434 L 37.068811,17.246167 C 37.068811,17.246167 37.088388,32 37.088388,32 L 22.160133,31.978069 C 22.160133,31.978069 26.997745,27.140456 26.997745,27.140456 C 18.528582,18.264221 13.291696,25.230495 11.500037,31.436501 z"
     style="fill:#404040;"/>
  </a>
 </g>
</svg>

<style type='text/css'>
<![CDATA[
[data-mouse-over-selected='false'] { opacity: 0.7; }
[data-mouse-over-selected='true']  { opacity: 1.0; }
]]>
</style>
<script type="application/ecmascript"><![CDATA[
document.addEventListener('DOMContentLoaded', (event) => {
  highlightEdges();
  highlightAdjacentNodes();
});
]]></script>
</svg>
