<?xml version="1.0" encoding="UTF-8" standalone="no"?>
<!DOCTYPE svg PUBLIC "-//W3C//DTD SVG 1.1//EN"
 "http://www.w3.org/Graphics/SVG/1.1/DTD/svg11.dtd">
<!-- Generated by graphviz version 2.43.0 (0)
 -->
<!-- Title: fe/hash.h Pages: 1 -->
<svg width="450pt" height="412pt"
 viewBox="0.00 0.00 450.00 412.00" xmlns="http://www.w3.org/2000/svg" xmlns:xlink="http://www.w3.org/1999/xlink">
<g id="graph0" class="graph" transform="scale(1 1) rotate(0) translate(4 408)">
<title>fe/hash.h</title>
<!-- Node1 -->
<g id="Node000001" class="node">
<title>Node1</title>
<g id="a_Node000001"><a xlink:title=" ">
<polygon fill="#999999" stroke="#666666" points="121,-404 59,-404 59,-385 121,-385 121,-404"/>
<text text-anchor="middle" x="90" y="-392" font-family="Helvetica,sans-Serif" font-size="10.00">fe/hash.h</text>
</a>
</g>
</g>
<!-- Node2 -->
<g id="Node000002" class="node">
<title>Node2</title>
<g id="a_Node000002"><a xlink:href="bitset_8h.html" target="_top" xlink:title=" ">
<polygon fill="white" stroke="#666666" points="123,-349 57,-349 57,-330 123,-330 123,-349"/>
<text text-anchor="middle" x="90" y="-337" font-family="Helvetica,sans-Serif" font-size="10.00">fe/bitset.h</text>
</a>
</g>
</g>
<!-- Node1&#45;&gt;Node2 -->
<g id="edge1_Node000001_Node000002" class="edge">
<title>Node1&#45;&gt;Node2</title>
<g id="a_edge1_Node000001_Node000002"><a xlink:title=" ">
<path fill="none" stroke="#63b8ff" d="M90,-374.66C90,-365.93 90,-355.99 90,-349.09"/>
<polygon fill="#63b8ff" stroke="#63b8ff" points="86.5,-374.75 90,-384.75 93.5,-374.75 86.5,-374.75"/>
</a>
</g>
</g>
<!-- Node4 -->
<g id="Node000004" class="node">
<title>Node4</title>
<g id="a_Node000004"><a xlink:href="dbg_8h.html" target="_top" xlink:title=" ">
<polygon fill="white" stroke="#666666" points="56,-239 0,-239 0,-220 56,-220 56,-239"/>
<text text-anchor="middle" x="28" y="-227" font-family="Helvetica,sans-Serif" font-size="10.00">fe/dbg.h</text>
</a>
</g>
</g>
<!-- Node1&#45;&gt;Node4 -->
<g id="edge18_Node000001_Node000004" class="edge">
<title>Node1&#45;&gt;Node4</title>
<g id="a_edge18_Node000001_Node000004"><a xlink:title=" ">
<path fill="none" stroke="#63b8ff" d="M71.13,-378.17C62.74,-370.33 53.52,-360.1 48,-349 29.22,-311.27 27.62,-259.3 27.79,-239.06"/>
<polygon fill="#63b8ff" stroke="#63b8ff" points="68.97,-380.92 78.78,-384.91 73.59,-375.67 68.97,-380.92"/>
</a>
</g>
</g>
<!-- Node14 -->
<g id="Node000014" class="node">
<title>Node14</title>
<g id="a_Node000014"><a xlink:href="xtrie_8h.html" target="_top" xlink:title=" ">
<polygon fill="white" stroke="#666666" points="202.5,-349 141.5,-349 141.5,-330 202.5,-330 202.5,-349"/>
<text text-anchor="middle" x="172" y="-337" font-family="Helvetica,sans-Serif" font-size="10.00">fe/xtrie.h</text>
</a>
</g>
</g>
<!-- Node1&#45;&gt;Node14 -->
<g id="edge19_Node000001_Node000014" class="edge">
<title>Node1&#45;&gt;Node14</title>
<g id="a_edge19_Node000001_Node000014"><a xlink:title=" ">
<path fill="none" stroke="#63b8ff" d="M111.78,-379.42C126.66,-369.81 145.91,-357.37 158.59,-349.17"/>
<polygon fill="#63b8ff" stroke="#63b8ff" points="109.67,-376.62 103.17,-384.98 113.47,-382.5 109.67,-376.62"/>
</a>
</g>
</g>
<!-- Node3 -->
<g id="Node000003" class="node">
<title>Node3</title>
<g id="a_Node000003"><a xlink:href="format_8h.html" target="_top" xlink:title=" ">
<polygon fill="white" stroke="#666666" points="127.5,-294 56.5,-294 56.5,-275 127.5,-275 127.5,-294"/>
<text text-anchor="middle" x="92" y="-282" font-family="Helvetica,sans-Serif" font-size="10.00">fe/format.h</text>
</a>
</g>
</g>
<!-- Node2&#45;&gt;Node3 -->
<g id="edge2_Node000002_Node000003" class="edge">
<title>Node2&#45;&gt;Node3</title>
<g id="a_edge2_Node000002_Node000003"><a xlink:title=" ">
<path fill="none" stroke="#63b8ff" d="M90.71,-319.66C91.04,-310.93 91.42,-300.99 91.68,-294.09"/>
<polygon fill="#63b8ff" stroke="#63b8ff" points="87.21,-319.62 90.33,-329.75 94.2,-319.89 87.21,-319.62"/>
</a>
</g>
</g>
<!-- Node3&#45;&gt;Node4 -->
<g id="edge3_Node000003_Node000004" class="edge">
<title>Node3&#45;&gt;Node4</title>
<g id="a_edge3_Node000003_Node000004"><a xlink:title=" ">
<path fill="none" stroke="#63b8ff" d="M74.01,-268.6C62.54,-259.11 48.09,-247.13 38.47,-239.17"/>
<polygon fill="#63b8ff" stroke="#63b8ff" points="71.78,-271.3 81.72,-274.98 76.25,-265.91 71.78,-271.3"/>
</a>
</g>
</g>
<!-- Node8 -->
<g id="Node000008" class="node">
<title>Node8</title>
<g id="a_Node000008"><a xlink:href="error_8h.html" target="_top" xlink:title=" ">
<polygon fill="white" stroke="#666666" points="224.5,-129 163.5,-129 163.5,-110 224.5,-110 224.5,-129"/>
<text text-anchor="middle" x="194" y="-117" font-family="Helvetica,sans-Serif" font-size="10.00">fe/error.h</text>
</a>
</g>
</g>
<!-- Node3&#45;&gt;Node8 -->
<g id="edge7_Node000003_Node000008" class="edge">
<title>Node3&#45;&gt;Node8</title>
<g id="a_edge7_Node000003_Node000008"><a xlink:title=" ">
<path fill="none" stroke="#63b8ff" d="M88.71,-264.79C85.37,-239.72 83.26,-194.91 104,-165 117.81,-145.09 143.15,-133.68 163.44,-127.41"/>
<polygon fill="#63b8ff" stroke="#63b8ff" points="85.27,-265.45 90.25,-274.8 92.19,-264.38 85.27,-265.45"/>
</a>
</g>
</g>
<!-- Node9 -->
<g id="Node000009" class="node">
<title>Node9</title>
<g id="a_Node000009"><a xlink:href="log_8h.html" target="_top" xlink:title=" ">
<polygon fill="white" stroke="#666666" points="165.5,-184 112.5,-184 112.5,-165 165.5,-165 165.5,-184"/>
<text text-anchor="middle" x="139" y="-172" font-family="Helvetica,sans-Serif" font-size="10.00">fe/log.h</text>
</a>
</g>
</g>
<!-- Node3&#45;&gt;Node9 -->
<g id="edge9_Node000003_Node000009" class="edge">
<title>Node3&#45;&gt;Node9</title>
<g id="a_edge9_Node000003_Node000009"><a xlink:title=" ">
<path fill="none" stroke="#63b8ff" d="M99.86,-265.44C110.09,-241.92 127.58,-201.73 135.23,-184.16"/>
<polygon fill="#63b8ff" stroke="#63b8ff" points="96.63,-264.1 95.85,-274.66 103.05,-266.89 96.63,-264.1"/>
</a>
</g>
</g>
<!-- Node10 -->
<g id="Node000010" class="node">
<title>Node10</title>
<g id="a_Node000010"><a xlink:href="term_8h.html" target="_top" xlink:title=" ">
<polygon fill="white" stroke="#666666" points="245,-239 183,-239 183,-220 245,-220 245,-239"/>
<text text-anchor="middle" x="214" y="-227" font-family="Helvetica,sans-Serif" font-size="10.00">fe/term.h</text>
</a>
</g>
</g>
<!-- Node3&#45;&gt;Node10 -->
<g id="edge10_Node000003_Node000010" class="edge">
<title>Node3&#45;&gt;Node10</title>
<g id="a_edge10_Node000003_Node000010"><a xlink:title=" ">
<path fill="none" stroke="#63b8ff" d="M121.01,-270.9C143.54,-261.11 174.2,-247.79 194.04,-239.17"/>
<polygon fill="#63b8ff" stroke="#63b8ff" points="119.38,-267.79 111.6,-274.98 122.17,-274.21 119.38,-267.79"/>
</a>
</g>
</g>
<!-- Node5 -->
<g id="Node000005" class="node">
<title>Node5</title>
<g id="a_Node000005"><a xlink:href="driver_8h.html" target="_top" xlink:title=" ">
<polygon fill="white" stroke="#666666" points="227,-74 161,-74 161,-55 227,-55 227,-74"/>
<text text-anchor="middle" x="194" y="-62" font-family="Helvetica,sans-Serif" font-size="10.00">fe/driver.h</text>
</a>
</g>
</g>
<!-- Node4&#45;&gt;Node5 -->
<g id="edge4_Node000004_Node000005" class="edge">
<title>Node4&#45;&gt;Node5</title>
<g id="a_edge4_Node000004_Node000005"><a xlink:title=" ">
<path fill="none" stroke="#63b8ff" d="M43.29,-212.54C55.75,-199.61 73.86,-180.98 90,-165 124.45,-130.9 166.41,-91.34 184.72,-74.18"/>
<polygon fill="#63b8ff" stroke="#63b8ff" points="40.74,-210.15 36.33,-219.78 45.78,-215 40.74,-210.15"/>
</a>
</g>
</g>
<!-- Node6 -->
<g id="Node000006" class="node">
<title>Node6</title>
<g id="a_Node000006"><a xlink:href="lexer_8h.html" target="_top" xlink:title=" ">
<polygon fill="white" stroke="#666666" points="184,-19 122,-19 122,0 184,0 184,-19"/>
<text text-anchor="middle" x="153" y="-7" font-family="Helvetica,sans-Serif" font-size="10.00">fe/lexer.h</text>
</a>
</g>
</g>
<!-- Node5&#45;&gt;Node6 -->
<g id="edge5_Node000005_Node000006" class="edge">
<title>Node5&#45;&gt;Node6</title>
<g id="a_edge5_Node000005_Node000006"><a xlink:title=" ">
<path fill="none" stroke="#63b8ff" d="M180.98,-46.67C173.88,-37.5 165.4,-26.52 159.64,-19.09"/>
<polygon fill="#63b8ff" stroke="#63b8ff" points="178.34,-48.98 187.23,-54.75 183.88,-44.7 178.34,-48.98"/>
</a>
</g>
</g>
<!-- Node7 -->
<g id="Node000007" class="node">
<title>Node7</title>
<g id="a_Node000007"><a xlink:href="parser_8h.html" target="_top" xlink:title=" ">
<polygon fill="white" stroke="#666666" points="270,-19 202,-19 202,0 270,0 270,-19"/>
<text text-anchor="middle" x="236" y="-7" font-family="Helvetica,sans-Serif" font-size="10.00">fe/parser.h</text>
</a>
</g>
</g>
<!-- Node5&#45;&gt;Node7 -->
<g id="edge6_Node000005_Node000007" class="edge">
<title>Node5&#45;&gt;Node7</title>
<g id="a_edge6_Node000005_Node000007"><a xlink:title=" ">
<path fill="none" stroke="#63b8ff" d="M207.33,-46.67C214.61,-37.5 223.3,-26.52 229.19,-19.09"/>
<polygon fill="#63b8ff" stroke="#63b8ff" points="204.4,-44.74 200.94,-54.75 209.89,-49.08 204.4,-44.74"/>
</a>
</g>
</g>
<!-- Node8&#45;&gt;Node5 -->
<g id="edge8_Node000008_Node000005" class="edge">
<title>Node8&#45;&gt;Node5</title>
<g id="a_edge8_Node000008_Node000005"><a xlink:title=" ">
<path fill="none" stroke="#63b8ff" d="M194,-99.66C194,-90.93 194,-80.99 194,-74.09"/>
<polygon fill="#63b8ff" stroke="#63b8ff" points="190.5,-99.75 194,-109.75 197.5,-99.75 190.5,-99.75"/>
</a>
</g>
</g>
<!-- Node10&#45;&gt;Node8 -->
<g id="edge15_Node000010_Node000008" class="edge">
<title>Node10&#45;&gt;Node8</title>
<g id="a_edge15_Node000010_Node000008"><a xlink:title=" ">
<path fill="none" stroke="#63b8ff" d="M210.54,-209.8C206.17,-186.2 198.83,-146.58 195.6,-129.16"/>
<polygon fill="#63b8ff" stroke="#63b8ff" points="207.1,-210.47 212.36,-219.66 213.98,-209.19 207.1,-210.47"/>
</a>
</g>
</g>
<!-- Node10&#45;&gt;Node9 -->
<g id="edge16_Node000010_Node000009" class="edge">
<title>Node10&#45;&gt;Node9</title>
<g id="a_edge16_Node000010_Node000009"><a xlink:title=" ">
<path fill="none" stroke="#63b8ff" d="M193.69,-214.15C180.14,-204.57 162.76,-192.29 151.27,-184.17"/>
<polygon fill="#63b8ff" stroke="#63b8ff" points="191.76,-217.07 201.95,-219.98 195.8,-211.36 191.76,-217.07"/>
</a>
</g>
</g>
<!-- Node11 -->
<g id="Node000011" class="node">
<title>Node11</title>
<g id="a_Node000011"><a xlink:href="cli_8h.html" target="_top" xlink:title=" ">
<polygon fill="white" stroke="#666666" points="272,-184 222,-184 222,-165 272,-165 272,-184"/>
<text text-anchor="middle" x="247" y="-172" font-family="Helvetica,sans-Serif" font-size="10.00">fe/cli.h</text>
</a>
</g>
</g>
<!-- Node10&#45;&gt;Node11 -->
<g id="edge11_Node000010_Node000011" class="edge">
<title>Node10&#45;&gt;Node11</title>
<g id="a_edge11_Node000010_Node000011"><a xlink:title=" ">
<path fill="none" stroke="#63b8ff" d="M224.83,-211.1C230.47,-202.04 237.12,-191.37 241.65,-184.09"/>
<polygon fill="#63b8ff" stroke="#63b8ff" points="221.76,-209.41 219.45,-219.75 227.71,-213.11 221.76,-209.41"/>
</a>
</g>
</g>
<!-- Node12 -->
<g id="Node000012" class="node">
<title>Node12</title>
<g id="a_Node000012"><a xlink:href="diag_8h.html" target="_top" xlink:title=" ">
<polygon fill="white" stroke="#666666" points="349.5,-184 290.5,-184 290.5,-165 349.5,-165 349.5,-184"/>
<text text-anchor="middle" x="320" y="-172" font-family="Helvetica,sans-Serif" font-size="10.00">fe/diag.h</text>
</a>
</g>
</g>
<!-- Node10&#45;&gt;Node12 -->
<g id="edge12_Node000010_Node000012" class="edge">
<title>Node10&#45;&gt;Node12</title>
<g id="a_edge12_Node000010_Node000012"><a xlink:title=" ">
<path fill="none" stroke="#63b8ff" d="M240,-215.5C259.5,-205.75 285.65,-192.68 302.66,-184.17"/>
<polygon fill="#63b8ff" stroke="#63b8ff" points="238.41,-212.38 231.03,-219.98 241.54,-218.64 238.41,-212.38"/>
</a>
</g>
</g>
<!-- Node13 -->
<g id="Node000013" class="node">
<title>Node13</title>
<g id="a_Node000013"><a xlink:href="snippet_8h.html" target="_top" xlink:title=" ">
<polygon fill="white" stroke="#666666" points="442,-184 368,-184 368,-165 442,-165 442,-184"/>
<text text-anchor="middle" x="405" y="-172" font-family="Helvetica,sans-Serif" font-size="10.00">fe/snippet.h</text>
</a>
</g>
</g>
<!-- Node10&#45;&gt;Node13 -->
<g id="edge17_Node000010_Node000013" class="edge">
<title>Node10&#45;&gt;Node13</title>
<g id="a_edge17_Node000010_Node000013"><a xlink:title=" ">
<path fill="none" stroke="#63b8ff" d="M254.78,-217.18C290.5,-207.27 341.63,-193.08 374.07,-184.08"/>
<polygon fill="#63b8ff" stroke="#63b8ff" points="253.39,-213.94 244.69,-219.98 255.26,-220.68 253.39,-213.94"/>
</a>
</g>
</g>
<!-- Node12&#45;&gt;Node5 -->
<g id="edge13_Node000012_Node000005" class="edge">
<title>Node12&#45;&gt;Node5</title>
<g id="a_edge13_Node000012_Node000005"><a xlink:title=" ">
<path fill="none" stroke="#63b8ff" d="M301.81,-157.91C274.89,-134.83 225.34,-92.37 204.1,-74.16"/>
<polygon fill="#63b8ff" stroke="#63b8ff" points="299.82,-160.81 309.69,-164.66 304.37,-155.5 299.82,-160.81"/>
</a>
</g>
</g>
<!-- Node12&#45;&gt;Node8 -->
<g id="edge14_Node000012_Node000008" class="edge">
<title>Node12&#45;&gt;Node8</title>
<g id="a_edge14_Node000012_Node000008"><a xlink:title=" ">
<path fill="none" stroke="#63b8ff" d="M290.35,-161.03C267.05,-151.23 235.2,-137.83 214.61,-129.17"/>
<polygon fill="#63b8ff" stroke="#63b8ff" points="289.18,-164.33 299.76,-164.98 291.9,-157.88 289.18,-164.33"/>
</a>
</g>
</g>
</g>
</svg>
