<?xml version="1.0" encoding="UTF-8" standalone="no"?>
<!DOCTYPE svg PUBLIC "-//W3C//DTD SVG 1.1//EN"
 "http://www.w3.org/Graphics/SVG/1.1/DTD/svg11.dtd">
<!-- Generated by graphviz version 2.43.0 (0)
 -->
<!-- Title: Graphical Class Hierarchy Pages: 1 -->
<svg width="283pt" height="86pt"
 viewBox="0.00 0.00 283.00 86.00" xmlns="http://www.w3.org/2000/svg" xmlns:xlink="http://www.w3.org/1999/xlink">
<g id="graph0" class="graph" transform="scale(1 1) rotate(0) translate(4 82)">
<title>Graphical Class Hierarchy</title>
<!-- Node0 -->
<g id="Node000000" class="node">
<title>Node0</title>
<g id="a_Node000000"><a xlink:title=" ">
<polygon fill="#e0e0e0" stroke="#999999" points="84,-48.5 0,-48.5 0,-29.5 84,-29.5 84,-48.5"/>
<text text-anchor="middle" x="42" y="-36.5" font-family="Helvetica,sans-Serif" font-size="10.00">std::formatter</text>
</a>
</g>
</g>
<!-- Node1 -->
<g id="Node000001" class="node">
<title>Node1</title>
<g id="a_Node000001"><a xlink:href="structfe_1_1basic__ostream__formatter.html" target="_top" xlink:title=" ">
<polygon fill="white" stroke="#666666" points="275,-78 120,-78 120,-48 275,-48 275,-78"/>
<text text-anchor="start" x="128" y="-66" font-family="Helvetica,sans-Serif" font-size="10.00">fe::basic_ostream_formatter</text>
<text text-anchor="middle" x="197.5" y="-55" font-family="Helvetica,sans-Serif" font-size="10.00">&lt; char &gt;</text>
</a>
</g>
</g>
<!-- Node0&#45;&gt;Node1 -->
<g id="edge3_Node000000_Node000001" class="edge">
<title>Node0&#45;&gt;Node1</title>
<g id="a_edge3_Node000000_Node000001"><a xlink:title=" ">
<path fill="none" stroke="#63b8ff" d="M94.05,-46.98C102.39,-48.29 111.19,-49.66 119.98,-51.04"/>
<polygon fill="#63b8ff" stroke="#63b8ff" points="94.56,-43.52 84.14,-45.43 93.47,-50.43 94.56,-43.52"/>
</a>
</g>
</g>
<!-- Node2 -->
<g id="Node000002" class="node">
<title>Node2</title>
<g id="a_Node000002"><a xlink:href="structfe_1_1basic__ostream__formatter.html" target="_top" xlink:title="Make types that support ostream operators available for std::format.">
<polygon fill="white" stroke="#666666" points="275,-30 120,-30 120,0 275,0 275,-30"/>
<text text-anchor="start" x="128" y="-18" font-family="Helvetica,sans-Serif" font-size="10.00">fe::basic_ostream_formatter</text>
<text text-anchor="middle" x="197.5" y="-7" font-family="Helvetica,sans-Serif" font-size="10.00">&lt; Char &gt;</text>
</a>
</g>
</g>
<!-- Node0&#45;&gt;Node2 -->
<g id="edge4_Node000000_Node000002" class="edge">
<title>Node0&#45;&gt;Node2</title>
<g id="a_edge4_Node000000_Node000002"><a xlink:title=" ">
<path fill="none" stroke="#63b8ff" d="M94.05,-31.02C102.39,-29.71 111.19,-28.34 119.98,-26.96"/>
<polygon fill="#63b8ff" stroke="#63b8ff" points="93.47,-27.57 84.14,-32.57 94.56,-34.48 93.47,-27.57"/>
</a>
</g>
</g>
</g>
</svg>
