<?xml version="1.0" encoding="UTF-8" standalone="no"?>
<!DOCTYPE svg PUBLIC "-//W3C//DTD SVG 1.1//EN"
 "http://www.w3.org/Graphics/SVG/1.1/DTD/svg11.dtd">
<!-- Generated by graphviz version 2.43.0 (0)
 -->
<!-- Title: Graphical Class Hierarchy Pages: 1 -->
<svg width="270pt" height="64pt"
 viewBox="0.00 0.00 270.00 64.00" xmlns="http://www.w3.org/2000/svg" xmlns:xlink="http://www.w3.org/1999/xlink">
<g id="graph0" class="graph" transform="scale(1 1) rotate(0) translate(4 60)">
<title>Graphical Class Hierarchy</title>
<!-- Node0 -->
<g id="Node000000" class="node">
<title>Node0</title>
<g id="a_Node000000"><a xlink:title=" ">
<polygon fill="#e0e0e0" stroke="#999999" points="105,-37 0,-37 0,-18 105,-18 105,-37"/>
<text text-anchor="middle" x="52.5" y="-25" font-family="Helvetica,sans-Serif" font-size="10.00">detail::VectorBase</text>
</a>
</g>
</g>
<!-- Node1 -->
<g id="Node000001" class="node">
<title>Node1</title>
<g id="a_Node000001"><a xlink:href="classfe_1_1Vector.html" target="_top" xlink:title=" ">
<polygon fill="white" stroke="#666666" points="262,-56 141,-56 141,-37 262,-37 262,-56"/>
<text text-anchor="middle" x="201.5" y="-44" font-family="Helvetica,sans-Serif" font-size="10.00">fe::Vector&lt; fe::Dbg &gt;</text>
</a>
</g>
</g>
<!-- Node0&#45;&gt;Node1 -->
<g id="edge1_Node000000_Node000001" class="edge">
<title>Node0&#45;&gt;Node1</title>
<g id="a_edge1_Node000000_Node000001"><a xlink:title=" ">
<path fill="none" stroke="#63b8ff" d="M115.45,-35.51C123.87,-36.59 132.49,-37.71 140.86,-38.79"/>
<polygon fill="#63b8ff" stroke="#63b8ff" points="115.69,-32.01 105.33,-34.2 114.8,-38.95 115.69,-32.01"/>
</a>
</g>
</g>
<!-- Node2 -->
<g id="Node000002" class="node">
<title>Node2</title>
<g id="a_Node000002"><a xlink:href="classfe_1_1Vector.html" target="_top" xlink:title="This is a thin wrapper for absl::InlinedVector&lt;T, N, A&gt; which is a drop&#45;in replacement for std::vecto...">
<polygon fill="white" stroke="#666666" points="260.5,-19 142.5,-19 142.5,0 260.5,0 260.5,-19"/>
<text text-anchor="middle" x="201.5" y="-7" font-family="Helvetica,sans-Serif" font-size="10.00">fe::Vector&lt; T, N, A &gt;</text>
</a>
</g>
</g>
<!-- Node0&#45;&gt;Node2 -->
<g id="edge2_Node000000_Node000002" class="edge">
<title>Node0&#45;&gt;Node2</title>
<g id="a_edge2_Node000000_Node000002"><a xlink:title=" ">
<path fill="none" stroke="#63b8ff" d="M115.32,-19.93C124.28,-18.83 133.49,-17.71 142.38,-16.62"/>
<polygon fill="#63b8ff" stroke="#63b8ff" points="114.83,-16.46 105.33,-21.15 115.68,-23.41 114.83,-16.46"/>
</a>
</g>
</g>
</g>
</svg>
