<?xml version="1.0" encoding="UTF-8" standalone="no"?>
<!DOCTYPE svg PUBLIC "-//W3C//DTD SVG 1.1//EN"
 "http://www.w3.org/Graphics/SVG/1.1/DTD/svg11.dtd">
<!-- Generated by graphviz version 2.43.0 (0)
 -->
<!-- Title: Graphical Class Hierarchy Pages: 1 -->
<svg width="424pt" height="86pt"
 viewBox="0.00 0.00 424.00 86.00" xmlns="http://www.w3.org/2000/svg" xmlns:xlink="http://www.w3.org/1999/xlink">
<g id="graph0" class="graph" transform="scale(1 1) rotate(0) translate(4 82)">
<title>Graphical Class Hierarchy</title>
<!-- Node0 -->
<g id="Node000000" class="node">
<title>Node0</title>
<g id="a_Node000000"><a xlink:title=" ">
<polygon fill="#e0e0e0" stroke="#999999" points="84,-48.5 0,-48.5 0,-29.5 84,-29.5 84,-48.5"/>
<text text-anchor="middle" x="42" y="-36.5" font-family="Helvetica,sans-Serif" font-size="10.00">std::formatter</text>
</a>
</g>
</g>
<!-- Node1 -->
<g id="Node000001" class="node">
<title>Node1</title>
<g id="a_Node000001"><a xlink:href="structfe_1_1basic__ostream__formatter.html" target="_top" xlink:title="Make types that support ostream operators available for std::format.">
<polygon fill="white" stroke="#666666" points="275,-54 120,-54 120,-24 275,-24 275,-54"/>
<text text-anchor="start" x="128" y="-42" font-family="Helvetica,sans-Serif" font-size="10.00">fe::basic_ostream_formatter</text>
<text text-anchor="middle" x="197.5" y="-31" font-family="Helvetica,sans-Serif" font-size="10.00">&lt; Char &gt;</text>
</a>
</g>
</g>
<!-- Node0&#45;&gt;Node1 -->
<g id="edge2_Node000000_Node000001" class="edge">
<title>Node0&#45;&gt;Node1</title>
<g id="a_edge2_Node000000_Node000001"><a xlink:title=" ">
<path fill="none" stroke="#63b8ff" d="M94.33,-39C102.58,-39 111.29,-39 119.98,-39"/>
<polygon fill="#63b8ff" stroke="#63b8ff" points="94.14,-35.5 84.14,-39 94.14,-42.5 94.14,-35.5"/>
</a>
</g>
</g>
<!-- Node2 -->
<g id="Node000002" class="node">
<title>Node2</title>
<g id="a_Node000002"><a xlink:href="structstd_1_1formatter_3_01fe_1_1Loc_01_4.html" target="_top" xlink:title=" ">
<polygon fill="white" stroke="#666666" points="416,-78 311,-78 311,-48 416,-48 416,-78"/>
<text text-anchor="start" x="319" y="-66" font-family="Helvetica,sans-Serif" font-size="10.00">std::formatter&lt; fe</text>
<text text-anchor="middle" x="363.5" y="-55" font-family="Helvetica,sans-Serif" font-size="10.00">::Loc &gt;</text>
</a>
</g>
</g>
<!-- Node1&#45;&gt;Node2 -->
<g id="edge3_Node000001_Node000002" class="edge">
<title>Node1&#45;&gt;Node2</title>
<g id="a_edge3_Node000001_Node000002"><a xlink:title=" ">
<path fill="none" stroke="#63b8ff" d="M285.36,-51.71C293.99,-52.97 302.55,-54.23 310.65,-55.41"/>
<polygon fill="#63b8ff" stroke="#63b8ff" points="285.62,-48.21 275.22,-50.23 284.61,-55.14 285.62,-48.21"/>
</a>
</g>
</g>
<!-- Node3 -->
<g id="Node000003" class="node">
<title>Node3</title>
<g id="a_Node000003"><a xlink:href="structstd_1_1formatter_3_01fe_1_1Pos_01_4.html" target="_top" xlink:title=" ">
<polygon fill="white" stroke="#666666" points="416,-30 311,-30 311,0 416,0 416,-30"/>
<text text-anchor="start" x="319" y="-18" font-family="Helvetica,sans-Serif" font-size="10.00">std::formatter&lt; fe</text>
<text text-anchor="middle" x="363.5" y="-7" font-family="Helvetica,sans-Serif" font-size="10.00">::Pos &gt;</text>
</a>
</g>
</g>
<!-- Node1&#45;&gt;Node3 -->
<g id="edge4_Node000001_Node000003" class="edge">
<title>Node1&#45;&gt;Node3</title>
<g id="a_edge4_Node000001_Node000003"><a xlink:title=" ">
<path fill="none" stroke="#63b8ff" d="M285.36,-26.29C293.99,-25.03 302.55,-23.77 310.65,-22.59"/>
<polygon fill="#63b8ff" stroke="#63b8ff" points="284.61,-22.86 275.22,-27.77 285.62,-29.79 284.61,-22.86"/>
</a>
</g>
</g>
</g>
</svg>
