<?xml version="1.0" encoding="UTF-8" standalone="no"?>
<!DOCTYPE svg PUBLIC "-//W3C//DTD SVG 1.1//EN"
 "http://www.w3.org/Graphics/SVG/1.1/DTD/svg11.dtd">
<!-- Generated by graphviz version 2.43.0 (0)
 -->
<!-- Title: Graphical Class Hierarchy Pages: 1 -->
<svg width="424pt" height="182pt"
 viewBox="0.00 0.00 424.00 182.00" xmlns="http://www.w3.org/2000/svg" xmlns:xlink="http://www.w3.org/1999/xlink">
<g id="graph0" class="graph" transform="scale(1 1) rotate(0) translate(4 178)">
<title>Graphical Class Hierarchy</title>
<!-- Node0 -->
<g id="Node000000" class="node">
<title>Node0</title>
<g id="a_Node000000"><a xlink:title=" ">
<polygon fill="#e0e0e0" stroke="#999999" points="84,-96.5 0,-96.5 0,-77.5 84,-77.5 84,-96.5"/>
<text text-anchor="middle" x="42" y="-84.5" font-family="Helvetica,sans-Serif" font-size="10.00">std::formatter</text>
</a>
</g>
</g>
<!-- Node1 -->
<g id="Node000001" class="node">
<title>Node1</title>
<g id="a_Node000001"><a xlink:href="structfe_1_1basic__ostream__formatter.html" target="_top" xlink:title="Make types that support ostream operators available for std::format.">
<polygon fill="white" stroke="#666666" points="275,-102 120,-102 120,-72 275,-72 275,-102"/>
<text text-anchor="start" x="128" y="-90" font-family="Helvetica,sans-Serif" font-size="10.00">fe::basic_ostream_formatter</text>
<text text-anchor="middle" x="197.5" y="-79" font-family="Helvetica,sans-Serif" font-size="10.00">&lt; Char &gt;</text>
</a>
</g>
</g>
<!-- Node0&#45;&gt;Node1 -->
<g id="edge2_Node000000_Node000001" class="edge">
<title>Node0&#45;&gt;Node1</title>
<g id="a_edge2_Node000000_Node000001"><a xlink:title=" ">
<path fill="none" stroke="#63b8ff" d="M94.33,-87C102.58,-87 111.29,-87 119.98,-87"/>
<polygon fill="#63b8ff" stroke="#63b8ff" points="94.14,-83.5 84.14,-87 94.14,-90.5 94.14,-83.5"/>
</a>
</g>
</g>
<!-- Node2 -->
<g id="Node000002" class="node">
<title>Node2</title>
<g id="a_Node000002"><a xlink:href="structstd_1_1formatter_3_01fe_1_1Loc_01_4.html" target="_top" xlink:title=" ">
<polygon fill="white" stroke="#666666" points="416,-174 311,-174 311,-144 416,-144 416,-174"/>
<text text-anchor="start" x="319" y="-162" font-family="Helvetica,sans-Serif" font-size="10.00">std::formatter&lt; fe</text>
<text text-anchor="middle" x="363.5" y="-151" font-family="Helvetica,sans-Serif" font-size="10.00">::Loc &gt;</text>
</a>
</g>
</g>
<!-- Node1&#45;&gt;Node2 -->
<g id="edge3_Node000001_Node000002" class="edge">
<title>Node1&#45;&gt;Node2</title>
<g id="a_edge3_Node000001_Node000002"><a xlink:title=" ">
<path fill="none" stroke="#63b8ff" d="M242.09,-106.14C269.04,-117.97 303.14,-132.94 328.17,-143.93"/>
<polygon fill="#63b8ff" stroke="#63b8ff" points="243.44,-102.91 232.88,-102.09 240.63,-109.32 243.44,-102.91"/>
</a>
</g>
</g>
<!-- Node3 -->
<g id="Node000003" class="node">
<title>Node3</title>
<g id="a_Node000003"><a xlink:href="structstd_1_1formatter_3_01fe_1_1Pos_01_4.html" target="_top" xlink:title=" ">
<polygon fill="white" stroke="#666666" points="416,-126 311,-126 311,-96 416,-96 416,-126"/>
<text text-anchor="start" x="319" y="-114" font-family="Helvetica,sans-Serif" font-size="10.00">std::formatter&lt; fe</text>
<text text-anchor="middle" x="363.5" y="-103" font-family="Helvetica,sans-Serif" font-size="10.00">::Pos &gt;</text>
</a>
</g>
</g>
<!-- Node1&#45;&gt;Node3 -->
<g id="edge4_Node000001_Node000003" class="edge">
<title>Node1&#45;&gt;Node3</title>
<g id="a_edge4_Node000001_Node000003"><a xlink:title=" ">
<path fill="none" stroke="#63b8ff" d="M285.36,-99.71C293.99,-100.97 302.55,-102.23 310.65,-103.41"/>
<polygon fill="#63b8ff" stroke="#63b8ff" points="285.62,-96.21 275.22,-98.23 284.61,-103.14 285.62,-96.21"/>
</a>
</g>
</g>
<!-- Node4 -->
<g id="Node000004" class="node">
<title>Node4</title>
<g id="a_Node000004"><a xlink:href="structstd_1_1formatter_3_01fe_1_1Sym_01_4.html" target="_top" xlink:title=" ">
<polygon fill="white" stroke="#666666" points="416,-78 311,-78 311,-48 416,-48 416,-78"/>
<text text-anchor="start" x="319" y="-66" font-family="Helvetica,sans-Serif" font-size="10.00">std::formatter&lt; fe</text>
<text text-anchor="middle" x="363.5" y="-55" font-family="Helvetica,sans-Serif" font-size="10.00">::Sym &gt;</text>
</a>
</g>
</g>
<!-- Node1&#45;&gt;Node4 -->
<g id="edge5_Node000001_Node000004" class="edge">
<title>Node1&#45;&gt;Node4</title>
<g id="a_edge5_Node000001_Node000004"><a xlink:title=" ">
<path fill="none" stroke="#63b8ff" d="M285.36,-74.29C293.99,-73.03 302.55,-71.77 310.65,-70.59"/>
<polygon fill="#63b8ff" stroke="#63b8ff" points="284.61,-70.86 275.22,-75.77 285.62,-77.79 284.61,-70.86"/>
</a>
</g>
</g>
<!-- Node5 -->
<g id="Node000005" class="node">
<title>Node5</title>
<g id="a_Node000005"><a xlink:href="structstd_1_1formatter_3_01fe_1_1Tab_01_4.html" target="_top" xlink:title=" ">
<polygon fill="white" stroke="#666666" points="416,-30 311,-30 311,0 416,0 416,-30"/>
<text text-anchor="start" x="319" y="-18" font-family="Helvetica,sans-Serif" font-size="10.00">std::formatter&lt; fe</text>
<text text-anchor="middle" x="363.5" y="-7" font-family="Helvetica,sans-Serif" font-size="10.00">::Tab &gt;</text>
</a>
</g>
</g>
<!-- Node1&#45;&gt;Node5 -->
<g id="edge6_Node000001_Node000005" class="edge">
<title>Node1&#45;&gt;Node5</title>
<g id="a_edge6_Node000001_Node000005"><a xlink:title=" ">
<path fill="none" stroke="#63b8ff" d="M242.09,-67.86C269.04,-56.03 303.14,-41.06 328.17,-30.07"/>
<polygon fill="#63b8ff" stroke="#63b8ff" points="240.63,-64.68 232.88,-71.91 243.44,-71.09 240.63,-64.68"/>
</a>
</g>
</g>
</g>
</svg>
