<?xml version="1.0" encoding="UTF-8" standalone="no"?>
<!DOCTYPE svg PUBLIC "-//W3C//DTD SVG 1.1//EN"
 "http://www.w3.org/Graphics/SVG/1.1/DTD/svg11.dtd">
<!-- Generated by graphviz version 2.43.0 (0)
 -->
<!-- Title: Graphical Class Hierarchy Pages: 1 -->
<svg width="424pt" height="134pt"
 viewBox="0.00 0.00 424.00 134.00" xmlns="http://www.w3.org/2000/svg" xmlns:xlink="http://www.w3.org/1999/xlink">
<g id="graph0" class="graph" transform="scale(1 1) rotate(0) translate(4 130)">
<title>Graphical Class Hierarchy</title>
<!-- Node0 -->
<g id="Node000000" class="node">
<title>Node0</title>
<g id="a_Node000000"><a xlink:title=" ">
<polygon fill="#e0e0e0" stroke="#999999" points="84,-72.5 0,-72.5 0,-53.5 84,-53.5 84,-72.5"/>
<text text-anchor="middle" x="42" y="-60.5" font-family="Helvetica,sans-Serif" font-size="10.00">std::formatter</text>
</a>
</g>
</g>
<!-- Node1 -->
<g id="Node000001" class="node">
<title>Node1</title>
<g id="a_Node000001"><a xlink:href="structfe_1_1basic__ostream__formatter.html" target="_top" xlink:title="Make types that support ostream operators available for std::format.">
<polygon fill="white" stroke="#666666" points="275,-78 120,-78 120,-48 275,-48 275,-78"/>
<text text-anchor="start" x="128" y="-66" font-family="Helvetica,sans-Serif" font-size="10.00">fe::basic_ostream_formatter</text>
<text text-anchor="middle" x="197.5" y="-55" font-family="Helvetica,sans-Serif" font-size="10.00">&lt; Char &gt;</text>
</a>
</g>
</g>
<!-- Node0&#45;&gt;Node1 -->
<g id="edge2_Node000000_Node000001" class="edge">
<title>Node0&#45;&gt;Node1</title>
<g id="a_edge2_Node000000_Node000001"><a xlink:title=" ">
<path fill="none" stroke="#63b8ff" d="M94.33,-63C102.58,-63 111.29,-63 119.98,-63"/>
<polygon fill="#63b8ff" stroke="#63b8ff" points="94.14,-59.5 84.14,-63 94.14,-66.5 94.14,-59.5"/>
</a>
</g>
</g>
<!-- Node2 -->
<g id="Node000002" class="node">
<title>Node2</title>
<g id="a_Node000002"><a xlink:href="structstd_1_1formatter_3_01fe_1_1Loc_01_4.html" target="_top" xlink:title=" ">
<polygon fill="white" stroke="#666666" points="416,-126 311,-126 311,-96 416,-96 416,-126"/>
<text text-anchor="start" x="319" y="-114" font-family="Helvetica,sans-Serif" font-size="10.00">std::formatter&lt; fe</text>
<text text-anchor="middle" x="363.5" y="-103" font-family="Helvetica,sans-Serif" font-size="10.00">::Loc &gt;</text>
</a>
</g>
</g>
<!-- Node1&#45;&gt;Node2 -->
<g id="edge3_Node000001_Node000002" class="edge">
<title>Node1&#45;&gt;Node2</title>
<g id="a_edge3_Node000001_Node000002"><a xlink:title=" ">
<path fill="none" stroke="#63b8ff" d="M259.75,-80.93C276.7,-85.89 294.92,-91.22 311.24,-96"/>
<polygon fill="#63b8ff" stroke="#63b8ff" points="260.52,-77.51 249.94,-78.06 258.55,-84.22 260.52,-77.51"/>
</a>
</g>
</g>
<!-- Node3 -->
<g id="Node000003" class="node">
<title>Node3</title>
<g id="a_Node000003"><a xlink:href="structstd_1_1formatter_3_01fe_1_1Pos_01_4.html" target="_top" xlink:title=" ">
<polygon fill="white" stroke="#666666" points="416,-78 311,-78 311,-48 416,-48 416,-78"/>
<text text-anchor="start" x="319" y="-66" font-family="Helvetica,sans-Serif" font-size="10.00">std::formatter&lt; fe</text>
<text text-anchor="middle" x="363.5" y="-55" font-family="Helvetica,sans-Serif" font-size="10.00">::Pos &gt;</text>
</a>
</g>
</g>
<!-- Node1&#45;&gt;Node3 -->
<g id="edge4_Node000001_Node000003" class="edge">
<title>Node1&#45;&gt;Node3</title>
<g id="a_edge4_Node000001_Node000003"><a xlink:title=" ">
<path fill="none" stroke="#63b8ff" d="M285.36,-63C293.99,-63 302.55,-63 310.65,-63"/>
<polygon fill="#63b8ff" stroke="#63b8ff" points="285.22,-59.5 275.22,-63 285.22,-66.5 285.22,-59.5"/>
</a>
</g>
</g>
<!-- Node4 -->
<g id="Node000004" class="node">
<title>Node4</title>
<g id="a_Node000004"><a xlink:href="structstd_1_1formatter_3_01fe_1_1Tab_01_4.html" target="_top" xlink:title=" ">
<polygon fill="white" stroke="#666666" points="416,-30 311,-30 311,0 416,0 416,-30"/>
<text text-anchor="start" x="319" y="-18" font-family="Helvetica,sans-Serif" font-size="10.00">std::formatter&lt; fe</text>
<text text-anchor="middle" x="363.5" y="-7" font-family="Helvetica,sans-Serif" font-size="10.00">::Tab &gt;</text>
</a>
</g>
</g>
<!-- Node1&#45;&gt;Node4 -->
<g id="edge5_Node000001_Node000004" class="edge">
<title>Node1&#45;&gt;Node4</title>
<g id="a_edge5_Node000001_Node000004"><a xlink:title=" ">
<path fill="none" stroke="#63b8ff" d="M259.75,-45.07C276.7,-40.11 294.92,-34.78 311.24,-30"/>
<polygon fill="#63b8ff" stroke="#63b8ff" points="258.55,-41.78 249.94,-47.94 260.52,-48.49 258.55,-41.78"/>
</a>
</g>
</g>
</g>
</svg>
