<?xml version="1.0" encoding="UTF-8" standalone="no"?>
<!DOCTYPE svg PUBLIC "-//W3C//DTD SVG 1.1//EN"
 "http://www.w3.org/Graphics/SVG/1.1/DTD/svg11.dtd">
<!-- Generated by graphviz version 2.43.0 (0)
 -->
<!-- Title: fe/lexer.h Pages: 1 -->
<svg width="926pt" height="302pt"
 viewBox="0.00 0.00 925.50 302.00" xmlns="http://www.w3.org/2000/svg" xmlns:xlink="http://www.w3.org/1999/xlink">
<g id="graph0" class="graph" transform="scale(1 1) rotate(0) translate(4 298)">
<title>fe/lexer.h</title>
<!-- Node1 -->
<g id="Node000001" class="node">
<title>Node1</title>
<g id="a_Node000001"><a xlink:title=" ">
<polygon fill="#999999" stroke="#666666" points="511,-294 449,-294 449,-275 511,-275 511,-294"/>
<text text-anchor="middle" x="480" y="-282" font-family="Helvetica,sans-Serif" font-size="10.00">fe/lexer.h</text>
</a>
</g>
</g>
<!-- Node2 -->
<g id="Node000002" class="node">
<title>Node2</title>
<g id="a_Node000002"><a xlink:title=" ">
<polygon fill="#e0e0e0" stroke="#999999" points="338,-184 270,-184 270,-165 338,-165 338,-184"/>
<text text-anchor="middle" x="304" y="-172" font-family="Helvetica,sans-Serif" font-size="10.00">filesystem</text>
</a>
</g>
</g>
<!-- Node1&#45;&gt;Node2 -->
<g id="edge1_Node000001_Node000002" class="edge">
<title>Node1&#45;&gt;Node2</title>
<g id="a_edge1_Node000001_Node000002"><a xlink:title=" ">
<path fill="none" stroke="#63b8ff" d="M448.87,-278.4C420.85,-272.59 379.63,-260.92 350,-239 333.8,-227.01 320.95,-207.65 312.99,-193.45"/>
<polygon fill="#63b8ff" stroke="#63b8ff" points="315.87,-191.4 308.09,-184.21 309.68,-194.68 315.87,-191.4"/>
</a>
</g>
</g>
<!-- Node3 -->
<g id="Node000003" class="node">
<title>Node3</title>
<g id="a_Node000003"><a xlink:title=" ">
<polygon fill="#e0e0e0" stroke="#999999" points="507,-184 453,-184 453,-165 507,-165 507,-184"/>
<text text-anchor="middle" x="480" y="-172" font-family="Helvetica,sans-Serif" font-size="10.00">istream</text>
</a>
</g>
</g>
<!-- Node1&#45;&gt;Node3 -->
<g id="edge2_Node000001_Node000003" class="edge">
<title>Node1&#45;&gt;Node3</title>
<g id="a_edge2_Node000001_Node000003"><a xlink:title=" ">
<path fill="none" stroke="#63b8ff" d="M480,-274.66C480,-257.17 480,-217.8 480,-194.27"/>
<polygon fill="#63b8ff" stroke="#63b8ff" points="483.5,-194.16 480,-184.16 476.5,-194.16 483.5,-194.16"/>
</a>
</g>
</g>
<!-- Node4 -->
<g id="Node000004" class="node">
<title>Node4</title>
<g id="a_Node000004"><a xlink:href="loc_8h.html" target="_top" xlink:title=" ">
<polygon fill="white" stroke="#666666" points="412.5,-239 359.5,-239 359.5,-220 412.5,-220 412.5,-239"/>
<text text-anchor="middle" x="386" y="-227" font-family="Helvetica,sans-Serif" font-size="10.00">fe/loc.h</text>
</a>
</g>
</g>
<!-- Node1&#45;&gt;Node4 -->
<g id="edge3_Node000001_Node000004" class="edge">
<title>Node1&#45;&gt;Node4</title>
<g id="a_edge3_Node000001_Node000004"><a xlink:title=" ">
<path fill="none" stroke="#63b8ff" d="M464.9,-274.98C450.18,-266.69 427.58,-253.94 410.33,-244.22"/>
<polygon fill="#63b8ff" stroke="#63b8ff" points="411.81,-241.03 401.38,-239.17 408.37,-247.13 411.81,-241.03"/>
</a>
</g>
</g>
<!-- Node18 -->
<g id="Node000018" class="node">
<title>Node18</title>
<g id="a_Node000018"><a xlink:href="ring_8h.html" target="_top" xlink:title=" ">
<polygon fill="white" stroke="#666666" points="751.5,-129 694.5,-129 694.5,-110 751.5,-110 751.5,-129"/>
<text text-anchor="middle" x="723" y="-117" font-family="Helvetica,sans-Serif" font-size="10.00">fe/ring.h</text>
</a>
</g>
</g>
<!-- Node1&#45;&gt;Node18 -->
<g id="edge19_Node000001_Node000018" class="edge">
<title>Node1&#45;&gt;Node18</title>
<g id="a_edge19_Node000001_Node000018"><a xlink:title=" ">
<path fill="none" stroke="#63b8ff" d="M511.02,-277.55C558.02,-266.95 647.16,-240.39 698,-184 709.39,-171.36 715.87,-152.92 719.36,-139.16"/>
<polygon fill="#63b8ff" stroke="#63b8ff" points="722.79,-139.86 721.56,-129.34 715.96,-138.33 722.79,-139.86"/>
</a>
</g>
</g>
<!-- Node22 -->
<g id="Node000022" class="node">
<title>Node22</title>
<g id="a_Node000022"><a xlink:href="utf8_8h.html" target="_top" xlink:title=" ">
<polygon fill="white" stroke="#666666" points="583,-239 525,-239 525,-220 583,-220 583,-239"/>
<text text-anchor="middle" x="554" y="-227" font-family="Helvetica,sans-Serif" font-size="10.00">fe/utf8.h</text>
</a>
</g>
</g>
<!-- Node1&#45;&gt;Node22 -->
<g id="edge25_Node000001_Node000022" class="edge">
<title>Node1&#45;&gt;Node22</title>
<g id="a_edge25_Node000001_Node000022"><a xlink:title=" ">
<path fill="none" stroke="#63b8ff" d="M491.89,-274.98C503.15,-266.92 520.29,-254.65 533.71,-245.03"/>
<polygon fill="#63b8ff" stroke="#63b8ff" points="535.8,-247.84 541.89,-239.17 531.73,-242.15 535.8,-247.84"/>
</a>
</g>
</g>
<!-- Node4&#45;&gt;Node2 -->
<g id="edge4_Node000004_Node000002" class="edge">
<title>Node4&#45;&gt;Node2</title>
<g id="a_edge4_Node000004_Node000002"><a xlink:title=" ">
<path fill="none" stroke="#63b8ff" d="M372.83,-219.98C360.23,-211.84 341,-199.41 326.06,-189.76"/>
<polygon fill="#63b8ff" stroke="#63b8ff" points="327.71,-186.66 317.41,-184.17 323.91,-192.54 327.71,-186.66"/>
</a>
</g>
</g>
<!-- Node5 -->
<g id="Node000005" class="node">
<title>Node5</title>
<g id="a_Node000005"><a xlink:href="sym_8h.html" target="_top" xlink:title=" ">
<polygon fill="white" stroke="#666666" points="415.5,-184 356.5,-184 356.5,-165 415.5,-165 415.5,-184"/>
<text text-anchor="middle" x="386" y="-172" font-family="Helvetica,sans-Serif" font-size="10.00">fe/sym.h</text>
</a>
</g>
</g>
<!-- Node4&#45;&gt;Node5 -->
<g id="edge5_Node000004_Node000005" class="edge">
<title>Node4&#45;&gt;Node5</title>
<g id="a_edge5_Node000004_Node000005"><a xlink:title=" ">
<path fill="none" stroke="#63b8ff" d="M386,-219.75C386,-212.8 386,-202.85 386,-194.13"/>
<polygon fill="#63b8ff" stroke="#63b8ff" points="389.5,-194.09 386,-184.09 382.5,-194.09 389.5,-194.09"/>
</a>
</g>
</g>
<!-- Node6 -->
<g id="Node000006" class="node">
<title>Node6</title>
<g id="a_Node000006"><a xlink:title=" ">
<polygon fill="#e0e0e0" stroke="#999999" points="534,-19 482,-19 482,0 534,0 534,-19"/>
<text text-anchor="middle" x="508" y="-7" font-family="Helvetica,sans-Serif" font-size="10.00">cassert</text>
</a>
</g>
</g>
<!-- Node5&#45;&gt;Node6 -->
<g id="edge6_Node000005_Node000006" class="edge">
<title>Node5&#45;&gt;Node6</title>
<g id="a_edge6_Node000005_Node000006"><a xlink:title=" ">
<path fill="none" stroke="#63b8ff" d="M382.69,-164.76C375.31,-143.66 359.97,-89.16 384,-55 403.69,-27.01 442.72,-16.54 471.76,-12.67"/>
<polygon fill="#63b8ff" stroke="#63b8ff" points="472.41,-16.12 481.95,-11.52 471.63,-9.16 472.41,-16.12"/>
</a>
</g>
</g>
<!-- Node7 -->
<g id="Node000007" class="node">
<title>Node7</title>
<g id="a_Node000007"><a xlink:title=" ">
<polygon fill="#e0e0e0" stroke="#999999" points="528,-129 478,-129 478,-110 528,-110 528,-129"/>
<text text-anchor="middle" x="503" y="-117" font-family="Helvetica,sans-Serif" font-size="10.00">cstring</text>
</a>
</g>
</g>
<!-- Node5&#45;&gt;Node7 -->
<g id="edge7_Node000005_Node000007" class="edge">
<title>Node5&#45;&gt;Node7</title>
<g id="a_edge7_Node000005_Node000007"><a xlink:title=" ">
<path fill="none" stroke="#63b8ff" d="M404.8,-164.98C423.62,-156.46 452.82,-143.23 474.5,-133.41"/>
<polygon fill="#63b8ff" stroke="#63b8ff" points="476.2,-136.48 483.86,-129.17 473.31,-130.11 476.2,-136.48"/>
</a>
</g>
</g>
<!-- Node8 -->
<g id="Node000008" class="node">
<title>Node8</title>
<g id="a_Node000008"><a xlink:title=" ">
<polygon fill="#e0e0e0" stroke="#999999" points="575.5,-129 546.5,-129 546.5,-110 575.5,-110 575.5,-129"/>
<text text-anchor="middle" x="561" y="-117" font-family="Helvetica,sans-Serif" font-size="10.00">bit</text>
</a>
</g>
</g>
<!-- Node5&#45;&gt;Node8 -->
<g id="edge8_Node000005_Node000008" class="edge">
<title>Node5&#45;&gt;Node8</title>
<g id="a_edge8_Node000005_Node000008"><a xlink:title=" ">
<path fill="none" stroke="#63b8ff" d="M415.66,-165.27C444.3,-157.21 489.1,-144.31 536.75,-128.95"/>
<polygon fill="#63b8ff" stroke="#63b8ff" points="537.89,-132.26 546.32,-125.84 535.73,-125.6 537.89,-132.26"/>
</a>
</g>
</g>
<!-- Node9 -->
<g id="Node000009" class="node">
<title>Node9</title>
<g id="a_Node000009"><a xlink:title=" ">
<polygon fill="#e0e0e0" stroke="#999999" points="60,-129 0,-129 0,-110 60,-110 60,-129"/>
<text text-anchor="middle" x="30" y="-117" font-family="Helvetica,sans-Serif" font-size="10.00">iostream</text>
</a>
</g>
</g>
<!-- Node5&#45;&gt;Node9 -->
<g id="edge9_Node000005_Node000009" class="edge">
<title>Node5&#45;&gt;Node9</title>
<g id="a_edge9_Node000005_Node000009"><a xlink:title=" ">
<path fill="none" stroke="#63b8ff" d="M356.24,-166.74C353.13,-166.11 350,-165.52 347,-165 227.48,-144.28 193.53,-149.96 70.39,-129.1"/>
<polygon fill="#63b8ff" stroke="#63b8ff" points="70.63,-125.59 60.18,-127.35 69.45,-132.49 70.63,-125.59"/>
</a>
</g>
</g>
<!-- Node10 -->
<g id="Node000010" class="node">
<title>Node10</title>
<g id="a_Node000010"><a xlink:title=" ">
<polygon fill="#e0e0e0" stroke="#999999" points="122,-129 78,-129 78,-110 122,-110 122,-129"/>
<text text-anchor="middle" x="100" y="-117" font-family="Helvetica,sans-Serif" font-size="10.00">string</text>
</a>
</g>
</g>
<!-- Node5&#45;&gt;Node10 -->
<g id="edge10_Node000005_Node000010" class="edge">
<title>Node5&#45;&gt;Node10</title>
<g id="a_edge10_Node000005_Node000010"><a xlink:title=" ">
<path fill="none" stroke="#63b8ff" d="M356.22,-166.85C353.11,-166.2 349.99,-165.58 347,-165 254.5,-147.22 227.76,-149.71 132.08,-129.05"/>
<polygon fill="#63b8ff" stroke="#63b8ff" points="132.8,-125.62 122.28,-126.9 131.3,-132.46 132.8,-125.62"/>
</a>
</g>
</g>
<!-- Node11 -->
<g id="Node000011" class="node">
<title>Node11</title>
<g id="a_Node000011"><a xlink:title=" ">
<polygon fill="#e0e0e0" stroke="#999999" points="233.5,-129 140.5,-129 140.5,-110 233.5,-110 233.5,-129"/>
<text text-anchor="middle" x="187" y="-117" font-family="Helvetica,sans-Serif" font-size="10.00">unordered_map</text>
</a>
</g>
</g>
<!-- Node5&#45;&gt;Node11 -->
<g id="edge11_Node000005_Node000011" class="edge">
<title>Node5&#45;&gt;Node11</title>
<g id="a_edge11_Node000005_Node000011"><a xlink:title=" ">
<path fill="none" stroke="#63b8ff" d="M356.21,-165.57C322.37,-156.55 266.91,-141.78 228.76,-131.62"/>
<polygon fill="#63b8ff" stroke="#63b8ff" points="229.54,-128.21 218.98,-129.02 227.74,-134.97 229.54,-128.21"/>
</a>
</g>
</g>
<!-- Node12 -->
<g id="Node000012" class="node">
<title>Node12</title>
<g id="a_Node000012"><a xlink:title=" ">
<polygon fill="#e0e0e0" stroke="#999999" points="338,-129 252,-129 252,-110 338,-110 338,-129"/>
<text text-anchor="middle" x="295" y="-117" font-family="Helvetica,sans-Serif" font-size="10.00">unordered_set</text>
</a>
</g>
</g>
<!-- Node5&#45;&gt;Node12 -->
<g id="edge12_Node000005_Node000012" class="edge">
<title>Node5&#45;&gt;Node12</title>
<g id="a_edge12_Node000005_Node000012"><a xlink:title=" ">
<path fill="none" stroke="#63b8ff" d="M371.38,-164.98C357.14,-156.69 335.25,-143.94 318.55,-134.22"/>
<polygon fill="#63b8ff" stroke="#63b8ff" points="320.29,-131.18 309.89,-129.17 316.77,-137.23 320.29,-131.18"/>
</a>
</g>
</g>
<!-- Node13 -->
<g id="Node000013" class="node">
<title>Node13</title>
<g id="a_Node000013"><a xlink:href="arena_8h.html" target="_top" xlink:title=" ">
<polygon fill="white" stroke="#666666" points="460,-129 394,-129 394,-110 460,-110 460,-129"/>
<text text-anchor="middle" x="427" y="-117" font-family="Helvetica,sans-Serif" font-size="10.00">fe/arena.h</text>
</a>
</g>
</g>
<!-- Node5&#45;&gt;Node13 -->
<g id="edge13_Node000005_Node000013" class="edge">
<title>Node5&#45;&gt;Node13</title>
<g id="a_edge13_Node000005_Node000013"><a xlink:title=" ">
<path fill="none" stroke="#63b8ff" d="M392.77,-164.75C398.56,-157.26 407.06,-146.28 414.14,-137.13"/>
<polygon fill="#63b8ff" stroke="#63b8ff" points="417.01,-139.14 420.36,-129.09 411.47,-134.86 417.01,-139.14"/>
</a>
</g>
</g>
<!-- Node14 -->
<g id="Node000014" class="node">
<title>Node14</title>
<g id="a_Node000014"><a xlink:title=" ">
<polygon fill="#e0e0e0" stroke="#999999" points="599,-74 535,-74 535,-55 599,-55 599,-74"/>
<text text-anchor="middle" x="567" y="-62" font-family="Helvetica,sans-Serif" font-size="10.00">algorithm</text>
</a>
</g>
</g>
<!-- Node13&#45;&gt;Node14 -->
<g id="edge14_Node000013_Node000014" class="edge">
<title>Node13&#45;&gt;Node14</title>
<g id="a_edge14_Node000013_Node000014"><a xlink:title=" ">
<path fill="none" stroke="#63b8ff" d="M449.49,-109.98C472.52,-101.27 508.54,-87.63 534.63,-77.75"/>
<polygon fill="#63b8ff" stroke="#63b8ff" points="535.98,-80.98 544.1,-74.17 533.51,-74.44 535.98,-80.98"/>
</a>
</g>
</g>
<!-- Node15 -->
<g id="Node000015" class="node">
<title>Node15</title>
<g id="a_Node000015"><a xlink:title=" ">
<polygon fill="#e0e0e0" stroke="#999999" points="517,-74 459,-74 459,-55 517,-55 517,-74"/>
<text text-anchor="middle" x="488" y="-62" font-family="Helvetica,sans-Serif" font-size="10.00">memory</text>
</a>
</g>
</g>
<!-- Node13&#45;&gt;Node15 -->
<g id="edge15_Node000013_Node000015" class="edge">
<title>Node13&#45;&gt;Node15</title>
<g id="a_edge15_Node000013_Node000015"><a xlink:title=" ">
<path fill="none" stroke="#63b8ff" d="M436.8,-109.98C445.82,-102.15 459.41,-90.34 470.32,-80.86"/>
<polygon fill="#63b8ff" stroke="#63b8ff" points="472.77,-83.37 478.02,-74.17 468.18,-78.09 472.77,-83.37"/>
</a>
</g>
</g>
<!-- Node16 -->
<g id="Node000016" class="node">
<title>Node16</title>
<g id="a_Node000016"><a xlink:title=" ">
<polygon fill="#e0e0e0" stroke="#999999" points="440.5,-74 393.5,-74 393.5,-55 440.5,-55 440.5,-74"/>
<text text-anchor="middle" x="417" y="-62" font-family="Helvetica,sans-Serif" font-size="10.00">vector</text>
</a>
</g>
</g>
<!-- Node13&#45;&gt;Node16 -->
<g id="edge16_Node000013_Node000016" class="edge">
<title>Node13&#45;&gt;Node16</title>
<g id="a_edge16_Node000013_Node000016"><a xlink:title=" ">
<path fill="none" stroke="#63b8ff" d="M425.35,-109.75C424.04,-102.8 422.16,-92.85 420.52,-84.13"/>
<polygon fill="#63b8ff" stroke="#63b8ff" points="423.91,-83.27 418.62,-74.09 417.04,-84.56 423.91,-83.27"/>
</a>
</g>
</g>
<!-- Node17 -->
<g id="Node000017" class="node">
<title>Node17</title>
<g id="a_Node000017"><a xlink:href="assert_8h.html" target="_top" xlink:title=" ">
<polygon fill="white" stroke="#666666" points="685,-74 617,-74 617,-55 685,-55 685,-74"/>
<text text-anchor="middle" x="651" y="-62" font-family="Helvetica,sans-Serif" font-size="10.00">fe/assert.h</text>
</a>
</g>
</g>
<!-- Node13&#45;&gt;Node17 -->
<g id="edge17_Node000013_Node000017" class="edge">
<title>Node13&#45;&gt;Node17</title>
<g id="a_edge17_Node000013_Node000017"><a xlink:title=" ">
<path fill="none" stroke="#63b8ff" d="M460.05,-110.68C498.92,-101.48 563.6,-86.18 606.77,-75.97"/>
<polygon fill="#63b8ff" stroke="#63b8ff" points="607.78,-79.32 616.71,-73.61 606.17,-72.51 607.78,-79.32"/>
</a>
</g>
</g>
<!-- Node17&#45;&gt;Node6 -->
<g id="edge18_Node000017_Node000006" class="edge">
<title>Node17&#45;&gt;Node6</title>
<g id="a_edge18_Node000017_Node000006"><a xlink:title=" ">
<path fill="none" stroke="#63b8ff" d="M628.02,-54.98C604.5,-46.27 567.71,-32.63 541.06,-22.75"/>
<polygon fill="#63b8ff" stroke="#63b8ff" points="541.99,-19.36 531.39,-19.17 539.55,-25.93 541.99,-19.36"/>
</a>
</g>
</g>
<!-- Node18&#45;&gt;Node14 -->
<g id="edge21_Node000018_Node000014" class="edge">
<title>Node18&#45;&gt;Node14</title>
<g id="a_edge21_Node000018_Node000014"><a xlink:title=" ">
<path fill="none" stroke="#63b8ff" d="M697.94,-109.98C671.97,-101.16 631.19,-87.31 602.04,-77.41"/>
<polygon fill="#63b8ff" stroke="#63b8ff" points="602.85,-73.99 592.26,-74.08 600.6,-80.61 602.85,-73.99"/>
</a>
</g>
</g>
<!-- Node18&#45;&gt;Node17 -->
<g id="edge24_Node000018_Node000017" class="edge">
<title>Node18&#45;&gt;Node17</title>
<g id="a_edge24_Node000018_Node000017"><a xlink:title=" ">
<path fill="none" stroke="#63b8ff" d="M711.43,-109.98C700.58,-102 684.12,-89.88 671.12,-80.31"/>
<polygon fill="#63b8ff" stroke="#63b8ff" points="672.91,-77.28 662.78,-74.17 668.76,-82.92 672.91,-77.28"/>
</a>
</g>
</g>
<!-- Node19 -->
<g id="Node000019" class="node">
<title>Node19</title>
<g id="a_Node000019"><a xlink:title=" ">
<polygon fill="#e0e0e0" stroke="#999999" points="917.5,-74 864.5,-74 864.5,-55 917.5,-55 917.5,-74"/>
<text text-anchor="middle" x="891" y="-62" font-family="Helvetica,sans-Serif" font-size="10.00">cstddef</text>
</a>
</g>
</g>
<!-- Node18&#45;&gt;Node19 -->
<g id="edge20_Node000018_Node000019" class="edge">
<title>Node18&#45;&gt;Node19</title>
<g id="a_edge20_Node000018_Node000019"><a xlink:title=" ">
<path fill="none" stroke="#63b8ff" d="M749.99,-109.98C778.36,-101.03 823.17,-86.9 854.64,-76.97"/>
<polygon fill="#63b8ff" stroke="#63b8ff" points="855.87,-80.25 864.35,-73.91 853.76,-73.58 855.87,-80.25"/>
</a>
</g>
</g>
<!-- Node20 -->
<g id="Node000020" class="node">
<title>Node20</title>
<g id="a_Node000020"><a xlink:title=" ">
<polygon fill="#e0e0e0" stroke="#999999" points="745,-74 703,-74 703,-55 745,-55 745,-74"/>
<text text-anchor="middle" x="724" y="-62" font-family="Helvetica,sans-Serif" font-size="10.00">array</text>
</a>
</g>
</g>
<!-- Node18&#45;&gt;Node20 -->
<g id="edge22_Node000018_Node000020" class="edge">
<title>Node18&#45;&gt;Node20</title>
<g id="a_edge22_Node000018_Node000020"><a xlink:title=" ">
<path fill="none" stroke="#63b8ff" d="M723.17,-109.75C723.3,-102.8 723.48,-92.85 723.65,-84.13"/>
<polygon fill="#63b8ff" stroke="#63b8ff" points="727.15,-84.15 723.84,-74.09 720.15,-84.02 727.15,-84.15"/>
</a>
</g>
</g>
<!-- Node21 -->
<g id="Node000021" class="node">
<title>Node21</title>
<g id="a_Node000021"><a xlink:title=" ">
<polygon fill="#e0e0e0" stroke="#999999" points="846.5,-74 763.5,-74 763.5,-55 846.5,-55 846.5,-74"/>
<text text-anchor="middle" x="805" y="-62" font-family="Helvetica,sans-Serif" font-size="10.00">initializer_list</text>
</a>
</g>
</g>
<!-- Node18&#45;&gt;Node21 -->
<g id="edge23_Node000018_Node000021" class="edge">
<title>Node18&#45;&gt;Node21</title>
<g id="a_edge23_Node000018_Node000021"><a xlink:title=" ">
<path fill="none" stroke="#63b8ff" d="M736.17,-109.98C748.77,-101.84 768,-89.41 782.94,-79.76"/>
<polygon fill="#63b8ff" stroke="#63b8ff" points="785.09,-82.54 791.59,-74.17 781.29,-76.66 785.09,-82.54"/>
</a>
</g>
</g>
<!-- Node22&#45;&gt;Node3 -->
<g id="edge27_Node000022_Node000003" class="edge">
<title>Node22&#45;&gt;Node3</title>
<g id="a_edge27_Node000022_Node000003"><a xlink:title=" ">
<path fill="none" stroke="#63b8ff" d="M542.11,-219.98C530.85,-211.92 513.71,-199.65 500.29,-190.03"/>
<polygon fill="#63b8ff" stroke="#63b8ff" points="502.27,-187.15 492.11,-184.17 498.2,-192.84 502.27,-187.15"/>
</a>
</g>
</g>
<!-- Node22&#45;&gt;Node17 -->
<g id="edge29_Node000022_Node000017" class="edge">
<title>Node22&#45;&gt;Node17</title>
<g id="a_edge29_Node000022_Node000017"><a xlink:title=" ">
<path fill="none" stroke="#63b8ff" d="M562.55,-219.81C570.75,-211.2 583.14,-197.39 592,-184 614.2,-150.44 633.63,-107.35 643.7,-83.47"/>
<polygon fill="#63b8ff" stroke="#63b8ff" points="646.93,-84.8 647.53,-74.22 640.47,-82.12 646.93,-84.8"/>
</a>
</g>
</g>
<!-- Node23 -->
<g id="Node000023" class="node">
<title>Node23</title>
<g id="a_Node000023"><a xlink:title=" ">
<polygon fill="#e0e0e0" stroke="#999999" points="688.5,-184 639.5,-184 639.5,-165 688.5,-165 688.5,-184"/>
<text text-anchor="middle" x="664" y="-172" font-family="Helvetica,sans-Serif" font-size="10.00">cctype</text>
</a>
</g>
</g>
<!-- Node22&#45;&gt;Node23 -->
<g id="edge26_Node000022_Node000023" class="edge">
<title>Node22&#45;&gt;Node23</title>
<g id="a_edge26_Node000022_Node000023"><a xlink:title=" ">
<path fill="none" stroke="#63b8ff" d="M571.67,-219.98C589.29,-211.5 616.58,-198.35 636.93,-188.54"/>
<polygon fill="#63b8ff" stroke="#63b8ff" points="638.52,-191.66 646.01,-184.17 635.48,-185.36 638.52,-191.66"/>
</a>
</g>
</g>
<!-- Node24 -->
<g id="Node000024" class="node">
<title>Node24</title>
<g id="a_Node000024"><a xlink:title=" ">
<polygon fill="#e0e0e0" stroke="#999999" points="582.5,-184 525.5,-184 525.5,-165 582.5,-165 582.5,-184"/>
<text text-anchor="middle" x="554" y="-172" font-family="Helvetica,sans-Serif" font-size="10.00">ostream</text>
</a>
</g>
</g>
<!-- Node22&#45;&gt;Node24 -->
<g id="edge28_Node000022_Node000024" class="edge">
<title>Node22&#45;&gt;Node24</title>
<g id="a_edge28_Node000022_Node000024"><a xlink:title=" ">
<path fill="none" stroke="#63b8ff" d="M554,-219.75C554,-212.8 554,-202.85 554,-194.13"/>
<polygon fill="#63b8ff" stroke="#63b8ff" points="557.5,-194.09 554,-184.09 550.5,-194.09 557.5,-194.09"/>
</a>
</g>
</g>
</g>
</svg>
