<?xml version="1.0" encoding="UTF-8" standalone="no"?>
<!DOCTYPE svg PUBLIC "-//W3C//DTD SVG 1.1//EN"
 "http://www.w3.org/Graphics/SVG/1.1/DTD/svg11.dtd">
<!-- Generated by graphviz version 2.43.0 (0)
 -->
<!-- Title: fe/lexer.h Pages: 1 -->
<svg width="602pt" height="247pt"
 viewBox="0.00 0.00 602.00 247.00" xmlns="http://www.w3.org/2000/svg" xmlns:xlink="http://www.w3.org/1999/xlink">
<g id="graph0" class="graph" transform="scale(1 1) rotate(0) translate(4 243)">
<title>fe/lexer.h</title>
<!-- Node1 -->
<g id="Node000001" class="node">
<title>Node1</title>
<g id="a_Node000001"><a xlink:title=" ">
<polygon fill="#999999" stroke="#666666" points="218,-239 156,-239 156,-220 218,-220 218,-239"/>
<text text-anchor="middle" x="187" y="-227" font-family="Helvetica,sans-Serif" font-size="10.00">fe/lexer.h</text>
</a>
</g>
</g>
<!-- Node2 -->
<g id="Node000002" class="node">
<title>Node2</title>
<g id="a_Node000002"><a xlink:title=" ">
<polygon fill="#e0e0e0" stroke="#999999" points="104,-184 50,-184 50,-165 104,-165 104,-184"/>
<text text-anchor="middle" x="77" y="-172" font-family="Helvetica,sans-Serif" font-size="10.00">istream</text>
</a>
</g>
</g>
<!-- Node1&#45;&gt;Node2 -->
<g id="edge1_Node000001_Node000002" class="edge">
<title>Node1&#45;&gt;Node2</title>
<g id="a_edge1_Node000001_Node000002"><a xlink:title=" ">
<path fill="none" stroke="#63b8ff" d="M169.33,-219.98C151.71,-211.5 124.42,-198.35 104.07,-188.54"/>
<polygon fill="#63b8ff" stroke="#63b8ff" points="105.52,-185.36 94.99,-184.17 102.48,-191.66 105.52,-185.36"/>
</a>
</g>
</g>
<!-- Node3 -->
<g id="Node000003" class="node">
<title>Node3</title>
<g id="a_Node000003"><a xlink:title=" ">
<polygon fill="#e0e0e0" stroke="#999999" points="139,-129 71,-129 71,-110 139,-110 139,-129"/>
<text text-anchor="middle" x="105" y="-117" font-family="Helvetica,sans-Serif" font-size="10.00">filesystem</text>
</a>
</g>
</g>
<!-- Node1&#45;&gt;Node3 -->
<g id="edge2_Node000001_Node000003" class="edge">
<title>Node1&#45;&gt;Node3</title>
<g id="a_edge2_Node000001_Node000003"><a xlink:title=" ">
<path fill="none" stroke="#63b8ff" d="M179.69,-219.75C172.31,-210.85 160.67,-196.62 151,-184 139.14,-168.52 126.16,-150.48 117.01,-137.6"/>
<polygon fill="#63b8ff" stroke="#63b8ff" points="119.73,-135.38 111.11,-129.23 114.02,-139.42 119.73,-135.38"/>
</a>
</g>
</g>
<!-- Node4 -->
<g id="Node000004" class="node">
<title>Node4</title>
<g id="a_Node000004"><a xlink:href="loc_8h.html" target="_top" xlink:title=" ">
<polygon fill="white" stroke="#666666" points="213.5,-184 160.5,-184 160.5,-165 213.5,-165 213.5,-184"/>
<text text-anchor="middle" x="187" y="-172" font-family="Helvetica,sans-Serif" font-size="10.00">fe/loc.h</text>
</a>
</g>
</g>
<!-- Node1&#45;&gt;Node4 -->
<g id="edge3_Node000001_Node000004" class="edge">
<title>Node1&#45;&gt;Node4</title>
<g id="a_edge3_Node000001_Node000004"><a xlink:title=" ">
<path fill="none" stroke="#63b8ff" d="M187,-219.75C187,-212.8 187,-202.85 187,-194.13"/>
<polygon fill="#63b8ff" stroke="#63b8ff" points="190.5,-194.09 187,-184.09 183.5,-194.09 190.5,-194.09"/>
</a>
</g>
</g>
<!-- Node14 -->
<g id="Node000014" class="node">
<title>Node14</title>
<g id="a_Node000014"><a xlink:href="ring_8h.html" target="_top" xlink:title=" ">
<polygon fill="white" stroke="#666666" points="355.5,-184 298.5,-184 298.5,-165 355.5,-165 355.5,-184"/>
<text text-anchor="middle" x="327" y="-172" font-family="Helvetica,sans-Serif" font-size="10.00">fe/ring.h</text>
</a>
</g>
</g>
<!-- Node1&#45;&gt;Node14 -->
<g id="edge14_Node000001_Node000014" class="edge">
<title>Node1&#45;&gt;Node14</title>
<g id="a_edge14_Node000001_Node000014"><a xlink:title=" ">
<path fill="none" stroke="#63b8ff" d="M209.49,-219.98C232.52,-211.27 268.54,-197.63 294.63,-187.75"/>
<polygon fill="#63b8ff" stroke="#63b8ff" points="295.98,-190.98 304.1,-184.17 293.51,-184.44 295.98,-190.98"/>
</a>
</g>
</g>
<!-- Node20 -->
<g id="Node000020" class="node">
<title>Node20</title>
<g id="a_Node000020"><a xlink:href="utf8_8h.html" target="_top" xlink:title=" ">
<polygon fill="white" stroke="#666666" points="432,-184 374,-184 374,-165 432,-165 432,-184"/>
<text text-anchor="middle" x="403" y="-172" font-family="Helvetica,sans-Serif" font-size="10.00">fe/utf8.h</text>
</a>
</g>
</g>
<!-- Node1&#45;&gt;Node20 -->
<g id="edge21_Node000001_Node000020" class="edge">
<title>Node1&#45;&gt;Node20</title>
<g id="a_edge21_Node000001_Node000020"><a xlink:title=" ">
<path fill="none" stroke="#63b8ff" d="M218.41,-220.79C257,-211.32 322.47,-195.26 364.17,-185.03"/>
<polygon fill="#63b8ff" stroke="#63b8ff" points="365.1,-188.4 373.98,-182.62 363.43,-181.61 365.1,-188.4"/>
</a>
</g>
</g>
<!-- Node4&#45;&gt;Node3 -->
<g id="edge4_Node000004_Node000003" class="edge">
<title>Node4&#45;&gt;Node3</title>
<g id="a_edge4_Node000004_Node000003"><a xlink:title=" ">
<path fill="none" stroke="#63b8ff" d="M173.83,-164.98C161.23,-156.84 142,-144.41 127.06,-134.76"/>
<polygon fill="#63b8ff" stroke="#63b8ff" points="128.71,-131.66 118.41,-129.17 124.91,-137.54 128.71,-131.66"/>
</a>
</g>
</g>
<!-- Node5 -->
<g id="Node000005" class="node">
<title>Node5</title>
<g id="a_Node000005"><a xlink:href="sym_8h.html" target="_top" xlink:title=" ">
<polygon fill="white" stroke="#666666" points="216.5,-129 157.5,-129 157.5,-110 216.5,-110 216.5,-129"/>
<text text-anchor="middle" x="187" y="-117" font-family="Helvetica,sans-Serif" font-size="10.00">fe/sym.h</text>
</a>
</g>
</g>
<!-- Node4&#45;&gt;Node5 -->
<g id="edge5_Node000004_Node000005" class="edge">
<title>Node4&#45;&gt;Node5</title>
<g id="a_edge5_Node000004_Node000005"><a xlink:title=" ">
<path fill="none" stroke="#63b8ff" d="M187,-164.75C187,-157.8 187,-147.85 187,-139.13"/>
<polygon fill="#63b8ff" stroke="#63b8ff" points="190.5,-139.09 187,-129.09 183.5,-139.09 190.5,-139.09"/>
</a>
</g>
</g>
<!-- Node6 -->
<g id="Node000006" class="node">
<title>Node6</title>
<g id="a_Node000006"><a xlink:title=" ">
<polygon fill="#e0e0e0" stroke="#999999" points="60,-74 0,-74 0,-55 60,-55 60,-74"/>
<text text-anchor="middle" x="30" y="-62" font-family="Helvetica,sans-Serif" font-size="10.00">iostream</text>
</a>
</g>
</g>
<!-- Node5&#45;&gt;Node6 -->
<g id="edge6_Node000005_Node000006" class="edge">
<title>Node5&#45;&gt;Node6</title>
<g id="a_edge6_Node000005_Node000006"><a xlink:title=" ">
<path fill="none" stroke="#63b8ff" d="M161.78,-109.98C135.64,-101.16 94.6,-87.31 65.27,-77.41"/>
<polygon fill="#63b8ff" stroke="#63b8ff" points="66.02,-73.96 55.42,-74.08 63.78,-80.6 66.02,-73.96"/>
</a>
</g>
</g>
<!-- Node7 -->
<g id="Node000007" class="node">
<title>Node7</title>
<g id="a_Node000007"><a xlink:title=" ">
<polygon fill="#e0e0e0" stroke="#999999" points="122,-74 78,-74 78,-55 122,-55 122,-74"/>
<text text-anchor="middle" x="100" y="-62" font-family="Helvetica,sans-Serif" font-size="10.00">string</text>
</a>
</g>
</g>
<!-- Node5&#45;&gt;Node7 -->
<g id="edge7_Node000005_Node000007" class="edge">
<title>Node5&#45;&gt;Node7</title>
<g id="a_edge7_Node000005_Node000007"><a xlink:title=" ">
<path fill="none" stroke="#63b8ff" d="M173.02,-109.98C159.53,-101.77 138.87,-89.18 122.96,-79.49"/>
<polygon fill="#63b8ff" stroke="#63b8ff" points="124.59,-76.38 114.23,-74.17 120.95,-82.36 124.59,-76.38"/>
</a>
</g>
</g>
<!-- Node8 -->
<g id="Node000008" class="node">
<title>Node8</title>
<g id="a_Node000008"><a xlink:title=" ">
<polygon fill="#e0e0e0" stroke="#999999" points="208,-74 140,-74 140,-55 208,-55 208,-74"/>
<text text-anchor="middle" x="174" y="-62" font-family="Helvetica,sans-Serif" font-size="10.00">fe/config.h</text>
</a>
</g>
</g>
<!-- Node5&#45;&gt;Node8 -->
<g id="edge8_Node000005_Node000008" class="edge">
<title>Node5&#45;&gt;Node8</title>
<g id="a_edge8_Node000005_Node000008"><a xlink:title=" ">
<path fill="none" stroke="#63b8ff" d="M184.85,-109.75C183.13,-102.72 180.65,-92.62 178.5,-83.84"/>
<polygon fill="#63b8ff" stroke="#63b8ff" points="181.89,-82.97 176.11,-74.09 175.09,-84.63 181.89,-82.97"/>
</a>
</g>
</g>
<!-- Node9 -->
<g id="Node000009" class="node">
<title>Node9</title>
<g id="a_Node000009"><a xlink:href="arena_8h.html" target="_top" xlink:title=" ">
<polygon fill="white" stroke="#666666" points="292,-74 226,-74 226,-55 292,-55 292,-74"/>
<text text-anchor="middle" x="259" y="-62" font-family="Helvetica,sans-Serif" font-size="10.00">fe/arena.h</text>
</a>
</g>
</g>
<!-- Node5&#45;&gt;Node9 -->
<g id="edge9_Node000005_Node000009" class="edge">
<title>Node5&#45;&gt;Node9</title>
<g id="a_edge9_Node000005_Node000009"><a xlink:title=" ">
<path fill="none" stroke="#63b8ff" d="M198.57,-109.98C209.42,-102 225.88,-89.88 238.88,-80.31"/>
<polygon fill="#63b8ff" stroke="#63b8ff" points="241.24,-82.92 247.22,-74.17 237.09,-77.28 241.24,-82.92"/>
</a>
</g>
</g>
<!-- Node12 -->
<g id="Node000012" class="node">
<title>Node12</title>
<g id="a_Node000012"><a xlink:title=" ">
<polygon fill="#e0e0e0" stroke="#999999" points="396,-74 310,-74 310,-55 396,-55 396,-74"/>
<text text-anchor="middle" x="353" y="-62" font-family="Helvetica,sans-Serif" font-size="10.00">unordered_set</text>
</a>
</g>
</g>
<!-- Node5&#45;&gt;Node12 -->
<g id="edge12_Node000005_Node000012" class="edge">
<title>Node5&#45;&gt;Node12</title>
<g id="a_edge12_Node000005_Node000012"><a xlink:title=" ">
<path fill="none" stroke="#63b8ff" d="M213.67,-109.98C241.54,-101.09 285.45,-87.07 316.52,-77.15"/>
<polygon fill="#63b8ff" stroke="#63b8ff" points="317.66,-80.46 326.12,-74.08 315.53,-73.79 317.66,-80.46"/>
</a>
</g>
</g>
<!-- Node13 -->
<g id="Node000013" class="node">
<title>Node13</title>
<g id="a_Node000013"><a xlink:title=" ">
<polygon fill="#e0e0e0" stroke="#999999" points="507.5,-74 414.5,-74 414.5,-55 507.5,-55 507.5,-74"/>
<text text-anchor="middle" x="461" y="-62" font-family="Helvetica,sans-Serif" font-size="10.00">unordered_map</text>
</a>
</g>
</g>
<!-- Node5&#45;&gt;Node13 -->
<g id="edge13_Node000005_Node000013" class="edge">
<title>Node5&#45;&gt;Node13</title>
<g id="a_edge13_Node000005_Node000013"><a xlink:title=" ">
<path fill="none" stroke="#63b8ff" d="M216.85,-111.72C219.6,-111.13 222.35,-110.55 225,-110 286.19,-97.39 356.6,-84.3 404.48,-75.61"/>
<polygon fill="#63b8ff" stroke="#63b8ff" points="405.12,-79.05 414.34,-73.82 403.88,-72.16 405.12,-79.05"/>
</a>
</g>
</g>
<!-- Node10 -->
<g id="Node000010" class="node">
<title>Node10</title>
<g id="a_Node000010"><a xlink:title=" ">
<polygon fill="#e0e0e0" stroke="#999999" points="469,-19 417,-19 417,0 469,0 469,-19"/>
<text text-anchor="middle" x="443" y="-7" font-family="Helvetica,sans-Serif" font-size="10.00">cassert</text>
</a>
</g>
</g>
<!-- Node9&#45;&gt;Node10 -->
<g id="edge10_Node000009_Node000010" class="edge">
<title>Node9&#45;&gt;Node10</title>
<g id="a_edge10_Node000009_Node000010"><a xlink:title=" ">
<path fill="none" stroke="#63b8ff" d="M288.56,-54.98C320.83,-45.69 372.5,-30.81 407.08,-20.85"/>
<polygon fill="#63b8ff" stroke="#63b8ff" points="408.15,-24.18 416.79,-18.05 406.21,-17.45 408.15,-24.18"/>
</a>
</g>
</g>
<!-- Node11 -->
<g id="Node000011" class="node">
<title>Node11</title>
<g id="a_Node000011"><a xlink:title=" ">
<polygon fill="#e0e0e0" stroke="#999999" points="282.5,-19 235.5,-19 235.5,0 282.5,0 282.5,-19"/>
<text text-anchor="middle" x="259" y="-7" font-family="Helvetica,sans-Serif" font-size="10.00">vector</text>
</a>
</g>
</g>
<!-- Node9&#45;&gt;Node11 -->
<g id="edge11_Node000009_Node000011" class="edge">
<title>Node9&#45;&gt;Node11</title>
<g id="a_edge11_Node000009_Node000011"><a xlink:title=" ">
<path fill="none" stroke="#63b8ff" d="M259,-54.75C259,-47.8 259,-37.85 259,-29.13"/>
<polygon fill="#63b8ff" stroke="#63b8ff" points="262.5,-29.09 259,-19.09 255.5,-29.09 262.5,-29.09"/>
</a>
</g>
</g>
<!-- Node15 -->
<g id="Node000015" class="node">
<title>Node15</title>
<g id="a_Node000015"><a xlink:title=" ">
<polygon fill="#e0e0e0" stroke="#999999" points="287.5,-129 234.5,-129 234.5,-110 287.5,-110 287.5,-129"/>
<text text-anchor="middle" x="261" y="-117" font-family="Helvetica,sans-Serif" font-size="10.00">cstddef</text>
</a>
</g>
</g>
<!-- Node14&#45;&gt;Node15 -->
<g id="edge15_Node000014_Node000015" class="edge">
<title>Node14&#45;&gt;Node15</title>
<g id="a_edge15_Node000014_Node000015"><a xlink:title=" ">
<path fill="none" stroke="#63b8ff" d="M316.4,-164.98C306.54,-157.07 291.65,-145.11 279.78,-135.58"/>
<polygon fill="#63b8ff" stroke="#63b8ff" points="281.79,-132.7 271.8,-129.17 277.4,-138.16 281.79,-132.7"/>
</a>
</g>
</g>
<!-- Node16 -->
<g id="Node000016" class="node">
<title>Node16</title>
<g id="a_Node000016"><a xlink:title=" ">
<polygon fill="#e0e0e0" stroke="#999999" points="348,-129 306,-129 306,-110 348,-110 348,-129"/>
<text text-anchor="middle" x="327" y="-117" font-family="Helvetica,sans-Serif" font-size="10.00">array</text>
</a>
</g>
</g>
<!-- Node14&#45;&gt;Node16 -->
<g id="edge16_Node000014_Node000016" class="edge">
<title>Node14&#45;&gt;Node16</title>
<g id="a_edge16_Node000014_Node000016"><a xlink:title=" ">
<path fill="none" stroke="#63b8ff" d="M327,-164.75C327,-157.8 327,-147.85 327,-139.13"/>
<polygon fill="#63b8ff" stroke="#63b8ff" points="330.5,-139.09 327,-129.09 323.5,-139.09 330.5,-139.09"/>
</a>
</g>
</g>
<!-- Node17 -->
<g id="Node000017" class="node">
<title>Node17</title>
<g id="a_Node000017"><a xlink:title=" ">
<polygon fill="#e0e0e0" stroke="#999999" points="430,-129 366,-129 366,-110 430,-110 430,-129"/>
<text text-anchor="middle" x="398" y="-117" font-family="Helvetica,sans-Serif" font-size="10.00">algorithm</text>
</a>
</g>
</g>
<!-- Node14&#45;&gt;Node17 -->
<g id="edge17_Node000014_Node000017" class="edge">
<title>Node14&#45;&gt;Node17</title>
<g id="a_edge17_Node000014_Node000017"><a xlink:title=" ">
<path fill="none" stroke="#63b8ff" d="M338.41,-164.98C349.11,-157 365.34,-144.88 378.16,-135.31"/>
<polygon fill="#63b8ff" stroke="#63b8ff" points="380.47,-137.96 386.39,-129.17 376.28,-132.35 380.47,-137.96"/>
</a>
</g>
</g>
<!-- Node18 -->
<g id="Node000018" class="node">
<title>Node18</title>
<g id="a_Node000018"><a xlink:title=" ">
<polygon fill="#e0e0e0" stroke="#999999" points="531.5,-129 448.5,-129 448.5,-110 531.5,-110 531.5,-129"/>
<text text-anchor="middle" x="490" y="-117" font-family="Helvetica,sans-Serif" font-size="10.00">initializer_list</text>
</a>
</g>
</g>
<!-- Node14&#45;&gt;Node18 -->
<g id="edge18_Node000014_Node000018" class="edge">
<title>Node14&#45;&gt;Node18</title>
<g id="a_edge18_Node000014_Node000018"><a xlink:title=" ">
<path fill="none" stroke="#63b8ff" d="M353.19,-164.98C380.44,-156.13 423.3,-142.19 453.78,-132.28"/>
<polygon fill="#63b8ff" stroke="#63b8ff" points="455.18,-135.5 463.61,-129.08 453.01,-128.85 455.18,-135.5"/>
</a>
</g>
</g>
<!-- Node19 -->
<g id="Node000019" class="node">
<title>Node19</title>
<g id="a_Node000019"><a xlink:href="assert_8h.html" target="_top" xlink:title=" ">
<polygon fill="white" stroke="#666666" points="594,-74 526,-74 526,-55 594,-55 594,-74"/>
<text text-anchor="middle" x="560" y="-62" font-family="Helvetica,sans-Serif" font-size="10.00">fe/assert.h</text>
</a>
</g>
</g>
<!-- Node14&#45;&gt;Node19 -->
<g id="edge19_Node000014_Node000019" class="edge">
<title>Node14&#45;&gt;Node19</title>
<g id="a_edge19_Node000014_Node000019"><a xlink:title=" ">
<path fill="none" stroke="#63b8ff" d="M355.62,-167.04C358.78,-166.34 361.96,-165.65 365,-165 443.07,-148.28 482.09,-182.89 541,-129 553.33,-117.72 557.78,-98.81 559.33,-84.55"/>
<polygon fill="#63b8ff" stroke="#63b8ff" points="562.84,-84.57 560.04,-74.35 555.86,-84.08 562.84,-84.57"/>
</a>
</g>
</g>
<!-- Node19&#45;&gt;Node10 -->
<g id="edge20_Node000019_Node000010" class="edge">
<title>Node19&#45;&gt;Node10</title>
<g id="a_edge20_Node000019_Node000010"><a xlink:title=" ">
<path fill="none" stroke="#63b8ff" d="M541.2,-54.98C522.38,-46.46 493.18,-33.23 471.5,-23.41"/>
<polygon fill="#63b8ff" stroke="#63b8ff" points="472.69,-20.11 462.14,-19.17 469.8,-26.48 472.69,-20.11"/>
</a>
</g>
</g>
</g>
</svg>
