<?xml version="1.0" encoding="UTF-8" standalone="no"?>
<!DOCTYPE svg PUBLIC "-//W3C//DTD SVG 1.1//EN"
 "http://www.w3.org/Graphics/SVG/1.1/DTD/svg11.dtd">
<!-- Generated by graphviz version 2.43.0 (0)
 -->
<!-- Title: fe/lexer.h Pages: 1 -->
<svg width="984pt" height="302pt"
 viewBox="0.00 0.00 984.00 302.00" xmlns="http://www.w3.org/2000/svg" xmlns:xlink="http://www.w3.org/1999/xlink">
<g id="graph0" class="graph" transform="scale(1 1) rotate(0) translate(4 298)">
<title>fe/lexer.h</title>
<!-- Node1 -->
<g id="Node000001" class="node">
<title>Node1</title>
<g id="a_Node000001"><a xlink:title=" ">
<polygon fill="#999999" stroke="#666666" points="517.5,-294 455.5,-294 455.5,-275 517.5,-275 517.5,-294"/>
<text text-anchor="middle" x="486.5" y="-282" font-family="Helvetica,sans-Serif" font-size="10.00">fe/lexer.h</text>
</a>
</g>
</g>
<!-- Node2 -->
<g id="Node000002" class="node">
<title>Node2</title>
<g id="a_Node000002"><a xlink:title=" ">
<polygon fill="#e0e0e0" stroke="#999999" points="317.5,-184 249.5,-184 249.5,-165 317.5,-165 317.5,-184"/>
<text text-anchor="middle" x="283.5" y="-172" font-family="Helvetica,sans-Serif" font-size="10.00">filesystem</text>
</a>
</g>
</g>
<!-- Node1&#45;&gt;Node2 -->
<g id="edge1_Node000001_Node000002" class="edge">
<title>Node1&#45;&gt;Node2</title>
<g id="a_edge1_Node000001_Node000002"><a xlink:title=" ">
<path fill="none" stroke="#63b8ff" d="M455.31,-280.74C421.63,-276.46 367.7,-265.7 329.5,-239 312.82,-227.34 299.93,-207.64 292.1,-193.27"/>
<polygon fill="#63b8ff" stroke="#63b8ff" points="295.19,-191.63 287.5,-184.34 288.96,-194.83 295.19,-191.63"/>
</a>
</g>
</g>
<!-- Node3 -->
<g id="Node000003" class="node">
<title>Node3</title>
<g id="a_Node000003"><a xlink:title=" ">
<polygon fill="#e0e0e0" stroke="#999999" points="513.5,-184 459.5,-184 459.5,-165 513.5,-165 513.5,-184"/>
<text text-anchor="middle" x="486.5" y="-172" font-family="Helvetica,sans-Serif" font-size="10.00">istream</text>
</a>
</g>
</g>
<!-- Node1&#45;&gt;Node3 -->
<g id="edge2_Node000001_Node000003" class="edge">
<title>Node1&#45;&gt;Node3</title>
<g id="a_edge2_Node000001_Node000003"><a xlink:title=" ">
<path fill="none" stroke="#63b8ff" d="M486.5,-274.66C486.5,-257.17 486.5,-217.8 486.5,-194.27"/>
<polygon fill="#63b8ff" stroke="#63b8ff" points="490,-194.16 486.5,-184.16 483,-194.16 490,-194.16"/>
</a>
</g>
</g>
<!-- Node4 -->
<g id="Node000004" class="node">
<title>Node4</title>
<g id="a_Node000004"><a xlink:href="loc_8h.html" target="_top" xlink:title=" ">
<polygon fill="white" stroke="#666666" points="392,-239 339,-239 339,-220 392,-220 392,-239"/>
<text text-anchor="middle" x="365.5" y="-227" font-family="Helvetica,sans-Serif" font-size="10.00">fe/loc.h</text>
</a>
</g>
</g>
<!-- Node1&#45;&gt;Node4 -->
<g id="edge3_Node000001_Node000004" class="edge">
<title>Node1&#45;&gt;Node4</title>
<g id="a_edge3_Node000001_Node000004"><a xlink:title=" ">
<path fill="none" stroke="#63b8ff" d="M467.06,-274.98C447.51,-266.42 417.12,-253.11 394.68,-243.28"/>
<polygon fill="#63b8ff" stroke="#63b8ff" points="395.86,-239.98 385.29,-239.17 393.05,-246.39 395.86,-239.98"/>
</a>
</g>
</g>
<!-- Node19 -->
<g id="Node000019" class="node">
<title>Node19</title>
<g id="a_Node000019"><a xlink:href="ring_8h.html" target="_top" xlink:title=" ">
<polygon fill="white" stroke="#666666" points="800,-129 743,-129 743,-110 800,-110 800,-129"/>
<text text-anchor="middle" x="771.5" y="-117" font-family="Helvetica,sans-Serif" font-size="10.00">fe/ring.h</text>
</a>
</g>
</g>
<!-- Node1&#45;&gt;Node19 -->
<g id="edge20_Node000001_Node000019" class="edge">
<title>Node1&#45;&gt;Node19</title>
<g id="a_edge20_Node000001_Node000019"><a xlink:title=" ">
<path fill="none" stroke="#63b8ff" d="M510.13,-274.96C532.33,-266.66 566.26,-253.25 594.5,-239 636.69,-217.71 646.23,-210.29 685.5,-184 709.14,-168.18 735.3,-148.54 752.49,-135.32"/>
<polygon fill="#63b8ff" stroke="#63b8ff" points="754.83,-137.94 760.6,-129.05 750.55,-132.4 754.83,-137.94"/>
</a>
</g>
</g>
<!-- Node23 -->
<g id="Node000023" class="node">
<title>Node23</title>
<g id="a_Node000023"><a xlink:href="utf8_8h.html" target="_top" xlink:title=" ">
<polygon fill="white" stroke="#666666" points="585.5,-239 527.5,-239 527.5,-220 585.5,-220 585.5,-239"/>
<text text-anchor="middle" x="556.5" y="-227" font-family="Helvetica,sans-Serif" font-size="10.00">fe/utf8.h</text>
</a>
</g>
</g>
<!-- Node1&#45;&gt;Node23 -->
<g id="edge26_Node000001_Node000023" class="edge">
<title>Node1&#45;&gt;Node23</title>
<g id="a_edge26_Node000001_Node000023"><a xlink:title=" ">
<path fill="none" stroke="#63b8ff" d="M497.75,-274.98C508.3,-267 524.3,-254.88 536.94,-245.31"/>
<polygon fill="#63b8ff" stroke="#63b8ff" points="539.19,-248 545.05,-239.17 534.96,-242.42 539.19,-248"/>
</a>
</g>
</g>
<!-- Node4&#45;&gt;Node2 -->
<g id="edge4_Node000004_Node000002" class="edge">
<title>Node4&#45;&gt;Node2</title>
<g id="a_edge4_Node000004_Node000002"><a xlink:title=" ">
<path fill="none" stroke="#63b8ff" d="M352.33,-219.98C339.73,-211.84 320.5,-199.41 305.56,-189.76"/>
<polygon fill="#63b8ff" stroke="#63b8ff" points="307.21,-186.66 296.91,-184.17 303.41,-192.54 307.21,-186.66"/>
</a>
</g>
</g>
<!-- Node5 -->
<g id="Node000005" class="node">
<title>Node5</title>
<g id="a_Node000005"><a xlink:href="sym_8h.html" target="_top" xlink:title=" ">
<polygon fill="white" stroke="#666666" points="395,-184 336,-184 336,-165 395,-165 395,-184"/>
<text text-anchor="middle" x="365.5" y="-172" font-family="Helvetica,sans-Serif" font-size="10.00">fe/sym.h</text>
</a>
</g>
</g>
<!-- Node4&#45;&gt;Node5 -->
<g id="edge5_Node000004_Node000005" class="edge">
<title>Node4&#45;&gt;Node5</title>
<g id="a_edge5_Node000004_Node000005"><a xlink:title=" ">
<path fill="none" stroke="#63b8ff" d="M365.5,-219.75C365.5,-212.8 365.5,-202.85 365.5,-194.13"/>
<polygon fill="#63b8ff" stroke="#63b8ff" points="369,-194.09 365.5,-184.09 362,-194.09 369,-194.09"/>
</a>
</g>
</g>
<!-- Node6 -->
<g id="Node000006" class="node">
<title>Node6</title>
<g id="a_Node000006"><a xlink:title=" ">
<polygon fill="#e0e0e0" stroke="#999999" points="571.5,-19 519.5,-19 519.5,0 571.5,0 571.5,-19"/>
<text text-anchor="middle" x="545.5" y="-7" font-family="Helvetica,sans-Serif" font-size="10.00">cassert</text>
</a>
</g>
</g>
<!-- Node5&#45;&gt;Node6 -->
<g id="edge6_Node000005_Node000006" class="edge">
<title>Node5&#45;&gt;Node6</title>
<g id="a_edge6_Node000005_Node000006"><a xlink:title=" ">
<path fill="none" stroke="#63b8ff" d="M372.88,-164.98C379.78,-156.48 389.7,-142.76 394.5,-129 405.39,-97.81 380.66,-80.63 401.5,-55 427.42,-23.12 475.71,-13.61 509.18,-11.02"/>
<polygon fill="#63b8ff" stroke="#63b8ff" points="509.71,-14.49 519.48,-10.4 509.29,-7.5 509.71,-14.49"/>
</a>
</g>
</g>
<!-- Node7 -->
<g id="Node000007" class="node">
<title>Node7</title>
<g id="a_Node000007"><a xlink:title=" ">
<polygon fill="#e0e0e0" stroke="#999999" points="606.5,-129 556.5,-129 556.5,-110 606.5,-110 606.5,-129"/>
<text text-anchor="middle" x="581.5" y="-117" font-family="Helvetica,sans-Serif" font-size="10.00">cstring</text>
</a>
</g>
</g>
<!-- Node5&#45;&gt;Node7 -->
<g id="edge7_Node000005_Node000007" class="edge">
<title>Node5&#45;&gt;Node7</title>
<g id="a_edge7_Node000005_Node000007"><a xlink:title=" ">
<path fill="none" stroke="#63b8ff" d="M395.14,-166.3C429.27,-158 487.29,-143.86 546.38,-129.27"/>
<polygon fill="#63b8ff" stroke="#63b8ff" points="547.38,-132.62 556.25,-126.83 545.7,-125.83 547.38,-132.62"/>
</a>
</g>
</g>
<!-- Node8 -->
<g id="Node000008" class="node">
<title>Node8</title>
<g id="a_Node000008"><a xlink:title=" ">
<polygon fill="#e0e0e0" stroke="#999999" points="29,-129 0,-129 0,-110 29,-110 29,-129"/>
<text text-anchor="middle" x="14.5" y="-117" font-family="Helvetica,sans-Serif" font-size="10.00">bit</text>
</a>
</g>
</g>
<!-- Node5&#45;&gt;Node8 -->
<g id="edge8_Node000005_Node000008" class="edge">
<title>Node5&#45;&gt;Node8</title>
<g id="a_edge8_Node000005_Node000008"><a xlink:title=" ">
<path fill="none" stroke="#63b8ff" d="M335.74,-166.73C332.63,-166.1 329.51,-165.51 326.5,-165 202.58,-143.8 165.88,-157.94 39.16,-128.61"/>
<polygon fill="#63b8ff" stroke="#63b8ff" points="39.61,-125.12 29.07,-126.23 38,-131.93 39.61,-125.12"/>
</a>
</g>
</g>
<!-- Node9 -->
<g id="Node000009" class="node">
<title>Node9</title>
<g id="a_Node000009"><a xlink:title=" ">
<polygon fill="#e0e0e0" stroke="#999999" points="107.5,-129 47.5,-129 47.5,-110 107.5,-110 107.5,-129"/>
<text text-anchor="middle" x="77.5" y="-117" font-family="Helvetica,sans-Serif" font-size="10.00">iostream</text>
</a>
</g>
</g>
<!-- Node5&#45;&gt;Node9 -->
<g id="edge9_Node000005_Node000009" class="edge">
<title>Node5&#45;&gt;Node9</title>
<g id="a_edge9_Node000005_Node000009"><a xlink:title=" ">
<path fill="none" stroke="#63b8ff" d="M335.72,-166.87C332.61,-166.22 329.49,-165.58 326.5,-165 236.63,-147.51 211.13,-147.1 117.59,-129.14"/>
<polygon fill="#63b8ff" stroke="#63b8ff" points="118.19,-125.69 107.71,-127.22 116.86,-132.56 118.19,-125.69"/>
</a>
</g>
</g>
<!-- Node10 -->
<g id="Node000010" class="node">
<title>Node10</title>
<g id="a_Node000010"><a xlink:title=" ">
<polygon fill="#e0e0e0" stroke="#999999" points="169.5,-129 125.5,-129 125.5,-110 169.5,-110 169.5,-129"/>
<text text-anchor="middle" x="147.5" y="-117" font-family="Helvetica,sans-Serif" font-size="10.00">string</text>
</a>
</g>
</g>
<!-- Node5&#45;&gt;Node10 -->
<g id="edge10_Node000005_Node000010" class="edge">
<title>Node5&#45;&gt;Node10</title>
<g id="a_edge10_Node000005_Node000010"><a xlink:title=" ">
<path fill="none" stroke="#63b8ff" d="M335.95,-166.79C300.9,-158.77 240.48,-144.72 179.6,-129.22"/>
<polygon fill="#63b8ff" stroke="#63b8ff" points="180.38,-125.81 169.83,-126.72 178.65,-132.59 180.38,-125.81"/>
</a>
</g>
</g>
<!-- Node11 -->
<g id="Node000011" class="node">
<title>Node11</title>
<g id="a_Node000011"><a xlink:title=" ">
<polygon fill="#e0e0e0" stroke="#999999" points="281,-129 188,-129 188,-110 281,-110 281,-129"/>
<text text-anchor="middle" x="234.5" y="-117" font-family="Helvetica,sans-Serif" font-size="10.00">unordered_map</text>
</a>
</g>
</g>
<!-- Node5&#45;&gt;Node11 -->
<g id="edge11_Node000005_Node000011" class="edge">
<title>Node5&#45;&gt;Node11</title>
<g id="a_edge11_Node000005_Node000011"><a xlink:title=" ">
<path fill="none" stroke="#63b8ff" d="M344.45,-164.98C323.09,-156.34 289.8,-142.87 265.44,-133.02"/>
<polygon fill="#63b8ff" stroke="#63b8ff" points="266.51,-129.68 255.93,-129.17 263.89,-136.17 266.51,-129.68"/>
</a>
</g>
</g>
<!-- Node12 -->
<g id="Node000012" class="node">
<title>Node12</title>
<g id="a_Node000012"><a xlink:title=" ">
<polygon fill="#e0e0e0" stroke="#999999" points="385.5,-129 299.5,-129 299.5,-110 385.5,-110 385.5,-129"/>
<text text-anchor="middle" x="342.5" y="-117" font-family="Helvetica,sans-Serif" font-size="10.00">unordered_set</text>
</a>
</g>
</g>
<!-- Node5&#45;&gt;Node12 -->
<g id="edge12_Node000005_Node000012" class="edge">
<title>Node5&#45;&gt;Node12</title>
<g id="a_edge12_Node000005_Node000012"><a xlink:title=" ">
<path fill="none" stroke="#63b8ff" d="M361.7,-164.75C358.59,-157.57 354.08,-147.18 350.21,-138.27"/>
<polygon fill="#63b8ff" stroke="#63b8ff" points="353.42,-136.87 346.23,-129.09 347,-139.66 353.42,-136.87"/>
</a>
</g>
</g>
<!-- Node13 -->
<g id="Node000013" class="node">
<title>Node13</title>
<g id="a_Node000013"><a xlink:href="arena_8h.html" target="_top" xlink:title=" ">
<polygon fill="white" stroke="#666666" points="538.5,-129 472.5,-129 472.5,-110 538.5,-110 538.5,-129"/>
<text text-anchor="middle" x="505.5" y="-117" font-family="Helvetica,sans-Serif" font-size="10.00">fe/arena.h</text>
</a>
</g>
</g>
<!-- Node5&#45;&gt;Node13 -->
<g id="edge13_Node000005_Node000013" class="edge">
<title>Node5&#45;&gt;Node13</title>
<g id="a_edge13_Node000005_Node000013"><a xlink:title=" ">
<path fill="none" stroke="#63b8ff" d="M387.99,-164.98C411.02,-156.27 447.04,-142.63 473.13,-132.75"/>
<polygon fill="#63b8ff" stroke="#63b8ff" points="474.48,-135.98 482.6,-129.17 472.01,-129.44 474.48,-135.98"/>
</a>
</g>
</g>
<!-- Node14 -->
<g id="Node000014" class="node">
<title>Node14</title>
<g id="a_Node000014"><a xlink:title=" ">
<polygon fill="#e0e0e0" stroke="#999999" points="656.5,-74 592.5,-74 592.5,-55 656.5,-55 656.5,-74"/>
<text text-anchor="middle" x="624.5" y="-62" font-family="Helvetica,sans-Serif" font-size="10.00">algorithm</text>
</a>
</g>
</g>
<!-- Node13&#45;&gt;Node14 -->
<g id="edge14_Node000013_Node000014" class="edge">
<title>Node13&#45;&gt;Node14</title>
<g id="a_edge14_Node000013_Node000014"><a xlink:title=" ">
<path fill="none" stroke="#63b8ff" d="M524.62,-109.98C543.85,-101.42 573.73,-88.11 595.81,-78.28"/>
<polygon fill="#63b8ff" stroke="#63b8ff" points="597.32,-81.44 605.03,-74.17 594.47,-75.04 597.32,-81.44"/>
</a>
</g>
</g>
<!-- Node15 -->
<g id="Node000015" class="node">
<title>Node15</title>
<g id="a_Node000015"><a xlink:title=" ">
<polygon fill="#e0e0e0" stroke="#999999" points="574.5,-74 542.5,-74 542.5,-55 574.5,-55 574.5,-74"/>
<text text-anchor="middle" x="558.5" y="-62" font-family="Helvetica,sans-Serif" font-size="10.00">list</text>
</a>
</g>
</g>
<!-- Node13&#45;&gt;Node15 -->
<g id="edge15_Node000013_Node000015" class="edge">
<title>Node13&#45;&gt;Node15</title>
<g id="a_edge15_Node000013_Node000015"><a xlink:title=" ">
<path fill="none" stroke="#63b8ff" d="M514.25,-109.75C521.97,-102.03 533.4,-90.6 542.72,-81.28"/>
<polygon fill="#63b8ff" stroke="#63b8ff" points="545.31,-83.64 549.91,-74.09 540.36,-78.69 545.31,-83.64"/>
</a>
</g>
</g>
<!-- Node16 -->
<g id="Node000016" class="node">
<title>Node16</title>
<g id="a_Node000016"><a xlink:title=" ">
<polygon fill="#e0e0e0" stroke="#999999" points="468.5,-74 410.5,-74 410.5,-55 468.5,-55 468.5,-74"/>
<text text-anchor="middle" x="439.5" y="-62" font-family="Helvetica,sans-Serif" font-size="10.00">memory</text>
</a>
</g>
</g>
<!-- Node13&#45;&gt;Node16 -->
<g id="edge16_Node000013_Node000016" class="edge">
<title>Node13&#45;&gt;Node16</title>
<g id="a_edge16_Node000013_Node000016"><a xlink:title=" ">
<path fill="none" stroke="#63b8ff" d="M494.9,-109.98C485.04,-102.07 470.15,-90.11 458.28,-80.58"/>
<polygon fill="#63b8ff" stroke="#63b8ff" points="460.29,-77.7 450.3,-74.17 455.9,-83.16 460.29,-77.7"/>
</a>
</g>
</g>
<!-- Node17 -->
<g id="Node000017" class="node">
<title>Node17</title>
<g id="a_Node000017"><a xlink:title=" ">
<polygon fill="#e0e0e0" stroke="#999999" points="524,-74 487,-74 487,-55 524,-55 524,-74"/>
<text text-anchor="middle" x="505.5" y="-62" font-family="Helvetica,sans-Serif" font-size="10.00">new</text>
</a>
</g>
</g>
<!-- Node13&#45;&gt;Node17 -->
<g id="edge17_Node000013_Node000017" class="edge">
<title>Node13&#45;&gt;Node17</title>
<g id="a_edge17_Node000013_Node000017"><a xlink:title=" ">
<path fill="none" stroke="#63b8ff" d="M505.5,-109.75C505.5,-102.8 505.5,-92.85 505.5,-84.13"/>
<polygon fill="#63b8ff" stroke="#63b8ff" points="509,-84.09 505.5,-74.09 502,-84.09 509,-84.09"/>
</a>
</g>
</g>
<!-- Node18 -->
<g id="Node000018" class="node">
<title>Node18</title>
<g id="a_Node000018"><a xlink:href="assert_8h.html" target="_top" xlink:title=" ">
<polygon fill="white" stroke="#666666" points="742.5,-74 674.5,-74 674.5,-55 742.5,-55 742.5,-74"/>
<text text-anchor="middle" x="708.5" y="-62" font-family="Helvetica,sans-Serif" font-size="10.00">fe/assert.h</text>
</a>
</g>
</g>
<!-- Node13&#45;&gt;Node18 -->
<g id="edge18_Node000013_Node000018" class="edge">
<title>Node13&#45;&gt;Node18</title>
<g id="a_edge18_Node000013_Node000018"><a xlink:title=" ">
<path fill="none" stroke="#63b8ff" d="M538.12,-109.98C572.79,-100.93 627.76,-86.58 665.85,-76.64"/>
<polygon fill="#63b8ff" stroke="#63b8ff" points="666.84,-79.99 675.63,-74.08 665.07,-73.22 666.84,-79.99"/>
</a>
</g>
</g>
<!-- Node18&#45;&gt;Node6 -->
<g id="edge19_Node000018_Node000006" class="edge">
<title>Node18&#45;&gt;Node6</title>
<g id="a_edge19_Node000018_Node000006"><a xlink:title=" ">
<path fill="none" stroke="#63b8ff" d="M682.31,-54.98C654.98,-46.1 611.94,-32.1 581.45,-22.19"/>
<polygon fill="#63b8ff" stroke="#63b8ff" points="582.22,-18.76 571.62,-18.99 580.05,-25.41 582.22,-18.76"/>
</a>
</g>
</g>
<!-- Node19&#45;&gt;Node14 -->
<g id="edge22_Node000019_Node000014" class="edge">
<title>Node19&#45;&gt;Node14</title>
<g id="a_edge22_Node000019_Node000014"><a xlink:title=" ">
<path fill="none" stroke="#63b8ff" d="M747.88,-109.98C723.6,-101.23 685.55,-87.51 658.13,-77.62"/>
<polygon fill="#63b8ff" stroke="#63b8ff" points="659.14,-74.27 648.55,-74.17 656.77,-80.85 659.14,-74.27"/>
</a>
</g>
</g>
<!-- Node19&#45;&gt;Node18 -->
<g id="edge25_Node000019_Node000018" class="edge">
<title>Node19&#45;&gt;Node18</title>
<g id="a_edge25_Node000019_Node000018"><a xlink:title=" ">
<path fill="none" stroke="#63b8ff" d="M761.38,-109.98C752.06,-102.15 738.03,-90.34 726.76,-80.86"/>
<polygon fill="#63b8ff" stroke="#63b8ff" points="728.71,-77.93 718.81,-74.17 724.21,-83.29 728.71,-77.93"/>
</a>
</g>
</g>
<!-- Node20 -->
<g id="Node000020" class="node">
<title>Node20</title>
<g id="a_Node000020"><a xlink:title=" ">
<polygon fill="#e0e0e0" stroke="#999999" points="814,-74 761,-74 761,-55 814,-55 814,-74"/>
<text text-anchor="middle" x="787.5" y="-62" font-family="Helvetica,sans-Serif" font-size="10.00">cstddef</text>
</a>
</g>
</g>
<!-- Node19&#45;&gt;Node20 -->
<g id="edge21_Node000019_Node000020" class="edge">
<title>Node19&#45;&gt;Node20</title>
<g id="a_edge21_Node000019_Node000020"><a xlink:title=" ">
<path fill="none" stroke="#63b8ff" d="M774.14,-109.75C776.26,-102.72 779.31,-92.62 781.96,-83.84"/>
<polygon fill="#63b8ff" stroke="#63b8ff" points="785.37,-84.67 784.91,-74.09 778.67,-82.65 785.37,-84.67"/>
</a>
</g>
</g>
<!-- Node21 -->
<g id="Node000021" class="node">
<title>Node21</title>
<g id="a_Node000021"><a xlink:title=" ">
<polygon fill="#e0e0e0" stroke="#999999" points="874.5,-74 832.5,-74 832.5,-55 874.5,-55 874.5,-74"/>
<text text-anchor="middle" x="853.5" y="-62" font-family="Helvetica,sans-Serif" font-size="10.00">array</text>
</a>
</g>
</g>
<!-- Node19&#45;&gt;Node21 -->
<g id="edge23_Node000019_Node000021" class="edge">
<title>Node19&#45;&gt;Node21</title>
<g id="a_edge23_Node000019_Node000021"><a xlink:title=" ">
<path fill="none" stroke="#63b8ff" d="M784.67,-109.98C797.27,-101.84 816.5,-89.41 831.44,-79.76"/>
<polygon fill="#63b8ff" stroke="#63b8ff" points="833.59,-82.54 840.09,-74.17 829.79,-76.66 833.59,-82.54"/>
</a>
</g>
</g>
<!-- Node22 -->
<g id="Node000022" class="node">
<title>Node22</title>
<g id="a_Node000022"><a xlink:title=" ">
<polygon fill="#e0e0e0" stroke="#999999" points="976,-74 893,-74 893,-55 976,-55 976,-74"/>
<text text-anchor="middle" x="934.5" y="-62" font-family="Helvetica,sans-Serif" font-size="10.00">initializer_list</text>
</a>
</g>
</g>
<!-- Node19&#45;&gt;Node22 -->
<g id="edge24_Node000019_Node000022" class="edge">
<title>Node19&#45;&gt;Node22</title>
<g id="a_edge24_Node000019_Node000022"><a xlink:title=" ">
<path fill="none" stroke="#63b8ff" d="M797.69,-109.98C824.94,-101.13 867.8,-87.19 898.28,-77.28"/>
<polygon fill="#63b8ff" stroke="#63b8ff" points="899.68,-80.5 908.11,-74.08 897.51,-73.85 899.68,-80.5"/>
</a>
</g>
</g>
<!-- Node23&#45;&gt;Node3 -->
<g id="edge28_Node000023_Node000003" class="edge">
<title>Node23&#45;&gt;Node3</title>
<g id="a_edge28_Node000023_Node000003"><a xlink:title=" ">
<path fill="none" stroke="#63b8ff" d="M545.25,-219.98C534.7,-212 518.7,-199.88 506.06,-190.31"/>
<polygon fill="#63b8ff" stroke="#63b8ff" points="508.04,-187.42 497.95,-184.17 503.81,-193 508.04,-187.42"/>
</a>
</g>
</g>
<!-- Node23&#45;&gt;Node18 -->
<g id="edge30_Node000023_Node000018" class="edge">
<title>Node23&#45;&gt;Node18</title>
<g id="a_edge30_Node000023_Node000018"><a xlink:title=" ">
<path fill="none" stroke="#63b8ff" d="M585.67,-223.41C610.03,-217.74 644.11,-206.25 665.5,-184 692.33,-156.09 702.61,-110.16 706.41,-84.45"/>
<polygon fill="#63b8ff" stroke="#63b8ff" points="709.92,-84.56 707.73,-74.2 702.98,-83.67 709.92,-84.56"/>
</a>
</g>
</g>
<!-- Node24 -->
<g id="Node000024" class="node">
<title>Node24</title>
<g id="a_Node000024"><a xlink:title=" ">
<polygon fill="#e0e0e0" stroke="#999999" points="581,-184 532,-184 532,-165 581,-165 581,-184"/>
<text text-anchor="middle" x="556.5" y="-172" font-family="Helvetica,sans-Serif" font-size="10.00">cctype</text>
</a>
</g>
</g>
<!-- Node23&#45;&gt;Node24 -->
<g id="edge27_Node000023_Node000024" class="edge">
<title>Node23&#45;&gt;Node24</title>
<g id="a_edge27_Node000023_Node000024"><a xlink:title=" ">
<path fill="none" stroke="#63b8ff" d="M556.5,-219.75C556.5,-212.8 556.5,-202.85 556.5,-194.13"/>
<polygon fill="#63b8ff" stroke="#63b8ff" points="560,-194.09 556.5,-184.09 553,-194.09 560,-194.09"/>
</a>
</g>
</g>
<!-- Node25 -->
<g id="Node000025" class="node">
<title>Node25</title>
<g id="a_Node000025"><a xlink:title=" ">
<polygon fill="#e0e0e0" stroke="#999999" points="656,-184 599,-184 599,-165 656,-165 656,-184"/>
<text text-anchor="middle" x="627.5" y="-172" font-family="Helvetica,sans-Serif" font-size="10.00">ostream</text>
</a>
</g>
</g>
<!-- Node23&#45;&gt;Node25 -->
<g id="edge29_Node000023_Node000025" class="edge">
<title>Node23&#45;&gt;Node25</title>
<g id="a_edge29_Node000023_Node000025"><a xlink:title=" ">
<path fill="none" stroke="#63b8ff" d="M567.91,-219.98C578.61,-212 594.84,-199.88 607.66,-190.31"/>
<polygon fill="#63b8ff" stroke="#63b8ff" points="609.97,-192.96 615.89,-184.17 605.78,-187.35 609.97,-192.96"/>
</a>
</g>
</g>
</g>
</svg>
