<?xml version="1.0" encoding="UTF-8" standalone="no"?>
<!DOCTYPE svg PUBLIC "-//W3C//DTD SVG 1.1//EN"
 "http://www.w3.org/Graphics/SVG/1.1/DTD/svg11.dtd">
<!-- Generated by graphviz version 2.43.0 (0)
 -->
<!-- Title: fe/lexer.h Pages: 1 -->
<!--zoomable 302 -->

<svg id="main" version="1.1" xmlns="http://www.w3.org/2000/svg" xmlns:xlink="http://www.w3.org/1999/xlink" xml:space="preserve" onload="init(evt)">

<style type="text/css"><![CDATA[
.node, .edge {opacity: 0.7;}
.node.selected, .edge.selected {opacity: 1;}
.edge:hover path { stroke: red; }
.edge:hover polygon { stroke: red; fill: red; }
]]></style>

<defs>
  <circle id="rim" cx="0" cy="0" r="7"/>
  <circle id="rim2" cx="0" cy="0" r="3.5"/>
  <g id="zoomPlus">
    <use xlink:href="#rim" fill="#404040"><set attributeName="fill" to="#808080" begin="zoomplus.mouseover" end="zoomplus.mouseout"/></use>
    <path d="M-4,0h8M0,-4v8" fill="none" stroke="white" stroke-width="1.5" pointer-events="none"/>
  </g>
  <g id="zoomMin">
    <use xlink:href="#rim" fill="#404040"><set attributeName="fill" to="#808080" begin="zoomminus.mouseover" end="zoomminus.mouseout"/></use>
    <path d="M-4,0h8" fill="none" stroke="white" stroke-width="1.5" pointer-events="none"/>
  </g>
  <g id="arrowUp" transform="translate(30 24)">
    <use xlink:href="#rim"/>
    <path pointer-events="none" fill="none" stroke="white" stroke-width="1.5" d="M0,-3.0v7 M-2.5,-0.5L0,-3.0L2.5,-0.5"/>
  </g>
  <g id="arrowRight" transform="rotate(90) translate(36 -43)">
    <use xlink:href="#rim"/>
    <path pointer-events="none" fill="none" stroke="white" stroke-width="1.5" d="M0,-3.0v7 M-2.5,-0.5L0,-3.0L2.5,-0.5"/>
  </g>
  <g id="arrowDown" transform="rotate(180) translate(-30 -48)">
    <use xlink:href="#rim"/>
    <path pointer-events="none" fill="none" stroke="white" stroke-width="1.5" d="M0,-3.0v7 M-2.5,-0.5L0,-3.0L2.5,-0.5"/>
  </g>
  <g id="arrowLeft" transform="rotate(270) translate(-36 17)">
    <use xlink:href="#rim"/>
    <path pointer-events="none" fill="none" stroke="white" stroke-width="1.5" d="M0,-3.0v7 M-2.5,-0.5L0,-3.0L2.5,-0.5"/>
  </g>
  <g id="resetDef">
    <use xlink:href="#rim2" fill="#404040"><set attributeName="fill" to="#808080" begin="reset.mouseover" end="reset.mouseout"/></use>
  </g>
</defs>
<script type="application/ecmascript">
var viewWidth = 912;
var viewHeight = 302;
var sectionId = 'dynsection-0';
</script>
<script type="application/ecmascript" xlink:href="svg.min.js"/>
<svg id="graph" class="graph">
<g id="viewport">
<title>fe/lexer.h</title>
<!-- Node1 -->
<g id="Node000001" class="node">
<title>Node1</title>
<g id="a_Node000001"><a xlink:title=" ">
<polygon fill="#999999" stroke="#666666" points="524,-294 462,-294 462,-275 524,-275 524,-294"/>
<text text-anchor="middle" x="493" y="-282" font-family="Helvetica,sans-Serif" font-size="10.00">fe/lexer.h</text>
</a>
</g>
</g>
<!-- Node2 -->
<g id="Node000002" class="node">
<title>Node2</title>
<g id="a_Node000002"><a xlink:title=" ">
<polygon fill="#e0e0e0" stroke="#999999" points="332,-184 264,-184 264,-165 332,-165 332,-184"/>
<text text-anchor="middle" x="298" y="-172" font-family="Helvetica,sans-Serif" font-size="10.00">filesystem</text>
</a>
</g>
</g>
<!-- Node1&#45;&gt;Node2 -->
<g id="edge1_Node000001_Node000002" class="edge">
<title>Node1&#45;&gt;Node2</title>
<g id="a_edge1_Node000001_Node000002"><a xlink:title=" ">
<path fill="none" stroke="#63b8ff" d="M465.34,-274.89C442.06,-267.09 408.3,-254.48 381,-239 356.54,-225.13 331.27,-204.78 315.14,-190.88"/>
<polygon fill="#63b8ff" stroke="#63b8ff" points="317.42,-188.23 307.6,-184.27 312.81,-193.49 317.42,-188.23"/>
</a>
</g>
</g>
<!-- Node3 -->
<g id="Node000003" class="node">
<title>Node3</title>
<g id="a_Node000003"><a xlink:title=" ">
<polygon fill="#e0e0e0" stroke="#999999" points="520,-184 466,-184 466,-165 520,-165 520,-184"/>
<text text-anchor="middle" x="493" y="-172" font-family="Helvetica,sans-Serif" font-size="10.00">istream</text>
</a>
</g>
</g>
<!-- Node1&#45;&gt;Node3 -->
<g id="edge2_Node000001_Node000003" class="edge">
<title>Node1&#45;&gt;Node3</title>
<g id="a_edge2_Node000001_Node000003"><a xlink:title=" ">
<path fill="none" stroke="#63b8ff" d="M493,-274.66C493,-257.17 493,-217.8 493,-194.27"/>
<polygon fill="#63b8ff" stroke="#63b8ff" points="496.5,-194.16 493,-184.16 489.5,-194.16 496.5,-194.16"/>
</a>
</g>
</g>
<!-- Node4 -->
<g id="Node000004" class="node">
<title>Node4</title>
<g id="a_Node000004"><a xlink:href="loc_8h.html" target="_top" xlink:title=" ">
<polygon fill="white" stroke="#666666" points="443.5,-239 390.5,-239 390.5,-220 443.5,-220 443.5,-239"/>
<text text-anchor="middle" x="417" y="-227" font-family="Helvetica,sans-Serif" font-size="10.00">fe/loc.h</text>
</a>
</g>
</g>
<!-- Node1&#45;&gt;Node4 -->
<g id="edge3_Node000001_Node000004" class="edge">
<title>Node1&#45;&gt;Node4</title>
<g id="a_edge3_Node000001_Node000004"><a xlink:title=" ">
<path fill="none" stroke="#63b8ff" d="M480.79,-274.98C469.22,-266.92 451.62,-254.65 437.84,-245.03"/>
<polygon fill="#63b8ff" stroke="#63b8ff" points="439.64,-242.02 429.43,-239.17 435.63,-247.76 439.64,-242.02"/>
</a>
</g>
</g>
<!-- Node25 -->
<g id="Node000025" class="node">
<title>Node25</title>
<g id="a_Node000025"><a xlink:href="ring_8h.html" target="_top" xlink:title=" ">
<polygon fill="white" stroke="#666666" points="805.5,-129 748.5,-129 748.5,-110 805.5,-110 805.5,-129"/>
<text text-anchor="middle" x="777" y="-117" font-family="Helvetica,sans-Serif" font-size="10.00">fe/ring.h</text>
</a>
</g>
</g>
<!-- Node1&#45;&gt;Node25 -->
<g id="edge28_Node000001_Node000025" class="edge">
<title>Node1&#45;&gt;Node25</title>
<g id="a_edge28_Node000001_Node000025"><a xlink:title=" ">
<path fill="none" stroke="#63b8ff" d="M524.06,-278.29C595.74,-265.55 769.12,-230.46 802,-184 812.11,-169.72 802.24,-150.79 792.07,-137.32"/>
<polygon fill="#63b8ff" stroke="#63b8ff" points="794.6,-134.88 785.56,-129.36 789.19,-139.32 794.6,-134.88"/>
</a>
</g>
</g>
<!-- Node29 -->
<g id="Node000029" class="node">
<title>Node29</title>
<g id="a_Node000029"><a xlink:href="utf8_8h.html" target="_top" xlink:title=" ">
<polygon fill="white" stroke="#666666" points="637,-239 579,-239 579,-220 637,-220 637,-239"/>
<text text-anchor="middle" x="608" y="-227" font-family="Helvetica,sans-Serif" font-size="10.00">fe/utf8.h</text>
</a>
</g>
</g>
<!-- Node1&#45;&gt;Node29 -->
<g id="edge34_Node000001_Node000029" class="edge">
<title>Node1&#45;&gt;Node29</title>
<g id="a_edge34_Node000001_Node000029"><a xlink:title=" ">
<path fill="none" stroke="#63b8ff" d="M511.48,-274.98C529.98,-266.46 558.68,-253.23 579.98,-243.41"/>
<polygon fill="#63b8ff" stroke="#63b8ff" points="581.57,-246.53 589.19,-239.17 578.64,-240.18 581.57,-246.53"/>
</a>
</g>
</g>
<!-- Node4&#45;&gt;Node2 -->
<g id="edge5_Node000004_Node000002" class="edge">
<title>Node4&#45;&gt;Node2</title>
<g id="a_edge5_Node000004_Node000002"><a xlink:title=" ">
<path fill="none" stroke="#63b8ff" d="M397.88,-219.98C378.65,-211.42 348.77,-198.11 326.69,-188.28"/>
<polygon fill="#63b8ff" stroke="#63b8ff" points="328.03,-185.04 317.47,-184.17 325.18,-191.44 328.03,-185.04"/>
</a>
</g>
</g>
<!-- Node5 -->
<g id="Node000005" class="node">
<title>Node5</title>
<g id="a_Node000005"><a xlink:title=" ">
<polygon fill="#e0e0e0" stroke="#999999" points="584,-74 520,-74 520,-55 584,-55 584,-74"/>
<text text-anchor="middle" x="552" y="-62" font-family="Helvetica,sans-Serif" font-size="10.00">algorithm</text>
</a>
</g>
</g>
<!-- Node4&#45;&gt;Node5 -->
<g id="edge4_Node000004_Node000005" class="edge">
<title>Node4&#45;&gt;Node5</title>
<g id="a_edge4_Node000004_Node000005"><a xlink:title=" ">
<path fill="none" stroke="#63b8ff" d="M420.15,-219.66C425.53,-205.87 437.79,-179.34 457,-165 504.35,-129.64 549.32,-176.11 585,-129 596.29,-114.1 582.91,-94.78 569.96,-81.38"/>
<polygon fill="#63b8ff" stroke="#63b8ff" points="572.2,-78.68 562.57,-74.25 567.34,-83.72 572.2,-78.68"/>
</a>
</g>
</g>
<!-- Node6 -->
<g id="Node000006" class="node">
<title>Node6</title>
<g id="a_Node000006"><a xlink:href="sym_8h.html" target="_top" xlink:title=" ">
<polygon fill="white" stroke="#666666" points="409.5,-184 350.5,-184 350.5,-165 409.5,-165 409.5,-184"/>
<text text-anchor="middle" x="380" y="-172" font-family="Helvetica,sans-Serif" font-size="10.00">fe/sym.h</text>
</a>
</g>
</g>
<!-- Node4&#45;&gt;Node6 -->
<g id="edge6_Node000004_Node000006" class="edge">
<title>Node4&#45;&gt;Node6</title>
<g id="a_edge6_Node000004_Node000006"><a xlink:title=" ">
<path fill="none" stroke="#63b8ff" d="M410.89,-219.75C405.72,-212.34 398.15,-201.5 391.81,-192.41"/>
<polygon fill="#63b8ff" stroke="#63b8ff" points="394.59,-190.29 386,-184.09 388.85,-194.29 394.59,-190.29"/>
</a>
</g>
</g>
<!-- Node7 -->
<g id="Node000007" class="node">
<title>Node7</title>
<g id="a_Node000007"><a xlink:title=" ">
<polygon fill="#e0e0e0" stroke="#999999" points="521,-19 469,-19 469,0 521,0 521,-19"/>
<text text-anchor="middle" x="495" y="-7" font-family="Helvetica,sans-Serif" font-size="10.00">cassert</text>
</a>
</g>
</g>
<!-- Node6&#45;&gt;Node7 -->
<g id="edge7_Node000006_Node000007" class="edge">
<title>Node6&#45;&gt;Node7</title>
<g id="a_edge7_Node000006_Node000007"><a xlink:title=" ">
<path fill="none" stroke="#63b8ff" d="M379.09,-164.68C378.2,-151.38 378.48,-126.06 391,-110 415.22,-78.93 445.15,-102.82 472,-74 483.48,-61.68 489.32,-43.2 492.23,-29.35"/>
<polygon fill="#63b8ff" stroke="#63b8ff" points="495.69,-29.89 493.99,-19.44 488.8,-28.67 495.69,-29.89"/>
</a>
</g>
</g>
<!-- Node8 -->
<g id="Node000008" class="node">
<title>Node8</title>
<g id="a_Node000008"><a xlink:title=" ">
<polygon fill="#e0e0e0" stroke="#999999" points="450,-129 400,-129 400,-110 450,-110 450,-129"/>
<text text-anchor="middle" x="425" y="-117" font-family="Helvetica,sans-Serif" font-size="10.00">cstring</text>
</a>
</g>
</g>
<!-- Node6&#45;&gt;Node8 -->
<g id="edge8_Node000006_Node000008" class="edge">
<title>Node6&#45;&gt;Node8</title>
<g id="a_edge8_Node000006_Node000008"><a xlink:title=" ">
<path fill="none" stroke="#63b8ff" d="M387.43,-164.75C393.85,-157.18 403.31,-146.05 411.12,-136.84"/>
<polygon fill="#63b8ff" stroke="#63b8ff" points="413.9,-138.98 417.71,-129.09 408.57,-134.45 413.9,-138.98"/>
</a>
</g>
</g>
<!-- Node9 -->
<g id="Node000009" class="node">
<title>Node9</title>
<g id="a_Node000009"><a xlink:title=" ">
<polygon fill="#e0e0e0" stroke="#999999" points="497.5,-129 468.5,-129 468.5,-110 497.5,-110 497.5,-129"/>
<text text-anchor="middle" x="483" y="-117" font-family="Helvetica,sans-Serif" font-size="10.00">bit</text>
</a>
</g>
</g>
<!-- Node6&#45;&gt;Node9 -->
<g id="edge9_Node000006_Node000009" class="edge">
<title>Node6&#45;&gt;Node9</title>
<g id="a_edge9_Node000006_Node000009"><a xlink:title=" ">
<path fill="none" stroke="#63b8ff" d="M396.55,-164.98C413.58,-156.22 440.25,-142.5 459.47,-132.61"/>
<polygon fill="#63b8ff" stroke="#63b8ff" points="461.2,-135.65 468.49,-127.97 458,-129.43 461.2,-135.65"/>
</a>
</g>
</g>
<!-- Node10 -->
<g id="Node000010" class="node">
<title>Node10</title>
<g id="a_Node000010"><a xlink:title=" ">
<polygon fill="#e0e0e0" stroke="#999999" points="576,-129 516,-129 516,-110 576,-110 576,-129"/>
<text text-anchor="middle" x="546" y="-117" font-family="Helvetica,sans-Serif" font-size="10.00">iostream</text>
</a>
</g>
</g>
<!-- Node6&#45;&gt;Node10 -->
<g id="edge10_Node000006_Node000010" class="edge">
<title>Node6&#45;&gt;Node10</title>
<g id="a_edge10_Node000006_Node000010"><a xlink:title=" ">
<path fill="none" stroke="#63b8ff" d="M406.67,-164.98C434.54,-156.09 478.45,-142.07 509.52,-132.15"/>
<polygon fill="#63b8ff" stroke="#63b8ff" points="510.66,-135.46 519.12,-129.08 508.53,-128.79 510.66,-135.46"/>
</a>
</g>
</g>
<!-- Node11 -->
<g id="Node000011" class="node">
<title>Node11</title>
<g id="a_Node000011"><a xlink:title=" ">
<polygon fill="#e0e0e0" stroke="#999999" points="44,-129 0,-129 0,-110 44,-110 44,-129"/>
<text text-anchor="middle" x="22" y="-117" font-family="Helvetica,sans-Serif" font-size="10.00">string</text>
</a>
</g>
</g>
<!-- Node6&#45;&gt;Node11 -->
<g id="edge11_Node000006_Node000011" class="edge">
<title>Node6&#45;&gt;Node11</title>
<g id="a_edge11_Node000006_Node000011"><a xlink:title=" ">
<path fill="none" stroke="#63b8ff" d="M350.24,-166.73C347.13,-166.1 344.01,-165.51 341,-165 217.08,-143.8 181.33,-153.59 54.37,-129.01"/>
<polygon fill="#63b8ff" stroke="#63b8ff" points="54.75,-125.51 44.26,-127.01 53.39,-132.38 54.75,-125.51"/>
</a>
</g>
</g>
<!-- Node12 -->
<g id="Node000012" class="node">
<title>Node12</title>
<g id="a_Node000012"><a xlink:title=" ">
<polygon fill="#e0e0e0" stroke="#999999" points="155.5,-129 62.5,-129 62.5,-110 155.5,-110 155.5,-129"/>
<text text-anchor="middle" x="109" y="-117" font-family="Helvetica,sans-Serif" font-size="10.00">unordered_map</text>
</a>
</g>
</g>
<!-- Node6&#45;&gt;Node12 -->
<g id="edge12_Node000006_Node000012" class="edge">
<title>Node6&#45;&gt;Node12</title>
<g id="a_edge12_Node000006_Node000012"><a xlink:title=" ">
<path fill="none" stroke="#63b8ff" d="M350.21,-166.93C347.1,-166.26 343.99,-165.61 341,-165 281.11,-152.73 212.31,-139.66 165.28,-130.89"/>
<polygon fill="#63b8ff" stroke="#63b8ff" points="165.76,-127.42 155.29,-129.02 164.48,-134.3 165.76,-127.42"/>
</a>
</g>
</g>
<!-- Node13 -->
<g id="Node000013" class="node">
<title>Node13</title>
<g id="a_Node000013"><a xlink:title=" ">
<polygon fill="#e0e0e0" stroke="#999999" points="260,-129 174,-129 174,-110 260,-110 260,-129"/>
<text text-anchor="middle" x="217" y="-117" font-family="Helvetica,sans-Serif" font-size="10.00">unordered_set</text>
</a>
</g>
</g>
<!-- Node6&#45;&gt;Node13 -->
<g id="edge13_Node000006_Node000013" class="edge">
<title>Node6&#45;&gt;Node13</title>
<g id="a_edge13_Node000006_Node000013"><a xlink:title=" ">
<path fill="none" stroke="#63b8ff" d="M353.81,-164.98C326.56,-156.13 283.7,-142.19 253.22,-132.28"/>
<polygon fill="#63b8ff" stroke="#63b8ff" points="253.99,-128.85 243.39,-129.08 251.82,-135.5 253.99,-128.85"/>
</a>
</g>
</g>
<!-- Node14 -->
<g id="Node000014" class="node">
<title>Node14</title>
<g id="a_Node000014"><a xlink:href="arena_8h.html" target="_top" xlink:title=" ">
<polygon fill="white" stroke="#666666" points="344,-129 278,-129 278,-110 344,-110 344,-129"/>
<text text-anchor="middle" x="311" y="-117" font-family="Helvetica,sans-Serif" font-size="10.00">fe/arena.h</text>
</a>
</g>
</g>
<!-- Node6&#45;&gt;Node14 -->
<g id="edge14_Node000006_Node000014" class="edge">
<title>Node6&#45;&gt;Node14</title>
<g id="a_edge14_Node000006_Node000014"><a xlink:title=" ">
<path fill="none" stroke="#63b8ff" d="M368.91,-164.98C358.51,-157 342.74,-144.88 330.28,-135.31"/>
<polygon fill="#63b8ff" stroke="#63b8ff" points="332.35,-132.49 322.29,-129.17 328.09,-138.04 332.35,-132.49"/>
</a>
</g>
</g>
<!-- Node14&#45;&gt;Node5 -->
<g id="edge15_Node000014_Node000005" class="edge">
<title>Node14&#45;&gt;Node5</title>
<g id="a_edge15_Node000014_Node000005"><a xlink:title=" ">
<path fill="none" stroke="#63b8ff" d="M344,-111.24C387.12,-101.76 462.66,-85.15 509.87,-74.77"/>
<polygon fill="#63b8ff" stroke="#63b8ff" points="510.76,-78.15 519.78,-72.59 509.26,-71.32 510.76,-78.15"/>
</a>
</g>
</g>
<!-- Node15 -->
<g id="Node000015" class="node">
<title>Node15</title>
<g id="a_Node000015"><a xlink:title=" ">
<polygon fill="#e0e0e0" stroke="#999999" points="264,-74 232,-74 232,-55 264,-55 264,-74"/>
<text text-anchor="middle" x="248" y="-62" font-family="Helvetica,sans-Serif" font-size="10.00">list</text>
</a>
</g>
</g>
<!-- Node14&#45;&gt;Node15 -->
<g id="edge16_Node000014_Node000015" class="edge">
<title>Node14&#45;&gt;Node15</title>
<g id="a_edge16_Node000014_Node000015"><a xlink:title=" ">
<path fill="none" stroke="#63b8ff" d="M300.88,-109.98C291.56,-102.15 277.53,-90.34 266.26,-80.86"/>
<polygon fill="#63b8ff" stroke="#63b8ff" points="268.21,-77.93 258.31,-74.17 263.71,-83.29 268.21,-77.93"/>
</a>
</g>
</g>
<!-- Node16 -->
<g id="Node000016" class="node">
<title>Node16</title>
<g id="a_Node000016"><a xlink:title=" ">
<polygon fill="#e0e0e0" stroke="#999999" points="340,-74 282,-74 282,-55 340,-55 340,-74"/>
<text text-anchor="middle" x="311" y="-62" font-family="Helvetica,sans-Serif" font-size="10.00">memory</text>
</a>
</g>
</g>
<!-- Node14&#45;&gt;Node16 -->
<g id="edge17_Node000014_Node000016" class="edge">
<title>Node14&#45;&gt;Node16</title>
<g id="a_edge17_Node000014_Node000016"><a xlink:title=" ">
<path fill="none" stroke="#63b8ff" d="M311,-109.75C311,-102.8 311,-92.85 311,-84.13"/>
<polygon fill="#63b8ff" stroke="#63b8ff" points="314.5,-84.09 311,-74.09 307.5,-84.09 314.5,-84.09"/>
</a>
</g>
</g>
<!-- Node17 -->
<g id="Node000017" class="node">
<title>Node17</title>
<g id="a_Node000017"><a xlink:title=" ">
<polygon fill="#e0e0e0" stroke="#999999" points="463.5,-74 358.5,-74 358.5,-55 463.5,-55 463.5,-74"/>
<text text-anchor="middle" x="411" y="-62" font-family="Helvetica,sans-Serif" font-size="10.00">memory_resource</text>
</a>
</g>
</g>
<!-- Node14&#45;&gt;Node17 -->
<g id="edge18_Node000014_Node000017" class="edge">
<title>Node14&#45;&gt;Node17</title>
<g id="a_edge18_Node000014_Node000017"><a xlink:title=" ">
<path fill="none" stroke="#63b8ff" d="M327.07,-109.98C342.86,-101.61 367.22,-88.7 385.63,-78.95"/>
<polygon fill="#63b8ff" stroke="#63b8ff" points="387.44,-81.95 394.64,-74.17 384.17,-75.76 387.44,-81.95"/>
</a>
</g>
</g>
<!-- Node18 -->
<g id="Node000018" class="node">
<title>Node18</title>
<g id="a_Node000018"><a xlink:title=" ">
<polygon fill="#e0e0e0" stroke="#999999" points="88.5,-74 51.5,-74 51.5,-55 88.5,-55 88.5,-74"/>
<text text-anchor="middle" x="70" y="-62" font-family="Helvetica,sans-Serif" font-size="10.00">new</text>
</a>
</g>
</g>
<!-- Node14&#45;&gt;Node18 -->
<g id="edge19_Node000014_Node000018" class="edge">
<title>Node14&#45;&gt;Node18</title>
<g id="a_edge19_Node000014_Node000018"><a xlink:title=" ">
<path fill="none" stroke="#63b8ff" d="M277.82,-111.79C227.59,-101.61 134.87,-82.7 98.3,-74.03"/>
<polygon fill="#63b8ff" stroke="#63b8ff" points="99.07,-70.62 88.52,-71.6 97.38,-77.41 99.07,-70.62"/>
</a>
</g>
</g>
<!-- Node19 -->
<g id="Node000019" class="node">
<title>Node19</title>
<g id="a_Node000019"><a xlink:title=" ">
<polygon fill="#e0e0e0" stroke="#999999" points="175.5,-74 106.5,-74 106.5,-55 175.5,-55 175.5,-74"/>
<text text-anchor="middle" x="141" y="-62" font-family="Helvetica,sans-Serif" font-size="10.00">type_traits</text>
</a>
</g>
</g>
<!-- Node14&#45;&gt;Node19 -->
<g id="edge20_Node000014_Node000019" class="edge">
<title>Node14&#45;&gt;Node19</title>
<g id="a_edge20_Node000014_Node000019"><a xlink:title=" ">
<path fill="none" stroke="#63b8ff" d="M283.69,-109.98C255.15,-101.09 210.17,-87.07 178.36,-77.15"/>
<polygon fill="#63b8ff" stroke="#63b8ff" points="179.12,-73.72 168.53,-74.08 177.03,-80.4 179.12,-73.72"/>
</a>
</g>
</g>
<!-- Node20 -->
<g id="Node000020" class="node">
<title>Node20</title>
<g id="a_Node000020"><a xlink:title=" ">
<polygon fill="#e0e0e0" stroke="#999999" points="340.5,-19 295.5,-19 295.5,0 340.5,0 340.5,-19"/>
<text text-anchor="middle" x="318" y="-7" font-family="Helvetica,sans-Serif" font-size="10.00">utility</text>
</a>
</g>
</g>
<!-- Node14&#45;&gt;Node20 -->
<g id="edge21_Node000014_Node000020" class="edge">
<title>Node14&#45;&gt;Node20</title>
<g id="a_edge21_Node000014_Node000020"><a xlink:title=" ">
<path fill="none" stroke="#63b8ff" d="M278.94,-109.99C247.45,-99.91 206.37,-81.15 223,-55 236.67,-33.51 263.75,-22.22 285.52,-16.4"/>
<polygon fill="#63b8ff" stroke="#63b8ff" points="286.48,-19.76 295.38,-14.02 284.84,-12.96 286.48,-19.76"/>
</a>
</g>
</g>
<!-- Node21 -->
<g id="Node000021" class="node">
<title>Node21</title>
<g id="a_Node000021"><a xlink:href="assert_8h.html" target="_top" xlink:title=" ">
<polygon fill="white" stroke="#666666" points="670,-74 602,-74 602,-55 670,-55 670,-74"/>
<text text-anchor="middle" x="636" y="-62" font-family="Helvetica,sans-Serif" font-size="10.00">fe/assert.h</text>
</a>
</g>
</g>
<!-- Node14&#45;&gt;Node21 -->
<g id="edge22_Node000014_Node000021" class="edge">
<title>Node14&#45;&gt;Node21</title>
<g id="a_edge22_Node000014_Node000021"><a xlink:title=" ">
<path fill="none" stroke="#63b8ff" d="M344.06,-113.71C395.01,-106.23 496,-91.04 591.62,-74.19"/>
<polygon fill="#63b8ff" stroke="#63b8ff" points="592.52,-77.58 601.75,-72.39 591.3,-70.69 592.52,-77.58"/>
</a>
</g>
</g>
<!-- Node21&#45;&gt;Node7 -->
<g id="edge23_Node000021_Node000007" class="edge">
<title>Node21&#45;&gt;Node7</title>
<g id="a_edge23_Node000021_Node000007"><a xlink:title=" ">
<path fill="none" stroke="#63b8ff" d="M613.35,-54.98C590.15,-46.27 553.88,-32.63 527.6,-22.75"/>
<polygon fill="#63b8ff" stroke="#63b8ff" points="528.66,-19.41 518.07,-19.17 526.2,-25.97 528.66,-19.41"/>
</a>
</g>
</g>
<!-- Node21&#45;&gt;Node20 -->
<g id="edge27_Node000021_Node000020" class="edge">
<title>Node21&#45;&gt;Node20</title>
<g id="a_edge27_Node000021_Node000020"><a xlink:title=" ">
<path fill="none" stroke="#63b8ff" d="M601.75,-56.62C598.79,-56.06 595.85,-55.51 593,-55 505.67,-39.31 402.29,-23.25 350.7,-15.42"/>
<polygon fill="#63b8ff" stroke="#63b8ff" points="350.91,-11.91 340.5,-13.87 349.87,-18.83 350.91,-11.91"/>
</a>
</g>
</g>
<!-- Node22 -->
<g id="Node000022" class="node">
<title>Node22</title>
<g id="a_Node000022"><a xlink:title=" ">
<polygon fill="#e0e0e0" stroke="#999999" points="592.5,-19 543.5,-19 543.5,0 592.5,0 592.5,-19"/>
<text text-anchor="middle" x="568" y="-7" font-family="Helvetica,sans-Serif" font-size="10.00">cstdlib</text>
</a>
</g>
</g>
<!-- Node21&#45;&gt;Node22 -->
<g id="edge24_Node000021_Node000022" class="edge">
<title>Node21&#45;&gt;Node22</title>
<g id="a_edge24_Node000021_Node000022"><a xlink:title=" ">
<path fill="none" stroke="#63b8ff" d="M625.07,-54.98C614.92,-47.07 599.58,-35.11 587.35,-25.58"/>
<polygon fill="#63b8ff" stroke="#63b8ff" points="589.16,-22.56 579.12,-19.17 584.86,-28.08 589.16,-22.56"/>
</a>
</g>
</g>
<!-- Node23 -->
<g id="Node000023" class="node">
<title>Node23</title>
<g id="a_Node000023"><a xlink:title=" ">
<polygon fill="#e0e0e0" stroke="#999999" points="661,-19 611,-19 611,0 661,0 661,-19"/>
<text text-anchor="middle" x="636" y="-7" font-family="Helvetica,sans-Serif" font-size="10.00">format</text>
</a>
</g>
</g>
<!-- Node21&#45;&gt;Node23 -->
<g id="edge25_Node000021_Node000023" class="edge">
<title>Node21&#45;&gt;Node23</title>
<g id="a_edge25_Node000021_Node000023"><a xlink:title=" ">
<path fill="none" stroke="#63b8ff" d="M636,-54.75C636,-47.8 636,-37.85 636,-29.13"/>
<polygon fill="#63b8ff" stroke="#63b8ff" points="639.5,-29.09 636,-19.09 632.5,-29.09 639.5,-29.09"/>
</a>
</g>
</g>
<!-- Node24 -->
<g id="Node000024" class="node">
<title>Node24</title>
<g id="a_Node000024"><a xlink:title=" ">
<polygon fill="#e0e0e0" stroke="#999999" points="744.5,-19 679.5,-19 679.5,0 744.5,0 744.5,-19"/>
<text text-anchor="middle" x="712" y="-7" font-family="Helvetica,sans-Serif" font-size="10.00">stdexcept</text>
</a>
</g>
</g>
<!-- Node21&#45;&gt;Node24 -->
<g id="edge26_Node000021_Node000024" class="edge">
<title>Node21&#45;&gt;Node24</title>
<g id="a_edge26_Node000021_Node000024"><a xlink:title=" ">
<path fill="none" stroke="#63b8ff" d="M648.21,-54.98C659.78,-46.92 677.38,-34.65 691.16,-25.03"/>
<polygon fill="#63b8ff" stroke="#63b8ff" points="693.37,-27.76 699.57,-19.17 689.36,-22.02 693.37,-27.76"/>
</a>
</g>
</g>
<!-- Node25&#45;&gt;Node5 -->
<g id="edge30_Node000025_Node000005" class="edge">
<title>Node25&#45;&gt;Node5</title>
<g id="a_edge30_Node000025_Node000005"><a xlink:title=" ">
<path fill="none" stroke="#63b8ff" d="M748.05,-111.68C708.96,-102.47 639.04,-86 594.12,-75.42"/>
<polygon fill="#63b8ff" stroke="#63b8ff" points="594.65,-71.95 584.11,-73.06 593.04,-78.76 594.65,-71.95"/>
</a>
</g>
</g>
<!-- Node25&#45;&gt;Node21 -->
<g id="edge33_Node000025_Node000021" class="edge">
<title>Node25&#45;&gt;Node21</title>
<g id="a_edge33_Node000025_Node000021"><a xlink:title=" ">
<path fill="none" stroke="#63b8ff" d="M754.35,-109.98C731.15,-101.27 694.88,-87.63 668.6,-77.75"/>
<polygon fill="#63b8ff" stroke="#63b8ff" points="669.66,-74.41 659.07,-74.17 667.2,-80.97 669.66,-74.41"/>
</a>
</g>
</g>
<!-- Node26 -->
<g id="Node000026" class="node">
<title>Node26</title>
<g id="a_Node000026"><a xlink:title=" ">
<polygon fill="#e0e0e0" stroke="#999999" points="741.5,-74 688.5,-74 688.5,-55 741.5,-55 741.5,-74"/>
<text text-anchor="middle" x="715" y="-62" font-family="Helvetica,sans-Serif" font-size="10.00">cstddef</text>
</a>
</g>
</g>
<!-- Node25&#45;&gt;Node26 -->
<g id="edge29_Node000025_Node000026" class="edge">
<title>Node25&#45;&gt;Node26</title>
<g id="a_edge29_Node000025_Node000026"><a xlink:title=" ">
<path fill="none" stroke="#63b8ff" d="M767.04,-109.98C757.87,-102.15 744.06,-90.34 732.97,-80.86"/>
<polygon fill="#63b8ff" stroke="#63b8ff" points="735.02,-78.01 725.14,-74.17 730.47,-83.33 735.02,-78.01"/>
</a>
</g>
</g>
<!-- Node27 -->
<g id="Node000027" class="node">
<title>Node27</title>
<g id="a_Node000027"><a xlink:title=" ">
<polygon fill="#e0e0e0" stroke="#999999" points="802,-74 760,-74 760,-55 802,-55 802,-74"/>
<text text-anchor="middle" x="781" y="-62" font-family="Helvetica,sans-Serif" font-size="10.00">array</text>
</a>
</g>
</g>
<!-- Node25&#45;&gt;Node27 -->
<g id="edge31_Node000025_Node000027" class="edge">
<title>Node25&#45;&gt;Node27</title>
<g id="a_edge31_Node000025_Node000027"><a xlink:title=" ">
<path fill="none" stroke="#63b8ff" d="M777.66,-109.75C778.18,-102.8 778.94,-92.85 779.59,-84.13"/>
<polygon fill="#63b8ff" stroke="#63b8ff" points="783.09,-84.32 780.35,-74.09 776.11,-83.8 783.09,-84.32"/>
</a>
</g>
</g>
<!-- Node28 -->
<g id="Node000028" class="node">
<title>Node28</title>
<g id="a_Node000028"><a xlink:title=" ">
<polygon fill="#e0e0e0" stroke="#999999" points="903.5,-74 820.5,-74 820.5,-55 903.5,-55 903.5,-74"/>
<text text-anchor="middle" x="862" y="-62" font-family="Helvetica,sans-Serif" font-size="10.00">initializer_list</text>
</a>
</g>
</g>
<!-- Node25&#45;&gt;Node28 -->
<g id="edge32_Node000025_Node000028" class="edge">
<title>Node25&#45;&gt;Node28</title>
<g id="a_edge32_Node000025_Node000028"><a xlink:title=" ">
<path fill="none" stroke="#63b8ff" d="M790.66,-109.98C803.84,-101.77 824.03,-89.18 839.57,-79.49"/>
<polygon fill="#63b8ff" stroke="#63b8ff" points="841.46,-82.43 848.09,-74.17 837.76,-76.49 841.46,-82.43"/>
</a>
</g>
</g>
<!-- Node29&#45;&gt;Node3 -->
<g id="edge36_Node000029_Node000003" class="edge">
<title>Node29&#45;&gt;Node3</title>
<g id="a_edge36_Node000029_Node000003"><a xlink:title=" ">
<path fill="none" stroke="#63b8ff" d="M589.52,-219.98C571.02,-211.46 542.32,-198.23 521.02,-188.41"/>
<polygon fill="#63b8ff" stroke="#63b8ff" points="522.36,-185.18 511.81,-184.17 519.43,-191.53 522.36,-185.18"/>
</a>
</g>
</g>
<!-- Node29&#45;&gt;Node21 -->
<g id="edge39_Node000029_Node000021" class="edge">
<title>Node29&#45;&gt;Node21</title>
<g id="a_edge39_Node000029_Node000021"><a xlink:title=" ">
<path fill="none" stroke="#63b8ff" d="M637.23,-222.21C657.58,-216.14 683.27,-204.71 696,-184 717.81,-148.53 678.99,-104.13 654.23,-81.06"/>
<polygon fill="#63b8ff" stroke="#63b8ff" points="656.26,-78.17 646.48,-74.09 651.58,-83.38 656.26,-78.17"/>
</a>
</g>
</g>
<!-- Node30 -->
<g id="Node000030" class="node">
<title>Node30</title>
<g id="a_Node000030"><a xlink:title=" ">
<polygon fill="#e0e0e0" stroke="#999999" points="792.5,-184 743.5,-184 743.5,-165 792.5,-165 792.5,-184"/>
<text text-anchor="middle" x="768" y="-172" font-family="Helvetica,sans-Serif" font-size="10.00">cctype</text>
</a>
</g>
</g>
<!-- Node29&#45;&gt;Node30 -->
<g id="edge35_Node000029_Node000030" class="edge">
<title>Node29&#45;&gt;Node30</title>
<g id="a_edge35_Node000029_Node000030"><a xlink:title=" ">
<path fill="none" stroke="#63b8ff" d="M633.71,-219.98C660.85,-210.99 703.78,-196.77 733.77,-186.84"/>
<polygon fill="#63b8ff" stroke="#63b8ff" points="735.02,-190.11 743.41,-183.65 732.81,-183.47 735.02,-190.11"/>
</a>
</g>
</g>
<!-- Node31 -->
<g id="Node000031" class="node">
<title>Node31</title>
<g id="a_Node000031"><a xlink:title=" ">
<polygon fill="#e0e0e0" stroke="#999999" points="595.5,-184 538.5,-184 538.5,-165 595.5,-165 595.5,-184"/>
<text text-anchor="middle" x="567" y="-172" font-family="Helvetica,sans-Serif" font-size="10.00">ostream</text>
</a>
</g>
</g>
<!-- Node29&#45;&gt;Node31 -->
<g id="edge37_Node000029_Node000031" class="edge">
<title>Node29&#45;&gt;Node31</title>
<g id="a_edge37_Node000029_Node000031"><a xlink:title=" ">
<path fill="none" stroke="#63b8ff" d="M601.23,-219.75C595.44,-212.26 586.94,-201.28 579.86,-192.13"/>
<polygon fill="#63b8ff" stroke="#63b8ff" points="582.53,-189.86 573.64,-184.09 576.99,-194.14 582.53,-189.86"/>
</a>
</g>
</g>
<!-- Node32 -->
<g id="Node000032" class="node">
<title>Node32</title>
<g id="a_Node000032"><a xlink:title=" ">
<polygon fill="#e0e0e0" stroke="#999999" points="686.5,-184 613.5,-184 613.5,-165 686.5,-165 686.5,-184"/>
<text text-anchor="middle" x="650" y="-172" font-family="Helvetica,sans-Serif" font-size="10.00">string_view</text>
</a>
</g>
</g>
<!-- Node29&#45;&gt;Node32 -->
<g id="edge38_Node000029_Node000032" class="edge">
<title>Node29&#45;&gt;Node32</title>
<g id="a_edge38_Node000029_Node000032"><a xlink:title=" ">
<path fill="none" stroke="#63b8ff" d="M614.94,-219.75C620.87,-212.26 629.57,-201.28 636.82,-192.13"/>
<polygon fill="#63b8ff" stroke="#63b8ff" points="639.73,-194.1 643.19,-184.09 634.24,-189.75 639.73,-194.1"/>
</a>
</g>
</g>
</g>
</svg>

<g id="navigator" transform="translate(0 0)" fill="#404254">
  <rect fill="#f2f5e9" fill-opacity="0.5" stroke="#606060" stroke-width=".5" x="0" y="0" width="60" height="60"/>
  <use id="zoomplus" xlink:href="#zoomPlus" x="17" y="9" onmousedown="handleZoom(evt,'in')"/>
  <use id="zoomminus" xlink:href="#zoomMin" x="42" y="9" onmousedown="handleZoom(evt,'out')"/>
  <use id="reset" xlink:href="#resetDef" x="30" y="36" onmousedown="handleReset()"/>
   <use id="arrowup" xlink:href="#arrowUp" x="0" y="0" onmousedown="handlePan(0,-1)"/>
  <use id="arrowright" xlink:href="#arrowRight" x="0" y="0" onmousedown="handlePan(1,0)"/>
  <use id="arrowdown" xlink:href="#arrowDown" x="0" y="0" onmousedown="handlePan(0,1)"/>
  <use id="arrowleft" xlink:href="#arrowLeft" x="0" y="0" onmousedown="handlePan(-1,0)"/>
</g>
<svg viewBox="0 0 15 15" width="100%" height="30px" preserveAspectRatio="xMaxYMin meet">
 <g id="arrow_out" transform="scale(0.3 0.3)">
  <a xlink:href="lexer_8h__incl_org.svg" target="_base">
   <rect id="button" ry="5" rx="5" y="6" x="6" height="38" width="38"
        fill="#f2f5e9" fill-opacity="0.5" stroke="#606060" stroke-width="1.0"/>
   <path id="arrow"
     d="M 11.500037,31.436501 C 11.940474,20.09759 22.043105,11.32322 32.158766,21.979434 L 37.068811,17.246167 C 37.068811,17.246167 37.088388,32 37.088388,32 L 22.160133,31.978069 C 22.160133,31.978069 26.997745,27.140456 26.997745,27.140456 C 18.528582,18.264221 13.291696,25.230495 11.500037,31.436501 z"
     style="fill:#404040;"/>
  </a>
 </g>
</svg>

<style type='text/css'>
<![CDATA[
[data-mouse-over-selected='false'] { opacity: 0.7; }
[data-mouse-over-selected='true']  { opacity: 1.0; }
]]>
</style>
<script type="application/ecmascript"><![CDATA[
document.addEventListener('DOMContentLoaded', (event) => {
  highlightEdges();
  highlightAdjacentNodes();
});
]]></script>
</svg>
