<?xml version="1.0" encoding="UTF-8" standalone="no"?>
<!DOCTYPE svg PUBLIC "-//W3C//DTD SVG 1.1//EN"
 "http://www.w3.org/Graphics/SVG/1.1/DTD/svg11.dtd">
<!-- Generated by graphviz version 2.43.0 (0)
 -->
<!-- Title: fe/lexer.h Pages: 1 -->
<svg width="509pt" height="192pt"
 viewBox="0.00 0.00 509.00 192.00" xmlns="http://www.w3.org/2000/svg" xmlns:xlink="http://www.w3.org/1999/xlink">
<g id="graph0" class="graph" transform="scale(1 1) rotate(0) translate(4 188)">
<title>fe/lexer.h</title>
<!-- Node1 -->
<g id="Node000001" class="node">
<title>Node1</title>
<g id="a_Node000001"><a xlink:title=" ">
<polygon fill="#999999" stroke="#666666" points="190.5,-184 128.5,-184 128.5,-165 190.5,-165 190.5,-184"/>
<text text-anchor="middle" x="159.5" y="-172" font-family="Helvetica,sans-Serif" font-size="10.00">fe/lexer.h</text>
</a>
</g>
</g>
<!-- Node2 -->
<g id="Node000002" class="node">
<title>Node2</title>
<g id="a_Node000002"><a xlink:title=" ">
<polygon fill="#e0e0e0" stroke="#999999" points="104.5,-129 50.5,-129 50.5,-110 104.5,-110 104.5,-129"/>
<text text-anchor="middle" x="77.5" y="-117" font-family="Helvetica,sans-Serif" font-size="10.00">istream</text>
</a>
</g>
</g>
<!-- Node1&#45;&gt;Node2 -->
<g id="edge1_Node000001_Node000002" class="edge">
<title>Node1&#45;&gt;Node2</title>
<g id="a_edge1_Node000001_Node000002"><a xlink:title=" ">
<path fill="none" stroke="#63b8ff" d="M146.33,-164.98C133.73,-156.84 114.5,-144.41 99.56,-134.76"/>
<polygon fill="#63b8ff" stroke="#63b8ff" points="101.21,-131.66 90.91,-129.17 97.41,-137.54 101.21,-131.66"/>
</a>
</g>
</g>
<!-- Node3 -->
<g id="Node000003" class="node">
<title>Node3</title>
<g id="a_Node000003"><a xlink:title=" ">
<polygon fill="#e0e0e0" stroke="#999999" points="166.5,-74 98.5,-74 98.5,-55 166.5,-55 166.5,-74"/>
<text text-anchor="middle" x="132.5" y="-62" font-family="Helvetica,sans-Serif" font-size="10.00">filesystem</text>
</a>
</g>
</g>
<!-- Node1&#45;&gt;Node3 -->
<g id="edge2_Node000001_Node000003" class="edge">
<title>Node1&#45;&gt;Node3</title>
<g id="a_edge2_Node000001_Node000003"><a xlink:title=" ">
<path fill="none" stroke="#63b8ff" d="M157.29,-164.66C152.9,-147.09 142.99,-107.45 137.11,-83.95"/>
<polygon fill="#63b8ff" stroke="#63b8ff" points="140.49,-83.01 134.66,-74.16 133.69,-84.71 140.49,-83.01"/>
</a>
</g>
</g>
<!-- Node4 -->
<g id="Node000004" class="node">
<title>Node4</title>
<g id="a_Node000004"><a xlink:href="loc_8h.html" target="_top" xlink:title=" ">
<polygon fill="white" stroke="#666666" points="214,-129 161,-129 161,-110 214,-110 214,-129"/>
<text text-anchor="middle" x="187.5" y="-117" font-family="Helvetica,sans-Serif" font-size="10.00">fe/loc.h</text>
</a>
</g>
</g>
<!-- Node1&#45;&gt;Node4 -->
<g id="edge3_Node000001_Node000004" class="edge">
<title>Node1&#45;&gt;Node4</title>
<g id="a_edge3_Node000001_Node000004"><a xlink:title=" ">
<path fill="none" stroke="#63b8ff" d="M164.12,-164.75C167.96,-157.49 173.52,-146.95 178.26,-137.98"/>
<polygon fill="#63b8ff" stroke="#63b8ff" points="181.39,-139.57 182.96,-129.09 175.2,-136.3 181.39,-139.57"/>
</a>
</g>
</g>
<!-- Node12 -->
<g id="Node000012" class="node">
<title>Node12</title>
<g id="a_Node000012"><a xlink:href="utf8_8h.html" target="_top" xlink:title=" ">
<polygon fill="white" stroke="#666666" points="290.5,-129 232.5,-129 232.5,-110 290.5,-110 290.5,-129"/>
<text text-anchor="middle" x="261.5" y="-117" font-family="Helvetica,sans-Serif" font-size="10.00">fe/utf8.h</text>
</a>
</g>
</g>
<!-- Node1&#45;&gt;Node12 -->
<g id="edge12_Node000001_Node000012" class="edge">
<title>Node1&#45;&gt;Node12</title>
<g id="a_edge12_Node000001_Node000012"><a xlink:title=" ">
<path fill="none" stroke="#63b8ff" d="M175.89,-164.98C192.07,-156.57 217.07,-143.59 235.88,-133.81"/>
<polygon fill="#63b8ff" stroke="#63b8ff" points="237.55,-136.89 244.81,-129.17 234.33,-130.68 237.55,-136.89"/>
</a>
</g>
</g>
<!-- Node4&#45;&gt;Node3 -->
<g id="edge4_Node000004_Node000003" class="edge">
<title>Node4&#45;&gt;Node3</title>
<g id="a_edge4_Node000004_Node000003"><a xlink:title=" ">
<path fill="none" stroke="#63b8ff" d="M178.42,-109.75C170.41,-102.03 158.54,-90.6 148.88,-81.28"/>
<polygon fill="#63b8ff" stroke="#63b8ff" points="151.04,-78.51 141.41,-74.09 146.19,-83.55 151.04,-78.51"/>
</a>
</g>
</g>
<!-- Node5 -->
<g id="Node000005" class="node">
<title>Node5</title>
<g id="a_Node000005"><a xlink:href="sym_8h.html" target="_top" xlink:title=" ">
<polygon fill="white" stroke="#666666" points="244,-74 185,-74 185,-55 244,-55 244,-74"/>
<text text-anchor="middle" x="214.5" y="-62" font-family="Helvetica,sans-Serif" font-size="10.00">fe/sym.h</text>
</a>
</g>
</g>
<!-- Node4&#45;&gt;Node5 -->
<g id="edge5_Node000004_Node000005" class="edge">
<title>Node4&#45;&gt;Node5</title>
<g id="a_edge5_Node000004_Node000005"><a xlink:title=" ">
<path fill="none" stroke="#63b8ff" d="M191.96,-109.75C195.62,-102.57 200.91,-92.18 205.45,-83.27"/>
<polygon fill="#63b8ff" stroke="#63b8ff" points="208.7,-84.59 210.12,-74.09 202.47,-81.41 208.7,-84.59"/>
</a>
</g>
</g>
<!-- Node6 -->
<g id="Node000006" class="node">
<title>Node6</title>
<g id="a_Node000006"><a xlink:title=" ">
<polygon fill="#e0e0e0" stroke="#999999" points="59,-19 0,-19 0,0 59,0 59,-19"/>
<text text-anchor="middle" x="29.5" y="-7" font-family="Helvetica,sans-Serif" font-size="10.00">compare</text>
</a>
</g>
</g>
<!-- Node5&#45;&gt;Node6 -->
<g id="edge6_Node000005_Node000006" class="edge">
<title>Node5&#45;&gt;Node6</title>
<g id="a_edge6_Node000005_Node000006"><a xlink:title=" ">
<path fill="none" stroke="#63b8ff" d="M184.78,-54.98C153.36,-45.98 103.64,-31.74 68.95,-21.8"/>
<polygon fill="#63b8ff" stroke="#63b8ff" points="69.73,-18.38 59.15,-18.99 67.8,-25.11 69.73,-18.38"/>
</a>
</g>
</g>
<!-- Node7 -->
<g id="Node000007" class="node">
<title>Node7</title>
<g id="a_Node000007"><a xlink:title=" ">
<polygon fill="#e0e0e0" stroke="#999999" points="137.5,-19 77.5,-19 77.5,0 137.5,0 137.5,-19"/>
<text text-anchor="middle" x="107.5" y="-7" font-family="Helvetica,sans-Serif" font-size="10.00">iostream</text>
</a>
</g>
</g>
<!-- Node5&#45;&gt;Node7 -->
<g id="edge7_Node000005_Node000007" class="edge">
<title>Node5&#45;&gt;Node7</title>
<g id="a_edge7_Node000005_Node000007"><a xlink:title=" ">
<path fill="none" stroke="#63b8ff" d="M197.31,-54.98C180.25,-46.54 153.87,-33.47 134.1,-23.68"/>
<polygon fill="#63b8ff" stroke="#63b8ff" points="135.52,-20.47 125,-19.17 132.41,-26.75 135.52,-20.47"/>
</a>
</g>
</g>
<!-- Node8 -->
<g id="Node000008" class="node">
<title>Node8</title>
<g id="a_Node000008"><a xlink:title=" ">
<polygon fill="#e0e0e0" stroke="#999999" points="199.5,-19 155.5,-19 155.5,0 199.5,0 199.5,-19"/>
<text text-anchor="middle" x="177.5" y="-7" font-family="Helvetica,sans-Serif" font-size="10.00">string</text>
</a>
</g>
</g>
<!-- Node5&#45;&gt;Node8 -->
<g id="edge8_Node000005_Node000008" class="edge">
<title>Node5&#45;&gt;Node8</title>
<g id="a_edge8_Node000005_Node000008"><a xlink:title=" ">
<path fill="none" stroke="#63b8ff" d="M208.39,-54.75C203.22,-47.34 195.65,-36.5 189.31,-27.41"/>
<polygon fill="#63b8ff" stroke="#63b8ff" points="192.09,-25.29 183.5,-19.09 186.35,-29.29 192.09,-25.29"/>
</a>
</g>
</g>
<!-- Node9 -->
<g id="Node000009" class="node">
<title>Node9</title>
<g id="a_Node000009"><a xlink:title=" ">
<polygon fill="#e0e0e0" stroke="#999999" points="285.5,-19 217.5,-19 217.5,0 285.5,0 285.5,-19"/>
<text text-anchor="middle" x="251.5" y="-7" font-family="Helvetica,sans-Serif" font-size="10.00">fe/config.h</text>
</a>
</g>
</g>
<!-- Node5&#45;&gt;Node9 -->
<g id="edge9_Node000005_Node000009" class="edge">
<title>Node5&#45;&gt;Node9</title>
<g id="a_edge9_Node000005_Node000009"><a xlink:title=" ">
<path fill="none" stroke="#63b8ff" d="M220.61,-54.75C225.78,-47.34 233.35,-36.5 239.69,-27.41"/>
<polygon fill="#63b8ff" stroke="#63b8ff" points="242.65,-29.29 245.5,-19.09 236.91,-25.29 242.65,-29.29"/>
</a>
</g>
</g>
<!-- Node10 -->
<g id="Node000010" class="node">
<title>Node10</title>
<g id="a_Node000010"><a xlink:title=" ">
<polygon fill="#e0e0e0" stroke="#999999" points="389.5,-19 303.5,-19 303.5,0 389.5,0 389.5,-19"/>
<text text-anchor="middle" x="346.5" y="-7" font-family="Helvetica,sans-Serif" font-size="10.00">unordered_set</text>
</a>
</g>
</g>
<!-- Node5&#45;&gt;Node10 -->
<g id="edge10_Node000005_Node000010" class="edge">
<title>Node5&#45;&gt;Node10</title>
<g id="a_edge10_Node000005_Node000010"><a xlink:title=" ">
<path fill="none" stroke="#63b8ff" d="M235.71,-54.98C257.23,-46.34 290.78,-32.87 315.33,-23.02"/>
<polygon fill="#63b8ff" stroke="#63b8ff" points="316.93,-26.14 324.91,-19.17 314.32,-19.65 316.93,-26.14"/>
</a>
</g>
</g>
<!-- Node11 -->
<g id="Node000011" class="node">
<title>Node11</title>
<g id="a_Node000011"><a xlink:title=" ">
<polygon fill="#e0e0e0" stroke="#999999" points="501,-19 408,-19 408,0 501,0 501,-19"/>
<text text-anchor="middle" x="454.5" y="-7" font-family="Helvetica,sans-Serif" font-size="10.00">unordered_map</text>
</a>
</g>
</g>
<!-- Node5&#45;&gt;Node11 -->
<g id="edge11_Node000005_Node000011" class="edge">
<title>Node5&#45;&gt;Node11</title>
<g id="a_edge11_Node000005_Node000011"><a xlink:title=" ">
<path fill="none" stroke="#63b8ff" d="M244.41,-56.89C284.88,-47.96 357.58,-31.9 405.93,-21.22"/>
<polygon fill="#63b8ff" stroke="#63b8ff" points="406.85,-24.61 415.86,-19.03 405.34,-17.77 406.85,-24.61"/>
</a>
</g>
</g>
</g>
</svg>
