<?xml version="1.0" encoding="UTF-8" standalone="no"?>
<!DOCTYPE svg PUBLIC "-//W3C//DTD SVG 1.1//EN"
 "http://www.w3.org/Graphics/SVG/1.1/DTD/svg11.dtd">
<!-- Generated by graphviz version 2.43.0 (0)
 -->
<!-- Title: fe/lexer.h Pages: 1 -->
<svg width="1044pt" height="302pt"
 viewBox="0.00 0.00 1043.50 302.00" xmlns="http://www.w3.org/2000/svg" xmlns:xlink="http://www.w3.org/1999/xlink">
<g id="graph0" class="graph" transform="scale(1 1) rotate(0) translate(4 298)">
<title>fe/lexer.h</title>
<!-- Node1 -->
<g id="Node000001" class="node">
<title>Node1</title>
<g id="a_Node000001"><a xlink:title=" ">
<polygon fill="#999999" stroke="#666666" points="392,-294 330,-294 330,-275 392,-275 392,-294"/>
<text text-anchor="middle" x="361" y="-282" font-family="Helvetica,sans-Serif" font-size="10.00">fe/lexer.h</text>
</a>
</g>
</g>
<!-- Node2 -->
<g id="Node000002" class="node">
<title>Node2</title>
<g id="a_Node000002"><a xlink:title=" ">
<polygon fill="#e0e0e0" stroke="#999999" points="255,-184 187,-184 187,-165 255,-165 255,-184"/>
<text text-anchor="middle" x="221" y="-172" font-family="Helvetica,sans-Serif" font-size="10.00">filesystem</text>
</a>
</g>
</g>
<!-- Node1&#45;&gt;Node2 -->
<g id="edge1_Node000001_Node000002" class="edge">
<title>Node1&#45;&gt;Node2</title>
<g id="a_edge1_Node000001_Node000002"><a xlink:title=" ">
<path fill="none" stroke="#63b8ff" d="M334.25,-274.94C314.24,-267.61 287,-255.61 267,-239 251.66,-226.26 238.82,-207.32 230.64,-193.43"/>
<polygon fill="#63b8ff" stroke="#63b8ff" points="233.49,-191.37 225.53,-184.38 227.39,-194.81 233.49,-191.37"/>
</a>
</g>
</g>
<!-- Node3 -->
<g id="Node000003" class="node">
<title>Node3</title>
<g id="a_Node000003"><a xlink:title=" ">
<polygon fill="#e0e0e0" stroke="#999999" points="443,-239 389,-239 389,-220 443,-220 443,-239"/>
<text text-anchor="middle" x="416" y="-227" font-family="Helvetica,sans-Serif" font-size="10.00">istream</text>
</a>
</g>
</g>
<!-- Node1&#45;&gt;Node3 -->
<g id="edge2_Node000001_Node000003" class="edge">
<title>Node1&#45;&gt;Node3</title>
<g id="a_edge2_Node000001_Node000003"><a xlink:title=" ">
<path fill="none" stroke="#63b8ff" d="M370.08,-274.75C378.09,-267.03 389.96,-255.6 399.62,-246.28"/>
<polygon fill="#63b8ff" stroke="#63b8ff" points="402.31,-248.55 407.09,-239.09 397.46,-243.51 402.31,-248.55"/>
</a>
</g>
</g>
<!-- Node4 -->
<g id="Node000004" class="node">
<title>Node4</title>
<g id="a_Node000004"><a xlink:href="loc_8h.html" target="_top" xlink:title=" ">
<polygon fill="white" stroke="#666666" points="329.5,-239 276.5,-239 276.5,-220 329.5,-220 329.5,-239"/>
<text text-anchor="middle" x="303" y="-227" font-family="Helvetica,sans-Serif" font-size="10.00">fe/loc.h</text>
</a>
</g>
</g>
<!-- Node1&#45;&gt;Node4 -->
<g id="edge3_Node000001_Node000004" class="edge">
<title>Node1&#45;&gt;Node4</title>
<g id="a_edge3_Node000001_Node000004"><a xlink:title=" ">
<path fill="none" stroke="#63b8ff" d="M351.68,-274.98C343.19,-267.23 330.44,-255.58 320.12,-246.14"/>
<polygon fill="#63b8ff" stroke="#63b8ff" points="322.23,-243.33 312.49,-239.17 317.51,-248.5 322.23,-243.33"/>
</a>
</g>
</g>
<!-- Node18 -->
<g id="Node000018" class="node">
<title>Node18</title>
<g id="a_Node000018"><a xlink:href="ring_8h.html" target="_top" xlink:title=" ">
<polygon fill="white" stroke="#666666" points="837.5,-129 780.5,-129 780.5,-110 837.5,-110 837.5,-129"/>
<text text-anchor="middle" x="809" y="-117" font-family="Helvetica,sans-Serif" font-size="10.00">fe/ring.h</text>
</a>
</g>
</g>
<!-- Node1&#45;&gt;Node18 -->
<g id="edge19_Node000001_Node000018" class="edge">
<title>Node1&#45;&gt;Node18</title>
<g id="a_edge19_Node000001_Node000018"><a xlink:title=" ">
<path fill="none" stroke="#63b8ff" d="M361,-274.7C361.5,-260.96 364.57,-234.49 380,-220 436.88,-166.59 675.75,-135.1 770.26,-124.52"/>
<polygon fill="#63b8ff" stroke="#63b8ff" points="770.71,-128 780.27,-123.42 769.94,-121.04 770.71,-128"/>
</a>
</g>
</g>
<!-- Node22 -->
<g id="Node000022" class="node">
<title>Node22</title>
<g id="a_Node000022"><a xlink:href="utf8_8h.html" target="_top" xlink:title=" ">
<polygon fill="white" stroke="#666666" points="519,-239 461,-239 461,-220 519,-220 519,-239"/>
<text text-anchor="middle" x="490" y="-227" font-family="Helvetica,sans-Serif" font-size="10.00">fe/utf8.h</text>
</a>
</g>
</g>
<!-- Node1&#45;&gt;Node22 -->
<g id="edge25_Node000001_Node000022" class="edge">
<title>Node1&#45;&gt;Node22</title>
<g id="a_edge25_Node000001_Node000022"><a xlink:title=" ">
<path fill="none" stroke="#63b8ff" d="M381.73,-274.98C402.76,-266.34 435.55,-252.87 459.54,-243.02"/>
<polygon fill="#63b8ff" stroke="#63b8ff" points="460.98,-246.21 468.9,-239.17 458.32,-239.73 460.98,-246.21"/>
</a>
</g>
</g>
<!-- Node4&#45;&gt;Node2 -->
<g id="edge4_Node000004_Node000002" class="edge">
<title>Node4&#45;&gt;Node2</title>
<g id="a_edge4_Node000004_Node000002"><a xlink:title=" ">
<path fill="none" stroke="#63b8ff" d="M289.83,-219.98C277.23,-211.84 258,-199.41 243.06,-189.76"/>
<polygon fill="#63b8ff" stroke="#63b8ff" points="244.71,-186.66 234.41,-184.17 240.91,-192.54 244.71,-186.66"/>
</a>
</g>
</g>
<!-- Node5 -->
<g id="Node000005" class="node">
<title>Node5</title>
<g id="a_Node000005"><a xlink:href="sym_8h.html" target="_top" xlink:title=" ">
<polygon fill="white" stroke="#666666" points="332.5,-184 273.5,-184 273.5,-165 332.5,-165 332.5,-184"/>
<text text-anchor="middle" x="303" y="-172" font-family="Helvetica,sans-Serif" font-size="10.00">fe/sym.h</text>
</a>
</g>
</g>
<!-- Node4&#45;&gt;Node5 -->
<g id="edge5_Node000004_Node000005" class="edge">
<title>Node4&#45;&gt;Node5</title>
<g id="a_edge5_Node000004_Node000005"><a xlink:title=" ">
<path fill="none" stroke="#63b8ff" d="M303,-219.75C303,-212.8 303,-202.85 303,-194.13"/>
<polygon fill="#63b8ff" stroke="#63b8ff" points="306.5,-194.09 303,-184.09 299.5,-194.09 306.5,-194.09"/>
</a>
</g>
</g>
<!-- Node6 -->
<g id="Node000006" class="node">
<title>Node6</title>
<g id="a_Node000006"><a xlink:title=" ">
<polygon fill="#e0e0e0" stroke="#999999" points="610,-19 558,-19 558,0 610,0 610,-19"/>
<text text-anchor="middle" x="584" y="-7" font-family="Helvetica,sans-Serif" font-size="10.00">cassert</text>
</a>
</g>
</g>
<!-- Node5&#45;&gt;Node6 -->
<g id="edge6_Node000005_Node000006" class="edge">
<title>Node5&#45;&gt;Node6</title>
<g id="a_edge6_Node000005_Node000006"><a xlink:title=" ">
<path fill="none" stroke="#63b8ff" d="M332.83,-166.57C376.25,-156.28 452.83,-137.29 463,-129 491.66,-105.64 475.09,-81.37 501,-55 514.7,-41.06 533.7,-30.43 550.07,-23.07"/>
<polygon fill="#63b8ff" stroke="#63b8ff" points="551.52,-26.25 559.34,-19.11 548.77,-19.82 551.52,-26.25"/>
</a>
</g>
</g>
<!-- Node7 -->
<g id="Node000007" class="node">
<title>Node7</title>
<g id="a_Node000007"><a xlink:title=" ">
<polygon fill="#e0e0e0" stroke="#999999" points="50,-129 0,-129 0,-110 50,-110 50,-129"/>
<text text-anchor="middle" x="25" y="-117" font-family="Helvetica,sans-Serif" font-size="10.00">cstring</text>
</a>
</g>
</g>
<!-- Node5&#45;&gt;Node7 -->
<g id="edge7_Node000005_Node000007" class="edge">
<title>Node5&#45;&gt;Node7</title>
<g id="a_edge7_Node000005_Node000007"><a xlink:title=" ">
<path fill="none" stroke="#63b8ff" d="M273.22,-166.88C270.11,-166.23 266.99,-165.59 264,-165 176.34,-147.76 151.19,-148.18 60.13,-129.11"/>
<polygon fill="#63b8ff" stroke="#63b8ff" points="60.71,-125.66 50.2,-127.01 59.26,-132.51 60.71,-125.66"/>
</a>
</g>
</g>
<!-- Node8 -->
<g id="Node000008" class="node">
<title>Node8</title>
<g id="a_Node000008"><a xlink:title=" ">
<polygon fill="#e0e0e0" stroke="#999999" points="97.5,-129 68.5,-129 68.5,-110 97.5,-110 97.5,-129"/>
<text text-anchor="middle" x="83" y="-117" font-family="Helvetica,sans-Serif" font-size="10.00">bit</text>
</a>
</g>
</g>
<!-- Node5&#45;&gt;Node8 -->
<g id="edge8_Node000005_Node000008" class="edge">
<title>Node5&#45;&gt;Node8</title>
<g id="a_edge8_Node000005_Node000008"><a xlink:title=" ">
<path fill="none" stroke="#63b8ff" d="M273.41,-166.98C227.8,-156.91 142.64,-137.99 107.5,-128.73"/>
<polygon fill="#63b8ff" stroke="#63b8ff" points="108.21,-125.29 97.63,-125.99 106.33,-132.04 108.21,-125.29"/>
</a>
</g>
</g>
<!-- Node9 -->
<g id="Node000009" class="node">
<title>Node9</title>
<g id="a_Node000009"><a xlink:title=" ">
<polygon fill="#e0e0e0" stroke="#999999" points="176,-129 116,-129 116,-110 176,-110 176,-129"/>
<text text-anchor="middle" x="146" y="-117" font-family="Helvetica,sans-Serif" font-size="10.00">iostream</text>
</a>
</g>
</g>
<!-- Node5&#45;&gt;Node9 -->
<g id="edge9_Node000005_Node000009" class="edge">
<title>Node5&#45;&gt;Node9</title>
<g id="a_edge9_Node000005_Node000009"><a xlink:title=" ">
<path fill="none" stroke="#63b8ff" d="M277.78,-164.98C251.64,-156.16 210.6,-142.31 181.27,-132.41"/>
<polygon fill="#63b8ff" stroke="#63b8ff" points="182.02,-128.96 171.42,-129.08 179.78,-135.6 182.02,-128.96"/>
</a>
</g>
</g>
<!-- Node10 -->
<g id="Node000010" class="node">
<title>Node10</title>
<g id="a_Node000010"><a xlink:title=" ">
<polygon fill="#e0e0e0" stroke="#999999" points="238,-129 194,-129 194,-110 238,-110 238,-129"/>
<text text-anchor="middle" x="216" y="-117" font-family="Helvetica,sans-Serif" font-size="10.00">string</text>
</a>
</g>
</g>
<!-- Node5&#45;&gt;Node10 -->
<g id="edge10_Node000005_Node000010" class="edge">
<title>Node5&#45;&gt;Node10</title>
<g id="a_edge10_Node000005_Node000010"><a xlink:title=" ">
<path fill="none" stroke="#63b8ff" d="M289.02,-164.98C275.53,-156.77 254.87,-144.18 238.96,-134.49"/>
<polygon fill="#63b8ff" stroke="#63b8ff" points="240.59,-131.38 230.23,-129.17 236.95,-137.36 240.59,-131.38"/>
</a>
</g>
</g>
<!-- Node11 -->
<g id="Node000011" class="node">
<title>Node11</title>
<g id="a_Node000011"><a xlink:title=" ">
<polygon fill="#e0e0e0" stroke="#999999" points="349.5,-129 256.5,-129 256.5,-110 349.5,-110 349.5,-129"/>
<text text-anchor="middle" x="303" y="-117" font-family="Helvetica,sans-Serif" font-size="10.00">unordered_map</text>
</a>
</g>
</g>
<!-- Node5&#45;&gt;Node11 -->
<g id="edge11_Node000005_Node000011" class="edge">
<title>Node5&#45;&gt;Node11</title>
<g id="a_edge11_Node000005_Node000011"><a xlink:title=" ">
<path fill="none" stroke="#63b8ff" d="M303,-164.75C303,-157.8 303,-147.85 303,-139.13"/>
<polygon fill="#63b8ff" stroke="#63b8ff" points="306.5,-139.09 303,-129.09 299.5,-139.09 306.5,-139.09"/>
</a>
</g>
</g>
<!-- Node12 -->
<g id="Node000012" class="node">
<title>Node12</title>
<g id="a_Node000012"><a xlink:title=" ">
<polygon fill="#e0e0e0" stroke="#999999" points="454,-129 368,-129 368,-110 454,-110 454,-129"/>
<text text-anchor="middle" x="411" y="-117" font-family="Helvetica,sans-Serif" font-size="10.00">unordered_set</text>
</a>
</g>
</g>
<!-- Node5&#45;&gt;Node12 -->
<g id="edge12_Node000005_Node000012" class="edge">
<title>Node5&#45;&gt;Node12</title>
<g id="a_edge12_Node000005_Node000012"><a xlink:title=" ">
<path fill="none" stroke="#63b8ff" d="M320.35,-164.98C337.57,-156.54 364.2,-143.47 384.15,-133.68"/>
<polygon fill="#63b8ff" stroke="#63b8ff" points="385.9,-136.72 393.33,-129.17 382.81,-130.43 385.9,-136.72"/>
</a>
</g>
</g>
<!-- Node13 -->
<g id="Node000013" class="node">
<title>Node13</title>
<g id="a_Node000013"><a xlink:href="arena_8h.html" target="_top" xlink:title=" ">
<polygon fill="white" stroke="#666666" points="643,-129 577,-129 577,-110 643,-110 643,-129"/>
<text text-anchor="middle" x="610" y="-117" font-family="Helvetica,sans-Serif" font-size="10.00">fe/arena.h</text>
</a>
</g>
</g>
<!-- Node5&#45;&gt;Node13 -->
<g id="edge13_Node000005_Node000013" class="edge">
<title>Node5&#45;&gt;Node13</title>
<g id="a_edge13_Node000005_Node000013"><a xlink:title=" ">
<path fill="none" stroke="#63b8ff" d="M332.8,-167.65C337.55,-166.74 342.41,-165.83 347,-165 424.32,-150.99 514.69,-136 566.84,-127.49"/>
<polygon fill="#63b8ff" stroke="#63b8ff" points="567.44,-130.94 576.74,-125.87 566.31,-124.03 567.44,-130.94"/>
</a>
</g>
</g>
<!-- Node14 -->
<g id="Node000014" class="node">
<title>Node14</title>
<g id="a_Node000014"><a xlink:title=" ">
<polygon fill="#e0e0e0" stroke="#999999" points="802,-74 738,-74 738,-55 802,-55 802,-74"/>
<text text-anchor="middle" x="770" y="-62" font-family="Helvetica,sans-Serif" font-size="10.00">algorithm</text>
</a>
</g>
</g>
<!-- Node13&#45;&gt;Node14 -->
<g id="edge14_Node000013_Node000014" class="edge">
<title>Node13&#45;&gt;Node14</title>
<g id="a_edge14_Node000013_Node000014"><a xlink:title=" ">
<path fill="none" stroke="#63b8ff" d="M635.71,-109.98C662.45,-101.13 704.53,-87.19 734.45,-77.28"/>
<polygon fill="#63b8ff" stroke="#63b8ff" points="735.7,-80.55 744.09,-74.08 733.5,-73.9 735.7,-80.55"/>
</a>
</g>
</g>
<!-- Node15 -->
<g id="Node000015" class="node">
<title>Node15</title>
<g id="a_Node000015"><a xlink:title=" ">
<polygon fill="#e0e0e0" stroke="#999999" points="568,-74 510,-74 510,-55 568,-55 568,-74"/>
<text text-anchor="middle" x="539" y="-62" font-family="Helvetica,sans-Serif" font-size="10.00">memory</text>
</a>
</g>
</g>
<!-- Node13&#45;&gt;Node15 -->
<g id="edge15_Node000013_Node000015" class="edge">
<title>Node13&#45;&gt;Node15</title>
<g id="a_edge15_Node000013_Node000015"><a xlink:title=" ">
<path fill="none" stroke="#63b8ff" d="M598.59,-109.98C587.89,-102 571.66,-89.88 558.84,-80.31"/>
<polygon fill="#63b8ff" stroke="#63b8ff" points="560.72,-77.35 550.61,-74.17 556.53,-82.96 560.72,-77.35"/>
</a>
</g>
</g>
<!-- Node16 -->
<g id="Node000016" class="node">
<title>Node16</title>
<g id="a_Node000016"><a xlink:title=" ">
<polygon fill="#e0e0e0" stroke="#999999" points="633.5,-74 586.5,-74 586.5,-55 633.5,-55 633.5,-74"/>
<text text-anchor="middle" x="610" y="-62" font-family="Helvetica,sans-Serif" font-size="10.00">vector</text>
</a>
</g>
</g>
<!-- Node13&#45;&gt;Node16 -->
<g id="edge16_Node000013_Node000016" class="edge">
<title>Node13&#45;&gt;Node16</title>
<g id="a_edge16_Node000013_Node000016"><a xlink:title=" ">
<path fill="none" stroke="#63b8ff" d="M610,-109.75C610,-102.8 610,-92.85 610,-84.13"/>
<polygon fill="#63b8ff" stroke="#63b8ff" points="613.5,-84.09 610,-74.09 606.5,-84.09 613.5,-84.09"/>
</a>
</g>
</g>
<!-- Node17 -->
<g id="Node000017" class="node">
<title>Node17</title>
<g id="a_Node000017"><a xlink:href="assert_8h.html" target="_top" xlink:title=" ">
<polygon fill="white" stroke="#666666" points="720,-74 652,-74 652,-55 720,-55 720,-74"/>
<text text-anchor="middle" x="686" y="-62" font-family="Helvetica,sans-Serif" font-size="10.00">fe/assert.h</text>
</a>
</g>
</g>
<!-- Node13&#45;&gt;Node17 -->
<g id="edge17_Node000013_Node000017" class="edge">
<title>Node13&#45;&gt;Node17</title>
<g id="a_edge17_Node000013_Node000017"><a xlink:title=" ">
<path fill="none" stroke="#63b8ff" d="M622.21,-109.98C633.78,-101.92 651.38,-89.65 665.16,-80.03"/>
<polygon fill="#63b8ff" stroke="#63b8ff" points="667.37,-82.76 673.57,-74.17 663.36,-77.02 667.37,-82.76"/>
</a>
</g>
</g>
<!-- Node17&#45;&gt;Node6 -->
<g id="edge18_Node000017_Node000006" class="edge">
<title>Node17&#45;&gt;Node6</title>
<g id="a_edge18_Node000017_Node000006"><a xlink:title=" ">
<path fill="none" stroke="#63b8ff" d="M669.61,-54.98C653.43,-46.57 628.43,-33.59 609.62,-23.81"/>
<polygon fill="#63b8ff" stroke="#63b8ff" points="611.17,-20.68 600.69,-19.17 607.95,-26.89 611.17,-20.68"/>
</a>
</g>
</g>
<!-- Node18&#45;&gt;Node14 -->
<g id="edge22_Node000018_Node000014" class="edge">
<title>Node18&#45;&gt;Node14</title>
<g id="a_edge22_Node000018_Node000014"><a xlink:title=" ">
<path fill="none" stroke="#63b8ff" d="M802.56,-109.75C797.11,-102.34 789.14,-91.5 782.44,-82.41"/>
<polygon fill="#63b8ff" stroke="#63b8ff" points="785.07,-80.07 776.32,-74.09 779.43,-84.22 785.07,-80.07"/>
</a>
</g>
</g>
<!-- Node18&#45;&gt;Node17 -->
<g id="edge24_Node000018_Node000017" class="edge">
<title>Node18&#45;&gt;Node17</title>
<g id="a_edge24_Node000018_Node000017"><a xlink:title=" ">
<path fill="none" stroke="#63b8ff" d="M789.24,-109.98C769.27,-101.38 738.2,-87.99 715.35,-78.15"/>
<polygon fill="#63b8ff" stroke="#63b8ff" points="716.69,-74.91 706.12,-74.17 713.92,-81.34 716.69,-74.91"/>
</a>
</g>
</g>
<!-- Node19 -->
<g id="Node000019" class="node">
<title>Node19</title>
<g id="a_Node000019"><a xlink:title=" ">
<polygon fill="#e0e0e0" stroke="#999999" points="873.5,-74 820.5,-74 820.5,-55 873.5,-55 873.5,-74"/>
<text text-anchor="middle" x="847" y="-62" font-family="Helvetica,sans-Serif" font-size="10.00">cstddef</text>
</a>
</g>
</g>
<!-- Node18&#45;&gt;Node19 -->
<g id="edge20_Node000018_Node000019" class="edge">
<title>Node18&#45;&gt;Node19</title>
<g id="a_edge20_Node000018_Node000019"><a xlink:title=" ">
<path fill="none" stroke="#63b8ff" d="M815.27,-109.75C820.59,-102.34 828.36,-91.5 834.88,-82.41"/>
<polygon fill="#63b8ff" stroke="#63b8ff" points="837.86,-84.26 840.84,-74.09 832.17,-80.18 837.86,-84.26"/>
</a>
</g>
</g>
<!-- Node20 -->
<g id="Node000020" class="node">
<title>Node20</title>
<g id="a_Node000020"><a xlink:title=" ">
<polygon fill="#e0e0e0" stroke="#999999" points="934,-74 892,-74 892,-55 934,-55 934,-74"/>
<text text-anchor="middle" x="913" y="-62" font-family="Helvetica,sans-Serif" font-size="10.00">array</text>
</a>
</g>
</g>
<!-- Node18&#45;&gt;Node20 -->
<g id="edge21_Node000018_Node000020" class="edge">
<title>Node18&#45;&gt;Node20</title>
<g id="a_edge21_Node000018_Node000020"><a xlink:title=" ">
<path fill="none" stroke="#63b8ff" d="M825.71,-109.98C842.21,-101.57 867.7,-88.59 886.88,-78.81"/>
<polygon fill="#63b8ff" stroke="#63b8ff" points="888.67,-81.83 895.99,-74.17 885.49,-75.59 888.67,-81.83"/>
</a>
</g>
</g>
<!-- Node21 -->
<g id="Node000021" class="node">
<title>Node21</title>
<g id="a_Node000021"><a xlink:title=" ">
<polygon fill="#e0e0e0" stroke="#999999" points="1035.5,-74 952.5,-74 952.5,-55 1035.5,-55 1035.5,-74"/>
<text text-anchor="middle" x="994" y="-62" font-family="Helvetica,sans-Serif" font-size="10.00">initializer_list</text>
</a>
</g>
</g>
<!-- Node18&#45;&gt;Node21 -->
<g id="edge23_Node000018_Node000021" class="edge">
<title>Node18&#45;&gt;Node21</title>
<g id="a_edge23_Node000018_Node000021"><a xlink:title=" ">
<path fill="none" stroke="#63b8ff" d="M837.5,-110.33C868.77,-101.38 919.19,-86.93 954.32,-76.87"/>
<polygon fill="#63b8ff" stroke="#63b8ff" points="955.59,-80.14 964.24,-74.03 953.66,-73.42 955.59,-80.14"/>
</a>
</g>
</g>
</g>
</svg>
