<?xml version="1.0" encoding="UTF-8" standalone="no"?>
<!DOCTYPE svg PUBLIC "-//W3C//DTD SVG 1.1//EN"
 "http://www.w3.org/Graphics/SVG/1.1/DTD/svg11.dtd">
<!-- Generated by graphviz version 2.43.0 (0)
 -->
<!-- Title: fe/loc.h Pages: 1 -->
<svg width="588pt" height="247pt"
 viewBox="0.00 0.00 587.79 247.00" xmlns="http://www.w3.org/2000/svg" xmlns:xlink="http://www.w3.org/1999/xlink">
<g id="graph0" class="graph" transform="scale(1 1) rotate(0) translate(4 243)">
<title>fe/loc.h</title>
<!-- Node1 -->
<g id="Node000001" class="node">
<title>Node1</title>
<g id="a_Node000001"><a xlink:title=" ">
<polygon fill="#999999" stroke="#666666" points="166.29,-239 113.29,-239 113.29,-220 166.29,-220 166.29,-239"/>
<text text-anchor="middle" x="139.79" y="-227" font-family="Helvetica,sans-Serif" font-size="10.00">fe/loc.h</text>
</a>
</g>
</g>
<!-- Node2 -->
<g id="Node000002" class="node">
<title>Node2</title>
<g id="a_Node000002"><a xlink:title=" ">
<polygon fill="#e0e0e0" stroke="#999999" points="132.79,-184 64.79,-184 64.79,-165 132.79,-165 132.79,-184"/>
<text text-anchor="middle" x="98.79" y="-172" font-family="Helvetica,sans-Serif" font-size="10.00">filesystem</text>
</a>
</g>
</g>
<!-- Node1&#45;&gt;Node2 -->
<g id="edge1_Node000001_Node000002" class="edge">
<title>Node1&#45;&gt;Node2</title>
<g id="a_edge1_Node000001_Node000002"><a xlink:title=" ">
<path fill="none" stroke="#63b8ff" d="M133.02,-219.75C127.23,-212.26 118.74,-201.28 111.66,-192.13"/>
<polygon fill="#63b8ff" stroke="#63b8ff" points="114.33,-189.86 105.44,-184.09 108.79,-194.14 114.33,-189.86"/>
</a>
</g>
</g>
<!-- Node3 -->
<g id="Node000003" class="node">
<title>Node3</title>
<g id="a_Node000003"><a xlink:href="sym_8h.html" target="_top" xlink:title=" ">
<polygon fill="white" stroke="#666666" points="210.29,-184 151.29,-184 151.29,-165 210.29,-165 210.29,-184"/>
<text text-anchor="middle" x="180.79" y="-172" font-family="Helvetica,sans-Serif" font-size="10.00">fe/sym.h</text>
</a>
</g>
</g>
<!-- Node1&#45;&gt;Node3 -->
<g id="edge2_Node000001_Node000003" class="edge">
<title>Node1&#45;&gt;Node3</title>
<g id="a_edge2_Node000001_Node000003"><a xlink:title=" ">
<path fill="none" stroke="#63b8ff" d="M146.56,-219.75C152.36,-212.26 160.85,-201.28 167.93,-192.13"/>
<polygon fill="#63b8ff" stroke="#63b8ff" points="170.8,-194.14 174.15,-184.09 165.26,-189.86 170.8,-194.14"/>
</a>
</g>
</g>
<!-- Node4 -->
<g id="Node000004" class="node">
<title>Node4</title>
<g id="a_Node000004"><a xlink:title=" ">
<polygon fill="#e0e0e0" stroke="#999999" points="290.79,-19 238.79,-19 238.79,0 290.79,0 290.79,-19"/>
<text text-anchor="middle" x="264.79" y="-7" font-family="Helvetica,sans-Serif" font-size="10.00">cassert</text>
</a>
</g>
</g>
<!-- Node3&#45;&gt;Node4 -->
<g id="edge3_Node000003_Node000004" class="edge">
<title>Node3&#45;&gt;Node4</title>
<g id="a_edge3_Node000003_Node000004"><a xlink:title=" ">
<path fill="none" stroke="#63b8ff" d="M150.93,-166.99C101.68,-156.12 8.37,-134.87 3.79,-129 -1.4,-122.34 -1,-116.95 3.79,-110 54.95,-35.75 169.47,-16.87 228.33,-12.1"/>
<polygon fill="#63b8ff" stroke="#63b8ff" points="228.92,-15.56 238.65,-11.36 228.42,-8.58 228.92,-15.56"/>
</a>
</g>
</g>
<!-- Node5 -->
<g id="Node000005" class="node">
<title>Node5</title>
<g id="a_Node000005"><a xlink:title=" ">
<polygon fill="#e0e0e0" stroke="#999999" points="62.79,-129 12.79,-129 12.79,-110 62.79,-110 62.79,-129"/>
<text text-anchor="middle" x="37.79" y="-117" font-family="Helvetica,sans-Serif" font-size="10.00">cstring</text>
</a>
</g>
</g>
<!-- Node3&#45;&gt;Node5 -->
<g id="edge4_Node000003_Node000005" class="edge">
<title>Node3&#45;&gt;Node5</title>
<g id="a_edge4_Node000003_Node000005"><a xlink:title=" ">
<path fill="none" stroke="#63b8ff" d="M157.82,-164.98C134.3,-156.27 97.51,-142.63 70.86,-132.75"/>
<polygon fill="#63b8ff" stroke="#63b8ff" points="71.78,-129.36 61.19,-129.17 69.35,-135.93 71.78,-129.36"/>
</a>
</g>
</g>
<!-- Node6 -->
<g id="Node000006" class="node">
<title>Node6</title>
<g id="a_Node000006"><a xlink:title=" ">
<polygon fill="#e0e0e0" stroke="#999999" points="140.79,-129 80.79,-129 80.79,-110 140.79,-110 140.79,-129"/>
<text text-anchor="middle" x="110.79" y="-117" font-family="Helvetica,sans-Serif" font-size="10.00">iostream</text>
</a>
</g>
</g>
<!-- Node3&#45;&gt;Node6 -->
<g id="edge5_Node000003_Node000006" class="edge">
<title>Node3&#45;&gt;Node6</title>
<g id="a_edge5_Node000003_Node000006"><a xlink:title=" ">
<path fill="none" stroke="#63b8ff" d="M169.55,-164.98C159,-157 142.99,-144.88 130.35,-135.31"/>
<polygon fill="#63b8ff" stroke="#63b8ff" points="132.33,-132.42 122.25,-129.17 128.11,-138 132.33,-132.42"/>
</a>
</g>
</g>
<!-- Node7 -->
<g id="Node000007" class="node">
<title>Node7</title>
<g id="a_Node000007"><a xlink:title=" ">
<polygon fill="#e0e0e0" stroke="#999999" points="202.79,-129 158.79,-129 158.79,-110 202.79,-110 202.79,-129"/>
<text text-anchor="middle" x="180.79" y="-117" font-family="Helvetica,sans-Serif" font-size="10.00">string</text>
</a>
</g>
</g>
<!-- Node3&#45;&gt;Node7 -->
<g id="edge6_Node000003_Node000007" class="edge">
<title>Node3&#45;&gt;Node7</title>
<g id="a_edge6_Node000003_Node000007"><a xlink:title=" ">
<path fill="none" stroke="#63b8ff" d="M180.79,-164.75C180.79,-157.8 180.79,-147.85 180.79,-139.13"/>
<polygon fill="#63b8ff" stroke="#63b8ff" points="184.29,-139.09 180.79,-129.09 177.29,-139.09 184.29,-139.09"/>
</a>
</g>
</g>
<!-- Node8 -->
<g id="Node000008" class="node">
<title>Node8</title>
<g id="a_Node000008"><a xlink:title=" ">
<polygon fill="#e0e0e0" stroke="#999999" points="314.29,-129 221.29,-129 221.29,-110 314.29,-110 314.29,-129"/>
<text text-anchor="middle" x="267.79" y="-117" font-family="Helvetica,sans-Serif" font-size="10.00">unordered_map</text>
</a>
</g>
</g>
<!-- Node3&#45;&gt;Node8 -->
<g id="edge7_Node000003_Node000008" class="edge">
<title>Node3&#45;&gt;Node8</title>
<g id="a_edge7_Node000003_Node000008"><a xlink:title=" ">
<path fill="none" stroke="#63b8ff" d="M194.77,-164.98C208.26,-156.77 228.93,-144.18 244.84,-134.49"/>
<polygon fill="#63b8ff" stroke="#63b8ff" points="246.84,-137.36 253.56,-129.17 243.2,-131.38 246.84,-137.36"/>
</a>
</g>
</g>
<!-- Node9 -->
<g id="Node000009" class="node">
<title>Node9</title>
<g id="a_Node000009"><a xlink:title=" ">
<polygon fill="#e0e0e0" stroke="#999999" points="418.79,-129 332.79,-129 332.79,-110 418.79,-110 418.79,-129"/>
<text text-anchor="middle" x="375.79" y="-117" font-family="Helvetica,sans-Serif" font-size="10.00">unordered_set</text>
</a>
</g>
</g>
<!-- Node3&#45;&gt;Node9 -->
<g id="edge8_Node000003_Node000009" class="edge">
<title>Node3&#45;&gt;Node9</title>
<g id="a_edge8_Node000003_Node000009"><a xlink:title=" ">
<path fill="none" stroke="#63b8ff" d="M210.41,-165.45C243.42,-156.48 297.05,-141.9 334.25,-131.79"/>
<polygon fill="#63b8ff" stroke="#63b8ff" points="335.55,-135.07 344.28,-129.07 333.71,-128.31 335.55,-135.07"/>
</a>
</g>
</g>
<!-- Node10 -->
<g id="Node000010" class="node">
<title>Node10</title>
<g id="a_Node000010"><a xlink:href="arena_8h.html" target="_top" xlink:title=" ">
<polygon fill="white" stroke="#666666" points="502.79,-129 436.79,-129 436.79,-110 502.79,-110 502.79,-129"/>
<text text-anchor="middle" x="469.79" y="-117" font-family="Helvetica,sans-Serif" font-size="10.00">fe/arena.h</text>
</a>
</g>
</g>
<!-- Node3&#45;&gt;Node10 -->
<g id="edge9_Node000003_Node000010" class="edge">
<title>Node3&#45;&gt;Node10</title>
<g id="a_edge9_Node000003_Node000010"><a xlink:title=" ">
<path fill="none" stroke="#63b8ff" d="M210.49,-168.36C255.14,-160.59 342.49,-145.21 426.8,-129.16"/>
<polygon fill="#63b8ff" stroke="#63b8ff" points="427.63,-132.56 436.79,-127.25 426.31,-125.69 427.63,-132.56"/>
</a>
</g>
</g>
<!-- Node11 -->
<g id="Node000011" class="node">
<title>Node11</title>
<g id="a_Node000011"><a xlink:title=" ">
<polygon fill="#e0e0e0" stroke="#999999" points="351.79,-74 287.79,-74 287.79,-55 351.79,-55 351.79,-74"/>
<text text-anchor="middle" x="319.79" y="-62" font-family="Helvetica,sans-Serif" font-size="10.00">algorithm</text>
</a>
</g>
</g>
<!-- Node10&#45;&gt;Node11 -->
<g id="edge10_Node000010_Node000011" class="edge">
<title>Node10&#45;&gt;Node11</title>
<g id="a_edge10_Node000010_Node000011"><a xlink:title=" ">
<path fill="none" stroke="#63b8ff" d="M445.69,-109.98C420.91,-101.23 382.09,-87.51 354.11,-77.62"/>
<polygon fill="#63b8ff" stroke="#63b8ff" points="354.93,-74.2 344.33,-74.17 352.6,-80.8 354.93,-74.2"/>
</a>
</g>
</g>
<!-- Node12 -->
<g id="Node000012" class="node">
<title>Node12</title>
<g id="a_Node000012"><a xlink:title=" ">
<polygon fill="#e0e0e0" stroke="#999999" points="427.79,-74 369.79,-74 369.79,-55 427.79,-55 427.79,-74"/>
<text text-anchor="middle" x="398.79" y="-62" font-family="Helvetica,sans-Serif" font-size="10.00">memory</text>
</a>
</g>
</g>
<!-- Node10&#45;&gt;Node12 -->
<g id="edge11_Node000010_Node000012" class="edge">
<title>Node10&#45;&gt;Node12</title>
<g id="a_edge11_Node000010_Node000012"><a xlink:title=" ">
<path fill="none" stroke="#63b8ff" d="M458.39,-109.98C447.69,-102 431.45,-89.88 418.63,-80.31"/>
<polygon fill="#63b8ff" stroke="#63b8ff" points="420.52,-77.35 410.41,-74.17 416.33,-82.96 420.52,-77.35"/>
</a>
</g>
</g>
<!-- Node13 -->
<g id="Node000013" class="node">
<title>Node13</title>
<g id="a_Node000013"><a xlink:title=" ">
<polygon fill="#e0e0e0" stroke="#999999" points="493.29,-74 446.29,-74 446.29,-55 493.29,-55 493.29,-74"/>
<text text-anchor="middle" x="469.79" y="-62" font-family="Helvetica,sans-Serif" font-size="10.00">vector</text>
</a>
</g>
</g>
<!-- Node10&#45;&gt;Node13 -->
<g id="edge12_Node000010_Node000013" class="edge">
<title>Node10&#45;&gt;Node13</title>
<g id="a_edge12_Node000010_Node000013"><a xlink:title=" ">
<path fill="none" stroke="#63b8ff" d="M469.79,-109.75C469.79,-102.8 469.79,-92.85 469.79,-84.13"/>
<polygon fill="#63b8ff" stroke="#63b8ff" points="473.29,-84.09 469.79,-74.09 466.29,-84.09 473.29,-84.09"/>
</a>
</g>
</g>
<!-- Node14 -->
<g id="Node000014" class="node">
<title>Node14</title>
<g id="a_Node000014"><a xlink:href="assert_8h.html" target="_top" xlink:title=" ">
<polygon fill="white" stroke="#666666" points="579.79,-74 511.79,-74 511.79,-55 579.79,-55 579.79,-74"/>
<text text-anchor="middle" x="545.79" y="-62" font-family="Helvetica,sans-Serif" font-size="10.00">fe/assert.h</text>
</a>
</g>
</g>
<!-- Node10&#45;&gt;Node14 -->
<g id="edge13_Node000010_Node000014" class="edge">
<title>Node10&#45;&gt;Node14</title>
<g id="a_edge13_Node000010_Node000014"><a xlink:title=" ">
<path fill="none" stroke="#63b8ff" d="M482,-109.98C493.57,-101.92 511.17,-89.65 524.95,-80.03"/>
<polygon fill="#63b8ff" stroke="#63b8ff" points="527.16,-82.76 533.36,-74.17 523.16,-77.02 527.16,-82.76"/>
</a>
</g>
</g>
<!-- Node14&#45;&gt;Node4 -->
<g id="edge14_Node000014_Node000004" class="edge">
<title>Node14&#45;&gt;Node4</title>
<g id="a_edge14_Node000014_Node000004"><a xlink:title=" ">
<path fill="none" stroke="#63b8ff" d="M511.53,-56.69C508.58,-56.12 505.63,-55.55 502.79,-55 431.22,-41.24 347.42,-25.7 300.79,-17.11"/>
<polygon fill="#63b8ff" stroke="#63b8ff" points="301.34,-13.65 290.87,-15.28 300.07,-20.54 301.34,-13.65"/>
</a>
</g>
</g>
</g>
</svg>
