<?xml version="1.0" encoding="UTF-8" standalone="no"?>
<!DOCTYPE svg PUBLIC "-//W3C//DTD SVG 1.1//EN"
 "http://www.w3.org/Graphics/SVG/1.1/DTD/svg11.dtd">
<!-- Generated by graphviz version 2.43.0 (0)
 -->
<!-- Title: fe/loc.cpp.h Pages: 1 -->
<svg width="782pt" height="357pt"
 viewBox="0.00 0.00 781.94 357.00" xmlns="http://www.w3.org/2000/svg" xmlns:xlink="http://www.w3.org/1999/xlink">
<g id="graph0" class="graph" transform="scale(1 1) rotate(0) translate(4 353)">
<title>fe/loc.cpp.h</title>
<!-- Node1 -->
<g id="Node000001" class="node">
<title>Node1</title>
<g id="a_Node000001"><a xlink:title=" ">
<polygon fill="#999999" stroke="#666666" points="200.44,-349 127.44,-349 127.44,-330 200.44,-330 200.44,-349"/>
<text text-anchor="middle" x="163.94" y="-337" font-family="Helvetica,sans-Serif" font-size="10.00">fe/loc.cpp.h</text>
</a>
</g>
</g>
<!-- Node2 -->
<g id="Node000002" class="node">
<title>Node2</title>
<g id="a_Node000002"><a xlink:href="format_8h.html" target="_top" xlink:title=" ">
<polygon fill="white" stroke="#666666" points="167.44,-294 96.44,-294 96.44,-275 167.44,-275 167.44,-294"/>
<text text-anchor="middle" x="131.94" y="-282" font-family="Helvetica,sans-Serif" font-size="10.00">fe/format.h</text>
</a>
</g>
</g>
<!-- Node1&#45;&gt;Node2 -->
<g id="edge1_Node000001_Node000002" class="edge">
<title>Node1&#45;&gt;Node2</title>
<g id="a_edge1_Node000001_Node000002"><a xlink:title=" ">
<path fill="none" stroke="#63b8ff" d="M158.65,-329.75C154.23,-322.42 147.77,-311.73 142.32,-302.7"/>
<polygon fill="#63b8ff" stroke="#63b8ff" points="145.29,-300.84 137.12,-294.09 139.3,-304.46 145.29,-300.84"/>
</a>
</g>
</g>
<!-- Node4 -->
<g id="Node000004" class="node">
<title>Node4</title>
<g id="a_Node000004"><a xlink:href="loc_8h.html" target="_top" xlink:title=" ">
<polygon fill="white" stroke="#666666" points="267.44,-239 214.44,-239 214.44,-220 267.44,-220 267.44,-239"/>
<text text-anchor="middle" x="240.94" y="-227" font-family="Helvetica,sans-Serif" font-size="10.00">fe/loc.h</text>
</a>
</g>
</g>
<!-- Node1&#45;&gt;Node4 -->
<g id="edge28_Node000001_Node000004" class="edge">
<title>Node1&#45;&gt;Node4</title>
<g id="a_edge28_Node000001_Node000004"><a xlink:title=" ">
<path fill="none" stroke="#63b8ff" d="M170.24,-329.66C183.05,-311.69 212.32,-270.64 228.9,-247.38"/>
<polygon fill="#63b8ff" stroke="#63b8ff" points="231.81,-249.33 234.76,-239.16 226.11,-245.27 231.81,-249.33"/>
</a>
</g>
</g>
<!-- Node3 -->
<g id="Node000003" class="node">
<title>Node3</title>
<g id="a_Node000003"><a xlink:title=" ">
<polygon fill="#e0e0e0" stroke="#999999" points="79.94,-239 29.94,-239 29.94,-220 79.94,-220 79.94,-239"/>
<text text-anchor="middle" x="54.94" y="-227" font-family="Helvetica,sans-Serif" font-size="10.00">format</text>
</a>
</g>
</g>
<!-- Node2&#45;&gt;Node3 -->
<g id="edge2_Node000002_Node000003" class="edge">
<title>Node2&#45;&gt;Node3</title>
<g id="a_edge2_Node000002_Node000003"><a xlink:title=" ">
<path fill="none" stroke="#63b8ff" d="M119.57,-274.98C107.85,-266.92 90.02,-254.65 76.05,-245.03"/>
<polygon fill="#63b8ff" stroke="#63b8ff" points="77.75,-241.96 67.53,-239.17 73.79,-247.72 77.75,-241.96"/>
</a>
</g>
</g>
<!-- Node2&#45;&gt;Node4 -->
<g id="edge3_Node000002_Node000004" class="edge">
<title>Node2&#45;&gt;Node4</title>
<g id="a_edge3_Node000002_Node000004"><a xlink:title=" ">
<path fill="none" stroke="#63b8ff" d="M149.45,-274.98C166.91,-266.5 193.95,-253.35 214.11,-243.54"/>
<polygon fill="#63b8ff" stroke="#63b8ff" points="215.64,-246.69 223.11,-239.17 212.58,-240.4 215.64,-246.69"/>
</a>
</g>
</g>
<!-- Node23 -->
<g id="Node000023" class="node">
<title>Node23</title>
<g id="a_Node000023"><a xlink:href="utf8_8h.html" target="_top" xlink:title=" ">
<polygon fill="white" stroke="#666666" points="155.94,-239 97.94,-239 97.94,-220 155.94,-220 155.94,-239"/>
<text text-anchor="middle" x="126.94" y="-227" font-family="Helvetica,sans-Serif" font-size="10.00">fe/utf8.h</text>
</a>
</g>
</g>
<!-- Node2&#45;&gt;Node23 -->
<g id="edge23_Node000002_Node000023" class="edge">
<title>Node2&#45;&gt;Node23</title>
<g id="a_edge23_Node000002_Node000023"><a xlink:title=" ">
<path fill="none" stroke="#63b8ff" d="M131.11,-274.75C130.46,-267.8 129.52,-257.85 128.69,-249.13"/>
<polygon fill="#63b8ff" stroke="#63b8ff" points="132.17,-248.72 127.75,-239.09 125.2,-249.37 132.17,-248.72"/>
</a>
</g>
</g>
<!-- Node5 -->
<g id="Node000005" class="node">
<title>Node5</title>
<g id="a_Node000005"><a xlink:title=" ">
<polygon fill="#e0e0e0" stroke="#999999" points="295.94,-184 227.94,-184 227.94,-165 295.94,-165 295.94,-184"/>
<text text-anchor="middle" x="261.94" y="-172" font-family="Helvetica,sans-Serif" font-size="10.00">filesystem</text>
</a>
</g>
</g>
<!-- Node4&#45;&gt;Node5 -->
<g id="edge4_Node000004_Node000005" class="edge">
<title>Node4&#45;&gt;Node5</title>
<g id="a_edge4_Node000004_Node000005"><a xlink:title=" ">
<path fill="none" stroke="#63b8ff" d="M244.4,-219.75C247.22,-212.65 251.28,-202.4 254.78,-193.56"/>
<polygon fill="#63b8ff" stroke="#63b8ff" points="258.1,-194.68 258.53,-184.09 251.6,-192.1 258.1,-194.68"/>
</a>
</g>
</g>
<!-- Node6 -->
<g id="Node000006" class="node">
<title>Node6</title>
<g id="a_Node000006"><a xlink:href="sym_8h.html" target="_top" xlink:title=" ">
<polygon fill="white" stroke="#666666" points="373.44,-184 314.44,-184 314.44,-165 373.44,-165 373.44,-184"/>
<text text-anchor="middle" x="343.94" y="-172" font-family="Helvetica,sans-Serif" font-size="10.00">fe/sym.h</text>
</a>
</g>
</g>
<!-- Node4&#45;&gt;Node6 -->
<g id="edge5_Node000004_Node000006" class="edge">
<title>Node4&#45;&gt;Node6</title>
<g id="a_edge5_Node000004_Node000006"><a xlink:title=" ">
<path fill="none" stroke="#63b8ff" d="M257.49,-219.98C273.83,-211.57 299.07,-198.59 318.07,-188.81"/>
<polygon fill="#63b8ff" stroke="#63b8ff" points="319.8,-191.86 327.09,-184.17 316.59,-185.63 319.8,-191.86"/>
</a>
</g>
</g>
<!-- Node7 -->
<g id="Node000007" class="node">
<title>Node7</title>
<g id="a_Node000007"><a xlink:title=" ">
<polygon fill="#e0e0e0" stroke="#999999" points="514.94,-19 462.94,-19 462.94,0 514.94,0 514.94,-19"/>
<text text-anchor="middle" x="488.94" y="-7" font-family="Helvetica,sans-Serif" font-size="10.00">cassert</text>
</a>
</g>
</g>
<!-- Node6&#45;&gt;Node7 -->
<g id="edge6_Node000006_Node000007" class="edge">
<title>Node6&#45;&gt;Node7</title>
<g id="a_edge6_Node000006_Node000007"><a xlink:title=" ">
<path fill="none" stroke="#63b8ff" d="M373.74,-171.37C462.52,-164.33 722.06,-138.49 769.94,-74 774.97,-67.22 775.42,-61.42 769.94,-55 738.88,-18.64 594.03,-11.82 525.31,-10.66"/>
<polygon fill="#63b8ff" stroke="#63b8ff" points="525.01,-7.16 514.96,-10.52 524.91,-14.16 525.01,-7.16"/>
</a>
</g>
</g>
<!-- Node8 -->
<g id="Node000008" class="node">
<title>Node8</title>
<g id="a_Node000008"><a xlink:title=" ">
<polygon fill="#e0e0e0" stroke="#999999" points="90.94,-129 40.94,-129 40.94,-110 90.94,-110 90.94,-129"/>
<text text-anchor="middle" x="65.94" y="-117" font-family="Helvetica,sans-Serif" font-size="10.00">cstring</text>
</a>
</g>
</g>
<!-- Node6&#45;&gt;Node8 -->
<g id="edge7_Node000006_Node000008" class="edge">
<title>Node6&#45;&gt;Node8</title>
<g id="a_edge7_Node000006_Node000008"><a xlink:title=" ">
<path fill="none" stroke="#63b8ff" d="M314.15,-166.88C311.04,-166.23 307.93,-165.59 304.94,-165 217.27,-147.76 192.12,-148.18 101.06,-129.11"/>
<polygon fill="#63b8ff" stroke="#63b8ff" points="101.65,-125.66 91.14,-127.01 100.2,-132.51 101.65,-125.66"/>
</a>
</g>
</g>
<!-- Node9 -->
<g id="Node000009" class="node">
<title>Node9</title>
<g id="a_Node000009"><a xlink:title=" ">
<polygon fill="#e0e0e0" stroke="#999999" points="138.44,-129 109.44,-129 109.44,-110 138.44,-110 138.44,-129"/>
<text text-anchor="middle" x="123.94" y="-117" font-family="Helvetica,sans-Serif" font-size="10.00">bit</text>
</a>
</g>
</g>
<!-- Node6&#45;&gt;Node9 -->
<g id="edge8_Node000006_Node000009" class="edge">
<title>Node6&#45;&gt;Node9</title>
<g id="a_edge8_Node000006_Node000009"><a xlink:title=" ">
<path fill="none" stroke="#63b8ff" d="M314.35,-166.98C268.74,-156.91 183.58,-137.99 148.44,-128.73"/>
<polygon fill="#63b8ff" stroke="#63b8ff" points="149.14,-125.29 138.57,-125.99 147.27,-132.04 149.14,-125.29"/>
</a>
</g>
</g>
<!-- Node10 -->
<g id="Node000010" class="node">
<title>Node10</title>
<g id="a_Node000010"><a xlink:title=" ">
<polygon fill="#e0e0e0" stroke="#999999" points="216.94,-129 156.94,-129 156.94,-110 216.94,-110 216.94,-129"/>
<text text-anchor="middle" x="186.94" y="-117" font-family="Helvetica,sans-Serif" font-size="10.00">iostream</text>
</a>
</g>
</g>
<!-- Node6&#45;&gt;Node10 -->
<g id="edge9_Node000006_Node000010" class="edge">
<title>Node6&#45;&gt;Node10</title>
<g id="a_edge9_Node000006_Node000010"><a xlink:title=" ">
<path fill="none" stroke="#63b8ff" d="M318.71,-164.98C292.58,-156.16 251.54,-142.31 222.2,-132.41"/>
<polygon fill="#63b8ff" stroke="#63b8ff" points="222.95,-128.96 212.36,-129.08 220.71,-135.6 222.95,-128.96"/>
</a>
</g>
</g>
<!-- Node11 -->
<g id="Node000011" class="node">
<title>Node11</title>
<g id="a_Node000011"><a xlink:title=" ">
<polygon fill="#e0e0e0" stroke="#999999" points="278.94,-129 234.94,-129 234.94,-110 278.94,-110 278.94,-129"/>
<text text-anchor="middle" x="256.94" y="-117" font-family="Helvetica,sans-Serif" font-size="10.00">string</text>
</a>
</g>
</g>
<!-- Node6&#45;&gt;Node11 -->
<g id="edge10_Node000006_Node000011" class="edge">
<title>Node6&#45;&gt;Node11</title>
<g id="a_edge10_Node000006_Node000011"><a xlink:title=" ">
<path fill="none" stroke="#63b8ff" d="M329.96,-164.98C316.47,-156.77 295.8,-144.18 279.9,-134.49"/>
<polygon fill="#63b8ff" stroke="#63b8ff" points="281.53,-131.38 271.17,-129.17 277.89,-137.36 281.53,-131.38"/>
</a>
</g>
</g>
<!-- Node12 -->
<g id="Node000012" class="node">
<title>Node12</title>
<g id="a_Node000012"><a xlink:title=" ">
<polygon fill="#e0e0e0" stroke="#999999" points="390.44,-129 297.44,-129 297.44,-110 390.44,-110 390.44,-129"/>
<text text-anchor="middle" x="343.94" y="-117" font-family="Helvetica,sans-Serif" font-size="10.00">unordered_map</text>
</a>
</g>
</g>
<!-- Node6&#45;&gt;Node12 -->
<g id="edge11_Node000006_Node000012" class="edge">
<title>Node6&#45;&gt;Node12</title>
<g id="a_edge11_Node000006_Node000012"><a xlink:title=" ">
<path fill="none" stroke="#63b8ff" d="M343.94,-164.75C343.94,-157.8 343.94,-147.85 343.94,-139.13"/>
<polygon fill="#63b8ff" stroke="#63b8ff" points="347.44,-139.09 343.94,-129.09 340.44,-139.09 347.44,-139.09"/>
</a>
</g>
</g>
<!-- Node13 -->
<g id="Node000013" class="node">
<title>Node13</title>
<g id="a_Node000013"><a xlink:title=" ">
<polygon fill="#e0e0e0" stroke="#999999" points="494.94,-129 408.94,-129 408.94,-110 494.94,-110 494.94,-129"/>
<text text-anchor="middle" x="451.94" y="-117" font-family="Helvetica,sans-Serif" font-size="10.00">unordered_set</text>
</a>
</g>
</g>
<!-- Node6&#45;&gt;Node13 -->
<g id="edge12_Node000006_Node000013" class="edge">
<title>Node6&#45;&gt;Node13</title>
<g id="a_edge12_Node000006_Node000013"><a xlink:title=" ">
<path fill="none" stroke="#63b8ff" d="M361.29,-164.98C378.51,-156.54 405.13,-143.47 425.08,-133.68"/>
<polygon fill="#63b8ff" stroke="#63b8ff" points="426.83,-136.72 434.27,-129.17 423.75,-130.43 426.83,-136.72"/>
</a>
</g>
</g>
<!-- Node14 -->
<g id="Node000014" class="node">
<title>Node14</title>
<g id="a_Node000014"><a xlink:href="arena_8h.html" target="_top" xlink:title=" ">
<polygon fill="white" stroke="#666666" points="578.94,-129 512.94,-129 512.94,-110 578.94,-110 578.94,-129"/>
<text text-anchor="middle" x="545.94" y="-117" font-family="Helvetica,sans-Serif" font-size="10.00">fe/arena.h</text>
</a>
</g>
</g>
<!-- Node6&#45;&gt;Node14 -->
<g id="edge13_Node000006_Node000014" class="edge">
<title>Node6&#45;&gt;Node14</title>
<g id="a_edge13_Node000006_Node000014"><a xlink:title=" ">
<path fill="none" stroke="#63b8ff" d="M373.74,-165.68C408,-156.69 464.47,-141.87 503.35,-131.67"/>
<polygon fill="#63b8ff" stroke="#63b8ff" points="504.54,-134.98 513.33,-129.06 502.77,-128.21 504.54,-134.98"/>
</a>
</g>
</g>
<!-- Node15 -->
<g id="Node000015" class="node">
<title>Node15</title>
<g id="a_Node000015"><a xlink:title=" ">
<polygon fill="#e0e0e0" stroke="#999999" points="760.94,-74 696.94,-74 696.94,-55 760.94,-55 760.94,-74"/>
<text text-anchor="middle" x="728.94" y="-62" font-family="Helvetica,sans-Serif" font-size="10.00">algorithm</text>
</a>
</g>
</g>
<!-- Node14&#45;&gt;Node15 -->
<g id="edge14_Node000014_Node000015" class="edge">
<title>Node14&#45;&gt;Node15</title>
<g id="a_edge14_Node000014_Node000015"><a xlink:title=" ">
<path fill="none" stroke="#63b8ff" d="M575.34,-109.98C606.33,-101.01 655.31,-86.82 689.61,-76.89"/>
<polygon fill="#63b8ff" stroke="#63b8ff" points="690.67,-80.23 699.3,-74.08 688.73,-73.5 690.67,-80.23"/>
</a>
</g>
</g>
<!-- Node16 -->
<g id="Node000016" class="node">
<title>Node16</title>
<g id="a_Node000016"><a xlink:title=" ">
<polygon fill="#e0e0e0" stroke="#999999" points="273.94,-74 241.94,-74 241.94,-55 273.94,-55 273.94,-74"/>
<text text-anchor="middle" x="257.94" y="-62" font-family="Helvetica,sans-Serif" font-size="10.00">list</text>
</a>
</g>
</g>
<!-- Node14&#45;&gt;Node16 -->
<g id="edge15_Node000014_Node000016" class="edge">
<title>Node14&#45;&gt;Node16</title>
<g id="a_edge15_Node000014_Node000016"><a xlink:title=" ">
<path fill="none" stroke="#63b8ff" d="M512.49,-111.61C509.6,-111.05 506.72,-110.51 503.94,-110 409.19,-92.7 381.28,-97.74 283.92,-73.87"/>
<polygon fill="#63b8ff" stroke="#63b8ff" points="284.51,-70.41 273.96,-71.39 282.81,-77.2 284.51,-70.41"/>
</a>
</g>
</g>
<!-- Node17 -->
<g id="Node000017" class="node">
<title>Node17</title>
<g id="a_Node000017"><a xlink:title=" ">
<polygon fill="#e0e0e0" stroke="#999999" points="349.94,-74 291.94,-74 291.94,-55 349.94,-55 349.94,-74"/>
<text text-anchor="middle" x="320.94" y="-62" font-family="Helvetica,sans-Serif" font-size="10.00">memory</text>
</a>
</g>
</g>
<!-- Node14&#45;&gt;Node17 -->
<g id="edge16_Node000014_Node000017" class="edge">
<title>Node14&#45;&gt;Node17</title>
<g id="a_edge16_Node000014_Node000017"><a xlink:title=" ">
<path fill="none" stroke="#63b8ff" d="M512.74,-110.68C472,-101.08 403.03,-84.84 359.84,-74.66"/>
<polygon fill="#63b8ff" stroke="#63b8ff" points="360.51,-71.23 349.98,-72.34 358.91,-78.04 360.51,-71.23"/>
</a>
</g>
</g>
<!-- Node18 -->
<g id="Node000018" class="node">
<title>Node18</title>
<g id="a_Node000018"><a xlink:title=" ">
<polygon fill="#e0e0e0" stroke="#999999" points="473.44,-74 368.44,-74 368.44,-55 473.44,-55 473.44,-74"/>
<text text-anchor="middle" x="420.94" y="-62" font-family="Helvetica,sans-Serif" font-size="10.00">memory_resource</text>
</a>
</g>
</g>
<!-- Node14&#45;&gt;Node18 -->
<g id="edge17_Node000014_Node000018" class="edge">
<title>Node14&#45;&gt;Node18</title>
<g id="a_edge17_Node000014_Node000018"><a xlink:title=" ">
<path fill="none" stroke="#63b8ff" d="M525.85,-109.98C505.56,-101.38 473.98,-87.99 450.77,-78.15"/>
<polygon fill="#63b8ff" stroke="#63b8ff" points="451.96,-74.85 441.39,-74.17 449.23,-81.3 451.96,-74.85"/>
</a>
</g>
</g>
<!-- Node19 -->
<g id="Node000019" class="node">
<title>Node19</title>
<g id="a_Node000019"><a xlink:title=" ">
<polygon fill="#e0e0e0" stroke="#999999" points="528.44,-74 491.44,-74 491.44,-55 528.44,-55 528.44,-74"/>
<text text-anchor="middle" x="509.94" y="-62" font-family="Helvetica,sans-Serif" font-size="10.00">new</text>
</a>
</g>
</g>
<!-- Node14&#45;&gt;Node19 -->
<g id="edge18_Node000014_Node000019" class="edge">
<title>Node14&#45;&gt;Node19</title>
<g id="a_edge18_Node000014_Node000019"><a xlink:title=" ">
<path fill="none" stroke="#63b8ff" d="M539.99,-109.75C534.96,-102.34 527.6,-91.5 521.42,-82.41"/>
<polygon fill="#63b8ff" stroke="#63b8ff" points="524.28,-80.39 515.77,-74.09 518.49,-84.33 524.28,-80.39"/>
</a>
</g>
</g>
<!-- Node20 -->
<g id="Node000020" class="node">
<title>Node20</title>
<g id="a_Node000020"><a xlink:title=" ">
<polygon fill="#e0e0e0" stroke="#999999" points="615.44,-74 546.44,-74 546.44,-55 615.44,-55 615.44,-74"/>
<text text-anchor="middle" x="580.94" y="-62" font-family="Helvetica,sans-Serif" font-size="10.00">type_traits</text>
</a>
</g>
</g>
<!-- Node14&#45;&gt;Node20 -->
<g id="edge19_Node000014_Node000020" class="edge">
<title>Node14&#45;&gt;Node20</title>
<g id="a_edge19_Node000014_Node000020"><a xlink:title=" ">
<path fill="none" stroke="#63b8ff" d="M551.72,-109.75C556.56,-102.42 563.62,-91.73 569.58,-82.7"/>
<polygon fill="#63b8ff" stroke="#63b8ff" points="572.67,-84.36 575.26,-74.09 566.83,-80.5 572.67,-84.36"/>
</a>
</g>
</g>
<!-- Node21 -->
<g id="Node000021" class="node">
<title>Node21</title>
<g id="a_Node000021"><a xlink:title=" ">
<polygon fill="#e0e0e0" stroke="#999999" points="678.44,-74 633.44,-74 633.44,-55 678.44,-55 678.44,-74"/>
<text text-anchor="middle" x="655.94" y="-62" font-family="Helvetica,sans-Serif" font-size="10.00">utility</text>
</a>
</g>
</g>
<!-- Node14&#45;&gt;Node21 -->
<g id="edge20_Node000014_Node000021" class="edge">
<title>Node14&#45;&gt;Node21</title>
<g id="a_edge20_Node000014_Node000021"><a xlink:title=" ">
<path fill="none" stroke="#63b8ff" d="M563.61,-109.98C581.23,-101.5 608.51,-88.35 628.86,-78.54"/>
<polygon fill="#63b8ff" stroke="#63b8ff" points="630.45,-81.66 637.94,-74.17 627.41,-75.36 630.45,-81.66"/>
</a>
</g>
</g>
<!-- Node22 -->
<g id="Node000022" class="node">
<title>Node22</title>
<g id="a_Node000022"><a xlink:href="assert_8h.html" target="_top" xlink:title=" ">
<polygon fill="white" stroke="#666666" points="223.94,-74 155.94,-74 155.94,-55 223.94,-55 223.94,-74"/>
<text text-anchor="middle" x="189.94" y="-62" font-family="Helvetica,sans-Serif" font-size="10.00">fe/assert.h</text>
</a>
</g>
</g>
<!-- Node14&#45;&gt;Node22 -->
<g id="edge21_Node000014_Node000022" class="edge">
<title>Node14&#45;&gt;Node22</title>
<g id="a_edge21_Node000014_Node000022"><a xlink:title=" ">
<path fill="none" stroke="#63b8ff" d="M512.5,-111.52C509.61,-110.98 506.72,-110.47 503.94,-110 387.26,-90.47 354.53,-93.6 234.15,-74.1"/>
<polygon fill="#63b8ff" stroke="#63b8ff" points="234.6,-70.63 224.17,-72.47 233.47,-77.54 234.6,-70.63"/>
</a>
</g>
</g>
<!-- Node22&#45;&gt;Node7 -->
<g id="edge22_Node000022_Node000007" class="edge">
<title>Node22&#45;&gt;Node7</title>
<g id="a_edge22_Node000022_Node000007"><a xlink:title=" ">
<path fill="none" stroke="#63b8ff" d="M224.19,-56.65C227.15,-56.09 230.09,-55.53 232.94,-55 311.2,-40.47 403.19,-24.83 452.81,-16.51"/>
<polygon fill="#63b8ff" stroke="#63b8ff" points="453.45,-19.95 462.74,-14.85 452.29,-13.05 453.45,-19.95"/>
</a>
</g>
</g>
<!-- Node23&#45;&gt;Node22 -->
<g id="edge27_Node000023_Node000022" class="edge">
<title>Node23&#45;&gt;Node22</title>
<g id="a_edge27_Node000023_Node000022"><a xlink:title=" ">
<path fill="none" stroke="#63b8ff" d="M97.85,-222.12C64.83,-214.22 14.09,-199.85 2.94,-184 -1.92,-177.09 0.91,-173.2 2.94,-165 9.58,-138.18 10.45,-127.38 31.94,-110 64.37,-83.77 111.36,-72.99 145.66,-68.56"/>
<polygon fill="#63b8ff" stroke="#63b8ff" points="146.34,-72.01 155.87,-67.38 145.54,-65.05 146.34,-72.01"/>
</a>
</g>
</g>
<!-- Node24 -->
<g id="Node000024" class="node">
<title>Node24</title>
<g id="a_Node000024"><a xlink:title=" ">
<polygon fill="#e0e0e0" stroke="#999999" points="61.44,-184 12.44,-184 12.44,-165 61.44,-165 61.44,-184"/>
<text text-anchor="middle" x="36.94" y="-172" font-family="Helvetica,sans-Serif" font-size="10.00">cctype</text>
</a>
</g>
</g>
<!-- Node23&#45;&gt;Node24 -->
<g id="edge24_Node000023_Node000024" class="edge">
<title>Node23&#45;&gt;Node24</title>
<g id="a_edge24_Node000023_Node000024"><a xlink:title=" ">
<path fill="none" stroke="#63b8ff" d="M112.48,-219.98C98.52,-211.77 77.14,-199.18 60.69,-189.49"/>
<polygon fill="#63b8ff" stroke="#63b8ff" points="62.05,-186.23 51.66,-184.17 58.5,-192.26 62.05,-186.23"/>
</a>
</g>
</g>
<!-- Node25 -->
<g id="Node000025" class="node">
<title>Node25</title>
<g id="a_Node000025"><a xlink:title=" ">
<polygon fill="#e0e0e0" stroke="#999999" points="133.94,-184 79.94,-184 79.94,-165 133.94,-165 133.94,-184"/>
<text text-anchor="middle" x="106.94" y="-172" font-family="Helvetica,sans-Serif" font-size="10.00">istream</text>
</a>
</g>
</g>
<!-- Node23&#45;&gt;Node25 -->
<g id="edge25_Node000023_Node000025" class="edge">
<title>Node23&#45;&gt;Node25</title>
<g id="a_edge25_Node000023_Node000025"><a xlink:title=" ">
<path fill="none" stroke="#63b8ff" d="M123.63,-219.75C120.95,-212.65 117.09,-202.4 113.75,-193.56"/>
<polygon fill="#63b8ff" stroke="#63b8ff" points="116.98,-192.21 110.18,-184.09 110.43,-194.68 116.98,-192.21"/>
</a>
</g>
</g>
<!-- Node26 -->
<g id="Node000026" class="node">
<title>Node26</title>
<g id="a_Node000026"><a xlink:title=" ">
<polygon fill="#e0e0e0" stroke="#999999" points="209.44,-184 152.44,-184 152.44,-165 209.44,-165 209.44,-184"/>
<text text-anchor="middle" x="180.94" y="-172" font-family="Helvetica,sans-Serif" font-size="10.00">ostream</text>
</a>
</g>
</g>
<!-- Node23&#45;&gt;Node26 -->
<g id="edge26_Node000023_Node000026" class="edge">
<title>Node23&#45;&gt;Node26</title>
<g id="a_edge26_Node000023_Node000026"><a xlink:title=" ">
<path fill="none" stroke="#63b8ff" d="M135.85,-219.75C143.72,-212.03 155.37,-200.6 164.86,-191.28"/>
<polygon fill="#63b8ff" stroke="#63b8ff" points="167.5,-193.59 172.19,-184.09 162.6,-188.6 167.5,-193.59"/>
</a>
</g>
</g>
</g>
</svg>
