<?xml version="1.0" encoding="UTF-8" standalone="no"?>
<!DOCTYPE svg PUBLIC "-//W3C//DTD SVG 1.1//EN"
 "http://www.w3.org/Graphics/SVG/1.1/DTD/svg11.dtd">
<!-- Generated by graphviz version 2.43.0 (0)
 -->
<!-- Title: fe/loc.h Pages: 1 -->
<svg width="664pt" height="247pt"
 viewBox="0.00 0.00 663.84 247.00" xmlns="http://www.w3.org/2000/svg" xmlns:xlink="http://www.w3.org/1999/xlink">
<g id="graph0" class="graph" transform="scale(1 1) rotate(0) translate(4 243)">
<title>fe/loc.h</title>
<!-- Node1 -->
<g id="Node000001" class="node">
<title>Node1</title>
<g id="a_Node000001"><a xlink:title=" ">
<polygon fill="#999999" stroke="#666666" points="179.34,-239 126.34,-239 126.34,-220 179.34,-220 179.34,-239"/>
<text text-anchor="middle" x="152.84" y="-227" font-family="Helvetica,sans-Serif" font-size="10.00">fe/loc.h</text>
</a>
</g>
</g>
<!-- Node2 -->
<g id="Node000002" class="node">
<title>Node2</title>
<g id="a_Node000002"><a xlink:title=" ">
<polygon fill="#e0e0e0" stroke="#999999" points="145.84,-184 77.84,-184 77.84,-165 145.84,-165 145.84,-184"/>
<text text-anchor="middle" x="111.84" y="-172" font-family="Helvetica,sans-Serif" font-size="10.00">filesystem</text>
</a>
</g>
</g>
<!-- Node1&#45;&gt;Node2 -->
<g id="edge1_Node000001_Node000002" class="edge">
<title>Node1&#45;&gt;Node2</title>
<g id="a_edge1_Node000001_Node000002"><a xlink:title=" ">
<path fill="none" stroke="#63b8ff" d="M146.07,-219.75C140.28,-212.26 131.79,-201.28 124.71,-192.13"/>
<polygon fill="#63b8ff" stroke="#63b8ff" points="127.37,-189.86 118.49,-184.09 121.84,-194.14 127.37,-189.86"/>
</a>
</g>
</g>
<!-- Node3 -->
<g id="Node000003" class="node">
<title>Node3</title>
<g id="a_Node000003"><a xlink:href="sym_8h.html" target="_top" xlink:title=" ">
<polygon fill="white" stroke="#666666" points="223.34,-184 164.34,-184 164.34,-165 223.34,-165 223.34,-184"/>
<text text-anchor="middle" x="193.84" y="-172" font-family="Helvetica,sans-Serif" font-size="10.00">fe/sym.h</text>
</a>
</g>
</g>
<!-- Node1&#45;&gt;Node3 -->
<g id="edge2_Node000001_Node000003" class="edge">
<title>Node1&#45;&gt;Node3</title>
<g id="a_edge2_Node000001_Node000003"><a xlink:title=" ">
<path fill="none" stroke="#63b8ff" d="M159.61,-219.75C165.41,-212.26 173.9,-201.28 180.98,-192.13"/>
<polygon fill="#63b8ff" stroke="#63b8ff" points="183.85,-194.14 187.2,-184.09 178.31,-189.86 183.85,-194.14"/>
</a>
</g>
</g>
<!-- Node4 -->
<g id="Node000004" class="node">
<title>Node4</title>
<g id="a_Node000004"><a xlink:title=" ">
<polygon fill="#e0e0e0" stroke="#999999" points="312.84,-19 260.84,-19 260.84,0 312.84,0 312.84,-19"/>
<text text-anchor="middle" x="286.84" y="-7" font-family="Helvetica,sans-Serif" font-size="10.00">cassert</text>
</a>
</g>
</g>
<!-- Node3&#45;&gt;Node4 -->
<g id="edge3_Node000003_Node000004" class="edge">
<title>Node3&#45;&gt;Node4</title>
<g id="a_edge3_Node000003_Node000004"><a xlink:title=" ">
<path fill="none" stroke="#63b8ff" d="M164.22,-167.05C111.43,-155.5 6.36,-132.18 3.84,-129 -1.4,-122.38 -1.04,-116.89 3.84,-110 60.76,-29.65 187.96,-13.71 250.59,-10.87"/>
<polygon fill="#63b8ff" stroke="#63b8ff" points="250.92,-14.36 260.79,-10.5 250.66,-7.37 250.92,-14.36"/>
</a>
</g>
</g>
<!-- Node5 -->
<g id="Node000005" class="node">
<title>Node5</title>
<g id="a_Node000005"><a xlink:title=" ">
<polygon fill="#e0e0e0" stroke="#999999" points="62.84,-129 12.84,-129 12.84,-110 62.84,-110 62.84,-129"/>
<text text-anchor="middle" x="37.84" y="-117" font-family="Helvetica,sans-Serif" font-size="10.00">cstring</text>
</a>
</g>
</g>
<!-- Node3&#45;&gt;Node5 -->
<g id="edge4_Node000003_Node000005" class="edge">
<title>Node3&#45;&gt;Node5</title>
<g id="a_edge4_Node000003_Node000005"><a xlink:title=" ">
<path fill="none" stroke="#63b8ff" d="M168.78,-164.98C142.74,-156.14 101.79,-142.23 72.63,-132.32"/>
<polygon fill="#63b8ff" stroke="#63b8ff" points="73.44,-128.9 62.85,-128.99 71.19,-135.53 73.44,-128.9"/>
</a>
</g>
</g>
<!-- Node6 -->
<g id="Node000006" class="node">
<title>Node6</title>
<g id="a_Node000006"><a xlink:title=" ">
<polygon fill="#e0e0e0" stroke="#999999" points="110.34,-129 81.34,-129 81.34,-110 110.34,-110 110.34,-129"/>
<text text-anchor="middle" x="95.84" y="-117" font-family="Helvetica,sans-Serif" font-size="10.00">bit</text>
</a>
</g>
</g>
<!-- Node3&#45;&gt;Node6 -->
<g id="edge5_Node000003_Node000006" class="edge">
<title>Node3&#45;&gt;Node6</title>
<g id="a_edge5_Node000003_Node000006"><a xlink:title=" ">
<path fill="none" stroke="#63b8ff" d="M178.1,-164.98C162.25,-156.41 137.61,-143.09 119.43,-133.25"/>
<polygon fill="#63b8ff" stroke="#63b8ff" points="121.05,-130.15 110.59,-128.47 117.72,-136.31 121.05,-130.15"/>
</a>
</g>
</g>
<!-- Node7 -->
<g id="Node000007" class="node">
<title>Node7</title>
<g id="a_Node000007"><a xlink:title=" ">
<polygon fill="#e0e0e0" stroke="#999999" points="188.84,-129 128.84,-129 128.84,-110 188.84,-110 188.84,-129"/>
<text text-anchor="middle" x="158.84" y="-117" font-family="Helvetica,sans-Serif" font-size="10.00">iostream</text>
</a>
</g>
</g>
<!-- Node3&#45;&gt;Node7 -->
<g id="edge6_Node000003_Node000007" class="edge">
<title>Node3&#45;&gt;Node7</title>
<g id="a_edge6_Node000003_Node000007"><a xlink:title=" ">
<path fill="none" stroke="#63b8ff" d="M188.06,-164.75C183.22,-157.42 176.16,-146.73 170.2,-137.7"/>
<polygon fill="#63b8ff" stroke="#63b8ff" points="172.95,-135.5 164.52,-129.09 167.11,-139.36 172.95,-135.5"/>
</a>
</g>
</g>
<!-- Node8 -->
<g id="Node000008" class="node">
<title>Node8</title>
<g id="a_Node000008"><a xlink:title=" ">
<polygon fill="#e0e0e0" stroke="#999999" points="250.84,-129 206.84,-129 206.84,-110 250.84,-110 250.84,-129"/>
<text text-anchor="middle" x="228.84" y="-117" font-family="Helvetica,sans-Serif" font-size="10.00">string</text>
</a>
</g>
</g>
<!-- Node3&#45;&gt;Node8 -->
<g id="edge7_Node000003_Node000008" class="edge">
<title>Node3&#45;&gt;Node8</title>
<g id="a_edge7_Node000003_Node000008"><a xlink:title=" ">
<path fill="none" stroke="#63b8ff" d="M199.62,-164.75C204.46,-157.42 211.52,-146.73 217.49,-137.7"/>
<polygon fill="#63b8ff" stroke="#63b8ff" points="220.58,-139.36 223.17,-129.09 214.74,-135.5 220.58,-139.36"/>
</a>
</g>
</g>
<!-- Node9 -->
<g id="Node000009" class="node">
<title>Node9</title>
<g id="a_Node000009"><a xlink:title=" ">
<polygon fill="#e0e0e0" stroke="#999999" points="362.34,-129 269.34,-129 269.34,-110 362.34,-110 362.34,-129"/>
<text text-anchor="middle" x="315.84" y="-117" font-family="Helvetica,sans-Serif" font-size="10.00">unordered_map</text>
</a>
</g>
</g>
<!-- Node3&#45;&gt;Node9 -->
<g id="edge8_Node000003_Node000009" class="edge">
<title>Node3&#45;&gt;Node9</title>
<g id="a_edge8_Node000003_Node000009"><a xlink:title=" ">
<path fill="none" stroke="#63b8ff" d="M213.44,-164.98C233.16,-156.42 263.8,-143.11 286.43,-133.28"/>
<polygon fill="#63b8ff" stroke="#63b8ff" points="288.11,-136.37 295.89,-129.17 285.32,-129.94 288.11,-136.37"/>
</a>
</g>
</g>
<!-- Node10 -->
<g id="Node000010" class="node">
<title>Node10</title>
<g id="a_Node000010"><a xlink:title=" ">
<polygon fill="#e0e0e0" stroke="#999999" points="466.84,-129 380.84,-129 380.84,-110 466.84,-110 466.84,-129"/>
<text text-anchor="middle" x="423.84" y="-117" font-family="Helvetica,sans-Serif" font-size="10.00">unordered_set</text>
</a>
</g>
</g>
<!-- Node3&#45;&gt;Node10 -->
<g id="edge9_Node000003_Node000010" class="edge">
<title>Node3&#45;&gt;Node10</title>
<g id="a_edge9_Node000003_Node000010"><a xlink:title=" ">
<path fill="none" stroke="#63b8ff" d="M223.44,-166.68C262.24,-157.74 330.76,-141.95 376.73,-131.36"/>
<polygon fill="#63b8ff" stroke="#63b8ff" points="377.8,-134.7 386.75,-129.05 376.22,-127.88 377.8,-134.7"/>
</a>
</g>
</g>
<!-- Node11 -->
<g id="Node000011" class="node">
<title>Node11</title>
<g id="a_Node000011"><a xlink:href="arena_8h.html" target="_top" xlink:title=" ">
<polygon fill="white" stroke="#666666" points="550.84,-129 484.84,-129 484.84,-110 550.84,-110 550.84,-129"/>
<text text-anchor="middle" x="517.84" y="-117" font-family="Helvetica,sans-Serif" font-size="10.00">fe/arena.h</text>
</a>
</g>
</g>
<!-- Node3&#45;&gt;Node11 -->
<g id="edge10_Node000003_Node000011" class="edge">
<title>Node3&#45;&gt;Node11</title>
<g id="a_edge10_Node000003_Node000011"><a xlink:title=" ">
<path fill="none" stroke="#63b8ff" d="M223.55,-169.24C273.33,-162.02 376.96,-146.58 474.38,-129.2"/>
<polygon fill="#63b8ff" stroke="#63b8ff" points="475.17,-132.62 484.4,-127.4 473.94,-125.73 475.17,-132.62"/>
</a>
</g>
</g>
<!-- Node12 -->
<g id="Node000012" class="node">
<title>Node12</title>
<g id="a_Node000012"><a xlink:title=" ">
<polygon fill="#e0e0e0" stroke="#999999" points="387.84,-74 323.84,-74 323.84,-55 387.84,-55 387.84,-74"/>
<text text-anchor="middle" x="355.84" y="-62" font-family="Helvetica,sans-Serif" font-size="10.00">algorithm</text>
</a>
</g>
</g>
<!-- Node11&#45;&gt;Node12 -->
<g id="edge11_Node000011_Node000012" class="edge">
<title>Node11&#45;&gt;Node12</title>
<g id="a_edge11_Node000011_Node000012"><a xlink:title=" ">
<path fill="none" stroke="#63b8ff" d="M491.82,-109.98C464.74,-101.13 422.13,-87.19 391.84,-77.28"/>
<polygon fill="#63b8ff" stroke="#63b8ff" points="392.67,-73.87 382.08,-74.08 390.49,-80.52 392.67,-73.87"/>
</a>
</g>
</g>
<!-- Node13 -->
<g id="Node000013" class="node">
<title>Node13</title>
<g id="a_Node000013"><a xlink:title=" ">
<polygon fill="#e0e0e0" stroke="#999999" points="437.84,-74 405.84,-74 405.84,-55 437.84,-55 437.84,-74"/>
<text text-anchor="middle" x="421.84" y="-62" font-family="Helvetica,sans-Serif" font-size="10.00">list</text>
</a>
</g>
</g>
<!-- Node11&#45;&gt;Node13 -->
<g id="edge12_Node000011_Node000013" class="edge">
<title>Node11&#45;&gt;Node13</title>
<g id="a_edge12_Node000011_Node000013"><a xlink:title=" ">
<path fill="none" stroke="#63b8ff" d="M502.42,-109.98C487.39,-101.69 464.3,-88.94 446.69,-79.22"/>
<polygon fill="#63b8ff" stroke="#63b8ff" points="447.99,-75.94 437.55,-74.17 444.61,-82.07 447.99,-75.94"/>
</a>
</g>
</g>
<!-- Node14 -->
<g id="Node000014" class="node">
<title>Node14</title>
<g id="a_Node000014"><a xlink:title=" ">
<polygon fill="#e0e0e0" stroke="#999999" points="513.84,-74 455.84,-74 455.84,-55 513.84,-55 513.84,-74"/>
<text text-anchor="middle" x="484.84" y="-62" font-family="Helvetica,sans-Serif" font-size="10.00">memory</text>
</a>
</g>
</g>
<!-- Node11&#45;&gt;Node14 -->
<g id="edge13_Node000011_Node000014" class="edge">
<title>Node11&#45;&gt;Node14</title>
<g id="a_edge13_Node000011_Node000014"><a xlink:title=" ">
<path fill="none" stroke="#63b8ff" d="M512.39,-109.75C507.83,-102.42 501.18,-91.73 495.55,-82.7"/>
<polygon fill="#63b8ff" stroke="#63b8ff" points="498.45,-80.73 490.19,-74.09 492.51,-84.43 498.45,-80.73"/>
</a>
</g>
</g>
<!-- Node15 -->
<g id="Node000015" class="node">
<title>Node15</title>
<g id="a_Node000015"><a xlink:title=" ">
<polygon fill="#e0e0e0" stroke="#999999" points="569.34,-74 532.34,-74 532.34,-55 569.34,-55 569.34,-74"/>
<text text-anchor="middle" x="550.84" y="-62" font-family="Helvetica,sans-Serif" font-size="10.00">new</text>
</a>
</g>
</g>
<!-- Node11&#45;&gt;Node15 -->
<g id="edge14_Node000011_Node000015" class="edge">
<title>Node11&#45;&gt;Node15</title>
<g id="a_edge14_Node000011_Node000015"><a xlink:title=" ">
<path fill="none" stroke="#63b8ff" d="M523.29,-109.75C527.86,-102.42 534.51,-91.73 540.14,-82.7"/>
<polygon fill="#63b8ff" stroke="#63b8ff" points="543.18,-84.43 545.5,-74.09 537.24,-80.73 543.18,-84.43"/>
</a>
</g>
</g>
<!-- Node16 -->
<g id="Node000016" class="node">
<title>Node16</title>
<g id="a_Node000016"><a xlink:href="assert_8h.html" target="_top" xlink:title=" ">
<polygon fill="white" stroke="#666666" points="655.84,-74 587.84,-74 587.84,-55 655.84,-55 655.84,-74"/>
<text text-anchor="middle" x="621.84" y="-62" font-family="Helvetica,sans-Serif" font-size="10.00">fe/assert.h</text>
</a>
</g>
</g>
<!-- Node11&#45;&gt;Node16 -->
<g id="edge15_Node000011_Node000016" class="edge">
<title>Node11&#45;&gt;Node16</title>
<g id="a_edge15_Node000011_Node000016"><a xlink:title=" ">
<path fill="none" stroke="#63b8ff" d="M534.55,-109.98C551.06,-101.57 576.54,-88.59 595.72,-78.81"/>
<polygon fill="#63b8ff" stroke="#63b8ff" points="597.51,-81.83 604.83,-74.17 594.33,-75.59 597.51,-81.83"/>
</a>
</g>
</g>
<!-- Node16&#45;&gt;Node4 -->
<g id="edge16_Node000016_Node000004" class="edge">
<title>Node16&#45;&gt;Node4</title>
<g id="a_edge16_Node000016_Node000004"><a xlink:title=" ">
<path fill="none" stroke="#63b8ff" d="M587.6,-56.59C584.64,-56.04 581.69,-55.5 578.84,-55 487.02,-38.94 378.37,-23.25 323.09,-15.5"/>
<polygon fill="#63b8ff" stroke="#63b8ff" points="323.47,-12.02 313.08,-14.1 322.5,-18.95 323.47,-12.02"/>
</a>
</g>
</g>
</g>
</svg>
