<?xml version="1.0" encoding="UTF-8" standalone="no"?>
<!DOCTYPE svg PUBLIC "-//W3C//DTD SVG 1.1//EN"
 "http://www.w3.org/Graphics/SVG/1.1/DTD/svg11.dtd">
<!-- Generated by graphviz version 2.43.0 (0)
 -->
<!-- Title: fe/loc.cpp.h Pages: 1 -->
<!--zoomable 357 -->

<svg id="main" version="1.1" xmlns="http://www.w3.org/2000/svg" xmlns:xlink="http://www.w3.org/1999/xlink" xml:space="preserve" onload="init(evt)">
<style type="text/css"><![CDATA[
.node, .edge {opacity: 0.7;}
.node.selected, .edge.selected {opacity: 1;}
.edge:hover path { stroke: red; }
.edge:hover polygon { stroke: red; fill: red; }
]]></style>

<defs>
  <circle id="rim" cx="0" cy="0" r="7"/>
  <circle id="rim2" cx="0" cy="0" r="3.5"/>
  <g id="zoomPlus">
    <use xlink:href="#rim" fill="#404040"><set attributeName="fill" to="#808080" begin="zoomplus.mouseover" end="zoomplus.mouseout"/></use>
    <path d="M-4,0h8M0,-4v8" fill="none" stroke="white" stroke-width="1.5" pointer-events="none"/>
  </g>
  <g id="zoomMin">
    <use xlink:href="#rim" fill="#404040"><set attributeName="fill" to="#808080" begin="zoomminus.mouseover" end="zoomminus.mouseout"/></use>
    <path d="M-4,0h8" fill="none" stroke="white" stroke-width="1.5" pointer-events="none"/>
  </g>
  <g id="arrowUp" transform="translate(30 24)">
    <use xlink:href="#rim"/>
    <path pointer-events="none" fill="none" stroke="white" stroke-width="1.5" d="M0,-3.0v7 M-2.5,-0.5L0,-3.0L2.5,-0.5"/>
  </g>
  <g id="arrowRight" transform="rotate(90) translate(36 -43)">
    <use xlink:href="#rim"/>
    <path pointer-events="none" fill="none" stroke="white" stroke-width="1.5" d="M0,-3.0v7 M-2.5,-0.5L0,-3.0L2.5,-0.5"/>
  </g>
  <g id="arrowDown" transform="rotate(180) translate(-30 -48)">
    <use xlink:href="#rim"/>
    <path pointer-events="none" fill="none" stroke="white" stroke-width="1.5" d="M0,-3.0v7 M-2.5,-0.5L0,-3.0L2.5,-0.5"/>
  </g>
  <g id="arrowLeft" transform="rotate(270) translate(-36 17)">
    <use xlink:href="#rim"/>
    <path pointer-events="none" fill="none" stroke="white" stroke-width="1.5" d="M0,-3.0v7 M-2.5,-0.5L0,-3.0L2.5,-0.5"/>
  </g>
  <g id="resetDef">
    <use xlink:href="#rim2" fill="#404040"><set attributeName="fill" to="#808080" begin="reset.mouseover" end="reset.mouseout"/></use>
  </g>
</defs>
<script type="application/ecmascript">
var viewWidth = 645;
var viewHeight = 357;
var sectionId = 'dynsection-0';
</script>
<script type="application/ecmascript" xlink:href="svg.min.js"/>
<svg id="graph" class="graph">
<g id="viewport">
<title>fe/loc.cpp.h</title>
<!-- Node1 -->
<g id="Node000001" class="node">
<title>Node1</title>
<g id="a_Node000001"><a xlink:title=" ">
<polygon fill="#999999" stroke="#666666" points="202.89,-349 129.89,-349 129.89,-330 202.89,-330 202.89,-349"/>
<text text-anchor="middle" x="166.39" y="-337" font-family="Helvetica,sans-Serif" font-size="10.00">fe/loc.cpp.h</text>
</a>
</g>
</g>
<!-- Node2 -->
<g id="Node000002" class="node">
<title>Node2</title>
<g id="a_Node000002"><a xlink:href="format_8h.html" target="_top" xlink:title=" ">
<polygon fill="white" stroke="#666666" points="169.89,-294 98.89,-294 98.89,-275 169.89,-275 169.89,-294"/>
<text text-anchor="middle" x="134.39" y="-282" font-family="Helvetica,sans-Serif" font-size="10.00">fe/format.h</text>
</a>
</g>
</g>
<!-- Node1&#45;&gt;Node2 -->
<g id="edge1_Node000001_Node000002" class="edge">
<title>Node1&#45;&gt;Node2</title>
<g id="a_edge1_Node000001_Node000002"><a xlink:title=" ">
<path fill="none" stroke="#63b8ff" d="M161.11,-329.75C156.68,-322.42 150.23,-311.73 144.77,-302.7"/>
<polygon fill="#63b8ff" stroke="#63b8ff" points="147.74,-300.84 139.58,-294.09 141.75,-304.46 147.74,-300.84"/>
</a>
</g>
</g>
<!-- Node4 -->
<g id="Node000004" class="node">
<title>Node4</title>
<g id="a_Node000004"><a xlink:href="loc_8h.html" target="_top" xlink:title=" ">
<polygon fill="white" stroke="#666666" points="269.89,-239 216.89,-239 216.89,-220 269.89,-220 269.89,-239"/>
<text text-anchor="middle" x="243.39" y="-227" font-family="Helvetica,sans-Serif" font-size="10.00">fe/loc.h</text>
</a>
</g>
</g>
<!-- Node1&#45;&gt;Node4 -->
<g id="edge24_Node000001_Node000004" class="edge">
<title>Node1&#45;&gt;Node4</title>
<g id="a_edge24_Node000001_Node000004"><a xlink:title=" ">
<path fill="none" stroke="#63b8ff" d="M172.69,-329.66C185.5,-311.69 214.77,-270.64 231.35,-247.38"/>
<polygon fill="#63b8ff" stroke="#63b8ff" points="234.26,-249.33 237.22,-239.16 228.56,-245.27 234.26,-249.33"/>
</a>
</g>
</g>
<!-- Node3 -->
<g id="Node000003" class="node">
<title>Node3</title>
<g id="a_Node000003"><a xlink:title=" ">
<polygon fill="#e0e0e0" stroke="#999999" points="82.89,-239 3.89,-239 3.89,-220 82.89,-220 82.89,-239"/>
<text text-anchor="middle" x="43.39" y="-227" font-family="Helvetica,sans-Serif" font-size="10.00">fmt/format.h</text>
</a>
</g>
</g>
<!-- Node2&#45;&gt;Node3 -->
<g id="edge2_Node000002_Node000003" class="edge">
<title>Node2&#45;&gt;Node3</title>
<g id="a_edge2_Node000002_Node000003"><a xlink:title=" ">
<path fill="none" stroke="#63b8ff" d="M119.77,-274.98C105.53,-266.69 83.64,-253.94 66.94,-244.22"/>
<polygon fill="#63b8ff" stroke="#63b8ff" points="68.68,-241.18 58.28,-239.17 65.16,-247.23 68.68,-241.18"/>
</a>
</g>
</g>
<!-- Node2&#45;&gt;Node4 -->
<g id="edge3_Node000002_Node000004" class="edge">
<title>Node2&#45;&gt;Node4</title>
<g id="a_edge3_Node000002_Node000004"><a xlink:title=" ">
<path fill="none" stroke="#63b8ff" d="M151.9,-274.98C169.36,-266.5 196.4,-253.35 216.56,-243.54"/>
<polygon fill="#63b8ff" stroke="#63b8ff" points="218.1,-246.69 225.56,-239.17 215.04,-240.4 218.1,-246.69"/>
</a>
</g>
</g>
<!-- Node19 -->
<g id="Node000019" class="node">
<title>Node19</title>
<g id="a_Node000019"><a xlink:href="utf8_8h.html" target="_top" xlink:title=" ">
<polygon fill="white" stroke="#666666" points="158.39,-239 100.39,-239 100.39,-220 158.39,-220 158.39,-239"/>
<text text-anchor="middle" x="129.39" y="-227" font-family="Helvetica,sans-Serif" font-size="10.00">fe/utf8.h</text>
</a>
</g>
</g>
<!-- Node2&#45;&gt;Node19 -->
<g id="edge19_Node000002_Node000019" class="edge">
<title>Node2&#45;&gt;Node19</title>
<g id="a_edge19_Node000002_Node000019"><a xlink:title=" ">
<path fill="none" stroke="#63b8ff" d="M133.56,-274.75C132.91,-267.8 131.97,-257.85 131.15,-249.13"/>
<polygon fill="#63b8ff" stroke="#63b8ff" points="134.62,-248.72 130.2,-239.09 127.66,-249.37 134.62,-248.72"/>
</a>
</g>
</g>
<!-- Node5 -->
<g id="Node000005" class="node">
<title>Node5</title>
<g id="a_Node000005"><a xlink:title=" ">
<polygon fill="#e0e0e0" stroke="#999999" points="298.39,-184 230.39,-184 230.39,-165 298.39,-165 298.39,-184"/>
<text text-anchor="middle" x="264.39" y="-172" font-family="Helvetica,sans-Serif" font-size="10.00">filesystem</text>
</a>
</g>
</g>
<!-- Node4&#45;&gt;Node5 -->
<g id="edge4_Node000004_Node000005" class="edge">
<title>Node4&#45;&gt;Node5</title>
<g id="a_edge4_Node000004_Node000005"><a xlink:title=" ">
<path fill="none" stroke="#63b8ff" d="M246.86,-219.75C249.67,-212.65 253.73,-202.4 257.24,-193.56"/>
<polygon fill="#63b8ff" stroke="#63b8ff" points="260.56,-194.68 260.99,-184.09 254.05,-192.1 260.56,-194.68"/>
</a>
</g>
</g>
<!-- Node6 -->
<g id="Node000006" class="node">
<title>Node6</title>
<g id="a_Node000006"><a xlink:href="sym_8h.html" target="_top" xlink:title=" ">
<polygon fill="white" stroke="#666666" points="375.89,-184 316.89,-184 316.89,-165 375.89,-165 375.89,-184"/>
<text text-anchor="middle" x="346.39" y="-172" font-family="Helvetica,sans-Serif" font-size="10.00">fe/sym.h</text>
</a>
</g>
</g>
<!-- Node4&#45;&gt;Node6 -->
<g id="edge5_Node000004_Node000006" class="edge">
<title>Node4&#45;&gt;Node6</title>
<g id="a_edge5_Node000004_Node000006"><a xlink:title=" ">
<path fill="none" stroke="#63b8ff" d="M259.94,-219.98C276.28,-211.57 301.52,-198.59 320.52,-188.81"/>
<polygon fill="#63b8ff" stroke="#63b8ff" points="322.25,-191.86 329.54,-184.17 319.05,-185.63 322.25,-191.86"/>
</a>
</g>
</g>
<!-- Node7 -->
<g id="Node000007" class="node">
<title>Node7</title>
<g id="a_Node000007"><a xlink:title=" ">
<polygon fill="#e0e0e0" stroke="#999999" points="539.39,-19 487.39,-19 487.39,0 539.39,0 539.39,-19"/>
<text text-anchor="middle" x="513.39" y="-7" font-family="Helvetica,sans-Serif" font-size="10.00">cassert</text>
</a>
</g>
</g>
<!-- Node6&#45;&gt;Node7 -->
<g id="edge6_Node000006_Node000007" class="edge">
<title>Node6&#45;&gt;Node7</title>
<g id="a_edge6_Node000006_Node000007"><a xlink:title=" ">
<path fill="none" stroke="#63b8ff" d="M376.19,-170.88C433.2,-165.43 555.16,-151.44 590.39,-129 621.75,-109.03 650.45,-85.64 629.39,-55 611.7,-29.27 576.92,-18.41 550.03,-13.83"/>
<polygon fill="#63b8ff" stroke="#63b8ff" points="550.21,-10.32 539.8,-12.32 549.18,-17.24 550.21,-10.32"/>
</a>
</g>
</g>
<!-- Node8 -->
<g id="Node000008" class="node">
<title>Node8</title>
<g id="a_Node000008"><a xlink:title=" ">
<polygon fill="#e0e0e0" stroke="#999999" points="93.39,-129 43.39,-129 43.39,-110 93.39,-110 93.39,-129"/>
<text text-anchor="middle" x="68.39" y="-117" font-family="Helvetica,sans-Serif" font-size="10.00">cstring</text>
</a>
</g>
</g>
<!-- Node6&#45;&gt;Node8 -->
<g id="edge7_Node000006_Node000008" class="edge">
<title>Node6&#45;&gt;Node8</title>
<g id="a_edge7_Node000006_Node000008"><a xlink:title=" ">
<path fill="none" stroke="#63b8ff" d="M316.61,-166.88C313.5,-166.23 310.38,-165.59 307.39,-165 219.73,-147.76 194.58,-148.18 103.52,-129.11"/>
<polygon fill="#63b8ff" stroke="#63b8ff" points="104.1,-125.66 93.59,-127.01 102.65,-132.51 104.1,-125.66"/>
</a>
</g>
</g>
<!-- Node9 -->
<g id="Node000009" class="node">
<title>Node9</title>
<g id="a_Node000009"><a xlink:title=" ">
<polygon fill="#e0e0e0" stroke="#999999" points="140.89,-129 111.89,-129 111.89,-110 140.89,-110 140.89,-129"/>
<text text-anchor="middle" x="126.39" y="-117" font-family="Helvetica,sans-Serif" font-size="10.00">bit</text>
</a>
</g>
</g>
<!-- Node6&#45;&gt;Node9 -->
<g id="edge8_Node000006_Node000009" class="edge">
<title>Node6&#45;&gt;Node9</title>
<g id="a_edge8_Node000006_Node000009"><a xlink:title=" ">
<path fill="none" stroke="#63b8ff" d="M316.8,-166.98C271.19,-156.91 186.03,-137.99 150.89,-128.73"/>
<polygon fill="#63b8ff" stroke="#63b8ff" points="151.6,-125.29 141.03,-125.99 149.72,-132.04 151.6,-125.29"/>
</a>
</g>
</g>
<!-- Node10 -->
<g id="Node000010" class="node">
<title>Node10</title>
<g id="a_Node000010"><a xlink:title=" ">
<polygon fill="#e0e0e0" stroke="#999999" points="219.39,-129 159.39,-129 159.39,-110 219.39,-110 219.39,-129"/>
<text text-anchor="middle" x="189.39" y="-117" font-family="Helvetica,sans-Serif" font-size="10.00">iostream</text>
</a>
</g>
</g>
<!-- Node6&#45;&gt;Node10 -->
<g id="edge9_Node000006_Node000010" class="edge">
<title>Node6&#45;&gt;Node10</title>
<g id="a_edge9_Node000006_Node000010"><a xlink:title=" ">
<path fill="none" stroke="#63b8ff" d="M321.17,-164.98C295.04,-156.16 253.99,-142.31 224.66,-132.41"/>
<polygon fill="#63b8ff" stroke="#63b8ff" points="225.41,-128.96 214.81,-129.08 223.17,-135.6 225.41,-128.96"/>
</a>
</g>
</g>
<!-- Node11 -->
<g id="Node000011" class="node">
<title>Node11</title>
<g id="a_Node000011"><a xlink:title=" ">
<polygon fill="#e0e0e0" stroke="#999999" points="281.39,-129 237.39,-129 237.39,-110 281.39,-110 281.39,-129"/>
<text text-anchor="middle" x="259.39" y="-117" font-family="Helvetica,sans-Serif" font-size="10.00">string</text>
</a>
</g>
</g>
<!-- Node6&#45;&gt;Node11 -->
<g id="edge10_Node000006_Node000011" class="edge">
<title>Node6&#45;&gt;Node11</title>
<g id="a_edge10_Node000006_Node000011"><a xlink:title=" ">
<path fill="none" stroke="#63b8ff" d="M332.41,-164.98C318.92,-156.77 298.26,-144.18 282.35,-134.49"/>
<polygon fill="#63b8ff" stroke="#63b8ff" points="283.98,-131.38 273.62,-129.17 280.34,-137.36 283.98,-131.38"/>
</a>
</g>
</g>
<!-- Node12 -->
<g id="Node000012" class="node">
<title>Node12</title>
<g id="a_Node000012"><a xlink:title=" ">
<polygon fill="#e0e0e0" stroke="#999999" points="392.89,-129 299.89,-129 299.89,-110 392.89,-110 392.89,-129"/>
<text text-anchor="middle" x="346.39" y="-117" font-family="Helvetica,sans-Serif" font-size="10.00">unordered_map</text>
</a>
</g>
</g>
<!-- Node6&#45;&gt;Node12 -->
<g id="edge11_Node000006_Node000012" class="edge">
<title>Node6&#45;&gt;Node12</title>
<g id="a_edge11_Node000006_Node000012"><a xlink:title=" ">
<path fill="none" stroke="#63b8ff" d="M346.39,-164.75C346.39,-157.8 346.39,-147.85 346.39,-139.13"/>
<polygon fill="#63b8ff" stroke="#63b8ff" points="349.89,-139.09 346.39,-129.09 342.89,-139.09 349.89,-139.09"/>
</a>
</g>
</g>
<!-- Node13 -->
<g id="Node000013" class="node">
<title>Node13</title>
<g id="a_Node000013"><a xlink:title=" ">
<polygon fill="#e0e0e0" stroke="#999999" points="497.39,-129 411.39,-129 411.39,-110 497.39,-110 497.39,-129"/>
<text text-anchor="middle" x="454.39" y="-117" font-family="Helvetica,sans-Serif" font-size="10.00">unordered_set</text>
</a>
</g>
</g>
<!-- Node6&#45;&gt;Node13 -->
<g id="edge12_Node000006_Node000013" class="edge">
<title>Node6&#45;&gt;Node13</title>
<g id="a_edge12_Node000006_Node000013"><a xlink:title=" ">
<path fill="none" stroke="#63b8ff" d="M363.74,-164.98C380.96,-156.54 407.59,-143.47 427.54,-133.68"/>
<polygon fill="#63b8ff" stroke="#63b8ff" points="429.29,-136.72 436.72,-129.17 426.2,-130.43 429.29,-136.72"/>
</a>
</g>
</g>
<!-- Node14 -->
<g id="Node000014" class="node">
<title>Node14</title>
<g id="a_Node000014"><a xlink:href="arena_8h.html" target="_top" xlink:title=" ">
<polygon fill="white" stroke="#666666" points="581.39,-129 515.39,-129 515.39,-110 581.39,-110 581.39,-129"/>
<text text-anchor="middle" x="548.39" y="-117" font-family="Helvetica,sans-Serif" font-size="10.00">fe/arena.h</text>
</a>
</g>
</g>
<!-- Node6&#45;&gt;Node14 -->
<g id="edge13_Node000006_Node000014" class="edge">
<title>Node6&#45;&gt;Node14</title>
<g id="a_edge13_Node000006_Node000014"><a xlink:title=" ">
<path fill="none" stroke="#63b8ff" d="M376.2,-165.68C410.45,-156.69 466.93,-141.87 505.81,-131.67"/>
<polygon fill="#63b8ff" stroke="#63b8ff" points="507,-134.98 515.78,-129.06 505.22,-128.21 507,-134.98"/>
</a>
</g>
</g>
<!-- Node15 -->
<g id="Node000015" class="node">
<title>Node15</title>
<g id="a_Node000015"><a xlink:title=" ">
<polygon fill="#e0e0e0" stroke="#999999" points="620.39,-74 556.39,-74 556.39,-55 620.39,-55 620.39,-74"/>
<text text-anchor="middle" x="588.39" y="-62" font-family="Helvetica,sans-Serif" font-size="10.00">algorithm</text>
</a>
</g>
</g>
<!-- Node14&#45;&gt;Node15 -->
<g id="edge14_Node000014_Node000015" class="edge">
<title>Node14&#45;&gt;Node15</title>
<g id="a_edge14_Node000014_Node000015"><a xlink:title=" ">
<path fill="none" stroke="#63b8ff" d="M555,-109.75C560.65,-102.26 568.94,-91.28 575.84,-82.13"/>
<polygon fill="#63b8ff" stroke="#63b8ff" points="578.68,-84.18 581.91,-74.09 573.09,-79.96 578.68,-84.18"/>
</a>
</g>
</g>
<!-- Node16 -->
<g id="Node000016" class="node">
<title>Node16</title>
<g id="a_Node000016"><a xlink:title=" ">
<polygon fill="#e0e0e0" stroke="#999999" points="462.39,-74 430.39,-74 430.39,-55 462.39,-55 462.39,-74"/>
<text text-anchor="middle" x="446.39" y="-62" font-family="Helvetica,sans-Serif" font-size="10.00">list</text>
</a>
</g>
</g>
<!-- Node14&#45;&gt;Node16 -->
<g id="edge15_Node000014_Node000016" class="edge">
<title>Node14&#45;&gt;Node16</title>
<g id="a_edge15_Node000014_Node000016"><a xlink:title=" ">
<path fill="none" stroke="#63b8ff" d="M532,-109.98C515.62,-101.47 490.22,-88.28 471.34,-78.46"/>
<polygon fill="#63b8ff" stroke="#63b8ff" points="472.89,-75.32 462.4,-73.82 469.66,-81.54 472.89,-75.32"/>
</a>
</g>
</g>
<!-- Node17 -->
<g id="Node000017" class="node">
<title>Node17</title>
<g id="a_Node000017"><a xlink:title=" ">
<polygon fill="#e0e0e0" stroke="#999999" points="538.39,-74 480.39,-74 480.39,-55 538.39,-55 538.39,-74"/>
<text text-anchor="middle" x="509.39" y="-62" font-family="Helvetica,sans-Serif" font-size="10.00">memory</text>
</a>
</g>
</g>
<!-- Node14&#45;&gt;Node17 -->
<g id="edge16_Node000014_Node000017" class="edge">
<title>Node14&#45;&gt;Node17</title>
<g id="a_edge16_Node000014_Node000017"><a xlink:title=" ">
<path fill="none" stroke="#63b8ff" d="M541.95,-109.75C536.5,-102.34 528.53,-91.5 521.83,-82.41"/>
<polygon fill="#63b8ff" stroke="#63b8ff" points="524.46,-80.07 515.71,-74.09 518.82,-84.22 524.46,-80.07"/>
</a>
</g>
</g>
<!-- Node18 -->
<g id="Node000018" class="node">
<title>Node18</title>
<g id="a_Node000018"><a xlink:href="assert_8h.html" target="_top" xlink:title=" ">
<polygon fill="white" stroke="#666666" points="412.39,-74 344.39,-74 344.39,-55 412.39,-55 412.39,-74"/>
<text text-anchor="middle" x="378.39" y="-62" font-family="Helvetica,sans-Serif" font-size="10.00">fe/assert.h</text>
</a>
</g>
</g>
<!-- Node14&#45;&gt;Node18 -->
<g id="edge17_Node000014_Node000018" class="edge">
<title>Node14&#45;&gt;Node18</title>
<g id="a_edge17_Node000014_Node000018"><a xlink:title=" ">
<path fill="none" stroke="#63b8ff" d="M521.08,-109.98C492.54,-101.09 447.56,-87.07 415.75,-77.15"/>
<polygon fill="#63b8ff" stroke="#63b8ff" points="416.51,-73.72 405.92,-74.08 414.42,-80.4 416.51,-73.72"/>
</a>
</g>
</g>
<!-- Node18&#45;&gt;Node7 -->
<g id="edge18_Node000018_Node000007" class="edge">
<title>Node18&#45;&gt;Node7</title>
<g id="a_edge18_Node000018_Node000007"><a xlink:title=" ">
<path fill="none" stroke="#63b8ff" d="M400.08,-54.98C422.19,-46.3 456.71,-32.75 481.84,-22.88"/>
<polygon fill="#63b8ff" stroke="#63b8ff" points="483.28,-26.08 491.31,-19.17 480.72,-19.57 483.28,-26.08"/>
</a>
</g>
</g>
<!-- Node19&#45;&gt;Node18 -->
<g id="edge23_Node000019_Node000018" class="edge">
<title>Node19&#45;&gt;Node18</title>
<g id="a_edge23_Node000019_Node000018"><a xlink:title=" ">
<path fill="none" stroke="#63b8ff" d="M100.31,-222.12C67.29,-214.22 16.54,-199.85 5.39,-184 -12.25,-158.93 19.28,-120.5 34.39,-110 81.95,-76.96 252.2,-68.45 333.95,-66.26"/>
<polygon fill="#63b8ff" stroke="#63b8ff" points="334.26,-69.75 344.17,-66 334.09,-62.75 334.26,-69.75"/>
</a>
</g>
</g>
<!-- Node20 -->
<g id="Node000020" class="node">
<title>Node20</title>
<g id="a_Node000020"><a xlink:title=" ">
<polygon fill="#e0e0e0" stroke="#999999" points="63.89,-184 14.89,-184 14.89,-165 63.89,-165 63.89,-184"/>
<text text-anchor="middle" x="39.39" y="-172" font-family="Helvetica,sans-Serif" font-size="10.00">cctype</text>
</a>
</g>
</g>
<!-- Node19&#45;&gt;Node20 -->
<g id="edge20_Node000019_Node000020" class="edge">
<title>Node19&#45;&gt;Node20</title>
<g id="a_edge20_Node000019_Node000020"><a xlink:title=" ">
<path fill="none" stroke="#63b8ff" d="M114.93,-219.98C100.97,-211.77 79.6,-199.18 63.14,-189.49"/>
<polygon fill="#63b8ff" stroke="#63b8ff" points="64.51,-186.23 54.11,-184.17 60.95,-192.26 64.51,-186.23"/>
</a>
</g>
</g>
<!-- Node21 -->
<g id="Node000021" class="node">
<title>Node21</title>
<g id="a_Node000021"><a xlink:title=" ">
<polygon fill="#e0e0e0" stroke="#999999" points="136.39,-184 82.39,-184 82.39,-165 136.39,-165 136.39,-184"/>
<text text-anchor="middle" x="109.39" y="-172" font-family="Helvetica,sans-Serif" font-size="10.00">istream</text>
</a>
</g>
</g>
<!-- Node19&#45;&gt;Node21 -->
<g id="edge21_Node000019_Node000021" class="edge">
<title>Node19&#45;&gt;Node21</title>
<g id="a_edge21_Node000019_Node000021"><a xlink:title=" ">
<path fill="none" stroke="#63b8ff" d="M126.09,-219.75C123.41,-212.65 119.54,-202.4 116.2,-193.56"/>
<polygon fill="#63b8ff" stroke="#63b8ff" points="119.44,-192.21 112.63,-184.09 112.89,-194.68 119.44,-192.21"/>
</a>
</g>
</g>
<!-- Node22 -->
<g id="Node000022" class="node">
<title>Node22</title>
<g id="a_Node000022"><a xlink:title=" ">
<polygon fill="#e0e0e0" stroke="#999999" points="211.89,-184 154.89,-184 154.89,-165 211.89,-165 211.89,-184"/>
<text text-anchor="middle" x="183.39" y="-172" font-family="Helvetica,sans-Serif" font-size="10.00">ostream</text>
</a>
</g>
</g>
<!-- Node19&#45;&gt;Node22 -->
<g id="edge22_Node000019_Node000022" class="edge">
<title>Node19&#45;&gt;Node22</title>
<g id="a_edge22_Node000019_Node000022"><a xlink:title=" ">
<path fill="none" stroke="#63b8ff" d="M138.31,-219.75C146.17,-212.03 157.82,-200.6 167.31,-191.28"/>
<polygon fill="#63b8ff" stroke="#63b8ff" points="169.95,-193.59 174.64,-184.09 165.05,-188.6 169.95,-193.59"/>
</a>
</g>
</g>
</g>
</svg>

<g id="navigator" transform="translate(0 0)" fill="#404254">
  <rect fill="#f2f5e9" fill-opacity="0.5" stroke="#606060" stroke-width=".5" x="0" y="0" width="60" height="60"/>
  <use id="zoomplus" xlink:href="#zoomPlus" x="17" y="9" onmousedown="handleZoom(evt,'in')"/>
  <use id="zoomminus" xlink:href="#zoomMin" x="42" y="9" onmousedown="handleZoom(evt,'out')"/>
  <use id="reset" xlink:href="#resetDef" x="30" y="36" onmousedown="handleReset()"/>
   <use id="arrowup" xlink:href="#arrowUp" x="0" y="0" onmousedown="handlePan(0,-1)"/>
  <use id="arrowright" xlink:href="#arrowRight" x="0" y="0" onmousedown="handlePan(1,0)"/>
  <use id="arrowdown" xlink:href="#arrowDown" x="0" y="0" onmousedown="handlePan(0,1)"/>
  <use id="arrowleft" xlink:href="#arrowLeft" x="0" y="0" onmousedown="handlePan(-1,0)"/>
</g>
<svg viewBox="0 0 15 15" width="100%" height="30px" preserveAspectRatio="xMaxYMin meet">
 <g id="arrow_out" transform="scale(0.3 0.3)">
  <a xlink:href="loc_8cpp_8h__incl_org.svg" target="_base">
   <rect id="button" ry="5" rx="5" y="6" x="6" height="38" width="38"
        fill="#f2f5e9" fill-opacity="0.5" stroke="#606060" stroke-width="1.0"/>
   <path id="arrow"
     d="M 11.500037,31.436501 C 11.940474,20.09759 22.043105,11.32322 32.158766,21.979434 L 37.068811,17.246167 C 37.068811,17.246167 37.088388,32 37.088388,32 L 22.160133,31.978069 C 22.160133,31.978069 26.997745,27.140456 26.997745,27.140456 C 18.528582,18.264221 13.291696,25.230495 11.500037,31.436501 z"
     style="fill:#404040;"/>
  </a>
 </g>
</svg>

<style type='text/css'>
<![CDATA[
[data-mouse-over-selected='false'] { opacity: 0.7; }
[data-mouse-over-selected='true']  { opacity: 1.0; }
]]>
</style>
<script type="application/ecmascript"><![CDATA[
document.addEventListener('DOMContentLoaded', (event) => {
  highlightEdges();
  highlightAdjacentNodes();
});
]]></script>
</svg>
