<?xml version="1.0" encoding="UTF-8" standalone="no"?>
<!DOCTYPE svg PUBLIC "-//W3C//DTD SVG 1.1//EN"
 "http://www.w3.org/Graphics/SVG/1.1/DTD/svg11.dtd">
<!-- Generated by graphviz version 2.43.0 (0)
 -->
<!-- Title: fe/loc.cpp.h Pages: 1 -->
<svg width="430pt" height="357pt"
 viewBox="0.00 0.00 429.50 357.00" xmlns="http://www.w3.org/2000/svg" xmlns:xlink="http://www.w3.org/1999/xlink">
<g id="graph0" class="graph" transform="scale(1 1) rotate(0) translate(4 353)">
<title>fe/loc.cpp.h</title>
<!-- Node1 -->
<g id="Node000001" class="node">
<title>Node1</title>
<g id="a_Node000001"><a xlink:title=" ">
<polygon fill="#999999" stroke="#666666" points="200.5,-349 127.5,-349 127.5,-330 200.5,-330 200.5,-349"/>
<text text-anchor="middle" x="164" y="-337" font-family="Helvetica,sans-Serif" font-size="10.00">fe/loc.cpp.h</text>
</a>
</g>
</g>
<!-- Node2 -->
<g id="Node000002" class="node">
<title>Node2</title>
<g id="a_Node000002"><a xlink:href="loc_8h.html" target="_top" xlink:title=" ">
<polygon fill="white" stroke="#666666" points="158.5,-239 105.5,-239 105.5,-220 158.5,-220 158.5,-239"/>
<text text-anchor="middle" x="132" y="-227" font-family="Helvetica,sans-Serif" font-size="10.00">fe/loc.h</text>
</a>
</g>
</g>
<!-- Node1&#45;&gt;Node2 -->
<g id="edge1_Node000001_Node000002" class="edge">
<title>Node1&#45;&gt;Node2</title>
<g id="a_edge1_Node000001_Node000002"><a xlink:title=" ">
<path fill="none" stroke="#63b8ff" d="M161.38,-329.66C156.18,-312.09 144.43,-272.45 137.47,-248.95"/>
<polygon fill="#63b8ff" stroke="#63b8ff" points="140.76,-247.75 134.57,-239.16 134.05,-249.74 140.76,-247.75"/>
</a>
</g>
</g>
<!-- Node15 -->
<g id="Node000015" class="node">
<title>Node15</title>
<g id="a_Node000015"><a xlink:href="format_8h.html" target="_top" xlink:title=" ">
<polygon fill="white" stroke="#666666" points="231.5,-294 160.5,-294 160.5,-275 231.5,-275 231.5,-294"/>
<text text-anchor="middle" x="196" y="-282" font-family="Helvetica,sans-Serif" font-size="10.00">fe/format.h</text>
</a>
</g>
</g>
<!-- Node1&#45;&gt;Node15 -->
<g id="edge14_Node000001_Node000015" class="edge">
<title>Node1&#45;&gt;Node15</title>
<g id="a_edge14_Node000001_Node000015"><a xlink:title=" ">
<path fill="none" stroke="#63b8ff" d="M169.28,-329.75C173.71,-322.42 180.16,-311.73 185.62,-302.7"/>
<polygon fill="#63b8ff" stroke="#63b8ff" points="188.64,-304.46 190.81,-294.09 182.65,-300.84 188.64,-304.46"/>
</a>
</g>
</g>
<!-- Node3 -->
<g id="Node000003" class="node">
<title>Node3</title>
<g id="a_Node000003"><a xlink:title=" ">
<polygon fill="#e0e0e0" stroke="#999999" points="125,-184 57,-184 57,-165 125,-165 125,-184"/>
<text text-anchor="middle" x="91" y="-172" font-family="Helvetica,sans-Serif" font-size="10.00">filesystem</text>
</a>
</g>
</g>
<!-- Node2&#45;&gt;Node3 -->
<g id="edge2_Node000002_Node000003" class="edge">
<title>Node2&#45;&gt;Node3</title>
<g id="a_edge2_Node000002_Node000003"><a xlink:title=" ">
<path fill="none" stroke="#63b8ff" d="M125.23,-219.75C119.44,-212.26 110.94,-201.28 103.86,-192.13"/>
<polygon fill="#63b8ff" stroke="#63b8ff" points="106.53,-189.86 97.64,-184.09 100.99,-194.14 106.53,-189.86"/>
</a>
</g>
</g>
<!-- Node4 -->
<g id="Node000004" class="node">
<title>Node4</title>
<g id="a_Node000004"><a xlink:href="sym_8h.html" target="_top" xlink:title=" ">
<polygon fill="white" stroke="#666666" points="202.5,-184 143.5,-184 143.5,-165 202.5,-165 202.5,-184"/>
<text text-anchor="middle" x="173" y="-172" font-family="Helvetica,sans-Serif" font-size="10.00">fe/sym.h</text>
</a>
</g>
</g>
<!-- Node2&#45;&gt;Node4 -->
<g id="edge3_Node000002_Node000004" class="edge">
<title>Node2&#45;&gt;Node4</title>
<g id="a_edge3_Node000002_Node000004"><a xlink:title=" ">
<path fill="none" stroke="#63b8ff" d="M138.77,-219.75C144.56,-212.26 153.06,-201.28 160.14,-192.13"/>
<polygon fill="#63b8ff" stroke="#63b8ff" points="163.01,-194.14 166.36,-184.09 157.47,-189.86 163.01,-194.14"/>
</a>
</g>
</g>
<!-- Node5 -->
<g id="Node000005" class="node">
<title>Node5</title>
<g id="a_Node000005"><a xlink:title=" ">
<polygon fill="#e0e0e0" stroke="#999999" points="60,-129 0,-129 0,-110 60,-110 60,-129"/>
<text text-anchor="middle" x="30" y="-117" font-family="Helvetica,sans-Serif" font-size="10.00">iostream</text>
</a>
</g>
</g>
<!-- Node4&#45;&gt;Node5 -->
<g id="edge4_Node000004_Node000005" class="edge">
<title>Node4&#45;&gt;Node5</title>
<g id="a_edge4_Node000004_Node000005"><a xlink:title=" ">
<path fill="none" stroke="#63b8ff" d="M150.02,-164.98C126.5,-156.27 89.71,-142.63 63.06,-132.75"/>
<polygon fill="#63b8ff" stroke="#63b8ff" points="63.99,-129.36 53.39,-129.17 61.55,-135.93 63.99,-129.36"/>
</a>
</g>
</g>
<!-- Node6 -->
<g id="Node000006" class="node">
<title>Node6</title>
<g id="a_Node000006"><a xlink:title=" ">
<polygon fill="#e0e0e0" stroke="#999999" points="122,-129 78,-129 78,-110 122,-110 122,-129"/>
<text text-anchor="middle" x="100" y="-117" font-family="Helvetica,sans-Serif" font-size="10.00">string</text>
</a>
</g>
</g>
<!-- Node4&#45;&gt;Node6 -->
<g id="edge5_Node000004_Node000006" class="edge">
<title>Node4&#45;&gt;Node6</title>
<g id="a_edge5_Node000004_Node000006"><a xlink:title=" ">
<path fill="none" stroke="#63b8ff" d="M161.27,-164.98C150.27,-157 133.58,-144.88 120.4,-135.31"/>
<polygon fill="#63b8ff" stroke="#63b8ff" points="122.09,-132.21 111.94,-129.17 117.98,-137.88 122.09,-132.21"/>
</a>
</g>
</g>
<!-- Node7 -->
<g id="Node000007" class="node">
<title>Node7</title>
<g id="a_Node000007"><a xlink:href="arena_8h.html" target="_top" xlink:title=" ">
<polygon fill="white" stroke="#666666" points="206,-129 140,-129 140,-110 206,-110 206,-129"/>
<text text-anchor="middle" x="173" y="-117" font-family="Helvetica,sans-Serif" font-size="10.00">fe/arena.h</text>
</a>
</g>
</g>
<!-- Node4&#45;&gt;Node7 -->
<g id="edge6_Node000004_Node000007" class="edge">
<title>Node4&#45;&gt;Node7</title>
<g id="a_edge6_Node000004_Node000007"><a xlink:title=" ">
<path fill="none" stroke="#63b8ff" d="M173,-164.75C173,-157.8 173,-147.85 173,-139.13"/>
<polygon fill="#63b8ff" stroke="#63b8ff" points="176.5,-139.09 173,-129.09 169.5,-139.09 176.5,-139.09"/>
</a>
</g>
</g>
<!-- Node13 -->
<g id="Node000013" class="node">
<title>Node13</title>
<g id="a_Node000013"><a xlink:title=" ">
<polygon fill="#e0e0e0" stroke="#999999" points="310,-129 224,-129 224,-110 310,-110 310,-129"/>
<text text-anchor="middle" x="267" y="-117" font-family="Helvetica,sans-Serif" font-size="10.00">unordered_set</text>
</a>
</g>
</g>
<!-- Node4&#45;&gt;Node13 -->
<g id="edge12_Node000004_Node000013" class="edge">
<title>Node4&#45;&gt;Node13</title>
<g id="a_edge12_Node000004_Node000013"><a xlink:title=" ">
<path fill="none" stroke="#63b8ff" d="M188.1,-164.98C202.82,-156.69 225.42,-143.94 242.67,-134.22"/>
<polygon fill="#63b8ff" stroke="#63b8ff" points="244.63,-137.13 251.62,-129.17 241.19,-131.03 244.63,-137.13"/>
</a>
</g>
</g>
<!-- Node14 -->
<g id="Node000014" class="node">
<title>Node14</title>
<g id="a_Node000014"><a xlink:title=" ">
<polygon fill="#e0e0e0" stroke="#999999" points="421.5,-129 328.5,-129 328.5,-110 421.5,-110 421.5,-129"/>
<text text-anchor="middle" x="375" y="-117" font-family="Helvetica,sans-Serif" font-size="10.00">unordered_map</text>
</a>
</g>
</g>
<!-- Node4&#45;&gt;Node14 -->
<g id="edge13_Node000004_Node000014" class="edge">
<title>Node4&#45;&gt;Node14</title>
<g id="a_edge13_Node000004_Node000014"><a xlink:title=" ">
<path fill="none" stroke="#63b8ff" d="M202.81,-165.68C237.06,-156.69 293.54,-141.87 332.42,-131.67"/>
<polygon fill="#63b8ff" stroke="#63b8ff" points="333.61,-134.98 342.39,-129.06 331.83,-128.21 333.61,-134.98"/>
</a>
</g>
</g>
<!-- Node8 -->
<g id="Node000008" class="node">
<title>Node8</title>
<g id="a_Node000008"><a xlink:title=" ">
<polygon fill="#e0e0e0" stroke="#999999" points="90,-74 26,-74 26,-55 90,-55 90,-74"/>
<text text-anchor="middle" x="58" y="-62" font-family="Helvetica,sans-Serif" font-size="10.00">algorithm</text>
</a>
</g>
</g>
<!-- Node7&#45;&gt;Node8 -->
<g id="edge7_Node000007_Node000008" class="edge">
<title>Node7&#45;&gt;Node8</title>
<g id="a_edge7_Node000007_Node000008"><a xlink:title=" ">
<path fill="none" stroke="#63b8ff" d="M154.52,-109.98C136.02,-101.46 107.32,-88.23 86.02,-78.41"/>
<polygon fill="#63b8ff" stroke="#63b8ff" points="87.36,-75.18 76.81,-74.17 84.43,-81.53 87.36,-75.18"/>
</a>
</g>
</g>
<!-- Node9 -->
<g id="Node000009" class="node">
<title>Node9</title>
<g id="a_Node000009"><a xlink:title=" ">
<polygon fill="#e0e0e0" stroke="#999999" points="166,-74 108,-74 108,-55 166,-55 166,-74"/>
<text text-anchor="middle" x="137" y="-62" font-family="Helvetica,sans-Serif" font-size="10.00">memory</text>
</a>
</g>
</g>
<!-- Node7&#45;&gt;Node9 -->
<g id="edge8_Node000007_Node000009" class="edge">
<title>Node7&#45;&gt;Node9</title>
<g id="a_edge8_Node000007_Node000009"><a xlink:title=" ">
<path fill="none" stroke="#63b8ff" d="M167.06,-109.75C162.02,-102.34 154.66,-91.5 148.49,-82.41"/>
<polygon fill="#63b8ff" stroke="#63b8ff" points="151.35,-80.39 142.83,-74.09 145.56,-84.33 151.35,-80.39"/>
</a>
</g>
</g>
<!-- Node10 -->
<g id="Node000010" class="node">
<title>Node10</title>
<g id="a_Node000010"><a xlink:title=" ">
<polygon fill="#e0e0e0" stroke="#999999" points="231.5,-74 184.5,-74 184.5,-55 231.5,-55 231.5,-74"/>
<text text-anchor="middle" x="208" y="-62" font-family="Helvetica,sans-Serif" font-size="10.00">vector</text>
</a>
</g>
</g>
<!-- Node7&#45;&gt;Node10 -->
<g id="edge9_Node000007_Node000010" class="edge">
<title>Node7&#45;&gt;Node10</title>
<g id="a_edge9_Node000007_Node000010"><a xlink:title=" ">
<path fill="none" stroke="#63b8ff" d="M178.78,-109.75C183.62,-102.42 190.68,-91.73 196.64,-82.7"/>
<polygon fill="#63b8ff" stroke="#63b8ff" points="199.74,-84.36 202.33,-74.09 193.9,-80.5 199.74,-84.36"/>
</a>
</g>
</g>
<!-- Node11 -->
<g id="Node000011" class="node">
<title>Node11</title>
<g id="a_Node000011"><a xlink:href="assert_8h.html" target="_top" xlink:title=" ">
<polygon fill="white" stroke="#666666" points="318,-74 250,-74 250,-55 318,-55 318,-74"/>
<text text-anchor="middle" x="284" y="-62" font-family="Helvetica,sans-Serif" font-size="10.00">fe/assert.h</text>
</a>
</g>
</g>
<!-- Node7&#45;&gt;Node11 -->
<g id="edge10_Node000007_Node000011" class="edge">
<title>Node7&#45;&gt;Node11</title>
<g id="a_edge10_Node000007_Node000011"><a xlink:title=" ">
<path fill="none" stroke="#63b8ff" d="M190.83,-109.98C208.61,-101.5 236.15,-88.35 256.68,-78.54"/>
<polygon fill="#63b8ff" stroke="#63b8ff" points="258.33,-81.64 265.84,-74.17 255.31,-75.32 258.33,-81.64"/>
</a>
</g>
</g>
<!-- Node12 -->
<g id="Node000012" class="node">
<title>Node12</title>
<g id="a_Node000012"><a xlink:title=" ">
<polygon fill="#e0e0e0" stroke="#999999" points="310,-19 258,-19 258,0 310,0 310,-19"/>
<text text-anchor="middle" x="284" y="-7" font-family="Helvetica,sans-Serif" font-size="10.00">cassert</text>
</a>
</g>
</g>
<!-- Node11&#45;&gt;Node12 -->
<g id="edge11_Node000011_Node000012" class="edge">
<title>Node11&#45;&gt;Node12</title>
<g id="a_edge11_Node000011_Node000012"><a xlink:title=" ">
<path fill="none" stroke="#63b8ff" d="M284,-54.75C284,-47.8 284,-37.85 284,-29.13"/>
<polygon fill="#63b8ff" stroke="#63b8ff" points="287.5,-29.09 284,-19.09 280.5,-29.09 287.5,-29.09"/>
</a>
</g>
</g>
<!-- Node15&#45;&gt;Node2 -->
<g id="edge16_Node000015_Node000002" class="edge">
<title>Node15&#45;&gt;Node2</title>
<g id="a_edge16_Node000015_Node000002"><a xlink:title=" ">
<path fill="none" stroke="#63b8ff" d="M185.72,-274.98C176.16,-267.07 161.72,-255.11 150.22,-245.58"/>
<polygon fill="#63b8ff" stroke="#63b8ff" points="152.4,-242.85 142.47,-239.17 147.94,-248.24 152.4,-242.85"/>
</a>
</g>
</g>
<!-- Node16 -->
<g id="Node000016" class="node">
<title>Node16</title>
<g id="a_Node000016"><a xlink:title=" ">
<polygon fill="#e0e0e0" stroke="#999999" points="227,-239 177,-239 177,-220 227,-220 227,-239"/>
<text text-anchor="middle" x="202" y="-227" font-family="Helvetica,sans-Serif" font-size="10.00">format</text>
</a>
</g>
</g>
<!-- Node15&#45;&gt;Node16 -->
<g id="edge15_Node000015_Node000016" class="edge">
<title>Node15&#45;&gt;Node16</title>
<g id="a_edge15_Node000015_Node000016"><a xlink:title=" ">
<path fill="none" stroke="#63b8ff" d="M196.99,-274.75C197.78,-267.8 198.9,-257.85 199.89,-249.13"/>
<polygon fill="#63b8ff" stroke="#63b8ff" points="203.38,-249.42 201.03,-239.09 196.42,-248.63 203.38,-249.42"/>
</a>
</g>
</g>
</g>
</svg>
