<?xml version="1.0" encoding="UTF-8" standalone="no"?>
<!DOCTYPE svg PUBLIC "-//W3C//DTD SVG 1.1//EN"
 "http://www.w3.org/Graphics/SVG/1.1/DTD/svg11.dtd">
<!-- Generated by graphviz version 2.43.0 (0)
 -->
<!-- Title: fe/loc.cpp.h Pages: 1 -->
<svg width="1349pt" height="357pt"
 viewBox="0.00 0.00 1348.50 357.00" xmlns="http://www.w3.org/2000/svg" xmlns:xlink="http://www.w3.org/1999/xlink">
<g id="graph0" class="graph" transform="scale(1 1) rotate(0) translate(4 353)">
<title>fe/loc.cpp.h</title>
<!-- Node1 -->
<g id="Node000001" class="node">
<title>Node1</title>
<g id="a_Node000001"><a xlink:title=" ">
<polygon fill="#999999" stroke="#666666" points="766.5,-349 693.5,-349 693.5,-330 766.5,-330 766.5,-349"/>
<text text-anchor="middle" x="730" y="-337" font-family="Helvetica,sans-Serif" font-size="10.00">fe/loc.cpp.h</text>
</a>
</g>
</g>
<!-- Node2 -->
<g id="Node000002" class="node">
<title>Node2</title>
<g id="a_Node000002"><a xlink:href="format_8h.html" target="_top" xlink:title=" ">
<polygon fill="white" stroke="#666666" points="892.5,-294 821.5,-294 821.5,-275 892.5,-275 892.5,-294"/>
<text text-anchor="middle" x="857" y="-282" font-family="Helvetica,sans-Serif" font-size="10.00">fe/format.h</text>
</a>
</g>
</g>
<!-- Node1&#45;&gt;Node2 -->
<g id="edge1_Node000001_Node000002" class="edge">
<title>Node1&#45;&gt;Node2</title>
<g id="a_edge1_Node000001_Node000002"><a xlink:title=" ">
<path fill="none" stroke="#63b8ff" d="M750.4,-329.98C771.02,-321.38 803.11,-307.99 826.69,-298.15"/>
<polygon fill="#63b8ff" stroke="#63b8ff" points="828.34,-301.25 836.22,-294.17 825.65,-294.79 828.34,-301.25"/>
</a>
</g>
</g>
<!-- Node13 -->
<g id="Node000013" class="node">
<title>Node13</title>
<g id="a_Node000013"><a xlink:href="loc_8h.html" target="_top" xlink:title=" ">
<polygon fill="white" stroke="#666666" points="532.5,-239 479.5,-239 479.5,-220 532.5,-220 532.5,-239"/>
<text text-anchor="middle" x="506" y="-227" font-family="Helvetica,sans-Serif" font-size="10.00">fe/loc.h</text>
</a>
</g>
</g>
<!-- Node1&#45;&gt;Node13 -->
<g id="edge38_Node000001_Node000013" class="edge">
<title>Node1&#45;&gt;Node13</title>
<g id="a_edge38_Node000001_Node000013"><a xlink:title=" ">
<path fill="none" stroke="#63b8ff" d="M712.05,-329.84C672.79,-310.92 579.15,-265.77 532.85,-243.45"/>
<polygon fill="#63b8ff" stroke="#63b8ff" points="534.25,-240.24 523.73,-239.05 531.21,-246.54 534.25,-240.24"/>
</a>
</g>
</g>
<!-- Node3 -->
<g id="Node000003" class="node">
<title>Node3</title>
<g id="a_Node000003"><a xlink:title=" ">
<polygon fill="#e0e0e0" stroke="#999999" points="1189,-239 1129,-239 1129,-220 1189,-220 1189,-239"/>
<text text-anchor="middle" x="1159" y="-227" font-family="Helvetica,sans-Serif" font-size="10.00">concepts</text>
</a>
</g>
</g>
<!-- Node2&#45;&gt;Node3 -->
<g id="edge2_Node000002_Node000003" class="edge">
<title>Node2&#45;&gt;Node3</title>
<g id="a_edge2_Node000002_Node000003"><a xlink:title=" ">
<path fill="none" stroke="#63b8ff" d="M892.83,-277.98C941.65,-270.35 1032.04,-255.79 1118.78,-239.16"/>
<polygon fill="#63b8ff" stroke="#63b8ff" points="1119.64,-242.56 1128.8,-237.23 1118.31,-235.69 1119.64,-242.56"/>
</a>
</g>
</g>
<!-- Node4 -->
<g id="Node000004" class="node">
<title>Node4</title>
<g id="a_Node000004"><a xlink:title=" ">
<polygon fill="#e0e0e0" stroke="#999999" points="1257,-239 1207,-239 1207,-220 1257,-220 1257,-239"/>
<text text-anchor="middle" x="1232" y="-227" font-family="Helvetica,sans-Serif" font-size="10.00">format</text>
</a>
</g>
</g>
<!-- Node2&#45;&gt;Node4 -->
<g id="edge3_Node000002_Node000004" class="edge">
<title>Node2&#45;&gt;Node4</title>
<g id="a_edge3_Node000002_Node000004"><a xlink:title=" ">
<path fill="none" stroke="#63b8ff" d="M892.56,-280.22C953.05,-274.35 1079.97,-260.76 1196.65,-239.06"/>
<polygon fill="#63b8ff" stroke="#63b8ff" points="1197.64,-242.43 1206.82,-237.14 1196.35,-235.55 1197.64,-242.43"/>
</a>
</g>
</g>
<!-- Node5 -->
<g id="Node000005" class="node">
<title>Node5</title>
<g id="a_Node000005"><a xlink:title=" ">
<polygon fill="#e0e0e0" stroke="#999999" points="1340.5,-239 1275.5,-239 1275.5,-220 1340.5,-220 1340.5,-239"/>
<text text-anchor="middle" x="1308" y="-227" font-family="Helvetica,sans-Serif" font-size="10.00">functional</text>
</a>
</g>
</g>
<!-- Node2&#45;&gt;Node5 -->
<g id="edge4_Node000002_Node000005" class="edge">
<title>Node2&#45;&gt;Node5</title>
<g id="a_edge4_Node000002_Node000005"><a xlink:title=" ">
<path fill="none" stroke="#63b8ff" d="M892.7,-280.72C962.35,-275.06 1121.37,-260.97 1265.58,-238.92"/>
<polygon fill="#63b8ff" stroke="#63b8ff" points="1266.15,-242.37 1275.49,-237.38 1265.08,-235.45 1266.15,-242.37"/>
</a>
</g>
</g>
<!-- Node6 -->
<g id="Node000006" class="node">
<title>Node6</title>
<g id="a_Node000006"><a xlink:title=" ">
<polygon fill="#e0e0e0" stroke="#999999" points="672,-129 612,-129 612,-110 672,-110 672,-129"/>
<text text-anchor="middle" x="642" y="-117" font-family="Helvetica,sans-Serif" font-size="10.00">iostream</text>
</a>
</g>
</g>
<!-- Node2&#45;&gt;Node6 -->
<g id="edge5_Node000002_Node000006" class="edge">
<title>Node2&#45;&gt;Node6</title>
<g id="a_edge5_Node000002_Node000006"><a xlink:title=" ">
<path fill="none" stroke="#63b8ff" d="M821.23,-284.09C781.91,-282.79 719.27,-274.67 681,-239 652.71,-212.63 644.91,-165.39 642.78,-139.23"/>
<polygon fill="#63b8ff" stroke="#63b8ff" points="646.27,-138.9 642.16,-129.13 639.28,-139.33 646.27,-138.9"/>
</a>
</g>
</g>
<!-- Node7 -->
<g id="Node000007" class="node">
<title>Node7</title>
<g id="a_Node000007"><a xlink:title=" ">
<polygon fill="#e0e0e0" stroke="#999999" points="780.5,-184 723.5,-184 723.5,-165 780.5,-165 780.5,-184"/>
<text text-anchor="middle" x="752" y="-172" font-family="Helvetica,sans-Serif" font-size="10.00">ostream</text>
</a>
</g>
</g>
<!-- Node2&#45;&gt;Node7 -->
<g id="edge6_Node000002_Node000007" class="edge">
<title>Node2&#45;&gt;Node7</title>
<g id="a_edge6_Node000002_Node000007"><a xlink:title=" ">
<path fill="none" stroke="#63b8ff" d="M821.29,-278.6C797.27,-273.25 767.31,-262.11 752,-239 743.34,-225.93 744.3,-207.79 746.87,-194.24"/>
<polygon fill="#63b8ff" stroke="#63b8ff" points="750.36,-194.69 749.22,-184.16 743.54,-193.1 750.36,-194.69"/>
</a>
</g>
</g>
<!-- Node8 -->
<g id="Node000008" class="node">
<title>Node8</title>
<g id="a_Node000008"><a xlink:title=" ">
<polygon fill="#e0e0e0" stroke="#999999" points="876.5,-239 837.5,-239 837.5,-220 876.5,-220 876.5,-239"/>
<text text-anchor="middle" x="857" y="-227" font-family="Helvetica,sans-Serif" font-size="10.00">print</text>
</a>
</g>
</g>
<!-- Node2&#45;&gt;Node8 -->
<g id="edge7_Node000002_Node000008" class="edge">
<title>Node2&#45;&gt;Node8</title>
<g id="a_edge7_Node000002_Node000008"><a xlink:title=" ">
<path fill="none" stroke="#63b8ff" d="M857,-274.75C857,-267.8 857,-257.85 857,-249.13"/>
<polygon fill="#63b8ff" stroke="#63b8ff" points="860.5,-249.09 857,-239.09 853.5,-249.09 860.5,-249.09"/>
</a>
</g>
</g>
<!-- Node9 -->
<g id="Node000009" class="node">
<title>Node9</title>
<g id="a_Node000009"><a xlink:title=" ">
<polygon fill="#e0e0e0" stroke="#999999" points="945,-239 895,-239 895,-220 945,-220 945,-239"/>
<text text-anchor="middle" x="920" y="-227" font-family="Helvetica,sans-Serif" font-size="10.00">ranges</text>
</a>
</g>
</g>
<!-- Node2&#45;&gt;Node9 -->
<g id="edge8_Node000002_Node000009" class="edge">
<title>Node2&#45;&gt;Node9</title>
<g id="a_edge8_Node000002_Node000009"><a xlink:title=" ">
<path fill="none" stroke="#63b8ff" d="M867.12,-274.98C876.44,-267.15 890.47,-255.34 901.74,-245.86"/>
<polygon fill="#63b8ff" stroke="#63b8ff" points="904.29,-248.29 909.69,-239.17 899.79,-242.93 904.29,-248.29"/>
</a>
</g>
</g>
<!-- Node10 -->
<g id="Node000010" class="node">
<title>Node10</title>
<g id="a_Node000010"><a xlink:title=" ">
<polygon fill="#e0e0e0" stroke="#999999" points="1019,-239 963,-239 963,-220 1019,-220 1019,-239"/>
<text text-anchor="middle" x="991" y="-227" font-family="Helvetica,sans-Serif" font-size="10.00">sstream</text>
</a>
</g>
</g>
<!-- Node2&#45;&gt;Node10 -->
<g id="edge9_Node000002_Node000010" class="edge">
<title>Node2&#45;&gt;Node10</title>
<g id="a_edge9_Node000002_Node000010"><a xlink:title=" ">
<path fill="none" stroke="#63b8ff" d="M878.53,-274.98C900.47,-266.3 934.74,-252.75 959.69,-242.88"/>
<polygon fill="#63b8ff" stroke="#63b8ff" points="961.07,-246.1 969.08,-239.17 958.49,-239.59 961.07,-246.1"/>
</a>
</g>
</g>
<!-- Node11 -->
<g id="Node000011" class="node">
<title>Node11</title>
<g id="a_Node000011"><a xlink:title=" ">
<polygon fill="#e0e0e0" stroke="#999999" points="1110.5,-239 1037.5,-239 1037.5,-220 1110.5,-220 1110.5,-239"/>
<text text-anchor="middle" x="1074" y="-227" font-family="Helvetica,sans-Serif" font-size="10.00">string_view</text>
</a>
</g>
</g>
<!-- Node2&#45;&gt;Node11 -->
<g id="edge10_Node000002_Node000011" class="edge">
<title>Node2&#45;&gt;Node11</title>
<g id="a_edge10_Node000002_Node000011"><a xlink:title=" ">
<path fill="none" stroke="#63b8ff" d="M891.86,-274.98C929.09,-265.89 988.2,-251.46 1028.93,-241.51"/>
<polygon fill="#63b8ff" stroke="#63b8ff" points="1029.98,-244.85 1038.86,-239.08 1028.32,-238.05 1029.98,-244.85"/>
</a>
</g>
</g>
<!-- Node12 -->
<g id="Node000012" class="node">
<title>Node12</title>
<g id="a_Node000012"><a xlink:title=" ">
<polygon fill="#e0e0e0" stroke="#999999" points="661.5,-74 616.5,-74 616.5,-55 661.5,-55 661.5,-74"/>
<text text-anchor="middle" x="639" y="-62" font-family="Helvetica,sans-Serif" font-size="10.00">utility</text>
</a>
</g>
</g>
<!-- Node2&#45;&gt;Node12 -->
<g id="edge11_Node000002_Node000012" class="edge">
<title>Node2&#45;&gt;Node12</title>
<g id="a_edge11_Node000002_Node000012"><a xlink:title=" ">
<path fill="none" stroke="#63b8ff" d="M821.31,-277.15C796.22,-271.08 763.3,-259.68 741,-239 694.64,-196 716.37,-162.41 681,-110 673.98,-99.59 664.48,-89.3 656.3,-81.25"/>
<polygon fill="#63b8ff" stroke="#63b8ff" points="658.63,-78.64 648.98,-74.28 653.8,-83.71 658.63,-78.64"/>
</a>
</g>
</g>
<!-- Node2&#45;&gt;Node13 -->
<g id="edge12_Node000002_Node000013" class="edge">
<title>Node2&#45;&gt;Node13</title>
<g id="a_edge12_Node000002_Node000013"><a xlink:title=" ">
<path fill="none" stroke="#63b8ff" d="M821.41,-278.13C754.58,-268.03 610.92,-246.34 543.01,-236.09"/>
<polygon fill="#63b8ff" stroke="#63b8ff" points="543.19,-232.58 532.78,-234.54 542.15,-239.5 543.19,-232.58"/>
</a>
</g>
</g>
<!-- Node31 -->
<g id="Node000031" class="node">
<title>Node31</title>
<g id="a_Node000031"><a xlink:href="utf8_8h.html" target="_top" xlink:title=" ">
<polygon fill="white" stroke="#666666" points="819,-239 761,-239 761,-220 819,-220 819,-239"/>
<text text-anchor="middle" x="790" y="-227" font-family="Helvetica,sans-Serif" font-size="10.00">fe/utf8.h</text>
</a>
</g>
</g>
<!-- Node2&#45;&gt;Node31 -->
<g id="edge33_Node000002_Node000031" class="edge">
<title>Node2&#45;&gt;Node31</title>
<g id="a_edge33_Node000002_Node000031"><a xlink:title=" ">
<path fill="none" stroke="#63b8ff" d="M846.24,-274.98C836.23,-267.07 821.11,-255.11 809.07,-245.58"/>
<polygon fill="#63b8ff" stroke="#63b8ff" points="810.97,-242.63 800.96,-239.17 806.63,-248.12 810.97,-242.63"/>
</a>
</g>
</g>
<!-- Node14 -->
<g id="Node000014" class="node">
<title>Node14</title>
<g id="a_Node000014"><a xlink:title=" ">
<polygon fill="#e0e0e0" stroke="#999999" points="384,-184 316,-184 316,-165 384,-165 384,-184"/>
<text text-anchor="middle" x="350" y="-172" font-family="Helvetica,sans-Serif" font-size="10.00">filesystem</text>
</a>
</g>
</g>
<!-- Node13&#45;&gt;Node14 -->
<g id="edge13_Node000013_Node000014" class="edge">
<title>Node13&#45;&gt;Node14</title>
<g id="a_edge13_Node000013_Node000014"><a xlink:title=" ">
<path fill="none" stroke="#63b8ff" d="M480.94,-219.98C454.97,-211.16 414.19,-197.31 385.04,-187.41"/>
<polygon fill="#63b8ff" stroke="#63b8ff" points="385.85,-183.99 375.26,-184.08 383.6,-190.61 385.85,-183.99"/>
</a>
</g>
</g>
<!-- Node15 -->
<g id="Node000015" class="node">
<title>Node15</title>
<g id="a_Node000015"><a xlink:href="sym_8h.html" target="_top" xlink:title=" ">
<polygon fill="white" stroke="#666666" points="461.5,-184 402.5,-184 402.5,-165 461.5,-165 461.5,-184"/>
<text text-anchor="middle" x="432" y="-172" font-family="Helvetica,sans-Serif" font-size="10.00">fe/sym.h</text>
</a>
</g>
</g>
<!-- Node13&#45;&gt;Node15 -->
<g id="edge14_Node000013_Node000015" class="edge">
<title>Node13&#45;&gt;Node15</title>
<g id="a_edge14_Node000013_Node000015"><a xlink:title=" ">
<path fill="none" stroke="#63b8ff" d="M494.11,-219.98C482.85,-211.92 465.71,-199.65 452.29,-190.03"/>
<polygon fill="#63b8ff" stroke="#63b8ff" points="454.27,-187.15 444.11,-184.17 450.2,-192.84 454.27,-187.15"/>
</a>
</g>
</g>
<!-- Node15&#45;&gt;Node6 -->
<g id="edge18_Node000015_Node000006" class="edge">
<title>Node15&#45;&gt;Node6</title>
<g id="a_edge18_Node000015_Node000006"><a xlink:title=" ">
<path fill="none" stroke="#63b8ff" d="M461.64,-166.02C498.33,-156.76 560.96,-140.95 601.91,-130.62"/>
<polygon fill="#63b8ff" stroke="#63b8ff" points="602.99,-133.96 611.83,-128.11 601.28,-127.17 602.99,-133.96"/>
</a>
</g>
</g>
<!-- Node16 -->
<g id="Node000016" class="node">
<title>Node16</title>
<g id="a_Node000016"><a xlink:title=" ">
<polygon fill="#e0e0e0" stroke="#999999" points="406,-19 354,-19 354,0 406,0 406,-19"/>
<text text-anchor="middle" x="380" y="-7" font-family="Helvetica,sans-Serif" font-size="10.00">cassert</text>
</a>
</g>
</g>
<!-- Node15&#45;&gt;Node16 -->
<g id="edge15_Node000015_Node000016" class="edge">
<title>Node15&#45;&gt;Node16</title>
<g id="a_edge15_Node000015_Node000016"><a xlink:title=" ">
<path fill="none" stroke="#63b8ff" d="M402.23,-167C346.07,-154.75 230.02,-129.39 229,-129 183.12,-111.31 157.66,-116.54 133,-74 128.77,-66.69 127.58,-61.48 133,-55 159.42,-23.4 281.53,-14.2 343.59,-11.55"/>
<polygon fill="#63b8ff" stroke="#63b8ff" points="343.87,-15.05 353.72,-11.16 343.6,-8.05 343.87,-15.05"/>
</a>
</g>
</g>
<!-- Node17 -->
<g id="Node000017" class="node">
<title>Node17</title>
<g id="a_Node000017"><a xlink:title=" ">
<polygon fill="#e0e0e0" stroke="#999999" points="372,-129 322,-129 322,-110 372,-110 372,-129"/>
<text text-anchor="middle" x="347" y="-117" font-family="Helvetica,sans-Serif" font-size="10.00">cstring</text>
</a>
</g>
</g>
<!-- Node15&#45;&gt;Node17 -->
<g id="edge16_Node000015_Node000017" class="edge">
<title>Node15&#45;&gt;Node17</title>
<g id="a_edge16_Node000015_Node000017"><a xlink:title=" ">
<path fill="none" stroke="#63b8ff" d="M418.34,-164.98C405.16,-156.77 384.97,-144.18 369.43,-134.49"/>
<polygon fill="#63b8ff" stroke="#63b8ff" points="371.24,-131.49 360.91,-129.17 367.54,-137.43 371.24,-131.49"/>
</a>
</g>
</g>
<!-- Node18 -->
<g id="Node000018" class="node">
<title>Node18</title>
<g id="a_Node000018"><a xlink:title=" ">
<polygon fill="#e0e0e0" stroke="#999999" points="419.5,-129 390.5,-129 390.5,-110 419.5,-110 419.5,-129"/>
<text text-anchor="middle" x="405" y="-117" font-family="Helvetica,sans-Serif" font-size="10.00">bit</text>
</a>
</g>
</g>
<!-- Node15&#45;&gt;Node18 -->
<g id="edge17_Node000015_Node000018" class="edge">
<title>Node15&#45;&gt;Node18</title>
<g id="a_edge17_Node000015_Node000018"><a xlink:title=" ">
<path fill="none" stroke="#63b8ff" d="M427.54,-164.75C423.88,-157.57 418.59,-147.18 414.05,-138.27"/>
<polygon fill="#63b8ff" stroke="#63b8ff" points="417.03,-136.41 409.38,-129.09 410.8,-139.59 417.03,-136.41"/>
</a>
</g>
</g>
<!-- Node19 -->
<g id="Node000019" class="node">
<title>Node19</title>
<g id="a_Node000019"><a xlink:title=" ">
<polygon fill="#e0e0e0" stroke="#999999" points="482,-129 438,-129 438,-110 482,-110 482,-129"/>
<text text-anchor="middle" x="460" y="-117" font-family="Helvetica,sans-Serif" font-size="10.00">string</text>
</a>
</g>
</g>
<!-- Node15&#45;&gt;Node19 -->
<g id="edge19_Node000015_Node000019" class="edge">
<title>Node15&#45;&gt;Node19</title>
<g id="a_edge19_Node000015_Node000019"><a xlink:title=" ">
<path fill="none" stroke="#63b8ff" d="M436.62,-164.75C440.46,-157.49 446.02,-146.95 450.76,-137.98"/>
<polygon fill="#63b8ff" stroke="#63b8ff" points="453.89,-139.57 455.46,-129.09 447.7,-136.3 453.89,-139.57"/>
</a>
</g>
</g>
<!-- Node20 -->
<g id="Node000020" class="node">
<title>Node20</title>
<g id="a_Node000020"><a xlink:title=" ">
<polygon fill="#e0e0e0" stroke="#999999" points="593.5,-129 500.5,-129 500.5,-110 593.5,-110 593.5,-129"/>
<text text-anchor="middle" x="547" y="-117" font-family="Helvetica,sans-Serif" font-size="10.00">unordered_map</text>
</a>
</g>
</g>
<!-- Node15&#45;&gt;Node20 -->
<g id="edge20_Node000015_Node000020" class="edge">
<title>Node15&#45;&gt;Node20</title>
<g id="a_edge20_Node000015_Node000020"><a xlink:title=" ">
<path fill="none" stroke="#63b8ff" d="M450.48,-164.98C468.98,-156.46 497.68,-143.23 518.98,-133.41"/>
<polygon fill="#63b8ff" stroke="#63b8ff" points="520.57,-136.53 528.19,-129.17 517.64,-130.18 520.57,-136.53"/>
</a>
</g>
</g>
<!-- Node21 -->
<g id="Node000021" class="node">
<title>Node21</title>
<g id="a_Node000021"><a xlink:title=" ">
<polygon fill="#e0e0e0" stroke="#999999" points="86,-129 0,-129 0,-110 86,-110 86,-129"/>
<text text-anchor="middle" x="43" y="-117" font-family="Helvetica,sans-Serif" font-size="10.00">unordered_set</text>
</a>
</g>
</g>
<!-- Node15&#45;&gt;Node21 -->
<g id="edge21_Node000015_Node000021" class="edge">
<title>Node15&#45;&gt;Node21</title>
<g id="a_edge21_Node000015_Node000021"><a xlink:title=" ">
<path fill="none" stroke="#63b8ff" d="M402.24,-166.72C399.13,-166.1 396.01,-165.51 393,-165 263.65,-143.01 230.01,-146.68 100,-129 98.75,-128.83 97.48,-128.65 96.19,-128.48"/>
<polygon fill="#63b8ff" stroke="#63b8ff" points="96.64,-125 86.24,-127.07 95.65,-131.94 96.64,-125"/>
</a>
</g>
</g>
<!-- Node22 -->
<g id="Node000022" class="node">
<title>Node22</title>
<g id="a_Node000022"><a xlink:href="arena_8h.html" target="_top" xlink:title=" ">
<polygon fill="white" stroke="#666666" points="304,-129 238,-129 238,-110 304,-110 304,-129"/>
<text text-anchor="middle" x="271" y="-117" font-family="Helvetica,sans-Serif" font-size="10.00">fe/arena.h</text>
</a>
</g>
</g>
<!-- Node15&#45;&gt;Node22 -->
<g id="edge22_Node000015_Node000022" class="edge">
<title>Node15&#45;&gt;Node22</title>
<g id="a_edge22_Node000015_Node000022"><a xlink:title=" ">
<path fill="none" stroke="#63b8ff" d="M406.13,-164.98C379.22,-156.13 336.88,-142.19 306.77,-132.28"/>
<polygon fill="#63b8ff" stroke="#63b8ff" points="307.66,-128.88 297.07,-129.08 305.47,-135.53 307.66,-128.88"/>
</a>
</g>
</g>
<!-- Node22&#45;&gt;Node12 -->
<g id="edge29_Node000022_Node000012" class="edge">
<title>Node22&#45;&gt;Node12</title>
<g id="a_edge29_Node000022_Node000012"><a xlink:title=" ">
<path fill="none" stroke="#63b8ff" d="M304.43,-111.49C307.32,-110.96 310.21,-110.45 313,-110 439.77,-89.44 475.99,-98.49 606.39,-73.84"/>
<polygon fill="#63b8ff" stroke="#63b8ff" points="607.2,-77.25 616.36,-71.93 605.88,-70.37 607.2,-77.25"/>
</a>
</g>
</g>
<!-- Node23 -->
<g id="Node000023" class="node">
<title>Node23</title>
<g id="a_Node000023"><a xlink:title=" ">
<polygon fill="#e0e0e0" stroke="#999999" points="598,-74 534,-74 534,-55 598,-55 598,-74"/>
<text text-anchor="middle" x="566" y="-62" font-family="Helvetica,sans-Serif" font-size="10.00">algorithm</text>
</a>
</g>
</g>
<!-- Node22&#45;&gt;Node23 -->
<g id="edge23_Node000022_Node000023" class="edge">
<title>Node22&#45;&gt;Node23</title>
<g id="a_edge23_Node000022_Node000023"><a xlink:title=" ">
<path fill="none" stroke="#63b8ff" d="M304.45,-111.63C307.34,-111.07 310.22,-110.52 313,-110 406.52,-92.56 430.48,-91.44 524,-74 524.1,-73.98 524.2,-73.96 524.3,-73.94"/>
<polygon fill="#63b8ff" stroke="#63b8ff" points="524.76,-77.42 533.92,-72.1 523.44,-70.55 524.76,-77.42"/>
</a>
</g>
</g>
<!-- Node24 -->
<g id="Node000024" class="node">
<title>Node24</title>
<g id="a_Node000024"><a xlink:title=" ">
<polygon fill="#e0e0e0" stroke="#999999" points="174,-74 142,-74 142,-55 174,-55 174,-74"/>
<text text-anchor="middle" x="158" y="-62" font-family="Helvetica,sans-Serif" font-size="10.00">list</text>
</a>
</g>
</g>
<!-- Node22&#45;&gt;Node24 -->
<g id="edge24_Node000022_Node000024" class="edge">
<title>Node22&#45;&gt;Node24</title>
<g id="a_edge24_Node000022_Node000024"><a xlink:title=" ">
<path fill="none" stroke="#63b8ff" d="M252.84,-109.98C234.1,-101.19 204.7,-87.4 183.6,-77.51"/>
<polygon fill="#63b8ff" stroke="#63b8ff" points="184.82,-74.21 174.28,-73.13 181.84,-80.55 184.82,-74.21"/>
</a>
</g>
</g>
<!-- Node25 -->
<g id="Node000025" class="node">
<title>Node25</title>
<g id="a_Node000025"><a xlink:title=" ">
<polygon fill="#e0e0e0" stroke="#999999" points="250,-74 192,-74 192,-55 250,-55 250,-74"/>
<text text-anchor="middle" x="221" y="-62" font-family="Helvetica,sans-Serif" font-size="10.00">memory</text>
</a>
</g>
</g>
<!-- Node22&#45;&gt;Node25 -->
<g id="edge25_Node000022_Node000025" class="edge">
<title>Node22&#45;&gt;Node25</title>
<g id="a_edge25_Node000022_Node000025"><a xlink:title=" ">
<path fill="none" stroke="#63b8ff" d="M262.74,-109.75C255.54,-102.11 244.89,-90.82 236.15,-81.56"/>
<polygon fill="#63b8ff" stroke="#63b8ff" points="238.51,-78.96 229.1,-74.09 233.42,-83.76 238.51,-78.96"/>
</a>
</g>
</g>
<!-- Node26 -->
<g id="Node000026" class="node">
<title>Node26</title>
<g id="a_Node000026"><a xlink:title=" ">
<polygon fill="#e0e0e0" stroke="#999999" points="373.5,-74 268.5,-74 268.5,-55 373.5,-55 373.5,-74"/>
<text text-anchor="middle" x="321" y="-62" font-family="Helvetica,sans-Serif" font-size="10.00">memory_resource</text>
</a>
</g>
</g>
<!-- Node22&#45;&gt;Node26 -->
<g id="edge26_Node000022_Node000026" class="edge">
<title>Node22&#45;&gt;Node26</title>
<g id="a_edge26_Node000022_Node000026"><a xlink:title=" ">
<path fill="none" stroke="#63b8ff" d="M279.26,-109.75C286.46,-102.11 297.11,-90.82 305.85,-81.56"/>
<polygon fill="#63b8ff" stroke="#63b8ff" points="308.58,-83.76 312.9,-74.09 303.49,-78.96 308.58,-83.76"/>
</a>
</g>
</g>
<!-- Node27 -->
<g id="Node000027" class="node">
<title>Node27</title>
<g id="a_Node000027"><a xlink:title=" ">
<polygon fill="#e0e0e0" stroke="#999999" points="428.5,-74 391.5,-74 391.5,-55 428.5,-55 428.5,-74"/>
<text text-anchor="middle" x="410" y="-62" font-family="Helvetica,sans-Serif" font-size="10.00">new</text>
</a>
</g>
</g>
<!-- Node22&#45;&gt;Node27 -->
<g id="edge27_Node000022_Node000027" class="edge">
<title>Node22&#45;&gt;Node27</title>
<g id="a_edge27_Node000022_Node000027"><a xlink:title=" ">
<path fill="none" stroke="#63b8ff" d="M293.33,-109.98C317.42,-100.8 355.83,-86.16 381.94,-76.2"/>
<polygon fill="#63b8ff" stroke="#63b8ff" points="383.19,-79.47 391.29,-72.63 380.7,-72.93 383.19,-79.47"/>
</a>
</g>
</g>
<!-- Node28 -->
<g id="Node000028" class="node">
<title>Node28</title>
<g id="a_Node000028"><a xlink:title=" ">
<polygon fill="#e0e0e0" stroke="#999999" points="515.5,-74 446.5,-74 446.5,-55 515.5,-55 515.5,-74"/>
<text text-anchor="middle" x="481" y="-62" font-family="Helvetica,sans-Serif" font-size="10.00">type_traits</text>
</a>
</g>
</g>
<!-- Node22&#45;&gt;Node28 -->
<g id="edge28_Node000022_Node000028" class="edge">
<title>Node22&#45;&gt;Node28</title>
<g id="a_edge28_Node000022_Node000028"><a xlink:title=" ">
<path fill="none" stroke="#63b8ff" d="M304.28,-110.1C340.24,-101.03 397.7,-86.52 437.28,-76.53"/>
<polygon fill="#63b8ff" stroke="#63b8ff" points="438.35,-79.87 447.19,-74.03 436.63,-73.09 438.35,-79.87"/>
</a>
</g>
</g>
<!-- Node29 -->
<g id="Node000029" class="node">
<title>Node29</title>
<g id="a_Node000029"><a xlink:href="assert_8h.html" target="_top" xlink:title=" ">
<polygon fill="white" stroke="#666666" points="748,-74 680,-74 680,-55 748,-55 748,-74"/>
<text text-anchor="middle" x="714" y="-62" font-family="Helvetica,sans-Serif" font-size="10.00">fe/assert.h</text>
</a>
</g>
</g>
<!-- Node22&#45;&gt;Node29 -->
<g id="edge30_Node000022_Node000029" class="edge">
<title>Node22&#45;&gt;Node29</title>
<g id="a_edge30_Node000022_Node000029"><a xlink:title=" ">
<path fill="none" stroke="#63b8ff" d="M304.42,-111.43C307.31,-110.91 310.2,-110.42 313,-110 467.88,-86.6 511.07,-97.08 669.67,-74.06"/>
<polygon fill="#63b8ff" stroke="#63b8ff" points="670.4,-77.49 679.78,-72.57 669.38,-70.56 670.4,-77.49"/>
</a>
</g>
</g>
<!-- Node29&#45;&gt;Node16 -->
<g id="edge31_Node000029_Node000016" class="edge">
<title>Node29&#45;&gt;Node16</title>
<g id="a_edge31_Node000029_Node000016"><a xlink:title=" ">
<path fill="none" stroke="#63b8ff" d="M679.76,-56.59C676.8,-56.04 673.85,-55.5 671,-55 579.49,-38.97 471.21,-23.26 416.12,-15.51"/>
<polygon fill="#63b8ff" stroke="#63b8ff" points="416.54,-12.03 406.15,-14.11 415.56,-18.97 416.54,-12.03"/>
</a>
</g>
</g>
<!-- Node30 -->
<g id="Node000030" class="node">
<title>Node30</title>
<g id="a_Node000030"><a xlink:title=" ">
<polygon fill="#e0e0e0" stroke="#999999" points="738.5,-19 689.5,-19 689.5,0 738.5,0 738.5,-19"/>
<text text-anchor="middle" x="714" y="-7" font-family="Helvetica,sans-Serif" font-size="10.00">cstdlib</text>
</a>
</g>
</g>
<!-- Node29&#45;&gt;Node30 -->
<g id="edge32_Node000029_Node000030" class="edge">
<title>Node29&#45;&gt;Node30</title>
<g id="a_edge32_Node000029_Node000030"><a xlink:title=" ">
<path fill="none" stroke="#63b8ff" d="M714,-54.75C714,-47.8 714,-37.85 714,-29.13"/>
<polygon fill="#63b8ff" stroke="#63b8ff" points="717.5,-29.09 714,-19.09 710.5,-29.09 717.5,-29.09"/>
</a>
</g>
</g>
<!-- Node31&#45;&gt;Node7 -->
<g id="edge36_Node000031_Node000007" class="edge">
<title>Node31&#45;&gt;Node7</title>
<g id="a_edge36_Node000031_Node000007"><a xlink:title=" ">
<path fill="none" stroke="#63b8ff" d="M783.73,-219.75C778.41,-212.34 770.64,-201.5 764.12,-192.41"/>
<polygon fill="#63b8ff" stroke="#63b8ff" points="766.83,-190.18 758.16,-184.09 761.14,-194.26 766.83,-190.18"/>
</a>
</g>
</g>
<!-- Node31&#45;&gt;Node29 -->
<g id="edge37_Node000031_Node000029" class="edge">
<title>Node31&#45;&gt;Node29</title>
<g id="a_edge37_Node000031_Node000029"><a xlink:title=" ">
<path fill="none" stroke="#63b8ff" d="M791.75,-219.58C793.83,-207.03 796.29,-183.59 790,-165 778.42,-130.77 749.83,-99.03 731.2,-80.99"/>
<polygon fill="#63b8ff" stroke="#63b8ff" points="733.59,-78.43 723.91,-74.13 728.8,-83.53 733.59,-78.43"/>
</a>
</g>
</g>
<!-- Node32 -->
<g id="Node000032" class="node">
<title>Node32</title>
<g id="a_Node000032"><a xlink:title=" ">
<polygon fill="#e0e0e0" stroke="#999999" points="886.5,-184 837.5,-184 837.5,-165 886.5,-165 886.5,-184"/>
<text text-anchor="middle" x="862" y="-172" font-family="Helvetica,sans-Serif" font-size="10.00">cctype</text>
</a>
</g>
</g>
<!-- Node31&#45;&gt;Node32 -->
<g id="edge34_Node000031_Node000032" class="edge">
<title>Node31&#45;&gt;Node32</title>
<g id="a_edge34_Node000031_Node000032"><a xlink:title=" ">
<path fill="none" stroke="#63b8ff" d="M801.57,-219.98C812.42,-212 828.88,-199.88 841.88,-190.31"/>
<polygon fill="#63b8ff" stroke="#63b8ff" points="844.24,-192.92 850.22,-184.17 840.09,-187.28 844.24,-192.92"/>
</a>
</g>
</g>
<!-- Node33 -->
<g id="Node000033" class="node">
<title>Node33</title>
<g id="a_Node000033"><a xlink:title=" ">
<polygon fill="#e0e0e0" stroke="#999999" points="959,-184 905,-184 905,-165 959,-165 959,-184"/>
<text text-anchor="middle" x="932" y="-172" font-family="Helvetica,sans-Serif" font-size="10.00">istream</text>
</a>
</g>
</g>
<!-- Node31&#45;&gt;Node33 -->
<g id="edge35_Node000031_Node000033" class="edge">
<title>Node31&#45;&gt;Node33</title>
<g id="a_edge35_Node000031_Node000033"><a xlink:title=" ">
<path fill="none" stroke="#63b8ff" d="M812.81,-219.98C836.17,-211.27 872.7,-197.63 899.17,-187.75"/>
<polygon fill="#63b8ff" stroke="#63b8ff" points="900.63,-190.95 908.77,-184.17 898.18,-184.39 900.63,-190.95"/>
</a>
</g>
</g>
</g>
</svg>
