<?xml version="1.0" encoding="UTF-8" standalone="no"?>
<!DOCTYPE svg PUBLIC "-//W3C//DTD SVG 1.1//EN"
 "http://www.w3.org/Graphics/SVG/1.1/DTD/svg11.dtd">
<!-- Generated by graphviz version 2.43.0 (0)
 -->
<!-- Title: fe/loc.h Pages: 1 -->
<svg width="641pt" height="247pt"
 viewBox="0.00 0.00 640.85 247.00" xmlns="http://www.w3.org/2000/svg" xmlns:xlink="http://www.w3.org/1999/xlink">
<g id="graph0" class="graph" transform="scale(1 1) rotate(0) translate(4 243)">
<title>fe/loc.h</title>
<!-- Node1 -->
<g id="Node000001" class="node">
<title>Node1</title>
<g id="a_Node000001"><a xlink:title=" ">
<polygon fill="#999999" stroke="#666666" points="179.35,-239 126.35,-239 126.35,-220 179.35,-220 179.35,-239"/>
<text text-anchor="middle" x="152.85" y="-227" font-family="Helvetica,sans-Serif" font-size="10.00">fe/loc.h</text>
</a>
</g>
</g>
<!-- Node2 -->
<g id="Node000002" class="node">
<title>Node2</title>
<g id="a_Node000002"><a xlink:title=" ">
<polygon fill="#e0e0e0" stroke="#999999" points="145.85,-184 77.85,-184 77.85,-165 145.85,-165 145.85,-184"/>
<text text-anchor="middle" x="111.85" y="-172" font-family="Helvetica,sans-Serif" font-size="10.00">filesystem</text>
</a>
</g>
</g>
<!-- Node1&#45;&gt;Node2 -->
<g id="edge1_Node000001_Node000002" class="edge">
<title>Node1&#45;&gt;Node2</title>
<g id="a_edge1_Node000001_Node000002"><a xlink:title=" ">
<path fill="none" stroke="#63b8ff" d="M146.08,-219.75C140.29,-212.26 131.79,-201.28 124.71,-192.13"/>
<polygon fill="#63b8ff" stroke="#63b8ff" points="127.38,-189.86 118.49,-184.09 121.84,-194.14 127.38,-189.86"/>
</a>
</g>
</g>
<!-- Node3 -->
<g id="Node000003" class="node">
<title>Node3</title>
<g id="a_Node000003"><a xlink:href="sym_8h.html" target="_top" xlink:title=" ">
<polygon fill="white" stroke="#666666" points="223.35,-184 164.35,-184 164.35,-165 223.35,-165 223.35,-184"/>
<text text-anchor="middle" x="193.85" y="-172" font-family="Helvetica,sans-Serif" font-size="10.00">fe/sym.h</text>
</a>
</g>
</g>
<!-- Node1&#45;&gt;Node3 -->
<g id="edge2_Node000001_Node000003" class="edge">
<title>Node1&#45;&gt;Node3</title>
<g id="a_edge2_Node000001_Node000003"><a xlink:title=" ">
<path fill="none" stroke="#63b8ff" d="M159.62,-219.75C165.41,-212.26 173.91,-201.28 180.99,-192.13"/>
<polygon fill="#63b8ff" stroke="#63b8ff" points="183.85,-194.14 187.2,-184.09 178.32,-189.86 183.85,-194.14"/>
</a>
</g>
</g>
<!-- Node4 -->
<g id="Node000004" class="node">
<title>Node4</title>
<g id="a_Node000004"><a xlink:title=" ">
<polygon fill="#e0e0e0" stroke="#999999" points="317.85,-19 265.85,-19 265.85,0 317.85,0 317.85,-19"/>
<text text-anchor="middle" x="291.85" y="-7" font-family="Helvetica,sans-Serif" font-size="10.00">cassert</text>
</a>
</g>
</g>
<!-- Node3&#45;&gt;Node4 -->
<g id="edge3_Node000003_Node000004" class="edge">
<title>Node3&#45;&gt;Node4</title>
<g id="a_edge3_Node000003_Node000004"><a xlink:title=" ">
<path fill="none" stroke="#63b8ff" d="M164.22,-167.05C111.44,-155.5 6.37,-132.18 3.85,-129 -1.4,-122.38 -1.05,-116.88 3.85,-110 62.03,-28.34 191.93,-13.06 255.45,-10.63"/>
<polygon fill="#63b8ff" stroke="#63b8ff" points="255.89,-14.11 265.79,-10.32 255.69,-7.12 255.89,-14.11"/>
</a>
</g>
</g>
<!-- Node5 -->
<g id="Node000005" class="node">
<title>Node5</title>
<g id="a_Node000005"><a xlink:title=" ">
<polygon fill="#e0e0e0" stroke="#999999" points="62.85,-129 12.85,-129 12.85,-110 62.85,-110 62.85,-129"/>
<text text-anchor="middle" x="37.85" y="-117" font-family="Helvetica,sans-Serif" font-size="10.00">cstring</text>
</a>
</g>
</g>
<!-- Node3&#45;&gt;Node5 -->
<g id="edge4_Node000003_Node000005" class="edge">
<title>Node3&#45;&gt;Node5</title>
<g id="a_edge4_Node000003_Node000005"><a xlink:title=" ">
<path fill="none" stroke="#63b8ff" d="M168.78,-164.98C142.74,-156.14 101.8,-142.23 72.63,-132.32"/>
<polygon fill="#63b8ff" stroke="#63b8ff" points="73.44,-128.9 62.85,-128.99 71.19,-135.53 73.44,-128.9"/>
</a>
</g>
</g>
<!-- Node6 -->
<g id="Node000006" class="node">
<title>Node6</title>
<g id="a_Node000006"><a xlink:title=" ">
<polygon fill="#e0e0e0" stroke="#999999" points="110.35,-129 81.35,-129 81.35,-110 110.35,-110 110.35,-129"/>
<text text-anchor="middle" x="95.85" y="-117" font-family="Helvetica,sans-Serif" font-size="10.00">bit</text>
</a>
</g>
</g>
<!-- Node3&#45;&gt;Node6 -->
<g id="edge5_Node000003_Node000006" class="edge">
<title>Node3&#45;&gt;Node6</title>
<g id="a_edge5_Node000003_Node000006"><a xlink:title=" ">
<path fill="none" stroke="#63b8ff" d="M178.1,-164.98C162.25,-156.41 137.61,-143.09 119.43,-133.25"/>
<polygon fill="#63b8ff" stroke="#63b8ff" points="121.05,-130.15 110.59,-128.47 117.72,-136.31 121.05,-130.15"/>
</a>
</g>
</g>
<!-- Node7 -->
<g id="Node000007" class="node">
<title>Node7</title>
<g id="a_Node000007"><a xlink:title=" ">
<polygon fill="#e0e0e0" stroke="#999999" points="188.85,-129 128.85,-129 128.85,-110 188.85,-110 188.85,-129"/>
<text text-anchor="middle" x="158.85" y="-117" font-family="Helvetica,sans-Serif" font-size="10.00">iostream</text>
</a>
</g>
</g>
<!-- Node3&#45;&gt;Node7 -->
<g id="edge6_Node000003_Node000007" class="edge">
<title>Node3&#45;&gt;Node7</title>
<g id="a_edge6_Node000003_Node000007"><a xlink:title=" ">
<path fill="none" stroke="#63b8ff" d="M188.07,-164.75C183.23,-157.42 176.17,-146.73 170.2,-137.7"/>
<polygon fill="#63b8ff" stroke="#63b8ff" points="172.95,-135.5 164.52,-129.09 167.11,-139.36 172.95,-135.5"/>
</a>
</g>
</g>
<!-- Node8 -->
<g id="Node000008" class="node">
<title>Node8</title>
<g id="a_Node000008"><a xlink:title=" ">
<polygon fill="#e0e0e0" stroke="#999999" points="250.85,-129 206.85,-129 206.85,-110 250.85,-110 250.85,-129"/>
<text text-anchor="middle" x="228.85" y="-117" font-family="Helvetica,sans-Serif" font-size="10.00">string</text>
</a>
</g>
</g>
<!-- Node3&#45;&gt;Node8 -->
<g id="edge7_Node000003_Node000008" class="edge">
<title>Node3&#45;&gt;Node8</title>
<g id="a_edge7_Node000003_Node000008"><a xlink:title=" ">
<path fill="none" stroke="#63b8ff" d="M199.63,-164.75C204.47,-157.42 211.53,-146.73 217.49,-137.7"/>
<polygon fill="#63b8ff" stroke="#63b8ff" points="220.59,-139.36 223.18,-129.09 214.74,-135.5 220.59,-139.36"/>
</a>
</g>
</g>
<!-- Node9 -->
<g id="Node000009" class="node">
<title>Node9</title>
<g id="a_Node000009"><a xlink:title=" ">
<polygon fill="#e0e0e0" stroke="#999999" points="362.35,-129 269.35,-129 269.35,-110 362.35,-110 362.35,-129"/>
<text text-anchor="middle" x="315.85" y="-117" font-family="Helvetica,sans-Serif" font-size="10.00">unordered_map</text>
</a>
</g>
</g>
<!-- Node3&#45;&gt;Node9 -->
<g id="edge8_Node000003_Node000009" class="edge">
<title>Node3&#45;&gt;Node9</title>
<g id="a_edge8_Node000003_Node000009"><a xlink:title=" ">
<path fill="none" stroke="#63b8ff" d="M213.45,-164.98C233.16,-156.42 263.8,-143.11 286.43,-133.28"/>
<polygon fill="#63b8ff" stroke="#63b8ff" points="288.11,-136.37 295.89,-129.17 285.32,-129.94 288.11,-136.37"/>
</a>
</g>
</g>
<!-- Node10 -->
<g id="Node000010" class="node">
<title>Node10</title>
<g id="a_Node000010"><a xlink:title=" ">
<polygon fill="#e0e0e0" stroke="#999999" points="466.85,-129 380.85,-129 380.85,-110 466.85,-110 466.85,-129"/>
<text text-anchor="middle" x="423.85" y="-117" font-family="Helvetica,sans-Serif" font-size="10.00">unordered_set</text>
</a>
</g>
</g>
<!-- Node3&#45;&gt;Node10 -->
<g id="edge9_Node000003_Node000010" class="edge">
<title>Node3&#45;&gt;Node10</title>
<g id="a_edge9_Node000003_Node000010"><a xlink:title=" ">
<path fill="none" stroke="#63b8ff" d="M223.45,-166.68C262.25,-157.74 330.77,-141.95 376.74,-131.36"/>
<polygon fill="#63b8ff" stroke="#63b8ff" points="377.8,-134.7 386.76,-129.05 376.23,-127.88 377.8,-134.7"/>
</a>
</g>
</g>
<!-- Node11 -->
<g id="Node000011" class="node">
<title>Node11</title>
<g id="a_Node000011"><a xlink:href="arena_8h.html" target="_top" xlink:title=" ">
<polygon fill="white" stroke="#666666" points="550.85,-129 484.85,-129 484.85,-110 550.85,-110 550.85,-129"/>
<text text-anchor="middle" x="517.85" y="-117" font-family="Helvetica,sans-Serif" font-size="10.00">fe/arena.h</text>
</a>
</g>
</g>
<!-- Node3&#45;&gt;Node11 -->
<g id="edge10_Node000003_Node000011" class="edge">
<title>Node3&#45;&gt;Node11</title>
<g id="a_edge10_Node000003_Node000011"><a xlink:title=" ">
<path fill="none" stroke="#63b8ff" d="M223.56,-169.24C273.33,-162.02 376.96,-146.58 474.39,-129.2"/>
<polygon fill="#63b8ff" stroke="#63b8ff" points="475.18,-132.62 484.4,-127.4 473.94,-125.73 475.18,-132.62"/>
</a>
</g>
</g>
<!-- Node12 -->
<g id="Node000012" class="node">
<title>Node12</title>
<g id="a_Node000012"><a xlink:title=" ">
<polygon fill="#e0e0e0" stroke="#999999" points="420.85,-74 356.85,-74 356.85,-55 420.85,-55 420.85,-74"/>
<text text-anchor="middle" x="388.85" y="-62" font-family="Helvetica,sans-Serif" font-size="10.00">algorithm</text>
</a>
</g>
</g>
<!-- Node11&#45;&gt;Node12 -->
<g id="edge11_Node000011_Node000012" class="edge">
<title>Node11&#45;&gt;Node12</title>
<g id="a_edge11_Node000011_Node000012"><a xlink:title=" ">
<path fill="none" stroke="#63b8ff" d="M497.12,-109.98C476.09,-101.34 443.3,-87.87 419.31,-78.02"/>
<polygon fill="#63b8ff" stroke="#63b8ff" points="420.53,-74.73 409.95,-74.17 417.87,-81.21 420.53,-74.73"/>
</a>
</g>
</g>
<!-- Node13 -->
<g id="Node000013" class="node">
<title>Node13</title>
<g id="a_Node000013"><a xlink:title=" ">
<polygon fill="#e0e0e0" stroke="#999999" points="470.85,-74 438.85,-74 438.85,-55 470.85,-55 470.85,-74"/>
<text text-anchor="middle" x="454.85" y="-62" font-family="Helvetica,sans-Serif" font-size="10.00">list</text>
</a>
</g>
</g>
<!-- Node11&#45;&gt;Node13 -->
<g id="edge12_Node000011_Node000013" class="edge">
<title>Node11&#45;&gt;Node13</title>
<g id="a_edge12_Node000011_Node000013"><a xlink:title=" ">
<path fill="none" stroke="#63b8ff" d="M507.73,-109.98C498.41,-102.15 484.38,-90.34 473.11,-80.86"/>
<polygon fill="#63b8ff" stroke="#63b8ff" points="475.06,-77.93 465.15,-74.17 470.55,-83.29 475.06,-77.93"/>
</a>
</g>
</g>
<!-- Node14 -->
<g id="Node000014" class="node">
<title>Node14</title>
<g id="a_Node000014"><a xlink:title=" ">
<polygon fill="#e0e0e0" stroke="#999999" points="546.85,-74 488.85,-74 488.85,-55 546.85,-55 546.85,-74"/>
<text text-anchor="middle" x="517.85" y="-62" font-family="Helvetica,sans-Serif" font-size="10.00">memory</text>
</a>
</g>
</g>
<!-- Node11&#45;&gt;Node14 -->
<g id="edge13_Node000011_Node000014" class="edge">
<title>Node11&#45;&gt;Node14</title>
<g id="a_edge13_Node000011_Node000014"><a xlink:title=" ">
<path fill="none" stroke="#63b8ff" d="M517.85,-109.75C517.85,-102.8 517.85,-92.85 517.85,-84.13"/>
<polygon fill="#63b8ff" stroke="#63b8ff" points="521.35,-84.09 517.85,-74.09 514.35,-84.09 521.35,-84.09"/>
</a>
</g>
</g>
<!-- Node15 -->
<g id="Node000015" class="node">
<title>Node15</title>
<g id="a_Node000015"><a xlink:href="assert_8h.html" target="_top" xlink:title=" ">
<polygon fill="white" stroke="#666666" points="632.85,-74 564.85,-74 564.85,-55 632.85,-55 632.85,-74"/>
<text text-anchor="middle" x="598.85" y="-62" font-family="Helvetica,sans-Serif" font-size="10.00">fe/assert.h</text>
</a>
</g>
</g>
<!-- Node11&#45;&gt;Node15 -->
<g id="edge14_Node000011_Node000015" class="edge">
<title>Node11&#45;&gt;Node15</title>
<g id="a_edge14_Node000011_Node000015"><a xlink:title=" ">
<path fill="none" stroke="#63b8ff" d="M530.86,-109.98C543.31,-101.84 562.3,-89.41 577.06,-79.76"/>
<polygon fill="#63b8ff" stroke="#63b8ff" points="579.15,-82.57 585.6,-74.17 575.31,-76.72 579.15,-82.57"/>
</a>
</g>
</g>
<!-- Node15&#45;&gt;Node4 -->
<g id="edge15_Node000015_Node000004" class="edge">
<title>Node15&#45;&gt;Node4</title>
<g id="a_edge15_Node000015_Node000004"><a xlink:title=" ">
<path fill="none" stroke="#63b8ff" d="M564.6,-56.64C561.64,-56.07 558.69,-55.52 555.85,-55 474.75,-40.15 379.29,-24.52 328.3,-16.31"/>
<polygon fill="#63b8ff" stroke="#63b8ff" points="328.55,-12.81 318.12,-14.68 327.44,-19.72 328.55,-12.81"/>
</a>
</g>
</g>
</g>
</svg>
