<?xml version="1.0" encoding="UTF-8" standalone="no"?>
<!DOCTYPE svg PUBLIC "-//W3C//DTD SVG 1.1//EN"
 "http://www.w3.org/Graphics/SVG/1.1/DTD/svg11.dtd">
<!-- Generated by graphviz version 2.43.0 (0)
 -->
<!-- Title: fe/loc.cpp.h Pages: 1 -->
<!--zoomable 357 -->

<svg id="main" version="1.1" xmlns="http://www.w3.org/2000/svg" xmlns:xlink="http://www.w3.org/1999/xlink" xml:space="preserve" onload="init(evt)">
<style type="text/css"><![CDATA[
.node, .edge {opacity: 0.7;}
.node.selected, .edge.selected {opacity: 1;}
.edge:hover path { stroke: red; }
.edge:hover polygon { stroke: red; fill: red; }
]]></style>

<defs>
  <circle id="rim" cx="0" cy="0" r="7"/>
  <circle id="rim2" cx="0" cy="0" r="3.5"/>
  <g id="zoomPlus">
    <use xlink:href="#rim" fill="#404040"><set attributeName="fill" to="#808080" begin="zoomplus.mouseover" end="zoomplus.mouseout"/></use>
    <path d="M-4,0h8M0,-4v8" fill="none" stroke="white" stroke-width="1.5" pointer-events="none"/>
  </g>
  <g id="zoomMin">
    <use xlink:href="#rim" fill="#404040"><set attributeName="fill" to="#808080" begin="zoomminus.mouseover" end="zoomminus.mouseout"/></use>
    <path d="M-4,0h8" fill="none" stroke="white" stroke-width="1.5" pointer-events="none"/>
  </g>
  <g id="arrowUp" transform="translate(30 24)">
    <use xlink:href="#rim"/>
    <path pointer-events="none" fill="none" stroke="white" stroke-width="1.5" d="M0,-3.0v7 M-2.5,-0.5L0,-3.0L2.5,-0.5"/>
  </g>
  <g id="arrowRight" transform="rotate(90) translate(36 -43)">
    <use xlink:href="#rim"/>
    <path pointer-events="none" fill="none" stroke="white" stroke-width="1.5" d="M0,-3.0v7 M-2.5,-0.5L0,-3.0L2.5,-0.5"/>
  </g>
  <g id="arrowDown" transform="rotate(180) translate(-30 -48)">
    <use xlink:href="#rim"/>
    <path pointer-events="none" fill="none" stroke="white" stroke-width="1.5" d="M0,-3.0v7 M-2.5,-0.5L0,-3.0L2.5,-0.5"/>
  </g>
  <g id="arrowLeft" transform="rotate(270) translate(-36 17)">
    <use xlink:href="#rim"/>
    <path pointer-events="none" fill="none" stroke="white" stroke-width="1.5" d="M0,-3.0v7 M-2.5,-0.5L0,-3.0L2.5,-0.5"/>
  </g>
  <g id="resetDef">
    <use xlink:href="#rim2" fill="#404040"><set attributeName="fill" to="#808080" begin="reset.mouseover" end="reset.mouseout"/></use>
  </g>
</defs>
<script type="application/ecmascript">
var viewWidth = 828;
var viewHeight = 357;
var sectionId = 'dynsection-0';
</script>
<script type="application/ecmascript" xlink:href="svg.min.js"/>
<svg id="graph" class="graph">
<g id="viewport">
<title>fe/loc.cpp.h</title>
<!-- Node1 -->
<g id="Node000001" class="node">
<title>Node1</title>
<g id="a_Node000001"><a xlink:title=" ">
<polygon fill="#999999" stroke="#666666" points="313.45,-349 240.45,-349 240.45,-330 313.45,-330 313.45,-349"/>
<text text-anchor="middle" x="276.95" y="-337" font-family="Helvetica,sans-Serif" font-size="10.00">fe/loc.cpp.h</text>
</a>
</g>
</g>
<!-- Node2 -->
<g id="Node000002" class="node">
<title>Node2</title>
<g id="a_Node000002"><a xlink:href="loc_8h.html" target="_top" xlink:title=" ">
<polygon fill="white" stroke="#666666" points="261.45,-239 208.45,-239 208.45,-220 261.45,-220 261.45,-239"/>
<text text-anchor="middle" x="234.95" y="-227" font-family="Helvetica,sans-Serif" font-size="10.00">fe/loc.h</text>
</a>
</g>
</g>
<!-- Node1&#45;&gt;Node2 -->
<g id="edge1_Node000001_Node000002" class="edge">
<title>Node1&#45;&gt;Node2</title>
<g id="a_edge1_Node000001_Node000002"><a xlink:title=" ">
<path fill="none" stroke="#63b8ff" d="M273.51,-329.66C266.65,-312.01 251.12,-272.09 242,-248.64"/>
<polygon fill="#63b8ff" stroke="#63b8ff" points="245.2,-247.21 238.31,-239.16 238.68,-249.75 245.2,-247.21"/>
</a>
</g>
</g>
<!-- Node17 -->
<g id="Node000017" class="node">
<title>Node17</title>
<g id="a_Node000017"><a xlink:href="format_8h.html" target="_top" xlink:title=" ">
<polygon fill="white" stroke="#666666" points="349.45,-294 278.45,-294 278.45,-275 349.45,-275 349.45,-294"/>
<text text-anchor="middle" x="313.95" y="-282" font-family="Helvetica,sans-Serif" font-size="10.00">fe/format.h</text>
</a>
</g>
</g>
<!-- Node1&#45;&gt;Node17 -->
<g id="edge17_Node000001_Node000017" class="edge">
<title>Node1&#45;&gt;Node17</title>
<g id="a_edge17_Node000001_Node000017"><a xlink:title=" ">
<path fill="none" stroke="#63b8ff" d="M283.06,-329.75C288.23,-322.34 295.79,-311.5 302.14,-302.41"/>
<polygon fill="#63b8ff" stroke="#63b8ff" points="305.1,-304.29 307.95,-294.09 299.36,-300.29 305.1,-304.29"/>
</a>
</g>
</g>
<!-- Node3 -->
<g id="Node000003" class="node">
<title>Node3</title>
<g id="a_Node000003"><a xlink:title=" ">
<polygon fill="#e0e0e0" stroke="#999999" points="186.95,-184 118.95,-184 118.95,-165 186.95,-165 186.95,-184"/>
<text text-anchor="middle" x="152.95" y="-172" font-family="Helvetica,sans-Serif" font-size="10.00">filesystem</text>
</a>
</g>
</g>
<!-- Node2&#45;&gt;Node3 -->
<g id="edge2_Node000002_Node000003" class="edge">
<title>Node2&#45;&gt;Node3</title>
<g id="a_edge2_Node000002_Node000003"><a xlink:title=" ">
<path fill="none" stroke="#63b8ff" d="M221.77,-219.98C209.18,-211.84 189.94,-199.41 175.01,-189.76"/>
<polygon fill="#63b8ff" stroke="#63b8ff" points="176.66,-186.66 166.36,-184.17 172.86,-192.54 176.66,-186.66"/>
</a>
</g>
</g>
<!-- Node4 -->
<g id="Node000004" class="node">
<title>Node4</title>
<g id="a_Node000004"><a xlink:href="sym_8h.html" target="_top" xlink:title=" ">
<polygon fill="white" stroke="#666666" points="264.45,-184 205.45,-184 205.45,-165 264.45,-165 264.45,-184"/>
<text text-anchor="middle" x="234.95" y="-172" font-family="Helvetica,sans-Serif" font-size="10.00">fe/sym.h</text>
</a>
</g>
</g>
<!-- Node2&#45;&gt;Node4 -->
<g id="edge3_Node000002_Node000004" class="edge">
<title>Node2&#45;&gt;Node4</title>
<g id="a_edge3_Node000002_Node000004"><a xlink:title=" ">
<path fill="none" stroke="#63b8ff" d="M234.95,-219.75C234.95,-212.8 234.95,-202.85 234.95,-194.13"/>
<polygon fill="#63b8ff" stroke="#63b8ff" points="238.45,-194.09 234.95,-184.09 231.45,-194.09 238.45,-194.09"/>
</a>
</g>
</g>
<!-- Node5 -->
<g id="Node000005" class="node">
<title>Node5</title>
<g id="a_Node000005"><a xlink:title=" ">
<polygon fill="#e0e0e0" stroke="#999999" points="313.95,-19 261.95,-19 261.95,0 313.95,0 313.95,-19"/>
<text text-anchor="middle" x="287.95" y="-7" font-family="Helvetica,sans-Serif" font-size="10.00">cassert</text>
</a>
</g>
</g>
<!-- Node4&#45;&gt;Node5 -->
<g id="edge4_Node000004_Node000005" class="edge">
<title>Node4&#45;&gt;Node5</title>
<g id="a_edge4_Node000004_Node000005"><a xlink:title=" ">
<path fill="none" stroke="#63b8ff" d="M205.15,-166.93C202.05,-166.27 198.93,-165.61 195.95,-165 111.51,-147.63 -39.69,-180.48 9.95,-110 65.61,-30.96 190.13,-14.37 251.85,-11.12"/>
<polygon fill="#63b8ff" stroke="#63b8ff" points="252.07,-14.62 261.9,-10.68 251.76,-7.62 252.07,-14.62"/>
</a>
</g>
</g>
<!-- Node6 -->
<g id="Node000006" class="node">
<title>Node6</title>
<g id="a_Node000006"><a xlink:title=" ">
<polygon fill="#e0e0e0" stroke="#999999" points="68.95,-129 18.95,-129 18.95,-110 68.95,-110 68.95,-129"/>
<text text-anchor="middle" x="43.95" y="-117" font-family="Helvetica,sans-Serif" font-size="10.00">cstring</text>
</a>
</g>
</g>
<!-- Node4&#45;&gt;Node6 -->
<g id="edge5_Node000004_Node000006" class="edge">
<title>Node4&#45;&gt;Node6</title>
<g id="a_edge5_Node000004_Node000006"><a xlink:title=" ">
<path fill="none" stroke="#63b8ff" d="M205.1,-165.22C171.01,-155.76 115.29,-140.3 79.12,-130.26"/>
<polygon fill="#63b8ff" stroke="#63b8ff" points="79.59,-126.76 69.01,-127.46 77.72,-133.5 79.59,-126.76"/>
</a>
</g>
</g>
<!-- Node7 -->
<g id="Node000007" class="node">
<title>Node7</title>
<g id="a_Node000007"><a xlink:title=" ">
<polygon fill="#e0e0e0" stroke="#999999" points="116.45,-129 87.45,-129 87.45,-110 116.45,-110 116.45,-129"/>
<text text-anchor="middle" x="101.95" y="-117" font-family="Helvetica,sans-Serif" font-size="10.00">bit</text>
</a>
</g>
</g>
<!-- Node4&#45;&gt;Node7 -->
<g id="edge6_Node000004_Node000007" class="edge">
<title>Node4&#45;&gt;Node7</title>
<g id="a_edge6_Node000004_Node000007"><a xlink:title=" ">
<path fill="none" stroke="#63b8ff" d="M213.58,-164.98C189.7,-155.47 151.12,-140.1 126.15,-130.14"/>
<polygon fill="#63b8ff" stroke="#63b8ff" points="127.26,-126.82 116.67,-126.37 124.67,-133.32 127.26,-126.82"/>
</a>
</g>
</g>
<!-- Node8 -->
<g id="Node000008" class="node">
<title>Node8</title>
<g id="a_Node000008"><a xlink:title=" ">
<polygon fill="#e0e0e0" stroke="#999999" points="194.95,-129 134.95,-129 134.95,-110 194.95,-110 194.95,-129"/>
<text text-anchor="middle" x="164.95" y="-117" font-family="Helvetica,sans-Serif" font-size="10.00">iostream</text>
</a>
</g>
</g>
<!-- Node4&#45;&gt;Node8 -->
<g id="edge7_Node000004_Node000008" class="edge">
<title>Node4&#45;&gt;Node8</title>
<g id="a_edge7_Node000004_Node000008"><a xlink:title=" ">
<path fill="none" stroke="#63b8ff" d="M223.7,-164.98C213.15,-157 197.15,-144.88 184.5,-135.31"/>
<polygon fill="#63b8ff" stroke="#63b8ff" points="186.48,-132.42 176.4,-129.17 182.26,-138 186.48,-132.42"/>
</a>
</g>
</g>
<!-- Node9 -->
<g id="Node000009" class="node">
<title>Node9</title>
<g id="a_Node000009"><a xlink:title=" ">
<polygon fill="#e0e0e0" stroke="#999999" points="256.95,-129 212.95,-129 212.95,-110 256.95,-110 256.95,-129"/>
<text text-anchor="middle" x="234.95" y="-117" font-family="Helvetica,sans-Serif" font-size="10.00">string</text>
</a>
</g>
</g>
<!-- Node4&#45;&gt;Node9 -->
<g id="edge8_Node000004_Node000009" class="edge">
<title>Node4&#45;&gt;Node9</title>
<g id="a_edge8_Node000004_Node000009"><a xlink:title=" ">
<path fill="none" stroke="#63b8ff" d="M234.95,-164.75C234.95,-157.8 234.95,-147.85 234.95,-139.13"/>
<polygon fill="#63b8ff" stroke="#63b8ff" points="238.45,-139.09 234.95,-129.09 231.45,-139.09 238.45,-139.09"/>
</a>
</g>
</g>
<!-- Node10 -->
<g id="Node000010" class="node">
<title>Node10</title>
<g id="a_Node000010"><a xlink:title=" ">
<polygon fill="#e0e0e0" stroke="#999999" points="368.45,-129 275.45,-129 275.45,-110 368.45,-110 368.45,-129"/>
<text text-anchor="middle" x="321.95" y="-117" font-family="Helvetica,sans-Serif" font-size="10.00">unordered_map</text>
</a>
</g>
</g>
<!-- Node4&#45;&gt;Node10 -->
<g id="edge9_Node000004_Node000010" class="edge">
<title>Node4&#45;&gt;Node10</title>
<g id="a_edge9_Node000004_Node000010"><a xlink:title=" ">
<path fill="none" stroke="#63b8ff" d="M248.93,-164.98C262.42,-156.77 283.08,-144.18 298.99,-134.49"/>
<polygon fill="#63b8ff" stroke="#63b8ff" points="301,-137.36 307.71,-129.17 297.35,-131.38 301,-137.36"/>
</a>
</g>
</g>
<!-- Node11 -->
<g id="Node000011" class="node">
<title>Node11</title>
<g id="a_Node000011"><a xlink:title=" ">
<polygon fill="#e0e0e0" stroke="#999999" points="472.95,-129 386.95,-129 386.95,-110 472.95,-110 472.95,-129"/>
<text text-anchor="middle" x="429.95" y="-117" font-family="Helvetica,sans-Serif" font-size="10.00">unordered_set</text>
</a>
</g>
</g>
<!-- Node4&#45;&gt;Node11 -->
<g id="edge10_Node000004_Node000011" class="edge">
<title>Node4&#45;&gt;Node11</title>
<g id="a_edge10_Node000004_Node000011"><a xlink:title=" ">
<path fill="none" stroke="#63b8ff" d="M264.56,-165.45C297.58,-156.48 351.21,-141.9 388.41,-131.79"/>
<polygon fill="#63b8ff" stroke="#63b8ff" points="389.7,-135.07 398.43,-129.07 387.86,-128.31 389.7,-135.07"/>
</a>
</g>
</g>
<!-- Node12 -->
<g id="Node000012" class="node">
<title>Node12</title>
<g id="a_Node000012"><a xlink:href="arena_8h.html" target="_top" xlink:title=" ">
<polygon fill="white" stroke="#666666" points="556.95,-129 490.95,-129 490.95,-110 556.95,-110 556.95,-129"/>
<text text-anchor="middle" x="523.95" y="-117" font-family="Helvetica,sans-Serif" font-size="10.00">fe/arena.h</text>
</a>
</g>
</g>
<!-- Node4&#45;&gt;Node12 -->
<g id="edge11_Node000004_Node000012" class="edge">
<title>Node4&#45;&gt;Node12</title>
<g id="a_edge11_Node000004_Node000012"><a xlink:title=" ">
<path fill="none" stroke="#63b8ff" d="M264.64,-168.36C309.3,-160.59 396.65,-145.21 480.95,-129.16"/>
<polygon fill="#63b8ff" stroke="#63b8ff" points="481.78,-132.56 490.95,-127.25 480.47,-125.69 481.78,-132.56"/>
</a>
</g>
</g>
<!-- Node13 -->
<g id="Node000013" class="node">
<title>Node13</title>
<g id="a_Node000013"><a xlink:title=" ">
<polygon fill="#e0e0e0" stroke="#999999" points="421.95,-74 357.95,-74 357.95,-55 421.95,-55 421.95,-74"/>
<text text-anchor="middle" x="389.95" y="-62" font-family="Helvetica,sans-Serif" font-size="10.00">algorithm</text>
</a>
</g>
</g>
<!-- Node12&#45;&gt;Node13 -->
<g id="edge12_Node000012_Node000013" class="edge">
<title>Node12&#45;&gt;Node13</title>
<g id="a_edge12_Node000012_Node000013"><a xlink:title=" ">
<path fill="none" stroke="#63b8ff" d="M502.42,-109.98C480.47,-101.3 446.21,-87.75 421.26,-77.88"/>
<polygon fill="#63b8ff" stroke="#63b8ff" points="422.45,-74.59 411.87,-74.17 419.88,-81.1 422.45,-74.59"/>
</a>
</g>
</g>
<!-- Node14 -->
<g id="Node000014" class="node">
<title>Node14</title>
<g id="a_Node000014"><a xlink:title=" ">
<polygon fill="#e0e0e0" stroke="#999999" points="471.95,-74 439.95,-74 439.95,-55 471.95,-55 471.95,-74"/>
<text text-anchor="middle" x="455.95" y="-62" font-family="Helvetica,sans-Serif" font-size="10.00">list</text>
</a>
</g>
</g>
<!-- Node12&#45;&gt;Node14 -->
<g id="edge13_Node000012_Node000014" class="edge">
<title>Node12&#45;&gt;Node14</title>
<g id="a_edge13_Node000012_Node000014"><a xlink:title=" ">
<path fill="none" stroke="#63b8ff" d="M513.02,-109.98C502.87,-102.07 487.52,-90.11 475.3,-80.58"/>
<polygon fill="#63b8ff" stroke="#63b8ff" points="477.11,-77.56 467.07,-74.17 472.81,-83.08 477.11,-77.56"/>
</a>
</g>
</g>
<!-- Node15 -->
<g id="Node000015" class="node">
<title>Node15</title>
<g id="a_Node000015"><a xlink:title=" ">
<polygon fill="#e0e0e0" stroke="#999999" points="547.95,-74 489.95,-74 489.95,-55 547.95,-55 547.95,-74"/>
<text text-anchor="middle" x="518.95" y="-62" font-family="Helvetica,sans-Serif" font-size="10.00">memory</text>
</a>
</g>
</g>
<!-- Node12&#45;&gt;Node15 -->
<g id="edge14_Node000012_Node000015" class="edge">
<title>Node12&#45;&gt;Node15</title>
<g id="a_edge14_Node000012_Node000015"><a xlink:title=" ">
<path fill="none" stroke="#63b8ff" d="M523.12,-109.75C522.47,-102.8 521.53,-92.85 520.7,-84.13"/>
<polygon fill="#63b8ff" stroke="#63b8ff" points="524.18,-83.72 519.76,-74.09 517.21,-84.37 524.18,-83.72"/>
</a>
</g>
</g>
<!-- Node16 -->
<g id="Node000016" class="node">
<title>Node16</title>
<g id="a_Node000016"><a xlink:href="assert_8h.html" target="_top" xlink:title=" ">
<polygon fill="white" stroke="#666666" points="633.95,-74 565.95,-74 565.95,-55 633.95,-55 633.95,-74"/>
<text text-anchor="middle" x="599.95" y="-62" font-family="Helvetica,sans-Serif" font-size="10.00">fe/assert.h</text>
</a>
</g>
</g>
<!-- Node12&#45;&gt;Node16 -->
<g id="edge15_Node000012_Node000016" class="edge">
<title>Node12&#45;&gt;Node16</title>
<g id="a_edge15_Node000012_Node000016"><a xlink:title=" ">
<path fill="none" stroke="#63b8ff" d="M536.16,-109.98C547.72,-101.92 565.32,-89.65 579.11,-80.03"/>
<polygon fill="#63b8ff" stroke="#63b8ff" points="581.31,-82.76 587.51,-74.17 577.31,-77.02 581.31,-82.76"/>
</a>
</g>
</g>
<!-- Node16&#45;&gt;Node5 -->
<g id="edge16_Node000016_Node000005" class="edge">
<title>Node16&#45;&gt;Node5</title>
<g id="a_edge16_Node000016_Node000005"><a xlink:title=" ">
<path fill="none" stroke="#63b8ff" d="M565.7,-56.63C562.74,-56.07 559.79,-55.52 556.95,-55 473.72,-39.89 375.62,-24.2 323.96,-16.09"/>
<polygon fill="#63b8ff" stroke="#63b8ff" points="324.38,-12.62 313.96,-14.53 323.3,-19.53 324.38,-12.62"/>
</a>
</g>
</g>
<!-- Node17&#45;&gt;Node2 -->
<g id="edge19_Node000017_Node000002" class="edge">
<title>Node17&#45;&gt;Node2</title>
<g id="a_edge19_Node000017_Node000002"><a xlink:title=" ">
<path fill="none" stroke="#63b8ff" d="M301.25,-274.98C289.12,-266.84 270.59,-254.41 256.2,-244.76"/>
<polygon fill="#63b8ff" stroke="#63b8ff" points="258.12,-241.84 247.87,-239.17 254.22,-247.65 258.12,-241.84"/>
</a>
</g>
</g>
<!-- Node18 -->
<g id="Node000018" class="node">
<title>Node18</title>
<g id="a_Node000018"><a xlink:title=" ">
<polygon fill="#e0e0e0" stroke="#999999" points="358.45,-239 279.45,-239 279.45,-220 358.45,-220 358.45,-239"/>
<text text-anchor="middle" x="318.95" y="-227" font-family="Helvetica,sans-Serif" font-size="10.00">fmt/format.h</text>
</a>
</g>
</g>
<!-- Node17&#45;&gt;Node18 -->
<g id="edge18_Node000017_Node000018" class="edge">
<title>Node17&#45;&gt;Node18</title>
<g id="a_edge18_Node000017_Node000018"><a xlink:title=" ">
<path fill="none" stroke="#63b8ff" d="M314.77,-274.75C315.43,-267.8 316.37,-257.85 317.19,-249.13"/>
<polygon fill="#63b8ff" stroke="#63b8ff" points="320.68,-249.37 318.14,-239.09 313.71,-248.72 320.68,-249.37"/>
</a>
</g>
</g>
<!-- Node19 -->
<g id="Node000019" class="node">
<title>Node19</title>
<g id="a_Node000019"><a xlink:href="utf8_8h.html" target="_top" xlink:title=" ">
<polygon fill="white" stroke="#666666" points="676.95,-239 618.95,-239 618.95,-220 676.95,-220 676.95,-239"/>
<text text-anchor="middle" x="647.95" y="-227" font-family="Helvetica,sans-Serif" font-size="10.00">fe/utf8.h</text>
</a>
</g>
</g>
<!-- Node17&#45;&gt;Node19 -->
<g id="edge20_Node000017_Node000019" class="edge">
<title>Node17&#45;&gt;Node19</title>
<g id="a_edge20_Node000017_Node000019"><a xlink:title=" ">
<path fill="none" stroke="#63b8ff" d="M349.69,-277.83C412.79,-267.82 543.42,-247.09 608.84,-236.71"/>
<polygon fill="#63b8ff" stroke="#63b8ff" points="609.43,-240.16 618.75,-235.13 608.33,-233.24 609.43,-240.16"/>
</a>
</g>
</g>
<!-- Node19&#45;&gt;Node16 -->
<g id="edge24_Node000019_Node000016" class="edge">
<title>Node19&#45;&gt;Node16</title>
<g id="a_edge24_Node000019_Node000016"><a xlink:title=" ">
<path fill="none" stroke="#63b8ff" d="M639.34,-219.81C631.57,-211.4 620.54,-197.92 614.95,-184 601.59,-150.76 599.43,-108.43 599.44,-84.4"/>
<polygon fill="#63b8ff" stroke="#63b8ff" points="602.94,-84.25 599.57,-74.2 595.94,-84.15 602.94,-84.25"/>
</a>
</g>
</g>
<!-- Node20 -->
<g id="Node000020" class="node">
<title>Node20</title>
<g id="a_Node000020"><a xlink:title=" ">
<polygon fill="#e0e0e0" stroke="#999999" points="672.45,-184 623.45,-184 623.45,-165 672.45,-165 672.45,-184"/>
<text text-anchor="middle" x="647.95" y="-172" font-family="Helvetica,sans-Serif" font-size="10.00">cctype</text>
</a>
</g>
</g>
<!-- Node19&#45;&gt;Node20 -->
<g id="edge21_Node000019_Node000020" class="edge">
<title>Node19&#45;&gt;Node20</title>
<g id="a_edge21_Node000019_Node000020"><a xlink:title=" ">
<path fill="none" stroke="#63b8ff" d="M647.95,-219.75C647.95,-212.8 647.95,-202.85 647.95,-194.13"/>
<polygon fill="#63b8ff" stroke="#63b8ff" points="651.45,-194.09 647.95,-184.09 644.45,-194.09 651.45,-194.09"/>
</a>
</g>
</g>
<!-- Node21 -->
<g id="Node000021" class="node">
<title>Node21</title>
<g id="a_Node000021"><a xlink:title=" ">
<polygon fill="#e0e0e0" stroke="#999999" points="744.95,-184 690.95,-184 690.95,-165 744.95,-165 744.95,-184"/>
<text text-anchor="middle" x="717.95" y="-172" font-family="Helvetica,sans-Serif" font-size="10.00">istream</text>
</a>
</g>
</g>
<!-- Node19&#45;&gt;Node21 -->
<g id="edge22_Node000019_Node000021" class="edge">
<title>Node19&#45;&gt;Node21</title>
<g id="a_edge22_Node000019_Node000021"><a xlink:title=" ">
<path fill="none" stroke="#63b8ff" d="M659.19,-219.98C669.74,-212 685.75,-199.88 698.39,-190.31"/>
<polygon fill="#63b8ff" stroke="#63b8ff" points="700.64,-193 706.5,-184.17 696.41,-187.42 700.64,-193"/>
</a>
</g>
</g>
<!-- Node22 -->
<g id="Node000022" class="node">
<title>Node22</title>
<g id="a_Node000022"><a xlink:title=" ">
<polygon fill="#e0e0e0" stroke="#999999" points="820.45,-184 763.45,-184 763.45,-165 820.45,-165 820.45,-184"/>
<text text-anchor="middle" x="791.95" y="-172" font-family="Helvetica,sans-Serif" font-size="10.00">ostream</text>
</a>
</g>
</g>
<!-- Node19&#45;&gt;Node22 -->
<g id="edge23_Node000019_Node000022" class="edge">
<title>Node19&#45;&gt;Node22</title>
<g id="a_edge23_Node000019_Node000022"><a xlink:title=" ">
<path fill="none" stroke="#63b8ff" d="M671.08,-219.98C694.77,-211.27 731.82,-197.63 758.65,-187.75"/>
<polygon fill="#63b8ff" stroke="#63b8ff" points="760.21,-190.91 768.39,-184.17 757.8,-184.34 760.21,-190.91"/>
</a>
</g>
</g>
</g>
</svg>

<g id="navigator" transform="translate(0 0)" fill="#404254">
  <rect fill="#f2f5e9" fill-opacity="0.5" stroke="#606060" stroke-width=".5" x="0" y="0" width="60" height="60"/>
  <use id="zoomplus" xlink:href="#zoomPlus" x="17" y="9" onmousedown="handleZoom(evt,'in')"/>
  <use id="zoomminus" xlink:href="#zoomMin" x="42" y="9" onmousedown="handleZoom(evt,'out')"/>
  <use id="reset" xlink:href="#resetDef" x="30" y="36" onmousedown="handleReset()"/>
   <use id="arrowup" xlink:href="#arrowUp" x="0" y="0" onmousedown="handlePan(0,-1)"/>
  <use id="arrowright" xlink:href="#arrowRight" x="0" y="0" onmousedown="handlePan(1,0)"/>
  <use id="arrowdown" xlink:href="#arrowDown" x="0" y="0" onmousedown="handlePan(0,1)"/>
  <use id="arrowleft" xlink:href="#arrowLeft" x="0" y="0" onmousedown="handlePan(-1,0)"/>
</g>
<svg viewBox="0 0 15 15" width="100%" height="30px" preserveAspectRatio="xMaxYMin meet">
 <g id="arrow_out" transform="scale(0.3 0.3)">
  <a xlink:href="loc_8cpp_8h__incl_org.svg" target="_base">
   <rect id="button" ry="5" rx="5" y="6" x="6" height="38" width="38"
        fill="#f2f5e9" fill-opacity="0.5" stroke="#606060" stroke-width="1.0"/>
   <path id="arrow"
     d="M 11.500037,31.436501 C 11.940474,20.09759 22.043105,11.32322 32.158766,21.979434 L 37.068811,17.246167 C 37.068811,17.246167 37.088388,32 37.088388,32 L 22.160133,31.978069 C 22.160133,31.978069 26.997745,27.140456 26.997745,27.140456 C 18.528582,18.264221 13.291696,25.230495 11.500037,31.436501 z"
     style="fill:#404040;"/>
  </a>
 </g>
</svg>

<style type='text/css'>
<![CDATA[
[data-mouse-over-selected='false'] { opacity: 0.7; }
[data-mouse-over-selected='true']  { opacity: 1.0; }
]]>
</style>
<script type="application/ecmascript"><![CDATA[
document.addEventListener('DOMContentLoaded', (event) => {
  highlightEdges();
  highlightAdjacentNodes();
});
]]></script>
</svg>
