<?xml version="1.0" encoding="UTF-8"?>
<svg xmlns="http://www.w3.org/2000/svg" xmlns:xlink="http://www.w3.org/1999/xlink" width="127.026pt" height="98.679pt" viewBox="0 0 127.026 98.679">
<path fill-rule="nonzero" fill="rgb(92.658997%, 93.566895%, 95.26062%)" fill-opacity="1" d="M 3.984375 87.605469 L 3.984375 11.070312 C 3.984375 7.15625 7.15625 3.984375 11.070312 3.984375 L 115.957031 3.984375 C 119.871094 3.984375 123.042969 7.15625 123.042969 11.070312 L 123.042969 87.605469 C 123.042969 91.519531 119.871094 94.695312 115.957031 94.695312 L 11.070312 94.695312 C 7.15625 94.695312 3.984375 91.519531 3.984375 87.605469 Z M 3.984375 87.605469 "/>
<path fill="none" stroke-width="1.79329" stroke-linecap="round" stroke-linejoin="round" stroke="rgb(0%, 37.255859%, 60.78186%)" stroke-opacity="1" stroke-miterlimit="10" d="M 7.08625 5.667594 L 7.08625 79.370719 " transform="matrix(1, 0, 0, -1, 6.82, 91.859)"/>
<path fill="none" stroke-width="1.79329" stroke-linecap="round" stroke-linejoin="round" stroke="rgb(0%, 37.255859%, 60.78186%)" stroke-opacity="1" stroke-miterlimit="10" d="M 7.08625 79.370719 L 26.93 79.370719 " transform="matrix(1, 0, 0, -1, 6.82, 91.859)"/>
<path fill="none" stroke-width="1.79329" stroke-linecap="round" stroke-linejoin="round" stroke="rgb(0%, 37.255859%, 60.78186%)" stroke-opacity="1" stroke-miterlimit="10" d="M 7.08625 42.519156 L 21.262031 42.519156 " transform="matrix(1, 0, 0, -1, 6.82, 91.859)"/>
<path fill="none" stroke-width="1.79329" stroke-linecap="round" stroke-linejoin="round" stroke="rgb(0%, 37.255859%, 60.78186%)" stroke-opacity="1" stroke-miterlimit="10" d="M 106.301094 5.667594 L 106.301094 79.370719 " transform="matrix(1, 0, 0, -1, 6.82, 91.859)"/>
<path fill="none" stroke-width="1.79329" stroke-linecap="round" stroke-linejoin="round" stroke="rgb(0%, 37.255859%, 60.78186%)" stroke-opacity="1" stroke-miterlimit="10" d="M 86.457344 79.370719 L 106.301094 79.370719 " transform="matrix(1, 0, 0, -1, 6.82, 91.859)"/>
<path fill="none" stroke-width="1.79329" stroke-linecap="round" stroke-linejoin="round" stroke="rgb(0%, 37.255859%, 60.78186%)" stroke-opacity="1" stroke-miterlimit="10" d="M 90.71125 42.519156 L 106.301094 42.519156 " transform="matrix(1, 0, 0, -1, 6.82, 91.859)"/>
<path fill="none" stroke-width="1.79329" stroke-linecap="round" stroke-linejoin="round" stroke="rgb(0%, 37.255859%, 60.78186%)" stroke-opacity="1" stroke-miterlimit="10" d="M 86.457344 5.667594 L 106.301094 5.667594 " transform="matrix(1, 0, 0, -1, 6.82, 91.859)"/>
<path fill-rule="nonzero" fill="rgb(8.233643%, 19.607544%, 40.783691%)" fill-opacity="1" d="M 65.628906 29.496094 C 65.628906 28.328125 64.679688 27.382812 63.511719 27.382812 C 62.347656 27.382812 61.398438 28.328125 61.398438 29.496094 C 61.398438 30.664062 62.347656 31.609375 63.511719 31.609375 C 64.679688 31.609375 65.628906 30.664062 65.628906 29.496094 Z M 65.628906 29.496094 "/>
<path fill-rule="nonzero" fill="rgb(8.233643%, 19.607544%, 40.783691%)" fill-opacity="1" d="M 50.035156 53.589844 C 50.035156 52.421875 49.089844 51.476562 47.921875 51.476562 C 46.753906 51.476562 45.808594 52.421875 45.808594 53.589844 C 45.808594 54.757812 46.753906 55.703125 47.921875 55.703125 C 49.089844 55.703125 50.035156 54.757812 50.035156 53.589844 Z M 50.035156 53.589844 "/>
<path fill-rule="nonzero" fill="rgb(8.233643%, 19.607544%, 40.783691%)" fill-opacity="1" d="M 81.21875 53.589844 C 81.21875 52.421875 80.273438 51.476562 79.105469 51.476562 C 77.9375 51.476562 76.992188 52.421875 76.992188 53.589844 C 76.992188 54.757812 77.9375 55.703125 79.105469 55.703125 C 80.273438 55.703125 81.21875 54.757812 81.21875 53.589844 Z M 81.21875 53.589844 "/>
<path fill-rule="nonzero" fill="rgb(8.233643%, 19.607544%, 40.783691%)" fill-opacity="1" d="M 40.113281 76.269531 C 40.113281 75.101562 39.167969 74.15625 38 74.15625 C 36.835938 74.15625 35.886719 75.101562 35.886719 76.269531 C 35.886719 77.433594 36.835938 78.382812 38 78.382812 C 39.167969 78.382812 40.113281 77.433594 40.113281 76.269531 Z M 40.113281 76.269531 "/>
<path fill-rule="nonzero" fill="rgb(8.233643%, 19.607544%, 40.783691%)" fill-opacity="1" d="M 58.539062 76.269531 C 58.539062 75.101562 57.59375 74.15625 56.425781 74.15625 C 55.257812 74.15625 54.3125 75.101562 54.3125 76.269531 C 54.3125 77.433594 55.257812 78.382812 56.425781 78.382812 C 57.59375 78.382812 58.539062 77.433594 58.539062 76.269531 Z M 58.539062 76.269531 "/>
<path fill-rule="nonzero" fill="rgb(8.233643%, 19.607544%, 40.783691%)" fill-opacity="1" d="M 72.714844 76.269531 C 72.714844 75.101562 71.765625 74.15625 70.601562 74.15625 C 69.433594 74.15625 68.488281 75.101562 68.488281 76.269531 C 68.488281 77.433594 69.433594 78.382812 70.601562 78.382812 C 71.765625 78.382812 72.714844 77.433594 72.714844 76.269531 Z M 72.714844 76.269531 "/>
<path fill-rule="nonzero" fill="rgb(8.233643%, 19.607544%, 40.783691%)" fill-opacity="1" d="M 91.140625 76.269531 C 91.140625 75.101562 90.191406 74.15625 89.027344 74.15625 C 87.859375 74.15625 86.914062 75.101562 86.914062 76.269531 C 86.914062 77.433594 87.859375 78.382812 89.027344 78.382812 C 90.191406 78.382812 91.140625 77.433594 91.140625 76.269531 Z M 91.140625 76.269531 "/>
<path fill="none" stroke-width="1.79329" stroke-linecap="round" stroke-linejoin="round" stroke="rgb(0%, 37.255859%, 60.78186%)" stroke-opacity="1" stroke-miterlimit="10" d="M 55.437812 60.4215 L 42.359687 40.210562 " transform="matrix(1, 0, 0, -1, 6.82, 91.859)"/>
<path fill="none" stroke-width="1.79329" stroke-linecap="round" stroke-linejoin="round" stroke="rgb(0%, 37.255859%, 60.78186%)" stroke-opacity="1" stroke-miterlimit="10" d="M 57.949531 60.4215 L 71.027656 40.210562 " transform="matrix(1, 0, 0, -1, 6.82, 91.859)"/>
<path fill="none" stroke-width="1.79329" stroke-linecap="round" stroke-linejoin="round" stroke="rgb(0%, 37.255859%, 60.78186%)" stroke-opacity="1" stroke-miterlimit="10" d="M 40.176094 36.148062 L 32.109687 17.710562 " transform="matrix(1, 0, 0, -1, 6.82, 91.859)"/>
<path fill="none" stroke-width="1.79329" stroke-linecap="round" stroke-linejoin="round" stroke="rgb(0%, 37.255859%, 60.78186%)" stroke-opacity="1" stroke-miterlimit="10" d="M 41.914375 36.101187 L 48.793281 17.757437 " transform="matrix(1, 0, 0, -1, 6.82, 91.859)"/>
<path fill="none" stroke-width="1.79329" stroke-linecap="round" stroke-linejoin="round" stroke="rgb(0%, 37.255859%, 60.78186%)" stroke-opacity="1" stroke-miterlimit="10" d="M 71.472969 36.101187 L 64.594063 17.757437 " transform="matrix(1, 0, 0, -1, 6.82, 91.859)"/>
<path fill="none" stroke-width="1.79329" stroke-linecap="round" stroke-linejoin="round" stroke="rgb(0%, 37.255859%, 60.78186%)" stroke-opacity="1" stroke-miterlimit="10" d="M 73.21125 36.148062 L 81.277656 17.710562 " transform="matrix(1, 0, 0, -1, 6.82, 91.859)"/>
</svg>
