<?xml version="1.0" encoding="UTF-8" standalone="no"?>
<!DOCTYPE svg PUBLIC "-//W3C//DTD SVG 1.1//EN"
 "http://www.w3.org/Graphics/SVG/1.1/DTD/svg11.dtd">
<!-- Generated by graphviz version 2.43.0 (0)
 -->
<!-- Title: fe/parser.h Pages: 1 -->
<svg width="1357pt" height="302pt"
 viewBox="0.00 0.00 1356.50 302.00" xmlns="http://www.w3.org/2000/svg" xmlns:xlink="http://www.w3.org/1999/xlink">
<g id="graph0" class="graph" transform="scale(1 1) rotate(0) translate(4 298)">
<title>fe/parser.h</title>
<!-- Node1 -->
<g id="Node000001" class="node">
<title>Node1</title>
<g id="a_Node000001"><a xlink:title=" ">
<polygon fill="#999999" stroke="#666666" points="366,-294 298,-294 298,-275 366,-275 366,-294"/>
<text text-anchor="middle" x="332" y="-282" font-family="Helvetica,sans-Serif" font-size="10.00">fe/parser.h</text>
</a>
</g>
</g>
<!-- Node2 -->
<g id="Node000002" class="node">
<title>Node2</title>
<g id="a_Node000002"><a xlink:href="loc_8h.html" target="_top" xlink:title=" ">
<polygon fill="white" stroke="#666666" points="329.5,-239 276.5,-239 276.5,-220 329.5,-220 329.5,-239"/>
<text text-anchor="middle" x="303" y="-227" font-family="Helvetica,sans-Serif" font-size="10.00">fe/loc.h</text>
</a>
</g>
</g>
<!-- Node1&#45;&gt;Node2 -->
<g id="edge1_Node000001_Node000002" class="edge">
<title>Node1&#45;&gt;Node2</title>
<g id="a_edge1_Node000001_Node000002"><a xlink:title=" ">
<path fill="none" stroke="#63b8ff" d="M327.21,-274.75C323.24,-267.49 317.47,-256.95 312.57,-247.98"/>
<polygon fill="#63b8ff" stroke="#63b8ff" points="315.57,-246.18 307.7,-239.09 309.43,-249.54 315.57,-246.18"/>
</a>
</g>
</g>
<!-- Node21 -->
<g id="Node000021" class="node">
<title>Node21</title>
<g id="a_Node000021"><a xlink:href="ring_8h.html" target="_top" xlink:title=" ">
<polygon fill="white" stroke="#666666" points="1149.5,-129 1092.5,-129 1092.5,-110 1149.5,-110 1149.5,-129"/>
<text text-anchor="middle" x="1121" y="-117" font-family="Helvetica,sans-Serif" font-size="10.00">fe/ring.h</text>
</a>
</g>
</g>
<!-- Node1&#45;&gt;Node21 -->
<g id="edge21_Node000001_Node000021" class="edge">
<title>Node1&#45;&gt;Node21</title>
<g id="a_edge21_Node000001_Node000021"><a xlink:title=" ">
<path fill="none" stroke="#63b8ff" d="M366.16,-276.44C494.44,-249.94 947.02,-156.44 1082.44,-128.47"/>
<polygon fill="#63b8ff" stroke="#63b8ff" points="1083.28,-131.87 1092.37,-126.42 1081.87,-125.01 1083.28,-131.87"/>
</a>
</g>
</g>
<!-- Node3 -->
<g id="Node000003" class="node">
<title>Node3</title>
<g id="a_Node000003"><a xlink:title=" ">
<polygon fill="#e0e0e0" stroke="#999999" points="255,-184 187,-184 187,-165 255,-165 255,-184"/>
<text text-anchor="middle" x="221" y="-172" font-family="Helvetica,sans-Serif" font-size="10.00">filesystem</text>
</a>
</g>
</g>
<!-- Node2&#45;&gt;Node3 -->
<g id="edge2_Node000002_Node000003" class="edge">
<title>Node2&#45;&gt;Node3</title>
<g id="a_edge2_Node000002_Node000003"><a xlink:title=" ">
<path fill="none" stroke="#63b8ff" d="M289.83,-219.98C277.23,-211.84 258,-199.41 243.06,-189.76"/>
<polygon fill="#63b8ff" stroke="#63b8ff" points="244.71,-186.66 234.41,-184.17 240.91,-192.54 244.71,-186.66"/>
</a>
</g>
</g>
<!-- Node4 -->
<g id="Node000004" class="node">
<title>Node4</title>
<g id="a_Node000004"><a xlink:href="sym_8h.html" target="_top" xlink:title=" ">
<polygon fill="white" stroke="#666666" points="332.5,-184 273.5,-184 273.5,-165 332.5,-165 332.5,-184"/>
<text text-anchor="middle" x="303" y="-172" font-family="Helvetica,sans-Serif" font-size="10.00">fe/sym.h</text>
</a>
</g>
</g>
<!-- Node2&#45;&gt;Node4 -->
<g id="edge3_Node000002_Node000004" class="edge">
<title>Node2&#45;&gt;Node4</title>
<g id="a_edge3_Node000002_Node000004"><a xlink:title=" ">
<path fill="none" stroke="#63b8ff" d="M303,-219.75C303,-212.8 303,-202.85 303,-194.13"/>
<polygon fill="#63b8ff" stroke="#63b8ff" points="306.5,-194.09 303,-184.09 299.5,-194.09 306.5,-194.09"/>
</a>
</g>
</g>
<!-- Node5 -->
<g id="Node000005" class="node">
<title>Node5</title>
<g id="a_Node000005"><a xlink:title=" ">
<polygon fill="#e0e0e0" stroke="#999999" points="766,-19 714,-19 714,0 766,0 766,-19"/>
<text text-anchor="middle" x="740" y="-7" font-family="Helvetica,sans-Serif" font-size="10.00">cassert</text>
</a>
</g>
</g>
<!-- Node4&#45;&gt;Node5 -->
<g id="edge4_Node000004_Node000005" class="edge">
<title>Node4&#45;&gt;Node5</title>
<g id="a_edge4_Node000004_Node000005"><a xlink:title=" ">
<path fill="none" stroke="#63b8ff" d="M332.79,-172.24C367.6,-169.32 425.23,-159.78 463,-129 491.66,-105.64 471.35,-77.09 501,-55 532.55,-31.5 644.86,-18.63 703.6,-13.37"/>
<polygon fill="#63b8ff" stroke="#63b8ff" points="704.25,-16.83 713.92,-12.47 703.65,-9.85 704.25,-16.83"/>
</a>
</g>
</g>
<!-- Node6 -->
<g id="Node000006" class="node">
<title>Node6</title>
<g id="a_Node000006"><a xlink:title=" ">
<polygon fill="#e0e0e0" stroke="#999999" points="50,-129 0,-129 0,-110 50,-110 50,-129"/>
<text text-anchor="middle" x="25" y="-117" font-family="Helvetica,sans-Serif" font-size="10.00">cstring</text>
</a>
</g>
</g>
<!-- Node4&#45;&gt;Node6 -->
<g id="edge5_Node000004_Node000006" class="edge">
<title>Node4&#45;&gt;Node6</title>
<g id="a_edge5_Node000004_Node000006"><a xlink:title=" ">
<path fill="none" stroke="#63b8ff" d="M273.22,-166.88C270.11,-166.23 266.99,-165.59 264,-165 176.34,-147.76 151.19,-148.18 60.13,-129.11"/>
<polygon fill="#63b8ff" stroke="#63b8ff" points="60.71,-125.66 50.2,-127.01 59.26,-132.51 60.71,-125.66"/>
</a>
</g>
</g>
<!-- Node7 -->
<g id="Node000007" class="node">
<title>Node7</title>
<g id="a_Node000007"><a xlink:title=" ">
<polygon fill="#e0e0e0" stroke="#999999" points="97.5,-129 68.5,-129 68.5,-110 97.5,-110 97.5,-129"/>
<text text-anchor="middle" x="83" y="-117" font-family="Helvetica,sans-Serif" font-size="10.00">bit</text>
</a>
</g>
</g>
<!-- Node4&#45;&gt;Node7 -->
<g id="edge6_Node000004_Node000007" class="edge">
<title>Node4&#45;&gt;Node7</title>
<g id="a_edge6_Node000004_Node000007"><a xlink:title=" ">
<path fill="none" stroke="#63b8ff" d="M273.41,-166.98C227.8,-156.91 142.64,-137.99 107.5,-128.73"/>
<polygon fill="#63b8ff" stroke="#63b8ff" points="108.21,-125.29 97.63,-125.99 106.33,-132.04 108.21,-125.29"/>
</a>
</g>
</g>
<!-- Node8 -->
<g id="Node000008" class="node">
<title>Node8</title>
<g id="a_Node000008"><a xlink:title=" ">
<polygon fill="#e0e0e0" stroke="#999999" points="176,-129 116,-129 116,-110 176,-110 176,-129"/>
<text text-anchor="middle" x="146" y="-117" font-family="Helvetica,sans-Serif" font-size="10.00">iostream</text>
</a>
</g>
</g>
<!-- Node4&#45;&gt;Node8 -->
<g id="edge7_Node000004_Node000008" class="edge">
<title>Node4&#45;&gt;Node8</title>
<g id="a_edge7_Node000004_Node000008"><a xlink:title=" ">
<path fill="none" stroke="#63b8ff" d="M277.78,-164.98C251.64,-156.16 210.6,-142.31 181.27,-132.41"/>
<polygon fill="#63b8ff" stroke="#63b8ff" points="182.02,-128.96 171.42,-129.08 179.78,-135.6 182.02,-128.96"/>
</a>
</g>
</g>
<!-- Node9 -->
<g id="Node000009" class="node">
<title>Node9</title>
<g id="a_Node000009"><a xlink:title=" ">
<polygon fill="#e0e0e0" stroke="#999999" points="238,-129 194,-129 194,-110 238,-110 238,-129"/>
<text text-anchor="middle" x="216" y="-117" font-family="Helvetica,sans-Serif" font-size="10.00">string</text>
</a>
</g>
</g>
<!-- Node4&#45;&gt;Node9 -->
<g id="edge8_Node000004_Node000009" class="edge">
<title>Node4&#45;&gt;Node9</title>
<g id="a_edge8_Node000004_Node000009"><a xlink:title=" ">
<path fill="none" stroke="#63b8ff" d="M289.02,-164.98C275.53,-156.77 254.87,-144.18 238.96,-134.49"/>
<polygon fill="#63b8ff" stroke="#63b8ff" points="240.59,-131.38 230.23,-129.17 236.95,-137.36 240.59,-131.38"/>
</a>
</g>
</g>
<!-- Node10 -->
<g id="Node000010" class="node">
<title>Node10</title>
<g id="a_Node000010"><a xlink:title=" ">
<polygon fill="#e0e0e0" stroke="#999999" points="349.5,-129 256.5,-129 256.5,-110 349.5,-110 349.5,-129"/>
<text text-anchor="middle" x="303" y="-117" font-family="Helvetica,sans-Serif" font-size="10.00">unordered_map</text>
</a>
</g>
</g>
<!-- Node4&#45;&gt;Node10 -->
<g id="edge9_Node000004_Node000010" class="edge">
<title>Node4&#45;&gt;Node10</title>
<g id="a_edge9_Node000004_Node000010"><a xlink:title=" ">
<path fill="none" stroke="#63b8ff" d="M303,-164.75C303,-157.8 303,-147.85 303,-139.13"/>
<polygon fill="#63b8ff" stroke="#63b8ff" points="306.5,-139.09 303,-129.09 299.5,-139.09 306.5,-139.09"/>
</a>
</g>
</g>
<!-- Node11 -->
<g id="Node000011" class="node">
<title>Node11</title>
<g id="a_Node000011"><a xlink:title=" ">
<polygon fill="#e0e0e0" stroke="#999999" points="454,-129 368,-129 368,-110 454,-110 454,-129"/>
<text text-anchor="middle" x="411" y="-117" font-family="Helvetica,sans-Serif" font-size="10.00">unordered_set</text>
</a>
</g>
</g>
<!-- Node4&#45;&gt;Node11 -->
<g id="edge10_Node000004_Node000011" class="edge">
<title>Node4&#45;&gt;Node11</title>
<g id="a_edge10_Node000004_Node000011"><a xlink:title=" ">
<path fill="none" stroke="#63b8ff" d="M320.35,-164.98C337.57,-156.54 364.2,-143.47 384.15,-133.68"/>
<polygon fill="#63b8ff" stroke="#63b8ff" points="385.9,-136.72 393.33,-129.17 382.81,-130.43 385.9,-136.72"/>
</a>
</g>
</g>
<!-- Node12 -->
<g id="Node000012" class="node">
<title>Node12</title>
<g id="a_Node000012"><a xlink:href="arena_8h.html" target="_top" xlink:title=" ">
<polygon fill="white" stroke="#666666" points="811,-129 745,-129 745,-110 811,-110 811,-129"/>
<text text-anchor="middle" x="778" y="-117" font-family="Helvetica,sans-Serif" font-size="10.00">fe/arena.h</text>
</a>
</g>
</g>
<!-- Node4&#45;&gt;Node12 -->
<g id="edge11_Node000004_Node000012" class="edge">
<title>Node4&#45;&gt;Node12</title>
<g id="a_edge11_Node000004_Node000012"><a xlink:title=" ">
<path fill="none" stroke="#63b8ff" d="M332.71,-170.18C413.86,-161.13 639.5,-135.95 734.72,-125.33"/>
<polygon fill="#63b8ff" stroke="#63b8ff" points="735.32,-128.78 744.87,-124.2 734.54,-121.83 735.32,-128.78"/>
</a>
</g>
</g>
<!-- Node13 -->
<g id="Node000013" class="node">
<title>Node13</title>
<g id="a_Node000013"><a xlink:title=" ">
<polygon fill="#e0e0e0" stroke="#999999" points="1115,-74 1051,-74 1051,-55 1115,-55 1115,-74"/>
<text text-anchor="middle" x="1083" y="-62" font-family="Helvetica,sans-Serif" font-size="10.00">algorithm</text>
</a>
</g>
</g>
<!-- Node12&#45;&gt;Node13 -->
<g id="edge12_Node000012_Node000013" class="edge">
<title>Node12&#45;&gt;Node13</title>
<g id="a_edge12_Node000012_Node000013"><a xlink:title=" ">
<path fill="none" stroke="#63b8ff" d="M811.41,-113.28C859.77,-105.63 952.32,-90.67 1040.86,-74.16"/>
<polygon fill="#63b8ff" stroke="#63b8ff" points="1041.61,-77.58 1050.79,-72.3 1040.32,-70.7 1041.61,-77.58"/>
</a>
</g>
</g>
<!-- Node14 -->
<g id="Node000014" class="node">
<title>Node14</title>
<g id="a_Node000014"><a xlink:title=" ">
<polygon fill="#e0e0e0" stroke="#999999" points="542,-74 510,-74 510,-55 542,-55 542,-74"/>
<text text-anchor="middle" x="526" y="-62" font-family="Helvetica,sans-Serif" font-size="10.00">list</text>
</a>
</g>
</g>
<!-- Node12&#45;&gt;Node14 -->
<g id="edge13_Node000012_Node000014" class="edge">
<title>Node12&#45;&gt;Node14</title>
<g id="a_edge13_Node000012_Node000014"><a xlink:title=" ">
<path fill="none" stroke="#63b8ff" d="M744.98,-113.45C702.42,-106.64 626.03,-93.37 551.99,-73.96"/>
<polygon fill="#63b8ff" stroke="#63b8ff" points="552.6,-70.5 542.04,-71.31 550.8,-77.26 552.6,-70.5"/>
</a>
</g>
</g>
<!-- Node15 -->
<g id="Node000015" class="node">
<title>Node15</title>
<g id="a_Node000015"><a xlink:title=" ">
<polygon fill="#e0e0e0" stroke="#999999" points="618,-74 560,-74 560,-55 618,-55 618,-74"/>
<text text-anchor="middle" x="589" y="-62" font-family="Helvetica,sans-Serif" font-size="10.00">memory</text>
</a>
</g>
</g>
<!-- Node12&#45;&gt;Node15 -->
<g id="edge14_Node000012_Node000015" class="edge">
<title>Node12&#45;&gt;Node15</title>
<g id="a_edge14_Node000012_Node000015"><a xlink:title=" ">
<path fill="none" stroke="#63b8ff" d="M747.63,-109.98C715.15,-100.88 663.53,-86.4 628.05,-76.45"/>
<polygon fill="#63b8ff" stroke="#63b8ff" points="628.62,-72.98 618.05,-73.65 626.73,-79.72 628.62,-72.98"/>
</a>
</g>
</g>
<!-- Node16 -->
<g id="Node000016" class="node">
<title>Node16</title>
<g id="a_Node000016"><a xlink:title=" ">
<polygon fill="#e0e0e0" stroke="#999999" points="741.5,-74 636.5,-74 636.5,-55 741.5,-55 741.5,-74"/>
<text text-anchor="middle" x="689" y="-62" font-family="Helvetica,sans-Serif" font-size="10.00">memory_resource</text>
</a>
</g>
</g>
<!-- Node12&#45;&gt;Node16 -->
<g id="edge15_Node000012_Node000016" class="edge">
<title>Node12&#45;&gt;Node16</title>
<g id="a_edge15_Node000012_Node000016"><a xlink:title=" ">
<path fill="none" stroke="#63b8ff" d="M763.7,-109.98C749.9,-101.77 728.76,-89.18 712.49,-79.49"/>
<polygon fill="#63b8ff" stroke="#63b8ff" points="713.94,-76.28 703.56,-74.17 710.36,-82.29 713.94,-76.28"/>
</a>
</g>
</g>
<!-- Node17 -->
<g id="Node000017" class="node">
<title>Node17</title>
<g id="a_Node000017"><a xlink:title=" ">
<polygon fill="#e0e0e0" stroke="#999999" points="796.5,-74 759.5,-74 759.5,-55 796.5,-55 796.5,-74"/>
<text text-anchor="middle" x="778" y="-62" font-family="Helvetica,sans-Serif" font-size="10.00">new</text>
</a>
</g>
</g>
<!-- Node12&#45;&gt;Node17 -->
<g id="edge16_Node000012_Node000017" class="edge">
<title>Node12&#45;&gt;Node17</title>
<g id="a_edge16_Node000012_Node000017"><a xlink:title=" ">
<path fill="none" stroke="#63b8ff" d="M778,-109.75C778,-102.8 778,-92.85 778,-84.13"/>
<polygon fill="#63b8ff" stroke="#63b8ff" points="781.5,-84.09 778,-74.09 774.5,-84.09 781.5,-84.09"/>
</a>
</g>
</g>
<!-- Node18 -->
<g id="Node000018" class="node">
<title>Node18</title>
<g id="a_Node000018"><a xlink:title=" ">
<polygon fill="#e0e0e0" stroke="#999999" points="883.5,-74 814.5,-74 814.5,-55 883.5,-55 883.5,-74"/>
<text text-anchor="middle" x="849" y="-62" font-family="Helvetica,sans-Serif" font-size="10.00">type_traits</text>
</a>
</g>
</g>
<!-- Node12&#45;&gt;Node18 -->
<g id="edge17_Node000012_Node000018" class="edge">
<title>Node12&#45;&gt;Node18</title>
<g id="a_edge17_Node000012_Node000018"><a xlink:title=" ">
<path fill="none" stroke="#63b8ff" d="M789.41,-109.98C800.11,-102 816.34,-89.88 829.16,-80.31"/>
<polygon fill="#63b8ff" stroke="#63b8ff" points="831.47,-82.96 837.39,-74.17 827.28,-77.35 831.47,-82.96"/>
</a>
</g>
</g>
<!-- Node19 -->
<g id="Node000019" class="node">
<title>Node19</title>
<g id="a_Node000019"><a xlink:title=" ">
<polygon fill="#e0e0e0" stroke="#999999" points="946.5,-74 901.5,-74 901.5,-55 946.5,-55 946.5,-74"/>
<text text-anchor="middle" x="924" y="-62" font-family="Helvetica,sans-Serif" font-size="10.00">utility</text>
</a>
</g>
</g>
<!-- Node12&#45;&gt;Node19 -->
<g id="edge18_Node000012_Node000019" class="edge">
<title>Node12&#45;&gt;Node19</title>
<g id="a_edge18_Node000012_Node000019"><a xlink:title=" ">
<path fill="none" stroke="#63b8ff" d="M801.46,-109.98C825.87,-101.12 864.27,-87.18 891.57,-77.27"/>
<polygon fill="#63b8ff" stroke="#63b8ff" points="892.88,-80.52 901.08,-73.82 890.49,-73.94 892.88,-80.52"/>
</a>
</g>
</g>
<!-- Node20 -->
<g id="Node000020" class="node">
<title>Node20</title>
<g id="a_Node000020"><a xlink:href="assert_8h.html" target="_top" xlink:title=" ">
<polygon fill="white" stroke="#666666" points="1033,-74 965,-74 965,-55 1033,-55 1033,-74"/>
<text text-anchor="middle" x="999" y="-62" font-family="Helvetica,sans-Serif" font-size="10.00">fe/assert.h</text>
</a>
</g>
</g>
<!-- Node12&#45;&gt;Node20 -->
<g id="edge19_Node000012_Node000020" class="edge">
<title>Node12&#45;&gt;Node20</title>
<g id="a_edge19_Node000012_Node000020"><a xlink:title=" ">
<path fill="none" stroke="#63b8ff" d="M811.09,-110.57C849.43,-101.37 912.78,-86.18 955.19,-76.01"/>
<polygon fill="#63b8ff" stroke="#63b8ff" points="956.05,-79.4 964.96,-73.66 954.42,-72.59 956.05,-79.4"/>
</a>
</g>
</g>
<!-- Node20&#45;&gt;Node5 -->
<g id="edge20_Node000020_Node000005" class="edge">
<title>Node20&#45;&gt;Node5</title>
<g id="a_edge20_Node000020_Node000005"><a xlink:title=" ">
<path fill="none" stroke="#63b8ff" d="M964.87,-56.52C916.01,-46.52 826.51,-28.2 776.41,-17.95"/>
<polygon fill="#63b8ff" stroke="#63b8ff" points="776.85,-14.47 766.35,-15.89 775.45,-21.33 776.85,-14.47"/>
</a>
</g>
</g>
<!-- Node21&#45;&gt;Node13 -->
<g id="edge23_Node000021_Node000013" class="edge">
<title>Node21&#45;&gt;Node13</title>
<g id="a_edge23_Node000021_Node000013"><a xlink:title=" ">
<path fill="none" stroke="#63b8ff" d="M1114.73,-109.75C1109.41,-102.34 1101.64,-91.5 1095.12,-82.41"/>
<polygon fill="#63b8ff" stroke="#63b8ff" points="1097.83,-80.18 1089.16,-74.09 1092.14,-84.26 1097.83,-80.18"/>
</a>
</g>
</g>
<!-- Node21&#45;&gt;Node20 -->
<g id="edge26_Node000021_Node000020" class="edge">
<title>Node21&#45;&gt;Node20</title>
<g id="a_edge26_Node000021_Node000020"><a xlink:title=" ">
<path fill="none" stroke="#63b8ff" d="M1101.4,-109.98C1081.68,-101.42 1051.05,-88.11 1028.42,-78.28"/>
<polygon fill="#63b8ff" stroke="#63b8ff" points="1029.52,-74.94 1018.96,-74.17 1026.74,-81.37 1029.52,-74.94"/>
</a>
</g>
</g>
<!-- Node22 -->
<g id="Node000022" class="node">
<title>Node22</title>
<g id="a_Node000022"><a xlink:title=" ">
<polygon fill="#e0e0e0" stroke="#999999" points="1186.5,-74 1133.5,-74 1133.5,-55 1186.5,-55 1186.5,-74"/>
<text text-anchor="middle" x="1160" y="-62" font-family="Helvetica,sans-Serif" font-size="10.00">cstddef</text>
</a>
</g>
</g>
<!-- Node21&#45;&gt;Node22 -->
<g id="edge22_Node000021_Node000022" class="edge">
<title>Node21&#45;&gt;Node22</title>
<g id="a_edge22_Node000021_Node000022"><a xlink:title=" ">
<path fill="none" stroke="#63b8ff" d="M1127.44,-109.75C1132.89,-102.34 1140.86,-91.5 1147.56,-82.41"/>
<polygon fill="#63b8ff" stroke="#63b8ff" points="1150.57,-84.22 1153.68,-74.09 1144.93,-80.07 1150.57,-84.22"/>
</a>
</g>
</g>
<!-- Node23 -->
<g id="Node000023" class="node">
<title>Node23</title>
<g id="a_Node000023"><a xlink:title=" ">
<polygon fill="#e0e0e0" stroke="#999999" points="1247,-74 1205,-74 1205,-55 1247,-55 1247,-74"/>
<text text-anchor="middle" x="1226" y="-62" font-family="Helvetica,sans-Serif" font-size="10.00">array</text>
</a>
</g>
</g>
<!-- Node21&#45;&gt;Node23 -->
<g id="edge24_Node000021_Node000023" class="edge">
<title>Node21&#45;&gt;Node23</title>
<g id="a_edge24_Node000021_Node000023"><a xlink:title=" ">
<path fill="none" stroke="#63b8ff" d="M1137.87,-109.98C1154.61,-101.54 1180.5,-88.47 1199.89,-78.68"/>
<polygon fill="#63b8ff" stroke="#63b8ff" points="1201.47,-81.8 1208.82,-74.17 1198.32,-75.55 1201.47,-81.8"/>
</a>
</g>
</g>
<!-- Node24 -->
<g id="Node000024" class="node">
<title>Node24</title>
<g id="a_Node000024"><a xlink:title=" ">
<polygon fill="#e0e0e0" stroke="#999999" points="1348.5,-74 1265.5,-74 1265.5,-55 1348.5,-55 1348.5,-74"/>
<text text-anchor="middle" x="1307" y="-62" font-family="Helvetica,sans-Serif" font-size="10.00">initializer_list</text>
</a>
</g>
</g>
<!-- Node21&#45;&gt;Node24 -->
<g id="edge25_Node000021_Node000024" class="edge">
<title>Node21&#45;&gt;Node24</title>
<g id="a_edge25_Node000021_Node000024"><a xlink:title=" ">
<path fill="none" stroke="#63b8ff" d="M1149.65,-110.33C1181.1,-101.38 1231.78,-86.93 1267.1,-76.87"/>
<polygon fill="#63b8ff" stroke="#63b8ff" points="1268.42,-80.13 1277.08,-74.03 1266.5,-73.4 1268.42,-80.13"/>
</a>
</g>
</g>
</g>
</svg>
