<?xml version="1.0" encoding="UTF-8" standalone="no"?>
<!DOCTYPE svg PUBLIC "-//W3C//DTD SVG 1.1//EN"
 "http://www.w3.org/Graphics/SVG/1.1/DTD/svg11.dtd">
<!-- Generated by graphviz version 2.43.0 (0)
 -->
<!-- Title: fe/parser.h Pages: 1 -->
<svg width="996pt" height="302pt"
 viewBox="0.00 0.00 995.50 302.00" xmlns="http://www.w3.org/2000/svg" xmlns:xlink="http://www.w3.org/1999/xlink">
<g id="graph0" class="graph" transform="scale(1 1) rotate(0) translate(4 298)">
<title>fe/parser.h</title>
<!-- Node1 -->
<g id="Node000001" class="node">
<title>Node1</title>
<g id="a_Node000001"><a xlink:title=" ">
<polygon fill="#999999" stroke="#666666" points="343,-294 275,-294 275,-275 343,-275 343,-294"/>
<text text-anchor="middle" x="309" y="-282" font-family="Helvetica,sans-Serif" font-size="10.00">fe/parser.h</text>
</a>
</g>
</g>
<!-- Node2 -->
<g id="Node000002" class="node">
<title>Node2</title>
<g id="a_Node000002"><a xlink:title=" ">
<polygon fill="#e0e0e0" stroke="#999999" points="264,-239 208,-239 208,-220 264,-220 264,-239"/>
<text text-anchor="middle" x="236" y="-227" font-family="Helvetica,sans-Serif" font-size="10.00">optional</text>
</a>
</g>
</g>
<!-- Node1&#45;&gt;Node2 -->
<g id="edge1_Node000001_Node000002" class="edge">
<title>Node1&#45;&gt;Node2</title>
<g id="a_edge1_Node000001_Node000002"><a xlink:title=" ">
<path fill="none" stroke="#63b8ff" d="M297.27,-274.98C286.27,-267 269.58,-254.88 256.4,-245.31"/>
<polygon fill="#63b8ff" stroke="#63b8ff" points="258.09,-242.21 247.94,-239.17 253.98,-247.88 258.09,-242.21"/>
</a>
</g>
</g>
<!-- Node3 -->
<g id="Node000003" class="node">
<title>Node3</title>
<g id="a_Node000003"><a xlink:href="loc_8h.html" target="_top" xlink:title=" ">
<polygon fill="white" stroke="#666666" points="335.5,-239 282.5,-239 282.5,-220 335.5,-220 335.5,-239"/>
<text text-anchor="middle" x="309" y="-227" font-family="Helvetica,sans-Serif" font-size="10.00">fe/loc.h</text>
</a>
</g>
</g>
<!-- Node1&#45;&gt;Node3 -->
<g id="edge2_Node000001_Node000003" class="edge">
<title>Node1&#45;&gt;Node3</title>
<g id="a_edge2_Node000001_Node000003"><a xlink:title=" ">
<path fill="none" stroke="#63b8ff" d="M309,-274.75C309,-267.8 309,-257.85 309,-249.13"/>
<polygon fill="#63b8ff" stroke="#63b8ff" points="312.5,-249.09 309,-239.09 305.5,-249.09 312.5,-249.09"/>
</a>
</g>
</g>
<!-- Node17 -->
<g id="Node000017" class="node">
<title>Node17</title>
<g id="a_Node000017"><a xlink:href="ring_8h.html" target="_top" xlink:title=" ">
<polygon fill="white" stroke="#666666" points="789.5,-129 732.5,-129 732.5,-110 789.5,-110 789.5,-129"/>
<text text-anchor="middle" x="761" y="-117" font-family="Helvetica,sans-Serif" font-size="10.00">fe/ring.h</text>
</a>
</g>
</g>
<!-- Node1&#45;&gt;Node17 -->
<g id="edge17_Node000001_Node000017" class="edge">
<title>Node1&#45;&gt;Node17</title>
<g id="a_edge17_Node000001_Node000017"><a xlink:title=" ">
<path fill="none" stroke="#63b8ff" d="M332.67,-274.97C407.71,-247.9 640.54,-163.94 727.65,-132.53"/>
<polygon fill="#63b8ff" stroke="#63b8ff" points="729.08,-135.73 737.3,-129.05 726.7,-129.15 729.08,-135.73"/>
</a>
</g>
</g>
<!-- Node4 -->
<g id="Node000004" class="node">
<title>Node4</title>
<g id="a_Node000004"><a xlink:title=" ">
<polygon fill="#e0e0e0" stroke="#999999" points="261,-184 193,-184 193,-165 261,-165 261,-184"/>
<text text-anchor="middle" x="227" y="-172" font-family="Helvetica,sans-Serif" font-size="10.00">filesystem</text>
</a>
</g>
</g>
<!-- Node3&#45;&gt;Node4 -->
<g id="edge3_Node000003_Node000004" class="edge">
<title>Node3&#45;&gt;Node4</title>
<g id="a_edge3_Node000003_Node000004"><a xlink:title=" ">
<path fill="none" stroke="#63b8ff" d="M295.83,-219.98C283.23,-211.84 264,-199.41 249.06,-189.76"/>
<polygon fill="#63b8ff" stroke="#63b8ff" points="250.71,-186.66 240.41,-184.17 246.91,-192.54 250.71,-186.66"/>
</a>
</g>
</g>
<!-- Node5 -->
<g id="Node000005" class="node">
<title>Node5</title>
<g id="a_Node000005"><a xlink:href="sym_8h.html" target="_top" xlink:title=" ">
<polygon fill="white" stroke="#666666" points="338.5,-184 279.5,-184 279.5,-165 338.5,-165 338.5,-184"/>
<text text-anchor="middle" x="309" y="-172" font-family="Helvetica,sans-Serif" font-size="10.00">fe/sym.h</text>
</a>
</g>
</g>
<!-- Node3&#45;&gt;Node5 -->
<g id="edge4_Node000003_Node000005" class="edge">
<title>Node3&#45;&gt;Node5</title>
<g id="a_edge4_Node000003_Node000005"><a xlink:title=" ">
<path fill="none" stroke="#63b8ff" d="M309,-219.75C309,-212.8 309,-202.85 309,-194.13"/>
<polygon fill="#63b8ff" stroke="#63b8ff" points="312.5,-194.09 309,-184.09 305.5,-194.09 312.5,-194.09"/>
</a>
</g>
</g>
<!-- Node6 -->
<g id="Node000006" class="node">
<title>Node6</title>
<g id="a_Node000006"><a xlink:title=" ">
<polygon fill="#e0e0e0" stroke="#999999" points="562,-19 510,-19 510,0 562,0 562,-19"/>
<text text-anchor="middle" x="536" y="-7" font-family="Helvetica,sans-Serif" font-size="10.00">cassert</text>
</a>
</g>
</g>
<!-- Node5&#45;&gt;Node6 -->
<g id="edge5_Node000005_Node000006" class="edge">
<title>Node5&#45;&gt;Node6</title>
<g id="a_edge5_Node000005_Node000006"><a xlink:title=" ">
<path fill="none" stroke="#63b8ff" d="M338.58,-167.01C361.72,-160.65 393.47,-148.93 415,-129 442.13,-103.88 427.09,-81.37 453,-55 466.7,-41.06 485.7,-30.43 502.07,-23.07"/>
<polygon fill="#63b8ff" stroke="#63b8ff" points="503.52,-26.25 511.34,-19.11 500.77,-19.82 503.52,-26.25"/>
</a>
</g>
</g>
<!-- Node7 -->
<g id="Node000007" class="node">
<title>Node7</title>
<g id="a_Node000007"><a xlink:title=" ">
<polygon fill="#e0e0e0" stroke="#999999" points="50,-129 0,-129 0,-110 50,-110 50,-129"/>
<text text-anchor="middle" x="25" y="-117" font-family="Helvetica,sans-Serif" font-size="10.00">cstring</text>
</a>
</g>
</g>
<!-- Node5&#45;&gt;Node7 -->
<g id="edge6_Node000005_Node000007" class="edge">
<title>Node5&#45;&gt;Node7</title>
<g id="a_edge6_Node000005_Node000007"><a xlink:title=" ">
<path fill="none" stroke="#63b8ff" d="M279.22,-166.86C276.11,-166.21 272.99,-165.58 270,-165 179.71,-147.47 153.81,-148.46 60.1,-129.1"/>
<polygon fill="#63b8ff" stroke="#63b8ff" points="60.71,-125.65 50.2,-127.03 59.27,-132.5 60.71,-125.65"/>
</a>
</g>
</g>
<!-- Node8 -->
<g id="Node000008" class="node">
<title>Node8</title>
<g id="a_Node000008"><a xlink:title=" ">
<polygon fill="#e0e0e0" stroke="#999999" points="128,-129 68,-129 68,-110 128,-110 128,-129"/>
<text text-anchor="middle" x="98" y="-117" font-family="Helvetica,sans-Serif" font-size="10.00">iostream</text>
</a>
</g>
</g>
<!-- Node5&#45;&gt;Node8 -->
<g id="edge7_Node000005_Node000008" class="edge">
<title>Node5&#45;&gt;Node8</title>
<g id="a_edge7_Node000005_Node000008"><a xlink:title=" ">
<path fill="none" stroke="#63b8ff" d="M279.22,-166.02C242.28,-156.74 179.16,-140.89 138.02,-130.55"/>
<polygon fill="#63b8ff" stroke="#63b8ff" points="138.87,-127.16 128.32,-128.11 137.16,-133.95 138.87,-127.16"/>
</a>
</g>
</g>
<!-- Node9 -->
<g id="Node000009" class="node">
<title>Node9</title>
<g id="a_Node000009"><a xlink:title=" ">
<polygon fill="#e0e0e0" stroke="#999999" points="190,-129 146,-129 146,-110 190,-110 190,-129"/>
<text text-anchor="middle" x="168" y="-117" font-family="Helvetica,sans-Serif" font-size="10.00">string</text>
</a>
</g>
</g>
<!-- Node5&#45;&gt;Node9 -->
<g id="edge8_Node000005_Node000009" class="edge">
<title>Node5&#45;&gt;Node9</title>
<g id="a_edge8_Node000005_Node000009"><a xlink:title=" ">
<path fill="none" stroke="#63b8ff" d="M286.35,-164.98C262.88,-156.16 226.01,-142.31 199.67,-132.4"/>
<polygon fill="#63b8ff" stroke="#63b8ff" points="200.73,-129.06 190.13,-128.82 198.26,-135.61 200.73,-129.06"/>
</a>
</g>
</g>
<!-- Node10 -->
<g id="Node000010" class="node">
<title>Node10</title>
<g id="a_Node000010"><a xlink:title=" ">
<polygon fill="#e0e0e0" stroke="#999999" points="301.5,-129 208.5,-129 208.5,-110 301.5,-110 301.5,-129"/>
<text text-anchor="middle" x="255" y="-117" font-family="Helvetica,sans-Serif" font-size="10.00">unordered_map</text>
</a>
</g>
</g>
<!-- Node5&#45;&gt;Node10 -->
<g id="edge9_Node000005_Node000010" class="edge">
<title>Node5&#45;&gt;Node10</title>
<g id="a_edge9_Node000005_Node000010"><a xlink:title=" ">
<path fill="none" stroke="#63b8ff" d="M300.08,-164.75C292.22,-157.03 280.57,-145.6 271.08,-136.28"/>
<polygon fill="#63b8ff" stroke="#63b8ff" points="273.34,-133.6 263.75,-129.09 268.44,-138.59 273.34,-133.6"/>
</a>
</g>
</g>
<!-- Node11 -->
<g id="Node000011" class="node">
<title>Node11</title>
<g id="a_Node000011"><a xlink:title=" ">
<polygon fill="#e0e0e0" stroke="#999999" points="406,-129 320,-129 320,-110 406,-110 406,-129"/>
<text text-anchor="middle" x="363" y="-117" font-family="Helvetica,sans-Serif" font-size="10.00">unordered_set</text>
</a>
</g>
</g>
<!-- Node5&#45;&gt;Node11 -->
<g id="edge10_Node000005_Node000011" class="edge">
<title>Node5&#45;&gt;Node11</title>
<g id="a_edge10_Node000005_Node000011"><a xlink:title=" ">
<path fill="none" stroke="#63b8ff" d="M317.92,-164.75C325.78,-157.03 337.43,-145.6 346.92,-136.28"/>
<polygon fill="#63b8ff" stroke="#63b8ff" points="349.56,-138.59 354.25,-129.09 344.66,-133.6 349.56,-138.59"/>
</a>
</g>
</g>
<!-- Node12 -->
<g id="Node000012" class="node">
<title>Node12</title>
<g id="a_Node000012"><a xlink:href="arena_8h.html" target="_top" xlink:title=" ">
<polygon fill="white" stroke="#666666" points="595,-129 529,-129 529,-110 595,-110 595,-129"/>
<text text-anchor="middle" x="562" y="-117" font-family="Helvetica,sans-Serif" font-size="10.00">fe/arena.h</text>
</a>
</g>
</g>
<!-- Node5&#45;&gt;Node12 -->
<g id="edge11_Node000005_Node000012" class="edge">
<title>Node5&#45;&gt;Node12</title>
<g id="a_edge11_Node000005_Node000012"><a xlink:title=" ">
<path fill="none" stroke="#63b8ff" d="M338.52,-167.32C383,-158 467.46,-140.3 518.85,-129.54"/>
<polygon fill="#63b8ff" stroke="#63b8ff" points="519.6,-132.96 528.67,-127.48 518.16,-126.11 519.6,-132.96"/>
</a>
</g>
</g>
<!-- Node13 -->
<g id="Node000013" class="node">
<title>Node13</title>
<g id="a_Node000013"><a xlink:title=" ">
<polygon fill="#e0e0e0" stroke="#999999" points="754,-74 690,-74 690,-55 754,-55 754,-74"/>
<text text-anchor="middle" x="722" y="-62" font-family="Helvetica,sans-Serif" font-size="10.00">algorithm</text>
</a>
</g>
</g>
<!-- Node12&#45;&gt;Node13 -->
<g id="edge12_Node000012_Node000013" class="edge">
<title>Node12&#45;&gt;Node13</title>
<g id="a_edge12_Node000012_Node000013"><a xlink:title=" ">
<path fill="none" stroke="#63b8ff" d="M587.71,-109.98C614.45,-101.13 656.53,-87.19 686.45,-77.28"/>
<polygon fill="#63b8ff" stroke="#63b8ff" points="687.7,-80.55 696.09,-74.08 685.5,-73.9 687.7,-80.55"/>
</a>
</g>
</g>
<!-- Node14 -->
<g id="Node000014" class="node">
<title>Node14</title>
<g id="a_Node000014"><a xlink:title=" ">
<polygon fill="#e0e0e0" stroke="#999999" points="520,-74 462,-74 462,-55 520,-55 520,-74"/>
<text text-anchor="middle" x="491" y="-62" font-family="Helvetica,sans-Serif" font-size="10.00">memory</text>
</a>
</g>
</g>
<!-- Node12&#45;&gt;Node14 -->
<g id="edge13_Node000012_Node000014" class="edge">
<title>Node12&#45;&gt;Node14</title>
<g id="a_edge13_Node000012_Node000014"><a xlink:title=" ">
<path fill="none" stroke="#63b8ff" d="M550.59,-109.98C539.89,-102 523.66,-89.88 510.84,-80.31"/>
<polygon fill="#63b8ff" stroke="#63b8ff" points="512.72,-77.35 502.61,-74.17 508.53,-82.96 512.72,-77.35"/>
</a>
</g>
</g>
<!-- Node15 -->
<g id="Node000015" class="node">
<title>Node15</title>
<g id="a_Node000015"><a xlink:title=" ">
<polygon fill="#e0e0e0" stroke="#999999" points="585.5,-74 538.5,-74 538.5,-55 585.5,-55 585.5,-74"/>
<text text-anchor="middle" x="562" y="-62" font-family="Helvetica,sans-Serif" font-size="10.00">vector</text>
</a>
</g>
</g>
<!-- Node12&#45;&gt;Node15 -->
<g id="edge14_Node000012_Node000015" class="edge">
<title>Node12&#45;&gt;Node15</title>
<g id="a_edge14_Node000012_Node000015"><a xlink:title=" ">
<path fill="none" stroke="#63b8ff" d="M562,-109.75C562,-102.8 562,-92.85 562,-84.13"/>
<polygon fill="#63b8ff" stroke="#63b8ff" points="565.5,-84.09 562,-74.09 558.5,-84.09 565.5,-84.09"/>
</a>
</g>
</g>
<!-- Node16 -->
<g id="Node000016" class="node">
<title>Node16</title>
<g id="a_Node000016"><a xlink:href="assert_8h.html" target="_top" xlink:title=" ">
<polygon fill="white" stroke="#666666" points="672,-74 604,-74 604,-55 672,-55 672,-74"/>
<text text-anchor="middle" x="638" y="-62" font-family="Helvetica,sans-Serif" font-size="10.00">fe/assert.h</text>
</a>
</g>
</g>
<!-- Node12&#45;&gt;Node16 -->
<g id="edge15_Node000012_Node000016" class="edge">
<title>Node12&#45;&gt;Node16</title>
<g id="a_edge15_Node000012_Node000016"><a xlink:title=" ">
<path fill="none" stroke="#63b8ff" d="M574.21,-109.98C585.78,-101.92 603.38,-89.65 617.16,-80.03"/>
<polygon fill="#63b8ff" stroke="#63b8ff" points="619.37,-82.76 625.57,-74.17 615.36,-77.02 619.37,-82.76"/>
</a>
</g>
</g>
<!-- Node16&#45;&gt;Node6 -->
<g id="edge16_Node000016_Node000006" class="edge">
<title>Node16&#45;&gt;Node6</title>
<g id="a_edge16_Node000016_Node000006"><a xlink:title=" ">
<path fill="none" stroke="#63b8ff" d="M621.61,-54.98C605.43,-46.57 580.43,-33.59 561.62,-23.81"/>
<polygon fill="#63b8ff" stroke="#63b8ff" points="563.17,-20.68 552.69,-19.17 559.95,-26.89 563.17,-20.68"/>
</a>
</g>
</g>
<!-- Node17&#45;&gt;Node13 -->
<g id="edge20_Node000017_Node000013" class="edge">
<title>Node17&#45;&gt;Node13</title>
<g id="a_edge20_Node000017_Node000013"><a xlink:title=" ">
<path fill="none" stroke="#63b8ff" d="M754.56,-109.75C749.11,-102.34 741.14,-91.5 734.44,-82.41"/>
<polygon fill="#63b8ff" stroke="#63b8ff" points="737.07,-80.07 728.32,-74.09 731.43,-84.22 737.07,-80.07"/>
</a>
</g>
</g>
<!-- Node17&#45;&gt;Node16 -->
<g id="edge22_Node000017_Node000016" class="edge">
<title>Node17&#45;&gt;Node16</title>
<g id="a_edge22_Node000017_Node000016"><a xlink:title=" ">
<path fill="none" stroke="#63b8ff" d="M741.24,-109.98C721.27,-101.38 690.2,-87.99 667.35,-78.15"/>
<polygon fill="#63b8ff" stroke="#63b8ff" points="668.69,-74.91 658.12,-74.17 665.92,-81.34 668.69,-74.91"/>
</a>
</g>
</g>
<!-- Node18 -->
<g id="Node000018" class="node">
<title>Node18</title>
<g id="a_Node000018"><a xlink:title=" ">
<polygon fill="#e0e0e0" stroke="#999999" points="825.5,-74 772.5,-74 772.5,-55 825.5,-55 825.5,-74"/>
<text text-anchor="middle" x="799" y="-62" font-family="Helvetica,sans-Serif" font-size="10.00">cstddef</text>
</a>
</g>
</g>
<!-- Node17&#45;&gt;Node18 -->
<g id="edge18_Node000017_Node000018" class="edge">
<title>Node17&#45;&gt;Node18</title>
<g id="a_edge18_Node000017_Node000018"><a xlink:title=" ">
<path fill="none" stroke="#63b8ff" d="M767.27,-109.75C772.59,-102.34 780.36,-91.5 786.88,-82.41"/>
<polygon fill="#63b8ff" stroke="#63b8ff" points="789.86,-84.26 792.84,-74.09 784.17,-80.18 789.86,-84.26"/>
</a>
</g>
</g>
<!-- Node19 -->
<g id="Node000019" class="node">
<title>Node19</title>
<g id="a_Node000019"><a xlink:title=" ">
<polygon fill="#e0e0e0" stroke="#999999" points="886,-74 844,-74 844,-55 886,-55 886,-74"/>
<text text-anchor="middle" x="865" y="-62" font-family="Helvetica,sans-Serif" font-size="10.00">array</text>
</a>
</g>
</g>
<!-- Node17&#45;&gt;Node19 -->
<g id="edge19_Node000017_Node000019" class="edge">
<title>Node17&#45;&gt;Node19</title>
<g id="a_edge19_Node000017_Node000019"><a xlink:title=" ">
<path fill="none" stroke="#63b8ff" d="M777.71,-109.98C794.21,-101.57 819.7,-88.59 838.88,-78.81"/>
<polygon fill="#63b8ff" stroke="#63b8ff" points="840.67,-81.83 847.99,-74.17 837.49,-75.59 840.67,-81.83"/>
</a>
</g>
</g>
<!-- Node20 -->
<g id="Node000020" class="node">
<title>Node20</title>
<g id="a_Node000020"><a xlink:title=" ">
<polygon fill="#e0e0e0" stroke="#999999" points="987.5,-74 904.5,-74 904.5,-55 987.5,-55 987.5,-74"/>
<text text-anchor="middle" x="946" y="-62" font-family="Helvetica,sans-Serif" font-size="10.00">initializer_list</text>
</a>
</g>
</g>
<!-- Node17&#45;&gt;Node20 -->
<g id="edge21_Node000017_Node000020" class="edge">
<title>Node17&#45;&gt;Node20</title>
<g id="a_edge21_Node000017_Node000020"><a xlink:title=" ">
<path fill="none" stroke="#63b8ff" d="M789.5,-110.33C820.77,-101.38 871.19,-86.93 906.32,-76.87"/>
<polygon fill="#63b8ff" stroke="#63b8ff" points="907.59,-80.14 916.24,-74.03 905.66,-73.42 907.59,-80.14"/>
</a>
</g>
</g>
</g>
</svg>
