<?xml version="1.0" encoding="UTF-8" standalone="no"?>
<!DOCTYPE svg PUBLIC "-//W3C//DTD SVG 1.1//EN"
 "http://www.w3.org/Graphics/SVG/1.1/DTD/svg11.dtd">
<!-- Generated by graphviz version 2.43.0 (0)
 -->
<!-- Title: fe/restore.h Pages: 1 -->
<svg width="338pt" height="302pt"
 viewBox="0.00 0.00 338.00 302.00" xmlns="http://www.w3.org/2000/svg" xmlns:xlink="http://www.w3.org/1999/xlink">
<g id="page0,1_graph0" class="graph" transform="scale(1 1) rotate(0) translate(4 298)">
<title>fe/restore.h</title>
<!-- Node1 -->
<g id="Node000001" class="node">
<title>Node1</title>
<g id="a_Node000001"><a xlink:title=" ">
<polygon fill="#999999" stroke="#666666" points="192.5,-294 119.5,-294 119.5,-275 192.5,-275 192.5,-294"/>
<text text-anchor="middle" x="156" y="-282" font-family="Helvetica,sans-Serif" font-size="10.00">fe/restore.h</text>
</a>
</g>
</g>
<!-- Node2 -->
<g id="Node000002" class="node">
<title>Node2</title>
<g id="a_Node000002"><a xlink:href="term_8h.html" target="_top" xlink:title=" ">
<polygon fill="white" stroke="#666666" points="187,-239 125,-239 125,-220 187,-220 187,-239"/>
<text text-anchor="middle" x="156" y="-227" font-family="Helvetica,sans-Serif" font-size="10.00">fe/term.h</text>
</a>
</g>
</g>
<!-- Node1&#45;&gt;Node2 -->
<g id="edge1_Node000001_Node000002" class="edge">
<title>Node1&#45;&gt;Node2</title>
<g id="a_edge1_Node000001_Node000002"><a xlink:title=" ">
<path fill="none" stroke="#63b8ff" d="M156,-264.66C156,-255.93 156,-245.99 156,-239.09"/>
<polygon fill="#63b8ff" stroke="#63b8ff" points="152.5,-264.75 156,-274.75 159.5,-264.75 152.5,-264.75"/>
</a>
</g>
</g>
<!-- Node3 -->
<g id="Node000003" class="node">
<title>Node3</title>
<g id="a_Node000003"><a xlink:href="cli_8h.html" target="_top" xlink:title=" ">
<polygon fill="white" stroke="#666666" points="50,-184 0,-184 0,-165 50,-165 50,-184"/>
<text text-anchor="middle" x="25" y="-172" font-family="Helvetica,sans-Serif" font-size="10.00">fe/cli.h</text>
</a>
</g>
</g>
<!-- Node2&#45;&gt;Node3 -->
<g id="edge2_Node000002_Node000003" class="edge">
<title>Node2&#45;&gt;Node3</title>
<g id="a_edge2_Node000002_Node000003"><a xlink:title=" ">
<path fill="none" stroke="#63b8ff" d="M125.5,-216.16C101.25,-206.35 67.93,-192.87 46.43,-184.17"/>
<polygon fill="#63b8ff" stroke="#63b8ff" points="124.37,-219.48 134.95,-219.98 127,-212.99 124.37,-219.48"/>
</a>
</g>
</g>
<!-- Node4 -->
<g id="Node000004" class="node">
<title>Node4</title>
<g id="a_Node000004"><a xlink:href="diag_8h.html" target="_top" xlink:title=" ">
<polygon fill="white" stroke="#666666" points="127.5,-184 68.5,-184 68.5,-165 127.5,-165 127.5,-184"/>
<text text-anchor="middle" x="98" y="-172" font-family="Helvetica,sans-Serif" font-size="10.00">fe/diag.h</text>
</a>
</g>
</g>
<!-- Node2&#45;&gt;Node4 -->
<g id="edge3_Node000002_Node000004" class="edge">
<title>Node2&#45;&gt;Node4</title>
<g id="a_edge3_Node000002_Node000004"><a xlink:title=" ">
<path fill="none" stroke="#63b8ff" d="M139.09,-213.04C128.8,-203.64 116.03,-191.98 107.49,-184.17"/>
<polygon fill="#63b8ff" stroke="#63b8ff" points="136.94,-215.82 146.68,-219.98 141.66,-210.66 136.94,-215.82"/>
</a>
</g>
</g>
<!-- Node8 -->
<g id="Node000008" class="node">
<title>Node8</title>
<g id="a_Node000008"><a xlink:href="error_8h.html" target="_top" xlink:title=" ">
<polygon fill="white" stroke="#666666" points="186.5,-129 125.5,-129 125.5,-110 186.5,-110 186.5,-129"/>
<text text-anchor="middle" x="156" y="-117" font-family="Helvetica,sans-Serif" font-size="10.00">fe/error.h</text>
</a>
</g>
</g>
<!-- Node2&#45;&gt;Node8 -->
<g id="edge9_Node000002_Node000008" class="edge">
<title>Node2&#45;&gt;Node8</title>
<g id="a_edge9_Node000002_Node000008"><a xlink:title=" ">
<path fill="none" stroke="#63b8ff" d="M156,-209.48C156,-185.84 156,-146.5 156,-129.16"/>
<polygon fill="#63b8ff" stroke="#63b8ff" points="152.5,-209.66 156,-219.66 159.5,-209.66 152.5,-209.66"/>
</a>
</g>
</g>
<!-- Node9 -->
<g id="Node000009" class="node">
<title>Node9</title>
<g id="a_Node000009"><a xlink:href="log_8h.html" target="_top" xlink:title=" ">
<polygon fill="white" stroke="#666666" points="237.5,-184 184.5,-184 184.5,-165 237.5,-165 237.5,-184"/>
<text text-anchor="middle" x="211" y="-172" font-family="Helvetica,sans-Serif" font-size="10.00">fe/log.h</text>
</a>
</g>
</g>
<!-- Node2&#45;&gt;Node9 -->
<g id="edge10_Node000002_Node000009" class="edge">
<title>Node2&#45;&gt;Node9</title>
<g id="a_edge10_Node000002_Node000009"><a xlink:title=" ">
<path fill="none" stroke="#63b8ff" d="M172.29,-212.8C182.04,-203.41 194.05,-191.83 202.09,-184.09"/>
<polygon fill="#63b8ff" stroke="#63b8ff" points="169.85,-210.29 165.08,-219.75 174.71,-215.33 169.85,-210.29"/>
</a>
</g>
</g>
<!-- Node10 -->
<g id="Node000010" class="node">
<title>Node10</title>
<g id="a_Node000010"><a xlink:href="snippet_8h.html" target="_top" xlink:title=" ">
<polygon fill="white" stroke="#666666" points="330,-184 256,-184 256,-165 330,-165 330,-184"/>
<text text-anchor="middle" x="293" y="-172" font-family="Helvetica,sans-Serif" font-size="10.00">fe/snippet.h</text>
</a>
</g>
</g>
<!-- Node2&#45;&gt;Node10 -->
<g id="edge11_Node000002_Node000010" class="edge">
<title>Node2&#45;&gt;Node10</title>
<g id="a_edge11_Node000002_Node000010"><a xlink:title=" ">
<path fill="none" stroke="#63b8ff" d="M187.56,-216.29C212.95,-206.47 248,-192.91 270.59,-184.17"/>
<polygon fill="#63b8ff" stroke="#63b8ff" points="186.08,-213.11 178.01,-219.98 188.6,-219.64 186.08,-213.11"/>
</a>
</g>
</g>
<!-- Node5 -->
<g id="Node000005" class="node">
<title>Node5</title>
<g id="a_Node000005"><a xlink:href="driver_8h.html" target="_top" xlink:title=" ">
<polygon fill="white" stroke="#666666" points="159,-74 93,-74 93,-55 159,-55 159,-74"/>
<text text-anchor="middle" x="126" y="-62" font-family="Helvetica,sans-Serif" font-size="10.00">fe/driver.h</text>
</a>
</g>
</g>
<!-- Node4&#45;&gt;Node5 -->
<g id="edge4_Node000004_Node000005" class="edge">
<title>Node4&#45;&gt;Node5</title>
<g id="a_edge4_Node000004_Node000005"><a xlink:title=" ">
<path fill="none" stroke="#63b8ff" d="M102.85,-154.8C108.97,-131.2 119.24,-91.58 123.76,-74.16"/>
<polygon fill="#63b8ff" stroke="#63b8ff" points="99.41,-154.1 100.29,-164.66 106.19,-155.86 99.41,-154.1"/>
</a>
</g>
</g>
<!-- Node4&#45;&gt;Node8 -->
<g id="edge7_Node000004_Node000008" class="edge">
<title>Node4&#45;&gt;Node8</title>
<g id="a_edge7_Node000004_Node000008"><a xlink:title=" ">
<path fill="none" stroke="#63b8ff" d="M114.91,-158.04C125.2,-148.64 137.97,-136.98 146.51,-129.17"/>
<polygon fill="#63b8ff" stroke="#63b8ff" points="112.34,-155.66 107.32,-164.98 117.06,-160.82 112.34,-155.66"/>
</a>
</g>
</g>
<!-- Node6 -->
<g id="Node000006" class="node">
<title>Node6</title>
<g id="a_Node000006"><a xlink:href="lexer_8h.html" target="_top" xlink:title=" ">
<polygon fill="white" stroke="#666666" points="116,-19 54,-19 54,0 116,0 116,-19"/>
<text text-anchor="middle" x="85" y="-7" font-family="Helvetica,sans-Serif" font-size="10.00">fe/lexer.h</text>
</a>
</g>
</g>
<!-- Node5&#45;&gt;Node6 -->
<g id="edge5_Node000005_Node000006" class="edge">
<title>Node5&#45;&gt;Node6</title>
<g id="a_edge5_Node000005_Node000006"><a xlink:title=" ">
<path fill="none" stroke="#63b8ff" d="M112.98,-46.67C105.88,-37.5 97.4,-26.52 91.64,-19.09"/>
<polygon fill="#63b8ff" stroke="#63b8ff" points="110.34,-48.98 119.23,-54.75 115.88,-44.7 110.34,-48.98"/>
</a>
</g>
</g>
<!-- Node7 -->
<g id="Node000007" class="node">
<title>Node7</title>
<g id="a_Node000007"><a xlink:href="parser_8h.html" target="_top" xlink:title=" ">
<polygon fill="white" stroke="#666666" points="202,-19 134,-19 134,0 202,0 202,-19"/>
<text text-anchor="middle" x="168" y="-7" font-family="Helvetica,sans-Serif" font-size="10.00">fe/parser.h</text>
</a>
</g>
</g>
<!-- Node5&#45;&gt;Node7 -->
<g id="edge6_Node000005_Node000007" class="edge">
<title>Node5&#45;&gt;Node7</title>
<g id="a_edge6_Node000005_Node000007"><a xlink:title=" ">
<path fill="none" stroke="#63b8ff" d="M139.33,-46.67C146.61,-37.5 155.3,-26.52 161.19,-19.09"/>
<polygon fill="#63b8ff" stroke="#63b8ff" points="136.4,-44.74 132.94,-54.75 141.89,-49.08 136.4,-44.74"/>
</a>
</g>
</g>
<!-- Node8&#45;&gt;Node5 -->
<g id="edge8_Node000008_Node000005" class="edge">
<title>Node8&#45;&gt;Node5</title>
<g id="a_edge8_Node000008_Node000005"><a xlink:title=" ">
<path fill="none" stroke="#63b8ff" d="M145.99,-100.82C140.9,-91.82 134.94,-81.29 130.86,-74.09"/>
<polygon fill="#63b8ff" stroke="#63b8ff" points="143.07,-102.77 151.05,-109.75 149.17,-99.32 143.07,-102.77"/>
</a>
</g>
</g>
</g>
</svg>
