<?xml version="1.0" encoding="UTF-8" standalone="no"?>
<!DOCTYPE svg PUBLIC "-//W3C//DTD SVG 1.1//EN"
 "http://www.w3.org/Graphics/SVG/1.1/DTD/svg11.dtd">
<!-- Generated by graphviz version 2.43.0 (0)
 -->
<!-- Title: fe::basic_ostream_formatter&lt; Char &gt; Pages: 1 -->
<svg width="450pt" height="182pt"
 viewBox="0.00 0.00 450.00 182.00" xmlns="http://www.w3.org/2000/svg" xmlns:xlink="http://www.w3.org/1999/xlink">

<svg id="main" version="1.1" xmlns="http://www.w3.org/2000/svg" xmlns:xlink="http://www.w3.org/1999/xlink" xml:space="preserve" onload="init(evt)">
<style type="text/css"><![CDATA[
.node, .edge {opacity: 0.7;}
.node.selected, .edge.selected {opacity: 1;}
.edge:hover path { stroke: red; }
.edge:hover polygon { stroke: red; fill: red; }
]]></style>
<script type="application/ecmascript" xlink:href="svg.min.js"/>
<svg id="graph" class="graph">
<g id="graph0" class="graph" transform="scale(1 1) rotate(0) translate(4 178)">
<title>fe::basic_ostream_formatter&lt; Char &gt;</title>
<!-- Node1 -->
<g id="Node000001" class="node">
<title>Node1</title>
<g id="a_Node000001"><a xlink:title="Make types that support ostream operators available for std::format.">
<polygon fill="#999999" stroke="#666666" points="301,-102 146,-102 146,-72 301,-72 301,-102"/>
<text text-anchor="start" x="154" y="-90" font-family="Helvetica,sans-Serif" font-size="10.00">fe::basic_ostream_formatter</text>
<text text-anchor="middle" x="223.5" y="-79" font-family="Helvetica,sans-Serif" font-size="10.00">&lt; Char &gt;</text>
</a>
</g>
</g>
<!-- Node3 -->
<g id="Node000003" class="node">
<title>Node3</title>
<g id="a_Node000003"><a xlink:href="structstd_1_1formatter_3_01fe_1_1Loc_01_4.html" target="_top" xlink:title=" ">
<polygon fill="white" stroke="#666666" points="442,-174 337,-174 337,-144 442,-144 442,-174"/>
<text text-anchor="start" x="345" y="-162" font-family="Helvetica,sans-Serif" font-size="10.00">std::formatter&lt; fe</text>
<text text-anchor="middle" x="389.5" y="-151" font-family="Helvetica,sans-Serif" font-size="10.00">::Loc &gt;</text>
</a>
</g>
</g>
<!-- Node1&#45;&gt;Node3 -->
<g id="edge2_Node000001_Node000003" class="edge">
<title>Node1&#45;&gt;Node3</title>
<g id="a_edge2_Node000001_Node000003"><a xlink:title=" ">
<path fill="none" stroke="#63b8ff" d="M268.09,-106.14C295.04,-117.97 329.14,-132.94 354.17,-143.93"/>
<polygon fill="#63b8ff" stroke="#63b8ff" points="269.44,-102.91 258.88,-102.09 266.63,-109.32 269.44,-102.91"/>
</a>
</g>
</g>
<!-- Node4 -->
<g id="Node000004" class="node">
<title>Node4</title>
<g id="a_Node000004"><a xlink:href="structstd_1_1formatter_3_01fe_1_1Pos_01_4.html" target="_top" xlink:title=" ">
<polygon fill="white" stroke="#666666" points="442,-126 337,-126 337,-96 442,-96 442,-126"/>
<text text-anchor="start" x="345" y="-114" font-family="Helvetica,sans-Serif" font-size="10.00">std::formatter&lt; fe</text>
<text text-anchor="middle" x="389.5" y="-103" font-family="Helvetica,sans-Serif" font-size="10.00">::Pos &gt;</text>
</a>
</g>
</g>
<!-- Node1&#45;&gt;Node4 -->
<g id="edge3_Node000001_Node000004" class="edge">
<title>Node1&#45;&gt;Node4</title>
<g id="a_edge3_Node000001_Node000004"><a xlink:title=" ">
<path fill="none" stroke="#63b8ff" d="M311.36,-99.71C319.99,-100.97 328.55,-102.23 336.65,-103.41"/>
<polygon fill="#63b8ff" stroke="#63b8ff" points="311.62,-96.21 301.22,-98.23 310.61,-103.14 311.62,-96.21"/>
</a>
</g>
</g>
<!-- Node5 -->
<g id="Node000005" class="node">
<title>Node5</title>
<g id="a_Node000005"><a xlink:href="structstd_1_1formatter_3_01fe_1_1Sym_01_4.html" target="_top" xlink:title=" ">
<polygon fill="white" stroke="#666666" points="442,-78 337,-78 337,-48 442,-48 442,-78"/>
<text text-anchor="start" x="345" y="-66" font-family="Helvetica,sans-Serif" font-size="10.00">std::formatter&lt; fe</text>
<text text-anchor="middle" x="389.5" y="-55" font-family="Helvetica,sans-Serif" font-size="10.00">::Sym &gt;</text>
</a>
</g>
</g>
<!-- Node1&#45;&gt;Node5 -->
<g id="edge4_Node000001_Node000005" class="edge">
<title>Node1&#45;&gt;Node5</title>
<g id="a_edge4_Node000001_Node000005"><a xlink:title=" ">
<path fill="none" stroke="#63b8ff" d="M311.36,-74.29C319.99,-73.03 328.55,-71.77 336.65,-70.59"/>
<polygon fill="#63b8ff" stroke="#63b8ff" points="310.61,-70.86 301.22,-75.77 311.62,-77.79 310.61,-70.86"/>
</a>
</g>
</g>
<!-- Node6 -->
<g id="Node000006" class="node">
<title>Node6</title>
<g id="a_Node000006"><a xlink:href="structstd_1_1formatter_3_01fe_1_1Tab_01_4.html" target="_top" xlink:title=" ">
<polygon fill="white" stroke="#666666" points="442,-30 337,-30 337,0 442,0 442,-30"/>
<text text-anchor="start" x="345" y="-18" font-family="Helvetica,sans-Serif" font-size="10.00">std::formatter&lt; fe</text>
<text text-anchor="middle" x="389.5" y="-7" font-family="Helvetica,sans-Serif" font-size="10.00">::Tab &gt;</text>
</a>
</g>
</g>
<!-- Node1&#45;&gt;Node6 -->
<g id="edge5_Node000001_Node000006" class="edge">
<title>Node1&#45;&gt;Node6</title>
<g id="a_edge5_Node000001_Node000006"><a xlink:title=" ">
<path fill="none" stroke="#63b8ff" d="M268.09,-67.86C295.04,-56.03 329.14,-41.06 354.17,-30.07"/>
<polygon fill="#63b8ff" stroke="#63b8ff" points="266.63,-64.68 258.88,-71.91 269.44,-71.09 266.63,-64.68"/>
</a>
</g>
</g>
<!-- Node2 -->
<g id="Node000002" class="node">
<title>Node2</title>
<g id="a_Node000002"><a xlink:title=" ">
<polygon fill="white" stroke="#666666" points="110,-107.5 0,-107.5 0,-66.5 110,-66.5 110,-107.5"/>
<text text-anchor="start" x="8" y="-95.5" font-family="Helvetica,sans-Serif" font-size="10.00">std::formatter&lt; std</text>
<text text-anchor="start" x="8" y="-84.5" font-family="Helvetica,sans-Serif" font-size="10.00">::basic_string_view</text>
<text text-anchor="middle" x="55" y="-73.5" font-family="Helvetica,sans-Serif" font-size="10.00">&lt; Char &gt;, Char &gt;</text>
</a>
</g>
</g>
<!-- Node2&#45;&gt;Node1 -->
<g id="edge1_Node000001_Node000002" class="edge">
<title>Node2&#45;&gt;Node1</title>
<g id="a_edge1_Node000001_Node000002"><a xlink:title=" ">
<path fill="none" stroke="#63b8ff" d="M120.12,-87C128.51,-87 137.16,-87 145.73,-87"/>
<polygon fill="#63b8ff" stroke="#63b8ff" points="120.06,-83.5 110.06,-87 120.06,-90.5 120.06,-83.5"/>
</a>
</g>
</g>
</g>
</svg>
</svg>

<style type='text/css'>
<![CDATA[
[data-mouse-over-selected='false'] { opacity: 0.7; }
[data-mouse-over-selected='true']  { opacity: 1.0; }
]]>
</style>
<script type="application/ecmascript"><![CDATA[
document.addEventListener('DOMContentLoaded', (event) => {
  highlightEdges();
  highlightAdjacentNodes();
});
]]></script>
</svg>
