<?xml version="1.0" encoding="UTF-8" standalone="no"?>
<!DOCTYPE svg PUBLIC "-//W3C//DTD SVG 1.1//EN"
 "http://www.w3.org/Graphics/SVG/1.1/DTD/svg11.dtd">
<!-- Generated by graphviz version 2.43.0 (0)
 -->
<!-- Title: fe::basic_ostream_formatter&lt; Char &gt; Pages: 1 -->
<svg width="359pt" height="181pt"
 viewBox="0.00 0.00 359.00 181.00" xmlns="http://www.w3.org/2000/svg" xmlns:xlink="http://www.w3.org/1999/xlink">
<g id="graph0" class="graph" transform="scale(1 1) rotate(0) translate(4 177)">
<title>fe::basic_ostream_formatter&lt; Char &gt;</title>
<!-- Node1 -->
<g id="Node000001" class="node">
<title>Node1</title>
<g id="a_Node000001"><a xlink:title="Make types that support ostream operators available for std::format.">
<polygon fill="#999999" stroke="#666666" points="253,-96 98,-96 98,-66 253,-66 253,-96"/>
<text text-anchor="start" x="106" y="-84" font-family="Helvetica,sans-Serif" font-size="10.00">fe::basic_ostream_formatter</text>
<text text-anchor="middle" x="175.5" y="-73" font-family="Helvetica,sans-Serif" font-size="10.00">&lt; Char &gt;</text>
</a>
</g>
</g>
<!-- Node3 -->
<g id="Node000003" class="node">
<title>Node3</title>
<g id="a_Node000003"><a xlink:href="structstd_1_1formatter_3_01fe_1_1Loc_01_4.html" target="_top" xlink:title=" ">
<polygon fill="white" stroke="#666666" points="105,-30 0,-30 0,0 105,0 105,-30"/>
<text text-anchor="start" x="8" y="-18" font-family="Helvetica,sans-Serif" font-size="10.00">std::formatter&lt; fe</text>
<text text-anchor="middle" x="52.5" y="-7" font-family="Helvetica,sans-Serif" font-size="10.00">::Loc &gt;</text>
</a>
</g>
</g>
<!-- Node1&#45;&gt;Node3 -->
<g id="edge2_Node000001_Node000003" class="edge">
<title>Node1&#45;&gt;Node3</title>
<g id="a_edge2_Node000001_Node000003"><a xlink:title=" ">
<path fill="none" stroke="#63b8ff" d="M139.45,-61.24C120.25,-51.25 97.04,-39.18 79.43,-30.01"/>
<polygon fill="#63b8ff" stroke="#63b8ff" points="138.02,-64.44 148.51,-65.95 141.25,-58.23 138.02,-64.44"/>
</a>
</g>
</g>
<!-- Node4 -->
<g id="Node000004" class="node">
<title>Node4</title>
<g id="a_Node000004"><a xlink:href="structstd_1_1formatter_3_01fe_1_1Pos_01_4.html" target="_top" xlink:title=" ">
<polygon fill="white" stroke="#666666" points="228,-30 123,-30 123,0 228,0 228,-30"/>
<text text-anchor="start" x="131" y="-18" font-family="Helvetica,sans-Serif" font-size="10.00">std::formatter&lt; fe</text>
<text text-anchor="middle" x="175.5" y="-7" font-family="Helvetica,sans-Serif" font-size="10.00">::Pos &gt;</text>
</a>
</g>
</g>
<!-- Node1&#45;&gt;Node4 -->
<g id="edge3_Node000001_Node000004" class="edge">
<title>Node1&#45;&gt;Node4</title>
<g id="a_edge3_Node000001_Node000004"><a xlink:title=" ">
<path fill="none" stroke="#63b8ff" d="M175.5,-55.54C175.5,-46.96 175.5,-37.61 175.5,-30.16"/>
<polygon fill="#63b8ff" stroke="#63b8ff" points="172,-55.8 175.5,-65.8 179,-55.8 172,-55.8"/>
</a>
</g>
</g>
<!-- Node5 -->
<g id="Node000005" class="node">
<title>Node5</title>
<g id="a_Node000005"><a xlink:href="structstd_1_1formatter_3_01fe_1_1Tab_01_4.html" target="_top" xlink:title=" ">
<polygon fill="white" stroke="#666666" points="351,-30 246,-30 246,0 351,0 351,-30"/>
<text text-anchor="start" x="254" y="-18" font-family="Helvetica,sans-Serif" font-size="10.00">std::formatter&lt; fe</text>
<text text-anchor="middle" x="298.5" y="-7" font-family="Helvetica,sans-Serif" font-size="10.00">::Tab &gt;</text>
</a>
</g>
</g>
<!-- Node1&#45;&gt;Node5 -->
<g id="edge4_Node000001_Node000005" class="edge">
<title>Node1&#45;&gt;Node5</title>
<g id="a_edge4_Node000001_Node000005"><a xlink:title=" ">
<path fill="none" stroke="#63b8ff" d="M211.55,-61.24C230.75,-51.25 253.96,-39.18 271.57,-30.01"/>
<polygon fill="#63b8ff" stroke="#63b8ff" points="209.75,-58.23 202.49,-65.95 212.98,-64.44 209.75,-58.23"/>
</a>
</g>
</g>
<!-- Node2 -->
<g id="Node000002" class="node">
<title>Node2</title>
<g id="a_Node000002"><a xlink:title=" ">
<polygon fill="white" stroke="#666666" points="230.5,-173 120.5,-173 120.5,-132 230.5,-132 230.5,-173"/>
<text text-anchor="start" x="128.5" y="-161" font-family="Helvetica,sans-Serif" font-size="10.00">std::formatter&lt; std</text>
<text text-anchor="start" x="128.5" y="-150" font-family="Helvetica,sans-Serif" font-size="10.00">::basic_string_view</text>
<text text-anchor="middle" x="175.5" y="-139" font-family="Helvetica,sans-Serif" font-size="10.00">&lt; Char &gt;, Char &gt;</text>
</a>
</g>
</g>
<!-- Node2&#45;&gt;Node1 -->
<g id="edge1_Node000001_Node000002" class="edge">
<title>Node2&#45;&gt;Node1</title>
<g id="a_edge1_Node000001_Node000002"><a xlink:title=" ">
<path fill="none" stroke="#63b8ff" d="M175.5,-121.66C175.5,-112.76 175.5,-103.42 175.5,-96.04"/>
<polygon fill="#63b8ff" stroke="#63b8ff" points="172,-121.77 175.5,-131.77 179,-121.77 172,-121.77"/>
</a>
</g>
</g>
</g>
</svg>
