<?xml version="1.0" encoding="UTF-8" standalone="no"?>
<!DOCTYPE svg PUBLIC "-//W3C//DTD SVG 1.1//EN"
 "http://www.w3.org/Graphics/SVG/1.1/DTD/svg11.dtd">
<!-- Generated by graphviz version 2.43.0 (0)
 -->
<!-- Title: fe/sym.h Pages: 1 -->
<svg width="741pt" height="192pt"
 viewBox="0.00 0.00 741.00 192.00" xmlns="http://www.w3.org/2000/svg" xmlns:xlink="http://www.w3.org/1999/xlink">
<g id="page0,1_graph0" class="graph" transform="scale(1 1) rotate(0) translate(4 188)">
<title>fe/sym.h</title>
<!-- Node1 -->
<g id="Node000001" class="node">
<title>Node1</title>
<g id="a_Node000001"><a xlink:title=" ">
<polygon fill="#999999" stroke="#666666" points="460.5,-184 401.5,-184 401.5,-165 460.5,-165 460.5,-184"/>
<text text-anchor="middle" x="431" y="-172" font-family="Helvetica,sans-Serif" font-size="10.00">fe/sym.h</text>
</a>
</g>
</g>
<!-- Node2 -->
<g id="Node000002" class="node">
<title>Node2</title>
<g id="a_Node000002"><a xlink:title=" ">
<polygon fill="#e0e0e0" stroke="#999999" points="52,-19 0,-19 0,0 52,0 52,-19"/>
<text text-anchor="middle" x="26" y="-7" font-family="Helvetica,sans-Serif" font-size="10.00">cassert</text>
</a>
</g>
</g>
<!-- Node1&#45;&gt;Node2 -->
<g id="edge1_Node000001_Node000002" class="edge">
<title>Node1&#45;&gt;Node2</title>
<g id="a_edge1_Node000001_Node000002"><a xlink:title=" ">
<path fill="none" stroke="#63b8ff" d="M401.32,-174.17C331.58,-174.15 155.36,-164.55 52,-74 38.99,-62.6 32.37,-43.71 29.08,-29.49"/>
<polygon fill="#63b8ff" stroke="#63b8ff" points="32.45,-28.46 27.1,-19.32 25.58,-29.8 32.45,-28.46"/>
</a>
</g>
</g>
<!-- Node3 -->
<g id="Node000003" class="node">
<title>Node3</title>
<g id="a_Node000003"><a xlink:title=" ">
<polygon fill="#e0e0e0" stroke="#999999" points="388.5,-129 359.5,-129 359.5,-110 388.5,-110 388.5,-129"/>
<text text-anchor="middle" x="374" y="-117" font-family="Helvetica,sans-Serif" font-size="10.00">bit</text>
</a>
</g>
</g>
<!-- Node1&#45;&gt;Node3 -->
<g id="edge2_Node000001_Node000003" class="edge">
<title>Node1&#45;&gt;Node3</title>
<g id="a_edge2_Node000001_Node000003"><a xlink:title=" ">
<path fill="none" stroke="#63b8ff" d="M421.84,-164.98C413.5,-157.23 400.97,-145.58 390.82,-136.14"/>
<polygon fill="#63b8ff" stroke="#63b8ff" points="393.03,-133.42 383.32,-129.17 388.26,-138.54 393.03,-133.42"/>
</a>
</g>
</g>
<!-- Node4 -->
<g id="Node000004" class="node">
<title>Node4</title>
<g id="a_Node000004"><a xlink:title=" ">
<polygon fill="#e0e0e0" stroke="#999999" points="455,-129 407,-129 407,-110 455,-110 455,-129"/>
<text text-anchor="middle" x="431" y="-117" font-family="Helvetica,sans-Serif" font-size="10.00">iosfwd</text>
</a>
</g>
</g>
<!-- Node1&#45;&gt;Node4 -->
<g id="edge3_Node000001_Node000004" class="edge">
<title>Node1&#45;&gt;Node4</title>
<g id="a_edge3_Node000001_Node000004"><a xlink:title=" ">
<path fill="none" stroke="#63b8ff" d="M431,-164.75C431,-157.8 431,-147.85 431,-139.13"/>
<polygon fill="#63b8ff" stroke="#63b8ff" points="434.5,-139.09 431,-129.09 427.5,-139.09 434.5,-139.09"/>
</a>
</g>
</g>
<!-- Node5 -->
<g id="Node000005" class="node">
<title>Node5</title>
<g id="a_Node000005"><a xlink:title=" ">
<polygon fill="#e0e0e0" stroke="#999999" points="517,-129 473,-129 473,-110 517,-110 517,-129"/>
<text text-anchor="middle" x="495" y="-117" font-family="Helvetica,sans-Serif" font-size="10.00">string</text>
</a>
</g>
</g>
<!-- Node1&#45;&gt;Node5 -->
<g id="edge4_Node000001_Node000005" class="edge">
<title>Node1&#45;&gt;Node5</title>
<g id="a_edge4_Node000001_Node000005"><a xlink:title=" ">
<path fill="none" stroke="#63b8ff" d="M441.28,-164.98C450.84,-157.07 465.28,-145.11 476.78,-135.58"/>
<polygon fill="#63b8ff" stroke="#63b8ff" points="479.06,-138.24 484.53,-129.17 474.6,-132.85 479.06,-138.24"/>
</a>
</g>
</g>
<!-- Node6 -->
<g id="Node000006" class="node">
<title>Node6</title>
<g id="a_Node000006"><a xlink:title=" ">
<polygon fill="#e0e0e0" stroke="#999999" points="628.5,-129 535.5,-129 535.5,-110 628.5,-110 628.5,-129"/>
<text text-anchor="middle" x="582" y="-117" font-family="Helvetica,sans-Serif" font-size="10.00">unordered_map</text>
</a>
</g>
</g>
<!-- Node1&#45;&gt;Node6 -->
<g id="edge5_Node000001_Node000006" class="edge">
<title>Node1&#45;&gt;Node6</title>
<g id="a_edge5_Node000001_Node000006"><a xlink:title=" ">
<path fill="none" stroke="#63b8ff" d="M455.26,-164.98C480.32,-156.19 519.63,-142.39 547.83,-132.49"/>
<polygon fill="#63b8ff" stroke="#63b8ff" points="549.02,-135.78 557.3,-129.17 546.7,-129.18 549.02,-135.78"/>
</a>
</g>
</g>
<!-- Node7 -->
<g id="Node000007" class="node">
<title>Node7</title>
<g id="a_Node000007"><a xlink:title=" ">
<polygon fill="#e0e0e0" stroke="#999999" points="733,-129 647,-129 647,-110 733,-110 733,-129"/>
<text text-anchor="middle" x="690" y="-117" font-family="Helvetica,sans-Serif" font-size="10.00">unordered_set</text>
</a>
</g>
</g>
<!-- Node1&#45;&gt;Node7 -->
<g id="edge6_Node000001_Node000007" class="edge">
<title>Node1&#45;&gt;Node7</title>
<g id="a_edge6_Node000001_Node000007"><a xlink:title=" ">
<path fill="none" stroke="#63b8ff" d="M460.71,-167.42C504.03,-158.56 585.13,-141.96 638.35,-131.07"/>
<polygon fill="#63b8ff" stroke="#63b8ff" points="639.18,-134.47 648.27,-129.04 637.78,-127.61 639.18,-134.47"/>
</a>
</g>
</g>
<!-- Node8 -->
<g id="Node000008" class="node">
<title>Node8</title>
<g id="a_Node000008"><a xlink:href="arena_8h.html" target="_top" xlink:title=" ">
<polygon fill="white" stroke="#666666" points="341,-129 275,-129 275,-110 341,-110 341,-129"/>
<text text-anchor="middle" x="308" y="-117" font-family="Helvetica,sans-Serif" font-size="10.00">fe/arena.h</text>
</a>
</g>
</g>
<!-- Node1&#45;&gt;Node8 -->
<g id="edge7_Node000001_Node000008" class="edge">
<title>Node1&#45;&gt;Node8</title>
<g id="a_edge7_Node000001_Node000008"><a xlink:title=" ">
<path fill="none" stroke="#63b8ff" d="M411.24,-164.98C391.27,-156.38 360.2,-142.99 337.35,-133.15"/>
<polygon fill="#63b8ff" stroke="#63b8ff" points="338.69,-129.91 328.12,-129.17 335.92,-136.34 338.69,-129.91"/>
</a>
</g>
</g>
<!-- Node9 -->
<g id="Node000009" class="node">
<title>Node9</title>
<g id="a_Node000009"><a xlink:title=" ">
<polygon fill="#e0e0e0" stroke="#999999" points="211,-74 147,-74 147,-55 211,-55 211,-74"/>
<text text-anchor="middle" x="179" y="-62" font-family="Helvetica,sans-Serif" font-size="10.00">algorithm</text>
</a>
</g>
</g>
<!-- Node8&#45;&gt;Node9 -->
<g id="edge8_Node000008_Node000009" class="edge">
<title>Node8&#45;&gt;Node9</title>
<g id="a_edge8_Node000008_Node000009"><a xlink:title=" ">
<path fill="none" stroke="#63b8ff" d="M287.27,-109.98C266.24,-101.34 233.45,-87.87 209.46,-78.02"/>
<polygon fill="#63b8ff" stroke="#63b8ff" points="210.68,-74.73 200.1,-74.17 208.02,-81.21 210.68,-74.73"/>
</a>
</g>
</g>
<!-- Node10 -->
<g id="Node000010" class="node">
<title>Node10</title>
<g id="a_Node000010"><a xlink:title=" ">
<polygon fill="#e0e0e0" stroke="#999999" points="261,-74 229,-74 229,-55 261,-55 261,-74"/>
<text text-anchor="middle" x="245" y="-62" font-family="Helvetica,sans-Serif" font-size="10.00">list</text>
</a>
</g>
</g>
<!-- Node8&#45;&gt;Node10 -->
<g id="edge9_Node000008_Node000010" class="edge">
<title>Node8&#45;&gt;Node10</title>
<g id="a_edge9_Node000008_Node000010"><a xlink:title=" ">
<path fill="none" stroke="#63b8ff" d="M297.88,-109.98C288.56,-102.15 274.53,-90.34 263.26,-80.86"/>
<polygon fill="#63b8ff" stroke="#63b8ff" points="265.21,-77.93 255.31,-74.17 260.71,-83.29 265.21,-77.93"/>
</a>
</g>
</g>
<!-- Node11 -->
<g id="Node000011" class="node">
<title>Node11</title>
<g id="a_Node000011"><a xlink:title=" ">
<polygon fill="#e0e0e0" stroke="#999999" points="337,-74 279,-74 279,-55 337,-55 337,-74"/>
<text text-anchor="middle" x="308" y="-62" font-family="Helvetica,sans-Serif" font-size="10.00">memory</text>
</a>
</g>
</g>
<!-- Node8&#45;&gt;Node11 -->
<g id="edge10_Node000008_Node000011" class="edge">
<title>Node8&#45;&gt;Node11</title>
<g id="a_edge10_Node000008_Node000011"><a xlink:title=" ">
<path fill="none" stroke="#63b8ff" d="M308,-109.75C308,-102.8 308,-92.85 308,-84.13"/>
<polygon fill="#63b8ff" stroke="#63b8ff" points="311.5,-84.09 308,-74.09 304.5,-84.09 311.5,-84.09"/>
</a>
</g>
</g>
<!-- Node12 -->
<g id="Node000012" class="node">
<title>Node12</title>
<g id="a_Node000012"><a xlink:title=" ">
<polygon fill="#e0e0e0" stroke="#999999" points="460.5,-74 355.5,-74 355.5,-55 460.5,-55 460.5,-74"/>
<text text-anchor="middle" x="408" y="-62" font-family="Helvetica,sans-Serif" font-size="10.00">memory_resource</text>
</a>
</g>
</g>
<!-- Node8&#45;&gt;Node12 -->
<g id="edge11_Node000008_Node000012" class="edge">
<title>Node8&#45;&gt;Node12</title>
<g id="a_edge11_Node000008_Node000012"><a xlink:title=" ">
<path fill="none" stroke="#63b8ff" d="M324.07,-109.98C339.86,-101.61 364.22,-88.7 382.63,-78.95"/>
<polygon fill="#63b8ff" stroke="#63b8ff" points="384.44,-81.95 391.64,-74.17 381.17,-75.76 384.44,-81.95"/>
</a>
</g>
</g>
<!-- Node13 -->
<g id="Node000013" class="node">
<title>Node13</title>
<g id="a_Node000013"><a xlink:title=" ">
<polygon fill="#e0e0e0" stroke="#999999" points="515.5,-74 478.5,-74 478.5,-55 515.5,-55 515.5,-74"/>
<text text-anchor="middle" x="497" y="-62" font-family="Helvetica,sans-Serif" font-size="10.00">new</text>
</a>
</g>
</g>
<!-- Node8&#45;&gt;Node13 -->
<g id="edge12_Node000008_Node000013" class="edge">
<title>Node8&#45;&gt;Node13</title>
<g id="a_edge12_Node000008_Node000013"><a xlink:title=" ">
<path fill="none" stroke="#63b8ff" d="M340.37,-109.98C371.16,-101.8 419,-88.88 468.79,-74.28"/>
<polygon fill="#63b8ff" stroke="#63b8ff" points="469.83,-77.63 478.44,-71.44 467.85,-70.91 469.83,-77.63"/>
</a>
</g>
</g>
<!-- Node14 -->
<g id="Node000014" class="node">
<title>Node14</title>
<g id="a_Node000014"><a xlink:title=" ">
<polygon fill="#e0e0e0" stroke="#999999" points="602.5,-74 533.5,-74 533.5,-55 602.5,-55 602.5,-74"/>
<text text-anchor="middle" x="568" y="-62" font-family="Helvetica,sans-Serif" font-size="10.00">type_traits</text>
</a>
</g>
</g>
<!-- Node8&#45;&gt;Node14 -->
<g id="edge13_Node000008_Node000014" class="edge">
<title>Node8&#45;&gt;Node14</title>
<g id="a_edge13_Node000008_Node000014"><a xlink:title=" ">
<path fill="none" stroke="#63b8ff" d="M341.19,-111.73C387.53,-102.29 471.71,-85.13 523.45,-74.58"/>
<polygon fill="#63b8ff" stroke="#63b8ff" points="524.25,-77.99 533.35,-72.56 522.85,-71.13 524.25,-77.99"/>
</a>
</g>
</g>
<!-- Node15 -->
<g id="Node000015" class="node">
<title>Node15</title>
<g id="a_Node000015"><a xlink:title=" ">
<polygon fill="#e0e0e0" stroke="#999999" points="493.5,-19 448.5,-19 448.5,0 493.5,0 493.5,-19"/>
<text text-anchor="middle" x="471" y="-7" font-family="Helvetica,sans-Serif" font-size="10.00">utility</text>
</a>
</g>
</g>
<!-- Node8&#45;&gt;Node15 -->
<g id="edge14_Node000008_Node000015" class="edge">
<title>Node8&#45;&gt;Node15</title>
<g id="a_edge14_Node000008_Node000015"><a xlink:title=" ">
<path fill="none" stroke="#63b8ff" d="M341.3,-111.72C344.57,-111.11 347.85,-110.53 351,-110 408.74,-100.32 573.53,-118.14 612,-74 644.92,-36.23 554.89,-19.78 503.69,-13.64"/>
<polygon fill="#63b8ff" stroke="#63b8ff" points="504.04,-10.16 493.71,-12.51 503.26,-17.11 504.04,-10.16"/>
</a>
</g>
</g>
<!-- Node16 -->
<g id="Node000016" class="node">
<title>Node16</title>
<g id="a_Node000016"><a xlink:href="assert_8h.html" target="_top" xlink:title=" ">
<polygon fill="white" stroke="#666666" points="129,-74 61,-74 61,-55 129,-55 129,-74"/>
<text text-anchor="middle" x="95" y="-62" font-family="Helvetica,sans-Serif" font-size="10.00">fe/assert.h</text>
</a>
</g>
</g>
<!-- Node8&#45;&gt;Node16 -->
<g id="edge15_Node000008_Node000016" class="edge">
<title>Node8&#45;&gt;Node16</title>
<g id="a_edge15_Node000008_Node000016"><a xlink:title=" ">
<path fill="none" stroke="#63b8ff" d="M274.72,-110.22C238.15,-101.12 179.27,-86.47 138.93,-76.43"/>
<polygon fill="#63b8ff" stroke="#63b8ff" points="139.65,-73 129.1,-73.99 137.96,-79.8 139.65,-73"/>
</a>
</g>
</g>
<!-- Node16&#45;&gt;Node2 -->
<g id="edge16_Node000016_Node000002" class="edge">
<title>Node16&#45;&gt;Node2</title>
<g id="a_edge16_Node000016_Node000002"><a xlink:title=" ">
<path fill="none" stroke="#63b8ff" d="M83.91,-54.98C73.51,-47 57.74,-34.88 45.28,-25.31"/>
<polygon fill="#63b8ff" stroke="#63b8ff" points="47.35,-22.49 37.29,-19.17 43.09,-28.04 47.35,-22.49"/>
</a>
</g>
</g>
<!-- Node16&#45;&gt;Node15 -->
<g id="edge20_Node000016_Node000015" class="edge">
<title>Node16&#45;&gt;Node15</title>
<g id="a_edge20_Node000016_Node000015"><a xlink:title=" ">
<path fill="none" stroke="#63b8ff" d="M129.23,-56.53C132.19,-55.99 135.15,-55.47 138,-55 247.65,-36.85 378.57,-21.07 438.34,-14.18"/>
<polygon fill="#63b8ff" stroke="#63b8ff" points="438.78,-17.65 448.32,-13.04 437.98,-10.7 438.78,-17.65"/>
</a>
</g>
</g>
<!-- Node17 -->
<g id="Node000017" class="node">
<title>Node17</title>
<g id="a_Node000017"><a xlink:title=" ">
<polygon fill="#e0e0e0" stroke="#999999" points="270.5,-19 221.5,-19 221.5,0 270.5,0 270.5,-19"/>
<text text-anchor="middle" x="246" y="-7" font-family="Helvetica,sans-Serif" font-size="10.00">cstdlib</text>
</a>
</g>
</g>
<!-- Node16&#45;&gt;Node17 -->
<g id="edge17_Node000016_Node000017" class="edge">
<title>Node16&#45;&gt;Node17</title>
<g id="a_edge17_Node000016_Node000017"><a xlink:title=" ">
<path fill="none" stroke="#63b8ff" d="M119.26,-54.98C144.32,-46.19 183.63,-32.39 211.83,-22.49"/>
<polygon fill="#63b8ff" stroke="#63b8ff" points="213.02,-25.78 221.3,-19.17 210.7,-19.18 213.02,-25.78"/>
</a>
</g>
</g>
<!-- Node18 -->
<g id="Node000018" class="node">
<title>Node18</title>
<g id="a_Node000018"><a xlink:title=" ">
<polygon fill="#e0e0e0" stroke="#999999" points="120,-19 70,-19 70,0 120,0 120,-19"/>
<text text-anchor="middle" x="95" y="-7" font-family="Helvetica,sans-Serif" font-size="10.00">format</text>
</a>
</g>
</g>
<!-- Node16&#45;&gt;Node18 -->
<g id="edge18_Node000016_Node000018" class="edge">
<title>Node16&#45;&gt;Node18</title>
<g id="a_edge18_Node000016_Node000018"><a xlink:title=" ">
<path fill="none" stroke="#63b8ff" d="M95,-54.75C95,-47.8 95,-37.85 95,-29.13"/>
<polygon fill="#63b8ff" stroke="#63b8ff" points="98.5,-29.09 95,-19.09 91.5,-29.09 98.5,-29.09"/>
</a>
</g>
</g>
<!-- Node19 -->
<g id="Node000019" class="node">
<title>Node19</title>
<g id="a_Node000019"><a xlink:title=" ">
<polygon fill="#e0e0e0" stroke="#999999" points="203.5,-19 138.5,-19 138.5,0 203.5,0 203.5,-19"/>
<text text-anchor="middle" x="171" y="-7" font-family="Helvetica,sans-Serif" font-size="10.00">stdexcept</text>
</a>
</g>
</g>
<!-- Node16&#45;&gt;Node19 -->
<g id="edge19_Node000016_Node000019" class="edge">
<title>Node16&#45;&gt;Node19</title>
<g id="a_edge19_Node000016_Node000019"><a xlink:title=" ">
<path fill="none" stroke="#63b8ff" d="M107.21,-54.98C118.78,-46.92 136.38,-34.65 150.16,-25.03"/>
<polygon fill="#63b8ff" stroke="#63b8ff" points="152.37,-27.76 158.57,-19.17 148.36,-22.02 152.37,-27.76"/>
</a>
</g>
</g>
</g>
</svg>
