<?xml version="1.0" encoding="UTF-8" standalone="no"?>
<!DOCTYPE svg PUBLIC "-//W3C//DTD SVG 1.1//EN"
 "http://www.w3.org/Graphics/SVG/1.1/DTD/svg11.dtd">
<!-- Generated by graphviz version 2.43.0 (0)
 -->
<!-- Title: fe/sym.h Pages: 1 -->
<svg width="516pt" height="192pt"
 viewBox="0.00 0.00 516.24 192.00" xmlns="http://www.w3.org/2000/svg" xmlns:xlink="http://www.w3.org/1999/xlink">
<g id="graph0" class="graph" transform="scale(1 1) rotate(0) translate(4 188)">
<title>fe/sym.h</title>
<!-- Node1 -->
<g id="Node000001" class="node">
<title>Node1</title>
<g id="a_Node000001"><a xlink:title=" ">
<polygon fill="#999999" stroke="#666666" points="215.74,-184 156.74,-184 156.74,-165 215.74,-165 215.74,-184"/>
<text text-anchor="middle" x="186.24" y="-172" font-family="Helvetica,sans-Serif" font-size="10.00">fe/sym.h</text>
</a>
</g>
</g>
<!-- Node2 -->
<g id="Node000002" class="node">
<title>Node2</title>
<g id="a_Node000002"><a xlink:title=" ">
<polygon fill="#e0e0e0" stroke="#999999" points="188.24,-19 136.24,-19 136.24,0 188.24,0 188.24,-19"/>
<text text-anchor="middle" x="162.24" y="-7" font-family="Helvetica,sans-Serif" font-size="10.00">cassert</text>
</a>
</g>
</g>
<!-- Node1&#45;&gt;Node2 -->
<g id="edge1_Node000001_Node000002" class="edge">
<title>Node1&#45;&gt;Node2</title>
<g id="a_edge1_Node000001_Node000002"><a xlink:title=" ">
<path fill="none" stroke="#63b8ff" d="M156.73,-170.42C111.21,-164.99 27.21,-152.05 9.24,-129 -29.35,-79.51 69.82,-39.15 126.27,-20.95"/>
<polygon fill="#63b8ff" stroke="#63b8ff" points="127.44,-24.25 135.94,-17.91 125.35,-17.57 127.44,-24.25"/>
</a>
</g>
</g>
<!-- Node3 -->
<g id="Node000003" class="node">
<title>Node3</title>
<g id="a_Node000003"><a xlink:title=" ">
<polygon fill="#e0e0e0" stroke="#999999" points="68.24,-129 18.24,-129 18.24,-110 68.24,-110 68.24,-129"/>
<text text-anchor="middle" x="43.24" y="-117" font-family="Helvetica,sans-Serif" font-size="10.00">cstring</text>
</a>
</g>
</g>
<!-- Node1&#45;&gt;Node3 -->
<g id="edge2_Node000001_Node000003" class="edge">
<title>Node1&#45;&gt;Node3</title>
<g id="a_edge2_Node000001_Node000003"><a xlink:title=" ">
<path fill="none" stroke="#63b8ff" d="M163.26,-164.98C139.74,-156.27 102.95,-142.63 76.3,-132.75"/>
<polygon fill="#63b8ff" stroke="#63b8ff" points="77.22,-129.36 66.63,-129.17 74.79,-135.93 77.22,-129.36"/>
</a>
</g>
</g>
<!-- Node4 -->
<g id="Node000004" class="node">
<title>Node4</title>
<g id="a_Node000004"><a xlink:title=" ">
<polygon fill="#e0e0e0" stroke="#999999" points="146.24,-129 86.24,-129 86.24,-110 146.24,-110 146.24,-129"/>
<text text-anchor="middle" x="116.24" y="-117" font-family="Helvetica,sans-Serif" font-size="10.00">iostream</text>
</a>
</g>
</g>
<!-- Node1&#45;&gt;Node4 -->
<g id="edge3_Node000001_Node000004" class="edge">
<title>Node1&#45;&gt;Node4</title>
<g id="a_edge3_Node000001_Node000004"><a xlink:title=" ">
<path fill="none" stroke="#63b8ff" d="M174.99,-164.98C164.44,-157 148.44,-144.88 135.79,-135.31"/>
<polygon fill="#63b8ff" stroke="#63b8ff" points="137.77,-132.42 127.69,-129.17 133.55,-138 137.77,-132.42"/>
</a>
</g>
</g>
<!-- Node5 -->
<g id="Node000005" class="node">
<title>Node5</title>
<g id="a_Node000005"><a xlink:title=" ">
<polygon fill="#e0e0e0" stroke="#999999" points="208.24,-129 164.24,-129 164.24,-110 208.24,-110 208.24,-129"/>
<text text-anchor="middle" x="186.24" y="-117" font-family="Helvetica,sans-Serif" font-size="10.00">string</text>
</a>
</g>
</g>
<!-- Node1&#45;&gt;Node5 -->
<g id="edge4_Node000001_Node000005" class="edge">
<title>Node1&#45;&gt;Node5</title>
<g id="a_edge4_Node000001_Node000005"><a xlink:title=" ">
<path fill="none" stroke="#63b8ff" d="M186.24,-164.75C186.24,-157.8 186.24,-147.85 186.24,-139.13"/>
<polygon fill="#63b8ff" stroke="#63b8ff" points="189.74,-139.09 186.24,-129.09 182.74,-139.09 189.74,-139.09"/>
</a>
</g>
</g>
<!-- Node6 -->
<g id="Node000006" class="node">
<title>Node6</title>
<g id="a_Node000006"><a xlink:href="arena_8h.html" target="_top" xlink:title=" ">
<polygon fill="white" stroke="#666666" points="292.24,-129 226.24,-129 226.24,-110 292.24,-110 292.24,-129"/>
<text text-anchor="middle" x="259.24" y="-117" font-family="Helvetica,sans-Serif" font-size="10.00">fe/arena.h</text>
</a>
</g>
</g>
<!-- Node1&#45;&gt;Node6 -->
<g id="edge5_Node000001_Node000006" class="edge">
<title>Node1&#45;&gt;Node6</title>
<g id="a_edge5_Node000001_Node000006"><a xlink:title=" ">
<path fill="none" stroke="#63b8ff" d="M197.97,-164.98C208.97,-157 225.66,-144.88 238.84,-135.31"/>
<polygon fill="#63b8ff" stroke="#63b8ff" points="241.26,-137.88 247.29,-129.17 237.15,-132.21 241.26,-137.88"/>
</a>
</g>
</g>
<!-- Node11 -->
<g id="Node000011" class="node">
<title>Node11</title>
<g id="a_Node000011"><a xlink:title=" ">
<polygon fill="#e0e0e0" stroke="#999999" points="403.74,-129 310.74,-129 310.74,-110 403.74,-110 403.74,-129"/>
<text text-anchor="middle" x="357.24" y="-117" font-family="Helvetica,sans-Serif" font-size="10.00">unordered_map</text>
</a>
</g>
</g>
<!-- Node1&#45;&gt;Node11 -->
<g id="edge11_Node000001_Node000011" class="edge">
<title>Node1&#45;&gt;Node11</title>
<g id="a_edge11_Node000001_Node000011"><a xlink:title=" ">
<path fill="none" stroke="#63b8ff" d="M213.71,-164.98C242.42,-156.09 287.65,-142.07 319.66,-132.15"/>
<polygon fill="#63b8ff" stroke="#63b8ff" points="321.03,-135.39 329.55,-129.08 318.96,-128.7 321.03,-135.39"/>
</a>
</g>
</g>
<!-- Node12 -->
<g id="Node000012" class="node">
<title>Node12</title>
<g id="a_Node000012"><a xlink:title=" ">
<polygon fill="#e0e0e0" stroke="#999999" points="508.24,-129 422.24,-129 422.24,-110 508.24,-110 508.24,-129"/>
<text text-anchor="middle" x="465.24" y="-117" font-family="Helvetica,sans-Serif" font-size="10.00">unordered_set</text>
</a>
</g>
</g>
<!-- Node1&#45;&gt;Node12 -->
<g id="edge12_Node000001_Node000012" class="edge">
<title>Node1&#45;&gt;Node12</title>
<g id="a_edge12_Node000001_Node000012"><a xlink:title=" ">
<path fill="none" stroke="#63b8ff" d="M215.83,-167.88C262.4,-159.03 353.47,-141.73 411.73,-130.66"/>
<polygon fill="#63b8ff" stroke="#63b8ff" points="412.68,-134.05 421.85,-128.74 411.38,-127.17 412.68,-134.05"/>
</a>
</g>
</g>
<!-- Node7 -->
<g id="Node000007" class="node">
<title>Node7</title>
<g id="a_Node000007"><a xlink:title=" ">
<polygon fill="#e0e0e0" stroke="#999999" points="141.24,-74 77.24,-74 77.24,-55 141.24,-55 141.24,-74"/>
<text text-anchor="middle" x="109.24" y="-62" font-family="Helvetica,sans-Serif" font-size="10.00">algorithm</text>
</a>
</g>
</g>
<!-- Node6&#45;&gt;Node7 -->
<g id="edge6_Node000006_Node000007" class="edge">
<title>Node6&#45;&gt;Node7</title>
<g id="a_edge6_Node000006_Node000007"><a xlink:title=" ">
<path fill="none" stroke="#63b8ff" d="M235.14,-109.98C210.35,-101.23 171.53,-87.51 143.55,-77.62"/>
<polygon fill="#63b8ff" stroke="#63b8ff" points="144.37,-74.2 133.77,-74.17 142.04,-80.8 144.37,-74.2"/>
</a>
</g>
</g>
<!-- Node8 -->
<g id="Node000008" class="node">
<title>Node8</title>
<g id="a_Node000008"><a xlink:title=" ">
<polygon fill="#e0e0e0" stroke="#999999" points="217.24,-74 159.24,-74 159.24,-55 217.24,-55 217.24,-74"/>
<text text-anchor="middle" x="188.24" y="-62" font-family="Helvetica,sans-Serif" font-size="10.00">memory</text>
</a>
</g>
</g>
<!-- Node6&#45;&gt;Node8 -->
<g id="edge7_Node000006_Node000008" class="edge">
<title>Node6&#45;&gt;Node8</title>
<g id="a_edge7_Node000006_Node000008"><a xlink:title=" ">
<path fill="none" stroke="#63b8ff" d="M247.83,-109.98C237.13,-102 220.9,-89.88 208.07,-80.31"/>
<polygon fill="#63b8ff" stroke="#63b8ff" points="209.96,-77.35 199.85,-74.17 205.77,-82.96 209.96,-77.35"/>
</a>
</g>
</g>
<!-- Node9 -->
<g id="Node000009" class="node">
<title>Node9</title>
<g id="a_Node000009"><a xlink:title=" ">
<polygon fill="#e0e0e0" stroke="#999999" points="282.74,-74 235.74,-74 235.74,-55 282.74,-55 282.74,-74"/>
<text text-anchor="middle" x="259.24" y="-62" font-family="Helvetica,sans-Serif" font-size="10.00">vector</text>
</a>
</g>
</g>
<!-- Node6&#45;&gt;Node9 -->
<g id="edge8_Node000006_Node000009" class="edge">
<title>Node6&#45;&gt;Node9</title>
<g id="a_edge8_Node000006_Node000009"><a xlink:title=" ">
<path fill="none" stroke="#63b8ff" d="M259.24,-109.75C259.24,-102.8 259.24,-92.85 259.24,-84.13"/>
<polygon fill="#63b8ff" stroke="#63b8ff" points="262.74,-84.09 259.24,-74.09 255.74,-84.09 262.74,-84.09"/>
</a>
</g>
</g>
<!-- Node10 -->
<g id="Node000010" class="node">
<title>Node10</title>
<g id="a_Node000010"><a xlink:href="assert_8h.html" target="_top" xlink:title=" ">
<polygon fill="white" stroke="#666666" points="369.24,-74 301.24,-74 301.24,-55 369.24,-55 369.24,-74"/>
<text text-anchor="middle" x="335.24" y="-62" font-family="Helvetica,sans-Serif" font-size="10.00">fe/assert.h</text>
</a>
</g>
</g>
<!-- Node6&#45;&gt;Node10 -->
<g id="edge9_Node000006_Node000010" class="edge">
<title>Node6&#45;&gt;Node10</title>
<g id="a_edge9_Node000006_Node000010"><a xlink:title=" ">
<path fill="none" stroke="#63b8ff" d="M271.45,-109.98C283.01,-101.92 300.61,-89.65 314.4,-80.03"/>
<polygon fill="#63b8ff" stroke="#63b8ff" points="316.6,-82.76 322.8,-74.17 312.6,-77.02 316.6,-82.76"/>
</a>
</g>
</g>
<!-- Node10&#45;&gt;Node2 -->
<g id="edge10_Node000010_Node000002" class="edge">
<title>Node10&#45;&gt;Node2</title>
<g id="a_edge10_Node000010_Node000002"><a xlink:title=" ">
<path fill="none" stroke="#63b8ff" d="M307.44,-54.98C277.66,-45.86 230.32,-31.36 197.83,-21.41"/>
<polygon fill="#63b8ff" stroke="#63b8ff" points="198.85,-18.06 188.26,-18.47 196.8,-24.75 198.85,-18.06"/>
</a>
</g>
</g>
</g>
</svg>
