<?xml version="1.0" encoding="UTF-8" standalone="no"?>
<!DOCTYPE svg PUBLIC "-//W3C//DTD SVG 1.1//EN"
 "http://www.w3.org/Graphics/SVG/1.1/DTD/svg11.dtd">
<!-- Generated by graphviz version 2.43.0 (0)
 -->
<!-- Title: fe/sym.h Pages: 1 -->
<svg width="591pt" height="192pt"
 viewBox="0.00 0.00 590.61 192.00" xmlns="http://www.w3.org/2000/svg" xmlns:xlink="http://www.w3.org/1999/xlink">
<g id="graph0" class="graph" transform="scale(1 1) rotate(0) translate(4 188)">
<title>fe/sym.h</title>
<!-- Node1 -->
<g id="Node000001" class="node">
<title>Node1</title>
<g id="a_Node000001"><a xlink:title=" ">
<polygon fill="#999999" stroke="#666666" points="213.11,-184 154.11,-184 154.11,-165 213.11,-165 213.11,-184"/>
<text text-anchor="middle" x="183.61" y="-172" font-family="Helvetica,sans-Serif" font-size="10.00">fe/sym.h</text>
</a>
</g>
</g>
<!-- Node2 -->
<g id="Node000002" class="node">
<title>Node2</title>
<g id="a_Node000002"><a xlink:title=" ">
<polygon fill="#e0e0e0" stroke="#999999" points="293.61,-19 241.61,-19 241.61,0 293.61,0 293.61,-19"/>
<text text-anchor="middle" x="267.61" y="-7" font-family="Helvetica,sans-Serif" font-size="10.00">cassert</text>
</a>
</g>
</g>
<!-- Node1&#45;&gt;Node2 -->
<g id="edge1_Node000001_Node000002" class="edge">
<title>Node1&#45;&gt;Node2</title>
<g id="a_edge1_Node000001_Node000002"><a xlink:title=" ">
<path fill="none" stroke="#63b8ff" d="M153.92,-173.38C94.6,-172.02 -29.88,-162.96 6.61,-110 57.76,-35.75 172.28,-16.87 231.15,-12.1"/>
<polygon fill="#63b8ff" stroke="#63b8ff" points="231.74,-15.56 241.46,-11.36 231.24,-8.58 231.74,-15.56"/>
</a>
</g>
</g>
<!-- Node3 -->
<g id="Node000003" class="node">
<title>Node3</title>
<g id="a_Node000003"><a xlink:title=" ">
<polygon fill="#e0e0e0" stroke="#999999" points="65.61,-129 15.61,-129 15.61,-110 65.61,-110 65.61,-129"/>
<text text-anchor="middle" x="40.61" y="-117" font-family="Helvetica,sans-Serif" font-size="10.00">cstring</text>
</a>
</g>
</g>
<!-- Node1&#45;&gt;Node3 -->
<g id="edge2_Node000001_Node000003" class="edge">
<title>Node1&#45;&gt;Node3</title>
<g id="a_edge2_Node000001_Node000003"><a xlink:title=" ">
<path fill="none" stroke="#63b8ff" d="M160.63,-164.98C137.11,-156.27 100.32,-142.63 73.67,-132.75"/>
<polygon fill="#63b8ff" stroke="#63b8ff" points="74.59,-129.36 64,-129.17 72.16,-135.93 74.59,-129.36"/>
</a>
</g>
</g>
<!-- Node4 -->
<g id="Node000004" class="node">
<title>Node4</title>
<g id="a_Node000004"><a xlink:title=" ">
<polygon fill="#e0e0e0" stroke="#999999" points="143.61,-129 83.61,-129 83.61,-110 143.61,-110 143.61,-129"/>
<text text-anchor="middle" x="113.61" y="-117" font-family="Helvetica,sans-Serif" font-size="10.00">iostream</text>
</a>
</g>
</g>
<!-- Node1&#45;&gt;Node4 -->
<g id="edge3_Node000001_Node000004" class="edge">
<title>Node1&#45;&gt;Node4</title>
<g id="a_edge3_Node000001_Node000004"><a xlink:title=" ">
<path fill="none" stroke="#63b8ff" d="M172.36,-164.98C161.81,-157 145.81,-144.88 133.16,-135.31"/>
<polygon fill="#63b8ff" stroke="#63b8ff" points="135.14,-132.42 125.06,-129.17 130.92,-138 135.14,-132.42"/>
</a>
</g>
</g>
<!-- Node5 -->
<g id="Node000005" class="node">
<title>Node5</title>
<g id="a_Node000005"><a xlink:title=" ">
<polygon fill="#e0e0e0" stroke="#999999" points="205.61,-129 161.61,-129 161.61,-110 205.61,-110 205.61,-129"/>
<text text-anchor="middle" x="183.61" y="-117" font-family="Helvetica,sans-Serif" font-size="10.00">string</text>
</a>
</g>
</g>
<!-- Node1&#45;&gt;Node5 -->
<g id="edge4_Node000001_Node000005" class="edge">
<title>Node1&#45;&gt;Node5</title>
<g id="a_edge4_Node000001_Node000005"><a xlink:title=" ">
<path fill="none" stroke="#63b8ff" d="M183.61,-164.75C183.61,-157.8 183.61,-147.85 183.61,-139.13"/>
<polygon fill="#63b8ff" stroke="#63b8ff" points="187.11,-139.09 183.61,-129.09 180.11,-139.09 187.11,-139.09"/>
</a>
</g>
</g>
<!-- Node6 -->
<g id="Node000006" class="node">
<title>Node6</title>
<g id="a_Node000006"><a xlink:title=" ">
<polygon fill="#e0e0e0" stroke="#999999" points="317.11,-129 224.11,-129 224.11,-110 317.11,-110 317.11,-129"/>
<text text-anchor="middle" x="270.61" y="-117" font-family="Helvetica,sans-Serif" font-size="10.00">unordered_map</text>
</a>
</g>
</g>
<!-- Node1&#45;&gt;Node6 -->
<g id="edge5_Node000001_Node000006" class="edge">
<title>Node1&#45;&gt;Node6</title>
<g id="a_edge5_Node000001_Node000006"><a xlink:title=" ">
<path fill="none" stroke="#63b8ff" d="M197.59,-164.98C211.08,-156.77 231.74,-144.18 247.65,-134.49"/>
<polygon fill="#63b8ff" stroke="#63b8ff" points="249.66,-137.36 256.37,-129.17 246.01,-131.38 249.66,-137.36"/>
</a>
</g>
</g>
<!-- Node7 -->
<g id="Node000007" class="node">
<title>Node7</title>
<g id="a_Node000007"><a xlink:title=" ">
<polygon fill="#e0e0e0" stroke="#999999" points="421.61,-129 335.61,-129 335.61,-110 421.61,-110 421.61,-129"/>
<text text-anchor="middle" x="378.61" y="-117" font-family="Helvetica,sans-Serif" font-size="10.00">unordered_set</text>
</a>
</g>
</g>
<!-- Node1&#45;&gt;Node7 -->
<g id="edge6_Node000001_Node000007" class="edge">
<title>Node1&#45;&gt;Node7</title>
<g id="a_edge6_Node000001_Node000007"><a xlink:title=" ">
<path fill="none" stroke="#63b8ff" d="M213.22,-165.45C246.24,-156.48 299.87,-141.9 337.07,-131.79"/>
<polygon fill="#63b8ff" stroke="#63b8ff" points="338.36,-135.07 347.09,-129.07 336.52,-128.31 338.36,-135.07"/>
</a>
</g>
</g>
<!-- Node8 -->
<g id="Node000008" class="node">
<title>Node8</title>
<g id="a_Node000008"><a xlink:href="arena_8h.html" target="_top" xlink:title=" ">
<polygon fill="white" stroke="#666666" points="505.61,-129 439.61,-129 439.61,-110 505.61,-110 505.61,-129"/>
<text text-anchor="middle" x="472.61" y="-117" font-family="Helvetica,sans-Serif" font-size="10.00">fe/arena.h</text>
</a>
</g>
</g>
<!-- Node1&#45;&gt;Node8 -->
<g id="edge7_Node000001_Node000008" class="edge">
<title>Node1&#45;&gt;Node8</title>
<g id="a_edge7_Node000001_Node000008"><a xlink:title=" ">
<path fill="none" stroke="#63b8ff" d="M213.3,-168.36C257.96,-160.59 345.31,-145.21 429.61,-129.16"/>
<polygon fill="#63b8ff" stroke="#63b8ff" points="430.44,-132.56 439.61,-127.25 429.13,-125.69 430.44,-132.56"/>
</a>
</g>
</g>
<!-- Node9 -->
<g id="Node000009" class="node">
<title>Node9</title>
<g id="a_Node000009"><a xlink:title=" ">
<polygon fill="#e0e0e0" stroke="#999999" points="354.61,-74 290.61,-74 290.61,-55 354.61,-55 354.61,-74"/>
<text text-anchor="middle" x="322.61" y="-62" font-family="Helvetica,sans-Serif" font-size="10.00">algorithm</text>
</a>
</g>
</g>
<!-- Node8&#45;&gt;Node9 -->
<g id="edge8_Node000008_Node000009" class="edge">
<title>Node8&#45;&gt;Node9</title>
<g id="a_edge8_Node000008_Node000009"><a xlink:title=" ">
<path fill="none" stroke="#63b8ff" d="M448.51,-109.98C423.72,-101.23 384.9,-87.51 356.92,-77.62"/>
<polygon fill="#63b8ff" stroke="#63b8ff" points="357.74,-74.2 347.15,-74.17 355.41,-80.8 357.74,-74.2"/>
</a>
</g>
</g>
<!-- Node10 -->
<g id="Node000010" class="node">
<title>Node10</title>
<g id="a_Node000010"><a xlink:title=" ">
<polygon fill="#e0e0e0" stroke="#999999" points="430.61,-74 372.61,-74 372.61,-55 430.61,-55 430.61,-74"/>
<text text-anchor="middle" x="401.61" y="-62" font-family="Helvetica,sans-Serif" font-size="10.00">memory</text>
</a>
</g>
</g>
<!-- Node8&#45;&gt;Node10 -->
<g id="edge9_Node000008_Node000010" class="edge">
<title>Node8&#45;&gt;Node10</title>
<g id="a_edge9_Node000008_Node000010"><a xlink:title=" ">
<path fill="none" stroke="#63b8ff" d="M461.2,-109.98C450.5,-102 434.27,-89.88 421.44,-80.31"/>
<polygon fill="#63b8ff" stroke="#63b8ff" points="423.33,-77.35 413.22,-74.17 419.14,-82.96 423.33,-77.35"/>
</a>
</g>
</g>
<!-- Node11 -->
<g id="Node000011" class="node">
<title>Node11</title>
<g id="a_Node000011"><a xlink:title=" ">
<polygon fill="#e0e0e0" stroke="#999999" points="496.11,-74 449.11,-74 449.11,-55 496.11,-55 496.11,-74"/>
<text text-anchor="middle" x="472.61" y="-62" font-family="Helvetica,sans-Serif" font-size="10.00">vector</text>
</a>
</g>
</g>
<!-- Node8&#45;&gt;Node11 -->
<g id="edge10_Node000008_Node000011" class="edge">
<title>Node8&#45;&gt;Node11</title>
<g id="a_edge10_Node000008_Node000011"><a xlink:title=" ">
<path fill="none" stroke="#63b8ff" d="M472.61,-109.75C472.61,-102.8 472.61,-92.85 472.61,-84.13"/>
<polygon fill="#63b8ff" stroke="#63b8ff" points="476.11,-84.09 472.61,-74.09 469.11,-84.09 476.11,-84.09"/>
</a>
</g>
</g>
<!-- Node12 -->
<g id="Node000012" class="node">
<title>Node12</title>
<g id="a_Node000012"><a xlink:href="assert_8h.html" target="_top" xlink:title=" ">
<polygon fill="white" stroke="#666666" points="582.61,-74 514.61,-74 514.61,-55 582.61,-55 582.61,-74"/>
<text text-anchor="middle" x="548.61" y="-62" font-family="Helvetica,sans-Serif" font-size="10.00">fe/assert.h</text>
</a>
</g>
</g>
<!-- Node8&#45;&gt;Node12 -->
<g id="edge11_Node000008_Node000012" class="edge">
<title>Node8&#45;&gt;Node12</title>
<g id="a_edge11_Node000008_Node000012"><a xlink:title=" ">
<path fill="none" stroke="#63b8ff" d="M484.82,-109.98C496.38,-101.92 513.98,-89.65 527.77,-80.03"/>
<polygon fill="#63b8ff" stroke="#63b8ff" points="529.97,-82.76 536.17,-74.17 525.97,-77.02 529.97,-82.76"/>
</a>
</g>
</g>
<!-- Node12&#45;&gt;Node2 -->
<g id="edge12_Node000012_Node000002" class="edge">
<title>Node12&#45;&gt;Node2</title>
<g id="a_edge12_Node000012_Node000002"><a xlink:title=" ">
<path fill="none" stroke="#63b8ff" d="M514.35,-56.69C511.39,-56.12 508.45,-55.55 505.61,-55 434.03,-41.24 350.24,-25.7 303.61,-17.11"/>
<polygon fill="#63b8ff" stroke="#63b8ff" points="304.15,-13.65 293.68,-15.28 302.89,-20.54 304.15,-13.65"/>
</a>
</g>
</g>
</g>
</svg>
