<?xml version="1.0" encoding="UTF-8" standalone="no"?>
<!DOCTYPE svg PUBLIC "-//W3C//DTD SVG 1.1//EN"
 "http://www.w3.org/Graphics/SVG/1.1/DTD/svg11.dtd">
<!-- Generated by graphviz version 2.43.0 (0)
 -->
<!-- Title: fe/sym.h Pages: 1 -->
<svg width="667pt" height="192pt"
 viewBox="0.00 0.00 667.22 192.00" xmlns="http://www.w3.org/2000/svg" xmlns:xlink="http://www.w3.org/1999/xlink">
<g id="graph0" class="graph" transform="scale(1 1) rotate(0) translate(4 188)">
<title>fe/sym.h</title>
<!-- Node1 -->
<g id="Node000001" class="node">
<title>Node1</title>
<g id="a_Node000001"><a xlink:title=" ">
<polygon fill="#999999" stroke="#666666" points="226.72,-184 167.72,-184 167.72,-165 226.72,-165 226.72,-184"/>
<text text-anchor="middle" x="197.22" y="-172" font-family="Helvetica,sans-Serif" font-size="10.00">fe/sym.h</text>
</a>
</g>
</g>
<!-- Node2 -->
<g id="Node000002" class="node">
<title>Node2</title>
<g id="a_Node000002"><a xlink:title=" ">
<polygon fill="#e0e0e0" stroke="#999999" points="316.22,-19 264.22,-19 264.22,0 316.22,0 316.22,-19"/>
<text text-anchor="middle" x="290.22" y="-7" font-family="Helvetica,sans-Serif" font-size="10.00">cassert</text>
</a>
</g>
</g>
<!-- Node1&#45;&gt;Node2 -->
<g id="edge1_Node000001_Node000002" class="edge">
<title>Node1&#45;&gt;Node2</title>
<g id="a_edge1_Node000001_Node000002"><a xlink:title=" ">
<path fill="none" stroke="#63b8ff" d="M167.68,-173.86C104.9,-173.56 -32.89,-166.62 7.22,-110 64.14,-29.65 191.34,-13.71 253.97,-10.87"/>
<polygon fill="#63b8ff" stroke="#63b8ff" points="254.3,-14.36 264.16,-10.5 254.04,-7.37 254.3,-14.36"/>
</a>
</g>
</g>
<!-- Node3 -->
<g id="Node000003" class="node">
<title>Node3</title>
<g id="a_Node000003"><a xlink:title=" ">
<polygon fill="#e0e0e0" stroke="#999999" points="66.22,-129 16.22,-129 16.22,-110 66.22,-110 66.22,-129"/>
<text text-anchor="middle" x="41.22" y="-117" font-family="Helvetica,sans-Serif" font-size="10.00">cstring</text>
</a>
</g>
</g>
<!-- Node1&#45;&gt;Node3 -->
<g id="edge2_Node000001_Node000003" class="edge">
<title>Node1&#45;&gt;Node3</title>
<g id="a_edge2_Node000001_Node000003"><a xlink:title=" ">
<path fill="none" stroke="#63b8ff" d="M172.16,-164.98C146.12,-156.14 105.17,-142.23 76,-132.32"/>
<polygon fill="#63b8ff" stroke="#63b8ff" points="76.82,-128.9 66.22,-128.99 74.57,-135.53 76.82,-128.9"/>
</a>
</g>
</g>
<!-- Node4 -->
<g id="Node000004" class="node">
<title>Node4</title>
<g id="a_Node000004"><a xlink:title=" ">
<polygon fill="#e0e0e0" stroke="#999999" points="113.72,-129 84.72,-129 84.72,-110 113.72,-110 113.72,-129"/>
<text text-anchor="middle" x="99.22" y="-117" font-family="Helvetica,sans-Serif" font-size="10.00">bit</text>
</a>
</g>
</g>
<!-- Node1&#45;&gt;Node4 -->
<g id="edge3_Node000001_Node000004" class="edge">
<title>Node1&#45;&gt;Node4</title>
<g id="a_edge3_Node000001_Node000004"><a xlink:title=" ">
<path fill="none" stroke="#63b8ff" d="M181.48,-164.98C165.63,-156.41 140.99,-143.09 122.81,-133.25"/>
<polygon fill="#63b8ff" stroke="#63b8ff" points="124.43,-130.15 113.97,-128.47 121.1,-136.31 124.43,-130.15"/>
</a>
</g>
</g>
<!-- Node5 -->
<g id="Node000005" class="node">
<title>Node5</title>
<g id="a_Node000005"><a xlink:title=" ">
<polygon fill="#e0e0e0" stroke="#999999" points="192.22,-129 132.22,-129 132.22,-110 192.22,-110 192.22,-129"/>
<text text-anchor="middle" x="162.22" y="-117" font-family="Helvetica,sans-Serif" font-size="10.00">iostream</text>
</a>
</g>
</g>
<!-- Node1&#45;&gt;Node5 -->
<g id="edge4_Node000001_Node000005" class="edge">
<title>Node1&#45;&gt;Node5</title>
<g id="a_edge4_Node000001_Node000005"><a xlink:title=" ">
<path fill="none" stroke="#63b8ff" d="M191.44,-164.75C186.6,-157.42 179.54,-146.73 173.58,-137.7"/>
<polygon fill="#63b8ff" stroke="#63b8ff" points="176.32,-135.5 167.89,-129.09 170.48,-139.36 176.32,-135.5"/>
</a>
</g>
</g>
<!-- Node6 -->
<g id="Node000006" class="node">
<title>Node6</title>
<g id="a_Node000006"><a xlink:title=" ">
<polygon fill="#e0e0e0" stroke="#999999" points="254.22,-129 210.22,-129 210.22,-110 254.22,-110 254.22,-129"/>
<text text-anchor="middle" x="232.22" y="-117" font-family="Helvetica,sans-Serif" font-size="10.00">string</text>
</a>
</g>
</g>
<!-- Node1&#45;&gt;Node6 -->
<g id="edge5_Node000001_Node000006" class="edge">
<title>Node1&#45;&gt;Node6</title>
<g id="a_edge5_Node000001_Node000006"><a xlink:title=" ">
<path fill="none" stroke="#63b8ff" d="M203,-164.75C207.84,-157.42 214.9,-146.73 220.87,-137.7"/>
<polygon fill="#63b8ff" stroke="#63b8ff" points="223.96,-139.36 226.55,-129.09 218.12,-135.5 223.96,-139.36"/>
</a>
</g>
</g>
<!-- Node7 -->
<g id="Node000007" class="node">
<title>Node7</title>
<g id="a_Node000007"><a xlink:title=" ">
<polygon fill="#e0e0e0" stroke="#999999" points="365.72,-129 272.72,-129 272.72,-110 365.72,-110 365.72,-129"/>
<text text-anchor="middle" x="319.22" y="-117" font-family="Helvetica,sans-Serif" font-size="10.00">unordered_map</text>
</a>
</g>
</g>
<!-- Node1&#45;&gt;Node7 -->
<g id="edge6_Node000001_Node000007" class="edge">
<title>Node1&#45;&gt;Node7</title>
<g id="a_edge6_Node000001_Node000007"><a xlink:title=" ">
<path fill="none" stroke="#63b8ff" d="M216.82,-164.98C236.54,-156.42 267.18,-143.11 289.8,-133.28"/>
<polygon fill="#63b8ff" stroke="#63b8ff" points="291.49,-136.37 299.26,-129.17 288.7,-129.94 291.49,-136.37"/>
</a>
</g>
</g>
<!-- Node8 -->
<g id="Node000008" class="node">
<title>Node8</title>
<g id="a_Node000008"><a xlink:title=" ">
<polygon fill="#e0e0e0" stroke="#999999" points="470.22,-129 384.22,-129 384.22,-110 470.22,-110 470.22,-129"/>
<text text-anchor="middle" x="427.22" y="-117" font-family="Helvetica,sans-Serif" font-size="10.00">unordered_set</text>
</a>
</g>
</g>
<!-- Node1&#45;&gt;Node8 -->
<g id="edge7_Node000001_Node000008" class="edge">
<title>Node1&#45;&gt;Node8</title>
<g id="a_edge7_Node000001_Node000008"><a xlink:title=" ">
<path fill="none" stroke="#63b8ff" d="M226.82,-166.68C265.62,-157.74 334.14,-141.95 380.11,-131.36"/>
<polygon fill="#63b8ff" stroke="#63b8ff" points="381.17,-134.7 390.13,-129.05 379.6,-127.88 381.17,-134.7"/>
</a>
</g>
</g>
<!-- Node9 -->
<g id="Node000009" class="node">
<title>Node9</title>
<g id="a_Node000009"><a xlink:href="arena_8h.html" target="_top" xlink:title=" ">
<polygon fill="white" stroke="#666666" points="554.22,-129 488.22,-129 488.22,-110 554.22,-110 554.22,-129"/>
<text text-anchor="middle" x="521.22" y="-117" font-family="Helvetica,sans-Serif" font-size="10.00">fe/arena.h</text>
</a>
</g>
</g>
<!-- Node1&#45;&gt;Node9 -->
<g id="edge8_Node000001_Node000009" class="edge">
<title>Node1&#45;&gt;Node9</title>
<g id="a_edge8_Node000001_Node000009"><a xlink:title=" ">
<path fill="none" stroke="#63b8ff" d="M226.93,-169.24C276.71,-162.02 380.33,-146.58 477.76,-129.2"/>
<polygon fill="#63b8ff" stroke="#63b8ff" points="478.55,-132.62 487.78,-127.4 477.31,-125.73 478.55,-132.62"/>
</a>
</g>
</g>
<!-- Node10 -->
<g id="Node000010" class="node">
<title>Node10</title>
<g id="a_Node000010"><a xlink:title=" ">
<polygon fill="#e0e0e0" stroke="#999999" points="391.22,-74 327.22,-74 327.22,-55 391.22,-55 391.22,-74"/>
<text text-anchor="middle" x="359.22" y="-62" font-family="Helvetica,sans-Serif" font-size="10.00">algorithm</text>
</a>
</g>
</g>
<!-- Node9&#45;&gt;Node10 -->
<g id="edge9_Node000009_Node000010" class="edge">
<title>Node9&#45;&gt;Node10</title>
<g id="a_edge9_Node000009_Node000010"><a xlink:title=" ">
<path fill="none" stroke="#63b8ff" d="M495.19,-109.98C468.11,-101.13 425.51,-87.19 395.22,-77.28"/>
<polygon fill="#63b8ff" stroke="#63b8ff" points="396.05,-73.87 385.45,-74.08 393.87,-80.52 396.05,-73.87"/>
</a>
</g>
</g>
<!-- Node11 -->
<g id="Node000011" class="node">
<title>Node11</title>
<g id="a_Node000011"><a xlink:title=" ">
<polygon fill="#e0e0e0" stroke="#999999" points="441.22,-74 409.22,-74 409.22,-55 441.22,-55 441.22,-74"/>
<text text-anchor="middle" x="425.22" y="-62" font-family="Helvetica,sans-Serif" font-size="10.00">list</text>
</a>
</g>
</g>
<!-- Node9&#45;&gt;Node11 -->
<g id="edge10_Node000009_Node000011" class="edge">
<title>Node9&#45;&gt;Node11</title>
<g id="a_edge10_Node000009_Node000011"><a xlink:title=" ">
<path fill="none" stroke="#63b8ff" d="M505.8,-109.98C490.77,-101.69 467.68,-88.94 450.06,-79.22"/>
<polygon fill="#63b8ff" stroke="#63b8ff" points="451.37,-75.94 440.93,-74.17 447.99,-82.07 451.37,-75.94"/>
</a>
</g>
</g>
<!-- Node12 -->
<g id="Node000012" class="node">
<title>Node12</title>
<g id="a_Node000012"><a xlink:title=" ">
<polygon fill="#e0e0e0" stroke="#999999" points="517.22,-74 459.22,-74 459.22,-55 517.22,-55 517.22,-74"/>
<text text-anchor="middle" x="488.22" y="-62" font-family="Helvetica,sans-Serif" font-size="10.00">memory</text>
</a>
</g>
</g>
<!-- Node9&#45;&gt;Node12 -->
<g id="edge11_Node000009_Node000012" class="edge">
<title>Node9&#45;&gt;Node12</title>
<g id="a_edge11_Node000009_Node000012"><a xlink:title=" ">
<path fill="none" stroke="#63b8ff" d="M515.77,-109.75C511.21,-102.42 504.55,-91.73 498.93,-82.7"/>
<polygon fill="#63b8ff" stroke="#63b8ff" points="501.83,-80.73 493.57,-74.09 495.88,-84.43 501.83,-80.73"/>
</a>
</g>
</g>
<!-- Node13 -->
<g id="Node000013" class="node">
<title>Node13</title>
<g id="a_Node000013"><a xlink:title=" ">
<polygon fill="#e0e0e0" stroke="#999999" points="572.72,-74 535.72,-74 535.72,-55 572.72,-55 572.72,-74"/>
<text text-anchor="middle" x="554.22" y="-62" font-family="Helvetica,sans-Serif" font-size="10.00">new</text>
</a>
</g>
</g>
<!-- Node9&#45;&gt;Node13 -->
<g id="edge12_Node000009_Node000013" class="edge">
<title>Node9&#45;&gt;Node13</title>
<g id="a_edge12_Node000009_Node000013"><a xlink:title=" ">
<path fill="none" stroke="#63b8ff" d="M526.67,-109.75C531.24,-102.42 537.89,-91.73 543.52,-82.7"/>
<polygon fill="#63b8ff" stroke="#63b8ff" points="546.56,-84.43 548.87,-74.09 540.62,-80.73 546.56,-84.43"/>
</a>
</g>
</g>
<!-- Node14 -->
<g id="Node000014" class="node">
<title>Node14</title>
<g id="a_Node000014"><a xlink:href="assert_8h.html" target="_top" xlink:title=" ">
<polygon fill="white" stroke="#666666" points="659.22,-74 591.22,-74 591.22,-55 659.22,-55 659.22,-74"/>
<text text-anchor="middle" x="625.22" y="-62" font-family="Helvetica,sans-Serif" font-size="10.00">fe/assert.h</text>
</a>
</g>
</g>
<!-- Node9&#45;&gt;Node14 -->
<g id="edge13_Node000009_Node000014" class="edge">
<title>Node9&#45;&gt;Node14</title>
<g id="a_edge13_Node000009_Node000014"><a xlink:title=" ">
<path fill="none" stroke="#63b8ff" d="M537.93,-109.98C554.44,-101.57 579.92,-88.59 599.1,-78.81"/>
<polygon fill="#63b8ff" stroke="#63b8ff" points="600.89,-81.83 608.21,-74.17 597.71,-75.59 600.89,-81.83"/>
</a>
</g>
</g>
<!-- Node14&#45;&gt;Node2 -->
<g id="edge14_Node000014_Node000002" class="edge">
<title>Node14&#45;&gt;Node2</title>
<g id="a_edge14_Node000014_Node000002"><a xlink:title=" ">
<path fill="none" stroke="#63b8ff" d="M590.98,-56.59C588.02,-56.04 585.07,-55.5 582.22,-55 490.4,-38.94 381.74,-23.25 326.46,-15.5"/>
<polygon fill="#63b8ff" stroke="#63b8ff" points="326.85,-12.02 316.46,-14.1 325.88,-18.95 326.85,-12.02"/>
</a>
</g>
</g>
</g>
</svg>
