<?xml version="1.0" encoding="UTF-8" standalone="no"?>
<!DOCTYPE svg PUBLIC "-//W3C//DTD SVG 1.1//EN"
 "http://www.w3.org/Graphics/SVG/1.1/DTD/svg11.dtd">
<!-- Generated by graphviz version 2.43.0 (0)
 -->
<!-- Title: fe/sym.h Pages: 1 -->
<svg width="345pt" height="247pt"
 viewBox="0.00 0.00 344.50 247.00" xmlns="http://www.w3.org/2000/svg" xmlns:xlink="http://www.w3.org/1999/xlink">
<g id="graph0" class="graph" transform="scale(1 1) rotate(0) translate(4 243)">
<title>fe/sym.h</title>
<!-- Node1 -->
<g id="Node000001" class="node">
<title>Node1</title>
<g id="a_Node000001"><a xlink:title=" ">
<polygon fill="#999999" stroke="#666666" points="59,-239 0,-239 0,-220 59,-220 59,-239"/>
<text text-anchor="middle" x="29.5" y="-227" font-family="Helvetica,sans-Serif" font-size="10.00">fe/sym.h</text>
</a>
</g>
</g>
<!-- Node2 -->
<g id="Node000002" class="node">
<title>Node2</title>
<g id="a_Node000002"><a xlink:href="driver_8h.html" target="_top" xlink:title=" ">
<polygon fill="white" stroke="#666666" points="68.5,-19 2.5,-19 2.5,0 68.5,0 68.5,-19"/>
<text text-anchor="middle" x="35.5" y="-7" font-family="Helvetica,sans-Serif" font-size="10.00">fe/driver.h</text>
</a>
</g>
</g>
<!-- Node1&#45;&gt;Node2 -->
<g id="edge1_Node000001_Node000002" class="edge">
<title>Node1&#45;&gt;Node2</title>
<g id="a_edge1_Node000001_Node000002"><a xlink:title=" ">
<path fill="none" stroke="#63b8ff" d="M28.37,-209.74C26.67,-177.87 24.11,-111.17 28.5,-55 29.48,-42.52 31.97,-28.26 33.7,-19.32"/>
<polygon fill="#63b8ff" stroke="#63b8ff" points="24.88,-210.03 28.94,-219.82 31.87,-209.63 24.88,-210.03"/>
</a>
</g>
</g>
<!-- Node3 -->
<g id="Node000003" class="node">
<title>Node3</title>
<g id="a_Node000003"><a xlink:href="loc_8h.html" target="_top" xlink:title=" ">
<polygon fill="white" stroke="#666666" points="155,-184 102,-184 102,-165 155,-165 155,-184"/>
<text text-anchor="middle" x="128.5" y="-172" font-family="Helvetica,sans-Serif" font-size="10.00">fe/loc.h</text>
</a>
</g>
</g>
<!-- Node1&#45;&gt;Node3 -->
<g id="edge2_Node000001_Node000003" class="edge">
<title>Node1&#45;&gt;Node3</title>
<g id="a_edge2_Node000001_Node000003"><a xlink:title=" ">
<path fill="none" stroke="#63b8ff" d="M54.28,-215.23C72.44,-205.51 96.56,-192.6 112.3,-184.17"/>
<polygon fill="#63b8ff" stroke="#63b8ff" points="52.57,-212.18 45.41,-219.98 55.87,-218.35 52.57,-212.18"/>
</a>
</g>
</g>
<!-- Node3&#45;&gt;Node2 -->
<g id="edge3_Node000003_Node000002" class="edge">
<title>Node3&#45;&gt;Node2</title>
<g id="a_edge3_Node000003_Node000002"><a xlink:title=" ">
<path fill="none" stroke="#63b8ff" d="M92.11,-160.81C77.18,-153.75 61.16,-143.41 51.5,-129 28.04,-93.99 31.72,-39.99 34.26,-19.13"/>
<polygon fill="#63b8ff" stroke="#63b8ff" points="91.12,-164.19 101.69,-164.98 93.92,-157.78 91.12,-164.19"/>
</a>
</g>
</g>
<!-- Node4 -->
<g id="Node000004" class="node">
<title>Node4</title>
<g id="a_Node000004"><a xlink:href="format_8h.html" target="_top" xlink:title=" ">
<polygon fill="white" stroke="#666666" points="132,-129 61,-129 61,-110 132,-110 132,-129"/>
<text text-anchor="middle" x="96.5" y="-117" font-family="Helvetica,sans-Serif" font-size="10.00">fe/format.h</text>
</a>
</g>
</g>
<!-- Node3&#45;&gt;Node4 -->
<g id="edge4_Node000003_Node000004" class="edge">
<title>Node3&#45;&gt;Node4</title>
<g id="a_edge4_Node000003_Node000004"><a xlink:title=" ">
<path fill="none" stroke="#63b8ff" d="M118,-156.1C112.53,-147.04 106.08,-136.37 101.69,-129.09"/>
<polygon fill="#63b8ff" stroke="#63b8ff" points="115.05,-158 123.22,-164.75 121.04,-154.38 115.05,-158"/>
</a>
</g>
</g>
<!-- Node5 -->
<g id="Node000005" class="node">
<title>Node5</title>
<g id="a_Node000005"><a xlink:href="loc_8cpp_8h.html" target="_top" xlink:title=" ">
<polygon fill="white" stroke="#666666" points="236,-74 163,-74 163,-55 236,-55 236,-74"/>
<text text-anchor="middle" x="199.5" y="-62" font-family="Helvetica,sans-Serif" font-size="10.00">fe/loc.cpp.h</text>
</a>
</g>
</g>
<!-- Node3&#45;&gt;Node5 -->
<g id="edge10_Node000003_Node000005" class="edge">
<title>Node3&#45;&gt;Node5</title>
<g id="a_edge10_Node000003_Node000005"><a xlink:title=" ">
<path fill="none" stroke="#63b8ff" d="M139.96,-156.07C155.36,-132.64 182.15,-91.89 193.81,-74.16"/>
<polygon fill="#63b8ff" stroke="#63b8ff" points="136.88,-154.38 134.31,-164.66 142.73,-158.23 136.88,-154.38"/>
</a>
</g>
</g>
<!-- Node7 -->
<g id="Node000007" class="node">
<title>Node7</title>
<g id="a_Node000007"><a xlink:href="lexer_8h.html" target="_top" xlink:title=" ">
<polygon fill="white" stroke="#666666" points="250.5,-129 188.5,-129 188.5,-110 250.5,-110 250.5,-129"/>
<text text-anchor="middle" x="219.5" y="-117" font-family="Helvetica,sans-Serif" font-size="10.00">fe/lexer.h</text>
</a>
</g>
</g>
<!-- Node3&#45;&gt;Node7 -->
<g id="edge9_Node000003_Node000007" class="edge">
<title>Node3&#45;&gt;Node7</title>
<g id="a_edge9_Node000003_Node000007"><a xlink:title=" ">
<path fill="none" stroke="#63b8ff" d="M152.2,-159.7C168.78,-150.04 190.41,-137.44 204.61,-129.17"/>
<polygon fill="#63b8ff" stroke="#63b8ff" points="150,-156.93 143.12,-164.98 153.52,-162.98 150,-156.93"/>
</a>
</g>
</g>
<!-- Node8 -->
<g id="Node000008" class="node">
<title>Node8</title>
<g id="a_Node000008"><a xlink:href="parser_8h.html" target="_top" xlink:title=" ">
<polygon fill="white" stroke="#666666" points="336.5,-129 268.5,-129 268.5,-110 336.5,-110 336.5,-129"/>
<text text-anchor="middle" x="302.5" y="-117" font-family="Helvetica,sans-Serif" font-size="10.00">fe/parser.h</text>
</a>
</g>
</g>
<!-- Node3&#45;&gt;Node8 -->
<g id="edge11_Node000003_Node000008" class="edge">
<title>Node3&#45;&gt;Node8</title>
<g id="a_edge11_Node000003_Node000008"><a xlink:title=" ">
<path fill="none" stroke="#63b8ff" d="M164.93,-162.4C197.57,-152.46 244.75,-138.09 274.51,-129.03"/>
<polygon fill="#63b8ff" stroke="#63b8ff" points="163.85,-159.07 155.31,-165.33 165.89,-165.77 163.85,-159.07"/>
</a>
</g>
</g>
<!-- Node4&#45;&gt;Node2 -->
<g id="edge5_Node000004_Node000002" class="edge">
<title>Node4&#45;&gt;Node2</title>
<g id="a_edge5_Node000004_Node000002"><a xlink:title=" ">
<path fill="none" stroke="#63b8ff" d="M86.48,-100.76C73.22,-77.28 50.36,-36.81 40.39,-19.16"/>
<polygon fill="#63b8ff" stroke="#63b8ff" points="83.54,-102.68 91.51,-109.66 89.64,-99.23 83.54,-102.68"/>
</a>
</g>
</g>
<!-- Node4&#45;&gt;Node5 -->
<g id="edge6_Node000004_Node000005" class="edge">
<title>Node4&#45;&gt;Node5</title>
<g id="a_edge6_Node000004_Node000005"><a xlink:title=" ">
<path fill="none" stroke="#63b8ff" d="M122.02,-105.37C140.94,-95.63 166.2,-82.64 182.65,-74.17"/>
<polygon fill="#63b8ff" stroke="#63b8ff" points="120.34,-102.3 113.05,-109.98 123.54,-108.52 120.34,-102.3"/>
</a>
</g>
</g>
<!-- Node6 -->
<g id="Node000006" class="node">
<title>Node6</title>
<g id="a_Node000006"><a xlink:href="term_8h.html" target="_top" xlink:title=" ">
<polygon fill="white" stroke="#666666" points="144.5,-74 82.5,-74 82.5,-55 144.5,-55 144.5,-74"/>
<text text-anchor="middle" x="113.5" y="-62" font-family="Helvetica,sans-Serif" font-size="10.00">fe/term.h</text>
</a>
</g>
</g>
<!-- Node4&#45;&gt;Node6 -->
<g id="edge7_Node000004_Node000006" class="edge">
<title>Node4&#45;&gt;Node6</title>
<g id="a_edge7_Node000004_Node000006"><a xlink:title=" ">
<path fill="none" stroke="#63b8ff" d="M102.45,-99.95C105.27,-91.15 108.51,-81.06 110.75,-74.09"/>
<polygon fill="#63b8ff" stroke="#63b8ff" points="99.03,-99.16 99.31,-109.75 105.69,-101.29 99.03,-99.16"/>
</a>
</g>
</g>
<!-- Node6&#45;&gt;Node2 -->
<g id="edge8_Node000006_Node000002" class="edge">
<title>Node6&#45;&gt;Node2</title>
<g id="a_edge8_Node000006_Node000002"><a xlink:title=" ">
<path fill="none" stroke="#63b8ff" d="M92.38,-49.15C78.29,-39.57 60.21,-27.29 48.26,-19.17"/>
<polygon fill="#63b8ff" stroke="#63b8ff" points="90.73,-52.26 100.97,-54.98 94.66,-46.47 90.73,-52.26"/>
</a>
</g>
</g>
</g>
</svg>
