<?xml version="1.0" encoding="UTF-8" standalone="no"?>
<!DOCTYPE svg PUBLIC "-//W3C//DTD SVG 1.1//EN"
 "http://www.w3.org/Graphics/SVG/1.1/DTD/svg11.dtd">
<!-- Generated by graphviz version 2.43.0 (0)
 -->
<!-- Title: fe/sym.h Pages: 1 -->
<svg width="639pt" height="192pt"
 viewBox="0.00 0.00 639.24 192.00" xmlns="http://www.w3.org/2000/svg" xmlns:xlink="http://www.w3.org/1999/xlink">
<g id="graph0" class="graph" transform="scale(1 1) rotate(0) translate(4 188)">
<title>fe/sym.h</title>
<!-- Node1 -->
<g id="Node000001" class="node">
<title>Node1</title>
<g id="a_Node000001"><a xlink:title=" ">
<polygon fill="#999999" stroke="#666666" points="226.74,-184 167.74,-184 167.74,-165 226.74,-165 226.74,-184"/>
<text text-anchor="middle" x="197.24" y="-172" font-family="Helvetica,sans-Serif" font-size="10.00">fe/sym.h</text>
</a>
</g>
</g>
<!-- Node2 -->
<g id="Node000002" class="node">
<title>Node2</title>
<g id="a_Node000002"><a xlink:title=" ">
<polygon fill="#e0e0e0" stroke="#999999" points="318.24,-19 266.24,-19 266.24,0 318.24,0 318.24,-19"/>
<text text-anchor="middle" x="292.24" y="-7" font-family="Helvetica,sans-Serif" font-size="10.00">cassert</text>
</a>
</g>
</g>
<!-- Node1&#45;&gt;Node2 -->
<g id="edge1_Node000001_Node000002" class="edge">
<title>Node1&#45;&gt;Node2</title>
<g id="a_edge1_Node000001_Node000002"><a xlink:title=" ">
<path fill="none" stroke="#63b8ff" d="M167.69,-173.85C104.89,-173.54 -32.93,-166.57 7.24,-110 64.6,-29.21 192.68,-13.48 255.74,-10.78"/>
<polygon fill="#63b8ff" stroke="#63b8ff" points="256.13,-14.27 266,-10.43 255.89,-7.27 256.13,-14.27"/>
</a>
</g>
</g>
<!-- Node3 -->
<g id="Node000003" class="node">
<title>Node3</title>
<g id="a_Node000003"><a xlink:title=" ">
<polygon fill="#e0e0e0" stroke="#999999" points="66.24,-129 16.24,-129 16.24,-110 66.24,-110 66.24,-129"/>
<text text-anchor="middle" x="41.24" y="-117" font-family="Helvetica,sans-Serif" font-size="10.00">cstring</text>
</a>
</g>
</g>
<!-- Node1&#45;&gt;Node3 -->
<g id="edge2_Node000001_Node000003" class="edge">
<title>Node1&#45;&gt;Node3</title>
<g id="a_edge2_Node000001_Node000003"><a xlink:title=" ">
<path fill="none" stroke="#63b8ff" d="M172.17,-164.98C146.13,-156.14 105.19,-142.23 76.02,-132.32"/>
<polygon fill="#63b8ff" stroke="#63b8ff" points="76.83,-128.9 66.24,-128.99 74.58,-135.53 76.83,-128.9"/>
</a>
</g>
</g>
<!-- Node4 -->
<g id="Node000004" class="node">
<title>Node4</title>
<g id="a_Node000004"><a xlink:title=" ">
<polygon fill="#e0e0e0" stroke="#999999" points="113.74,-129 84.74,-129 84.74,-110 113.74,-110 113.74,-129"/>
<text text-anchor="middle" x="99.24" y="-117" font-family="Helvetica,sans-Serif" font-size="10.00">bit</text>
</a>
</g>
</g>
<!-- Node1&#45;&gt;Node4 -->
<g id="edge3_Node000001_Node000004" class="edge">
<title>Node1&#45;&gt;Node4</title>
<g id="a_edge3_Node000001_Node000004"><a xlink:title=" ">
<path fill="none" stroke="#63b8ff" d="M181.49,-164.98C165.64,-156.41 141,-143.09 122.82,-133.25"/>
<polygon fill="#63b8ff" stroke="#63b8ff" points="124.44,-130.15 113.98,-128.47 121.11,-136.31 124.44,-130.15"/>
</a>
</g>
</g>
<!-- Node5 -->
<g id="Node000005" class="node">
<title>Node5</title>
<g id="a_Node000005"><a xlink:title=" ">
<polygon fill="#e0e0e0" stroke="#999999" points="192.24,-129 132.24,-129 132.24,-110 192.24,-110 192.24,-129"/>
<text text-anchor="middle" x="162.24" y="-117" font-family="Helvetica,sans-Serif" font-size="10.00">iostream</text>
</a>
</g>
</g>
<!-- Node1&#45;&gt;Node5 -->
<g id="edge4_Node000001_Node000005" class="edge">
<title>Node1&#45;&gt;Node5</title>
<g id="a_edge4_Node000001_Node000005"><a xlink:title=" ">
<path fill="none" stroke="#63b8ff" d="M191.46,-164.75C186.62,-157.42 179.56,-146.73 173.59,-137.7"/>
<polygon fill="#63b8ff" stroke="#63b8ff" points="176.34,-135.5 167.91,-129.09 170.5,-139.36 176.34,-135.5"/>
</a>
</g>
</g>
<!-- Node6 -->
<g id="Node000006" class="node">
<title>Node6</title>
<g id="a_Node000006"><a xlink:title=" ">
<polygon fill="#e0e0e0" stroke="#999999" points="254.24,-129 210.24,-129 210.24,-110 254.24,-110 254.24,-129"/>
<text text-anchor="middle" x="232.24" y="-117" font-family="Helvetica,sans-Serif" font-size="10.00">string</text>
</a>
</g>
</g>
<!-- Node1&#45;&gt;Node6 -->
<g id="edge5_Node000001_Node000006" class="edge">
<title>Node1&#45;&gt;Node6</title>
<g id="a_edge5_Node000001_Node000006"><a xlink:title=" ">
<path fill="none" stroke="#63b8ff" d="M203.02,-164.75C207.86,-157.42 214.92,-146.73 220.88,-137.7"/>
<polygon fill="#63b8ff" stroke="#63b8ff" points="223.98,-139.36 226.57,-129.09 218.13,-135.5 223.98,-139.36"/>
</a>
</g>
</g>
<!-- Node7 -->
<g id="Node000007" class="node">
<title>Node7</title>
<g id="a_Node000007"><a xlink:title=" ">
<polygon fill="#e0e0e0" stroke="#999999" points="365.74,-129 272.74,-129 272.74,-110 365.74,-110 365.74,-129"/>
<text text-anchor="middle" x="319.24" y="-117" font-family="Helvetica,sans-Serif" font-size="10.00">unordered_map</text>
</a>
</g>
</g>
<!-- Node1&#45;&gt;Node7 -->
<g id="edge6_Node000001_Node000007" class="edge">
<title>Node1&#45;&gt;Node7</title>
<g id="a_edge6_Node000001_Node000007"><a xlink:title=" ">
<path fill="none" stroke="#63b8ff" d="M216.84,-164.98C236.55,-156.42 267.19,-143.11 289.82,-133.28"/>
<polygon fill="#63b8ff" stroke="#63b8ff" points="291.5,-136.37 299.28,-129.17 288.71,-129.94 291.5,-136.37"/>
</a>
</g>
</g>
<!-- Node8 -->
<g id="Node000008" class="node">
<title>Node8</title>
<g id="a_Node000008"><a xlink:title=" ">
<polygon fill="#e0e0e0" stroke="#999999" points="470.24,-129 384.24,-129 384.24,-110 470.24,-110 470.24,-129"/>
<text text-anchor="middle" x="427.24" y="-117" font-family="Helvetica,sans-Serif" font-size="10.00">unordered_set</text>
</a>
</g>
</g>
<!-- Node1&#45;&gt;Node8 -->
<g id="edge7_Node000001_Node000008" class="edge">
<title>Node1&#45;&gt;Node8</title>
<g id="a_edge7_Node000001_Node000008"><a xlink:title=" ">
<path fill="none" stroke="#63b8ff" d="M226.84,-166.68C265.64,-157.74 334.16,-141.95 380.13,-131.36"/>
<polygon fill="#63b8ff" stroke="#63b8ff" points="381.19,-134.7 390.15,-129.05 379.62,-127.88 381.19,-134.7"/>
</a>
</g>
</g>
<!-- Node9 -->
<g id="Node000009" class="node">
<title>Node9</title>
<g id="a_Node000009"><a xlink:href="arena_8h.html" target="_top" xlink:title=" ">
<polygon fill="white" stroke="#666666" points="554.24,-129 488.24,-129 488.24,-110 554.24,-110 554.24,-129"/>
<text text-anchor="middle" x="521.24" y="-117" font-family="Helvetica,sans-Serif" font-size="10.00">fe/arena.h</text>
</a>
</g>
</g>
<!-- Node1&#45;&gt;Node9 -->
<g id="edge8_Node000001_Node000009" class="edge">
<title>Node1&#45;&gt;Node9</title>
<g id="a_edge8_Node000001_Node000009"><a xlink:title=" ">
<path fill="none" stroke="#63b8ff" d="M226.95,-169.24C276.72,-162.02 380.35,-146.58 477.78,-129.2"/>
<polygon fill="#63b8ff" stroke="#63b8ff" points="478.57,-132.62 487.79,-127.4 477.33,-125.73 478.57,-132.62"/>
</a>
</g>
</g>
<!-- Node10 -->
<g id="Node000010" class="node">
<title>Node10</title>
<g id="a_Node000010"><a xlink:title=" ">
<polygon fill="#e0e0e0" stroke="#999999" points="403.24,-74 339.24,-74 339.24,-55 403.24,-55 403.24,-74"/>
<text text-anchor="middle" x="371.24" y="-62" font-family="Helvetica,sans-Serif" font-size="10.00">algorithm</text>
</a>
</g>
</g>
<!-- Node9&#45;&gt;Node10 -->
<g id="edge9_Node000009_Node000010" class="edge">
<title>Node9&#45;&gt;Node10</title>
<g id="a_edge9_Node000009_Node000010"><a xlink:title=" ">
<path fill="none" stroke="#63b8ff" d="M497.14,-109.98C472.36,-101.23 433.53,-87.51 405.55,-77.62"/>
<polygon fill="#63b8ff" stroke="#63b8ff" points="406.37,-74.2 395.78,-74.17 404.04,-80.8 406.37,-74.2"/>
</a>
</g>
</g>
<!-- Node11 -->
<g id="Node000011" class="node">
<title>Node11</title>
<g id="a_Node000011"><a xlink:title=" ">
<polygon fill="#e0e0e0" stroke="#999999" points="479.24,-74 421.24,-74 421.24,-55 479.24,-55 479.24,-74"/>
<text text-anchor="middle" x="450.24" y="-62" font-family="Helvetica,sans-Serif" font-size="10.00">memory</text>
</a>
</g>
</g>
<!-- Node9&#45;&gt;Node11 -->
<g id="edge10_Node000009_Node000011" class="edge">
<title>Node9&#45;&gt;Node11</title>
<g id="a_edge10_Node000009_Node000011"><a xlink:title=" ">
<path fill="none" stroke="#63b8ff" d="M509.83,-109.98C499.13,-102 482.9,-89.88 470.08,-80.31"/>
<polygon fill="#63b8ff" stroke="#63b8ff" points="471.96,-77.35 461.85,-74.17 467.77,-82.96 471.96,-77.35"/>
</a>
</g>
</g>
<!-- Node12 -->
<g id="Node000012" class="node">
<title>Node12</title>
<g id="a_Node000012"><a xlink:title=" ">
<polygon fill="#e0e0e0" stroke="#999999" points="544.74,-74 497.74,-74 497.74,-55 544.74,-55 544.74,-74"/>
<text text-anchor="middle" x="521.24" y="-62" font-family="Helvetica,sans-Serif" font-size="10.00">vector</text>
</a>
</g>
</g>
<!-- Node9&#45;&gt;Node12 -->
<g id="edge11_Node000009_Node000012" class="edge">
<title>Node9&#45;&gt;Node12</title>
<g id="a_edge11_Node000009_Node000012"><a xlink:title=" ">
<path fill="none" stroke="#63b8ff" d="M521.24,-109.75C521.24,-102.8 521.24,-92.85 521.24,-84.13"/>
<polygon fill="#63b8ff" stroke="#63b8ff" points="524.74,-84.09 521.24,-74.09 517.74,-84.09 524.74,-84.09"/>
</a>
</g>
</g>
<!-- Node13 -->
<g id="Node000013" class="node">
<title>Node13</title>
<g id="a_Node000013"><a xlink:href="assert_8h.html" target="_top" xlink:title=" ">
<polygon fill="white" stroke="#666666" points="631.24,-74 563.24,-74 563.24,-55 631.24,-55 631.24,-74"/>
<text text-anchor="middle" x="597.24" y="-62" font-family="Helvetica,sans-Serif" font-size="10.00">fe/assert.h</text>
</a>
</g>
</g>
<!-- Node9&#45;&gt;Node13 -->
<g id="edge12_Node000009_Node000013" class="edge">
<title>Node9&#45;&gt;Node13</title>
<g id="a_edge12_Node000009_Node000013"><a xlink:title=" ">
<path fill="none" stroke="#63b8ff" d="M533.45,-109.98C545.01,-101.92 562.61,-89.65 576.4,-80.03"/>
<polygon fill="#63b8ff" stroke="#63b8ff" points="578.6,-82.76 584.81,-74.17 574.6,-77.02 578.6,-82.76"/>
</a>
</g>
</g>
<!-- Node13&#45;&gt;Node2 -->
<g id="edge13_Node000013_Node000002" class="edge">
<title>Node13&#45;&gt;Node2</title>
<g id="a_edge13_Node000013_Node000002"><a xlink:title=" ">
<path fill="none" stroke="#63b8ff" d="M562.99,-56.64C560.03,-56.08 557.08,-55.52 554.24,-55 473.75,-40.21 379.01,-24.55 328.42,-16.33"/>
<polygon fill="#63b8ff" stroke="#63b8ff" points="328.74,-12.84 318.31,-14.69 327.62,-19.75 328.74,-12.84"/>
</a>
</g>
</g>
</g>
</svg>
