<?xml version="1.0" encoding="UTF-8" standalone="no"?>
<!DOCTYPE svg PUBLIC "-//W3C//DTD SVG 1.1//EN"
 "http://www.w3.org/Graphics/SVG/1.1/DTD/svg11.dtd">
<!-- Generated by graphviz version 2.43.0 (0)
 -->
<!-- Title: fe/term.h Pages: 1 -->
<svg width="962pt" height="357pt"
 viewBox="0.00 0.00 962.00 357.00" xmlns="http://www.w3.org/2000/svg" xmlns:xlink="http://www.w3.org/1999/xlink">
<g id="graph0" class="graph" transform="scale(1 1) rotate(0) translate(4 353)">
<title>fe/term.h</title>
<!-- Node1 -->
<g id="Node000001" class="node">
<title>Node1</title>
<g id="a_Node000001"><a xlink:title=" ">
<polygon fill="#999999" stroke="#666666" points="213,-349 151,-349 151,-330 213,-330 213,-349"/>
<text text-anchor="middle" x="182" y="-337" font-family="Helvetica,sans-Serif" font-size="10.00">fe/term.h</text>
</a>
</g>
</g>
<!-- Node2 -->
<g id="Node000002" class="node">
<title>Node2</title>
<g id="a_Node000002"><a xlink:title=" ">
<polygon fill="#e0e0e0" stroke="#999999" points="390.5,-19 341.5,-19 341.5,0 390.5,0 390.5,-19"/>
<text text-anchor="middle" x="366" y="-7" font-family="Helvetica,sans-Serif" font-size="10.00">cstdlib</text>
</a>
</g>
</g>
<!-- Node1&#45;&gt;Node2 -->
<g id="edge1_Node000001_Node000002" class="edge">
<title>Node1&#45;&gt;Node2</title>
<g id="a_edge1_Node000001_Node000002"><a xlink:title=" ">
<path fill="none" stroke="#63b8ff" d="M150.71,-334.38C98.68,-325.58 0,-299.76 0,-230.5 0,-230.5 0,-230.5 0,-118.5 0,-49.83 239.98,-21.56 331.29,-13.28"/>
<polygon fill="#63b8ff" stroke="#63b8ff" points="331.76,-16.76 341.42,-12.39 331.15,-9.78 331.76,-16.76"/>
</a>
</g>
</g>
<!-- Node3 -->
<g id="Node000003" class="node">
<title>Node3</title>
<g id="a_Node000003"><a xlink:title=" ">
<polygon fill="#e0e0e0" stroke="#999999" points="132,-129 82,-129 82,-110 132,-110 132,-129"/>
<text text-anchor="middle" x="107" y="-117" font-family="Helvetica,sans-Serif" font-size="10.00">cstring</text>
</a>
</g>
</g>
<!-- Node1&#45;&gt;Node3 -->
<g id="edge2_Node000001_Node000003" class="edge">
<title>Node1&#45;&gt;Node3</title>
<g id="a_edge2_Node000001_Node000003"><a xlink:title=" ">
<path fill="none" stroke="#63b8ff" d="M150.86,-337.07C121.22,-333.85 78.11,-323.93 57,-294 21.98,-244.36 68.63,-170.46 93.37,-137.47"/>
<polygon fill="#63b8ff" stroke="#63b8ff" points="96.34,-139.35 99.68,-129.3 90.8,-135.07 96.34,-139.35"/>
</a>
</g>
</g>
<!-- Node4 -->
<g id="Node000004" class="node">
<title>Node4</title>
<g id="a_Node000004"><a xlink:title=" ">
<polygon fill="#e0e0e0" stroke="#999999" points="116,-294 66,-294 66,-275 116,-275 116,-294"/>
<text text-anchor="middle" x="91" y="-282" font-family="Helvetica,sans-Serif" font-size="10.00">atomic</text>
</a>
</g>
</g>
<!-- Node1&#45;&gt;Node4 -->
<g id="edge3_Node000001_Node000004" class="edge">
<title>Node1&#45;&gt;Node4</title>
<g id="a_edge3_Node000001_Node000004"><a xlink:title=" ">
<path fill="none" stroke="#63b8ff" d="M167.38,-329.98C153.14,-321.69 131.25,-308.94 114.55,-299.22"/>
<polygon fill="#63b8ff" stroke="#63b8ff" points="116.29,-296.18 105.89,-294.17 112.77,-302.23 116.29,-296.18"/>
</a>
</g>
</g>
<!-- Node5 -->
<g id="Node000005" class="node">
<title>Node5</title>
<g id="a_Node000005"><a xlink:title=" ">
<polygon fill="#e0e0e0" stroke="#999999" points="364,-129 304,-129 304,-110 364,-110 364,-129"/>
<text text-anchor="middle" x="334" y="-117" font-family="Helvetica,sans-Serif" font-size="10.00">iostream</text>
</a>
</g>
</g>
<!-- Node1&#45;&gt;Node5 -->
<g id="edge4_Node000001_Node000005" class="edge">
<title>Node1&#45;&gt;Node5</title>
<g id="a_edge4_Node000001_Node000005"><a xlink:title=" ">
<path fill="none" stroke="#63b8ff" d="M174.19,-329.91C153.22,-306.78 97.1,-244.59 95,-239 92.03,-231.09 90.31,-227.03 95,-220 139.51,-153.25 238.14,-131.21 293.79,-123.98"/>
<polygon fill="#63b8ff" stroke="#63b8ff" points="294.47,-127.43 303.98,-122.76 293.64,-120.48 294.47,-127.43"/>
</a>
</g>
</g>
<!-- Node6 -->
<g id="Node000006" class="node">
<title>Node6</title>
<g id="a_Node000006"><a xlink:title=" ">
<polygon fill="#e0e0e0" stroke="#999999" points="925.5,-184 868.5,-184 868.5,-165 925.5,-165 925.5,-184"/>
<text text-anchor="middle" x="897" y="-172" font-family="Helvetica,sans-Serif" font-size="10.00">ostream</text>
</a>
</g>
</g>
<!-- Node1&#45;&gt;Node6 -->
<g id="edge5_Node000001_Node000006" class="edge">
<title>Node1&#45;&gt;Node6</title>
<g id="a_edge5_Node000001_Node000006"><a xlink:title=" ">
<path fill="none" stroke="#63b8ff" d="M213.35,-337.86C333.23,-334.86 761.1,-318.63 866,-239 880.48,-228.01 888.59,-208.46 892.84,-193.94"/>
<polygon fill="#63b8ff" stroke="#63b8ff" points="896.29,-194.61 895.39,-184.05 889.51,-192.86 896.29,-194.61"/>
</a>
</g>
</g>
<!-- Node7 -->
<g id="Node000007" class="node">
<title>Node7</title>
<g id="a_Node000007"><a xlink:title=" ">
<polygon fill="#e0e0e0" stroke="#999999" points="177.5,-239 104.5,-239 104.5,-220 177.5,-220 177.5,-239"/>
<text text-anchor="middle" x="141" y="-227" font-family="Helvetica,sans-Serif" font-size="10.00">string_view</text>
</a>
</g>
</g>
<!-- Node1&#45;&gt;Node7 -->
<g id="edge6_Node000001_Node000007" class="edge">
<title>Node1&#45;&gt;Node7</title>
<g id="a_edge6_Node000001_Node000007"><a xlink:title=" ">
<path fill="none" stroke="#63b8ff" d="M178.75,-329.87C174.14,-317.65 165.45,-294.61 158,-275 154.69,-266.29 151,-256.63 147.91,-248.54"/>
<polygon fill="#63b8ff" stroke="#63b8ff" points="151.11,-247.12 144.27,-239.03 144.57,-249.62 151.11,-247.12"/>
</a>
</g>
</g>
<!-- Node8 -->
<g id="Node000008" class="node">
<title>Node8</title>
<g id="a_Node000008"><a xlink:title=" ">
<polygon fill="#e0e0e0" stroke="#999999" points="558,-294 502,-294 502,-275 558,-275 558,-294"/>
<text text-anchor="middle" x="530" y="-282" font-family="Helvetica,sans-Serif" font-size="10.00">unistd.h</text>
</a>
</g>
</g>
<!-- Node1&#45;&gt;Node8 -->
<g id="edge7_Node000001_Node000008" class="edge">
<title>Node1&#45;&gt;Node8</title>
<g id="a_edge7_Node000001_Node000008"><a xlink:title=" ">
<path fill="none" stroke="#63b8ff" d="M213.37,-334.81C269.48,-328.04 390.66,-312.58 492,-294 492.1,-293.98 492.2,-293.96 492.3,-293.94"/>
<polygon fill="#63b8ff" stroke="#63b8ff" points="492.7,-297.43 501.83,-292.06 491.34,-290.57 492.7,-297.43"/>
</a>
</g>
</g>
<!-- Node9 -->
<g id="Node000009" class="node">
<title>Node9</title>
<g id="a_Node000009"><a xlink:href="assert_8h.html" target="_top" xlink:title=" ">
<polygon fill="white" stroke="#666666" points="898,-74 830,-74 830,-55 898,-55 898,-74"/>
<text text-anchor="middle" x="864" y="-62" font-family="Helvetica,sans-Serif" font-size="10.00">fe/assert.h</text>
</a>
</g>
</g>
<!-- Node1&#45;&gt;Node9 -->
<g id="edge8_Node000001_Node000009" class="edge">
<title>Node1&#45;&gt;Node9</title>
<g id="a_edge8_Node000001_Node000009"><a xlink:title=" ">
<path fill="none" stroke="#63b8ff" d="M213.22,-337.48C357.65,-332.36 954,-306.62 954,-230.5 954,-230.5 954,-230.5 954,-173.5 954,-131.84 913.98,-97.72 887.32,-79.6"/>
<polygon fill="#63b8ff" stroke="#63b8ff" points="889.15,-76.62 878.86,-74.09 885.32,-82.48 889.15,-76.62"/>
</a>
</g>
</g>
<!-- Node11 -->
<g id="Node000011" class="node">
<title>Node11</title>
<g id="a_Node000011"><a xlink:href="format_8h.html" target="_top" xlink:title=" ">
<polygon fill="white" stroke="#666666" points="483.5,-294 412.5,-294 412.5,-275 483.5,-275 483.5,-294"/>
<text text-anchor="middle" x="448" y="-282" font-family="Helvetica,sans-Serif" font-size="10.00">fe/format.h</text>
</a>
</g>
</g>
<!-- Node1&#45;&gt;Node11 -->
<g id="edge11_Node000001_Node000011" class="edge">
<title>Node1&#45;&gt;Node11</title>
<g id="a_edge11_Node000001_Node000011"><a xlink:title=" ">
<path fill="none" stroke="#63b8ff" d="M213.03,-332.32C259.64,-323.03 348,-305.43 402.08,-294.65"/>
<polygon fill="#63b8ff" stroke="#63b8ff" points="402.97,-298.04 412.09,-292.66 401.6,-291.18 402.97,-298.04"/>
</a>
</g>
</g>
<!-- Node9&#45;&gt;Node2 -->
<g id="edge10_Node000009_Node000002" class="edge">
<title>Node9&#45;&gt;Node2</title>
<g id="a_edge10_Node000009_Node000002"><a xlink:title=" ">
<path fill="none" stroke="#63b8ff" d="M829.77,-59.86C738.88,-50.18 492.17,-23.93 400.72,-14.19"/>
<polygon fill="#63b8ff" stroke="#63b8ff" points="400.92,-10.7 390.61,-13.12 400.18,-17.66 400.92,-10.7"/>
</a>
</g>
</g>
<!-- Node10 -->
<g id="Node000010" class="node">
<title>Node10</title>
<g id="a_Node000010"><a xlink:title=" ">
<polygon fill="#e0e0e0" stroke="#999999" points="859,-19 807,-19 807,0 859,0 859,-19"/>
<text text-anchor="middle" x="833" y="-7" font-family="Helvetica,sans-Serif" font-size="10.00">cassert</text>
</a>
</g>
</g>
<!-- Node9&#45;&gt;Node10 -->
<g id="edge9_Node000009_Node000010" class="edge">
<title>Node9&#45;&gt;Node10</title>
<g id="a_edge9_Node000009_Node000010"><a xlink:title=" ">
<path fill="none" stroke="#63b8ff" d="M858.88,-54.75C854.64,-47.49 848.47,-36.95 843.22,-27.98"/>
<polygon fill="#63b8ff" stroke="#63b8ff" points="846.09,-25.95 838.02,-19.09 840.05,-29.49 846.09,-25.95"/>
</a>
</g>
</g>
<!-- Node11&#45;&gt;Node5 -->
<g id="edge15_Node000011_Node000005" class="edge">
<title>Node11&#45;&gt;Node5</title>
<g id="a_edge15_Node000011_Node000005"><a xlink:title=" ">
<path fill="none" stroke="#63b8ff" d="M468.25,-274.92C491.41,-263.79 524.49,-243.06 511,-220 481.58,-169.72 416.39,-142.89 373.87,-130.19"/>
<polygon fill="#63b8ff" stroke="#63b8ff" points="374.68,-126.78 364.11,-127.4 372.76,-133.51 374.68,-126.78"/>
</a>
</g>
</g>
<!-- Node11&#45;&gt;Node6 -->
<g id="edge16_Node000011_Node000006" class="edge">
<title>Node11&#45;&gt;Node6</title>
<g id="a_edge16_Node000011_Node000006"><a xlink:title=" ">
<path fill="none" stroke="#63b8ff" d="M483.82,-276.46C486.92,-275.93 490.01,-275.44 493,-275 569.71,-263.8 770.93,-274.2 840,-239 860.14,-228.74 876.52,-208.15 886.47,-193.19"/>
<polygon fill="#63b8ff" stroke="#63b8ff" points="889.68,-194.67 892.05,-184.34 883.76,-190.93 889.68,-194.67"/>
</a>
</g>
</g>
<!-- Node11&#45;&gt;Node7 -->
<g id="edge20_Node000011_Node000007" class="edge">
<title>Node11&#45;&gt;Node7</title>
<g id="a_edge20_Node000011_Node000007"><a xlink:title=" ">
<path fill="none" stroke="#63b8ff" d="M412.48,-277.37C356.86,-267.77 249.21,-249.18 187.49,-238.53"/>
<polygon fill="#63b8ff" stroke="#63b8ff" points="188.07,-235.08 177.62,-236.82 186.88,-241.97 188.07,-235.08"/>
</a>
</g>
</g>
<!-- Node12 -->
<g id="Node000012" class="node">
<title>Node12</title>
<g id="a_Node000012"><a xlink:title=" ">
<polygon fill="#e0e0e0" stroke="#999999" points="294,-239 234,-239 234,-220 294,-220 294,-239"/>
<text text-anchor="middle" x="264" y="-227" font-family="Helvetica,sans-Serif" font-size="10.00">concepts</text>
</a>
</g>
</g>
<!-- Node11&#45;&gt;Node12 -->
<g id="edge12_Node000011_Node000012" class="edge">
<title>Node11&#45;&gt;Node12</title>
<g id="a_edge12_Node000011_Node000012"><a xlink:title=" ">
<path fill="none" stroke="#63b8ff" d="M418.44,-274.98C387.28,-266.01 338.03,-251.82 303.54,-241.89"/>
<polygon fill="#63b8ff" stroke="#63b8ff" points="304.37,-238.49 293.79,-239.08 302.43,-245.21 304.37,-238.49"/>
</a>
</g>
</g>
<!-- Node13 -->
<g id="Node000013" class="node">
<title>Node13</title>
<g id="a_Node000013"><a xlink:title=" ">
<polygon fill="#e0e0e0" stroke="#999999" points="362,-239 312,-239 312,-220 362,-220 362,-239"/>
<text text-anchor="middle" x="337" y="-227" font-family="Helvetica,sans-Serif" font-size="10.00">format</text>
</a>
</g>
</g>
<!-- Node11&#45;&gt;Node13 -->
<g id="edge13_Node000011_Node000013" class="edge">
<title>Node11&#45;&gt;Node13</title>
<g id="a_edge13_Node000011_Node000013"><a xlink:title=" ">
<path fill="none" stroke="#63b8ff" d="M430.17,-274.98C412.39,-266.5 384.85,-253.35 364.32,-243.54"/>
<polygon fill="#63b8ff" stroke="#63b8ff" points="365.69,-240.32 355.16,-239.17 362.67,-246.64 365.69,-240.32"/>
</a>
</g>
</g>
<!-- Node14 -->
<g id="Node000014" class="node">
<title>Node14</title>
<g id="a_Node000014"><a xlink:title=" ">
<polygon fill="#e0e0e0" stroke="#999999" points="445.5,-239 380.5,-239 380.5,-220 445.5,-220 445.5,-239"/>
<text text-anchor="middle" x="413" y="-227" font-family="Helvetica,sans-Serif" font-size="10.00">functional</text>
</a>
</g>
</g>
<!-- Node11&#45;&gt;Node14 -->
<g id="edge14_Node000011_Node000014" class="edge">
<title>Node11&#45;&gt;Node14</title>
<g id="a_edge14_Node000011_Node000014"><a xlink:title=" ">
<path fill="none" stroke="#63b8ff" d="M442.22,-274.75C437.38,-267.42 430.32,-256.73 424.36,-247.7"/>
<polygon fill="#63b8ff" stroke="#63b8ff" points="427.1,-245.5 418.67,-239.09 421.26,-249.36 427.1,-245.5"/>
</a>
</g>
</g>
<!-- Node15 -->
<g id="Node000015" class="node">
<title>Node15</title>
<g id="a_Node000015"><a xlink:title=" ">
<polygon fill="#e0e0e0" stroke="#999999" points="502.5,-239 463.5,-239 463.5,-220 502.5,-220 502.5,-239"/>
<text text-anchor="middle" x="483" y="-227" font-family="Helvetica,sans-Serif" font-size="10.00">print</text>
</a>
</g>
</g>
<!-- Node11&#45;&gt;Node15 -->
<g id="edge17_Node000011_Node000015" class="edge">
<title>Node11&#45;&gt;Node15</title>
<g id="a_edge17_Node000011_Node000015"><a xlink:title=" ">
<path fill="none" stroke="#63b8ff" d="M453.78,-274.75C458.62,-267.42 465.68,-256.73 471.64,-247.7"/>
<polygon fill="#63b8ff" stroke="#63b8ff" points="474.74,-249.36 477.33,-239.09 468.9,-245.5 474.74,-249.36"/>
</a>
</g>
</g>
<!-- Node16 -->
<g id="Node000016" class="node">
<title>Node16</title>
<g id="a_Node000016"><a xlink:title=" ">
<polygon fill="#e0e0e0" stroke="#999999" points="681,-239 631,-239 631,-220 681,-220 681,-239"/>
<text text-anchor="middle" x="656" y="-227" font-family="Helvetica,sans-Serif" font-size="10.00">ranges</text>
</a>
</g>
</g>
<!-- Node11&#45;&gt;Node16 -->
<g id="edge18_Node000011_Node000016" class="edge">
<title>Node11&#45;&gt;Node16</title>
<g id="a_edge18_Node000011_Node000016"><a xlink:title=" ">
<path fill="none" stroke="#63b8ff" d="M481.42,-274.98C519.69,-265.23 582.09,-249.33 621.01,-239.42"/>
<polygon fill="#63b8ff" stroke="#63b8ff" points="622.01,-242.77 630.84,-236.91 620.29,-235.99 622.01,-242.77"/>
</a>
</g>
</g>
<!-- Node17 -->
<g id="Node000017" class="node">
<title>Node17</title>
<g id="a_Node000017"><a xlink:title=" ">
<polygon fill="#e0e0e0" stroke="#999999" points="755,-239 699,-239 699,-220 755,-220 755,-239"/>
<text text-anchor="middle" x="727" y="-227" font-family="Helvetica,sans-Serif" font-size="10.00">sstream</text>
</a>
</g>
</g>
<!-- Node11&#45;&gt;Node17 -->
<g id="edge19_Node000011_Node000017" class="edge">
<title>Node11&#45;&gt;Node17</title>
<g id="a_edge19_Node000011_Node000017"><a xlink:title=" ">
<path fill="none" stroke="#63b8ff" d="M483.86,-276.71C486.95,-276.13 490.03,-275.55 493,-275 577.43,-259.31 601.18,-257.11 688.9,-239.16"/>
<polygon fill="#63b8ff" stroke="#63b8ff" points="689.66,-242.57 698.75,-237.13 688.25,-235.72 689.66,-242.57"/>
</a>
</g>
</g>
<!-- Node18 -->
<g id="Node000018" class="node">
<title>Node18</title>
<g id="a_Node000018"><a xlink:title=" ">
<polygon fill="#e0e0e0" stroke="#999999" points="219.5,-74 174.5,-74 174.5,-55 219.5,-55 219.5,-74"/>
<text text-anchor="middle" x="197" y="-62" font-family="Helvetica,sans-Serif" font-size="10.00">utility</text>
</a>
</g>
</g>
<!-- Node11&#45;&gt;Node18 -->
<g id="edge21_Node000011_Node000018" class="edge">
<title>Node11&#45;&gt;Node18</title>
<g id="a_edge21_Node000011_Node000018"><a xlink:title=" ">
<path fill="none" stroke="#63b8ff" d="M412.36,-281.23C356.08,-276.89 250.41,-265.37 225,-239 184.12,-196.58 188.98,-119.44 193.84,-84.09"/>
<polygon fill="#63b8ff" stroke="#63b8ff" points="197.3,-84.6 195.36,-74.18 190.38,-83.54 197.3,-84.6"/>
</a>
</g>
</g>
<!-- Node19 -->
<g id="Node000019" class="node">
<title>Node19</title>
<g id="a_Node000019"><a xlink:href="loc_8h.html" target="_top" xlink:title=" ">
<polygon fill="white" stroke="#666666" points="612.5,-239 559.5,-239 559.5,-220 612.5,-220 612.5,-239"/>
<text text-anchor="middle" x="586" y="-227" font-family="Helvetica,sans-Serif" font-size="10.00">fe/loc.h</text>
</a>
</g>
</g>
<!-- Node11&#45;&gt;Node19 -->
<g id="edge22_Node000011_Node000019" class="edge">
<title>Node11&#45;&gt;Node19</title>
<g id="a_edge22_Node000011_Node000019"><a xlink:title=" ">
<path fill="none" stroke="#63b8ff" d="M470.17,-274.98C492.77,-266.3 528.06,-252.75 553.75,-242.88"/>
<polygon fill="#63b8ff" stroke="#63b8ff" points="555.34,-246.02 563.42,-239.17 552.83,-239.49 555.34,-246.02"/>
</a>
</g>
</g>
<!-- Node33 -->
<g id="Node000033" class="node">
<title>Node33</title>
<g id="a_Node000033"><a xlink:href="utf8_8h.html" target="_top" xlink:title=" ">
<polygon fill="white" stroke="#666666" points="831,-239 773,-239 773,-220 831,-220 831,-239"/>
<text text-anchor="middle" x="802" y="-227" font-family="Helvetica,sans-Serif" font-size="10.00">fe/utf8.h</text>
</a>
</g>
</g>
<!-- Node11&#45;&gt;Node33 -->
<g id="edge41_Node000011_Node000033" class="edge">
<title>Node11&#45;&gt;Node33</title>
<g id="a_edge41_Node000011_Node000033"><a xlink:title=" ">
<path fill="none" stroke="#63b8ff" d="M483.83,-276.55C486.93,-276 490.02,-275.48 493,-275 609.8,-256.23 642.66,-260.06 762.65,-239.1"/>
<polygon fill="#63b8ff" stroke="#63b8ff" points="763.36,-242.53 772.59,-237.35 762.14,-235.64 763.36,-242.53"/>
</a>
</g>
</g>
<!-- Node20 -->
<g id="Node000020" class="node">
<title>Node20</title>
<g id="a_Node000020"><a xlink:title=" ">
<polygon fill="#e0e0e0" stroke="#999999" points="592,-184 524,-184 524,-165 592,-165 592,-184"/>
<text text-anchor="middle" x="558" y="-172" font-family="Helvetica,sans-Serif" font-size="10.00">filesystem</text>
</a>
</g>
</g>
<!-- Node19&#45;&gt;Node20 -->
<g id="edge23_Node000019_Node000020" class="edge">
<title>Node19&#45;&gt;Node20</title>
<g id="a_edge23_Node000019_Node000020"><a xlink:title=" ">
<path fill="none" stroke="#63b8ff" d="M581.38,-219.75C577.54,-212.49 571.98,-201.95 567.24,-192.98"/>
<polygon fill="#63b8ff" stroke="#63b8ff" points="570.3,-191.3 562.54,-184.09 564.11,-194.57 570.3,-191.3"/>
</a>
</g>
</g>
<!-- Node21 -->
<g id="Node000021" class="node">
<title>Node21</title>
<g id="a_Node000021"><a xlink:href="sym_8h.html" target="_top" xlink:title=" ">
<polygon fill="white" stroke="#666666" points="669.5,-184 610.5,-184 610.5,-165 669.5,-165 669.5,-184"/>
<text text-anchor="middle" x="640" y="-172" font-family="Helvetica,sans-Serif" font-size="10.00">fe/sym.h</text>
</a>
</g>
</g>
<!-- Node19&#45;&gt;Node21 -->
<g id="edge24_Node000019_Node000021" class="edge">
<title>Node19&#45;&gt;Node21</title>
<g id="a_edge24_Node000019_Node000021"><a xlink:title=" ">
<path fill="none" stroke="#63b8ff" d="M594.92,-219.75C602.78,-212.03 614.43,-200.6 623.92,-191.28"/>
<polygon fill="#63b8ff" stroke="#63b8ff" points="626.56,-193.59 631.25,-184.09 621.66,-188.6 626.56,-193.59"/>
</a>
</g>
</g>
<!-- Node21&#45;&gt;Node3 -->
<g id="edge26_Node000021_Node000003" class="edge">
<title>Node21&#45;&gt;Node3</title>
<g id="a_edge26_Node000021_Node000003"><a xlink:title=" ">
<path fill="none" stroke="#63b8ff" d="M610.26,-166.62C607.14,-166.02 604.01,-165.46 601,-165 430.14,-138.79 223.49,-126.32 142.24,-122.16"/>
<polygon fill="#63b8ff" stroke="#63b8ff" points="142.23,-118.66 132.06,-121.65 141.88,-125.65 142.23,-118.66"/>
</a>
</g>
</g>
<!-- Node21&#45;&gt;Node5 -->
<g id="edge28_Node000021_Node000005" class="edge">
<title>Node21&#45;&gt;Node5</title>
<g id="a_edge28_Node000021_Node000005"><a xlink:title=" ">
<path fill="none" stroke="#63b8ff" d="M610.23,-166.82C607.12,-166.18 604,-165.56 601,-165 503.32,-146.66 475.55,-147.83 374.24,-129.14"/>
<polygon fill="#63b8ff" stroke="#63b8ff" points="374.67,-125.66 364.2,-127.26 373.39,-132.54 374.67,-125.66"/>
</a>
</g>
</g>
<!-- Node21&#45;&gt;Node10 -->
<g id="edge25_Node000021_Node000010" class="edge">
<title>Node21&#45;&gt;Node10</title>
<g id="a_edge25_Node000021_Node000010"><a xlink:title=" ">
<path fill="none" stroke="#63b8ff" d="M669.55,-167.29C706.05,-159.12 765.36,-144.01 782,-129 797.55,-114.97 817.6,-58.19 827.28,-28.61"/>
<polygon fill="#63b8ff" stroke="#63b8ff" points="830.61,-29.67 830.34,-19.08 823.95,-27.53 830.61,-29.67"/>
</a>
</g>
</g>
<!-- Node22 -->
<g id="Node000022" class="node">
<title>Node22</title>
<g id="a_Node000022"><a xlink:title=" ">
<polygon fill="#e0e0e0" stroke="#999999" points="599.5,-129 570.5,-129 570.5,-110 599.5,-110 599.5,-129"/>
<text text-anchor="middle" x="585" y="-117" font-family="Helvetica,sans-Serif" font-size="10.00">bit</text>
</a>
</g>
</g>
<!-- Node21&#45;&gt;Node22 -->
<g id="edge27_Node000021_Node000022" class="edge">
<title>Node21&#45;&gt;Node22</title>
<g id="a_edge27_Node000021_Node000022"><a xlink:title=" ">
<path fill="none" stroke="#63b8ff" d="M630.92,-164.75C622.91,-157.03 611.04,-145.6 601.38,-136.28"/>
<polygon fill="#63b8ff" stroke="#63b8ff" points="603.54,-133.51 593.91,-129.09 598.69,-138.55 603.54,-133.51"/>
</a>
</g>
</g>
<!-- Node23 -->
<g id="Node000023" class="node">
<title>Node23</title>
<g id="a_Node000023"><a xlink:title=" ">
<polygon fill="#e0e0e0" stroke="#999999" points="662,-129 618,-129 618,-110 662,-110 662,-129"/>
<text text-anchor="middle" x="640" y="-117" font-family="Helvetica,sans-Serif" font-size="10.00">string</text>
</a>
</g>
</g>
<!-- Node21&#45;&gt;Node23 -->
<g id="edge29_Node000021_Node000023" class="edge">
<title>Node21&#45;&gt;Node23</title>
<g id="a_edge29_Node000021_Node000023"><a xlink:title=" ">
<path fill="none" stroke="#63b8ff" d="M640,-164.75C640,-157.8 640,-147.85 640,-139.13"/>
<polygon fill="#63b8ff" stroke="#63b8ff" points="643.5,-139.09 640,-129.09 636.5,-139.09 643.5,-139.09"/>
</a>
</g>
</g>
<!-- Node24 -->
<g id="Node000024" class="node">
<title>Node24</title>
<g id="a_Node000024"><a xlink:title=" ">
<polygon fill="#e0e0e0" stroke="#999999" points="773.5,-129 680.5,-129 680.5,-110 773.5,-110 773.5,-129"/>
<text text-anchor="middle" x="727" y="-117" font-family="Helvetica,sans-Serif" font-size="10.00">unordered_map</text>
</a>
</g>
</g>
<!-- Node21&#45;&gt;Node24 -->
<g id="edge30_Node000021_Node000024" class="edge">
<title>Node21&#45;&gt;Node24</title>
<g id="a_edge30_Node000021_Node000024"><a xlink:title=" ">
<path fill="none" stroke="#63b8ff" d="M653.98,-164.98C667.47,-156.77 688.13,-144.18 704.04,-134.49"/>
<polygon fill="#63b8ff" stroke="#63b8ff" points="706.05,-137.36 712.77,-129.17 702.41,-131.38 706.05,-137.36"/>
</a>
</g>
</g>
<!-- Node25 -->
<g id="Node000025" class="node">
<title>Node25</title>
<g id="a_Node000025"><a xlink:title=" ">
<polygon fill="#e0e0e0" stroke="#999999" points="552,-129 466,-129 466,-110 552,-110 552,-129"/>
<text text-anchor="middle" x="509" y="-117" font-family="Helvetica,sans-Serif" font-size="10.00">unordered_set</text>
</a>
</g>
</g>
<!-- Node21&#45;&gt;Node25 -->
<g id="edge31_Node000021_Node000025" class="edge">
<title>Node21&#45;&gt;Node25</title>
<g id="a_edge31_Node000021_Node000025"><a xlink:title=" ">
<path fill="none" stroke="#63b8ff" d="M618.95,-164.98C597.59,-156.34 564.3,-142.87 539.94,-133.02"/>
<polygon fill="#63b8ff" stroke="#63b8ff" points="541.01,-129.68 530.43,-129.17 538.39,-136.17 541.01,-129.68"/>
</a>
</g>
</g>
<!-- Node26 -->
<g id="Node000026" class="node">
<title>Node26</title>
<g id="a_Node000026"><a xlink:href="arena_8h.html" target="_top" xlink:title=" ">
<polygon fill="white" stroke="#666666" points="448,-129 382,-129 382,-110 448,-110 448,-129"/>
<text text-anchor="middle" x="415" y="-117" font-family="Helvetica,sans-Serif" font-size="10.00">fe/arena.h</text>
</a>
</g>
</g>
<!-- Node21&#45;&gt;Node26 -->
<g id="edge32_Node000021_Node000026" class="edge">
<title>Node21&#45;&gt;Node26</title>
<g id="a_edge32_Node000021_Node000026"><a xlink:title=" ">
<path fill="none" stroke="#63b8ff" d="M610.12,-166.46C571.2,-157.29 502.86,-141.2 458.26,-130.69"/>
<polygon fill="#63b8ff" stroke="#63b8ff" points="458.84,-127.23 448.3,-128.34 457.23,-134.04 458.84,-127.23"/>
</a>
</g>
</g>
<!-- Node26&#45;&gt;Node9 -->
<g id="edge40_Node000026_Node000009" class="edge">
<title>Node26&#45;&gt;Node9</title>
<g id="a_edge40_Node000026_Node000009"><a xlink:title=" ">
<path fill="none" stroke="#63b8ff" d="M448.42,-111.45C451.32,-110.93 454.21,-110.43 457,-110 588.31,-89.58 744.9,-75.25 819.81,-69.01"/>
<polygon fill="#63b8ff" stroke="#63b8ff" points="820.15,-72.49 829.83,-68.18 819.57,-65.52 820.15,-72.49"/>
</a>
</g>
</g>
<!-- Node26&#45;&gt;Node18 -->
<g id="edge39_Node000026_Node000018" class="edge">
<title>Node26&#45;&gt;Node18</title>
<g id="a_edge39_Node000026_Node000018"><a xlink:title=" ">
<path fill="none" stroke="#63b8ff" d="M381.81,-110.96C346.34,-102.82 288.21,-89.27 229.47,-74.32"/>
<polygon fill="#63b8ff" stroke="#63b8ff" points="230.22,-70.9 219.66,-71.81 228.48,-77.68 230.22,-70.9"/>
</a>
</g>
</g>
<!-- Node27 -->
<g id="Node000027" class="node">
<title>Node27</title>
<g id="a_Node000027"><a xlink:title=" ">
<polygon fill="#e0e0e0" stroke="#999999" points="389,-74 325,-74 325,-55 389,-55 389,-74"/>
<text text-anchor="middle" x="357" y="-62" font-family="Helvetica,sans-Serif" font-size="10.00">algorithm</text>
</a>
</g>
</g>
<!-- Node26&#45;&gt;Node27 -->
<g id="edge33_Node000026_Node000027" class="edge">
<title>Node26&#45;&gt;Node27</title>
<g id="a_edge33_Node000026_Node000027"><a xlink:title=" ">
<path fill="none" stroke="#63b8ff" d="M405.68,-109.98C397.19,-102.23 384.44,-90.58 374.12,-81.14"/>
<polygon fill="#63b8ff" stroke="#63b8ff" points="376.23,-78.33 366.49,-74.17 371.51,-83.5 376.23,-78.33"/>
</a>
</g>
</g>
<!-- Node28 -->
<g id="Node000028" class="node">
<title>Node28</title>
<g id="a_Node000028"><a xlink:title=" ">
<polygon fill="#e0e0e0" stroke="#999999" points="439,-74 407,-74 407,-55 439,-55 439,-74"/>
<text text-anchor="middle" x="423" y="-62" font-family="Helvetica,sans-Serif" font-size="10.00">list</text>
</a>
</g>
</g>
<!-- Node26&#45;&gt;Node28 -->
<g id="edge34_Node000026_Node000028" class="edge">
<title>Node26&#45;&gt;Node28</title>
<g id="a_edge34_Node000026_Node000028"><a xlink:title=" ">
<path fill="none" stroke="#63b8ff" d="M416.32,-109.75C417.37,-102.8 418.87,-92.85 420.19,-84.13"/>
<polygon fill="#63b8ff" stroke="#63b8ff" points="423.67,-84.5 421.7,-74.09 416.75,-83.45 423.67,-84.5"/>
</a>
</g>
</g>
<!-- Node29 -->
<g id="Node000029" class="node">
<title>Node29</title>
<g id="a_Node000029"><a xlink:title=" ">
<polygon fill="#e0e0e0" stroke="#999999" points="515,-74 457,-74 457,-55 515,-55 515,-74"/>
<text text-anchor="middle" x="486" y="-62" font-family="Helvetica,sans-Serif" font-size="10.00">memory</text>
</a>
</g>
</g>
<!-- Node26&#45;&gt;Node29 -->
<g id="edge35_Node000026_Node000029" class="edge">
<title>Node26&#45;&gt;Node29</title>
<g id="a_edge35_Node000026_Node000029"><a xlink:title=" ">
<path fill="none" stroke="#63b8ff" d="M426.41,-109.98C437.11,-102 453.34,-89.88 466.16,-80.31"/>
<polygon fill="#63b8ff" stroke="#63b8ff" points="468.47,-82.96 474.39,-74.17 464.28,-77.35 468.47,-82.96"/>
</a>
</g>
</g>
<!-- Node30 -->
<g id="Node000030" class="node">
<title>Node30</title>
<g id="a_Node000030"><a xlink:title=" ">
<polygon fill="#e0e0e0" stroke="#999999" points="638.5,-74 533.5,-74 533.5,-55 638.5,-55 638.5,-74"/>
<text text-anchor="middle" x="586" y="-62" font-family="Helvetica,sans-Serif" font-size="10.00">memory_resource</text>
</a>
</g>
</g>
<!-- Node26&#45;&gt;Node30 -->
<g id="edge36_Node000026_Node000030" class="edge">
<title>Node26&#45;&gt;Node30</title>
<g id="a_edge36_Node000026_Node000030"><a xlink:title=" ">
<path fill="none" stroke="#63b8ff" d="M442.47,-109.98C471.18,-101.09 516.42,-87.07 548.42,-77.15"/>
<polygon fill="#63b8ff" stroke="#63b8ff" points="549.8,-80.39 558.31,-74.08 547.72,-73.7 549.8,-80.39"/>
</a>
</g>
</g>
<!-- Node31 -->
<g id="Node000031" class="node">
<title>Node31</title>
<g id="a_Node000031"><a xlink:title=" ">
<polygon fill="#e0e0e0" stroke="#999999" points="693.5,-74 656.5,-74 656.5,-55 693.5,-55 693.5,-74"/>
<text text-anchor="middle" x="675" y="-62" font-family="Helvetica,sans-Serif" font-size="10.00">new</text>
</a>
</g>
</g>
<!-- Node26&#45;&gt;Node31 -->
<g id="edge37_Node000026_Node000031" class="edge">
<title>Node26&#45;&gt;Node31</title>
<g id="a_edge37_Node000026_Node000031"><a xlink:title=" ">
<path fill="none" stroke="#63b8ff" d="M448.01,-111.78C451.05,-111.17 454.08,-110.57 457,-110 538.3,-94.07 561.85,-94.46 646.61,-73.86"/>
<polygon fill="#63b8ff" stroke="#63b8ff" points="647.53,-77.24 656.4,-71.45 645.85,-70.44 647.53,-77.24"/>
</a>
</g>
</g>
<!-- Node32 -->
<g id="Node000032" class="node">
<title>Node32</title>
<g id="a_Node000032"><a xlink:title=" ">
<polygon fill="#e0e0e0" stroke="#999999" points="306.5,-74 237.5,-74 237.5,-55 306.5,-55 306.5,-74"/>
<text text-anchor="middle" x="272" y="-62" font-family="Helvetica,sans-Serif" font-size="10.00">type_traits</text>
</a>
</g>
</g>
<!-- Node26&#45;&gt;Node32 -->
<g id="edge38_Node000026_Node000032" class="edge">
<title>Node26&#45;&gt;Node32</title>
<g id="a_edge38_Node000026_Node000032"><a xlink:title=" ">
<path fill="none" stroke="#63b8ff" d="M392.02,-109.98C368.5,-101.27 331.71,-87.63 305.06,-77.75"/>
<polygon fill="#63b8ff" stroke="#63b8ff" points="305.99,-74.36 295.39,-74.17 303.55,-80.93 305.99,-74.36"/>
</a>
</g>
</g>
<!-- Node33&#45;&gt;Node6 -->
<g id="edge44_Node000033_Node000006" class="edge">
<title>Node33&#45;&gt;Node6</title>
<g id="a_edge44_Node000033_Node000006"><a xlink:title=" ">
<path fill="none" stroke="#63b8ff" d="M817.26,-219.98C832.13,-211.69 854.98,-198.94 872.42,-189.22"/>
<polygon fill="#63b8ff" stroke="#63b8ff" points="874.43,-192.1 881.46,-184.17 871.02,-185.99 874.43,-192.1"/>
</a>
</g>
</g>
<!-- Node33&#45;&gt;Node9 -->
<g id="edge45_Node000033_Node000009" class="edge">
<title>Node33&#45;&gt;Node9</title>
<g id="a_edge45_Node000033_Node000009"><a xlink:title=" ">
<path fill="none" stroke="#63b8ff" d="M805.52,-220C809.21,-211.06 815.12,-196.59 820,-184 833.7,-148.67 848.93,-107.1 857.4,-83.77"/>
<polygon fill="#63b8ff" stroke="#63b8ff" points="860.77,-84.75 860.88,-74.16 854.19,-82.37 860.77,-84.75"/>
</a>
</g>
</g>
<!-- Node34 -->
<g id="Node000034" class="node">
<title>Node34</title>
<g id="a_Node000034"><a xlink:title=" ">
<polygon fill="#e0e0e0" stroke="#999999" points="811.5,-184 762.5,-184 762.5,-165 811.5,-165 811.5,-184"/>
<text text-anchor="middle" x="787" y="-172" font-family="Helvetica,sans-Serif" font-size="10.00">cctype</text>
</a>
</g>
</g>
<!-- Node33&#45;&gt;Node34 -->
<g id="edge42_Node000033_Node000034" class="edge">
<title>Node33&#45;&gt;Node34</title>
<g id="a_edge42_Node000033_Node000034"><a xlink:title=" ">
<path fill="none" stroke="#63b8ff" d="M799.52,-219.75C797.54,-212.72 794.68,-202.62 792.19,-193.84"/>
<polygon fill="#63b8ff" stroke="#63b8ff" points="795.52,-192.76 789.43,-184.09 788.79,-194.66 795.52,-192.76"/>
</a>
</g>
</g>
<!-- Node35 -->
<g id="Node000035" class="node">
<title>Node35</title>
<g id="a_Node000035"><a xlink:title=" ">
<polygon fill="#e0e0e0" stroke="#999999" points="744,-184 690,-184 690,-165 744,-165 744,-184"/>
<text text-anchor="middle" x="717" y="-172" font-family="Helvetica,sans-Serif" font-size="10.00">istream</text>
</a>
</g>
</g>
<!-- Node33&#45;&gt;Node35 -->
<g id="edge43_Node000033_Node000035" class="edge">
<title>Node33&#45;&gt;Node35</title>
<g id="a_edge43_Node000033_Node000035"><a xlink:title=" ">
<path fill="none" stroke="#63b8ff" d="M788.34,-219.98C775.16,-211.77 754.97,-199.18 739.43,-189.49"/>
<polygon fill="#63b8ff" stroke="#63b8ff" points="741.24,-186.49 730.91,-184.17 737.54,-192.43 741.24,-186.49"/>
</a>
</g>
</g>
</g>
</svg>
