<?xml version="1.0" encoding="UTF-8" standalone="no"?>
<!DOCTYPE svg PUBLIC "-//W3C//DTD SVG 1.1//EN"
 "http://www.w3.org/Graphics/SVG/1.1/DTD/svg11.dtd">
<!-- Generated by graphviz version 2.43.0 (0)
 -->
<!-- Title: fe/term.h Pages: 1 -->
<svg width="1101pt" height="357pt"
 viewBox="0.00 0.00 1100.50 357.00" xmlns="http://www.w3.org/2000/svg" xmlns:xlink="http://www.w3.org/1999/xlink">
<g id="graph0" class="graph" transform="scale(1 1) rotate(0) translate(4 353)">
<title>fe/term.h</title>
<!-- Node1 -->
<g id="Node000001" class="node">
<title>Node1</title>
<g id="a_Node000001"><a xlink:title=" ">
<polygon fill="#999999" stroke="#666666" points="647.5,-349 585.5,-349 585.5,-330 647.5,-330 647.5,-349"/>
<text text-anchor="middle" x="616.5" y="-337" font-family="Helvetica,sans-Serif" font-size="10.00">fe/term.h</text>
</a>
</g>
</g>
<!-- Node2 -->
<g id="Node000002" class="node">
<title>Node2</title>
<g id="a_Node000002"><a xlink:title=" ">
<polygon fill="#e0e0e0" stroke="#999999" points="166,-294 117,-294 117,-275 166,-275 166,-294"/>
<text text-anchor="middle" x="141.5" y="-282" font-family="Helvetica,sans-Serif" font-size="10.00">cstdlib</text>
</a>
</g>
</g>
<!-- Node1&#45;&gt;Node2 -->
<g id="edge1_Node000001_Node000002" class="edge">
<title>Node1&#45;&gt;Node2</title>
<g id="a_edge1_Node000001_Node000002"><a xlink:title=" ">
<path fill="none" stroke="#63b8ff" d="M585.42,-336.54C513.72,-331.75 331.34,-318.06 180.5,-294 179.05,-293.77 177.56,-293.52 176.07,-293.25"/>
<polygon fill="#63b8ff" stroke="#63b8ff" points="176.66,-289.8 166.18,-291.32 175.32,-296.67 176.66,-289.8"/>
</a>
</g>
</g>
<!-- Node3 -->
<g id="Node000003" class="node">
<title>Node3</title>
<g id="a_Node000003"><a xlink:title=" ">
<polygon fill="#e0e0e0" stroke="#999999" points="219.5,-129 169.5,-129 169.5,-110 219.5,-110 219.5,-129"/>
<text text-anchor="middle" x="194.5" y="-117" font-family="Helvetica,sans-Serif" font-size="10.00">cstring</text>
</a>
</g>
</g>
<!-- Node1&#45;&gt;Node3 -->
<g id="edge2_Node000001_Node000003" class="edge">
<title>Node1&#45;&gt;Node3</title>
<g id="a_edge2_Node000001_Node000003"><a xlink:title=" ">
<path fill="none" stroke="#63b8ff" d="M585.28,-335.2C499.7,-325.52 264.37,-294.28 213.5,-239 188.43,-211.75 189.01,-165.23 191.71,-139.33"/>
<polygon fill="#63b8ff" stroke="#63b8ff" points="195.19,-139.67 192.97,-129.31 188.25,-138.79 195.19,-139.67"/>
</a>
</g>
</g>
<!-- Node4 -->
<g id="Node000004" class="node">
<title>Node4</title>
<g id="a_Node000004"><a xlink:title=" ">
<polygon fill="#e0e0e0" stroke="#999999" points="524.5,-294 474.5,-294 474.5,-275 524.5,-275 524.5,-294"/>
<text text-anchor="middle" x="499.5" y="-282" font-family="Helvetica,sans-Serif" font-size="10.00">atomic</text>
</a>
</g>
</g>
<!-- Node1&#45;&gt;Node4 -->
<g id="edge3_Node000001_Node000004" class="edge">
<title>Node1&#45;&gt;Node4</title>
<g id="a_edge3_Node000001_Node000004"><a xlink:title=" ">
<path fill="none" stroke="#63b8ff" d="M597.7,-329.98C578.88,-321.46 549.68,-308.23 528,-298.41"/>
<polygon fill="#63b8ff" stroke="#63b8ff" points="529.19,-295.11 518.64,-294.17 526.3,-301.48 529.19,-295.11"/>
</a>
</g>
</g>
<!-- Node5 -->
<g id="Node000005" class="node">
<title>Node5</title>
<g id="a_Node000005"><a xlink:title=" ">
<polygon fill="#e0e0e0" stroke="#999999" points="745.5,-129 685.5,-129 685.5,-110 745.5,-110 745.5,-129"/>
<text text-anchor="middle" x="715.5" y="-117" font-family="Helvetica,sans-Serif" font-size="10.00">iostream</text>
</a>
</g>
</g>
<!-- Node1&#45;&gt;Node5 -->
<g id="edge4_Node000001_Node000005" class="edge">
<title>Node1&#45;&gt;Node5</title>
<g id="a_edge4_Node000001_Node000005"><a xlink:title=" ">
<path fill="none" stroke="#63b8ff" d="M647.79,-332.59C734.96,-315.81 975.64,-267.3 997.5,-239 1063.3,-153.81 848.13,-129.24 755.66,-122.69"/>
<polygon fill="#63b8ff" stroke="#63b8ff" points="755.75,-119.19 745.53,-122.02 755.28,-126.18 755.75,-119.19"/>
</a>
</g>
</g>
<!-- Node6 -->
<g id="Node000006" class="node">
<title>Node6</title>
<g id="a_Node000006"><a xlink:title=" ">
<polygon fill="#e0e0e0" stroke="#999999" points="859,-184 802,-184 802,-165 859,-165 859,-184"/>
<text text-anchor="middle" x="830.5" y="-172" font-family="Helvetica,sans-Serif" font-size="10.00">ostream</text>
</a>
</g>
</g>
<!-- Node1&#45;&gt;Node6 -->
<g id="edge5_Node000001_Node000006" class="edge">
<title>Node1&#45;&gt;Node6</title>
<g id="a_edge5_Node000001_Node000006"><a xlink:title=" ">
<path fill="none" stroke="#63b8ff" d="M647.66,-337.19C734.49,-333.24 974.34,-320.02 997.5,-294 1019.37,-269.43 1017.54,-246.08 997.5,-220 981.97,-199.79 913.51,-186.81 869.21,-180.36"/>
<polygon fill="#63b8ff" stroke="#63b8ff" points="869.45,-176.86 859.06,-178.93 868.48,-183.79 869.45,-176.86"/>
</a>
</g>
</g>
<!-- Node7 -->
<g id="Node000007" class="node">
<title>Node7</title>
<g id="a_Node000007"><a xlink:title=" ">
<polygon fill="#e0e0e0" stroke="#999999" points="296,-239 223,-239 223,-220 296,-220 296,-239"/>
<text text-anchor="middle" x="259.5" y="-227" font-family="Helvetica,sans-Serif" font-size="10.00">string_view</text>
</a>
</g>
</g>
<!-- Node1&#45;&gt;Node7 -->
<g id="edge6_Node000001_Node000007" class="edge">
<title>Node1&#45;&gt;Node7</title>
<g id="a_edge6_Node000001_Node000007"><a xlink:title=" ">
<path fill="none" stroke="#63b8ff" d="M608.23,-329.85C594.27,-315.82 564.5,-288.35 533.5,-275 441.29,-235.3 409.57,-255.25 310.5,-239 309.2,-238.79 307.89,-238.57 306.56,-238.35"/>
<polygon fill="#63b8ff" stroke="#63b8ff" points="306.7,-234.83 296.27,-236.65 305.56,-241.74 306.7,-234.83"/>
</a>
</g>
</g>
<!-- Node8 -->
<g id="Node000008" class="node">
<title>Node8</title>
<g id="a_Node000008"><a xlink:title=" ">
<polygon fill="#e0e0e0" stroke="#999999" points="988.5,-294 932.5,-294 932.5,-275 988.5,-275 988.5,-294"/>
<text text-anchor="middle" x="960.5" y="-282" font-family="Helvetica,sans-Serif" font-size="10.00">unistd.h</text>
</a>
</g>
</g>
<!-- Node1&#45;&gt;Node8 -->
<g id="edge7_Node000001_Node000008" class="edge">
<title>Node1&#45;&gt;Node8</title>
<g id="a_edge7_Node000001_Node000008"><a xlink:title=" ">
<path fill="none" stroke="#63b8ff" d="M647.89,-334.44C702.87,-327.19 820.09,-311.2 918.5,-294 919.6,-293.81 920.71,-293.61 921.84,-293.41"/>
<polygon fill="#63b8ff" stroke="#63b8ff" points="922.9,-296.77 932.07,-291.47 921.6,-289.89 922.9,-296.77"/>
</a>
</g>
</g>
<!-- Node9 -->
<g id="Node000009" class="node">
<title>Node9</title>
<g id="a_Node000009"><a xlink:href="assert_8h.html" target="_top" xlink:title=" ">
<polygon fill="white" stroke="#666666" points="725.5,-74 657.5,-74 657.5,-55 725.5,-55 725.5,-74"/>
<text text-anchor="middle" x="691.5" y="-62" font-family="Helvetica,sans-Serif" font-size="10.00">fe/assert.h</text>
</a>
</g>
</g>
<!-- Node1&#45;&gt;Node9 -->
<g id="edge8_Node000001_Node000009" class="edge">
<title>Node1&#45;&gt;Node9</title>
<g id="a_edge8_Node000001_Node000009"><a xlink:title=" ">
<path fill="none" stroke="#63b8ff" d="M647.63,-337.38C729.83,-334.07 950.91,-322.67 1017.5,-294 1057.62,-276.73 1092.5,-274.18 1092.5,-230.5 1092.5,-230.5 1092.5,-230.5 1092.5,-173.5 1092.5,-100.31 840.28,-75.28 735.9,-68.06"/>
<polygon fill="#63b8ff" stroke="#63b8ff" points="735.9,-64.55 725.69,-67.38 735.43,-71.53 735.9,-64.55"/>
</a>
</g>
</g>
<!-- Node11 -->
<g id="Node000011" class="node">
<title>Node11</title>
<g id="a_Node000011"><a xlink:href="format_8h.html" target="_top" xlink:title=" ">
<polygon fill="white" stroke="#666666" points="652,-294 581,-294 581,-275 652,-275 652,-294"/>
<text text-anchor="middle" x="616.5" y="-282" font-family="Helvetica,sans-Serif" font-size="10.00">fe/format.h</text>
</a>
</g>
</g>
<!-- Node1&#45;&gt;Node11 -->
<g id="edge10_Node000001_Node000011" class="edge">
<title>Node1&#45;&gt;Node11</title>
<g id="a_edge10_Node000001_Node000011"><a xlink:title=" ">
<path fill="none" stroke="#63b8ff" d="M616.5,-329.75C616.5,-322.8 616.5,-312.85 616.5,-304.13"/>
<polygon fill="#63b8ff" stroke="#63b8ff" points="620,-304.09 616.5,-294.09 613,-304.09 620,-304.09"/>
</a>
</g>
</g>
<!-- Node10 -->
<g id="Node000010" class="node">
<title>Node10</title>
<g id="a_Node000010"><a xlink:title=" ">
<polygon fill="#e0e0e0" stroke="#999999" points="645.5,-19 593.5,-19 593.5,0 645.5,0 645.5,-19"/>
<text text-anchor="middle" x="619.5" y="-7" font-family="Helvetica,sans-Serif" font-size="10.00">cassert</text>
</a>
</g>
</g>
<!-- Node9&#45;&gt;Node10 -->
<g id="edge9_Node000009_Node000010" class="edge">
<title>Node9&#45;&gt;Node10</title>
<g id="a_edge9_Node000009_Node000010"><a xlink:title=" ">
<path fill="none" stroke="#63b8ff" d="M679.93,-54.98C669.08,-47 652.62,-34.88 639.62,-25.31"/>
<polygon fill="#63b8ff" stroke="#63b8ff" points="641.41,-22.28 631.28,-19.17 637.26,-27.92 641.41,-22.28"/>
</a>
</g>
</g>
<!-- Node11&#45;&gt;Node5 -->
<g id="edge14_Node000011_Node000005" class="edge">
<title>Node11&#45;&gt;Node5</title>
<g id="a_edge14_Node000011_Node000005"><a xlink:title=" ">
<path fill="none" stroke="#63b8ff" d="M580.82,-276.09C535.52,-266.31 462.26,-249.18 454.5,-239 449.38,-232.28 449.71,-226.95 454.5,-220 480.34,-182.49 608.8,-146.45 675.36,-129.92"/>
<polygon fill="#63b8ff" stroke="#63b8ff" points="676.22,-133.32 685.1,-127.54 674.55,-126.52 676.22,-133.32"/>
</a>
</g>
</g>
<!-- Node11&#45;&gt;Node6 -->
<g id="edge15_Node000011_Node000006" class="edge">
<title>Node11&#45;&gt;Node6</title>
<g id="a_edge15_Node000011_Node000006"><a xlink:title=" ">
<path fill="none" stroke="#63b8ff" d="M642.22,-274.91C665.52,-266.78 700.52,-253.65 729.5,-239 758.67,-224.25 790.26,-203.55 810.2,-189.84"/>
<polygon fill="#63b8ff" stroke="#63b8ff" points="812.28,-192.66 818.49,-184.09 808.28,-186.92 812.28,-192.66"/>
</a>
</g>
</g>
<!-- Node11&#45;&gt;Node7 -->
<g id="edge19_Node000011_Node000007" class="edge">
<title>Node11&#45;&gt;Node7</title>
<g id="a_edge19_Node000011_Node000007"><a xlink:title=" ">
<path fill="none" stroke="#63b8ff" d="M580.74,-277.29C575.96,-276.5 571.11,-275.72 566.5,-275 452.96,-257.37 424.07,-256.45 310.5,-239 309.2,-238.8 307.89,-238.6 306.56,-238.39"/>
<polygon fill="#63b8ff" stroke="#63b8ff" points="306.68,-234.86 296.25,-236.74 305.57,-241.78 306.68,-234.86"/>
</a>
</g>
</g>
<!-- Node12 -->
<g id="Node000012" class="node">
<title>Node12</title>
<g id="a_Node000012"><a xlink:title=" ">
<polygon fill="#e0e0e0" stroke="#999999" points="836.5,-239 776.5,-239 776.5,-220 836.5,-220 836.5,-239"/>
<text text-anchor="middle" x="806.5" y="-227" font-family="Helvetica,sans-Serif" font-size="10.00">concepts</text>
</a>
</g>
</g>
<!-- Node11&#45;&gt;Node12 -->
<g id="edge11_Node000011_Node000012" class="edge">
<title>Node11&#45;&gt;Node12</title>
<g id="a_edge11_Node000011_Node000012"><a xlink:title=" ">
<path fill="none" stroke="#63b8ff" d="M647.03,-274.98C679.39,-265.96 730.66,-251.65 766.3,-241.71"/>
<polygon fill="#63b8ff" stroke="#63b8ff" points="767.67,-244.96 776.36,-238.91 765.79,-238.22 767.67,-244.96"/>
</a>
</g>
</g>
<!-- Node13 -->
<g id="Node000013" class="node">
<title>Node13</title>
<g id="a_Node000013"><a xlink:title=" ">
<polygon fill="#e0e0e0" stroke="#999999" points="904.5,-239 854.5,-239 854.5,-220 904.5,-220 904.5,-239"/>
<text text-anchor="middle" x="879.5" y="-227" font-family="Helvetica,sans-Serif" font-size="10.00">format</text>
</a>
</g>
</g>
<!-- Node11&#45;&gt;Node13 -->
<g id="edge12_Node000011_Node000013" class="edge">
<title>Node11&#45;&gt;Node13</title>
<g id="a_edge12_Node000011_Node000013"><a xlink:title=" ">
<path fill="none" stroke="#63b8ff" d="M652.32,-277.15C695.56,-269.35 770.68,-255.36 844.37,-239.16"/>
<polygon fill="#63b8ff" stroke="#63b8ff" points="845.28,-242.54 854.28,-236.96 843.76,-235.71 845.28,-242.54"/>
</a>
</g>
</g>
<!-- Node14 -->
<g id="Node000014" class="node">
<title>Node14</title>
<g id="a_Node000014"><a xlink:title=" ">
<polygon fill="#e0e0e0" stroke="#999999" points="988,-239 923,-239 923,-220 988,-220 988,-239"/>
<text text-anchor="middle" x="955.5" y="-227" font-family="Helvetica,sans-Serif" font-size="10.00">functional</text>
</a>
</g>
</g>
<!-- Node11&#45;&gt;Node14 -->
<g id="edge13_Node000011_Node000014" class="edge">
<title>Node11&#45;&gt;Node14</title>
<g id="a_edge13_Node000011_Node000014"><a xlink:title=" ">
<path fill="none" stroke="#63b8ff" d="M652.25,-278.74C706.34,-271.42 812.41,-256.54 912.95,-239.01"/>
<polygon fill="#63b8ff" stroke="#63b8ff" points="913.73,-242.43 922.97,-237.25 912.52,-235.53 913.73,-242.43"/>
</a>
</g>
</g>
<!-- Node15 -->
<g id="Node000015" class="node">
<title>Node15</title>
<g id="a_Node000015"><a xlink:title=" ">
<polygon fill="#e0e0e0" stroke="#999999" points="502,-239 463,-239 463,-220 502,-220 502,-239"/>
<text text-anchor="middle" x="482.5" y="-227" font-family="Helvetica,sans-Serif" font-size="10.00">print</text>
</a>
</g>
</g>
<!-- Node11&#45;&gt;Node15 -->
<g id="edge16_Node000011_Node000015" class="edge">
<title>Node11&#45;&gt;Node15</title>
<g id="a_edge16_Node000011_Node000015"><a xlink:title=" ">
<path fill="none" stroke="#63b8ff" d="M594.97,-274.98C572.37,-266.05 536.71,-251.94 511.61,-242.01"/>
<polygon fill="#63b8ff" stroke="#63b8ff" points="512.82,-238.73 502.23,-238.3 510.24,-245.24 512.82,-238.73"/>
</a>
</g>
</g>
<!-- Node16 -->
<g id="Node000016" class="node">
<title>Node16</title>
<g id="a_Node000016"><a xlink:title=" ">
<polygon fill="#e0e0e0" stroke="#999999" points="570.5,-239 520.5,-239 520.5,-220 570.5,-220 570.5,-239"/>
<text text-anchor="middle" x="545.5" y="-227" font-family="Helvetica,sans-Serif" font-size="10.00">ranges</text>
</a>
</g>
</g>
<!-- Node11&#45;&gt;Node16 -->
<g id="edge17_Node000011_Node000016" class="edge">
<title>Node11&#45;&gt;Node16</title>
<g id="a_edge17_Node000011_Node000016"><a xlink:title=" ">
<path fill="none" stroke="#63b8ff" d="M605.09,-274.98C594.39,-267 578.16,-254.88 565.34,-245.31"/>
<polygon fill="#63b8ff" stroke="#63b8ff" points="567.22,-242.35 557.11,-239.17 563.03,-247.96 567.22,-242.35"/>
</a>
</g>
</g>
<!-- Node17 -->
<g id="Node000017" class="node">
<title>Node17</title>
<g id="a_Node000017"><a xlink:title=" ">
<polygon fill="#e0e0e0" stroke="#999999" points="644.5,-239 588.5,-239 588.5,-220 644.5,-220 644.5,-239"/>
<text text-anchor="middle" x="616.5" y="-227" font-family="Helvetica,sans-Serif" font-size="10.00">sstream</text>
</a>
</g>
</g>
<!-- Node11&#45;&gt;Node17 -->
<g id="edge18_Node000011_Node000017" class="edge">
<title>Node11&#45;&gt;Node17</title>
<g id="a_edge18_Node000011_Node000017"><a xlink:title=" ">
<path fill="none" stroke="#63b8ff" d="M616.5,-274.75C616.5,-267.8 616.5,-257.85 616.5,-249.13"/>
<polygon fill="#63b8ff" stroke="#63b8ff" points="620,-249.09 616.5,-239.09 613,-249.09 620,-249.09"/>
</a>
</g>
</g>
<!-- Node18 -->
<g id="Node000018" class="node">
<title>Node18</title>
<g id="a_Node000018"><a xlink:title=" ">
<polygon fill="#e0e0e0" stroke="#999999" points="45,-74 0,-74 0,-55 45,-55 45,-74"/>
<text text-anchor="middle" x="22.5" y="-62" font-family="Helvetica,sans-Serif" font-size="10.00">utility</text>
</a>
</g>
</g>
<!-- Node11&#45;&gt;Node18 -->
<g id="edge20_Node000011_Node000018" class="edge">
<title>Node11&#45;&gt;Node18</title>
<g id="a_edge20_Node000011_Node000018"><a xlink:title=" ">
<path fill="none" stroke="#63b8ff" d="M580.97,-277.79C507.68,-265.99 346.31,-239.96 343.5,-239 327.65,-233.6 118.88,-118.69 46.79,-78.91"/>
<polygon fill="#63b8ff" stroke="#63b8ff" points="48.38,-75.79 37.93,-74.03 44.99,-81.92 48.38,-75.79"/>
</a>
</g>
</g>
<!-- Node19 -->
<g id="Node000019" class="node">
<title>Node19</title>
<g id="a_Node000019"><a xlink:href="loc_8h.html" target="_top" xlink:title=" ">
<polygon fill="white" stroke="#666666" points="406,-239 353,-239 353,-220 406,-220 406,-239"/>
<text text-anchor="middle" x="379.5" y="-227" font-family="Helvetica,sans-Serif" font-size="10.00">fe/loc.h</text>
</a>
</g>
</g>
<!-- Node11&#45;&gt;Node19 -->
<g id="edge21_Node000011_Node000019" class="edge">
<title>Node11&#45;&gt;Node19</title>
<g id="a_edge21_Node000011_Node000019"><a xlink:title=" ">
<path fill="none" stroke="#63b8ff" d="M580.76,-275.51C536.37,-265.58 461.04,-248.73 416.21,-238.71"/>
<polygon fill="#63b8ff" stroke="#63b8ff" points="416.84,-235.26 406.32,-236.5 415.31,-242.09 416.84,-235.26"/>
</a>
</g>
</g>
<!-- Node33 -->
<g id="Node000033" class="node">
<title>Node33</title>
<g id="a_Node000033"><a xlink:href="utf8_8h.html" target="_top" xlink:title=" ">
<polygon fill="white" stroke="#666666" points="720.5,-239 662.5,-239 662.5,-220 720.5,-220 720.5,-239"/>
<text text-anchor="middle" x="691.5" y="-227" font-family="Helvetica,sans-Serif" font-size="10.00">fe/utf8.h</text>
</a>
</g>
</g>
<!-- Node11&#45;&gt;Node33 -->
<g id="edge40_Node000011_Node000033" class="edge">
<title>Node11&#45;&gt;Node33</title>
<g id="a_edge40_Node000011_Node000033"><a xlink:title=" ">
<path fill="none" stroke="#63b8ff" d="M628.55,-274.98C639.96,-266.92 657.33,-254.65 670.93,-245.03"/>
<polygon fill="#63b8ff" stroke="#63b8ff" points="673.08,-247.8 679.23,-239.17 669.04,-242.08 673.08,-247.8"/>
</a>
</g>
</g>
<!-- Node20 -->
<g id="Node000020" class="node">
<title>Node20</title>
<g id="a_Node000020"><a xlink:title=" ">
<polygon fill="#e0e0e0" stroke="#999999" points="484.5,-184 416.5,-184 416.5,-165 484.5,-165 484.5,-184"/>
<text text-anchor="middle" x="450.5" y="-172" font-family="Helvetica,sans-Serif" font-size="10.00">filesystem</text>
</a>
</g>
</g>
<!-- Node19&#45;&gt;Node20 -->
<g id="edge22_Node000019_Node000020" class="edge">
<title>Node19&#45;&gt;Node20</title>
<g id="a_edge22_Node000019_Node000020"><a xlink:title=" ">
<path fill="none" stroke="#63b8ff" d="M390.91,-219.98C401.61,-212 417.84,-199.88 430.66,-190.31"/>
<polygon fill="#63b8ff" stroke="#63b8ff" points="432.97,-192.96 438.89,-184.17 428.78,-187.35 432.97,-192.96"/>
</a>
</g>
</g>
<!-- Node21 -->
<g id="Node000021" class="node">
<title>Node21</title>
<g id="a_Node000021"><a xlink:href="sym_8h.html" target="_top" xlink:title=" ">
<polygon fill="white" stroke="#666666" points="398,-184 339,-184 339,-165 398,-165 398,-184"/>
<text text-anchor="middle" x="368.5" y="-172" font-family="Helvetica,sans-Serif" font-size="10.00">fe/sym.h</text>
</a>
</g>
</g>
<!-- Node19&#45;&gt;Node21 -->
<g id="edge23_Node000019_Node000021" class="edge">
<title>Node19&#45;&gt;Node21</title>
<g id="a_edge23_Node000019_Node000021"><a xlink:title=" ">
<path fill="none" stroke="#63b8ff" d="M377.68,-219.75C376.24,-212.8 374.18,-202.85 372.37,-194.13"/>
<polygon fill="#63b8ff" stroke="#63b8ff" points="375.74,-193.17 370.28,-184.09 368.89,-194.59 375.74,-193.17"/>
</a>
</g>
</g>
<!-- Node21&#45;&gt;Node3 -->
<g id="edge25_Node000021_Node000003" class="edge">
<title>Node21&#45;&gt;Node3</title>
<g id="a_edge25_Node000021_Node000003"><a xlink:title=" ">
<path fill="none" stroke="#63b8ff" d="M340.54,-164.98C310.25,-155.76 261.86,-141.02 229.17,-131.06"/>
<polygon fill="#63b8ff" stroke="#63b8ff" points="230.15,-127.7 219.56,-128.13 228.11,-134.4 230.15,-127.7"/>
</a>
</g>
</g>
<!-- Node21&#45;&gt;Node5 -->
<g id="edge27_Node000021_Node000005" class="edge">
<title>Node21&#45;&gt;Node5</title>
<g id="a_edge27_Node000021_Node000005"><a xlink:title=" ">
<path fill="none" stroke="#63b8ff" d="M398.26,-166.75C401.37,-166.12 404.5,-165.53 407.5,-165 523.17,-144.69 555.98,-149.58 675.42,-129.06"/>
<polygon fill="#63b8ff" stroke="#63b8ff" points="676.06,-132.5 685.31,-127.33 674.86,-125.6 676.06,-132.5"/>
</a>
</g>
</g>
<!-- Node21&#45;&gt;Node10 -->
<g id="edge24_Node000021_Node000010" class="edge">
<title>Node21&#45;&gt;Node10</title>
<g id="a_edge24_Node000021_Node000010"><a xlink:title=" ">
<path fill="none" stroke="#63b8ff" d="M398.15,-166.33C441.34,-155.73 517.63,-136.34 528.5,-129 567.41,-102.74 596.79,-54.39 610.66,-28.3"/>
<polygon fill="#63b8ff" stroke="#63b8ff" points="613.88,-29.69 615.35,-19.19 607.66,-26.48 613.88,-29.69"/>
</a>
</g>
</g>
<!-- Node22 -->
<g id="Node000022" class="node">
<title>Node22</title>
<g id="a_Node000022"><a xlink:title=" ">
<polygon fill="#e0e0e0" stroke="#999999" points="605,-129 576,-129 576,-110 605,-110 605,-129"/>
<text text-anchor="middle" x="590.5" y="-117" font-family="Helvetica,sans-Serif" font-size="10.00">bit</text>
</a>
</g>
</g>
<!-- Node21&#45;&gt;Node22 -->
<g id="edge26_Node000021_Node000022" class="edge">
<title>Node21&#45;&gt;Node22</title>
<g id="a_edge26_Node000021_Node000022"><a xlink:title=" ">
<path fill="none" stroke="#63b8ff" d="M398.07,-166.9C444.11,-156.6 530.81,-137.03 561.5,-129 562.96,-128.62 564.46,-128.22 565.96,-127.8"/>
<polygon fill="#63b8ff" stroke="#63b8ff" points="567.14,-131.1 575.79,-124.99 565.22,-124.37 567.14,-131.1"/>
</a>
</g>
</g>
<!-- Node23 -->
<g id="Node000023" class="node">
<title>Node23</title>
<g id="a_Node000023"><a xlink:title=" ">
<polygon fill="#e0e0e0" stroke="#999999" points="667.5,-129 623.5,-129 623.5,-110 667.5,-110 667.5,-129"/>
<text text-anchor="middle" x="645.5" y="-117" font-family="Helvetica,sans-Serif" font-size="10.00">string</text>
</a>
</g>
</g>
<!-- Node21&#45;&gt;Node23 -->
<g id="edge28_Node000021_Node000023" class="edge">
<title>Node21&#45;&gt;Node23</title>
<g id="a_edge28_Node000021_Node000023"><a xlink:title=" ">
<path fill="none" stroke="#63b8ff" d="M398.28,-166.87C401.39,-166.22 404.51,-165.59 407.5,-165 496.01,-147.67 521.63,-149.24 613.23,-129.1"/>
<polygon fill="#63b8ff" stroke="#63b8ff" points="614.21,-132.47 623.21,-126.88 612.69,-125.64 614.21,-132.47"/>
</a>
</g>
</g>
<!-- Node24 -->
<g id="Node000024" class="node">
<title>Node24</title>
<g id="a_Node000024"><a xlink:title=" ">
<polygon fill="#e0e0e0" stroke="#999999" points="415,-129 322,-129 322,-110 415,-110 415,-129"/>
<text text-anchor="middle" x="368.5" y="-117" font-family="Helvetica,sans-Serif" font-size="10.00">unordered_map</text>
</a>
</g>
</g>
<!-- Node21&#45;&gt;Node24 -->
<g id="edge29_Node000021_Node000024" class="edge">
<title>Node21&#45;&gt;Node24</title>
<g id="a_edge29_Node000021_Node000024"><a xlink:title=" ">
<path fill="none" stroke="#63b8ff" d="M368.5,-164.75C368.5,-157.8 368.5,-147.85 368.5,-139.13"/>
<polygon fill="#63b8ff" stroke="#63b8ff" points="372,-139.09 368.5,-129.09 365,-139.09 372,-139.09"/>
</a>
</g>
</g>
<!-- Node25 -->
<g id="Node000025" class="node">
<title>Node25</title>
<g id="a_Node000025"><a xlink:title=" ">
<polygon fill="#e0e0e0" stroke="#999999" points="519.5,-129 433.5,-129 433.5,-110 519.5,-110 519.5,-129"/>
<text text-anchor="middle" x="476.5" y="-117" font-family="Helvetica,sans-Serif" font-size="10.00">unordered_set</text>
</a>
</g>
</g>
<!-- Node21&#45;&gt;Node25 -->
<g id="edge30_Node000021_Node000025" class="edge">
<title>Node21&#45;&gt;Node25</title>
<g id="a_edge30_Node000021_Node000025"><a xlink:title=" ">
<path fill="none" stroke="#63b8ff" d="M385.85,-164.98C403.07,-156.54 429.7,-143.47 449.65,-133.68"/>
<polygon fill="#63b8ff" stroke="#63b8ff" points="451.4,-136.72 458.83,-129.17 448.31,-130.43 451.4,-136.72"/>
</a>
</g>
</g>
<!-- Node26 -->
<g id="Node000026" class="node">
<title>Node26</title>
<g id="a_Node000026"><a xlink:href="arena_8h.html" target="_top" xlink:title=" ">
<polygon fill="white" stroke="#666666" points="303.5,-129 237.5,-129 237.5,-110 303.5,-110 303.5,-129"/>
<text text-anchor="middle" x="270.5" y="-117" font-family="Helvetica,sans-Serif" font-size="10.00">fe/arena.h</text>
</a>
</g>
</g>
<!-- Node21&#45;&gt;Node26 -->
<g id="edge31_Node000021_Node000026" class="edge">
<title>Node21&#45;&gt;Node26</title>
<g id="a_edge31_Node000021_Node000026"><a xlink:title=" ">
<path fill="none" stroke="#63b8ff" d="M352.75,-164.98C337.27,-156.61 313.41,-143.7 295.36,-133.95"/>
<polygon fill="#63b8ff" stroke="#63b8ff" points="296.99,-130.85 286.53,-129.17 293.66,-137.01 296.99,-130.85"/>
</a>
</g>
</g>
<!-- Node26&#45;&gt;Node9 -->
<g id="edge39_Node000026_Node000009" class="edge">
<title>Node26&#45;&gt;Node9</title>
<g id="a_edge39_Node000026_Node000009"><a xlink:title=" ">
<path fill="none" stroke="#63b8ff" d="M303.93,-111.48C306.82,-110.95 309.71,-110.45 312.5,-110 432.91,-90.78 576.08,-76.2 647.05,-69.51"/>
<polygon fill="#63b8ff" stroke="#63b8ff" points="647.77,-72.96 657.4,-68.55 647.11,-65.99 647.77,-72.96"/>
</a>
</g>
</g>
<!-- Node26&#45;&gt;Node18 -->
<g id="edge38_Node000026_Node000018" class="edge">
<title>Node26&#45;&gt;Node18</title>
<g id="a_edge38_Node000026_Node000018"><a xlink:title=" ">
<path fill="none" stroke="#63b8ff" d="M237.48,-111.8C186.92,-101.54 92.96,-82.4 55.3,-74.01"/>
<polygon fill="#63b8ff" stroke="#63b8ff" points="55.71,-70.52 45.19,-71.7 54.15,-77.34 55.71,-70.52"/>
</a>
</g>
</g>
<!-- Node27 -->
<g id="Node000027" class="node">
<title>Node27</title>
<g id="a_Node000027"><a xlink:title=" ">
<polygon fill="#e0e0e0" stroke="#999999" points="127.5,-74 63.5,-74 63.5,-55 127.5,-55 127.5,-74"/>
<text text-anchor="middle" x="95.5" y="-62" font-family="Helvetica,sans-Serif" font-size="10.00">algorithm</text>
</a>
</g>
</g>
<!-- Node26&#45;&gt;Node27 -->
<g id="edge32_Node000026_Node000027" class="edge">
<title>Node26&#45;&gt;Node27</title>
<g id="a_edge32_Node000026_Node000027"><a xlink:title=" ">
<path fill="none" stroke="#63b8ff" d="M242.38,-109.98C212.88,-101.05 166.31,-86.94 133.53,-77.02"/>
<polygon fill="#63b8ff" stroke="#63b8ff" points="134.42,-73.63 123.84,-74.08 132.39,-80.33 134.42,-73.63"/>
</a>
</g>
</g>
<!-- Node28 -->
<g id="Node000028" class="node">
<title>Node28</title>
<g id="a_Node000028"><a xlink:title=" ">
<polygon fill="#e0e0e0" stroke="#999999" points="177.5,-74 145.5,-74 145.5,-55 177.5,-55 177.5,-74"/>
<text text-anchor="middle" x="161.5" y="-62" font-family="Helvetica,sans-Serif" font-size="10.00">list</text>
</a>
</g>
</g>
<!-- Node26&#45;&gt;Node28 -->
<g id="edge33_Node000026_Node000028" class="edge">
<title>Node26&#45;&gt;Node28</title>
<g id="a_edge33_Node000026_Node000028"><a xlink:title=" ">
<path fill="none" stroke="#63b8ff" d="M252.99,-109.98C235.01,-101.24 206.87,-87.56 186.55,-77.68"/>
<polygon fill="#63b8ff" stroke="#63b8ff" points="188.07,-74.53 177.55,-73.3 185.01,-80.82 188.07,-74.53"/>
</a>
</g>
</g>
<!-- Node29 -->
<g id="Node000029" class="node">
<title>Node29</title>
<g id="a_Node000029"><a xlink:title=" ">
<polygon fill="#e0e0e0" stroke="#999999" points="253.5,-74 195.5,-74 195.5,-55 253.5,-55 253.5,-74"/>
<text text-anchor="middle" x="224.5" y="-62" font-family="Helvetica,sans-Serif" font-size="10.00">memory</text>
</a>
</g>
</g>
<!-- Node26&#45;&gt;Node29 -->
<g id="edge34_Node000026_Node000029" class="edge">
<title>Node26&#45;&gt;Node29</title>
<g id="a_edge34_Node000026_Node000029"><a xlink:title=" ">
<path fill="none" stroke="#63b8ff" d="M262.9,-109.75C256.34,-102.18 246.68,-91.05 238.69,-81.84"/>
<polygon fill="#63b8ff" stroke="#63b8ff" points="241.15,-79.35 231.95,-74.09 235.87,-83.94 241.15,-79.35"/>
</a>
</g>
</g>
<!-- Node30 -->
<g id="Node000030" class="node">
<title>Node30</title>
<g id="a_Node000030"><a xlink:title=" ">
<polygon fill="#e0e0e0" stroke="#999999" points="377,-74 272,-74 272,-55 377,-55 377,-74"/>
<text text-anchor="middle" x="324.5" y="-62" font-family="Helvetica,sans-Serif" font-size="10.00">memory_resource</text>
</a>
</g>
</g>
<!-- Node26&#45;&gt;Node30 -->
<g id="edge35_Node000026_Node000030" class="edge">
<title>Node26&#45;&gt;Node30</title>
<g id="a_edge35_Node000026_Node000030"><a xlink:title=" ">
<path fill="none" stroke="#63b8ff" d="M279.42,-109.75C287.28,-102.03 298.93,-90.6 308.42,-81.28"/>
<polygon fill="#63b8ff" stroke="#63b8ff" points="311.06,-83.59 315.75,-74.09 306.16,-78.6 311.06,-83.59"/>
</a>
</g>
</g>
<!-- Node31 -->
<g id="Node000031" class="node">
<title>Node31</title>
<g id="a_Node000031"><a xlink:title=" ">
<polygon fill="#e0e0e0" stroke="#999999" points="432,-74 395,-74 395,-55 432,-55 432,-74"/>
<text text-anchor="middle" x="413.5" y="-62" font-family="Helvetica,sans-Serif" font-size="10.00">new</text>
</a>
</g>
</g>
<!-- Node26&#45;&gt;Node31 -->
<g id="edge36_Node000026_Node000031" class="edge">
<title>Node26&#45;&gt;Node31</title>
<g id="a_edge36_Node000026_Node000031"><a xlink:title=" ">
<path fill="none" stroke="#63b8ff" d="M293.48,-109.98C318.4,-100.75 358.21,-85.99 385.08,-76.03"/>
<polygon fill="#63b8ff" stroke="#63b8ff" points="386.53,-79.23 394.69,-72.47 384.1,-72.66 386.53,-79.23"/>
</a>
</g>
</g>
<!-- Node32 -->
<g id="Node000032" class="node">
<title>Node32</title>
<g id="a_Node000032"><a xlink:title=" ">
<polygon fill="#e0e0e0" stroke="#999999" points="519,-74 450,-74 450,-55 519,-55 519,-74"/>
<text text-anchor="middle" x="484.5" y="-62" font-family="Helvetica,sans-Serif" font-size="10.00">type_traits</text>
</a>
</g>
</g>
<!-- Node26&#45;&gt;Node32 -->
<g id="edge37_Node000026_Node000032" class="edge">
<title>Node26&#45;&gt;Node32</title>
<g id="a_edge37_Node000026_Node000032"><a xlink:title=" ">
<path fill="none" stroke="#63b8ff" d="M303.94,-110.22C340.57,-101.15 399.49,-86.55 440,-76.52"/>
<polygon fill="#63b8ff" stroke="#63b8ff" points="441.01,-79.88 449.88,-74.07 439.33,-73.08 441.01,-79.88"/>
</a>
</g>
</g>
<!-- Node33&#45;&gt;Node6 -->
<g id="edge43_Node000033_Node000006" class="edge">
<title>Node33&#45;&gt;Node6</title>
<g id="a_edge43_Node000033_Node000006"><a xlink:title=" ">
<path fill="none" stroke="#63b8ff" d="M713.83,-219.98C736.7,-211.27 772.46,-197.63 798.36,-187.75"/>
<polygon fill="#63b8ff" stroke="#63b8ff" points="799.66,-191 807.76,-184.17 797.17,-184.46 799.66,-191"/>
</a>
</g>
</g>
<!-- Node33&#45;&gt;Node9 -->
<g id="edge44_Node000033_Node000009" class="edge">
<title>Node33&#45;&gt;Node9</title>
<g id="a_edge44_Node000033_Node000009"><a xlink:title=" ">
<path fill="none" stroke="#63b8ff" d="M704.73,-219.85C715.91,-211.85 731.5,-198.97 740.5,-184 753.5,-162.38 751.36,-154.03 754.5,-129 755.55,-120.62 758.38,-117.5 754.5,-110 747.46,-96.41 734.16,-86.09 721.58,-78.82"/>
<polygon fill="#63b8ff" stroke="#63b8ff" points="723.12,-75.68 712.65,-74.07 719.83,-81.86 723.12,-75.68"/>
</a>
</g>
</g>
<!-- Node34 -->
<g id="Node000034" class="node">
<title>Node34</title>
<g id="a_Node000034"><a xlink:title=" ">
<polygon fill="#e0e0e0" stroke="#999999" points="659,-184 610,-184 610,-165 659,-165 659,-184"/>
<text text-anchor="middle" x="634.5" y="-172" font-family="Helvetica,sans-Serif" font-size="10.00">cctype</text>
</a>
</g>
</g>
<!-- Node33&#45;&gt;Node34 -->
<g id="edge41_Node000033_Node000034" class="edge">
<title>Node33&#45;&gt;Node34</title>
<g id="a_edge41_Node000033_Node000034"><a xlink:title=" ">
<path fill="none" stroke="#63b8ff" d="M682.34,-219.98C674,-212.23 661.47,-200.58 651.32,-191.14"/>
<polygon fill="#63b8ff" stroke="#63b8ff" points="653.53,-188.42 643.82,-184.17 648.76,-193.54 653.53,-188.42"/>
</a>
</g>
</g>
<!-- Node35 -->
<g id="Node000035" class="node">
<title>Node35</title>
<g id="a_Node000035"><a xlink:title=" ">
<polygon fill="#e0e0e0" stroke="#999999" points="731.5,-184 677.5,-184 677.5,-165 731.5,-165 731.5,-184"/>
<text text-anchor="middle" x="704.5" y="-172" font-family="Helvetica,sans-Serif" font-size="10.00">istream</text>
</a>
</g>
</g>
<!-- Node33&#45;&gt;Node35 -->
<g id="edge42_Node000033_Node000035" class="edge">
<title>Node33&#45;&gt;Node35</title>
<g id="a_edge42_Node000033_Node000035"><a xlink:title=" ">
<path fill="none" stroke="#63b8ff" d="M693.65,-219.75C695.37,-212.72 697.85,-202.62 700,-193.84"/>
<polygon fill="#63b8ff" stroke="#63b8ff" points="703.41,-194.63 702.39,-184.09 696.61,-192.97 703.41,-194.63"/>
</a>
</g>
</g>
</g>
</svg>
