<?xml version="1.0" encoding="UTF-8" standalone="no"?>
<!DOCTYPE svg PUBLIC "-//W3C//DTD SVG 1.1//EN"
 "http://www.w3.org/Graphics/SVG/1.1/DTD/svg11.dtd">
<!-- Generated by graphviz version 2.43.0 (0)
 -->
<!-- Title: fe/term.h Pages: 1 -->
<svg width="880pt" height="357pt"
 viewBox="0.00 0.00 880.45 357.00" xmlns="http://www.w3.org/2000/svg" xmlns:xlink="http://www.w3.org/1999/xlink">
<g id="graph0" class="graph" transform="scale(1 1) rotate(0) translate(4 353)">
<title>fe/term.h</title>
<!-- Node1 -->
<g id="Node000001" class="node">
<title>Node1</title>
<g id="a_Node000001"><a xlink:title=" ">
<polygon fill="#999999" stroke="#666666" points="252.5,-349 190.5,-349 190.5,-330 252.5,-330 252.5,-349"/>
<text text-anchor="middle" x="221.5" y="-337" font-family="Helvetica,sans-Serif" font-size="10.00">fe/term.h</text>
</a>
</g>
</g>
<!-- Node2 -->
<g id="Node000002" class="node">
<title>Node2</title>
<g id="a_Node000002"><a xlink:title=" ">
<polygon fill="#e0e0e0" stroke="#999999" points="49,-294 0,-294 0,-275 49,-275 49,-294"/>
<text text-anchor="middle" x="24.5" y="-282" font-family="Helvetica,sans-Serif" font-size="10.00">cstdlib</text>
</a>
</g>
</g>
<!-- Node1&#45;&gt;Node2 -->
<g id="edge1_Node000001_Node000002" class="edge">
<title>Node1&#45;&gt;Node2</title>
<g id="a_edge1_Node000001_Node000002"><a xlink:title=" ">
<path fill="none" stroke="#63b8ff" d="M190.28,-330.1C154.48,-320.47 95.97,-304.73 58.89,-294.75"/>
<polygon fill="#63b8ff" stroke="#63b8ff" points="59.6,-291.32 49.03,-292.1 57.78,-298.08 59.6,-291.32"/>
</a>
</g>
</g>
<!-- Node3 -->
<g id="Node000003" class="node">
<title>Node3</title>
<g id="a_Node000003"><a xlink:title=" ">
<polygon fill="#e0e0e0" stroke="#999999" points="264.5,-129 214.5,-129 214.5,-110 264.5,-110 264.5,-129"/>
<text text-anchor="middle" x="239.5" y="-117" font-family="Helvetica,sans-Serif" font-size="10.00">cstring</text>
</a>
</g>
</g>
<!-- Node1&#45;&gt;Node3 -->
<g id="edge2_Node000001_Node000003" class="edge">
<title>Node1&#45;&gt;Node3</title>
<g id="a_edge2_Node000001_Node000003"><a xlink:title=" ">
<path fill="none" stroke="#63b8ff" d="M217.9,-329.82C214.44,-320.99 209.47,-306.81 207.5,-294 198.8,-237.33 189.92,-219.57 207.5,-165 210.84,-154.62 217.6,-144.62 224.05,-136.74"/>
<polygon fill="#63b8ff" stroke="#63b8ff" points="226.79,-138.92 230.75,-129.1 221.53,-134.31 226.79,-138.92"/>
</a>
</g>
</g>
<!-- Node4 -->
<g id="Node000004" class="node">
<title>Node4</title>
<g id="a_Node000004"><a xlink:title=" ">
<polygon fill="#e0e0e0" stroke="#999999" points="155.5,-294 105.5,-294 105.5,-275 155.5,-275 155.5,-294"/>
<text text-anchor="middle" x="130.5" y="-282" font-family="Helvetica,sans-Serif" font-size="10.00">atomic</text>
</a>
</g>
</g>
<!-- Node1&#45;&gt;Node4 -->
<g id="edge3_Node000001_Node000004" class="edge">
<title>Node1&#45;&gt;Node4</title>
<g id="a_edge3_Node000001_Node000004"><a xlink:title=" ">
<path fill="none" stroke="#63b8ff" d="M206.88,-329.98C192.64,-321.69 170.75,-308.94 154.05,-299.22"/>
<polygon fill="#63b8ff" stroke="#63b8ff" points="155.79,-296.18 145.39,-294.17 152.27,-302.23 155.79,-296.18"/>
</a>
</g>
</g>
<!-- Node5 -->
<g id="Node000005" class="node">
<title>Node5</title>
<g id="a_Node000005"><a xlink:title=" ">
<polygon fill="#e0e0e0" stroke="#999999" points="435.5,-129 375.5,-129 375.5,-110 435.5,-110 435.5,-129"/>
<text text-anchor="middle" x="405.5" y="-117" font-family="Helvetica,sans-Serif" font-size="10.00">iostream</text>
</a>
</g>
</g>
<!-- Node1&#45;&gt;Node5 -->
<g id="edge4_Node000001_Node000005" class="edge">
<title>Node1&#45;&gt;Node5</title>
<g id="a_edge4_Node000001_Node000005"><a xlink:title=" ">
<path fill="none" stroke="#63b8ff" d="M220.19,-329.95C216.47,-302.22 208.72,-213.69 252.5,-165 280.83,-133.49 330.02,-123.76 364.98,-121.02"/>
<polygon fill="#63b8ff" stroke="#63b8ff" points="365.56,-124.49 375.33,-120.38 365.13,-117.5 365.56,-124.49"/>
</a>
</g>
</g>
<!-- Node6 -->
<g id="Node000006" class="node">
<title>Node6</title>
<g id="a_Node000006"><a xlink:title=" ">
<polygon fill="#e0e0e0" stroke="#999999" points="319,-184 262,-184 262,-165 319,-165 319,-184"/>
<text text-anchor="middle" x="290.5" y="-172" font-family="Helvetica,sans-Serif" font-size="10.00">ostream</text>
</a>
</g>
</g>
<!-- Node1&#45;&gt;Node6 -->
<g id="edge5_Node000001_Node000006" class="edge">
<title>Node1&#45;&gt;Node6</title>
<g id="a_edge5_Node000001_Node000006"><a xlink:title=" ">
<path fill="none" stroke="#63b8ff" d="M252.71,-335.58C300.35,-330.42 387.69,-317.87 406.5,-294 439.37,-252.29 364.64,-209.16 320.31,-188.32"/>
<polygon fill="#63b8ff" stroke="#63b8ff" points="321.65,-185.08 311.1,-184.1 318.73,-191.44 321.65,-185.08"/>
</a>
</g>
</g>
<!-- Node7 -->
<g id="Node000007" class="node">
<title>Node7</title>
<g id="a_Node000007"><a xlink:title=" ">
<polygon fill="#e0e0e0" stroke="#999999" points="323,-294 250,-294 250,-275 323,-275 323,-294"/>
<text text-anchor="middle" x="286.5" y="-282" font-family="Helvetica,sans-Serif" font-size="10.00">string_view</text>
</a>
</g>
</g>
<!-- Node1&#45;&gt;Node7 -->
<g id="edge6_Node000001_Node000007" class="edge">
<title>Node1&#45;&gt;Node7</title>
<g id="a_edge6_Node000001_Node000007"><a xlink:title=" ">
<path fill="none" stroke="#63b8ff" d="M231.94,-329.98C241.65,-322.07 256.32,-310.11 268,-300.58"/>
<polygon fill="#63b8ff" stroke="#63b8ff" points="270.33,-303.2 275.87,-294.17 265.9,-297.78 270.33,-303.2"/>
</a>
</g>
</g>
<!-- Node8 -->
<g id="Node000008" class="node">
<title>Node8</title>
<g id="a_Node000008"><a xlink:title=" ">
<polygon fill="#e0e0e0" stroke="#999999" points="397.5,-294 341.5,-294 341.5,-275 397.5,-275 397.5,-294"/>
<text text-anchor="middle" x="369.5" y="-282" font-family="Helvetica,sans-Serif" font-size="10.00">unistd.h</text>
</a>
</g>
</g>
<!-- Node1&#45;&gt;Node8 -->
<g id="edge7_Node000001_Node000008" class="edge">
<title>Node1&#45;&gt;Node8</title>
<g id="a_edge7_Node000001_Node000008"><a xlink:title=" ">
<path fill="none" stroke="#63b8ff" d="M245.28,-329.98C269.73,-321.23 308.03,-307.51 335.65,-297.62"/>
<polygon fill="#63b8ff" stroke="#63b8ff" points="337.05,-300.84 345.29,-294.17 334.69,-294.25 337.05,-300.84"/>
</a>
</g>
</g>
<!-- Node9 -->
<g id="Node000009" class="node">
<title>Node9</title>
<g id="a_Node000009"><a xlink:href="assert_8h.html" target="_top" xlink:title=" ">
<polygon fill="white" stroke="#666666" points="311.5,-74 243.5,-74 243.5,-55 311.5,-55 311.5,-74"/>
<text text-anchor="middle" x="277.5" y="-62" font-family="Helvetica,sans-Serif" font-size="10.00">fe/assert.h</text>
</a>
</g>
</g>
<!-- Node1&#45;&gt;Node9 -->
<g id="edge8_Node000001_Node000009" class="edge">
<title>Node1&#45;&gt;Node9</title>
<g id="a_edge8_Node000001_Node000009"><a xlink:title=" ">
<path fill="none" stroke="#63b8ff" d="M190.24,-335.32C161.99,-330.81 121.17,-319.97 96.5,-294 76.21,-272.64 77.5,-259.96 77.5,-230.5 77.5,-230.5 77.5,-230.5 77.5,-173.5 77.5,-103.33 174,-78.53 232.94,-69.93"/>
<polygon fill="#63b8ff" stroke="#63b8ff" points="233.68,-73.36 243.12,-68.55 232.74,-66.43 233.68,-73.36"/>
</a>
</g>
</g>
<!-- Node11 -->
<g id="Node000011" class="node">
<title>Node11</title>
<g id="a_Node000011"><a xlink:href="format_8h.html" target="_top" xlink:title=" ">
<polygon fill="white" stroke="#666666" points="557,-294 486,-294 486,-275 557,-275 557,-294"/>
<text text-anchor="middle" x="521.5" y="-282" font-family="Helvetica,sans-Serif" font-size="10.00">fe/format.h</text>
</a>
</g>
</g>
<!-- Node1&#45;&gt;Node11 -->
<g id="edge10_Node000001_Node000011" class="edge">
<title>Node1&#45;&gt;Node11</title>
<g id="a_edge10_Node000001_Node000011"><a xlink:title=" ">
<path fill="none" stroke="#63b8ff" d="M252.76,-332.98C305.81,-323.6 413.74,-304.54 475.46,-293.63"/>
<polygon fill="#63b8ff" stroke="#63b8ff" points="476.45,-297.01 485.69,-291.83 475.23,-290.12 476.45,-297.01"/>
</a>
</g>
</g>
<!-- Node10 -->
<g id="Node000010" class="node">
<title>Node10</title>
<g id="a_Node000010"><a xlink:title=" ">
<polygon fill="#e0e0e0" stroke="#999999" points="602.5,-19 550.5,-19 550.5,0 602.5,0 602.5,-19"/>
<text text-anchor="middle" x="576.5" y="-7" font-family="Helvetica,sans-Serif" font-size="10.00">cassert</text>
</a>
</g>
</g>
<!-- Node9&#45;&gt;Node10 -->
<g id="edge9_Node000009_Node000010" class="edge">
<title>Node9&#45;&gt;Node10</title>
<g id="a_edge9_Node000009_Node000010"><a xlink:title=" ">
<path fill="none" stroke="#63b8ff" d="M311.75,-56.65C314.71,-56.09 317.66,-55.53 320.5,-55 398.76,-40.47 490.76,-24.83 540.37,-16.51"/>
<polygon fill="#63b8ff" stroke="#63b8ff" points="541.01,-19.95 550.3,-14.85 539.86,-13.05 541.01,-19.95"/>
</a>
</g>
</g>
<!-- Node12 -->
<g id="Node000012" class="node">
<title>Node12</title>
<g id="a_Node000012"><a xlink:title=" ">
<polygon fill="#e0e0e0" stroke="#999999" points="647.5,-239 597.5,-239 597.5,-220 647.5,-220 647.5,-239"/>
<text text-anchor="middle" x="622.5" y="-227" font-family="Helvetica,sans-Serif" font-size="10.00">format</text>
</a>
</g>
</g>
<!-- Node11&#45;&gt;Node12 -->
<g id="edge11_Node000011_Node000012" class="edge">
<title>Node11&#45;&gt;Node12</title>
<g id="a_edge11_Node000011_Node000012"><a xlink:title=" ">
<path fill="none" stroke="#63b8ff" d="M537.73,-274.98C553.68,-266.61 578.28,-253.7 596.88,-243.95"/>
<polygon fill="#63b8ff" stroke="#63b8ff" points="598.75,-246.92 605.98,-239.17 595.5,-240.72 598.75,-246.92"/>
</a>
</g>
</g>
<!-- Node13 -->
<g id="Node000013" class="node">
<title>Node13</title>
<g id="a_Node000013"><a xlink:href="loc_8h.html" target="_top" xlink:title=" ">
<polygon fill="white" stroke="#666666" points="579,-239 526,-239 526,-220 579,-220 579,-239"/>
<text text-anchor="middle" x="552.5" y="-227" font-family="Helvetica,sans-Serif" font-size="10.00">fe/loc.h</text>
</a>
</g>
</g>
<!-- Node11&#45;&gt;Node13 -->
<g id="edge12_Node000011_Node000013" class="edge">
<title>Node11&#45;&gt;Node13</title>
<g id="a_edge12_Node000011_Node000013"><a xlink:title=" ">
<path fill="none" stroke="#63b8ff" d="M526.62,-274.75C530.86,-267.49 537.03,-256.95 542.28,-247.98"/>
<polygon fill="#63b8ff" stroke="#63b8ff" points="545.45,-249.49 547.48,-239.09 539.41,-245.95 545.45,-249.49"/>
</a>
</g>
</g>
<!-- Node28 -->
<g id="Node000028" class="node">
<title>Node28</title>
<g id="a_Node000028"><a xlink:href="utf8_8h.html" target="_top" xlink:title=" ">
<polygon fill="white" stroke="#666666" points="505.5,-239 447.5,-239 447.5,-220 505.5,-220 505.5,-239"/>
<text text-anchor="middle" x="476.5" y="-227" font-family="Helvetica,sans-Serif" font-size="10.00">fe/utf8.h</text>
</a>
</g>
</g>
<!-- Node11&#45;&gt;Node28 -->
<g id="edge31_Node000011_Node000028" class="edge">
<title>Node11&#45;&gt;Node28</title>
<g id="a_edge31_Node000011_Node000028"><a xlink:title=" ">
<path fill="none" stroke="#63b8ff" d="M514.07,-274.75C507.65,-267.18 498.19,-256.05 490.38,-246.84"/>
<polygon fill="#63b8ff" stroke="#63b8ff" points="492.93,-244.45 483.79,-239.09 487.6,-248.98 492.93,-244.45"/>
</a>
</g>
</g>
<!-- Node14 -->
<g id="Node000014" class="node">
<title>Node14</title>
<g id="a_Node000014"><a xlink:title=" ">
<polygon fill="#e0e0e0" stroke="#999999" points="588.5,-184 520.5,-184 520.5,-165 588.5,-165 588.5,-184"/>
<text text-anchor="middle" x="554.5" y="-172" font-family="Helvetica,sans-Serif" font-size="10.00">filesystem</text>
</a>
</g>
</g>
<!-- Node13&#45;&gt;Node14 -->
<g id="edge13_Node000013_Node000014" class="edge">
<title>Node13&#45;&gt;Node14</title>
<g id="a_edge13_Node000013_Node000014"><a xlink:title=" ">
<path fill="none" stroke="#63b8ff" d="M552.83,-219.75C553.09,-212.8 553.47,-202.85 553.8,-194.13"/>
<polygon fill="#63b8ff" stroke="#63b8ff" points="557.3,-194.21 554.18,-184.09 550.3,-193.95 557.3,-194.21"/>
</a>
</g>
</g>
<!-- Node15 -->
<g id="Node000015" class="node">
<title>Node15</title>
<g id="a_Node000015"><a xlink:href="sym_8h.html" target="_top" xlink:title=" ">
<polygon fill="white" stroke="#666666" points="666,-184 607,-184 607,-165 666,-165 666,-184"/>
<text text-anchor="middle" x="636.5" y="-172" font-family="Helvetica,sans-Serif" font-size="10.00">fe/sym.h</text>
</a>
</g>
</g>
<!-- Node13&#45;&gt;Node15 -->
<g id="edge14_Node000013_Node000015" class="edge">
<title>Node13&#45;&gt;Node15</title>
<g id="a_edge14_Node000013_Node000015"><a xlink:title=" ">
<path fill="none" stroke="#63b8ff" d="M566,-219.98C578.9,-211.84 598.6,-199.41 613.9,-189.76"/>
<polygon fill="#63b8ff" stroke="#63b8ff" points="616.17,-192.47 622.76,-184.17 612.43,-186.55 616.17,-192.47"/>
</a>
</g>
</g>
<!-- Node15&#45;&gt;Node3 -->
<g id="edge16_Node000015_Node000003" class="edge">
<title>Node15&#45;&gt;Node3</title>
<g id="a_edge16_Node000015_Node000003"><a xlink:title=" ">
<path fill="none" stroke="#63b8ff" d="M606.74,-166.72C603.63,-166.1 600.51,-165.51 597.5,-165 479.95,-144.93 339.22,-130.1 274.82,-123.81"/>
<polygon fill="#63b8ff" stroke="#63b8ff" points="275.08,-120.32 264.79,-122.85 274.41,-127.29 275.08,-120.32"/>
</a>
</g>
</g>
<!-- Node15&#45;&gt;Node5 -->
<g id="edge18_Node000015_Node000005" class="edge">
<title>Node15&#45;&gt;Node5</title>
<g id="a_edge18_Node000015_Node000005"><a xlink:title=" ">
<path fill="none" stroke="#63b8ff" d="M606.77,-166.68C565.76,-157.27 491.7,-140.28 445.76,-129.74"/>
<polygon fill="#63b8ff" stroke="#63b8ff" points="446.38,-126.29 435.85,-127.46 444.81,-133.11 446.38,-126.29"/>
</a>
</g>
</g>
<!-- Node15&#45;&gt;Node10 -->
<g id="edge15_Node000015_Node000010" class="edge">
<title>Node15&#45;&gt;Node10</title>
<g id="a_edge15_Node000015_Node000010"><a xlink:title=" ">
<path fill="none" stroke="#63b8ff" d="M666.02,-171.81C719.76,-168.07 830.27,-157.07 854.5,-129 876,-104.08 878.88,-80.03 857.5,-55 826.44,-18.64 681.59,-11.82 612.87,-10.66"/>
<polygon fill="#63b8ff" stroke="#63b8ff" points="612.57,-7.16 602.52,-10.52 612.47,-14.16 612.57,-7.16"/>
</a>
</g>
</g>
<!-- Node16 -->
<g id="Node000016" class="node">
<title>Node16</title>
<g id="a_Node000016"><a xlink:title=" ">
<polygon fill="#e0e0e0" stroke="#999999" points="671,-129 642,-129 642,-110 671,-110 671,-129"/>
<text text-anchor="middle" x="656.5" y="-117" font-family="Helvetica,sans-Serif" font-size="10.00">bit</text>
</a>
</g>
</g>
<!-- Node15&#45;&gt;Node16 -->
<g id="edge17_Node000015_Node000016" class="edge">
<title>Node15&#45;&gt;Node16</title>
<g id="a_edge17_Node000015_Node000016"><a xlink:title=" ">
<path fill="none" stroke="#63b8ff" d="M639.8,-164.75C642.48,-157.65 646.35,-147.4 649.69,-138.56"/>
<polygon fill="#63b8ff" stroke="#63b8ff" points="653,-139.68 653.26,-129.09 646.45,-137.21 653,-139.68"/>
</a>
</g>
</g>
<!-- Node17 -->
<g id="Node000017" class="node">
<title>Node17</title>
<g id="a_Node000017"><a xlink:title=" ">
<polygon fill="#e0e0e0" stroke="#999999" points="733.5,-129 689.5,-129 689.5,-110 733.5,-110 733.5,-129"/>
<text text-anchor="middle" x="711.5" y="-117" font-family="Helvetica,sans-Serif" font-size="10.00">string</text>
</a>
</g>
</g>
<!-- Node15&#45;&gt;Node17 -->
<g id="edge19_Node000015_Node000017" class="edge">
<title>Node15&#45;&gt;Node17</title>
<g id="a_edge19_Node000015_Node000017"><a xlink:title=" ">
<path fill="none" stroke="#63b8ff" d="M648.55,-164.98C659.96,-156.92 677.33,-144.65 690.93,-135.03"/>
<polygon fill="#63b8ff" stroke="#63b8ff" points="693.08,-137.8 699.23,-129.17 689.04,-132.08 693.08,-137.8"/>
</a>
</g>
</g>
<!-- Node18 -->
<g id="Node000018" class="node">
<title>Node18</title>
<g id="a_Node000018"><a xlink:title=" ">
<polygon fill="#e0e0e0" stroke="#999999" points="845,-129 752,-129 752,-110 845,-110 845,-129"/>
<text text-anchor="middle" x="798.5" y="-117" font-family="Helvetica,sans-Serif" font-size="10.00">unordered_map</text>
</a>
</g>
</g>
<!-- Node15&#45;&gt;Node18 -->
<g id="edge20_Node000015_Node000018" class="edge">
<title>Node15&#45;&gt;Node18</title>
<g id="a_edge20_Node000015_Node000018"><a xlink:title=" ">
<path fill="none" stroke="#63b8ff" d="M662.53,-164.98C689.61,-156.13 732.21,-142.19 762.51,-132.28"/>
<polygon fill="#63b8ff" stroke="#63b8ff" points="763.85,-135.52 772.27,-129.08 761.68,-128.87 763.85,-135.52"/>
</a>
</g>
</g>
<!-- Node19 -->
<g id="Node000019" class="node">
<title>Node19</title>
<g id="a_Node000019"><a xlink:title=" ">
<polygon fill="#e0e0e0" stroke="#999999" points="539.5,-129 453.5,-129 453.5,-110 539.5,-110 539.5,-129"/>
<text text-anchor="middle" x="496.5" y="-117" font-family="Helvetica,sans-Serif" font-size="10.00">unordered_set</text>
</a>
</g>
</g>
<!-- Node15&#45;&gt;Node19 -->
<g id="edge21_Node000015_Node000019" class="edge">
<title>Node15&#45;&gt;Node19</title>
<g id="a_edge21_Node000015_Node000019"><a xlink:title=" ">
<path fill="none" stroke="#63b8ff" d="M614.01,-164.98C590.98,-156.27 554.96,-142.63 528.87,-132.75"/>
<polygon fill="#63b8ff" stroke="#63b8ff" points="529.99,-129.44 519.4,-129.17 527.52,-135.98 529.99,-129.44"/>
</a>
</g>
</g>
<!-- Node20 -->
<g id="Node000020" class="node">
<title>Node20</title>
<g id="a_Node000020"><a xlink:href="arena_8h.html" target="_top" xlink:title=" ">
<polygon fill="white" stroke="#666666" points="623.5,-129 557.5,-129 557.5,-110 623.5,-110 623.5,-129"/>
<text text-anchor="middle" x="590.5" y="-117" font-family="Helvetica,sans-Serif" font-size="10.00">fe/arena.h</text>
</a>
</g>
</g>
<!-- Node15&#45;&gt;Node20 -->
<g id="edge22_Node000015_Node000020" class="edge">
<title>Node15&#45;&gt;Node20</title>
<g id="a_edge22_Node000015_Node000020"><a xlink:title=" ">
<path fill="none" stroke="#63b8ff" d="M628.9,-164.75C622.34,-157.18 612.68,-146.05 604.69,-136.84"/>
<polygon fill="#63b8ff" stroke="#63b8ff" points="607.15,-134.35 597.95,-129.09 601.87,-138.94 607.15,-134.35"/>
</a>
</g>
</g>
<!-- Node20&#45;&gt;Node9 -->
<g id="edge30_Node000020_Node000009" class="edge">
<title>Node20&#45;&gt;Node9</title>
<g id="a_edge30_Node000020_Node000009"><a xlink:title=" ">
<path fill="none" stroke="#63b8ff" d="M557.05,-111.6C554.16,-111.04 551.28,-110.5 548.5,-110 450.69,-92.39 423.21,-91.96 321.79,-74.17"/>
<polygon fill="#63b8ff" stroke="#63b8ff" points="322.2,-70.69 311.75,-72.39 320.98,-77.58 322.2,-70.69"/>
</a>
</g>
</g>
<!-- Node21 -->
<g id="Node000021" class="node">
<title>Node21</title>
<g id="a_Node000021"><a xlink:title=" ">
<polygon fill="#e0e0e0" stroke="#999999" points="393.5,-74 329.5,-74 329.5,-55 393.5,-55 393.5,-74"/>
<text text-anchor="middle" x="361.5" y="-62" font-family="Helvetica,sans-Serif" font-size="10.00">algorithm</text>
</a>
</g>
</g>
<!-- Node20&#45;&gt;Node21 -->
<g id="edge23_Node000020_Node000021" class="edge">
<title>Node20&#45;&gt;Node21</title>
<g id="a_edge23_Node000020_Node000021"><a xlink:title=" ">
<path fill="none" stroke="#63b8ff" d="M557.2,-110.79C516.58,-101.39 447.86,-85.49 403.6,-75.24"/>
<polygon fill="#63b8ff" stroke="#63b8ff" points="404.26,-71.8 393.73,-72.96 402.68,-78.62 404.26,-71.8"/>
</a>
</g>
</g>
<!-- Node22 -->
<g id="Node000022" class="node">
<title>Node22</title>
<g id="a_Node000022"><a xlink:title=" ">
<polygon fill="#e0e0e0" stroke="#999999" points="443.5,-74 411.5,-74 411.5,-55 443.5,-55 443.5,-74"/>
<text text-anchor="middle" x="427.5" y="-62" font-family="Helvetica,sans-Serif" font-size="10.00">list</text>
</a>
</g>
</g>
<!-- Node20&#45;&gt;Node22 -->
<g id="edge24_Node000020_Node000022" class="edge">
<title>Node20&#45;&gt;Node22</title>
<g id="a_edge24_Node000020_Node000022"><a xlink:title=" ">
<path fill="none" stroke="#63b8ff" d="M563.49,-109.93C537.54,-101.66 497,-88.67 453.29,-74.23"/>
<polygon fill="#63b8ff" stroke="#63b8ff" points="454.22,-70.85 443.63,-71.02 452.02,-77.49 454.22,-70.85"/>
</a>
</g>
</g>
<!-- Node23 -->
<g id="Node000023" class="node">
<title>Node23</title>
<g id="a_Node000023"><a xlink:title=" ">
<polygon fill="#e0e0e0" stroke="#999999" points="519.5,-74 461.5,-74 461.5,-55 519.5,-55 519.5,-74"/>
<text text-anchor="middle" x="490.5" y="-62" font-family="Helvetica,sans-Serif" font-size="10.00">memory</text>
</a>
</g>
</g>
<!-- Node20&#45;&gt;Node23 -->
<g id="edge25_Node000020_Node000023" class="edge">
<title>Node20&#45;&gt;Node23</title>
<g id="a_edge25_Node000020_Node000023"><a xlink:title=" ">
<path fill="none" stroke="#63b8ff" d="M574.43,-109.98C558.64,-101.61 534.28,-88.7 515.87,-78.95"/>
<polygon fill="#63b8ff" stroke="#63b8ff" points="517.33,-75.76 506.86,-74.17 514.06,-81.95 517.33,-75.76"/>
</a>
</g>
</g>
<!-- Node24 -->
<g id="Node000024" class="node">
<title>Node24</title>
<g id="a_Node000024"><a xlink:title=" ">
<polygon fill="#e0e0e0" stroke="#999999" points="643,-74 538,-74 538,-55 643,-55 643,-74"/>
<text text-anchor="middle" x="590.5" y="-62" font-family="Helvetica,sans-Serif" font-size="10.00">memory_resource</text>
</a>
</g>
</g>
<!-- Node20&#45;&gt;Node24 -->
<g id="edge26_Node000020_Node000024" class="edge">
<title>Node20&#45;&gt;Node24</title>
<g id="a_edge26_Node000020_Node000024"><a xlink:title=" ">
<path fill="none" stroke="#63b8ff" d="M590.5,-109.75C590.5,-102.8 590.5,-92.85 590.5,-84.13"/>
<polygon fill="#63b8ff" stroke="#63b8ff" points="594,-84.09 590.5,-74.09 587,-84.09 594,-84.09"/>
</a>
</g>
</g>
<!-- Node25 -->
<g id="Node000025" class="node">
<title>Node25</title>
<g id="a_Node000025"><a xlink:title=" ">
<polygon fill="#e0e0e0" stroke="#999999" points="698,-74 661,-74 661,-55 698,-55 698,-74"/>
<text text-anchor="middle" x="679.5" y="-62" font-family="Helvetica,sans-Serif" font-size="10.00">new</text>
</a>
</g>
</g>
<!-- Node20&#45;&gt;Node25 -->
<g id="edge27_Node000020_Node000025" class="edge">
<title>Node20&#45;&gt;Node25</title>
<g id="a_edge27_Node000020_Node000025"><a xlink:title=" ">
<path fill="none" stroke="#63b8ff" d="M604.8,-109.98C618.6,-101.77 639.74,-89.18 656.01,-79.49"/>
<polygon fill="#63b8ff" stroke="#63b8ff" points="658.14,-82.29 664.94,-74.17 654.56,-76.28 658.14,-82.29"/>
</a>
</g>
</g>
<!-- Node26 -->
<g id="Node000026" class="node">
<title>Node26</title>
<g id="a_Node000026"><a xlink:title=" ">
<polygon fill="#e0e0e0" stroke="#999999" points="785,-74 716,-74 716,-55 785,-55 785,-74"/>
<text text-anchor="middle" x="750.5" y="-62" font-family="Helvetica,sans-Serif" font-size="10.00">type_traits</text>
</a>
</g>
</g>
<!-- Node20&#45;&gt;Node26 -->
<g id="edge28_Node000020_Node000026" class="edge">
<title>Node20&#45;&gt;Node26</title>
<g id="a_edge28_Node000020_Node000026"><a xlink:title=" ">
<path fill="none" stroke="#63b8ff" d="M616.21,-109.98C642.95,-101.13 685.03,-87.19 714.95,-77.28"/>
<polygon fill="#63b8ff" stroke="#63b8ff" points="716.2,-80.55 724.59,-74.08 714,-73.9 716.2,-80.55"/>
</a>
</g>
</g>
<!-- Node27 -->
<g id="Node000027" class="node">
<title>Node27</title>
<g id="a_Node000027"><a xlink:title=" ">
<polygon fill="#e0e0e0" stroke="#999999" points="848,-74 803,-74 803,-55 848,-55 848,-74"/>
<text text-anchor="middle" x="825.5" y="-62" font-family="Helvetica,sans-Serif" font-size="10.00">utility</text>
</a>
</g>
</g>
<!-- Node20&#45;&gt;Node27 -->
<g id="edge29_Node000020_Node000027" class="edge">
<title>Node20&#45;&gt;Node27</title>
<g id="a_edge29_Node000020_Node000027"><a xlink:title=" ">
<path fill="none" stroke="#63b8ff" d="M623.84,-111.79C662.36,-103.92 727.86,-90.15 792.85,-74.31"/>
<polygon fill="#63b8ff" stroke="#63b8ff" points="793.97,-77.64 802.85,-71.86 792.3,-70.84 793.97,-77.64"/>
</a>
</g>
</g>
<!-- Node28&#45;&gt;Node6 -->
<g id="edge34_Node000028_Node000006" class="edge">
<title>Node28&#45;&gt;Node6</title>
<g id="a_edge34_Node000028_Node000006"><a xlink:title=" ">
<path fill="none" stroke="#63b8ff" d="M447.44,-220.22C415.54,-211.13 364.2,-196.5 328.98,-186.46"/>
<polygon fill="#63b8ff" stroke="#63b8ff" points="329.63,-183.01 319.05,-183.64 327.71,-189.74 329.63,-183.01"/>
</a>
</g>
</g>
<!-- Node28&#45;&gt;Node9 -->
<g id="edge35_Node000028_Node000009" class="edge">
<title>Node28&#45;&gt;Node9</title>
<g id="a_edge35_Node000028_Node000009"><a xlink:title=" ">
<path fill="none" stroke="#63b8ff" d="M447.28,-220.46C425,-213.35 394.34,-201.39 371.5,-184 333.87,-155.36 302.66,-108.37 287.47,-83.02"/>
<polygon fill="#63b8ff" stroke="#63b8ff" points="290.35,-81.03 282.28,-74.17 284.31,-84.56 290.35,-81.03"/>
</a>
</g>
</g>
<!-- Node29 -->
<g id="Node000029" class="node">
<title>Node29</title>
<g id="a_Node000029"><a xlink:title=" ">
<polygon fill="#e0e0e0" stroke="#999999" points="430,-184 381,-184 381,-165 430,-165 430,-184"/>
<text text-anchor="middle" x="405.5" y="-172" font-family="Helvetica,sans-Serif" font-size="10.00">cctype</text>
</a>
</g>
</g>
<!-- Node28&#45;&gt;Node29 -->
<g id="edge32_Node000028_Node000029" class="edge">
<title>Node28&#45;&gt;Node29</title>
<g id="a_edge32_Node000028_Node000029"><a xlink:title=" ">
<path fill="none" stroke="#63b8ff" d="M465.09,-219.98C454.39,-212 438.16,-199.88 425.34,-190.31"/>
<polygon fill="#63b8ff" stroke="#63b8ff" points="427.22,-187.35 417.11,-184.17 423.03,-192.96 427.22,-187.35"/>
</a>
</g>
</g>
<!-- Node30 -->
<g id="Node000030" class="node">
<title>Node30</title>
<g id="a_Node000030"><a xlink:title=" ">
<polygon fill="#e0e0e0" stroke="#999999" points="502.5,-184 448.5,-184 448.5,-165 502.5,-165 502.5,-184"/>
<text text-anchor="middle" x="475.5" y="-172" font-family="Helvetica,sans-Serif" font-size="10.00">istream</text>
</a>
</g>
</g>
<!-- Node28&#45;&gt;Node30 -->
<g id="edge33_Node000028_Node000030" class="edge">
<title>Node28&#45;&gt;Node30</title>
<g id="a_edge33_Node000028_Node000030"><a xlink:title=" ">
<path fill="none" stroke="#63b8ff" d="M476.33,-219.75C476.2,-212.8 476.02,-202.85 475.85,-194.13"/>
<polygon fill="#63b8ff" stroke="#63b8ff" points="479.35,-194.02 475.66,-184.09 472.35,-194.15 479.35,-194.02"/>
</a>
</g>
</g>
</g>
</svg>
