<?xml version="1.0" encoding="UTF-8" standalone="no"?>
<!DOCTYPE svg PUBLIC "-//W3C//DTD SVG 1.1//EN"
 "http://www.w3.org/Graphics/SVG/1.1/DTD/svg11.dtd">
<!-- Generated by graphviz version 2.43.0 (0)
 -->
<!-- Title: fe/utf8.h Pages: 1 -->
<svg width="205pt" height="82pt"
 viewBox="0.00 0.00 205.00 82.00" xmlns="http://www.w3.org/2000/svg" xmlns:xlink="http://www.w3.org/1999/xlink">
<g id="graph0" class="graph" transform="scale(1 1) rotate(0) translate(4 78)">
<title>fe/utf8.h</title>
<!-- Node1 -->
<g id="Node000001" class="node">
<title>Node1</title>
<g id="a_Node000001"><a xlink:title=" ">
<polygon fill="#999999" stroke="#666666" points="123.5,-74 65.5,-74 65.5,-55 123.5,-55 123.5,-74"/>
<text text-anchor="middle" x="94.5" y="-62" font-family="Helvetica,sans-Serif" font-size="10.00">fe/utf8.h</text>
</a>
</g>
</g>
<!-- Node2 -->
<g id="Node000002" class="node">
<title>Node2</title>
<g id="a_Node000002"><a xlink:title=" ">
<polygon fill="#e0e0e0" stroke="#999999" points="49,-19 0,-19 0,0 49,0 49,-19"/>
<text text-anchor="middle" x="24.5" y="-7" font-family="Helvetica,sans-Serif" font-size="10.00">cctype</text>
</a>
</g>
</g>
<!-- Node1&#45;&gt;Node2 -->
<g id="edge1_Node000001_Node000002" class="edge">
<title>Node1&#45;&gt;Node2</title>
<g id="a_edge1_Node000001_Node000002"><a xlink:title=" ">
<path fill="none" stroke="#63b8ff" d="M83.25,-54.98C72.7,-47 56.7,-34.88 44.06,-25.31"/>
<polygon fill="#63b8ff" stroke="#63b8ff" points="46.04,-22.42 35.95,-19.17 41.81,-28 46.04,-22.42"/>
</a>
</g>
</g>
<!-- Node3 -->
<g id="Node000003" class="node">
<title>Node3</title>
<g id="a_Node000003"><a xlink:title=" ">
<polygon fill="#e0e0e0" stroke="#999999" points="121.5,-19 67.5,-19 67.5,0 121.5,0 121.5,-19"/>
<text text-anchor="middle" x="94.5" y="-7" font-family="Helvetica,sans-Serif" font-size="10.00">istream</text>
</a>
</g>
</g>
<!-- Node1&#45;&gt;Node3 -->
<g id="edge2_Node000001_Node000003" class="edge">
<title>Node1&#45;&gt;Node3</title>
<g id="a_edge2_Node000001_Node000003"><a xlink:title=" ">
<path fill="none" stroke="#63b8ff" d="M94.5,-54.75C94.5,-47.8 94.5,-37.85 94.5,-29.13"/>
<polygon fill="#63b8ff" stroke="#63b8ff" points="98,-29.09 94.5,-19.09 91,-29.09 98,-29.09"/>
</a>
</g>
</g>
<!-- Node4 -->
<g id="Node000004" class="node">
<title>Node4</title>
<g id="a_Node000004"><a xlink:title=" ">
<polygon fill="#e0e0e0" stroke="#999999" points="197,-19 140,-19 140,0 197,0 197,-19"/>
<text text-anchor="middle" x="168.5" y="-7" font-family="Helvetica,sans-Serif" font-size="10.00">ostream</text>
</a>
</g>
</g>
<!-- Node1&#45;&gt;Node4 -->
<g id="edge3_Node000001_Node000004" class="edge">
<title>Node1&#45;&gt;Node4</title>
<g id="a_edge3_Node000001_Node000004"><a xlink:title=" ">
<path fill="none" stroke="#63b8ff" d="M106.39,-54.98C117.65,-46.92 134.79,-34.65 148.21,-25.03"/>
<polygon fill="#63b8ff" stroke="#63b8ff" points="150.3,-27.84 156.39,-19.17 146.23,-22.15 150.3,-27.84"/>
</a>
</g>
</g>
</g>
</svg>
