<?xml version="1.0" encoding="UTF-8" standalone="no"?>
<!DOCTYPE svg PUBLIC "-//W3C//DTD SVG 1.1//EN"
 "http://www.w3.org/Graphics/SVG/1.1/DTD/svg11.dtd">
<!-- Generated by graphviz version 2.43.0 (0)
 -->
<!-- Title: fe/utf8.h Pages: 1 -->
<svg width="174pt" height="192pt"
 viewBox="0.00 0.00 173.78 192.00" xmlns="http://www.w3.org/2000/svg" xmlns:xlink="http://www.w3.org/1999/xlink">

<svg id="main" version="1.1" xmlns="http://www.w3.org/2000/svg" xmlns:xlink="http://www.w3.org/1999/xlink" xml:space="preserve">

<style type="text/css"><![CDATA[
.node, .edge {opacity: 0.7;}
.node.selected, .edge.selected {opacity: 1;}
.edge:hover path { stroke: red; }
.edge:hover polygon { stroke: red; fill: red; }
]]></style>
<script type="application/ecmascript" xlink:href="svg.min.js"/>
<svg id="graph" class="graph">
<g id="graph0" class="graph" transform="scale(1 1) rotate(0) translate(4 188)">
<title>fe/utf8.h</title>
<!-- Node1 -->
<g id="Node000001" class="node">
<title>Node1</title>
<g id="a_Node000001"><a xlink:title=" ">
<polygon fill="#999999" stroke="#666666" points="119.78,-184 61.78,-184 61.78,-165 119.78,-165 119.78,-184"/>
<text text-anchor="middle" x="90.78" y="-172" font-family="Helvetica,sans-Serif" font-size="10.00">fe/utf8.h</text>
</a>
</g>
</g>
<!-- Node2 -->
<g id="Node000002" class="node">
<title>Node2</title>
<g id="a_Node000002"><a xlink:href="format_8h.html" target="_top" xlink:title=" ">
<polygon fill="white" stroke="#666666" points="84.28,-129 13.28,-129 13.28,-110 84.28,-110 84.28,-129"/>
<text text-anchor="middle" x="48.78" y="-117" font-family="Helvetica,sans-Serif" font-size="10.00">fe/format.h</text>
</a>
</g>
</g>
<!-- Node1&#45;&gt;Node2 -->
<g id="edge1_Node000001_Node000002" class="edge">
<title>Node1&#45;&gt;Node2</title>
<g id="a_edge1_Node000001_Node000002"><a xlink:title=" ">
<path fill="none" stroke="#63b8ff" d="M77.45,-156.67C70.17,-147.5 61.48,-136.52 55.59,-129.09"/>
<polygon fill="#63b8ff" stroke="#63b8ff" points="74.89,-159.08 83.85,-164.75 80.38,-154.74 74.89,-159.08"/>
</a>
</g>
</g>
<!-- Node6 -->
<g id="Node000006" class="node">
<title>Node6</title>
<g id="a_Node000006"><a xlink:href="lexer_8h.html" target="_top" xlink:title=" ">
<polygon fill="white" stroke="#666666" points="164.78,-129 102.78,-129 102.78,-110 164.78,-110 164.78,-129"/>
<text text-anchor="middle" x="133.78" y="-117" font-family="Helvetica,sans-Serif" font-size="10.00">fe/lexer.h</text>
</a>
</g>
</g>
<!-- Node1&#45;&gt;Node6 -->
<g id="edge6_Node000001_Node000006" class="edge">
<title>Node1&#45;&gt;Node6</title>
<g id="a_edge6_Node000001_Node000006"><a xlink:title=" ">
<path fill="none" stroke="#63b8ff" d="M104.2,-156.96C111.7,-147.72 120.72,-136.6 126.81,-129.09"/>
<polygon fill="#63b8ff" stroke="#63b8ff" points="101.47,-154.78 97.88,-164.75 106.9,-159.19 101.47,-154.78"/>
</a>
</g>
</g>
<!-- Node3 -->
<g id="Node000003" class="node">
<title>Node3</title>
<g id="a_Node000003"><a xlink:href="driver_8h.html" target="_top" xlink:title=" ">
<polygon fill="white" stroke="#666666" points="91.78,-19 25.78,-19 25.78,0 91.78,0 91.78,-19"/>
<text text-anchor="middle" x="58.78" y="-7" font-family="Helvetica,sans-Serif" font-size="10.00">fe/driver.h</text>
</a>
</g>
</g>
<!-- Node2&#45;&gt;Node3 -->
<g id="edge2_Node000002_Node000003" class="edge">
<title>Node2&#45;&gt;Node3</title>
<g id="a_edge2_Node000002_Node000003"><a xlink:title=" ">
<path fill="none" stroke="#63b8ff" d="M26.34,-103.73C10.69,-91.45 -5.95,-73.1 2.78,-55 10.66,-38.67 27.77,-26.49 41.01,-19.04"/>
<polygon fill="#63b8ff" stroke="#63b8ff" points="24.63,-106.82 34.77,-109.9 28.76,-101.17 24.63,-106.82"/>
</a>
</g>
</g>
<!-- Node4 -->
<g id="Node000004" class="node">
<title>Node4</title>
<g id="a_Node000004"><a xlink:href="loc_8cpp_8h.html" target="_top" xlink:title=" ">
<polygon fill="white" stroke="#666666" points="85.28,-74 12.28,-74 12.28,-55 85.28,-55 85.28,-74"/>
<text text-anchor="middle" x="48.78" y="-62" font-family="Helvetica,sans-Serif" font-size="10.00">fe/loc.cpp.h</text>
</a>
</g>
</g>
<!-- Node2&#45;&gt;Node4 -->
<g id="edge3_Node000002_Node000004" class="edge">
<title>Node2&#45;&gt;Node4</title>
<g id="a_edge3_Node000002_Node000004"><a xlink:title=" ">
<path fill="none" stroke="#63b8ff" d="M48.78,-99.66C48.78,-90.93 48.78,-80.99 48.78,-74.09"/>
<polygon fill="#63b8ff" stroke="#63b8ff" points="45.28,-99.75 48.78,-109.75 52.28,-99.75 45.28,-99.75"/>
</a>
</g>
</g>
<!-- Node5 -->
<g id="Node000005" class="node">
<title>Node5</title>
<g id="a_Node000005"><a xlink:href="term_8h.html" target="_top" xlink:title=" ">
<polygon fill="white" stroke="#666666" points="165.78,-74 103.78,-74 103.78,-55 165.78,-55 165.78,-74"/>
<text text-anchor="middle" x="134.78" y="-62" font-family="Helvetica,sans-Serif" font-size="10.00">fe/term.h</text>
</a>
</g>
</g>
<!-- Node2&#45;&gt;Node5 -->
<g id="edge4_Node000002_Node000005" class="edge">
<title>Node2&#45;&gt;Node5</title>
<g id="a_edge4_Node000002_Node000005"><a xlink:title=" ">
<path fill="none" stroke="#63b8ff" d="M71.18,-104.7C86.85,-95.04 107.29,-82.44 120.71,-74.17"/>
<polygon fill="#63b8ff" stroke="#63b8ff" points="69.28,-101.76 62.6,-109.98 72.95,-107.72 69.28,-101.76"/>
</a>
</g>
</g>
<!-- Node5&#45;&gt;Node3 -->
<g id="edge5_Node000005_Node000003" class="edge">
<title>Node5&#45;&gt;Node3</title>
<g id="a_edge5_Node000005_Node000003"><a xlink:title=" ">
<path fill="none" stroke="#63b8ff" d="M114.21,-49.15C100.47,-39.57 82.86,-27.29 71.21,-19.17"/>
<polygon fill="#63b8ff" stroke="#63b8ff" points="112.37,-52.14 122.57,-54.98 116.37,-46.39 112.37,-52.14"/>
</a>
</g>
</g>
</g>
</svg>
</svg>

<style type='text/css'>
<![CDATA[
[data-mouse-over-selected='false'] { opacity: 0.7; }
[data-mouse-over-selected='true']  { opacity: 1.0; }
]]>
</style>
<script type="application/ecmascript"><![CDATA[
document.addEventListener('DOMContentLoaded', (event) => {
  highlightEdges();
  highlightAdjacentNodes();
});
]]></script>
</svg>
